<?xml version="1.0" encoding="utf-8"?>
<!-- Generator: Adobe Illustrator 18.0.0, SVG Export Plug-In . SVG Version: 6.00 Build 0)  -->
<!DOCTYPE svg PUBLIC "-//W3C//DTD SVG 1.1//EN" "http://www.w3.org/Graphics/SVG/1.1/DTD/svg11.dtd">
<svg version="1.1" id="Layer_1" xmlns="http://www.w3.org/2000/svg" xmlns:xlink="http://www.w3.org/1999/xlink" x="0px" y="0px"
	 viewBox="0 0 86 52" enable-background="new 0 0 86 52" xml:space="preserve">
<g>
	<g>
		<g>
			<g>
				<path fill="#FFFFFF" stroke="#2895F1" stroke-width="0.75" stroke-linecap="round" stroke-miterlimit="10" d="M76.3,51
					c4.9,0,8.8-4,8.8-8.8c0-4.9-4-8.8-8.8-8.8c-0.3,0-0.6,0-0.9,0c0.9-1.6,1.5-3.5,1.5-5.6c0-6.1-5-11.1-11.1-11.1
					c-2.8,0-5.3,1-7.2,2.7C56.7,8.9,47.5,1,36.5,1C24.1,1,14.1,11,14.1,23.4c0,1.2,0.1,2.4,0.3,3.5c-0.5-0.1-0.9-0.1-1.4-0.1
					c-6.7,0-12.1,5.4-12.1,12.1c0,6.2,4.7,11.3,10.7,12L76.3,51z"/>
			</g>
		</g>
	</g>
	<g>
		<line fill="#ADE1F7" stroke="#2895F1" stroke-width="0.5" stroke-miterlimit="10" x1="38.5" y1="13.9" x2="38.5" y2="44.1"/>
		<line fill="#ADE1F7" stroke="#2895F1" stroke-width="0.5" stroke-miterlimit="10" x1="53.5" y1="29" x2="23.4" y2="29"/>
	</g>
	<g>
		<line fill="#ADE1F7" stroke="#2895F1" stroke-width="0.5" stroke-miterlimit="10" x1="49.1" y1="18.3" x2="27.8" y2="39.7"/>
		<line fill="#ADE1F7" stroke="#2895F1" stroke-width="0.5" stroke-miterlimit="10" x1="49.1" y1="39.7" x2="27.8" y2="18.3"/>
	</g>
	
		<circle fill="#FFFFFF" stroke="#2895F1" stroke-width="0.75" stroke-linecap="round" stroke-miterlimit="10" cx="38.5" cy="13.9" r="1.9"/>
	<circle fill="#2895F1" cx="38.5" cy="29.3" r="2.7"/>
	
		<circle fill="#FFFFFF" stroke="#2895F1" stroke-width="0.75" stroke-linecap="round" stroke-miterlimit="10" cx="27.8" cy="18.3" r="1.9"/>
	
		<circle fill="#FFFFFF" stroke="#2895F1" stroke-width="0.75" stroke-linecap="round" stroke-miterlimit="10" cx="23.4" cy="29" r="1.9"/>
	
		<circle fill="#FFFFFF" stroke="#2895F1" stroke-width="0.75" stroke-linecap="round" stroke-miterlimit="10" cx="27.8" cy="39.7" r="1.9"/>
	
		<circle fill="#FFFFFF" stroke="#2895F1" stroke-width="0.75" stroke-linecap="round" stroke-miterlimit="10" cx="38.5" cy="44.1" r="1.9"/>
	
		<circle fill="#FFFFFF" stroke="#2895F1" stroke-width="0.75" stroke-linecap="round" stroke-miterlimit="10" cx="49.1" cy="39.7" r="1.9"/>
	
		<circle fill="#FFFFFF" stroke="#2895F1" stroke-width="0.75" stroke-linecap="round" stroke-miterlimit="10" cx="53.5" cy="29" r="1.9"/>
	
		<circle fill="#FFFFFF" stroke="#2895F1" stroke-width="0.75" stroke-linecap="round" stroke-miterlimit="10" cx="49.1" cy="18.3" r="1.9"/>
</g>
</svg>
