<?xml version="1.0" encoding="utf-8"?>
<!-- Generator: Adobe Illustrator 18.0.0, SVG Export Plug-In . SVG Version: 6.00 Build 0)  -->
<!DOCTYPE svg PUBLIC "-//W3C//DTD SVG 1.1//EN" "http://www.w3.org/Graphics/SVG/1.1/DTD/svg11.dtd">
<svg version="1.1" id="Layer_1" xmlns="http://www.w3.org/2000/svg" xmlns:xlink="http://www.w3.org/1999/xlink" x="0px" y="0px"
	 viewBox="0 0 90 52" enable-background="new 0 0 90 52" xml:space="preserve">
<g>
	<g>
		<g>
			<g>
				<path fill="#FFFFFF" stroke="#2895F1" stroke-width="0.75" stroke-linecap="round" stroke-miterlimit="10" d="M43.2,40.3
					c2.7,0,5-2.2,5-5c0-2.7-2.2-5-5-5c-0.2,0-0.3,0-0.5,0c0.5-0.9,0.8-2,0.8-3.1c0-3.5-2.8-6.3-6.3-6.3c-1.6,0-3,0.6-4.1,1.5
					c-1.1-5.9-6.2-10.4-12.4-10.4c-7,0-12.6,5.7-12.6,12.6c0,0.7,0.1,1.3,0.2,2c-0.3,0-0.5,0-0.8,0c-3.8,0-6.8,3-6.8,6.8
					c0,3.5,2.6,6.4,6,6.8L43.2,40.3z"/>
			</g>
		</g>
	</g>
	<g>
		<g>
			<g>
				<path fill="#FFFFFF" stroke="#2895F1" stroke-width="0.75" stroke-linecap="round" stroke-miterlimit="10" d="M84.3,43.3
					c2.7,0,5-2.2,5-5c0-2.7-2.2-5-5-5c-0.2,0-0.3,0-0.5,0c0.5-0.9,0.8-2,0.8-3.1c0-3.5-2.8-6.3-6.3-6.3c-1.6,0-3,0.6-4.1,1.5
					c-1.1-5.9-6.2-10.4-12.4-10.4c-7,0-12.6,5.7-12.6,12.6c0,0.7,0.1,1.3,0.2,2c-0.3,0-0.5,0-0.8,0c-3.8,0-6.8,3-6.8,6.8
					c0,3.5,2.6,6.4,6,6.8L84.3,43.3z"/>
			</g>
		</g>
	</g>
	<g>
		<g>
			<g>
				<path fill="#FFFFFF" stroke="#2895F1" stroke-width="0.75" stroke-linecap="round" stroke-miterlimit="10" d="M63,29.2
					c2.7,0,5-2.2,5-5c0-2.7-2.2-5-5-5c-0.2,0-0.3,0-0.5,0c0.5-0.9,0.8-2,0.8-3.1c0-3.5-2.8-6.3-6.3-6.3c-1.6,0-3,0.6-4.1,1.5
					C51.9,5.5,46.8,1,40.6,1c-7,0-12.6,5.7-12.6,12.6c0,0.7,0.1,1.3,0.2,2c-0.3,0-0.5,0-0.8,0c-3.8,0-6.8,3-6.8,6.8
					c0,3.5,2.6,6.4,6,6.8L63,29.2z"/>
			</g>
		</g>
	</g>
	<g>
		<g>
			<g>
				<path fill="#FFFFFF" stroke="#2895F1" stroke-width="0.75" stroke-linecap="round" stroke-miterlimit="10" d="M49.3,51
					c2.7,0,5-2.2,5-5c0-2.7-2.2-5-5-5c-0.2,0-0.3,0-0.5,0c0.5-0.9,0.8-2,0.8-3.1c0-3.5-2.8-6.3-6.3-6.3c-1.6,0-3,0.6-4.1,1.5
					c-1.1-5.9-6.2-10.4-12.4-10.4c-7,0-12.6,5.7-12.6,12.6c0,0.7,0.1,1.3,0.2,2c-0.3,0-0.5,0-0.8,0c-3.8,0-6.8,3-6.8,6.8
					c0,3.5,2.6,6.4,6,6.8L49.3,51z"/>
			</g>
		</g>
	</g>
	<g>
		<g>
			<g>
				<path fill="#FFFFFF" stroke="#2895F1" stroke-width="0.75" stroke-linecap="round" stroke-miterlimit="10" d="M73,51
					c2.7,0,5-2.2,5-5c0-2.7-2.2-5-5-5c-0.2,0-0.3,0-0.5,0c0.5-0.9,0.8-2,0.8-3.1c0-3.5-2.8-6.3-6.3-6.3c-1.6,0-3,0.6-4.1,1.5
					c-1.1-5.9-6.2-10.4-12.4-10.4c-7,0-12.6,5.7-12.6,12.6c0,0.7,0.1,1.3,0.2,2c-0.3,0-0.5,0-0.8,0c-3.8,0-6.8,3-6.8,6.8
					c0,3.5,2.6,6.4,6,6.8L73,51z"/>
			</g>
		</g>
	</g>
</g>
</svg>
