<?xml version="1.0" encoding="utf-8"?>
<!-- Generator: Adobe Illustrator 18.0.0, SVG Export Plug-In . SVG Version: 6.00 Build 0)  -->
<!DOCTYPE svg PUBLIC "-//W3C//DTD SVG 1.1//EN" "http://www.w3.org/Graphics/SVG/1.1/DTD/svg11.dtd">
<svg version="1.1" id="Layer_1" xmlns="http://www.w3.org/2000/svg" xmlns:xlink="http://www.w3.org/1999/xlink" x="0px" y="0px"
	 viewBox="0 0 86 52" enable-background="new 0 0 86 52" xml:space="preserve">
<g>
	<g>
		<g>
			<g>
				<path fill="#FFFFFF" stroke="#2895F1" stroke-width="0.75" stroke-linecap="round" stroke-miterlimit="10" d="M76.3,51
					c4.9,0,8.8-4,8.8-8.8c0-4.9-4-8.8-8.8-8.8c-0.3,0-0.6,0-0.9,0c0.9-1.6,1.5-3.5,1.5-5.6c0-6.1-5-11.1-11.1-11.1
					c-2.8,0-5.3,1-7.2,2.7C56.7,8.9,47.5,1,36.5,1C24.1,1,14.1,11,14.1,23.4c0,1.2,0.1,2.4,0.3,3.5c-0.5-0.1-0.9-0.1-1.4-0.1
					c-6.7,0-12.1,5.4-12.1,12.1c0,6.2,4.7,11.3,10.7,12L76.3,51z"/>
			</g>
		</g>
	</g>
	<g>
		<g>
			<path fill="#2895F1" d="M46.3,36.6c0.6,0,1.1-0.1,1.6-0.4c1-0.7,1.9-1.4,2.6-2.4c0.4-0.6,0.6-1.2,0.7-2c0.1-0.6,0.2-1.2,0.3-1.7
				c0-0.1,0.1-0.2,0.1-0.3c0.2-0.5,0.6-0.8,0.9-0.7c0.4,0.1,0.7,0.4,0.7,1c0.2,1-0.1,2-0.1,3c-0.1,1.3-0.7,2.4-1.6,3.4
				c-0.6,0.7-1,1.4-1.6,2.1c-0.1,0.2-0.3,0.4-0.5,0.5c-1.1,0.9-2.3,1.6-3.6,2.2c-1.6,0.7-2.4,1.9-2.4,3.7c0,0.4,0,0.8,0,1.2
				c0,0.3-0.2,0.4-0.5,0.4c-1.2,0-2.4,0-3.6,0c-0.3,0-0.4-0.1-0.4-0.3c-0.4-2.4-0.5-4.8,0.2-7.2c0.3-0.9,0.9-1.6,1.6-2.1
				c0.8-0.6,1.7-1.1,2.5-1.6c0.8-0.4,1.5-1,2.2-1.6c0.5-0.5,1-1,1.6-1.5c0.2-0.2,0.5-0.3,0.8-0.4c0.9-0.1,1.4,0.5,1.1,1.5
				c-0.1,0.5-0.4,0.8-0.8,1.2c-0.5,0.6-1.1,1.2-1.6,1.8C46.5,36.3,46.4,36.4,46.3,36.6z"/>
			<path fill="#2895F1" d="M28.9,36.6c-0.2-0.4-0.4-0.7-0.6-0.9c-0.4-0.5-0.9-0.9-1.3-1.3c-0.5-0.5-0.8-1-0.7-1.7
				c0.1-0.7,0.6-1.1,1.3-0.9c0.2,0.1,0.5,0.2,0.7,0.4c0.5,0.5,1,1,1.6,1.5c0.6,0.6,1.3,1.2,2.1,1.6c0.7,0.4,1.3,0.8,2,1.2
				c1.5,0.9,2.3,2.3,2.6,4c0.3,1.7,0.2,3.4,0,5.2c-0.1,0.9-0.2,0.9-1.1,0.9c-1,0-2,0-3.1,0c-0.3,0-0.5-0.1-0.5-0.4
				c0-0.4,0-0.8,0-1.1c0-1.8-0.9-3-2.5-3.7c-1.3-0.6-2.5-1.4-3.7-2.3c-0.2-0.2-0.4-0.4-0.6-0.7c-0.3-0.4-0.6-0.9-1-1.3
				c-0.3-0.4-0.7-0.8-1-1.2c-0.6-0.7-0.9-1.5-1-2.5c-0.1-0.8-0.2-1.6-0.2-2.4c0-0.4,0-0.7,0.1-1.1c0.1-0.4,0.3-0.6,0.7-0.7
				c0.4,0,0.7,0.2,0.8,0.5c0.2,0.6,0.4,1.2,0.5,1.8c0.1,0.3,0.1,0.6,0.1,1c0.1,0.6,0.4,1.2,0.7,1.7c0.7,0.9,1.4,1.5,2.3,2.2
				C27.7,36.5,28.2,36.6,28.9,36.6z"/>
		</g>
		<g>
			<path fill="#2895F1" d="M48.7,24.6c0.1-0.5,0.2-0.9,0.2-1.4l0,0l1.5-0.9c-0.1-0.7-0.2-1.4-0.5-2.1h-1.7l0,0
				c-0.2-0.4-0.5-0.8-0.8-1.2l0,0l0.4-1.7c-0.6-0.5-1.2-0.8-1.8-1.1l-1.2,1.2v0c-0.5-0.1-0.9-0.2-1.4-0.2l0,0l-0.9-1.5
				c-0.7,0.1-1.4,0.2-2.1,0.5v1.7l0,0c-0.4,0.2-0.8,0.5-1.2,0.8l0,0l-1.7-0.4c-0.5,0.6-0.8,1.2-1.1,1.8l1.2,1.2h0
				c-0.1,0.5-0.2,0.9-0.2,1.4l0,0l-1.5,0.9c0.1,0.7,0.2,1.4,0.5,2.1H38l0,0c0.2,0.4,0.5,0.8,0.8,1.2l0,0l-0.4,1.7
				c0.6,0.5,1.2,0.8,1.8,1.1l1.2-1.2v0c0.5,0.1,0.9,0.2,1.4,0.2l0,0l0.9,1.5c0.7-0.1,1.4-0.2,2.1-0.5V28l0,0
				c0.4-0.2,0.8-0.5,1.2-0.8l0,0l1.7,0.4c0.5-0.6,0.8-1.2,1.1-1.8L48.7,24.6L48.7,24.6z M43.1,26.8c-2.1,0-3.8-1.7-3.8-3.8
				c0-2.1,1.7-3.8,3.8-3.8s3.8,1.7,3.8,3.8C47,25,45.2,26.8,43.1,26.8z"/>
			<path fill="#2895F1" d="M35.6,26.2c-0.1-0.3-0.3-0.6-0.5-0.9l0,0l0.4-1.1c-0.4-0.4-0.8-0.7-1.2-0.9L33.4,24l0,0
				c-0.3-0.1-0.6-0.2-1-0.3l0,0L32,22.6c-0.5,0-1,0.1-1.5,0.2l-0.1,1.2l0,0c-0.3,0.1-0.6,0.3-0.9,0.5l0,0L28.3,24
				c-0.4,0.4-0.7,0.8-0.9,1.2l0.7,0.9l0,0c-0.1,0.3-0.2,0.6-0.3,1l0,0l-1.1,0.5c0,0.5,0.1,1,0.2,1.5l1.2,0.1l0,0
				c0.1,0.3,0.3,0.6,0.5,0.9l0,0l-0.4,1.1c0.4,0.4,0.8,0.7,1.2,0.9l0.9-0.7l0,0c0.3,0.1,0.6,0.2,1,0.3l0,0l0.5,1.1
				c0.5,0,1-0.1,1.5-0.2l0.1-1.2l0,0c0.3-0.1,0.6-0.3,0.9-0.5l0,0l1.1,0.4c0.4-0.4,0.7-0.8,0.9-1.2l-0.7-0.9l0,0
				c0.1-0.3,0.2-0.6,0.3-1l0,0l1.1-0.5c0-0.5-0.1-1-0.2-1.5L35.6,26.2L35.6,26.2z M33.5,29.7c-1.1,0.9-2.8,0.7-3.7-0.4
				c-0.9-1.1-0.7-2.8,0.4-3.7c1.1-0.9,2.8-0.7,3.7,0.4C34.8,27.1,34.7,28.8,33.5,29.7z"/>
			<path fill="#2895F1" d="M35.4,18.3c-0.1-0.2-0.2-0.4-0.3-0.6l0,0l0.3-0.7c-0.2-0.2-0.5-0.5-0.8-0.6L34,16.8l0,0
				c-0.2-0.1-0.4-0.2-0.6-0.2l0,0l-0.3-0.7c-0.3,0-0.7,0-1,0.1L32,16.7l0,0c-0.2,0.1-0.4,0.2-0.6,0.3l0,0l-0.7-0.3
				c-0.2,0.2-0.5,0.5-0.6,0.8l0.5,0.6l0,0c-0.1,0.2-0.2,0.4-0.2,0.6l0,0l-0.7,0.3c0,0.3,0,0.7,0.1,1l0.8,0.1l0,0
				c0.1,0.2,0.2,0.4,0.3,0.6l0,0l-0.3,0.7c0.2,0.2,0.5,0.5,0.8,0.6l0.6-0.5l0,0c0.2,0.1,0.4,0.2,0.6,0.2l0,0l0.3,0.7
				c0.3,0,0.7,0,1-0.1l0.1-0.8l0,0c0.2-0.1,0.4-0.2,0.6-0.3l0,0l0.7,0.3c0.2-0.2,0.5-0.5,0.6-0.8l-0.5-0.6l0,0
				c0.1-0.2,0.2-0.4,0.2-0.6l0,0l0.7-0.3c0-0.3,0-0.7-0.1-1L35.4,18.3L35.4,18.3z M34,20.6c-0.8,0.6-1.9,0.5-2.5-0.3
				c-0.6-0.8-0.5-1.9,0.3-2.5c0.8-0.6,1.9-0.5,2.5,0.3C34.9,18.9,34.8,20,34,20.6z"/>
		</g>
	</g>
</g>
</svg>
