<?xml version="1.0" encoding="utf-8"?>
<!-- Generator: Adobe Illustrator 18.0.0, SVG Export Plug-In . SVG Version: 6.00 Build 0)  -->
<!DOCTYPE svg PUBLIC "-//W3C//DTD SVG 1.1//EN" "http://www.w3.org/Graphics/SVG/1.1/DTD/svg11.dtd">
<svg version="1.1" id="Layer_1" xmlns="http://www.w3.org/2000/svg" xmlns:xlink="http://www.w3.org/1999/xlink" x="0px" y="0px"
	 viewBox="0 0 52 52" enable-background="new 0 0 52 52" xml:space="preserve">
<g>
	
		<circle fill="#FFFFFF" stroke="#2895F1" stroke-width="0.75" stroke-linecap="round" stroke-miterlimit="10" cx="26" cy="26" r="25"/>
	<g>
		<path fill="#2895F1" d="M29.8,40.9h-7.6c-0.4,0-0.8-0.3-0.8-0.8l0,0c0-0.4,0.3-0.8,0.8-0.8h7.6c0.4,0,0.8,0.3,0.8,0.8l0,0
			C30.6,40.5,30.2,40.9,29.8,40.9z"/>
		<path fill="#2895F1" d="M29.8,42.6h-7.6c-0.4,0-0.8-0.3-0.8-0.8l0,0c0-0.4,0.3-0.8,0.8-0.8h7.6c0.4,0,0.8,0.3,0.8,0.8l0,0
			C30.6,42.2,30.2,42.6,29.8,42.6z"/>
		<path fill="#2895F1" d="M29.8,44.3h-7.6c-0.4,0-0.8-0.3-0.8-0.8l0,0c0-0.4,0.3-0.8,0.8-0.8h7.6c0.4,0,0.8,0.3,0.8,0.8l0,0
			C30.6,43.9,30.2,44.3,29.8,44.3z"/>
		<path fill="#2895F1" d="M23.1,44.5c0.7,0.9,1.8,1.6,3,1.6s2.4-0.6,3-1.6H23.1z"/>
		<path fill="#2895F1" d="M26,14.1c-5.7,0-10.3,4.4-10.3,9.8c0,5.6,4.9,10.5,5.1,12.1l0.3,2.4c0.1,0.4,0.4,0.6,0.8,0.6h8.2
			c0.4,0,0.7-0.3,0.8-0.6l0.3-2.4c0.2-1.6,5.1-6.8,5.1-12.1C36.3,18.5,31.7,14.1,26,14.1z"/>
		<path fill="#FFFFFF" d="M18.6,24.3c0-1.1,0.9-2,2-2c0.1,0,0.2,0,0.2,0c0-0.2,0-0.4,0-0.6c0-2.1,1.7-3.8,3.8-3.8
			c1.9,0,3.4,1.3,3.7,3.1c0.3-0.3,0.8-0.5,1.2-0.5c1,0,1.9,0.8,1.9,1.9c0,0.3-0.1,0.7-0.3,0.9c0,0,0.1,0,0.1,0
			c0.8,0,1.5,0.7,1.5,1.5s-0.7,1.5-1.5,1.5H20.4l0,0C19.4,26.2,18.6,25.4,18.6,24.3z"/>
		<line fill="none" stroke="#2895F1" stroke-linecap="round" stroke-miterlimit="10" x1="26" y1="12.2" x2="26" y2="5.9"/>
		<line fill="none" stroke="#2895F1" stroke-linecap="round" stroke-miterlimit="10" x1="33.5" y1="14.9" x2="37.9" y2="10.1"/>
		<line fill="none" stroke="#2895F1" stroke-linecap="round" stroke-miterlimit="10" x1="37.6" y1="22" x2="44" y2="20.7"/>
		<line fill="none" stroke="#2895F1" stroke-linecap="round" stroke-miterlimit="10" x1="14.5" y1="22" x2="8" y2="20.7"/>
		<line fill="none" stroke="#2895F1" stroke-linecap="round" stroke-miterlimit="10" x1="18.6" y1="14.9" x2="14.3" y2="10.1"/>
	</g>
</g>
</svg>
