<?xml version="1.0" encoding="utf-8"?>
<!-- Generator: Adobe Illustrator 18.0.0, SVG Export Plug-In . SVG Version: 6.00 Build 0)  -->
<!DOCTYPE svg PUBLIC "-//W3C//DTD SVG 1.1//EN" "http://www.w3.org/Graphics/SVG/1.1/DTD/svg11.dtd">
<svg version="1.1" id="Layer_1" xmlns="http://www.w3.org/2000/svg" xmlns:xlink="http://www.w3.org/1999/xlink" x="0px" y="0px"
	 viewBox="0 0 86 52" enable-background="new 0 0 86 52" xml:space="preserve">
<g>
	<g>
		<g>
			<g>
				<g>
					<path fill="#FFFFFF" stroke="#2895F1" stroke-width="0.75" stroke-linecap="round" stroke-miterlimit="10" d="M76.3,51
						c4.9,0,8.8-4,8.8-8.8c0-4.9-4-8.8-8.8-8.8c-0.3,0-0.6,0-0.9,0c0.9-1.6,1.5-3.5,1.5-5.6c0-6.1-5-11.1-11.1-11.1
						c-2.8,0-5.3,1-7.2,2.7C56.7,8.9,47.5,1,36.5,1C24.1,1,14.1,11,14.1,23.4c0,1.2,0.1,2.4,0.3,3.5c-0.5-0.1-0.9-0.1-1.4-0.1
						c-6.7,0-12.1,5.4-12.1,12.1c0,6.2,4.7,11.3,10.7,12L76.3,51z"/>
				</g>
			</g>
		</g>
	</g>
	<path fill="#FFFFFF" stroke="#2895F1" stroke-width="0.75" stroke-linecap="round" stroke-miterlimit="10" d="M17.7,19.4
		c0.1-0.1,0.1-0.2,0.2-0.3c0.4,0.3,0.8,0.5,1.2,0.8c0.5,0.3,1.1,0.7,1.7,1c0.6,0.3,1.1,0.4,1.7,0.1c0.8-0.4,1.9-1.8,1.7-3
		c-0.1-0.6-0.3-1.1-0.9-1.4c-0.8-0.5-1.7-1.1-2.5-1.6c0,0,0,0-0.1-0.1c0.1-0.2,0.2-0.4,0.4-0.5c1.6-0.6,3.3-0.7,4.9,0.1
		c1.7,0.8,2.5,2.2,2.7,4c0.1,0.6,0,1.2-0.1,1.8c-0.1,0.6,0,1.2,0.4,1.7c0.4,0.6,1,1.1,1.5,1.5c1.9,1.8,3.9,3.6,5.8,5.4
		c0,0,0.1,0.1,0.1,0.1c-1.2,1.2-2.3,2.3-3.5,3.5c0,0-0.1-0.1-0.1-0.1c-2.1-2.1-4.1-4.1-6.2-6.2c-0.3-0.3-0.7-0.7-1.1-0.9
		c-0.4-0.3-0.9-0.5-1.4-0.4c-0.2,0-0.5,0.1-0.7,0.2c-1.3,0.3-2.4,0.1-3.5-0.7c-1.2-0.8-1.9-2-2.2-3.5c-0.1-0.3-0.1-0.6-0.2-0.9
		C17.7,19.8,17.7,19.6,17.7,19.4z"/>
	<path fill="#FFFFFF" stroke="#2895F1" stroke-width="0.75" stroke-linecap="round" stroke-miterlimit="10" d="M39.3,31.5
		c0.5,0.5,1,1,1.5,1.4c2.9,2.7,5.7,5.3,8.6,8c1.6,1.5,1,4.1-1.1,4.7c-0.1,0-0.2,0-0.2,0c-0.3,0-0.6,0-0.9,0c-0.3,0-0.6-0.1-0.8-0.2
		c-0.3-0.2-0.5-0.3-0.7-0.5c-3.3-3.3-6.5-6.5-9.8-9.8c0,0-0.1-0.1-0.1-0.1C36.9,33.9,38.1,32.7,39.3,31.5z M48.9,43
		c0-0.8-0.6-1.5-1.4-1.5c-0.8,0-1.4,0.6-1.5,1.5c0,0.8,0.6,1.5,1.5,1.5C48.3,44.4,48.9,43.8,48.9,43z"/>
	<path fill="#2895F1" d="M50.9,14c1.7,0,3,1.2,3.1,2.6c0.1,0.9-0.2,1.7-0.8,2.4c-1.9,1.9-3.8,3.8-5.7,5.7c-1,1-2,2-2.9,2.9
		c-0.2,0.2-0.3,0.2-0.5,0c-0.3-0.3-0.7-0.2-1,0c-0.3,0.3-0.3,0.7,0,1c0.2,0.2,0.2,0.3,0,0.5c-0.3,0.3-0.6,0.6-0.9,0.9
		c-0.2,0.2-0.3,0.2-0.4,0c-1.2-1.2-2.4-2.4-3.7-3.7c-0.2-0.2-0.2-0.3,0-0.5c0.3-0.3,0.6-0.6,0.9-0.9c0.2-0.2,0.3-0.2,0.5,0
		c0.3,0.3,0.8,0.3,1,0c0.3-0.3,0.3-0.7,0-1c-0.2-0.2-0.2-0.3,0-0.5c2.9-2.9,5.8-5.8,8.7-8.7C49.7,14.3,50.4,14,50.9,14z"/>
	<path fill="#FFFFFF" d="M53.4,16.9c-0.2-1.3-1.3-2.3-2.8-2.3c-0.1,0-0.1,0-0.2,0c1.3,0.1,2.3,1.1,2.5,2.3c0.1,0.8-0.2,1.5-0.8,2.1
		c-1.7,1.7-3.4,3.4-5.1,5.1c-0.9,0.9-1.7,1.7-2.6,2.6c0,0,0.1,0,0.1,0.1c0.2,0.2,0.3,0.1,0.4,0c0.9-0.9,1.8-1.8,2.6-2.6
		c1.7-1.7,3.4-3.4,5.1-5.1C53.2,18.4,53.5,17.7,53.4,16.9z"/>
	<path fill="#FFFFFF" stroke="#2895F1" stroke-width="0.75" stroke-linecap="round" stroke-miterlimit="10" d="M38.7,28.2
		c0.1,0,0.1,0.1,0.1,0.1c0.4,0.4,0.7,0.7,1.1,1.1c-0.1,0-0.1,0.1-0.2,0.1c-4.9,4.9-9.8,9.8-14.7,14.7c-0.1,0.1-0.1,0.1-0.2,0.2
		c-0.5,0.3-1.1,0.7-1.6,1c-0.2-0.2-0.3-0.3-0.5-0.5c0.2-0.3,0.4-0.7,0.6-1.1c0.3-0.5,0.6-0.9,1-1.2c4.8-4.7,9.5-9.5,14.2-14.2
		C38.6,28.3,38.7,28.2,38.7,28.2z"/>
</g>
</svg>
