<?xml version="1.0" encoding="utf-8"?>
<!-- Generator: Adobe Illustrator 18.0.0, SVG Export Plug-In . SVG Version: 6.00 Build 0)  -->
<!DOCTYPE svg PUBLIC "-//W3C//DTD SVG 1.1//EN" "http://www.w3.org/Graphics/SVG/1.1/DTD/svg11.dtd">
<svg version="1.1" id="Layer_1" xmlns="http://www.w3.org/2000/svg" xmlns:xlink="http://www.w3.org/1999/xlink" x="0px" y="0px"
	 viewBox="0 0 112 52" enable-background="new 0 0 112 52" xml:space="preserve">
<g>
	<g>
		<g>
			<path fill="#FFFFFF" stroke="#2895F1" stroke-width="0.75" stroke-linecap="round" stroke-miterlimit="10" d="M99,26.8
				c-0.5,0-0.9,0-1.4,0.1c0.2-1.1,0.3-2.3,0.3-3.5C97.9,11,87.9,1,75.5,1c-11,0-20.2,7.9-22.1,18.4c-1.9-1.7-4.5-2.7-7.2-2.7
				c-6.1,0-11.1,5-11.1,11.1c0,2,0.5,3.9,1.5,5.6c-0.3,0-0.6,0-0.9,0c-4.9,0-8.8,4-8.8,8.8c0,0.3,0,0.5,0,0.8c0.5-0.2,1-0.5,1.5-0.7
				c7-3.5,14-7.8,21.5-13.2l-2.3-3.4l13.7-1.1L55.4,37l-2.2-3.2l-0.7,0.4c-1.1,0.7-2.1,1.3-3.2,2c-7.7,4.7-14.3,8.2-20.9,11
				c1.6,2.3,4.3,3.8,7.3,3.8l64.6-0.1c6-0.7,10.7-5.8,10.7-12C111.1,32.3,105.7,26.8,99,26.8z"/>
		</g>
	</g>
	<g>
		<g>
			<g>
				<path fill="#2895F1" d="M77.2,39.6c-4.6,0-11.5-0.8-15.2-3.4v3.7c0,2.9,7.1,5.3,15.2,5.3s15.2-2.4,15.2-5.3v-3.7
					C88.8,38.8,81.8,39.6,77.2,39.6z"/>
				<path fill="#2895F1" d="M77.2,31c-4.6,0-11.5-0.8-15.2-3.4v3.7c0,2.9,7.1,5.3,15.2,5.3s15.2-2.4,15.2-5.3v-3.7
					C88.8,30.2,81.8,31,77.2,31z"/>
				<path fill="#2895F1" d="M77.2,8.7C69.1,8.7,62,11.1,62,14c0,2.9,7.1,5.3,15.2,5.3s15.2-2.4,15.2-5.3
					C92.5,11.1,85.4,8.7,77.2,8.7"/>
				<path fill="#2895F1" d="M77.2,22.4c-4.6,0-11.5-0.8-15.2-3.4v3.7c0,0.7,0.4,1.3,1,1.9l0.3,0l-0.1,0.2c2.4,1.9,7.9,3.3,14,3.3
					c8.1,0,15.2-2.4,15.2-5.3v-3.7C88.8,21.6,81.8,22.4,77.2,22.4z"/>
				<path fill="#2895F1" d="M63.1,24.5c0.1,0.1,0.1,0.1,0.2,0.2l0.1-0.2L63.1,24.5z"/>
			</g>
		</g>
	</g>
	<path fill="#2895F1" d="M3.8,47.5c0.6,0.4,1.3,0.6,2.3,0.7c0.7,0.1,1.5,0.1,2.2,0.1c2,0,4.1-0.3,6.8-1c1.7-0.4,3.4-0.9,5.1-1.6
		c-2.2,0.5-4.5,0.7-6.4,0.7c-3,0-7.3-0.5-10.1-2c-0.4,0.6-0.6,1.1-0.7,1.6C3,46.8,3.2,47.2,3.8,47.5z"/>
	<path fill="#2895F1" d="M20.1,31.9c-0.4,0.2-0.8,0.4-1.2,0.6c-3.8,1.9-7.5,4-10.9,6.5c-1.7,1.3-3.3,2.7-4.6,4.4
		C2.8,44.2,2.3,45,2.1,46c-0.2,1,0.2,1.8,1.1,2.4C4.1,48.9,5,49.1,6,49.3c3.2,0.4,6.3-0.1,9.3-0.8c4.7-1.2,9.2-3.1,13.6-5.3
		C36.7,39.2,44,34.6,51,29.5c0.1-0.1,0.2-0.1,0.3-0.2c-0.6-0.9-1.2-1.8-1.9-2.8c3.5-0.3,6.8-0.6,10.3-0.8c-1.5,3.1-2.9,6.2-4.4,9.3
		c-0.6-0.9-1.2-1.7-1.8-2.6c-1.6,1-3.1,2-4.6,2.9c-6.9,4.2-14,8.1-21.4,11.2c-3.7,1.6-7.5,2.9-11.5,3.7c-2.8,0.6-5.6,0.9-8.5,0.7
		c-1.3-0.1-2.7-0.3-3.9-0.9c-1.2-0.5-2.2-1.3-2.5-2.7c-0.2-0.8-0.1-1.6,0.2-2.4c0.6-1.4,1.5-2.5,2.6-3.5c2.2-2.1,4.7-3.8,7.4-5.3
		c2.8-1.6,5.7-3,8.7-4.3C19.9,31.9,20,31.8,20.1,31.9C20.1,31.8,20.1,31.9,20.1,31.9z"/>
	<path fill="#2895F1" d="M5.1,39c-0.8-0.3-1.5-0.6-2.1-1.1v2.6c0,0.1,0,0.1,0,0.2c0,0,0,0,0,0C3.7,40.1,4.4,39.5,5.1,39z"/>
	<path fill="#2895F1" d="M5.2,42.8c2,0.9,5.2,1.5,8.7,1.5c5.8,0,10.9-1.7,10.9-3.8v-2.6c-2.6,1.9-7.6,2.5-10.9,2.5
		c-1.6,0-3.5-0.1-5.4-0.5C7.4,40.7,6.2,41.7,5.2,42.8z"/>
	<path fill="#2895F1" d="M19.7,30.9l0.8-0.3l4-1.7c0.1-0.2,0.2-0.4,0.2-0.7c0-2.1-5.1-3.8-10.9-3.8C8.1,24.5,3,26.2,3,28.2
		C3,30.3,8.1,32,13.9,32c1.3,0,2.6-0.1,3.7-0.2c0.6-0.3,1.2-0.5,1.8-0.8C19.5,30.9,19.6,30.9,19.7,30.9z"/>
	<path fill="#2895F1" d="M24.6,28.9l-4,1.7l-0.8,0.3c-0.1,0-0.2,0.1-0.3,0.1c-0.6,0.3-1.2,0.5-1.8,0.8
		C21.1,31.3,23.9,30.2,24.6,28.9z"/>
	<path fill="#2895F1" d="M12.7,34.2c-3.2-0.1-7.4-0.8-9.7-2.4v2.7c0,1.2,1.7,2.3,4.3,3c1.2-0.8,2.3-1.5,3.4-2.1
		C11.3,34.9,12,34.6,12.7,34.2z"/>
	<path fill="#2895F1" d="M13.9,38.2c5.8,0,10.9-1.7,10.9-3.8v-2.7c-1.6,1.1-4,1.8-6.4,2.1c-2.2,1.1-4.7,2.5-7.3,4.2
		C12,38.1,12.9,38.2,13.9,38.2z"/>
</g>
</svg>
