<?xml version="1.0" encoding="utf-8"?>
<!-- Generator: Adobe Illustrator 18.0.0, SVG Export Plug-In . SVG Version: 6.00 Build 0)  -->
<!DOCTYPE svg PUBLIC "-//W3C//DTD SVG 1.1//EN" "http://www.w3.org/Graphics/SVG/1.1/DTD/svg11.dtd">
<svg version="1.1" id="Layer_1" xmlns="http://www.w3.org/2000/svg" xmlns:xlink="http://www.w3.org/1999/xlink" x="0px" y="0px"
	 viewBox="0 0 58 52" enable-background="new 0 0 58 52" xml:space="preserve">
<g>
	<path fill="none" stroke="#2895F1" stroke-width="0.25" stroke-miterlimit="10" d="M55.2,1.4h-7.9c-0.3,0-0.5,0.2-0.5,0.5V3
		c0,0.3,0.2,0.5,0.5,0.5h7.9c0.3,0,0.5-0.2,0.5-0.5V1.8C55.7,1.6,55.5,1.4,55.2,1.4z M53,2.6h-5.2V2.2H53V2.6z M54.7,2.8
		c-0.2,0-0.4-0.2-0.4-0.4c0-0.2,0.2-0.4,0.4-0.4s0.4,0.2,0.4,0.4C55.1,2.6,55,2.8,54.7,2.8z"/>
	<path fill="none" stroke="#2895F1" stroke-width="0.25" stroke-miterlimit="10" d="M55.2,3.9h-7.9c-0.3,0-0.5,0.2-0.5,0.5v1.1
		C46.8,5.8,47,6,47.3,6h7.9c0.3,0,0.5-0.2,0.5-0.5V4.3C55.7,4.1,55.5,3.9,55.2,3.9z M53,5.1h-5.2V4.7H53V5.1z M54.7,5.3
		c-0.2,0-0.4-0.2-0.4-0.4s0.2-0.4,0.4-0.4s0.4,0.2,0.4,0.4S55,5.3,54.7,5.3z"/>
	<path fill="none" stroke="#2895F1" stroke-width="0.25" stroke-miterlimit="10" d="M55.2,6.4h-7.9c-0.3,0-0.5,0.2-0.5,0.5V8
		c0,0.3,0.2,0.5,0.5,0.5h7.9c0.3,0,0.5-0.2,0.5-0.5V6.8C55.7,6.6,55.5,6.4,55.2,6.4z M53,7.6h-5.2V7.2H53V7.6z M54.7,7.8
		c-0.2,0-0.4-0.2-0.4-0.4c0-0.2,0.2-0.4,0.4-0.4s0.4,0.2,0.4,0.4C55.1,7.6,55,7.8,54.7,7.8z"/>
	<path fill="none" stroke="#2895F1" stroke-width="0.25" stroke-miterlimit="10" d="M55.2,8.9h-7.9c-0.3,0-0.5,0.2-0.5,0.5v1.1
		c0,0.3,0.2,0.5,0.5,0.5h7.9c0.3,0,0.5-0.2,0.5-0.5V9.4C55.7,9.1,55.5,8.9,55.2,8.9z M53,10.1h-5.2V9.7H53V10.1z M54.7,10.3
		c-0.2,0-0.4-0.2-0.4-0.4s0.2-0.4,0.4-0.4s0.4,0.2,0.4,0.4S55,10.3,54.7,10.3z"/>
	<path fill="none" stroke="#2895F1" stroke-width="0.25" stroke-miterlimit="10" d="M55.2,11.4h-7.9c-0.3,0-0.5,0.2-0.5,0.5V13
		c0,0.3,0.2,0.5,0.5,0.5h7.9c0.3,0,0.5-0.2,0.5-0.5v-1.1C55.7,11.6,55.5,11.4,55.2,11.4z M53,12.6h-5.2v-0.4H53V12.6z M54.7,12.8
		c-0.2,0-0.4-0.2-0.4-0.4s0.2-0.4,0.4-0.4s0.4,0.2,0.4,0.4S55,12.8,54.7,12.8z"/>
	<path fill="none" stroke="#2895F1" stroke-width="0.25" stroke-miterlimit="10" d="M55.2,13.9h-7.9c-0.3,0-0.5,0.2-0.5,0.5v1.1
		c0,0.3,0.2,0.5,0.5,0.5h7.9c0.3,0,0.5-0.2,0.5-0.5v-1.1C55.7,14.1,55.5,13.9,55.2,13.9z M53,15.1h-5.2v-0.4H53V15.1z M54.7,15.3
		c-0.2,0-0.4-0.2-0.4-0.4s0.2-0.4,0.4-0.4s0.4,0.2,0.4,0.4S55,15.3,54.7,15.3z"/>
	<path fill="none" stroke="#2895F1" stroke-width="0.25" stroke-miterlimit="10" d="M55.6,16.4h-8.7c-0.3,0-0.6-0.3-0.6-0.6V1.6
		c0-0.3,0.3-0.6,0.6-0.6h8.7c0.3,0,0.6,0.3,0.6,0.6v14.3C56.2,16.2,55.9,16.4,55.6,16.4z"/>
	<g>
		<path fill="#2895F1" d="M48.9,16.7h-0.7c-0.1,0-0.3-0.1-0.3-0.3v0h1.2v0C49.1,16.6,49,16.7,48.9,16.7z"/>
		<path fill="#2895F1" d="M54.3,16.7h-0.7c-0.1,0-0.3-0.1-0.3-0.3v0h1.2v0C54.6,16.6,54.4,16.7,54.3,16.7z"/>
	</g>
	<path fill="#FFFFFF" stroke="#2895F1" stroke-width="0.25" stroke-linecap="round" stroke-miterlimit="10" d="M1.7,13.4v0.4
		l0.6,0.3c0.1,0.1,0.8,0.1,0.9,0.1h15.3c0.2,0,1.2-0.1,1.3-0.2l0.3-0.2v-0.4H1.7z"/>
	<rect x="9.6" y="13.5" fill="#2895F1" width="2.7" height="0.4"/>
	<rect x="1.7" y="13.6" fill="#2895F1" width="18.3" height="0.2"/>
	<g>
		<path fill="#2895F1" d="M18.1,13.4H3.6c-0.2,0-0.4-0.2-0.4-0.4V3.6c0-0.2,0.2-0.4,0.4-0.4h14.6c0.2,0,0.4,0.2,0.4,0.4V13
			C18.5,13.2,18.4,13.4,18.1,13.4z"/>
		
			<rect x="3.9" y="4.1" fill="#FFFFFF" stroke="#2895F1" stroke-linecap="round" stroke-miterlimit="10" width="13.9" height="8.9"/>
	</g>
	<g>
		<g>
			<polygon fill="#2895F1" points="8.9,6.6 10.8,5.5 12.7,6.6 12.7,8.7 10.8,9.8 8.9,8.7 			"/>
			<g>
				<defs>
					<polygon id="SVGID_1_" points="8.9,6.6 10.8,5.5 12.7,6.6 12.7,8.7 10.8,9.8 8.9,8.7 					"/>
				</defs>
				<clipPath id="SVGID_2_">
					<use xlink:href="#SVGID_1_"  overflow="visible"/>
				</clipPath>
				<polyline clip-path="url(#SVGID_2_)" fill="#9B9DA0" points="9.5,8.3 9.3,7.7 9.4,7.5 10,7.1 10.5,6.7 11.1,6.6 11.3,6.6 
					13,7.5 13.1,10.4 				"/>
			</g>
			<path fill="#FFFFFF" d="M12.4,7.7C12.4,7.7,12.4,7.7,12.4,7.7C12.4,7.7,12.4,7.7,12.4,7.7C12.4,7.7,12.4,7.7,12.4,7.7
				C12.4,7.8,12.4,7.8,12.4,7.7C12.4,7.8,12.4,7.8,12.4,7.7c0,0.1,0,0.1,0,0.2c0,0.1-0.1,0.2-0.2,0.3c-0.1,0.1-0.1,0.1-0.2,0.2
				c-0.1,0-0.1,0.1-0.2,0.1c0,0,0,0-0.1,0c0,0,0,0,0,0c0,0,0,0,0,0c0,0,0,0,0,0c0,0,0,0,0,0c0,0,0,0,0,0c0,0,0,0-0.1,0
				c0,0-0.1,0-0.1,0c0,0,0,0-0.1,0c0,0,0,0,0,0c0,0,0,0-0.1,0c0,0,0,0,0,0c0,0,0,0,0,0c-0.1,0.1-0.2,0.2-0.3,0.3c0,0,0,0-0.1,0.1
				c0,0,0,0,0,0c0,0,0,0,0,0c0,0,0,0,0,0c-0.1-0.1-0.1-0.1-0.2-0.2c0,0,0,0,0,0c0,0,0,0,0,0c0,0,0,0,0,0c0,0,0-0.1,0.1-0.1
				c0.1-0.1,0.2-0.2,0.2-0.3c0,0,0.1-0.1,0.1-0.1c0,0,0,0,0,0c0,0,0,0,0,0c0,0,0,0,0.1,0c0,0,0,0,0,0c0,0,0,0,0.1,0c0,0,0,0,0,0
				c0,0,0,0,0.1,0c0,0,0,0,0,0c0,0,0.1,0,0.1,0c0,0,0,0,0.1,0c0,0,0,0,0,0c0,0,0,0,0,0c0,0,0,0,0.1,0c0,0,0,0,0,0c0,0,0,0,0,0
				c0,0,0,0,0,0c0,0,0,0,0,0c0,0,0,0,0,0c0,0,0,0,0.1,0c0,0,0,0,0.1,0c0.1,0,0.1-0.1,0.2-0.1C12,8,12,7.9,12,7.8c0,0,0,0,0-0.1
				c0,0,0-0.1,0-0.1c0-0.1,0-0.1,0-0.2c0-0.1-0.1-0.1-0.1-0.2c-0.1-0.1-0.1-0.1-0.2-0.1c0,0,0,0-0.1,0c0,0,0,0,0,0c0,0,0,0,0,0
				c0,0,0,0,0,0c0,0,0,0,0,0c-0.1-0.2-0.2-0.3-0.4-0.4c0,0-0.1,0-0.1,0c0,0,0,0-0.1,0c0,0,0,0,0,0c0,0,0,0,0,0c0,0,0,0,0,0
				c0,0,0,0,0,0c0,0,0,0,0,0c0,0,0,0,0,0c0,0,0,0,0,0c0,0,0,0-0.1,0c-0.1,0-0.1,0-0.2,0.1c-0.1,0.1-0.2,0.1-0.2,0.2c0,0,0,0.1,0,0.1
				c0,0,0,0.1,0,0.1c0,0,0,0.1,0,0.1c0,0,0,0,0,0c0,0,0,0,0,0c0,0,0,0,0,0c0,0,0,0,0,0c0,0,0,0,0,0c0,0,0,0,0,0c0,0,0,0,0,0
				c0,0,0,0,0,0c0,0,0,0,0,0c0,0,0,0,0,0c0,0,0,0,0,0c0,0-0.1,0-0.1,0c0,0-0.1,0.1-0.1,0.1c0,0-0.1,0.1-0.1,0.1c0,0,0,0.1,0,0.1
				c0,0,0,0.1,0,0.1c0,0.1,0,0.1,0.1,0.2c0,0,0,0,0,0c0,0,0.1,0.1,0.1,0.1c0,0,0.1,0.1,0.1,0.1c0,0,0,0,0,0c0,0,0.1,0,0.1,0
				c0,0,0.1,0,0.1,0c0,0,0.1,0,0.1,0c0,0,0.1,0,0.1,0c0,0,0,0,0,0c0,0,0,0,0,0c0,0,0,0,0,0C10.4,8.1,10.5,8,10.6,8
				c0,0,0-0.1,0.1-0.1c0,0,0,0,0,0c0,0,0,0,0,0c0,0,0,0,0,0c0,0-0.1-0.1-0.1-0.1c0,0,0,0,0,0c0,0,0,0,0,0c0,0,0,0,0,0c0,0,0,0,0,0
				c0,0,0,0,0,0c0,0,0,0,0,0s0,0,0,0c0,0,0,0,0,0c0,0,0,0,0,0c0,0,0,0,0,0c0,0,0,0,0,0c0,0,0,0,0,0c0,0,0,0,0,0c0,0,0,0,0,0
				c0,0,0,0,0,0c0,0,0,0,0,0c0,0,0,0,0,0c0,0,0,0,0,0c0,0,0,0,0,0c0,0,0,0,0,0c0,0,0,0,0,0c0,0,0,0,0,0c0,0,0,0,0,0c0,0,0,0,0,0
				c0,0,0,0,0,0c0,0,0,0,0,0c0,0,0,0,0,0c0,0,0,0,0,0c0,0,0,0,0,0c0,0,0,0,0,0c0,0,0,0,0,0c0,0,0,0,0,0c0,0,0,0,0,0c0,0,0,0,0,0
				c0,0,0,0,0,0c0,0,0,0,0,0c0,0,0,0,0,0c0,0,0,0,0,0c0,0,0,0,0,0c0,0,0,0-0.1,0.1c-0.1,0.1-0.1,0.2-0.2,0.3c0,0,0,0.1-0.1,0.1
				c0,0,0,0,0,0c0,0,0,0,0,0c0,0,0,0,0,0c-0.2,0-0.5,0-0.7,0c0,0,0,0,0,0c0,0,0,0,0,0c0,0-0.1,0-0.1,0c-0.1,0-0.1-0.1-0.2-0.1
				c-0.1,0-0.1-0.1-0.1-0.1C9.3,8.2,9.3,8.1,9.2,8c0,0,0,0,0-0.1c0,0,0,0,0-0.1c0,0,0,0,0,0c0,0,0,0,0,0c0,0,0,0,0,0c0,0,0,0,0,0
				c0,0,0,0,0,0c0,0,0,0,0,0c0,0,0,0,0-0.1c0,0,0-0.1,0-0.1c0,0,0-0.1,0.1-0.1c0-0.1,0.1-0.1,0.1-0.2c0.1-0.1,0.2-0.1,0.3-0.2
				c0.1,0,0.1,0,0.2-0.1c0,0,0,0,0,0c0,0,0,0,0,0c0-0.1,0.1-0.2,0.2-0.3c0.1-0.1,0.2-0.2,0.3-0.2c0.1-0.1,0.3-0.1,0.4-0.1
				c0,0,0,0,0,0c0,0,0,0,0,0c0,0,0,0,0,0c0,0,0,0,0,0c0,0,0,0,0.1,0c0,0,0,0,0,0c0,0,0,0,0,0c0,0,0,0,0,0c0,0,0,0,0,0c0,0,0,0,0.1,0
				c0,0,0.1,0,0.1,0c0.1,0,0.2,0.1,0.3,0.1c0.1,0.1,0.2,0.2,0.3,0.3c0,0,0,0,0,0c0,0,0.1,0,0.1,0.1C12,7,12.1,7.1,12.2,7.2
				c0.1,0.1,0.1,0.2,0.2,0.3c0,0,0,0,0,0.1c0,0,0,0,0,0C12.4,7.6,12.4,7.6,12.4,7.7C12.4,7.6,12.4,7.6,12.4,7.7
				C12.4,7.7,12.4,7.7,12.4,7.7C12.4,7.7,12.4,7.7,12.4,7.7C12.4,7.7,12.4,7.7,12.4,7.7z"/>
		</g>
		<text transform="matrix(1 0 0 1 8.2544 11.1523)" fill="#2895F1" font-family="'ComicSansMS'" font-size="1.0913">Cloud-Tco</text>
	</g>
	<g>
		<g id="XMLID_1_">
			<g>
				<polygon fill="#FFFFFF" points="6.3,30 1,30 1,20.4 15.4,20.4 15.4,30 10.1,30 				"/>
				<polygon fill="#FFFFFF" points="13.5,32 13.5,32.7 2.9,32.7 2.9,32 6.2,32 10.2,32 				"/>
				<path fill="#FFFFFF" d="M10.2,32H6.2c0.6,0,1-0.4,1-1c0-0.5-0.4-0.9-0.9-1h3.9c-0.5,0.1-0.9,0.5-0.9,1C9.2,31.5,9.7,32,10.2,32z
					"/>
			</g>
			<g>
				<polygon fill="none" stroke="#2895F1" stroke-width="0.25" stroke-linecap="round" stroke-miterlimit="10" points="6.3,30 1,30 
					1,20.4 15.4,20.4 15.4,30 10.1,30 				"/>
				<polygon fill="none" stroke="#2895F1" stroke-width="0.25" stroke-linecap="round" stroke-miterlimit="10" points="10.2,32 
					13.5,32 13.5,32.7 2.9,32.7 2.9,32 6.2,32 				"/>
				<path fill="none" stroke="#2895F1" stroke-width="0.25" stroke-linecap="round" stroke-miterlimit="10" d="M6.2,30
					c0,0,0.1,0,0.1,0c0.5,0.1,0.9,0.5,0.9,1c0,0.6-0.4,1-1,1"/>
				<path fill="none" stroke="#2895F1" stroke-width="0.25" stroke-linecap="round" stroke-miterlimit="10" d="M10.2,30
					C10.2,30,10.2,30,10.2,30c-0.6,0.1-1,0.5-1,1c0,0.6,0.4,1,1,1"/>
			</g>
		</g>
		<g>
			<rect x="5.5" y="25.2" fill="#24A9E1" width="0.7" height="1.1"/>
			<rect x="5.5" y="26.4" fill="#24A9E1" width="0.7" height="1.3"/>
		</g>
		<g>
			<rect x="6.4" y="24.5" fill="#24A9E1" width="0.7" height="1.4"/>
			<rect x="6.4" y="26.2" fill="#24A9E1" width="0.7" height="1.6"/>
		</g>
		<g>
			<rect x="7.4" y="24.9" fill="#24A9E1" width="0.7" height="1.3"/>
			<rect x="7.4" y="26.3" fill="#24A9E1" width="0.7" height="1.4"/>
		</g>
		<g>
			<rect x="8.3" y="23.5" fill="#24A9E1" width="0.7" height="1.9"/>
			<rect x="8.3" y="25.7" fill="#24A9E1" width="0.7" height="2"/>
		</g>
		<g>
			<rect x="9.3" y="23.9" fill="#24A9E1" width="0.7" height="1.4"/>
			<rect x="9.3" y="26.3" fill="#24A9E1" width="0.7" height="1.4"/>
		</g>
	</g>
	<path fill="none" stroke="#2895F1" stroke-width="0.25" stroke-linecap="round" stroke-miterlimit="10" d="M35.6,26.1
		c0,0-1-15.3,10.6-17.6"/>
	<path fill="none" stroke="#2895F1" stroke-width="0.25" stroke-linecap="round" stroke-miterlimit="10" d="M35,26.1
		c0,0-4.2-14.8-16.4-16"/>
	<path fill="none" stroke="#2895F1" stroke-width="0.25" stroke-linecap="round" stroke-miterlimit="10" d="M50.5,41.9
		c0,0,3.1-14.1-14.7-15.6"/>
	<path fill="none" stroke="#2895F1" stroke-width="0.25" stroke-linecap="round" stroke-miterlimit="10" d="M16.6,39.1
		c0,0,4.3-10.8,19.3-10.9"/>
	<path fill="none" stroke="#2895F1" stroke-width="0.25" stroke-linecap="round" stroke-miterlimit="10" d="M49.2,23.1
		c0,0-7.4-3.9-13.7,3.2"/>
	<path fill="none" stroke="#2895F1" stroke-width="0.25" stroke-linecap="round" stroke-miterlimit="10" d="M15.4,26.9
		c0,0,10.4-4.5,16.7,2.7"/>
	<g>
		<path fill="#FFFFFF" stroke="#2895F1" stroke-width="0.25" stroke-linecap="round" stroke-miterlimit="10" d="M41.6,31.6l3.1,0
			c1.2,0,2.2-1,2.2-2.2c0-1.2-1-2.2-2.2-2.2c-0.1,0-0.1,0-0.2,0c0.2-0.4,0.4-0.9,0.4-1.4c0-1.5-1.2-2.8-2.8-2.8
			c-0.7,0-1.3,0.3-1.8,0.7c-0.5-2.6-2.7-4.6-5.5-4.6c-3.1,0-5.6,2.5-5.6,5.6c0,0.3,0,0.6,0.1,0.9c-0.1,0-0.2,0-0.3,0
			c-1.7,0-3,1.3-3,3c0,1.5,1.2,2.8,2.7,3l5.4,0"/>
	</g>
	<g>
		<path fill="#2895F1" d="M48.3,40.4c0-1.5,0-3.1,0-4.6c0-0.8,0.3-1.1,1.1-1.1c2.2,0,4.3,0,6.5,0c0.6,0,1,0.3,1,0.9
			c0,3.2,0,6.5,0,9.7c0,0.6-0.4,0.8-0.9,0.8c-2.3,0-4.5,0-6.8,0c-0.7,0-1-0.4-0.9-1.1C48.3,43.5,48.3,41.9,48.3,40.4z M55.8,44.6
			c0-2.9,0-5.7,0-8.5c-2.1,0-4.1,0-6.2,0c0,2.9,0,5.7,0,8.5C51.7,44.6,53.7,44.6,55.8,44.6z M51.7,35.2c0,0.1,0,0.1,0,0.2
			c0.6,0,1.3,0,1.9,0c0-0.1,0-0.1,0-0.2C53,35.2,52.4,35.2,51.7,35.2z"/>
		<path fill="#FFFFFF" d="M55.8,44.6c-2.1,0-4.1,0-6.2,0c0-2.8,0-5.6,0-8.5c2.1,0,4.1,0,6.2,0C55.8,39,55.8,41.8,55.8,44.6z"/>
	</g>
	<path fill="none" stroke="#2895F1" stroke-width="0.2" stroke-linecap="round" stroke-miterlimit="10" d="M54.8,29.3h-5.3
		c-0.2,0-0.3-0.1-0.3-0.3v-9.6c0-0.2,0.1-0.3,0.3-0.3h5.3c0.2,0,0.3,0.1,0.3,0.3V29C55.1,29.1,55,29.3,54.8,29.3z"/>
	<path fill="none" stroke="#2895F1" stroke-width="0.2" stroke-linecap="round" stroke-miterlimit="10" d="M54.1,27.5h-3.8
		c-0.2,0-0.4-0.2-0.4-0.4v-6.7c0-0.2,0.2-0.4,0.4-0.4h3.8c0.2,0,0.4,0.2,0.4,0.4v6.7C54.5,27.4,54.3,27.5,54.1,27.5z"/>
	<circle fill="#2895F1" cx="52.2" cy="28.4" r="0.4"/>
	
		<line fill="none" stroke="#2895F1" stroke-width="0.1" stroke-linecap="round" stroke-miterlimit="10" x1="51.4" y1="19.7" x2="52.9" y2="19.7"/>
	<g>
		<path fill="#2895F1" d="M9.9,36.8c-1.2,0-2.4,0.3-3.4,0.8c0.9-0.4,1.8-0.5,2.8-0.5c4.1,0,7.4,3.3,7.4,7.4c0,2.9-1.6,5.3-4,6.5
			c2.7-1.1,4.6-3.7,4.6-6.8C17.3,40.1,14,36.8,9.9,36.8z"/>
		<g>
			<rect x="9.8" y="37.5" fill="#2895F1" width="0.3" height="1"/>
			<rect x="12.9" y="38.4" transform="matrix(0.866 0.5 -0.5 0.866 21.1841 -1.308)" fill="#2895F1" width="0.3" height="1"/>
			<rect x="15.1" y="40.6" transform="matrix(0.5 0.866 -0.866 0.5 43.2561 7.3377)" fill="#2895F1" width="0.3" height="1"/>
			<rect x="15.6" y="44.1" fill="#2895F1" width="1" height="0.3"/>
			<rect x="15.1" y="46.8" transform="matrix(-0.5 0.866 -0.866 -0.5 63.8195 57.6919)" fill="#2895F1" width="0.3" height="1"/>
			<rect x="12.9" y="49" transform="matrix(-0.866 0.5 -0.5 -0.866 49.0166 85.8853)" fill="#2895F1" width="0.3" height="1"/>
		</g>
		<g>
			<polygon fill="#2895F1" points="8.4,42.1 7.7,41.3 7.7,41.4 6.8,40.3 6.8,40.4 6.5,40 6.5,40.1 6.7,40.4 6.7,40.4 7.6,41.5 
				7.5,41.5 8.2,42.3 8.1,42.4 9.8,44.3 9.9,44.3 10.1,44.1 10.1,44 8.5,42.1 			"/>
			<circle fill="#2895F1" cx="10" cy="44.2" r="0.4"/>
			<polygon fill="#2895F1" points="10,44.3 9.9,44.1 13.3,41.4 			"/>
		</g>
		<g>
			<path fill="#2895F1" d="M6.4,47v-0.2l0.2-0.2c0.6-0.6,0.9-0.9,0.9-1.2c0-0.2-0.1-0.4-0.5-0.4c-0.2,0-0.4,0.1-0.5,0.2l-0.1-0.2
				c0.2-0.1,0.4-0.2,0.7-0.2c0.5,0,0.7,0.3,0.7,0.7c0,0.4-0.3,0.8-0.8,1.2l-0.2,0.2v0h1V47H6.4z"/>
			<path fill="#2895F1" d="M9.2,47v-0.6H8.1v-0.2l1-1.5h0.3v1.4h0.3v0.2H9.5V47H9.2z M9.2,46.1v-0.8c0-0.1,0-0.2,0-0.4h0
				C9.1,45.1,9,45.2,9,45.3l-0.6,0.8v0H9.2z"/>
			<path fill="#2895F1" d="M9.9,47.1l1-2.6h0.2l-1,2.6H9.9z"/>
			<path fill="#2895F1" d="M12.7,44.7v0.2l-1,2.1h-0.3l1-2v0h-1.1v-0.3H12.7z"/>
		</g>
	</g>
	<g>
		
			<line fill="none" stroke="#2895F1" stroke-width="8.000000e-002" stroke-linecap="round" stroke-miterlimit="10" x1="35" y1="25.8" x2="35" y2="24.7"/>
		
			<line fill="none" stroke="#2895F1" stroke-width="8.000000e-002" stroke-linecap="round" stroke-miterlimit="10" x1="36.1" y1="26.5" x2="37.2" y2="26.5"/>
		
			<line fill="none" stroke="#2895F1" stroke-width="8.000000e-002" stroke-linecap="round" stroke-miterlimit="10" x1="33.2" y1="26.6" x2="34.2" y2="26.6"/>
		
			<line fill="none" stroke="#2895F1" stroke-width="8.000000e-002" stroke-linecap="round" stroke-miterlimit="10" x1="33.5" y1="25.4" x2="34.5" y2="25.9"/>
		
			<line fill="none" stroke="#2895F1" stroke-width="8.000000e-002" stroke-linecap="round" stroke-miterlimit="10" x1="36.5" y1="25.1" x2="35.8" y2="26.1"/>
	</g>
	<g>
		<path fill="#2895F1" d="M38.1,41c-0.1-0.1-0.2-0.2-0.2-0.2c-0.3-0.5-0.8-0.8-1.2-1.2c-0.2-0.2-0.4-0.4-0.6-0.6
			c-0.4-0.4-0.7-0.9-1.1-1.3c-0.4-0.4-0.6-0.9-0.8-1.5c-0.2-0.6-0.4-1.2-0.6-1.8c-0.1-0.3-0.1-0.6,0.1-0.9c0.2-0.3,0.2-0.6,0.2-1
			c0-0.2,0-0.4,0-0.6c0-0.4,0.2-0.5,0.6-0.4c0.1,0.1,0.3,0.2,0.4,0.3c0,0,0.1,0.1,0.1,0.1c-0.1-0.4-0.1-0.9-0.2-1.3
			c-0.1-1.1-0.2-2.2-0.3-3.3c0-0.1,0-0.3,0-0.4c-0.1-0.3,0.1-0.6,0.2-0.8c0.1-0.3,0.7-0.3,0.9-0.1c0.3,0.4,0.5,0.8,0.5,1.3
			c0,0.5,0.1,0.9,0.2,1.4c0.2,0.9,0.4,1.8,0.6,2.7c0.1,0.3,0.2,0.5,0.3,0.7c0-0.2-0.1-0.4-0.1-0.6c0-0.4,0-0.9,0.2-1.3
			c0-0.1,0.1-0.2,0.1-0.3c0.1-0.3,0.2-0.4,0.6-0.5c0.2,0,0.3,0,0.5,0c0.3,0,0.5,0.1,0.6,0.5c0,0,0.1,0.1,0.2,0.1
			c0.6-0.1,1,0.1,1.3,0.6c0,0,0.1,0.1,0.1,0.1c0,0,0,0,0.1,0c0.8,0.1,1,0.3,1.1,1.1c0.1,0.3,0.1,0.7,0.2,1c0,0.2,0.2,0.3,0.2,0.5
			c0.1,0.5,0.1,0.9,0.1,1.4c0,0.5,0.1,1.1,0.1,1.6c0,0.2,0,0.3,0,0.5c-0.1,0.4,0.1,0.8,0.4,1.1c0.3,0.3,0.5,0.7,0.8,1
			c0.1,0.1,0.1,0.1,0.1,0.2c0,0,0,0,0,0c-0.4-0.5-0.8-1-1.2-1.5c0,0.2,0,0.4,0.1,0.6c0,0,0,0,0,0c0,0,0-0.1-0.1-0.1
			c0-0.3-0.1-0.6-0.1-0.9c0-0.7-0.1-1.3-0.1-2c0-0.4,0-0.9,0-1.3c0-0.3,0-0.7-0.3-1c-0.1-0.1-0.1-0.2-0.1-0.4c0-0.3-0.1-0.7-0.2-1
			c-0.1-0.5-0.4-0.7-0.8-0.8c-0.1,0-0.1,0-0.3,0c0.1,0.5,0.2,0.9,0.4,1.3c0,0.1,0.2,0.2,0.4,0.3c0.1,0.1,0.3,0.2,0.4,0.2
			c-0.5,0-0.9-0.4-1-0.8c-0.1-0.3-0.1-0.5-0.2-0.8c-0.1-0.4-0.3-0.7-0.6-0.9c-0.2-0.1-0.5-0.1-0.7-0.1c0,0.4,0,0.8,0.1,1.2
			c0.1,0.4,0.2,0.7,0.3,1.1c-0.1-0.1-0.2-0.2-0.2-0.3c-0.1-0.3-0.2-0.7-0.2-1.1c0-0.2,0-0.4,0-0.6c-0.1-0.7-0.3-0.9-1.1-0.8
			c-0.3,0-0.5,0.2-0.6,0.5c-0.1,0.5-0.3,0.9-0.2,1.4c0,0.1,0,0.2,0,0.2c0,0,0,0,0.1,0c0-0.2,0-0.5,0-0.7c0,0,0.1,0,0.1,0
			c0,0.4-0.1,0.9-0.1,1.3c0,0,0,0-0.1,0c-0.3-0.7-0.5-1.5-0.6-2.3c-0.1,0.1-0.1,0.2-0.2,0.2c0.3-0.4,0-0.7-0.2-1
			c0.1,0.1,0.1,0.1,0.2,0.2c-0.1-0.3-0.2-0.6-0.2-1c-0.1-0.5-0.1-1-0.2-1.5c0-0.3-0.1-0.5-0.2-0.7c0,0,0,0-0.1,0
			c0,0.2,0,0.4-0.1,0.5c-0.1,0.1-0.4,0.1-0.5,0.2c-0.3,0-0.3,0-0.5-0.5c0,0.1,0,0.2,0,0.3c0,0.8,0.1,1.5,0.2,2.3
			c0.1,1.1,0.3,2.3,0.4,3.4c0,0.3,0,0.6,0,0.8c0,0.4,0,0.7,0,1.1c0.1,0.4,0,0.9-0.1,1.3c-0.1,0.4-0.1,0.7,0,1.1
			c0.1,0.2,0.1,0.4,0.1,0.6c0,0,0,0-0.1,0c0,0,0-0.1,0-0.1c0-0.2,0-0.4-0.1-0.6c-0.1-0.3-0.1-0.6-0.1-0.9c0.2-0.6,0.1-1.2,0.1-1.8
			c0-0.3,0-0.6,0-0.9c0.1-0.5-0.1-0.9-0.4-1.3c-0.1-0.1-0.2-0.2-0.5-0.2c0.2,0.3,0.2,0.6,0.2,0.9c0,0.3-0.1,0.4-0.4,0.4
			c0.1,0,0.2,0.1,0.3,0.1c0,0,0,0,0,0C34.2,33,34.1,33,34,33c-0.1,0.2-0.2,0.5-0.3,0.7c0.1,0,0.3,0,0.5,0c-0.2,0.1-0.5,0-0.5,0.3
			c0,0.2,0,0.3,0.1,0.6c0.2-0.1,0.3-0.2,0.5-0.3c0,0,0,0,0,0c-0.1,0.1-0.3,0.2-0.4,0.4c0,0.1,0.1,0.2,0.1,0.3
			c0.1-0.1,0.2-0.1,0.4-0.2c0,0.1,0,0.1-0.1,0.1C33.9,35,33.9,35,34,35.3c0.1,0.4,0.3,0.8,0.4,1.2c0.2,0.3,0.3,0.7,0.6,1
			c0.4,0.5,0.8,1,1.2,1.6c0,0.1,0.1,0.1,0.2,0.2c0.4,0.3,0.8,0.6,1.2,0.9c-0.1-0.3-0.2-0.6-0.2-0.9c0,0,0.1,0,0.1,0
			C37.6,39.9,37.7,40.5,38.1,41C38.2,41,38.2,41,38.1,41z M35.6,26.6c0-0.1-0.1-0.2-0.1-0.3c-0.1-0.1-0.6-0.1-0.7,0
			c-0.1,0-0.1,0.1-0.1,0.2c0,0.4,0.1,0.5,0.5,0.5c0,0,0.1,0,0.1,0C35.5,26.9,35.6,26.9,35.6,26.6z M33.9,31.8c0,0.3,0,0.5,0,0.8
			c0,0.1,0,0.2,0.1,0.2c0.1,0,0.2-0.1,0.2-0.2c0-0.1,0-0.2,0-0.4C34.3,32,34.2,31.9,33.9,31.8z"/>
		<path fill="#2895F1" d="M38.9,32.9c0.2,0.4,0.5,0.8,0.4,1.5c-0.1-0.3-0.1-0.5-0.2-0.8C39.1,33.4,39,33.2,38.9,32.9
			C38.9,32.9,38.9,32.9,38.9,32.9z"/>
		<path fill="#2895F1" d="M39.2,40.6c0.3-0.6,0.8-0.9,1.2-0.9c-0.2,0.1-0.5,0.2-0.6,0.3C39.5,40.2,39.3,40.4,39.2,40.6z"/>
		<path fill="#2895F1" d="M40.9,34.4c-0.1-0.4,0.1-0.9-0.2-1.2C41.1,33.5,40.9,33.9,40.9,34.4z"/>
		<path fill="#2895F1" d="M36.2,35.5c-0.2-0.3-0.3-0.6-0.5-0.9C36,34.8,36.2,35.1,36.2,35.5z"/>
		<path fill="#2895F1" d="M35.8,29.3c-0.3,0.1-0.5,0.3-0.8,0.4C35.2,29.5,35.5,29.4,35.8,29.3z"/>
		<path fill="#2895F1" d="M35.9,30.5c-0.3,0.1-0.5,0.1-0.8,0C35.4,30.5,35.7,30.5,35.9,30.5z"/>
		<path fill="#2895F1" d="M34.9,27.6c0.3-0.2,0.5-0.1,0.8-0.1c0,0,0,0,0,0.1C35.4,27.5,35.2,27.5,34.9,27.6z"/>
		<path fill="#2895F1" d="M36.1,30.1c-0.1,0.2-0.4,0.2-0.6,0.1C35.7,30.2,35.9,30.2,36.1,30.1z"/>
		<path fill="#2895F1" d="M37,34.7c0-0.2,0-0.4,0-0.7c0,0,0,0,0,0C37,34.3,37,34.5,37,34.7C37,34.7,37,34.7,37,34.7z"/>
		<path fill="#2895F1" d="M38.5,30.3c-0.3,0-0.5,0-0.8-0.1C37.9,30.2,38.2,30.2,38.5,30.3z"/>
		<path fill="#2895F1" d="M35.3,29.9c0.2,0,0.3-0.1,0.5-0.1c0,0,0,0,0,0.1C35.6,29.9,35.5,29.9,35.3,29.9
			C35.3,29.9,35.3,29.9,35.3,29.9z"/>
	</g>
</g>
</svg>
