<?xml version="1.0" encoding="utf-8"?>
<!-- Generator: Adobe Illustrator 18.0.0, SVG Export Plug-In . SVG Version: 6.00 Build 0)  -->
<!DOCTYPE svg PUBLIC "-//W3C//DTD SVG 1.1//EN" "http://www.w3.org/Graphics/SVG/1.1/DTD/svg11.dtd">
<svg version="1.1" id="Layer_1" xmlns="http://www.w3.org/2000/svg" xmlns:xlink="http://www.w3.org/1999/xlink" x="0px" y="0px"
	 viewBox="0 0 86 52" enable-background="new 0 0 86 52" xml:space="preserve">
<g>
	<g>
		<g>
			<g>
				<path fill="#FFFFFF" stroke="#2895F1" stroke-width="0.75" stroke-linecap="round" stroke-miterlimit="10" d="M76.3,51
					c4.9,0,8.8-4,8.8-8.8c0-4.9-4-8.8-8.8-8.8c-0.3,0-0.6,0-0.9,0c0.9-1.6,1.5-3.5,1.5-5.6c0-6.1-5-11.1-11.1-11.1
					c-2.8,0-5.3,1-7.2,2.7C56.7,8.9,47.5,1,36.5,1C24.1,1,14.1,11,14.1,23.4c0,1.2,0.1,2.4,0.3,3.5c-0.5-0.1-0.9-0.1-1.4-0.1
					c-6.7,0-12.1,5.4-12.1,12.1c0,6.2,4.7,11.3,10.7,12L76.3,51z"/>
			</g>
		</g>
	</g>
	<g>
		<g>
			<circle fill="#FFFFFF" stroke="#2895F1" stroke-linecap="round" stroke-miterlimit="10" cx="36.9" cy="24.2" r="16.2"/>
			<g>
				<path fill="none" stroke="#2895F1" stroke-width="0.15" stroke-linecap="round" stroke-miterlimit="10" d="M36.4,8
					c0,0-3.8,5.2-3.8,16.5c0,11.8,3.8,16,3.8,16"/>
				<path fill="none" stroke="#2895F1" stroke-width="0.15" stroke-linecap="round" stroke-miterlimit="10" d="M36.2,8.4
					c0,0-10.6,1.9-10.6,16.1c0,13.8,10.8,16,10.8,16"/>
			</g>
			<g>
				<path fill="none" stroke="#2895F1" stroke-width="0.15" stroke-linecap="round" stroke-miterlimit="10" d="M36.9,8
					c0,0,3.8,5.2,3.8,16.5c0,11.8-3.8,16-3.8,16"/>
				<path fill="none" stroke="#2895F1" stroke-width="0.15" stroke-linecap="round" stroke-miterlimit="10" d="M37.1,8.4
					c0,0,10.6,1.9,10.6,16.1c0,13.8-10.8,16-10.8,16"/>
			</g>
			<polyline fill="none" stroke="#2895F1" stroke-width="0.15" stroke-linecap="round" stroke-miterlimit="10" points="20.6,24.4 
				36.9,24.4 53.1,24.4 			"/>
			<g>
				<path fill="none" stroke="#2895F1" stroke-width="0.15" stroke-linecap="round" stroke-miterlimit="10" d="M23.5,15
					c0,0,3.3,6.7,13.3,6.7c9.3,0,13.1-7,13.1-7"/>
				<path fill="none" stroke="#2895F1" stroke-width="0.15" stroke-linecap="round" stroke-miterlimit="10" d="M28.2,10.5
					c0,0,1.8,3.4,8.3,3.4c6,0,8.5-3.5,8.5-3.5"/>
			</g>
			<g>
				<path fill="none" stroke="#2895F1" stroke-width="0.15" stroke-linecap="round" stroke-miterlimit="10" d="M49.8,34
					c0,0-2.9-6.1-12.9-6.1c-9.3,0-12.7,6.3-12.7,6.3"/>
				<path fill="none" stroke="#2895F1" stroke-width="0.15" stroke-linecap="round" stroke-miterlimit="10" d="M45,38.4
					c0,0-1.3-2.3-7.8-2.3c-6,0-7.8,2.5-7.8,2.5"/>
			</g>
		</g>
		<g>
			<path fill="#FFFFFF" stroke="#2895F1" stroke-width="0.25" stroke-linecap="round" stroke-miterlimit="10" d="M40.2,24.1
				L40.2,24.1c1.2-0.8,2.1-2,2.6-3.5c-0.4-0.4-0.6-1.3-0.6-2.3c0-0.8,0.2-1.6,0.5-2.1c-1-2.4-3.3-4.1-6-4.1c-2.6,0-4.8,1.5-5.9,3.7
				c0.5,0.3,0.8,1.3,0.8,2.5c0,1.4-0.5,2.5-1.1,2.6c0.5,1.4,1.5,2.7,2.9,3.4l0,0c0,0-1.5,5.4-1.5,6.3c0,1.5,0.7,2.8,1.7,3.8
				c0,0.1,0,0.1,0,0.2c0,1.7,0.8,3.1,1.8,3.1c0.8,0,1.4-0.9,1.7-2.1c0.3,0,0.5,0,0.8-0.1c0.2,1.2,0.9,2.1,1.7,2.1
				c1,0,1.8-1.4,1.8-3.1c0-0.4-0.1-0.9-0.1-1.2c0.5-0.8,0.8-1.7,0.8-2.7C41.9,29.7,40.2,24.1,40.2,24.1z"/>
			<path fill="#2895F1" d="M43.7,15.8c-0.1,0-0.1,0-0.2,0c-0.7-3-3.4-5.2-6.7-5.2c-3.3,0-6,2.2-6.7,5.1c0,0,0,0,0,0
				c-0.6,0-1.1,1.1-1.1,2.6s0.5,2.6,1.1,2.6c0.6,0,1.1-1.1,1.1-2.6c0-1.2-0.4-2.2-0.9-2.5c0.7-2.8,3.3-5,6.5-5
				c3.2,0,5.8,2.2,6.5,5.1c-0.4,0.4-0.7,1.3-0.7,2.4c0,1.4,0.5,2.6,1.1,2.6c0.6,0,1.1-1.1,1.1-2.6S44.3,15.8,43.7,15.8z"/>
			<path fill="#2895F1" d="M33.9,19c0,0,0.8,1.8,4.3,1.8v-0.2c0,0-3.2,0-4.1-1.8L33.9,19z"/>
			<g>
				<path fill="#2895F1" d="M35.1,16.1c0.3,0,0.5,0.2,0.7,0.5c0.1-0.1,0.1-0.3,0.1-0.4c0-0.5-0.3-0.9-0.8-0.9
					c-0.4,0-0.8,0.4-0.8,0.9c0,0.2,0,0.3,0.1,0.4C34.5,16.3,34.8,16.1,35.1,16.1z"/>
				<path fill="#2895F1" d="M35.1,16.2c-0.3,0-0.5,0.2-0.6,0.4c0.1,0.3,0.4,0.4,0.6,0.4c0.3,0,0.5-0.2,0.6-0.4
					C35.6,16.4,35.3,16.2,35.1,16.2z"/>
			</g>
			<g>
				<path fill="#2895F1" d="M38.7,16.1c0.3,0,0.5,0.2,0.7,0.5c0.1-0.1,0.1-0.3,0.1-0.4c0-0.5-0.3-0.9-0.8-0.9
					c-0.4,0-0.8,0.4-0.8,0.9c0,0.2,0,0.3,0.1,0.4C38.2,16.3,38.4,16.1,38.7,16.1z"/>
				<path fill="#2895F1" d="M38.7,16.2c-0.3,0-0.5,0.2-0.6,0.4c0.1,0.3,0.4,0.4,0.6,0.4c0.3,0,0.5-0.2,0.6-0.4
					C39.2,16.4,39,16.2,38.7,16.2z"/>
			</g>
			<path fill="#2895F1" d="M33.6,15.4c0,0,0.5-1.1,2-0.9l0.1,0.2C35.7,14.8,34.5,14.4,33.6,15.4z"/>
			<path fill="#2895F1" d="M40.1,15.4c0,0-0.5-1.1-2-0.9L38,14.8C38,14.8,39.1,14.4,40.1,15.4z"/>
			<path fill="#2895F1" d="M42.6,18.8c0,0-1,2.8-2.8,3.2v0c-0.2-0.2-0.5-0.3-0.8-0.3c-0.5,0-0.9,0.2-0.9,0.5s0.4,0.5,0.9,0.5
				c0.4,0,0.8-0.1,0.9-0.3h0c0,0,2-0.7,2.8-3.2L42.6,18.8z"/>
			<g>
				<path fill="#FFFFFF" stroke="#2895F1" stroke-width="0.15" stroke-linecap="round" stroke-miterlimit="10" d="M31,25.4
					c0,0,0,0.1,0,0.1c0,0,0,0,0,0c0.4-0.1,0.8-0.2,1.2-0.3c0,0,0,0,0,0c0,0.1,0.1,0.2,0.1,0.4c-0.4,0.1-0.8,0.2-1.3,0.4
					c0,0,0,0,0,0.1c0,0,0,0,0,0.1c0,0,0,0,0,0c0,0,0,0,0,0c0,0,0,0,0,0c0,0,0,0,0,0c0.4-0.1,0.8-0.2,1.2-0.3c0,0,0,0,0,0
					c0,0,0,0,0,0c0,0.1,0.1,0.2,0.1,0.3c-0.1,0-0.2,0.1-0.3,0.1c-0.1,0-0.2,0.1-0.3,0.1c-0.1,0-0.2,0.1-0.3,0.1
					c-0.1,0-0.2,0.1-0.3,0.1c0,0,0,0.1,0,0.1c0.4-0.1,0.8-0.2,1.3-0.3c0,0,0,0,0,0c0,0.3-0.2,0.6-0.5,0.7c0,0-0.1,0-0.1,0
					c-0.3,0.1-0.5,0.1-0.8,0.2c-0.3,0.1-0.7,0-0.9-0.3c0-0.1-0.1-0.1-0.1-0.2c-0.1-0.3-0.1-0.5-0.2-0.8c-0.1-0.4,0.1-0.7,0.4-0.9
					c0,0,0.1,0,0.1,0c0.3-0.1,0.5-0.1,0.8-0.2c0.3-0.1,0.7,0,0.9,0.3c0,0,0,0,0,0.1C31.8,25.2,31.4,25.3,31,25.4z"/>
				<path fill="#FFFFFF" stroke="#2895F1" stroke-width="0.15" stroke-linecap="round" stroke-miterlimit="10" d="M30.1,24.8
					c-0.1-0.1-0.1-0.2-0.1-0.2c-0.1-0.2-0.1-0.3-0.2-0.5c0-0.2,0-0.5,0-0.7c0-0.1,0.1-0.3,0.2-0.4c0.1-0.1,0.2-0.2,0.3-0.2
					c0.1,0,0.2,0,0.3,0c0.1,0,0.3,0.1,0.4,0.2c0.2,0.1,0.3,0.3,0.4,0.4c0.2,0.3,0.2,0.6,0.2,1c0,0,0,0,0,0c0,0,0,0,0,0
					c-0.1,0-0.2,0-0.3,0c-0.3,0.1-0.6,0.2-0.9,0.2C30.3,24.7,30.2,24.7,30.1,24.8C30.2,24.8,30.2,24.8,30.1,24.8z"/>
			</g>
			<g>
				<path fill="#FFFFFF" stroke="#2895F1" stroke-width="0.15" stroke-linecap="round" stroke-miterlimit="10" d="M42.6,25.5
					c0,0,0,0.1,0,0.1c0,0,0,0,0,0c-0.4-0.1-0.8-0.2-1.2-0.3c0,0,0,0,0,0c0,0.1-0.1,0.2-0.1,0.4c0.4,0.1,0.8,0.2,1.3,0.4
					c0,0,0,0,0,0.1c0,0,0,0,0,0.1c0,0,0,0,0,0c0,0,0,0,0,0c0,0,0,0,0,0c0,0,0,0,0,0c-0.4-0.1-0.8-0.2-1.2-0.3c0,0,0,0,0,0
					c0,0,0,0,0,0c0,0.1-0.1,0.2-0.1,0.3c0.1,0,0.2,0.1,0.3,0.1c0.1,0,0.2,0.1,0.3,0.1c0.1,0,0.2,0.1,0.3,0.1c0.1,0,0.2,0.1,0.3,0.1
					c0,0,0,0.1,0,0.1c-0.4-0.1-0.8-0.2-1.3-0.3c0,0,0,0,0,0c0,0.3,0.2,0.6,0.5,0.7c0,0,0.1,0,0.1,0c0.3,0.1,0.5,0.1,0.8,0.2
					c0.3,0.1,0.7,0,0.9-0.3c0-0.1,0.1-0.1,0.1-0.2c0.1-0.3,0.1-0.5,0.2-0.8c0.1-0.4-0.1-0.7-0.4-0.9c0,0-0.1,0-0.1,0
					c-0.3-0.1-0.5-0.1-0.8-0.2c-0.3-0.1-0.7,0-0.9,0.3c0,0,0,0,0,0.1C41.8,25.3,42.2,25.4,42.6,25.5z"/>
				<path fill="#FFFFFF" stroke="#2895F1" stroke-width="0.15" stroke-linecap="round" stroke-miterlimit="10" d="M43.4,24.9
					c0.1-0.1,0.1-0.2,0.1-0.2c0.1-0.2,0.1-0.3,0.2-0.5c0-0.2,0-0.5,0-0.7c0-0.1-0.1-0.3-0.2-0.4c-0.1-0.1-0.2-0.2-0.3-0.2
					c-0.1,0-0.2,0-0.3,0c-0.1,0-0.3,0.1-0.4,0.2c-0.2,0.1-0.3,0.3-0.4,0.4c-0.2,0.3-0.2,0.6-0.2,1c0,0,0,0,0,0c0,0,0,0,0,0
					c0.1,0,0.2,0,0.3,0c0.3,0.1,0.6,0.2,0.9,0.2C43.3,24.8,43.3,24.8,43.4,24.9C43.4,24.9,43.4,24.9,43.4,24.9z"/>
			</g>
		</g>
	</g>
</g>
</svg>
