<?xml version="1.0" encoding="utf-8"?>
<!-- Generator: Adobe Illustrator 18.0.0, SVG Export Plug-In . SVG Version: 6.00 Build 0)  -->
<!DOCTYPE svg PUBLIC "-//W3C//DTD SVG 1.1//EN" "http://www.w3.org/Graphics/SVG/1.1/DTD/svg11.dtd">
<svg version="1.1" id="Layer_1" xmlns="http://www.w3.org/2000/svg" xmlns:xlink="http://www.w3.org/1999/xlink" x="0px" y="0px"
	 viewBox="0 0 250 70" enable-background="new 0 0 250 70" xml:space="preserve">
<g>
	<g>
		<polygon fill="#2895F2" points="0.3,18.8 28.4,2.5 56.6,18.8 56.6,51.2 28.4,67.5 0.3,51.2 		"/>
		<g>
			<g>
				<defs>
					<polygon id="SVGID_1_" points="0.3,18.8 28.4,2.5 56.6,18.8 56.6,51.2 28.4,67.5 0.3,51.2 					"/>
				</defs>
				<clipPath id="SVGID_2_">
					<use xlink:href="#SVGID_1_"  overflow="visible"/>
				</clipPath>
				<polyline clip-path="url(#SVGID_2_)" fill="#086FAF" points="9.5,45.5 6.4,36.4 7.8,33 16.5,27 23.8,20.4 33.6,19.3 36.7,19 
					62.1,33.4 62.3,76.2 				"/>
			</g>
		</g>
		<path fill="#FFFFFF" d="M51.9,36.1C51.9,36.1,51.9,36.2,51.9,36.1c0,0.1,0,0.2,0,0.2c0,0.1,0,0.1,0,0.2c0,0.2,0,0.3,0,0.5
			c0,0.1,0,0.3-0.1,0.4c0,0.3-0.1,0.6-0.2,1c-0.4,1.8-1.2,3.3-2.4,4.7c-1,1.2-2.2,2.1-3.6,2.9c-1,0.5-2,0.9-3.1,1.2
			c-0.3,0.1-0.6,0.1-0.9,0.2c-0.2,0-0.4,0.1-0.7,0.1c-0.1,0-0.3,0-0.4,0c-0.2,0-0.4,0-0.6,0c-0.2,0-0.3,0-0.5,0c0,0-0.1,0-0.1,0
			c-0.3,0-0.5,0-0.8,0c-0.7,0-1.4,0-2.1,0c-0.3,0-0.7,0-1,0c-0.2,0-0.4,0-0.5,0c-0.3,0-0.5,0-0.8,0c-0.1,0-0.1,0-0.2,0
			c0,0-0.1,0.1-0.1,0.1c-1.3,1.3-2.6,2.7-3.9,4c-0.3,0.3-0.6,0.7-0.9,1c0,0,0,0-0.1,0.1c0,0,0,0-0.1,0c0,0,0,0,0,0
			c-1.1-0.8-2.2-1.6-3.3-2.5c0,0,0,0-0.1-0.1c0,0,0,0,0,0c0,0,0,0,0-0.1c0.3-0.4,0.7-0.8,1-1.1c1.2-1.3,2.3-2.6,3.5-3.9
			c0.5-0.5,0.9-1,1.4-1.6c0,0,0.1-0.1,0.1-0.1c0.1,0,0.1,0,0.2,0c0.3,0,0.6,0,1,0c0.2,0,0.5,0,0.7,0c0.3,0,0.6,0,0.9,0
			c0.1,0,0.1,0,0.2,0c0.3,0,0.7,0,1,0c0.1,0,0.2,0,0.3,0c0.4,0,0.8,0,1.2,0c0.3,0,0.6,0,0.8,0c0.2,0,0.5,0,0.7,0
			c0.2,0,0.5,0,0.7-0.1c0.3,0,0.5-0.1,0.8-0.1c0.1,0,0.2,0,0.2,0c0,0,0.1,0,0.1,0c0,0,0,0,0.1,0c0.1,0,0.2,0,0.4-0.1
			c0.2,0,0.4-0.1,0.6-0.1c0.3-0.1,0.5-0.1,0.8-0.2c0.3-0.1,0.6-0.2,0.9-0.4c0.9-0.5,1.7-1.1,2.3-1.8c0.7-0.8,1.2-1.7,1.5-2.7
			c0.1-0.3,0.2-0.7,0.2-1c0.1-0.5,0.1-0.9,0.1-1.4c-0.1-1-0.3-1.9-0.7-2.7c-0.4-0.9-1-1.7-1.8-2.3c-0.9-0.8-2-1.4-3.2-1.7
			c-0.3-0.1-0.6-0.1-0.9-0.2c-0.2,0-0.3,0-0.5-0.1c-0.1,0-0.2,0-0.3,0c0,0-0.1,0-0.1-0.1c0,0,0-0.1,0-0.1c-1-2.5-3.1-4.6-5.6-5.8
			c-0.7-0.3-1.3-0.5-2.1-0.7c-0.3-0.1-0.5-0.1-0.8-0.1c-0.2,0-0.4,0-0.5-0.1c-0.2,0-0.3,0-0.5,0c-0.1,0-0.2,0-0.2,0
			c-0.2,0-0.4,0-0.6,0c-0.2,0-0.4,0-0.6,0c-0.1,0-0.2,0-0.3,0c-0.1,0-0.3,0-0.4,0.1c-0.3,0-0.5,0.1-0.8,0.2
			c-1.1,0.3-2.2,0.7-3.1,1.3c-1.4,0.9-2.6,2-3.5,3.4c-0.2,0.4-0.4,0.8-0.6,1.2c-0.2,0.5-0.4,1-0.5,1.5c-0.1,0.4-0.2,0.9-0.3,1.3
			c0,0,0,0,0,0c0,0,0,0,0,0c0,0,0,0-0.1,0c-0.2,0-0.3,0-0.5-0.1c-0.1,0-0.2,0-0.3,0c-0.1,0-0.3,0-0.4,0c-0.2,0-0.4,0-0.6,0
			c-0.2,0-0.4,0-0.6,0c-0.1,0-0.2,0-0.3,0c-0.1,0-0.3,0-0.4,0s-0.3,0-0.4,0.1c-0.6,0.1-1.1,0.3-1.6,0.5c-0.7,0.4-1.4,0.8-2,1.4
			c-0.6,0.6-1.1,1.2-1.4,1.9c-0.3,0.5-0.4,1-0.5,1.6c-0.1,0.4-0.1,0.9-0.1,1.3c0,1,0.3,2,0.9,2.9c0.1,0.2,0.3,0.4,0.5,0.6
			c0.5,0.6,1,1.1,1.6,1.5c0.7,0.5,1.4,0.9,2.2,1.1c0.1,0,0.1,0,0.2,0c0.7,0,1.5,0,2.2,0c0.7,0,1.5,0,2.2,0c0.4,0,0.8,0,1.1,0
			c0.4,0,0.8,0,1.3,0c0,0,0.1,0,0.1,0c0,0,0,0,0.1,0c0,0,0.1-0.1,0.1-0.1c1.1-1.2,2.2-2.4,3.3-3.6c0.4-0.4,0.7-0.8,1.1-1.2
			c0,0,0.1-0.1,0.1-0.1c0,0,0,0,0,0c0,0-0.1-0.1-0.1-0.1c-0.4-0.4-0.8-0.8-1.2-1.2c0,0-0.1-0.1-0.1-0.1c0,0,0,0,0,0c0,0,0,0,0,0
			c0,0,0.1,0,0.1,0c0.2,0,0.4,0,0.6,0c0.2,0,0.4,0,0.6,0s0.4,0,0.6,0c0.2,0,0.4,0,0.7,0c0,0,0,0,0,0c0.2,0,0.4,0,0.6,0
			c0.2,0,0.4,0,0.6,0c0,0,0,0,0,0c0.2,0,0.4,0,0.6,0c0.2,0,0.4,0,0.6,0c0.2,0,0.4,0,0.6,0c0.1,0,0.2,0,0.3,0c0,0,0.1,0,0.1,0
			c0,0,0,0.1,0,0.1c0,0.2,0,0.3,0,0.5c0,0.1,0,0.2,0,0.3c0,0.1,0,0.3,0,0.4c0,0.1,0,0.3,0,0.4c0,0.1,0,0.2,0,0.3c0,0.1,0,0.3,0,0.4
			c0,0.1,0,0.3,0,0.4c0,0.1,0,0.2,0,0.3c0,0.1,0,0.3,0,0.4c0,0.1,0,0.3,0,0.4c0,0.1,0,0.2,0,0.3c0,0.1,0,0.3,0,0.4
			c0,0.1,0,0.3,0,0.4c0,0,0,0.1,0,0.1c0,0,0,0,0,0c0,0-0.1,0-0.1,0c-0.2-0.2-0.5-0.3-0.7-0.5c-0.2-0.2-0.5-0.3-0.7-0.5
			c0,0,0,0-0.1,0c0,0,0,0-0.1,0c0,0-0.1,0.1-0.1,0.1c-0.3,0.3-0.6,0.7-0.9,1c-1.1,1.2-2.2,2.5-3.4,3.7c-0.4,0.4-0.7,0.8-1.1,1.2
			c-0.1,0.1-0.3,0.3-0.4,0.4c0,0-0.1,0.1-0.2,0.1c-0.1,0-0.1,0-0.2,0c-3.4,0-6.8,0-10.2,0c0,0,0,0,0,0c-0.1,0-0.2,0-0.2,0
			c-0.5-0.1-1-0.3-1.4-0.5c-0.9-0.4-1.8-0.8-2.6-1.4c-0.8-0.5-1.4-1.1-2-1.8c-1-1.1-1.7-2.4-2.1-3.8c-0.1-0.3-0.2-0.7-0.2-1
			c0-0.3-0.1-0.6-0.1-0.8c0-0.2,0-0.3,0-0.5c0-0.1,0-0.1,0-0.2c0,0,0,0,0-0.1c0-0.2,0-0.4,0-0.6c0,0,0,0,0-0.1c0,0,0-0.1,0-0.1
			c0-0.3,0-0.5,0.1-0.7c0.1-0.4,0.1-0.8,0.2-1.1c0.2-0.7,0.5-1.4,0.9-2.1c0.5-0.9,1.1-1.7,1.9-2.5c1.1-1.1,2.4-2,3.9-2.7
			c0.9-0.4,1.9-0.7,3-0.9c0,0,0.1,0,0.1,0c0,0,0-0.1,0-0.1c0.7-1.4,1.5-2.8,2.6-3.9c1.2-1.3,2.6-2.3,4.1-3.2c1.8-1,3.8-1.6,5.8-1.8
			c0.1,0,0.2,0,0.3,0c0.1,0,0.3,0,0.4,0c0.2,0,0.4,0,0.6,0c0,0,0.1,0,0.1,0c0.4,0,0.7,0,1.1,0c0,0,0.1,0,0.1,0c0.2,0,0.4,0,0.6,0
			c0.1,0,0.3,0,0.4,0c0.2,0,0.4,0,0.5,0.1c0.3,0,0.6,0.1,0.9,0.1c0.5,0.1,0.9,0.2,1.4,0.3c1.6,0.4,3,1.1,4.4,2
			c1.9,1.2,3.4,2.7,4.6,4.6c0.1,0.1,0,0.1,0.2,0.1c0.7,0.2,1.3,0.5,2,0.8c1.5,0.8,2.9,1.8,4,3.1c1.1,1.4,2,2.9,2.4,4.6
			c0.1,0.3,0.1,0.6,0.2,1c0,0.1,0,0.3,0.1,0.4c0,0.2,0,0.3,0,0.5c0,0.1,0,0.1,0,0.2c0,0,0,0.1,0,0.2c0,0,0,0.1,0,0.1
			C51.9,35.6,51.9,35.8,51.9,36.1z"/>
	</g>
	<g>
		<path fill="#2895F2" d="M83.5,23.1c2.9,0,5.3,1.4,6.8,3l-2.9,3.2c-1.2-1.1-2.3-1.7-3.9-1.7c-3.2,0-5.7,2.8-5.7,7.4
			c0,4.7,2.2,7.5,5.6,7.5c1.9,0,3.2-0.8,4.4-2l2.9,3.1c-1.9,2.2-4.4,3.4-7.3,3.4c-6,0-10.8-4.1-10.8-11.8
			C72.6,27.5,77.6,23.1,83.5,23.1z"/>
		<path fill="#2895F2" d="M94.1,23.5h5.2v18.6h9.1v4.4H94.1V23.5z"/>
		<path fill="#2895F2" d="M109.9,34.9c0-7.5,4.3-11.8,10.4-11.8c6.2,0,10.4,4.3,10.4,11.8c0,7.5-4.2,12-10.4,12
			C114.2,46.9,109.9,42.4,109.9,34.9z M125.5,34.9c0-4.6-2-7.3-5.1-7.3c-3.1,0-5.1,2.7-5.1,7.3c0,4.6,2,7.5,5.1,7.5
			C123.5,42.4,125.5,39.5,125.5,34.9z"/>
		<path fill="#2895F2" d="M135,23.5h5.2v12.9c0,4.5,1.4,6.1,4,6.1c2.6,0,4.1-1.6,4.1-6.1V23.5h5v12.3c0,7.7-3.1,11.1-9.1,11.1
			s-9.2-3.3-9.2-11.1V23.5z"/>
		<path fill="#2895F2" d="M158.4,23.5h6.5c7,0,11.6,3.5,11.6,11.4c0,7.9-4.5,11.6-11.2,11.6h-6.8V23.5z M164.7,42.3
			c3.9,0,6.5-1.9,6.5-7.4s-2.6-7.2-6.5-7.2h-1v14.6H164.7z"/>
		<path fill="#2895F2" d="M179.6,35.7h8.7v3.7h-8.7V35.7z"/>
		<path fill="#2895F2" d="M196.8,27.9h-6.3v-4.4h17.8v4.4h-6.3v18.6h-5.2V27.9z"/>
		<path fill="#2895F2" d="M220.7,23.1c2.9,0,5.3,1.4,6.8,3l-2.9,3.2c-1.2-1.1-2.3-1.7-3.9-1.7c-3.2,0-5.7,2.8-5.7,7.4
			c0,4.7,2.2,7.5,5.6,7.5c1.9,0,3.2-0.8,4.4-2l2.9,3.1c-1.9,2.2-4.4,3.4-7.3,3.4c-6,0-10.8-4.1-10.8-11.8
			C209.7,27.5,214.8,23.1,220.7,23.1z"/>
		<path fill="#2895F2" d="M228.9,34.9c0-7.5,4.3-11.8,10.4-11.8c6.2,0,10.4,4.3,10.4,11.8c0,7.5-4.2,12-10.4,12
			C233.1,46.9,228.9,42.4,228.9,34.9z M244.4,34.9c0-4.6-2-7.3-5.1-7.3c-3.1,0-5.1,2.7-5.1,7.3c0,4.6,2,7.5,5.1,7.5
			C242.4,42.4,244.4,39.5,244.4,34.9z"/>
	</g>
</g>
</svg>
