<?xml version="1.0" encoding="utf-8"?>
<!-- Generator: Adobe Illustrator 18.0.0, SVG Export Plug-In . SVG Version: 6.00 Build 0)  -->
<!DOCTYPE svg PUBLIC "-//W3C//DTD SVG 1.1//EN" "http://www.w3.org/Graphics/SVG/1.1/DTD/svg11.dtd">
<svg version="1.1" id="Layer_1" xmlns="http://www.w3.org/2000/svg" xmlns:xlink="http://www.w3.org/1999/xlink" x="0px" y="0px"
	 viewBox="0 0 612 792" enable-background="new 0 0 612 792" xml:space="preserve">
<g>
	<polygon fill="#FFFFFF" points="0,219.3 306,42.7 612,219.3 612,572.7 306,749.3 0,572.7 	"/>
	<g>
		<defs>
			<polygon id="SVGID_1_" points="0,219.3 306,42.7 612,219.3 612,572.7 306,749.3 0,572.7 			"/>
		</defs>
		<clipPath id="SVGID_2_">
			<use xlink:href="#SVGID_1_"  overflow="visible"/>
		</clipPath>
		<polyline clip-path="url(#SVGID_2_)" fill="#E6E7E8" points="99.7,509.8 66.3,411.1 81.4,374.7 176.4,308.5 255.9,237.6 
			362.3,225.4 396.3,221.6 671.7,378.6 673.7,844.4 		"/>
	</g>
	<path fill="#2895F2" d="M561,407.9c-0.1,0.3-0.1,0.7-0.2,1.1c0,0.5,0,0.9-0.1,1.4c0,0.6,0,1.3,0,1.9c0,1.8-0.2,3.6-0.4,5.4
		c-0.2,1.5-0.4,3.1-0.6,4.6c-0.5,3.5-1.2,7-2.1,10.4c-4.7,19-13.6,35.9-26.3,50.8c-11,12.8-24,23.1-38.9,31.1
		c-10.7,5.7-22.1,9.9-33.9,12.6c-3.3,0.8-6.6,1.4-9.9,1.9c-2.4,0.4-4.8,0.7-7.3,1c-1.5,0.2-3,0.2-4.5,0.4c-2.1,0.2-4.2,0.2-6.2,0.3
		c-1.7,0.1-3.4,0.2-5,0.3c-0.4,0-0.8,0.1-1.2,0.1c-3,0.1-6,0.2-9,0.3c-7.6,0.3-15.2,0.3-22.8,0.2c-3.6,0-7.2-0.1-10.7-0.2
		c-2,0-3.9,0-5.8-0.1c-2.8-0.1-5.6-0.2-8.4-0.2c-0.6,0-1.2-0.1-1.9,0.1c-0.3,0.3-0.7,0.7-1,1.1c-14.1,14.6-28.1,29.2-42.2,43.8
		c-3.4,3.6-6.9,7.1-10.3,10.7c-0.2,0.3-0.5,0.5-0.8,0.8c-0.3,0.3-0.5,0.3-0.8,0c-0.2-0.1-0.4-0.3-0.5-0.4c-12-8.9-24-17.8-36-26.7
		c-0.2-0.2-0.5-0.4-0.7-0.6c-0.1-0.1-0.1-0.3,0-0.5c0.2-0.2,0.3-0.4,0.5-0.6c3.8-4.2,7.6-8.3,11.4-12.5c12.7-14,25.5-27.9,38.2-41.9
		c5.1-5.6,10.3-11.2,15.4-16.9c0.4-0.4,0.8-0.9,1.2-1.3c0.6-0.1,1.2-0.1,1.8-0.1c3.4-0.1,6.9-0.1,10.3,0c2.5,0.1,5.1,0.1,7.6,0.2
		c3.1,0.1,6.3,0.2,9.4,0.4c0.8,0,1.5,0.1,2.3,0.1c3.7,0.1,7.3,0.3,11,0.5c1,0,2.1,0.1,3.1,0.1c4.5,0.1,9,0.3,13.4,0.2
		c3,0,6.1-0.1,9.1-0.2c2.5,0,5-0.2,7.5-0.4c2.5-0.2,5-0.4,7.4-0.7c3-0.3,5.9-0.8,8.9-1.2c0.9-0.1,1.8-0.3,2.7-0.5
		c0.4-0.1,0.7-0.1,1-0.3c0.2-0.2,0.5-0.2,0.8-0.2c1.3-0.2,2.7-0.5,4-0.7c2.1-0.4,4.2-0.9,6.3-1.5c2.8-0.8,5.5-1.6,8.2-2.5
		c3.3-1.2,6.5-2.6,9.6-4.2c9.7-5,18.3-11.6,25.4-19.9c7.5-8.7,13-18.5,16.3-29.5c1.1-3.6,1.9-7.3,2.4-11c0.7-5,0.9-10,0.7-15.1
		c-0.6-10.4-3.1-20.2-7.6-29.6c-4.7-9.7-11.2-18.2-19.3-25.4c-10.2-9.1-22-15.4-35.2-19c-3.2-0.9-6.5-1.6-9.8-2.1
		c-1.8-0.3-3.7-0.5-5.5-0.7c-1.3-0.1-2.5-0.2-3.8-0.3c-0.4,0-0.7-0.2-0.8-0.6c-0.1-0.3-0.3-0.7-0.4-1
		c-11.3-27.6-33.2-50.3-61.1-62.7c-7.2-3.2-14.6-5.6-22.3-7.3c-2.7-0.6-5.5-1.1-8.3-1.5c-1.9-0.3-3.9-0.5-5.8-0.7
		c-1.9-0.2-3.7-0.2-5.6-0.4c-0.9-0.1-1.7-0.1-2.6-0.1c-2.3,0-4.5,0-6.8,0c-2.2,0.1-4.3,0.2-6.5,0.4c-1.2,0.1-2.4,0.2-3.6,0.4
		c-1.5,0.2-3,0.4-4.4,0.6c-2.9,0.5-5.9,1.1-8.8,1.8c-12.1,2.9-23.5,7.6-34.1,14.2c-15.5,9.6-28.1,22.1-37.8,37.4
		c-2.6,4.1-4.7,8.4-6.5,12.8c-2.2,5.3-3.9,10.7-5.4,16.2c-1.3,4.6-2.3,9.3-3.3,14c0,0.2-0.1,0.3-0.1,0.5c0,0.1-0.2,0.3-0.4,0.3
		c-0.2,0-0.5,0-0.7,0c-1.7-0.2-3.4-0.5-5.1-0.7c-1-0.1-2-0.2-3-0.3c-1.5-0.1-3-0.2-4.5-0.4c-2.3-0.2-4.7-0.3-7.1-0.4
		c-2.1-0.1-4.2-0.1-6.3,0c-1.2,0.1-2.4,0.1-3.7,0.2c-1.5,0.1-3,0.3-4.5,0.4c-1.5,0.1-3,0.4-4.4,0.6c-6,1-11.8,2.8-17.3,5.5
		c-8,3.9-15.2,8.8-21.6,14.9c-6.3,6-11.5,12.9-15.4,20.7c-2.7,5.6-4.7,11.4-5.8,17.5c-0.8,4.6-1.2,9.4-1,14.1
		c0.4,11.3,3.7,21.7,9.5,31.4c1.5,2.5,3.2,4.8,5,7c5,6.3,10.9,11.6,17.5,16.2c7.5,5.3,15.6,9.4,24.2,12.4c1,0.4,1,0.4,2.3,0.4
		c7.9-0.1,15.8-0.1,23.6-0.2c8.1-0.1,16.1-0.1,24.2-0.1c4.1,0,8.2-0.1,12.4-0.1c4.6,0,9.2-0.1,13.9-0.1c0.4,0,0.8,0,1.2,0
		c0.3,0,0.5-0.1,0.7-0.3c0.3-0.3,0.6-0.6,0.8-0.9c11.9-12.9,23.7-25.8,35.6-38.8c4-4.3,8-8.7,11.9-13c0.3-0.3,0.6-0.6,0.8-0.9
		c0.1-0.1,0.1-0.2,0.2-0.3c-0.3-0.5-0.7-0.8-1-1.1c-4.3-4.3-8.7-8.7-13-13c-0.3-0.3-0.6-0.6-0.8-0.9c-0.1-0.1-0.1-0.2-0.1-0.3
		c0,0,0.1-0.1,0.2-0.1c0.4-0.1,0.8-0.1,1.2-0.1c2.3-0.1,4.7-0.2,7.1-0.4c2.2-0.1,4.3-0.3,6.5-0.4s4.3-0.2,6.5-0.3
		c2.4-0.1,4.8-0.3,7.2-0.4c0.2,0,0.4,0,0.5,0c2.3-0.1,4.7-0.2,7.1-0.4c2.2-0.1,4.3-0.3,6.5-0.4c0.2,0,0.4,0,0.5,0
		c2.3-0.1,4.7-0.2,7.1-0.4c2.2-0.1,4.3-0.3,6.5-0.4c2.1-0.1,4.3-0.2,6.4-0.3c0.9-0.1,1.9-0.1,2.8-0.2c0.4,0,0.6,0.1,0.7,0.5
		c0.1,0.4,0.1,0.8,0.1,1.2c0.2,1.8,0.3,3.6,0.5,5.4c0.1,1.2,0.2,2.3,0.3,3.5c0.1,1.5,0.2,3,0.4,4.5s0.3,3,0.4,4.5
		c0.1,1.1,0.2,2.3,0.3,3.4c0.1,1.5,0.2,3,0.4,4.5c0.1,1.5,0.3,3.1,0.4,4.6c0.1,1.2,0.2,2.4,0.3,3.7c0.1,1.5,0.2,3,0.4,4.5
		c0.1,1.5,0.3,3,0.4,4.5c0.1,1.1,0.2,2.3,0.3,3.4c0.1,1.5,0.2,3,0.4,4.5c0.1,1.5,0.3,3.1,0.4,4.6c0,0.5,0,0.9,0,1.4
		c0,0-0.2,0.1-0.2,0.1c-0.3-0.2-0.6-0.3-0.9-0.5c-2.7-1.8-5.4-3.7-8.1-5.5c-2.6-1.8-5.2-3.6-7.9-5.4c-0.3-0.2-0.5-0.4-0.8-0.5
		c-0.3-0.2-0.5-0.2-0.8,0.1c-0.3,0.3-0.6,0.6-0.8,0.9c-3.4,3.8-6.8,7.6-10.1,11.4c-12.1,13.6-24.2,27.1-36.4,40.6
		c-4,4.4-8,8.7-12,13c-1.4,1.5-2.8,2.9-4.2,4.3c-0.5,0.5-1,1-1.7,1.4c-0.6,0-1.3,0.1-1.9,0.1c-36.9,0-73.9,0-110.8,0
		c-0.1,0-0.2,0-0.3,0c-0.9,0.1-1.7-0.1-2.5-0.3c-5.3-1.5-10.5-3.3-15.7-5.4c-9.9-4-19.3-9-28-15.1c-8.2-5.7-15.6-12.3-22.1-19.8
		c-10.6-12.1-18.2-25.9-22.7-41.4c-1.1-3.7-2-7.5-2.6-11.4c-0.5-3-0.9-6-1.2-9c-0.2-1.8-0.3-3.6-0.4-5.4c0-0.6-0.1-1.3-0.1-1.9
		c0-0.3-0.2-0.5-0.4-0.7c0-2.2,0-4.4,0-6.5c0.2-0.2,0.4-0.4,0.4-0.7c0-0.4,0.1-0.7,0.1-1.1c0.1-2.7,0.4-5.4,0.8-8.1
		c0.6-4.2,1.5-8.3,2.7-12.3c2.3-8,5.5-15.5,9.5-22.8c5.5-9.8,12.2-18.7,20.1-26.7c12.2-12.4,26.3-22.1,42.2-29.2
		c10.3-4.6,21-7.9,32.1-9.8c0.3-0.1,0.7-0.2,1.1-0.3c0.2-0.4,0.4-0.7,0.5-1.1c7.2-15.8,16.7-29.9,28.5-42.6c13-14,28-25.5,44.9-34.5
		c19.8-10.5,40.9-17.1,63.2-19.6c1-0.1,2-0.2,3-0.3c1.5-0.1,3.1-0.3,4.6-0.4c2.2-0.1,4.4-0.2,6.6-0.4c0.4,0,0.8,0,1.2-0.2
		c3.9,0,7.8,0,11.7,0c0.3,0.2,0.6,0.2,0.9,0.2c2,0.1,4.1,0.2,6.1,0.3c1.5,0.1,3.1,0.2,4.6,0.4c2,0.2,4,0.5,5.9,0.7
		c3.2,0.4,6.4,0.9,9.5,1.5c5,0.9,10,2.1,15,3.4c17.1,4.7,33.1,11.7,48,21.3c20.4,13,37.3,29.6,50.5,49.8c0.7,1.1,0.4,0.9,1.9,1.4
		c7.4,2.2,14.7,5,21.6,8.4c16.8,8.2,31.3,19.4,43.4,33.6c12.5,14.8,21.2,31.5,25.9,50.3c0.9,3.5,1.6,7,2.1,10.5
		c0.2,1.5,0.4,3,0.6,4.6c0.2,1.7,0.4,3.4,0.4,5.1c0,0.6,0,1.3,0,1.9c0,0.5,0,1.1,0.1,1.6c0,0.3,0.1,0.7,0.2,1.1
		C561,402.5,561,405.2,561,407.9z"/>
</g>
</svg>
