<?xml version="1.0" encoding="utf-8"?>
<!-- Generator: Adobe Illustrator 18.0.0, SVG Export Plug-In . SVG Version: 6.00 Build 0)  -->
<!DOCTYPE svg PUBLIC "-//W3C//DTD SVG 1.1//EN" "http://www.w3.org/Graphics/SVG/1.1/DTD/svg11.dtd">
<svg version="1.1" id="Layer_1" xmlns="http://www.w3.org/2000/svg" xmlns:xlink="http://www.w3.org/1999/xlink" x="0px" y="0px"
	 viewBox="0 0 612 792" enable-background="new 0 0 612 792" xml:space="preserve">
<g>
	<polygon fill="#498ECC" points="275,367.505 296,355.381 317,367.505 317,391.754 296,403.878 275,391.754 	"/>
	<g>
		<defs>
			<polygon id="SVGID_1_" points="275,367.505 296,355.381 317,367.505 317,391.754 296,403.878 275,391.754 			"/>
		</defs>
		<clipPath id="SVGID_2_">
			<use xlink:href="#SVGID_1_"  overflow="visible"/>
		</clipPath>
		<polyline clip-path="url(#SVGID_2_)" fill="#416F91" points="281.842,387.442 279.549,380.668 280.587,378.17 287.109,373.627 
			292.56,368.76 299.861,367.92 302.195,367.662 321.096,378.438 321.234,410.403 		"/>
	</g>
	<path fill="#FFFFFF" d="M313.503,380.447c-0.004,0.024-0.009,0.048-0.012,0.073c-0.003,0.031-0.003,0.062-0.004,0.093
		c-0.001,0.044-0.003,0.087-0.003,0.131c-0.001,0.125-0.015,0.248-0.03,0.372c-0.013,0.105-0.027,0.21-0.042,0.314
		c-0.035,0.24-0.083,0.478-0.142,0.713c-0.325,1.307-0.932,2.467-1.805,3.489c-0.752,0.881-1.646,1.585-2.667,2.131
		c-0.737,0.394-1.514,0.676-2.326,0.865c-0.224,0.052-0.45,0.095-0.677,0.131c-0.166,0.026-0.332,0.047-0.499,0.066
		c-0.102,0.012-0.204,0.017-0.307,0.025c-0.143,0.012-0.286,0.016-0.428,0.021c-0.115,0.004-0.23,0.015-0.344,0.023
		c-0.028,0.002-0.056,0.005-0.084,0.006c-0.205,0.008-0.41,0.016-0.615,0.024c-0.522,0.02-1.045,0.019-1.567,0.015
		c-0.246-0.002-0.491-0.008-0.737-0.012c-0.134-0.002-0.267-0.003-0.401-0.006c-0.193-0.005-0.385-0.011-0.578-0.016
		c-0.04-0.001-0.081-0.005-0.13,0.004c-0.02,0.022-0.045,0.05-0.071,0.077c-0.965,1.001-1.929,2.003-2.894,3.004
		c-0.235,0.244-0.471,0.488-0.706,0.732c-0.017,0.018-0.035,0.036-0.052,0.053c-0.02,0.019-0.032,0.02-0.057,0.002
		c-0.013-0.009-0.025-0.019-0.037-0.028c-0.824-0.611-1.649-1.222-2.473-1.834c-0.017-0.013-0.034-0.027-0.051-0.04
		c-0.01-0.008-0.01-0.023-0.001-0.033c0.012-0.014,0.024-0.028,0.037-0.042c0.26-0.285,0.52-0.57,0.78-0.855
		c0.874-0.959,1.748-1.917,2.622-2.876c0.352-0.386,0.704-0.772,1.056-1.158c0.027-0.03,0.052-0.062,0.085-0.087
		c0.04-0.009,0.08-0.007,0.121-0.008c0.236-0.008,0.473-0.007,0.709-0.001c0.174,0.005,0.348,0.006,0.522,0.012
		c0.214,0.007,0.429,0.017,0.643,0.026c0.053,0.002,0.106,0.004,0.158,0.006c0.252,0.01,0.503,0.021,0.755,0.031
		c0.071,0.003,0.143,0.006,0.214,0.007c0.308,0.005,0.615,0.021,0.923,0.017c0.208-0.003,0.417-0.01,0.625-0.013
		c0.171-0.002,0.342-0.014,0.512-0.026c0.171-0.012,0.341-0.027,0.511-0.046c0.204-0.023,0.407-0.052,0.61-0.083
		c0.061-0.009,0.122-0.023,0.184-0.033c0.025-0.004,0.049-0.009,0.07-0.024c0.016-0.011,0.035-0.013,0.053-0.016
		c0.092-0.015,0.184-0.031,0.276-0.047c0.147-0.026,0.291-0.065,0.435-0.105c0.189-0.052,0.376-0.109,0.561-0.174
		c0.226-0.079,0.444-0.178,0.657-0.288c0.668-0.345,1.253-0.797,1.746-1.365c0.517-0.596,0.893-1.27,1.118-2.026
		c0.074-0.248,0.127-0.5,0.165-0.756c0.05-0.343,0.065-0.688,0.046-1.033c-0.039-0.711-0.213-1.387-0.524-2.028
		c-0.324-0.669-0.768-1.249-1.324-1.742c-0.703-0.624-1.511-1.054-2.417-1.302c-0.222-0.061-0.447-0.108-0.674-0.143
		c-0.126-0.019-0.252-0.035-0.379-0.046c-0.087-0.007-0.173-0.015-0.26-0.018c-0.029-0.001-0.046-0.014-0.055-0.041
		c-0.008-0.023-0.019-0.046-0.029-0.069c-0.778-1.891-2.276-3.453-4.196-4.302c-0.493-0.218-1.003-0.385-1.531-0.499
		c-0.188-0.041-0.378-0.075-0.569-0.103c-0.132-0.019-0.265-0.034-0.398-0.047c-0.127-0.012-0.254-0.017-0.381-0.027
		c-0.059-0.005-0.118-0.006-0.177-0.006c-0.155,0-0.311-0.002-0.466,0.002c-0.149,0.004-0.298,0.013-0.447,0.028
		c-0.083,0.009-0.167,0.015-0.25,0.025c-0.102,0.012-0.204,0.025-0.305,0.042c-0.202,0.034-0.403,0.073-0.603,0.121
		c-0.832,0.199-1.613,0.523-2.34,0.973c-1.063,0.657-1.927,1.515-2.597,2.57c-0.177,0.279-0.322,0.575-0.447,0.881
		c-0.149,0.363-0.269,0.736-0.373,1.114c-0.087,0.318-0.161,0.639-0.225,0.962c-0.002,0.012-0.005,0.024-0.008,0.036
		c-0.003,0.01-0.017,0.022-0.027,0.022c-0.016-0.001-0.031-0.001-0.047-0.003c-0.117-0.015-0.234-0.031-0.351-0.046
		c-0.068-0.009-0.136-0.017-0.204-0.023c-0.102-0.009-0.205-0.015-0.307-0.026c-0.161-0.016-0.323-0.018-0.484-0.026
		c-0.143-0.007-0.286-0.007-0.429,0c-0.084,0.004-0.168,0.006-0.252,0.012c-0.102,0.008-0.204,0.018-0.306,0.028
		c-0.102,0.01-0.203,0.026-0.305,0.043c-0.413,0.071-0.81,0.191-1.187,0.375c-0.546,0.267-1.043,0.604-1.483,1.024
		c-0.434,0.414-0.79,0.886-1.056,1.424c-0.188,0.382-0.321,0.782-0.398,1.2c-0.058,0.319-0.079,0.642-0.066,0.966
		c0.03,0.775,0.254,1.492,0.65,2.156c0.1,0.169,0.218,0.326,0.341,0.479c0.345,0.43,0.748,0.798,1.198,1.115
		c0.514,0.362,1.07,0.643,1.663,0.852c0.072,0.025,0.072,0.026,0.155,0.025c0.541-0.004,1.082-0.009,1.623-0.012
		c0.554-0.004,1.107-0.006,1.661-0.01c0.283-0.002,0.566-0.006,0.849-0.008c0.317-0.003,0.634-0.005,0.952-0.007
		c0.028,0,0.056-0.001,0.084-0.001c0.02,0,0.036-0.008,0.049-0.023c0.019-0.021,0.038-0.041,0.057-0.062
		c0.814-0.887,1.628-1.774,2.442-2.661c0.273-0.298,0.547-0.596,0.82-0.894c0.019-0.021,0.038-0.041,0.056-0.063
		c0.006-0.007,0.008-0.016,0.012-0.024c-0.019-0.031-0.046-0.052-0.07-0.076c-0.297-0.297-0.593-0.594-0.89-0.891
		c-0.02-0.02-0.04-0.039-0.058-0.06c-0.005-0.006-0.007-0.016-0.007-0.024c0-0.003,0.01-0.008,0.015-0.008
		c0.028-0.004,0.055-0.007,0.083-0.009c0.161-0.009,0.323-0.017,0.484-0.026c0.149-0.009,0.298-0.02,0.447-0.029
		c0.149-0.009,0.298-0.016,0.447-0.024c0.164-0.01,0.329-0.02,0.493-0.03c0.012-0.001,0.025-0.002,0.037-0.002
		c0.161-0.009,0.323-0.016,0.484-0.026c0.149-0.009,0.298-0.019,0.447-0.028c0.012-0.001,0.025-0.002,0.037-0.002
		c0.161-0.009,0.323-0.016,0.484-0.026c0.149-0.009,0.298-0.02,0.447-0.029c0.146-0.009,0.292-0.016,0.438-0.024
		c0.065-0.004,0.13-0.008,0.195-0.012c0.029-0.002,0.043,0.008,0.046,0.034c0.004,0.028,0.006,0.056,0.009,0.083
		c0.011,0.124,0.022,0.248,0.033,0.372c0.007,0.081,0.014,0.161,0.021,0.242c0.009,0.102,0.016,0.205,0.025,0.307
		s0.019,0.204,0.028,0.307c0.007,0.077,0.014,0.155,0.02,0.232c0.009,0.102,0.016,0.205,0.025,0.307
		c0.009,0.105,0.019,0.211,0.028,0.316c0.008,0.084,0.015,0.167,0.022,0.251c0.009,0.102,0.016,0.205,0.025,0.307
		s0.019,0.204,0.028,0.307c0.007,0.077,0.014,0.155,0.021,0.232c0.009,0.102,0.017,0.205,0.025,0.307
		c0.009,0.105,0.019,0.211,0.028,0.316c0.003,0.031,0.003,0.062,0.003,0.093c0,0.003-0.011,0.009-0.014,0.007
		c-0.022-0.012-0.044-0.024-0.064-0.037c-0.185-0.126-0.369-0.253-0.554-0.38c-0.18-0.123-0.359-0.246-0.539-0.369
		c-0.018-0.012-0.036-0.025-0.054-0.037c-0.024-0.016-0.034-0.014-0.056,0.009c-0.019,0.02-0.038,0.041-0.057,0.062
		c-0.232,0.26-0.464,0.52-0.696,0.78c-0.83,0.931-1.66,1.862-2.501,2.784c-0.273,0.299-0.548,0.594-0.824,0.89
		c-0.093,0.1-0.191,0.196-0.288,0.293c-0.035,0.035-0.069,0.071-0.114,0.095c-0.043,0.002-0.087,0.004-0.13,0.004
		c-2.535,0-5.069,0-7.604,0c-0.006,0-0.012,0-0.019,0c-0.06,0.005-0.117-0.007-0.174-0.023c-0.365-0.104-0.724-0.225-1.076-0.368
		c-0.679-0.276-1.323-0.618-1.924-1.039c-0.561-0.392-1.07-0.842-1.52-1.359c-0.726-0.833-1.248-1.778-1.556-2.841
		c-0.074-0.257-0.134-0.517-0.181-0.781c-0.037-0.205-0.064-0.412-0.085-0.619c-0.012-0.124-0.018-0.248-0.026-0.372
		c-0.003-0.043-0.004-0.087-0.007-0.13c-0.001-0.02-0.012-0.035-0.028-0.047c0-0.149,0-0.299,0-0.448
		c0.017-0.011,0.026-0.027,0.028-0.046c0.003-0.025,0.004-0.05,0.005-0.074c0.008-0.187,0.029-0.372,0.056-0.557
		c0.041-0.287,0.103-0.569,0.182-0.847c0.156-0.547,0.377-1.066,0.653-1.562c0.376-0.675,0.84-1.285,1.382-1.835
		c0.838-0.852,1.806-1.518,2.896-2.006c0.707-0.316,1.441-0.542,2.204-0.675c0.024-0.004,0.048-0.012,0.073-0.019
		c0.013-0.026,0.026-0.051,0.037-0.076c0.494-1.081,1.149-2.055,1.957-2.926c0.894-0.964,1.924-1.753,3.084-2.37
		c1.359-0.724,2.805-1.171,4.335-1.348c0.068-0.008,0.136-0.016,0.204-0.022c0.105-0.01,0.21-0.021,0.316-0.028
		c0.152-0.01,0.304-0.017,0.456-0.025c0.028-0.002,0.056-0.001,0.082-0.014c0.267,0,0.535,0,0.802,0
		c0.02,0.011,0.042,0.012,0.063,0.013c0.14,0.008,0.279,0.014,0.419,0.023c0.105,0.007,0.211,0.014,0.316,0.025
		c0.136,0.014,0.272,0.032,0.407,0.048c0.219,0.025,0.437,0.061,0.654,0.101c0.345,0.064,0.687,0.142,1.026,0.235
		c1.172,0.321,2.271,0.805,3.295,1.459c1.398,0.893,2.56,2.028,3.468,3.419c0.05,0.077,0.029,0.064,0.129,0.094
		c0.511,0.151,1.006,0.341,1.484,0.576c1.152,0.565,2.15,1.329,2.98,2.309c0.858,1.013,1.455,2.162,1.776,3.453
		c0.059,0.238,0.108,0.479,0.143,0.722c0.015,0.105,0.03,0.209,0.042,0.314c0.014,0.117,0.028,0.235,0.029,0.353
		c0,0.044,0.002,0.087,0.003,0.131c0.001,0.037,0.001,0.075,0.004,0.112c0.002,0.024,0.007,0.049,0.011,0.073
		C313.503,380.074,313.503,380.261,313.503,380.447z"/>
</g>
</svg>
