<?xml version="1.0" encoding="utf-8"?>
<!-- Generator: Adobe Illustrator 18.0.0, SVG Export Plug-In . SVG Version: 6.00 Build 0)  -->
<!DOCTYPE svg PUBLIC "-//W3C//DTD SVG 1.1//EN" "http://www.w3.org/Graphics/SVG/1.1/DTD/svg11.dtd">
<svg version="1.1" id="Layer_1" xmlns="http://www.w3.org/2000/svg" xmlns:xlink="http://www.w3.org/1999/xlink" x="0px" y="0px"
	 viewBox="427 -156 512 512" enable-background="new 427 -156 512 512" xml:space="preserve">
<g id="django">
	<path d="M487.8,10c8.9,0,18.3,0,27.2,0c0,43.3,0,87.1,0,130.3c-26.2,4-51.2,6.9-69-3c-23-13.1-25-54.4-6.7-72.7
		c9.4-9.4,27.9-15.8,48-11.6c0-13.6,0-27.5,0-41.1C487.3,11,487.3,10,487.8,10z M455.1,98c0,17.1,12.4,27.2,31.9,22.5
		c0-15.1,0-30.2,0-45.3C467,69.3,455.1,81.7,455.1,98z M559.3,10c0,9.6,0,19,0,28.7c-8.9,0-18.3,0-27.2,0c0-9.6,0-19,0-28.7
		C541.2,10,550.1,10,559.3,10z M887.7,51.5c22.8-2.5,39.6,7.7,46.7,23.2c11.6,26.5-0.7,57.1-19.5,66.3c-9.6,4.5-19.8,5.2-29.2,4.2
		c-28.4-2.5-46.5-31.7-36.4-64.3c1.5-5.2,3.2-8.2,4.2-9.6C860,60.7,870.4,53.5,887.7,51.5z M886.5,122c29.7,11.6,32.9-53.7,3-47.7
		C870.7,77.7,871.4,115.8,886.5,122z M644.9,141.6c-22.5,1.2-56.6,9.2-69-6.2c-7.4-9.2-6.4-26,0-34.4c8.4-10.6,26.5-13.4,42.8-14.6
		c1.5-3.5,0.7-9.6-1.2-12.4c-15.1-4-30.2,2.2-40.6,6.7c0-7.2,0-14.3,0-21.3c16.1-7.4,53.2-15.1,64.3,2c5.7,9.2,3.5,24.7,3.5,38.6
		C644.9,114.4,644.9,128.2,644.9,141.6z M596.9,111.4c-7.7,12.9,11.6,15.8,23.7,12.4c0-6.4,0-12.6,0-19
		C611,106.2,600.6,105.7,596.9,111.4z M740.6,142.8c-8.9,0-18.3,0-27.2,0c0-9.2,0-22.3,0-35.6c0-11.6,2-26.5-4.2-31.4
		c-4.7-3.5-16.1-2-23,0c0,22.3,0,44.5,0,66.5c-8.9,0-18.3,0-27.2,0c0-28.4,0-56.6,0-85.1c27.9-7.4,78.2-15.1,81.9,20.3
		C742.3,95.3,739.3,121.5,740.6,142.8z M849.6,55.2c-2.5,7.4-6.2,13.6-8.9,20.3c-3,0.7-5.2-1-6.7,0c-0.7,29.7,6.4,70.2-5.4,91.8
		c-6.9,12.9-20,21.3-40.1,22.5c-14.3,1-25.5-1.2-36.4-5.4c0-8.7,0-17.1,0-26c12.4,7.4,43.8,13.4,52.7-2c2.5-4.5,2.5-9.2,3.5-15.8
		c-5.7,0.2-11.1,3-18.3,3c-28.4,0.2-46.5-22.5-39.3-54.7c2.5-12.4,9.9-22.3,19.5-28.2C790.3,49.1,820.5,50,849.6,55.2z M781.1,113.4
		c4.5,7.4,17.1,10.4,27.2,5.4c-0.7-14.3-0.7-29.2-0.7-44C784.1,68.3,770,95.6,781.1,113.4z M559.3,53.3c0,20.3,0,34.9,0,59.6
		c-1.2,24.2-1,43.5-9.6,54.9c-1.5,2.2-5.4,5.4-8.7,8.2c-2.5,2-7.4,5.9-10.1,6.2c-3,0.2-9.9-4-13.4-5.4c-4.2-2-8.4-4.9-12.9-6.2
		c10.1-6.4,20-11.4,24.2-24.5c3.5-11.4,3-27.7,3-44c0-15.8,0-34.4,0-48.5L559.3,53.3L559.3,53.3z"/>
</g>
<g id="Layer_1_1_">
</g>
</svg>
