<?xml version="1.0" encoding="utf-8"?>
<!-- Generator: Adobe Illustrator 18.0.0, SVG Export Plug-In . SVG Version: 6.00 Build 0)  -->
<!DOCTYPE svg PUBLIC "-//W3C//DTD SVG 1.1//EN" "http://www.w3.org/Graphics/SVG/1.1/DTD/svg11.dtd">
<svg version="1.1" id="Layer_1" xmlns="http://www.w3.org/2000/svg" xmlns:xlink="http://www.w3.org/1999/xlink" x="0px" y="0px"
	 viewBox="-192.1 -184 512 512" enable-background="new -192.1 -184 512 512" xml:space="preserve">
<g>
	<path fill="#28A8E0" d="M50.2,133.2c-44.8,0-81.1,36.3-81.1,80.7c0,44.8,36.3,80.7,81.1,80.7s81.1-36.3,81.1-80.7
		C131.3,169.1,95,133.2,50.2,133.2z"/>
	<path fill="#28A8E0" d="M151.2,117.5c23.8,24.9,38.8,59,38.8,96.4c0,47.3-23.8,88.9-59.7,114.1c66.8-20.6,122-70.8,146.8-131.2
		c34.1-83.9,2.5-147.2-51.2-204.4c1.8,7.5,2.5,14.9,2.5,23.1C228.4,63.8,195.7,104.7,151.2,117.5z"/>
	<ellipse fill="#28A8E0" cx="121.7" cy="15.5" rx="61.9" ry="61.9"/>
	<path fill="#28A8E0" d="M-56.4,303.5c-20.6-24.2-32.7-55.5-32.7-89.6c0-71.1,53.7-129.8,122.7-138c-11.7-17.1-18.8-38-18.8-60.4
		c0-58.7,47.6-106.3,106.7-106.3c5,0,9.6,0.4,14.2,1.1c-34.5-30.6-69.3-60.8-97.1-94.2C52.7-38.2-94.5-91.2-148.9,43.6
		C-185.5,133.5-152.4,245.2-56.4,303.5z"/>
</g>
</svg>
