<?xml version="1.0" encoding="utf-8"?>
<!-- Generator: Adobe Illustrator 18.0.0, SVG Export Plug-In . SVG Version: 6.00 Build 0)  -->
<!DOCTYPE svg PUBLIC "-//W3C//DTD SVG 1.1//EN" "http://www.w3.org/Graphics/SVG/1.1/DTD/svg11.dtd">
<svg version="1.1" id="Layer_1" xmlns="http://www.w3.org/2000/svg" xmlns:xlink="http://www.w3.org/1999/xlink" x="0px" y="0px"
	 viewBox="427 -156 512 512" enable-background="new 427 -156 512 512" xml:space="preserve">
<g id="jenkins">
	<g>
		<g>
			<path fill="#D33833" d="M862.7,90.7c0,101.5-80.4,183.7-179.7,183.7S503.4,192.1,503.4,90.7S583.7-93,683-93
				S862.7-10.8,862.7,90.7"/>
			<path fill="#EF3D3A" d="M510.7,136.2c0,0-13-191.5,163.6-197.1l-12.4-20.5l-95.8,32.1l-27.4,31.5l-24,45.9l-13.6,53.3l4.1,35.6"
				/>
			<path fill="#231F20" d="M560-34.7c-31.5,32.3-51,76.8-51,126s19.5,93.8,51,126c31.5,32.2,75,52.2,123,52.2
				c48,0,91.6-19.9,123-52.2c31.5-32.2,51-76.7,51-126c0-49.2-19.5-93.8-51-126C774.5-66.9,731-86.8,683-86.8
				C634.9-86.7,591.5-66.9,560-34.7L560-34.7z M552,225.1c-33.4-34.2-54.2-81.6-54.2-133.8c0-52.3,20.7-99.5,54.2-133.8
				C585.5-76.7,631.8-98,683-98c51.2,0,97.6,21.2,131,55.5c33.5,34.2,54.2,81.6,54.2,133.9c0,52.2-20.7,99.5-54.2,133.8
				s-79.9,55.5-131,55.5C631.9,280.7,585.5,259.4,552,225.1"/>
			<path fill="#F0D6B7" d="M758.7,91.7l-27.4,4.1l-37,4.1l-24,0.6l-23.2-0.6l-17.8-5.4l-15.8-17.1l-12.3-34.9l-2.7-7.6l-16.4-5.4
				l-9.6-15.7l-6.9-22.6l7.5-19.8l17.8-6.2l14.4,6.8l6.8,15l8.2-1.3l2.7-3.4l-2.7-15.7l-0.7-19.8l4.2-27.4l-0.2-15.7l12.5-19.9
				L658-132l38.4-16.4l42.4,6.1l36.9,26.7l17.1,27.4l10.9,19.8l2.7,49.3l-8.2,42.4l-15,37.6l-14.4,19.8"/>
			<path fill="#335061" d="M735.3,210l-97.8,4.1v16.4l8.2,57.5l-4.1,4.8l-68.5-23.3l-4.8-8.2l-6.9-77.3l-15.7-46.5l-3.4-10.9
				l54.8-37.6l17.1-6.9l15,18.5l13,11.6l15,4.8l6.9,2l8.2,35.5l6.2,7.6l15.7-5.4l-10.9,21.2l59.6,28.1L735.3,210"/>
			<path fill="#6D6B6D" d="M573.2-28.7l17.8-6.2l14.4,6.8l6.8,15l8.2-1.3l2-8.2l-4.1-15.7l4.1-37.6L619-96.4l12.3-14.4l26.7-21.2
				l-7.5-10.2l-37.6,18.5l-15.8,12.3l-8.9,19.1l-13.7,18.5L570.4-52L573.2-28.7"/>
			<path fill="#DCD9D8" d="M601.2-93c0,0,10.3-25.3,51.4-37.6c41.1-12.3,2.1-8.9,2.1-8.9l-44.5,17.1L593-105.4l-7.5,13.7L601.2-93"
				/>
			<path fill="#DCD9D8" d="M580.7-33.5c0,0-14.4-47.9,40.3-54.7l-2-8.2l-37.7,8.9L570.5-52l2.7,23.3L580.7-33.5"/>
			<path fill="#F7E4CD" d="M602.6,30.1l9-8.6c0,0,4,0.4,4.7,5.2c0.7,4.8,2.8,47.9,32.2,71.2c2.7,2.1-21.9-3.4-21.9-3.4l-21.9-34.2"
				/>
			<path fill="#F7E4CD" d="M728.6,17.1c0,0,1.6-20.7,7.2-19.1c5.6,1.6,5.6,7.2,5.6,7.2S727.8,13.9,728.6,17.1"/>
			<path fill="#F7E4CD" d="M785.4-58.8c0,0-11.3,2.3-12.3,12.3c-1,9.9,12.3,2,14.4,1.4"/>
			<path fill="#F7E4CD" d="M702.5-58.2c0,0-15,2-15,11.6s17.1,8.9,21.9,4.8"/>
			<path fill="#F7E4CD" d="M609.5-13.7c0,0-26-15.7-28.8-0.6c-2.7,15-8.9,25.9,4.1,41.7l-8.9-2.7l-8.2-21.2L565-17l15.7-16.5
				l17.8,1.4l10.2,8.2L609.5-13.7"/>
			<path fill="#F7E4CD" d="M621.8-56.8c0,0,11.6-60.2,70.5-71.8c48.5-9.6,74,2,83.5,13c0,0-43.1-51.3-84.2-35.5
				s-71.2,44.4-70.4,62.9C622.3-56.9,621.7-56.9,621.8-56.8"/>
			<path fill="#F7E4CD" d="M780.6-108.8c0,0-19.9-0.6-20.5,17.1c0,0,0,2.8,1.3,5.4c0,0,15.8-17.8,25.3-8.2"/>
			<path fill="#F7E4CD" d="M693.6-84.3c0,0-3.4-27.3-26.7-11.4c-15,10.2-13.7,24.6-10.9,27.4c2.8,2.8,2,8.3,4.1,4.5
				c2.1-3.8,1.4-16.1,9-19.5C676.6-86.9,688.9-90.7,693.6-84.3"/>
			<path fill="#49728B" d="M629.3,100.6L565,129.3c0,0,26.7,106.1,13,138.9l-9.6-3.4l-0.6-40.3l-17.8-76.7l-7.6-21.2l67.1-45.1
				L629.3,100.6"/>
			<path fill="#49728B" d="M635.9,159.2l9.2,11.1v41.1h-11c0,0-1.4-28.7-1.4-32.2c0-3.4,1.4-15.7,1.4-15.7"/>
			<path fill="#49728B" d="M636.1,217.6l-30.7,1.4l8.9,6.1l21.9,3.4"/>
			<path fill="#335061" d="M741.5,210.7l25.4-0.6l6.1,63l-26,3.4L741.5,210.7"/>
			<path fill="#335061" d="M748.4,210.7l38.3-2c0,0,15.8-39.7,15.8-41.7c0-2,13.7-57.5,13.7-57.5l-30.8-32.2l-6.1-5.4l-16.4,16.4
				v63.6L748.4,210.7"/>
			<path fill="#49728B" d="M765.5,205.9l-24,4.8l3.4,19.2c9,4.1,24-6.9,24-6.9"/>
			<path fill="#49728B" d="M766.2,86.2l47.9,35.6l1.3-16.4l-36.2-33.6L766.2,86.2"/>
			<path fill="#FFFFFF" d="M659.9,345.5L645.7,288l-7-42.4l-1.2-31.5l64.1-3.4h39.9l-3.7,71.8l6.2,55.4l-0.7,10.2l-52,4.2
				L659.9,345.5"/>
			<path fill="#DCD9D8" d="M732.7,210c0,0-3.4,71.1,6.9,121.8c0,0-20.5,13-50.7,16.4l57.5-2l6.9-4.1L745,229.9l-2-23.9"/>
			<path fill="#FFFFFF" d="M774.2,267.5l26.7-7.5l50.7-2.7L859,234l-13.7-40.3l-15.7-2.1l-21.9,6.9l-21,10.2l-11.1-2l-8.6,3.4"/>
			<path fill="#DCD9D8" d="M773.7,253.8c0,0,17.8-8.2,20.5-7.5l-7.5-37.6l8.9-3.4c0,0,6.2,35.6,6.2,39.7c0,0,38.3,2,41.8,2
				c0,0,8.2-15.7,6.1-32.2l7.5,21.9l0.6,12.3L847,265.4l-12.4,2.8l-20.5-0.6l-6.9-9l-24,3.5l-7.5,2.8"/>
			<path fill="#FFFFFF" d="M746.8,205.2l-15-38.3L716,144.4c0,0,3.4-9.6,8.2-9.6c4.8,0,15.8,0,15.8,0l15,5.4l-1.4,25.3L746.8,205.2"
				/>
			<path fill="#DCD9D8" d="M749.8,192.2c0,0-19.2-36.9-19.2-42.4c0,0,3.5-8.2,8.3-6.2c4.8,2,15,7.5,15,7.5v-13l-23.3-4.8l-15.7,2
				l26.7,63l5.4,0.7"/>
			<path fill="#FFFFFF" d="M666.1,101.9l-19-2l-17.8-5.4v6.1l8.6,9.6l27.4,12.4"/>
			<path fill="#DCD9D8" d="M635.5,104c0,0,21.2,8.9,28.1,6.9l0.6,8.2l-19.1-4.1l-11.6-8.2L635.5,104"/>
			<path fill="#D33833" d="M774.1,137.1c-11.6-0.3-22.1-1.7-31.2-4.3c0.6-3.8-0.5-7.5,0.4-10.2c2.6-1.9,6.9-1.8,10.7-2.2
				c-3.3-1.6-8-2.3-11.8-1.3c-0.1-2.6-1.3-4.2-2-6.3c6.5-2.3,22-17.6,30.6-12.5c4.2,2.4,5.9,16.2,6.2,22.8
				C777.2,128.6,776.4,134.2,774.1,137.1"/>
			<path fill="#D33833" d="M774.1,137.1l0.1-1.6c-11.5-0.3-21.9-1.7-30.9-4.3l-0.4,1.6l1.6,0.3c0.2-1,0.3-1.9,0.3-2.9
				c0-1.8-0.2-3.4-0.2-4.7c0-1,0.1-1.7,0.3-2.2l-1.6-0.6l1,1.3c1-0.6,2.4-1.1,4.2-1.3c1.8-0.3,3.8-0.4,5.8-0.6l5.6-0.6l-5.1-2.4
				c-2.6-1.3-5.7-1.9-8.8-1.9c-1.4,0-2.9,0.1-4.2,0.4l0.4,1.6l1.6-0.1c0-1.5-0.4-2.8-0.8-3.9c-0.4-1.1-0.9-2-1.2-2.9l-1.5,0.6
				l0.5,1.5c1.7-0.6,3.5-1.8,5.6-3.1c3.1-2.1,6.8-4.7,10.4-6.8c3.6-2.1,7.2-3.5,10-3.5c1.2,0,2.2,0.2,3.2,0.8c0.2,0.1,0.5,0.4,0.9,1
				c0.6,0.8,1.3,2.2,1.8,3.8c1.6,5,2.5,12.4,2.7,16.6c0,0.7,0.1,1.4,0.1,2c0,2.3-0.2,4.6-0.6,6.5c-0.4,1.9-1.1,3.5-1.9,4.5
				L774.1,137.1l0-1.6L774.1,137.1l1.3,1c1.2-1.6,1.9-3.6,2.5-5.8c0.4-2.2,0.6-4.7,0.6-7.2c0-0.7,0-1.4,0-2.1
				c-0.2-3.5-0.7-8.6-1.7-13.3c-0.5-2.4-1.2-4.6-1.9-6.5c-0.4-1-0.9-1.8-1.4-2.6c-0.5-0.7-1.1-1.4-1.9-1.8c-1.5-0.9-3.2-1.3-4.8-1.3
				c-2.6,0-5.2,0.9-7.8,2c-3.8,1.8-7.7,4.4-11.2,6.7c-1.7,1.1-3.3,2.2-4.7,3.1c-1.4,0.9-2.7,1.5-3.5,1.8l-1.5,0.5l0.5,1.5
				c0.4,1.2,0.9,2.1,1.3,3c0.3,1,0.6,1.8,0.6,2.9v2l2-0.5c1.1-0.3,2.2-0.4,3.5-0.4c2.6,0,5.3,0.6,7.4,1.6l0.7-1.4l-0.2-1.6
				c-1.9,0.2-3.9,0.3-5.9,0.6c-2,0.3-3.9,0.8-5.6,1.9l-0.4,0.3l-0.2,0.5c-0.4,1.1-0.5,2.2-0.5,3.4c0,1.6,0.2,3.2,0.2,4.7
				c0,0.8,0,1.6-0.2,2.3L741,134l1.4,0.4c9.3,2.7,20,4,31.7,4.4h0.8l0.5-0.6L774.1,137.1L774.1,137.1z"/>
			<path fill="#D33833" d="M718.6,118.2c0,0.8-0.1,1.7-0.1,2.6c-3.6,2.4-9.5,2.4-13.4,4.4c5.9,0.3,10.5,1.7,14.5,3.6
				c-0.1,2.2-0.2,4.4-0.3,6.6c-6.7,4.5-12.7,11.3-20.6,15.6c-3.7,2-16.6,7.2-20.6,6.3c-2.2-0.5-2.4-3.3-3.3-5.9
				c-1.9-5.6-6.3-14.5-6.7-22.9c-0.5-10.6-1.6-28.4,9.9-26.2c9.2,1.8,19.9,6,27.1,9.9C709.5,114.6,712,117.6,718.6,118.2"/>
			<path fill="#D33833" d="M718.6,118.2l-1.6-0.1c-0.1,0.9-0.1,1.8-0.1,2.7l1.6,0.1l-0.9-1.4c-1.5,1-3.7,1.5-6.1,2
				c-2.4,0.5-4.9,1-7.2,2.2l-5.6,2.8l6.3,0.3c5.7,0.2,10,1.6,13.9,3.5l0.7-1.5l-1.6-0.1c-0.1,2.2-0.2,4.4-0.3,6.6l1.7,0.1l-1-1.4
				c-3.4,2.4-6.6,5.2-9.9,8c-3.3,2.8-6.7,5.4-10.4,7.5c-1.5,0.9-5.2,2.5-9,3.8c-1.9,0.6-3.8,1.3-5.5,1.7c-1.7,0.4-3.3,0.7-4.2,0.7
				c-0.3,0-0.6,0-0.7-0.1c-0.2-0.1-0.3-0.1-0.5-0.3c-0.3-0.2-0.5-0.8-0.8-1.6c-0.3-0.8-0.5-1.8-0.9-2.9c-1-2.9-2.6-6.5-3.9-10.4
				c-1.3-3.9-2.5-8.1-2.7-12c-0.1-2.6-0.3-5.5-0.3-8.5c0-4.3,0.3-8.6,1.4-11.6c0.5-1.5,1.2-2.7,2-3.4c0.8-0.8,1.8-1.2,3.2-1.2
				c0.4,0,1,0.1,1.5,0.2c9,1.7,19.7,5.9,26.6,9.7c2,1.1,3.7,2.4,5.9,3.6c2.1,1.2,4.7,2.1,8.3,2.4v-1.6l-1.6-0.1l1.6,0.1l0.2-1.7
				c-3.1-0.2-5.1-1-6.9-2c-1.9-1-3.6-2.4-5.9-3.6c-7.4-4-18.1-8.3-27.6-10.1c-0.7-0.1-1.4-0.2-2.1-0.2c-2.1,0-3.9,0.7-5.3,1.9
				c-2.1,1.9-3.1,4.7-3.8,7.7c-0.6,3-0.8,6.5-0.8,9.8c0,3.1,0.2,6.1,0.3,8.6c0.2,4.5,1.4,9,2.9,13c1.4,4.1,2.9,7.7,3.8,10.4
				c0.4,1.2,0.6,2.6,1.2,3.8c0.3,0.6,0.6,1.3,1.2,1.9c0.5,0.6,1.3,1.1,2.2,1.3c0.5,0.1,1,0.1,1.5,0.1c1.5,0,3.2-0.3,5-0.8
				c2.8-0.7,5.9-1.8,8.7-2.9s5.2-2.2,6.6-2.9c4.1-2.2,7.6-5.1,11-7.9c3.4-2.8,6.5-5.6,9.7-7.8l0.6-0.4l0.1-0.8
				c0.1-2.2,0.2-4.4,0.3-6.6v-1.1l-1-0.5c-4.2-2.1-9.1-3.5-15.1-3.8l-0.1,1.6l0.7,1.5c1.7-0.9,4-1.3,6.5-1.9
				c2.4-0.5,4.9-1.1,7.1-2.5l0.7-0.4v-0.8c0.1-0.9,0.1-1.8,0.1-2.7l0.1-1.5l-1.6-0.1l-0.1,1.6L718.6,118.2L718.6,118.2z"/>
			<path fill="#D33833" d="M725.2,130.8c-1-5.8-2.2-7.4-1.7-12.5C738.8,108.1,741.7,136,725.2,130.8"/>
			<path fill="#D33833" d="M725.2,130.8l1.6-0.3c-0.4-2.5-0.9-4.3-1.2-5.8c-0.3-1.5-0.5-2.7-0.5-4.3c0-0.6,0-1.2,0.1-1.9l-1.6-0.2
				l1,1.4c2.2-1.5,4-2,5.4-2c0.8,0,1.5,0.2,2.1,0.5c0.9,0.4,1.6,1.2,2.1,2.2c0.5,1,0.8,2.2,0.8,3.4c0,1.6-0.5,3.2-1.4,4.2
				c-1,1.1-2.2,1.8-4.3,1.8c-1,0-2.1-0.2-3.4-0.6L725.2,130.8l1.6-0.3L725.2,130.8l-0.5,1.5c1.6,0.5,3,0.7,4.4,0.7
				c2.9,0,5.3-1.2,6.8-3c1.5-1.8,2.2-4.1,2.2-6.3c0-2.2-0.6-4.5-2-6.3c-0.6-0.9-1.6-1.7-2.6-2.2c-1.1-0.5-2.2-0.8-3.6-0.8
				c-2.2,0-4.6,0.8-7.2,2.6l-0.6,0.4l-0.1,0.8c-0.1,0.8-0.1,1.6-0.1,2.2c0,1.9,0.3,3.5,0.6,5.1s0.8,3.2,1.2,5.6l0.2,1l1,0.3
				L725.2,130.8L725.2,130.8z"/>
			<path fill="#EF3D3A" d="M747.5,135.5c0,0-4.8-6.9-1.4-8.9c3.4-2,6.9,0,8.9-3.4c2-3.4,0-5.4,0.6-9.6c0.6-4.2,4.2-4.8,7.6-5.4
				c3.5-0.6,13-2,14.4,1.4l-4.1-12.3l-8.2-2.7l-26,15L738,117v15"/>
			<path fill="#EF3D3A" d="M675.6,158c-0.8-10.7-1.7-21.3-2.7-32c-1.4-15.9,3.8-13.1,17.6-13.1c2.1,0,13,2.5,13.8,4.1
				c3.8,7.6-6.2,5.9,4.3,11.7c8.9,4.9,24.7-2.9,21-13.8c-2-2.4-10.5-0.7-13.5-2.2c-5.3-2.8-10.7-5.6-16-8.3
				c-6.9-3.5-22.5-8.7-29.8-3.8c-18.4,12.5,1.1,43.7,7.7,56.7"/>
			<path fill="#231F20" d="M693.6-84.3c-18.7-4.4-27.9,7.8-33.6,20.4c-5-1.2-3-8.1-1.7-11.6c3.3-9.2,16.8-21.4,27.8-19.7
				C690.9-94.6,697.3-90.2,693.6-84.3"/>
			<path fill="#231F20" d="M784.5-63.1c0.3,0,0.6,0,0.9,0c4.2,8.8,7.9,18.1,13.2,25.8c-3.5,8.3-27,15.7-26.6,0.8
				c5-2.2,13.8-0.4,18.3-3.3C787.7-47,784-53,784.5-63.1"/>
			<path fill="#231F20" d="M703.2-62.9c4,7.4,5.3,15,11,20.6c2.6,2.5,7.5,5.5,5,12.5c-0.6,1.6-4.8,5.3-7.2,6
				c-8.9,2.6-29.6,0.5-22.5-10.6c7.4,0.4,17.2,4.8,22.7-0.5C707.9-41.7,700.4-55,703.2-62.9"/>
			<path fill="#231F20" d="M781.2,11.6c-13.4,8.6-28.3,17.9-50.3,15.8c-4.6-4.1-6.4-13.1-1.9-19.1c2.4,4.1,0.9,11.5,7.5,12.7
				c12.5,2.1,26.9-7.6,35.9-11c5.5-9.4-0.5-12.8-5.4-18.9c-10.2-12.3-24-27.6-23.5-46.1c4.2-3,4.5,4.6,5.1,6
				c5.3,12.5,18.8,28.5,28.6,39.2c2.4,2.6,6.4,5.1,6.8,6.9C785.3,2.1,780.7,8.2,781.2,11.6"/>
			<path fill="#231F20" d="M604.7,2.6c-4.2-2.4-5.1-12.9-10.1-13.2c-7-0.4-5.8,13.7-5.8,21.9c-4.8-4.4-5.7-17.9-2.1-25
				c-4.1-1.9-5.9,2.2-8.1,3.7C581.5-31,609.4-19.8,604.7,2.6"/>
			<path fill="#231F20" d="M789.7,20.3c-6.2,11.8-15,24.9-33.3,25.3c-0.4-3.8-0.7-9.7,0-12C770.4,32.3,779,25.2,789.7,20.3"/>
			<path fill="#231F20" d="M702.1,28c11.7,6.1,33.1,6.8,48.9,6.3c0.9,3.5,0.9,7.8,0.9,12C731.6,47.4,707.5,42.4,702.1,28"/>
			<path fill="#231F20" d="M699.9,39.5c8.1,20.2,35.8,17.9,59.1,17.3c-1,2.6-3.2,5.8-6,6.9c-7.5,3-28.2,5.3-38.6-0.2
				c-6.6-3.5-10.9-11.4-14.5-16C698.3,45.2,689.6,39.5,699.9,39.5"/>
			<path fill="#81B0C4" d="M780.2,151.1c-9.4,16.2-18.5,32.8-29.8,47.1c4.7-13.8,6.7-37,7.5-54.6C767.8,139,776.2,144.6,780.2,151.1
				"/>
			<path fill="#231F20" d="M831.1,209.3c-10.6,2.1-18,12.4-28.4,11.7C808.4,213,818.4,209.7,831.1,209.3"/>
			<path fill="#231F20" d="M835.8,225.9c-8.6,1-18.8,2.3-27.5,1.6C812.4,221.1,828.4,223.3,835.8,225.9"/>
			<path fill="#231F20" d="M838.8,240.1c-9.7,0.3-21.8,0.1-31-0.7C813.3,233.5,832.5,237.2,838.8,240.1"/>
			<path fill="#DCD9D8" d="M761.9,279.3c1.4,12.2,6.2,24.5,5.7,37.9c-5.3,1.8-8.5,3.4-15.6,3.4c-0.5-11.3-2-28.7-1.6-39.5
				C753.9,281.3,759.1,278.5,761.9,279.3"/>
			<path fill="#F0D6B7" d="M746.3,99.7c-4.9,3.2-9,7.1-13.7,10.6c-10.4,0.5-16-0.7-23.7-6.7c0.2-0.4,1-0.2,1-0.8
				C721,107.7,735.1,100.7,746.3,99.7"/>
			<path fill="#81B0C4" d="M688,175.4c3.1-13.2,15-20.1,25.9-27.3c11.2,14.2,18,32.5,25.5,50.2C721.7,192.9,703.6,184.2,688,175.4"
				/>
			<path fill="#231F20" d="M750.4,281c-0.4,10.8,1.1,28.2,1.6,39.5c7.2,0,10.2-1.6,15.6-3.4c0.6-13.3-4.2-25.7-5.6-37.9
				C759.1,278.5,753.9,281.3,750.4,281z M638.4,219.6c4.7,43.5,11.6,80.1,24.2,118.7c27.9,8.4,61.6,9.2,86.3,1.5
				c-4.5-21.8-2.6-48.3-5.2-71.5c-2-17.5-1-35-3.7-52.8C710.1,209.3,667.8,214.1,638.4,219.6L638.4,219.6z M747.1,215.8
				c-0.3,18.7,0.8,37.1,2.2,55.9c7.2-1.1,12.1-1.8,18.8-3.3c-2.2-18-1.9-38.3-6.3-54.3C756.7,214.2,752.2,214,747.1,215.8
				L747.1,215.8z M783.6,212.8c-3.4-0.8-7.4,0-10.7,0c1.5,15.3,5.3,32.1,6.6,48.1c5.1,0.2,7.9-2.2,12.1-3.1
				C791.8,243.8,790.3,224.4,783.6,212.8L783.6,212.8L783.6,212.8z M838.8,263.2c10.7-2.6,17.4-15.7,14.4-29.1c-2-9-5.5-26-9.4-31.8
				c-2.8-4.3-10.5-9.9-16.6-6c-9.9,6.4-27.4,8.3-34.7,16c3.7,12.1,4.8,28.7,6.3,44.1c12.4,0.8,27.7-3.4,38,1
				c-7.2,2.3-16.6,2.3-22.8,5.8C819,265.6,831,265.1,838.8,263.2L838.8,263.2z M739.4,198.2c-7.5-17.6-14.3-35.8-25.5-50.1
				c-10.9,7.3-22.8,14.1-25.9,27.3C703.6,184.2,721.6,192.9,739.4,198.2L739.4,198.2L739.4,198.2z M757.9,143.6
				c-0.7,17.7-2.7,40.8-7.4,54.6c11.2-14.3,20.3-30.9,29.8-47.1C776.2,144.6,767.8,138.9,757.9,143.6z M737,136.1
				c-4.3-0.4-7.8,4.9-13.4,2.6c-1.3,1.4-2.4,2.9-3.7,4.3c12.2,14.7,17.8,35.6,27.2,52.9c5-16.6,4.5-34.8,5.6-52.9
				C745.7,143.4,741.8,136.7,737,136.1L737,136.1z M723.4,118.3c-0.4,5.1,0.7,6.7,1.7,12.5C741.8,136,738.9,108.1,723.4,118.3z
				 M705.1,112.3c-7.1-3.9-17.9-8.2-27.1-9.9c-11.4-2.1-10.4,15.6-9.9,26.2c0.4,8.3,4.7,17.3,6.7,22.8c0.9,2.6,1.1,5.3,3.3,5.9
				c4,1,17-4.3,20.7-6.3c7.8-4.3,13.9-11,20.6-15.6c0.1-2.2,0.2-4.5,0.3-6.7c-4-2-8.6-3.4-14.5-3.6c4-2,9.8-2,13.4-4.4
				c0-0.9,0.1-1.8,0.1-2.7c-6.6-0.5-9.1-3.5-13.5-5.9L705.1,112.3z M636.9,99.9c-5.9,6,16.6,14.2,23.8,14.6c0-3.8,2.2-7.4,1.7-10.1
				C653.9,103,642.7,104,636.9,99.9L636.9,99.9z M709.9,102.7c0,0.6-0.8,0.4-1,0.9c7.7,6,13.3,7.2,23.7,6.7
				c4.7-3.4,8.8-7.4,13.7-10.6C735.1,100.7,721,107.7,709.9,102.7L709.9,102.7z M776.9,123c-0.3-6.7-2.1-20.4-6.2-22.8
				c-8.6-5.1-24.1,10.2-30.6,12.5c0.7,2.1,1.9,3.7,2,6.3c3.8-1,8.5-0.3,11.8,1.3c-3.8,0.4-8.1,0.4-10.7,2.2c-1,2.7,0.2,6.4-0.4,10.1
				c9.2,2.6,19.7,4,31.3,4.3C776.3,134.1,777.2,128.5,776.9,123L776.9,123z M626.9,105.8c-1.9-1.3-14.4-17.7-16.2-17.1
				c-22.7,9-44.1,24.5-63.1,39.2c18.1,38.9,25.5,86.6,26.7,132.6c20.8,9.7,39.1,23.7,67.2,25.2c-3.2-23-6.2-43.7-8.1-65.4
				c-7-3-17.2,0.1-23.9-1c-0.1-8,10.1-3.5,11-8.9c0.6-4.1-5.6-4.4-3.5-10.8c5.1,1.9,7.9,6.1,13.4,7.6c5-11-0.1-30.6,0.6-39.8
				c0.1-1.7,0.9-9.6,4.7-8.2c3.4,1.2-0.2,20.9,0.2,29.7c0.3,8.1-1,15.8,2.3,20.9c27.2-3.7,55-6.1,84.5-6.9
				c-6.5-2.8-14.2-5.4-22.6-10.2c-4.6-2.6-19-8-20.3-12.3c-2.1-6.9,5.5-10.6,6.9-16.5c-13.8,7.5-16.5-7.2-19.7-17.6
				c-3-9.4-4.6-16.5-5.4-21.9c-12-5.7-24.7-11.4-34.9-18.6L626.9,105.8z M764.8,90.7c19-9.2,22.4,34.3,15,48.4
				c1.2,4.2,5.1,5.8,6.7,9.6c-10.6,18.9-22.3,36.6-33.2,55.4c8-5,19.5-0.9,29-4.6c3.5-1.4,6-9.3,8.6-15.7
				c7.2-17.4,14.7-39.4,18.1-55.9c0.8-3.8,2.9-12,2.4-15.4c-0.8-6.1-9-10.6-13.2-14.3c-7.7-6.9-12.5-13-20.5-19.4
				C774.6,83.6,767.5,86.8,764.8,90.7L764.8,90.7z M583.5-77.6c-9,9.9-7.1,28.6-6.1,41.8c16.4-10.2,38.1,0.8,37.9,18.3
				c7.8-0.2,2.9-9.7,1.5-15.9c-4.6-20.1,7.8-41.9,0.6-60.2C603.4-92.4,591.9-86.7,583.5-77.6C583.5-77.6,583.5-77.6,583.5-77.6z
				 M648.2-135.3c-20.4,5.8-46.7,20.7-55.1,39c6.5-1,11-4.2,17.4-4.6c2.5-0.2,5.6,1,8.4,0.3c5.6-1.4,10.2-13.9,14.4-18.5
				c4.2-4.5,9-6.5,12.4-10.6c2.2-1.1,5.4-1,5.5-4.3C650.4-134.8,649.3-135.6,648.2-135.3L648.2-135.3z M754.8-129.9
				c-21.3-11.9-57.2-20.9-79.8-9.7c-18.3,9.1-42.9,24.1-51.3,43.2c7.8,18.4-2.3,35.2-3,53.9c-0.4,9.9,4.6,18.6,5,29.4
				c-2.7,4.5-10.9,5-16.6,4.7c-1.9-9.6-5.3-20.3-15.1-21.4c-14-1.5-24.1,10-24.8,22.1c-0.7,14.2,10.9,37.7,27.4,36.1
				c6.3-0.6,7.9-7,14.9-6.9c3.8,7.5-5.8,9.9-6.8,15.2c-0.3,1.4,0.8,6.8,1.4,9.3c3,12.4,9.7,28.4,16.3,37.8
				c8.3,12,24.8,13.8,42.4,14.9c3.2-6.8,14.7-6.2,22.3-4.5c-9.1-3.5-17.5-12.3-24.5-20c-8-8.8-16.1-18.2-16.6-29.8
				c15.2,21,27.7,39.4,55.3,48.6c20.8,7,45.2-3.2,61.2-14.5c6.7-4.7,10.6-12.1,15.4-18.9c17.7-25.4,25.9-61.8,24.1-97
				c-0.7-14.5-0.7-29-5.6-38.7c-5.1-10.2-22.3-19.4-32.4-10.1c-1.8-9.9,8.4-16.1,20.5-12.5c-8.6-11.1-17.7-24.5-29.9-31.4
				L754.8-129.9z M794.4,197.7c16.6-8.3,47.6-22.2,58.1,0c3.8,8.2,8.3,22.1,10.3,30.6c2.8,11.9-3.1,37-15.4,41
				c-10.9,3.6-23.5,3.4-36.6,0.7c-1.5-1.3-3.2-3.5-4.5-5.8c-9.3-0.3-18,0.5-25.4,4.4c0.7,6.9-4,8-8.3,9.4
				c-3.3,12.9,6.5,29.6,4.2,41.4c-1.7,8.3-12,9.6-19.5,11.2c-0.3,4.6,0.3,8.5,0.9,12.5c-1.7,6.3-9.5,9.9-16.8,10.9
				c-24.1,2.9-60.8,4.2-84-4.2c-6.5-15.9-11.6-35.2-17-53.4c-22.6,2.4-41-9.8-58.3-17.8c-6-2.8-14.2-4.3-16.5-9.1
				c-2.2-4.6-1.3-13.4-1.9-21.8c-1.4-21.3-2.6-41.8-8.2-63.7c-2.6-9.8-6.9-18.4-10-27.8c-2.9-8.7-7.8-19.5-9.1-28.2
				c-1.9-12.9,10.2-13.6,18.1-19.2c12-8.6,21.5-13.4,34.5-21.3c3.9-2.3,15.5-8.2,16.8-10.9c2.6-5.3-4.5-12.9-6.4-17
				c-3-6.6-4.6-12.3-5.1-18.8c-10.9-1.7-19.2-8.2-24.2-15.5c-8.3-12.2-14-34.6-6.9-51.7c0.6-1.3,3.4-4,3.8-6
				c0.8-4.1-1.5-9.5-1.7-13.8c-0.7-22.2,3.8-41.4,18.7-48.1c6.1-24.2,27.8-32.2,48.3-44.2c7.7-4.5,16.1-7.4,24.8-10.6
				c31.2-11.5,79.1-9.3,105,10.2c11,8.3,28.6,25.9,34.9,38.6c16.6,33.5,15.4,89.6,3.8,130.4c-1.6,5.4-3.8,13.5-7,20.1
				c-2.2,4.6-9.1,13.8-8.2,17.9c0.9,4.2,15.7,15.4,18.8,18.4c5.7,5.5,16.5,12.8,17.4,19.7c1,7.4-3.2,17.5-5.4,24.6
				C809.4,154.6,802.4,176.6,794.4,197.7"/>
			<path fill="#F7E4CD" d="M683.6,33.2c0.9-1.2,5.9-3,12.8,0.3c0,0-8.2,1.4-7.6,15l-3.4-0.6C685.4,47.9,681.9,35.5,683.6,33.2"/>
			<path fill="#1D1919" d="M743.6,150.8c0,2.1-1.7,3.8-3.8,3.8c-2.1,0-3.7-1.7-3.7-3.8c0-2,1.7-3.8,3.8-3.8
				C741.9,147.1,743.6,148.8,743.6,150.8"/>
			<path fill="#1D1919" d="M747.4,168.3c0,2.1-1.7,3.8-3.8,3.8s-3.7-1.7-3.7-3.7c0-2,1.7-3.8,3.8-3.8
				C745.7,164.5,747.4,166.2,747.4,168.3"/>
		</g>
	</g>
</g>
<g id="Layer_1_1_">
</g>
</svg>
