<?xml version="1.0" encoding="utf-8"?>
<!-- Generator: Adobe Illustrator 18.0.0, SVG Export Plug-In . SVG Version: 6.00 Build 0)  -->
<!DOCTYPE svg PUBLIC "-//W3C//DTD SVG 1.1//EN" "http://www.w3.org/Graphics/SVG/1.1/DTD/svg11.dtd">
<svg version="1.1" id="Layer_1" xmlns="http://www.w3.org/2000/svg" xmlns:xlink="http://www.w3.org/1999/xlink" x="0px" y="0px"
	 viewBox="-188.5 -188.5 512 512" enable-background="new -188.5 -188.5 512 512" xml:space="preserve">
<g>
	<path fill="#7AC143" d="M-96.3,69.8l-9.9-9.9c-30.7-30.7-39.8-74.3-28.4-113c-30.3-6.8-53.5-34.1-53.5-66.7
		c0.4-37.9,31.1-68.6,68.6-68.6c34.1,0,62.2,25,67.5,57.6c36.8-8.7,77.4,1.5,106.2,30.3l3.8,3.8L8-46.3l-3.8-3.8
		c-16.3-16.3-42.9-16.3-59.5,0c-16.3,16.3-16.3,43.2,0,59.5l9.9,9.9L4.9,69.8l53.5,53.5L8,174.1l-53.5-53.5L-96.3,69.8L-96.3,69.8z"
		/>
	<path fill="#FBB040" d="M-39.8,13.3l53.5-53.5l50.4-50.4l9.9-9.9c30.3-30.3,74-40.2,112.3-28.8c4.9-33.4,33.4-59.2,68.3-59.2
		c37.9,0,68.6,30.7,68.6,68.6c0,34.9-25.8,63.7-59.5,67.9c11,38.3,1.5,81.5-28.8,111.9l-3.8,3.8l-50.8-50.4l3.8-3.8
		c16.3-16.3,16.3-43.2,0-59.5s-42.9-16.3-59.2,0l-9.9,9.9L64.5,10.2L11,63.7L-39.8,13.3L-39.8,13.3z"/>
	<path fill="#EF4135" d="M187.7,268.5c-38.7,12.1-83.1,2.7-113.8-28.1l-3.8-3.8l50.4-50.4l3.8,3.8c16.3,16.3,42.9,16.3,59.5,0
		c16.3-16.3,16.3-42.9,0-59.5l-9.9-9.9l-50.4-50.8L70.2,16.3L121-34.1l53.5,53.5l50.4,50.4l9.9,9.9c29.2,29.2,39.1,70.2,30,107.3
		c33.4,4.6,58.8,33.4,58.8,67.9c0,37.9-30.7,68.6-68.6,68.6C221.9,323.5,194.2,300,187.7,268.5L187.7,268.5z"/>
	<path fill="#5091CD" d="M168,126.3l-53.1,53.5l-50.4,50.4l-9.9,9.9c-29.2,29.2-70.2,39.1-107.7,30c-7.2,30.7-34.5,53.5-66.7,53.5
		c-37.9,0-68.6-30.7-68.6-68.6c0-32.2,22.4-59.5,52.7-66.7c-9.5-37.5,0.4-79.3,29.6-108.5l3.8-3.8l50.4,50.4l-3.8,3.8
		c-16.3,16.3-16.3,42.9,0,59.5c16.3,16.3,43.2,16.3,59.5,0l9.9-9.9l50.4-50.4l53.5-53.5L168,126.3L168,126.3z"/>
</g>
</svg>
