<?xml version="1.0" encoding="utf-8"?>
<!-- Generator: Adobe Illustrator 18.0.0, SVG Export Plug-In . SVG Version: 6.00 Build 0)  -->
<!DOCTYPE svg PUBLIC "-//W3C//DTD SVG 1.1//EN" "http://www.w3.org/Graphics/SVG/1.1/DTD/svg11.dtd">
<svg version="1.1" id="Layer_1" xmlns="http://www.w3.org/2000/svg" xmlns:xlink="http://www.w3.org/1999/xlink" x="0px" y="0px"
	 viewBox="427 -156 512 512" enable-background="new 427 -156 512 512" xml:space="preserve">
<g>
	<g id="lamp">
		<g>
			<path fill="#084080" d="M515.3,203.1h-66.8c-8.3,0-15.5-7-15.5-15.5v-63.6h25.3V188c0,2.2,1.9,3.6,3.6,3.6h53.2v11.4
				C515.1,203.1,515.3,203.1,515.3,203.1z"/>
			<path fill="#FF7F00" d="M715.9,124.2h-85.2v76.5h23.1v-65.1H669v64.8h27v-64.8h10.2c2.2,0,5.1,3.4,5.1,5.6v59.3h23.1v-57.1
				C734.4,131,726.6,124.2,715.9,124.2L715.9,124.2z"/>
			<path fill="#084080" d="M596.9,124.2h-66.8v76.5h23.1v-30.6h38.4v30.4h23.1v-57.1C614.9,131,607.1,124.2,596.9,124.2L596.9,124.2
				z M553.4,158.6v-23.1H587c2.2,0,5.1,3.4,5.1,5.6v17.5H553.4L553.4,158.6z"/>
			<path d="M820.3,108.1"/>
			<path fill="#084080" d="M851.6,200.9l-1-7.8c33.5-4.1,73.8-21.1,74.8-80.1c0.7-49.1-44.7-84.7-65.3-98.6
				c4.1,14.3,3.4,30.1-2.9,41c-4.6,8.5-12.1,13.1-21.4,13.4c-21.4,1.2-32.3,32.5-32.3,33l-7.5-2.4c0.7-1.5,12.4-36.7,39.1-38.1
				c6.6-0.2,11.7-3.4,15.1-9.7c6.6-11.2,5.6-30.4-1.9-44.7l-5.6-11.2l11.2,5.8C857,3.5,934.2,45.2,933,113
				C932.3,181.2,881.7,197.3,851.6,200.9L851.6,200.9z M817.9,126.8h-65.3v77.5h23.6v-35h42.3c10.7,0,16-4.4,16-16.8v-9.7
				C834.2,131,828.6,126.8,817.9,126.8z M810.6,154.8c0,2.2-0.2,3.2-2.4,3.2h-32.5v-19.2h32.5c2.2,0,2.4,0.2,2.4,2.4V154.8z"/>
			<path fill="#FF7F00" d="M878.1,49.9c-5.3,13.4-8.7,22.3-24,30.8c-7.8,4.1-17.2,4.4-22.8,8.7c-8.5,6.6-10.2,16.5-10.7,18.7
				c20.4,1,29.1,14.1,29.1,35.5v13.6c0,8-1.2,14.6-4.1,19.2v0.2c0,0,42.3,2.4,58.5-35.9C923.5,94.5,878.1,49.9,878.1,49.9
				L878.1,49.9z"/>
		</g>
	</g>
	<g id="Layer_1_1_">
	</g>
</g>
</svg>
