<?xml version="1.0" encoding="utf-8"?>
<!-- Generator: Adobe Illustrator 18.0.0, SVG Export Plug-In . SVG Version: 6.00 Build 0)  -->
<!DOCTYPE svg PUBLIC "-//W3C//DTD SVG 1.1//EN" "http://www.w3.org/Graphics/SVG/1.1/DTD/svg11.dtd">
<svg version="1.1" id="Layer_1" xmlns="http://www.w3.org/2000/svg" xmlns:xlink="http://www.w3.org/1999/xlink" x="0px" y="0px"
	 viewBox="427 -156 512 512" enable-background="new 427 -156 512 512" xml:space="preserve">
<g>
	<path fill="#CC0000" d="M872.7,166.5v23.4c0,0,30.4,0,42.3,0c8.6,0,23.7-6.4,24-24c0-0.6,0-8.3,0-9c0-15.1-12.5-24-24-24
		c-5.4,0-21.1,0-21.1,0v-10.9h41.9V98.2c0,0-28.8,0-40,0c-10.2,0-24.3,8.6-24.3,24.3c0,1.6,0,6.7,0,8c0,16,13.8,24,24.3,24
		c29.1,0-7,0,19.9,0c0,11.5,0,11.5,0,11.5 M646,161c0,0,22.7-1.9,22.7-31.1s-27.5-32-27.5-32h-49.3v92.2h25v-22.4l21.5,22.4h36.8
		L646,161L646,161z M636.4,142.1h-19.9V121h19.9c0,0,5.4,1.9,5.4,10.6C641.9,140.2,636.4,142.1,636.4,142.1z M729.9,98.2
		c-6.4,0-7.4,0-25.3,0c-17.9,0-24,16.3-24,24c0,17,0,67.6,0,67.6h25.3v-16.3h23.7v16.3h24.3c0,0,0-50,0-67.6
		C754.2,102.7,736.3,98.2,729.9,98.2z M729.6,147.6h-23.7v-22.1c0,0,0-5.1,8-5.1c7.4,0,1.3,0,8.6,0c7,0,7,5.1,7,5.1v22.4V147.6z
		 M765.8,98.2H792v91.6h-26.3V98.2z M828.9,166.5V98.2h-26.3v91.9h61.5v-23.7H828.9z M436,190.2h102.1c0,0-19.5-89,45.1-125.2
		c14.1-6.7,58.9-32.3,132.6,21.8c2.2-1.9,4.5-3.5,4.5-3.5s-67.2-67.3-142.2-59.9c-37.8,3.5-83.9,37.8-111.1,83S436,190.2,436,190.2z
		 M436,190.2h102.1c0,0-19.5-89,45.1-125.2c14.1-6.7,58.9-32.3,132.6,21.8c2.2-1.9,4.5-3.5,4.5-3.5s-67.2-67.3-142.2-59.9
		c-37.8,3.5-83.9,37.8-111.1,83S436,190.2,436,190.2z M436,190.2h102.1c0,0-19.5-89,45.1-125.2c14.1-6.7,58.9-32.3,132.6,21.8
		c2.2-1.9,4.5-3.5,4.5-3.5s-67.2-67.3-142.2-59.9c-37.8,3.5-84.2,37.8-111.4,83S436,190.2,436,190.2z M648.9,30.7l0.6-8.6
		c-1.3-0.6-4.5-2.2-12.5-4.5l-0.6,8.6C640.6,27.5,644.7,29.1,648.9,30.7z M636.7,58.2l-0.6,8c4.2,0,8.6,0.6,12.8,1.6l0.6-8
		C645.1,58.8,640.9,58.5,636.7,58.2z M588.7,17.8c0.3,0,1,0,1.3,0l-2.6-8c-4.2,0-8,0.3-12.5,0.6l2.6,7.7
		C581.3,17.8,584.9,17.8,588.7,17.8L588.7,17.8z M594.8,65.2l2.9,9c3.8-1.9,7.4-3.5,11.2-4.5l-2.9-8.6
		C601.8,62.4,598.3,64,594.8,65.2z M536.2,31.3l-5.8-9c-3.2,1.6-6.7,3.5-10.2,5.4l6.1,9C529.5,34.8,532.7,32.9,536.2,31.3z
		 M562.8,89.6l6.1,9.3c2.2-3.2,4.8-6.1,7.7-9.3l-5.8-8.6C567.9,83.5,565,86.7,562.8,89.6L562.8,89.6z M543.9,131.2l10.6,8.3
		c0.6-5.1,1.3-10.2,2.6-15.1l-9.3-7.4C546.1,121.9,544.8,126.7,543.9,131.2L543.9,131.2z M487.2,69.7l-9.3-8
		c-3.5,3.2-6.7,6.4-9.6,9.6l9.9,8.6C481.1,76.5,484.3,72.9,487.2,69.7z M448.1,127.7l-14.7-5.4c-2.6,5.4-5.1,12.2-6.4,15.7l14.7,5.4
		C443.3,138.9,446.2,132.5,448.1,127.7z M542,164.2c0.3,6.7,1,12.5,1.6,16.3l15.7,5.4c-1.3-5.1-2.2-10.9-3.2-17L542,164.2z"/>
</g>
</svg>
