<?xml version="1.0" encoding="utf-8"?>
<!-- Generator: Adobe Illustrator 18.0.0, SVG Export Plug-In . SVG Version: 6.00 Build 0)  -->
<!DOCTYPE svg PUBLIC "-//W3C//DTD SVG 1.1//EN" "http://www.w3.org/Graphics/SVG/1.1/DTD/svg11.dtd">
<svg version="1.1" id="Layer_1" xmlns="http://www.w3.org/2000/svg" xmlns:xlink="http://www.w3.org/1999/xlink" x="0px" y="0px"
	 viewBox="-184 -184 512 512" enable-background="new -184 -184 512 512" xml:space="preserve">
<g>
	<path fill="#464342" d="M-147.7,72c0,86.8,50.5,162.1,123.7,197.7L-128.5-17.2C-140.6,9.8-147.7,40-147.7,72z M220.3,61
		c0-27-9.6-45.9-18.1-60.4c-11-18.1-21.7-33.4-21.7-51.6c0-20.3,15.3-39.1,37-39.1c1.1,0,1.8,0,2.8,0c-39.1-35.6-91-57.6-148.3-57.6
		c-76.8,0-144.4,39.5-183.5,98.8c5,0,10,0.4,14.2,0.4c23.1,0,58.7-2.8,58.7-2.8c11.7-0.7,13.2,16.7,1.4,18.1c0,0-11.7,1.4-25.2,2.1
		l80,237.9l48-144L31.1-31.1C19.4-31.8,8-33.2,8-33.2C-3.7-34-2.3-52.1,9.4-51.4c0,0,36.3,2.8,58,2.8c23.1,0,58.7-2.8,58.7-2.8
		c11.7-0.7,13.2,16.7,1.4,18.1c0,0-12.1,1.4-25.2,2.1L181.5,205l22-73.2C213.2,101.5,220.3,79.8,220.3,61z M75.9,91.2L10.1,282.8
		c19.6,5.7,40.5,8.9,61.9,8.9c25.6,0,50.1-4.3,72.9-12.4c-0.7-1.1-1.1-1.8-1.4-2.8L75.9,91.2z M264.7-33.2
		c1.1,7.1,1.4,14.6,1.4,22.8c0,22.4-4.3,47.3-16.7,78.6l-67.2,193.8c65.4-38,109.2-108.8,109.2-189.9C291.7,34,281.8-2,264.7-33.2z
		 M72-184C-69.2-184-184-69.2-184,72S-69.2,328,72,328S328,213.2,328,72S213.2-184,72-184z M72,316.3
		c-134.8,0-244.3-109.5-244.3-244.3S-62.8-172.3,72-172.3S316.3-62.8,316.3,72S206.8,316.3,72,316.3z"/>
</g>
</svg>
