<?xml version="1.0" encoding="UTF-8" standalone="no"?>
<!-- Generator: Adobe Illustrator 18.0.0, SVG Export Plug-In . SVG Version: 6.00 Build 0)  -->
<!DOCTYPE svg  PUBLIC '-//W3C//DTD SVG 1.1//EN'  'http://www.w3.org/Graphics/SVG/1.1/DTD/svg11.dtd'>
<svg id="Layer_1" xmlns="http://www.w3.org/2000/svg" xml:space="preserve" viewBox="0 0 1366 648" version="1.1" y="0px" x="0px" xmlns:xlink="http://www.w3.org/1999/xlink" enable-background="new 0 0 1366 648">
	<linearGradient id="SVGID_1_" y2="644.36" gradientUnits="userSpaceOnUse" x2="683" y1="2.8769" x1="683">
		<stop stop-color="#FFD54F" offset="0"/>
		<stop stop-color="#FFC107" offset="1"/>
	</linearGradient>
	<rect width="1366" height="648" fill="url(#SVGID_1_)"/>
					<path d="m760 343.4c11.3 0 20.4-9.2 20.4-20.4 0-11.3-9.2-20.4-20.4-20.4-0.7 0-1.3 0-2 0.1 2.2-3.8 3.5-8.2 3.5-12.9 0-14.2-11.5-25.7-25.7-25.7-6.4 0-12.3 2.3-16.8 6.2-4.4-24.3-25.6-42.7-51.1-42.7-28.7 0-51.9 23.2-51.9 51.9 0 2.8 0.2 5.5 0.6 8.1-1-0.1-2.1-0.2-3.2-0.2-15.4 0-28 12.5-28 28 0 14.4 10.8 26.2 24.8 27.8l149.8 0.2z" fill="#fff"/>
	<g opacity=".02">
		<polygon points="427.9 176.7 683 29.5 938.1 176.7 938.1 471.3 683 618.5 427.9 471.3" fill="#2895F1"/>
			<defs>
				<polygon id="SVGID_2_" points="427.9 176.7 683 29.5 938.1 176.7 938.1 471.3 683 618.5 427.9 471.3"/>
			</defs>
			<clipPath id="SVGID_3_">
				<use overflow="visible" xlink:href="#SVGID_2_"/>
			</clipPath>
			<polyline fill="#9B9DA0" points="511 418.9 483.2 336.6 495.8 306.3 575 251.1 641.2 192 729.9 181.8 758.3 178.6 987.8 309.5 989.5 697.8" clip-path="url(#SVGID_3_)"/>
		<path d="m895.6 333.9c0 0.3-0.1 0.6-0.1 0.9v1.1 1.6c0 1.5-0.2 3-0.4 4.5-0.2 1.3-0.3 2.5-0.5 3.8-0.4 2.9-1 5.8-1.7 8.7-3.9 15.9-11.3 30-21.9 42.4-9.1 10.7-20 19.3-32.4 25.9-8.9 4.8-18.4 8.2-28.3 10.5-2.7 0.6-5.5 1.1-8.2 1.6-2 0.3-4 0.6-6.1 0.8-1.2 0.1-2.5 0.2-3.7 0.3-1.7 0.1-3.5 0.2-5.2 0.3-1.4 0-2.8 0.2-4.2 0.3-0.3 0-0.7 0.1-1 0.1l-7.5 0.3c-6.3 0.2-12.7 0.2-19 0.2-3 0-6-0.1-9-0.2-1.6 0-3.2 0-4.9-0.1-2.3-0.1-4.7-0.1-7-0.2-0.5 0-1-0.1-1.6 0.1-0.2 0.3-0.5 0.6-0.9 0.9-11.7 12.2-23.4 24.3-35.2 36.5-2.9 3-5.7 5.9-8.6 8.9l-0.6 0.6c-0.2 0.2-0.4 0.2-0.7 0-0.2-0.1-0.3-0.2-0.5-0.3-10-7.4-20-14.8-30-22.3-0.2-0.2-0.4-0.3-0.6-0.5 0 0-0.1-0.3 0-0.4 0.1-0.2 0.3-0.3 0.4-0.5 3.2-3.5 6.3-6.9 9.5-10.4 10.6-11.6 21.2-23.3 31.8-34.9 4.3-4.7 8.6-9.4 12.8-14.1 0.3-0.4 0.6-0.7 1-1.1 0.5-0.1 1-0.1 1.5-0.1 2.9-0.1 5.7-0.1 8.6 0 2.1 0.1 4.2 0.1 6.3 0.1l7.8 0.3c0.6 0 1.3 0.1 1.9 0.1 3.1 0.1 6.1 0.3 9.2 0.4 0.9 0 1.7 0.1 2.6 0.1 3.7 0.1 7.5 0.3 11.2 0.2 2.5 0 5.1-0.1 7.6-0.2 2.1 0 4.2-0.2 6.2-0.3 2.1-0.1 4.1-0.3 6.2-0.6 2.5-0.3 4.9-0.6 7.4-1 0.7-0.1 1.5-0.3 2.2-0.4 0.3-0.1 0.6-0.1 0.8-0.3 0.2-0.1 0.4-0.2 0.6-0.2l3.3-0.6c1.8-0.3 3.5-0.8 5.3-1.3 2.3-0.6 4.6-1.3 6.8-2.1 2.7-1 5.4-2.2 8-3.5 8.1-4.2 15.2-9.7 21.2-16.6 6.3-7.2 10.8-15.4 13.6-24.6 0.9-3 1.5-6.1 2-9.2 0.6-4.2 0.8-8.4 0.6-12.6-0.5-8.6-2.6-16.9-6.4-24.6-3.9-8.1-9.3-15.2-16.1-21.2-8.5-7.6-18.4-12.8-29.4-15.8-2.7-0.7-5.4-1.3-8.2-1.7-1.5-0.2-3.1-0.4-4.6-0.6-1.1-0.1-2.1-0.2-3.2-0.2-0.4 0-0.6-0.2-0.7-0.5s-0.2-0.6-0.3-0.8c-9.5-23-27.6-41.9-51-52.3-6-2.6-12.2-4.7-18.6-6.1-2.3-0.5-4.6-0.9-6.9-1.3l-4.8-0.6c-1.5-0.1-3.1-0.2-4.6-0.3-0.7-0.1-1.4-0.1-2.2-0.1h-5.7c-1.8 0-3.6 0.2-5.4 0.3l-3 0.3c-1.2 0.1-2.5 0.3-3.7 0.5-2.5 0.4-4.9 0.9-7.3 1.5-10.1 2.4-19.6 6.3-28.4 11.8-12.9 8-23.4 18.4-31.5 31.2-2.2 3.4-3.9 7-5.4 10.7-1.8 4.4-3.3 8.9-4.5 13.5-1.1 3.9-2 7.8-2.7 11.7 0 0.1-0.1 0.3-0.1 0.4s-0.2 0.3-0.3 0.3h-0.6c-1.4-0.2-2.8-0.4-4.3-0.6-0.8-0.1-1.6-0.2-2.5-0.3-1.2-0.1-2.5-0.2-3.7-0.3-2-0.2-3.9-0.2-5.9-0.3-1.7-0.1-3.5-0.1-5.2 0-1 0-2 0.1-3.1 0.1-1.2 0.1-2.5 0.2-3.7 0.3s-2.5 0.3-3.7 0.5c-5 0.9-9.8 2.3-14.4 4.6-6.6 3.2-12.7 7.3-18 12.4-5.3 5-9.6 10.8-12.8 17.3-2.3 4.6-3.9 9.5-4.8 14.6-0.7 3.9-1 7.8-0.8 11.7 0.4 9.4 3.1 18.1 7.9 26.2 1.2 2 2.6 4 4.1 5.8 4.2 5.2 9.1 9.7 14.6 13.5 6.2 4.4 13 7.8 20.2 10.4 0.9 0.3 0.9 0.3 1.9 0.3 6.6 0 13.1-0.1 19.7-0.2 6.7 0 13.4-0.1 20.2-0.1 3.4 0 6.9-0.1 10.3-0.1 3.9 0 7.7-0.1 11.6-0.1h1c0.2 0 0.4-0.1 0.6-0.3 0.2-0.3 0.5-0.5 0.7-0.7 9.9-10.8 19.8-21.5 29.7-32.3 3.3-3.6 6.6-7.2 10-10.9 0.2-0.3 0.5-0.5 0.7-0.8 0 0 0.1-0.2 0.1-0.3-0.2-0.4-0.6-0.6-0.8-0.9l-10.8-10.8-0.7-0.7c-0.1-0.1-0.1-0.2-0.1-0.2 0-0.1 0.1-0.2 0.2-0.2 0.3 0 0.7-0.1 1-0.1 2-0.1 3.9-0.2 5.9-0.3l5.4-0.3 5.4-0.3c2-0.1 4-0.2 6-0.4h0.5c2-0.1 3.9-0.2 5.9-0.3l5.4-0.3h0.5c2-0.1 3.9-0.2 5.9-0.3l5.4-0.3c1.8-0.1 3.5-0.2 5.3-0.3 0.8 0 1.6-0.1 2.4-0.2 0.3 0 0.5 0.1 0.6 0.4 0 0.3 0.1 0.7 0.1 1 0.1 1.5 0.3 3 0.4 4.5 0.1 1 0.2 2 0.3 2.9 0.1 1.2 0.2 2.5 0.3 3.7s0.2 2.5 0.3 3.7c0.1 0.9 0.2 1.9 0.2 2.8 0.1 1.2 0.2 2.5 0.3 3.7 0.1 1.3 0.2 2.6 0.3 3.8l0.3 3c0.1 1.2 0.2 2.5 0.3 3.7s0.2 2.5 0.3 3.7c0.1 0.9 0.2 1.9 0.2 2.8 0.1 1.2 0.2 2.5 0.3 3.7 0.1 1.3 0.2 2.6 0.3 3.8v1.1s-0.1 0.1-0.2 0.1c-0.3-0.1-0.5-0.3-0.8-0.5-2.2-1.5-4.5-3.1-6.7-4.6s-4.4-3-6.5-4.5c-0.2-0.1-0.4-0.3-0.7-0.4-0.3-0.2-0.4-0.2-0.7 0.1-0.2 0.2-0.5 0.5-0.7 0.8-2.8 3.2-5.6 6.3-8.5 9.5-10.1 11.3-20.2 22.6-30.4 33.8-3.3 3.6-6.7 7.2-10 10.8-1.1 1.2-2.3 2.4-3.5 3.6-0.4 0.4-0.8 0.9-1.4 1.1-0.5 0-1.1 0.1-1.6 0.1h-92.4-0.2c-0.7 0.1-1.4-0.1-2.1-0.3-4.4-1.3-8.8-2.7-13.1-4.5-8.3-3.4-16.1-7.5-23.4-12.6-6.8-4.8-13-10.2-18.5-16.5-8.8-10.1-15.2-21.6-18.9-34.5-0.9-3.1-1.6-6.3-2.2-9.5-0.4-2.5-0.8-5-1-7.5l-0.3-4.5c0-0.5 0-1.1-0.1-1.6 0-0.2-0.1-0.4-0.3-0.6v-5.4c0.2-0.1 0.3-0.3 0.3-0.6s0.1-0.6 0.1-0.9c0.1-2.3 0.4-4.5 0.7-6.8 0.5-3.5 1.3-6.9 2.2-10.3 1.9-6.6 4.6-13 7.9-19 4.6-8.2 10.2-15.6 16.8-22.3 10.2-10.3 21.9-18.4 35.2-24.4 8.6-3.8 17.5-6.6 26.8-8.2 0.3-0.1 0.6-0.1 0.9-0.2 0.2-0.3 0.3-0.6 0.5-0.9 6-13.1 14-25 23.8-35.5 10.9-11.7 23.4-21.3 37.5-28.8 16.5-8.8 34.1-14.2 52.7-16.4 0.8-0.1 1.6-0.2 2.5-0.3 1.3-0.1 2.6-0.3 3.8-0.3 1.8-0.1 3.7-0.2 5.5-0.3 0.3 0 0.7 0 1-0.2h9.7c0.2 0.1 0.5 0.1 0.8 0.2l5.1 0.3c1.3 0.1 2.6 0.2 3.8 0.3 1.7 0.2 3.3 0.4 4.9 0.6 2.7 0.3 5.3 0.7 7.9 1.2 4.2 0.8 8.4 1.7 12.5 2.9 14.2 3.9 27.6 9.8 40 17.7 17 10.9 31.1 24.6 42.1 41.5 0.6 0.9 0.4 0.8 1.6 1.1 6.2 1.8 12.2 4.1 18 7 14 6.9 26.1 16.1 36.2 28 10.4 12.3 17.7 26.3 21.6 41.9 0.7 2.9 1.3 5.8 1.7 8.8 0.2 1.3 0.4 2.5 0.5 3.8 0.2 1.4 0.3 2.9 0.4 4.3v1.6c0 0.5 0 0.9 0.1 1.4 0 0.3 0.1 0.6 0.1 0.9 0.3 3.2 0.3 5.5 0.3 7.7z" fill="#fff"/>
	</g>
	<g fill="#2E3192">
		<path d="m695.9 307.2c0.7 3.5-2.4 6.5-5.9 5.9-2-0.4-3.6-2-3.9-3.9-0.7-3.5 2.4-6.5 5.9-5.9 1.9 0.3 3.5 1.9 3.9 3.9z"/>
		<path d="m722.7 307.2c0.7 3.5-2.4 6.5-5.9 5.9-2-0.4-3.6-2-3.9-3.9-0.7-3.5 2.4-6.5 5.9-5.9 1.9 0.3 3.5 1.9 3.9 3.9z"/>
		<path d="m749.5 307.2c0.7 3.5-2.4 6.5-5.9 5.9-2-0.4-3.6-2-3.9-3.9-0.7-3.5 2.4-6.5 5.9-5.9 1.9 0.3 3.5 1.9 3.9 3.9z"/>
		<circle cy="308.1" cx="637.3" r="5"/>
		<circle cy="308.1" cx="610.5" r="5"/>
		<circle cy="308.1" cx="664.1" r="5"/>
	</g>
	<g stroke-miterlimit="10" stroke="#2E3192" stroke-width="2" stroke-linecap="round" fill="none">
		<polyline points="395.7 370.5 385.7 360.5 359.2 360.5"/>
			<circle r="4.2" cy="360.4" cx="355"/>
	</g>
	<g stroke-miterlimit="10" stroke="#2E3192" stroke-width="2" stroke-linecap="round" fill="none">
		<polyline points="562 360.1 552 350.1 525.5 350.1"/>
			<circle r="4.2" cy="350" cx="521.3"/>
	</g>
	<g stroke-miterlimit="10" stroke="#2E3192" stroke-width="2" stroke-linecap="round" fill="none">
		<polyline points="556.8 371.7 546.9 381.7 520.3 381.7"/>
			<circle r="4.2" cy="381.8" cx="516.2"/>
	</g>
	<g stroke-miterlimit="10" stroke="#2E3192" stroke-width="2" stroke-linecap="round" fill="none">
		<polyline points="352.6 371.7 342.6 381.7 316.1 381.7"/>
			<circle r="4.2" cy="381.8" cx="311.9"/>
	</g>
	<g stroke-miterlimit="10" stroke="#2E3192" stroke-width="2" stroke-linecap="round" fill="none">
		<polyline points="974.7 347.3 984.7 357.3 1011.2 357.3"/>
			<circle r="4.2" cy="357.4" cx="1015.4"/>
	</g>
	<g stroke-miterlimit="10" stroke="#2E3192" stroke-width="2" stroke-linecap="round" fill="none">
		<polyline points="841.8 363.3 851.8 373.3 878.3 373.3"/>
			<circle r="4.2" cy="373.4" cx="882.5"/>
	</g>
	<g stroke-miterlimit="10" stroke="#2E3192" stroke-width="2" stroke-linecap="round" fill="none">
		<polyline points="743.8 356.2 753.8 366.1 780.3 366.1"/>
			<circle r="4.2" cy="366.3" cx="784.5"/>
	</g>
	<g stroke-miterlimit="10" stroke="#2E3192" stroke-width="2" stroke-linecap="round" fill="none">
		<polyline points="885 347 895 337.1 921.5 337.1"/>
			<circle r="4.2" cy="336.9" cx="925.7"/>
	</g>
	<g stroke-miterlimit="10" stroke="#2E3192" stroke-width="2" stroke-linecap="round" fill="none">
		<polyline points="285.6 443.8 275.6 453.8 275.6 480.3"/>
			<circle r="4.2" cy="484.5" cx="275.5"/>
	</g>
	<g stroke-miterlimit="10" stroke="#2E3192" stroke-width="2" stroke-linecap="round" fill="none">
		<polyline points="490 400.5 480 410.5 480 437"/>
			<circle r="4.2" cy="441.2" cx="479.9"/>
	</g>
	<g stroke-miterlimit="10" stroke="#2E3192" stroke-width="2" stroke-linecap="round" fill="none">
		<polyline points="687.1 447.5 677.1 457.4 677.1 484"/>
			<circle r="4.2" cy="488.1" cx="677"/>
	</g>
	<g stroke-miterlimit="10" stroke="#2E3192" stroke-width="2" stroke-linecap="round" fill="none">
		<polyline points="664.1 345.8 654.2 355.8 654.2 382.3"/>
			<circle r="4.2" cy="386.5" cx="654.1"/>
	</g>
	<g stroke-miterlimit="10" stroke="#2E3192" stroke-width="2" stroke-linecap="round" fill="none">
		<polyline points="1043.3 371.8 1033.3 381.8 1033.3 408.3"/>
			<circle r="4.2" cy="412.5" cx="1033.2"/>
	</g>
	<g stroke-miterlimit="10" stroke="#2E3192" stroke-width="2" stroke-linecap="round" fill="none">
		<polyline points="490.4 468 499 476.5 499 499.2"/>
			<circle r="3.6" cy="502.8" cx="499"/>
	</g>
	<g stroke-miterlimit="10" stroke="#2E3192" stroke-width="2" stroke-linecap="round" fill="none">
		<polyline points="286.1 394.6 294.6 403.1 294.6 425.8"/>
			<circle r="3.6" cy="429.4" cx="294.7"/>
	</g>
	<g stroke-miterlimit="10" stroke="#2E3192" stroke-width="2" stroke-linecap="round" fill="none">
		<polyline points="937.6 404.6 946.1 413.2 946.1 435.9"/>
			<circle r="3.6" cy="439.5" cx="946.2"/>
	</g>
	<g stroke-miterlimit="10" stroke="#2E3192" stroke-width="2" stroke-linecap="round" fill="none">
		<polyline points="1044 413.5 1052.6 422.1 1052.6 444.8"/>
			<circle r="3.6" cy="448.4" cx="1052.7"/>
	</g>
		<g fill="#fff">
			<path d="m539.9 461.3v-52.6c0.1-0.3 0.2-0.6 0.3-0.8 1-2.9 3-4.7 6.1-4.8 2.3-0.1 4.7-0.1 7-0.1h79c1.3 0 2.8 0.3 3.9 0.8 2.7 1.3 3.7 3.7 3.6 6.6v29.4 19.8c0 2.3-0.8 4.3-2.6 5.8-1.5 1.2-3.2 1.5-5 1.5h-64.6-20.3c-2.2 0-4.2-0.5-5.6-2.3-0.7-0.9-1.2-2.2-1.8-3.3zm70.4-31.2c1.2 0 2.8-0.5 4.3-1.5 0.6-0.4 1-0.4 1.6-0.1 3.2 1.8 6.4 1.7 9.4-0.3 2.9-1.9 4.4-4.6 4.2-8.1s-2-6.2-5.2-7.8c-3.1-1.5-6.2-1.2-9.1 0.7-0.4 0.2-0.6 0.4-1.1 0.1-5.3-3.4-12-0.3-13.6 5.1-1.7 5.8 2.8 12 9.5 11.9zm-46.2-6.9c-0.2-1.2-0.9-2-1.7-2.6-2-1.5-4.2-0.8-6.4-1v9h3v-5.4h5.1zm-10 5.4v-3.1c0-0.2-0.3-0.4-0.4-0.4h-2.6c-0.2 0-0.5 0.3-0.5 0.4v3.2c1.2-0.1 2.3-0.1 3.5-0.1zm6.8 0h3c0.5 0 0.6-0.2 0.6-0.6v-2.4c0-0.2-0.3-0.6-0.5-0.6-0.8-0.1-1.7-0.1-2.6 0-0.2 0-0.5 0.3-0.5 0.5v3.1zm-1.8 4.9v-2.5c0-0.2-0.3-0.5-0.5-0.5h-2.5v3h3zm-8.2-10.4h3.2v-3.2c-1.7 0.6-2.7 1.5-3.2 3.2zm3.2 10.2v-2.3c0-0.2-0.3-0.4-0.4-0.4h-2.6c0.5 1.3 1.5 2.1 3 2.7zm9.9-2.8h-3v2.7c1.4-0.5 2.4-1.3 3-2.7z"/>
			<path d="m654.2 466.4c-0.4 0.9-0.7 1.8-1.2 2.6-0.8 1.3-2 2-3.3 2.6-9.8 4-19.6 8-29.4 12-8.6 3.5-17.2 7-25.8 10.5-6.9 2.8-13.8 5.7-20.7 8.5-1.7 0.7-3.4 1.4-5.2 1.6-2.8 0.4-5.5-1.4-6.6-4-4-9.7-7.9-19.4-11.9-29.1-0.1-0.2-0.1-0.3-0.2-0.6h3.7c0.2 0 0.4 0.4 0.5 0.6 1.1 2.7 2.2 5.3 3.3 8 0.1 0.4 0.3 0.7 0.5 1.1l4.5-1.8c6.2-2.5 12.3-5.1 18.5-7.5 0.7-0.3 1.4-0.4 2.1-0.4h40 1c0 0.1 0 0.1 0.1 0.2-0.7 0.3-1.5 0.7-2.2 1-8.3 3.4-16.5 6.8-24.8 10.1-9.8 4-19.5 8-29.3 12-1 0.4-2.1 0.9-3.1 1.2-0.5 0.2-0.6 0.4-0.4 0.9 0.4 0.9 0.7 1.8 1.1 2.7 0.8 1.8 2.5 2.5 4.3 1.8 7.6-3.1 15.2-6.2 22.8-9.3 5.3-2.2 10.7-4.3 16-6.5 6.9-2.8 13.9-5.7 20.8-8.5 6.1-2.5 12.3-5 18.4-7.5l1.2-0.6c1.2-0.7 1.9-2 1.5-3.3s-1-2.6-1.5-4c-2.2 0.9-4.3 1.7-6.6 2.7v-1.1c0-5 0-24.3 0.2-27 0.6 1.4 1.2 2.8 1.7 4.1 2 4.8 3.9 9.6 5.9 14.4l4.2 10.5c-0.1 0.5-0.1 1.3-0.1 2.1z"/>
			<path d="m618.6 416.5h-5.2c-0.9 0-1.2 0.3-1.2 1.2h6.3c1.1 0 1.2 0.1 1.2 1.4h-1.8-5.3c-0.9 0-1.1 0.3-1 1.3h8.4c-0.1 0.5-0.1 0.9-0.2 1.4h-7.4c-0.2 0-0.7 0.1-0.7 0.2-0.1 0.3 0 0.6 0.2 0.8 0.1 0.2 0.5 0.2 0.7 0.2h5.8 0.9c-0.2 1.3-0.2 1.4-1.4 1.4h-4.6-0.9c0.1 0.9 0.5 1.1 1.3 1.1 1.4-0.1 2.8 0 4.4 0-0.6 0.8-1 1.4-2 1.4-1.3 0-2.5 0.1-3.8 0.7-3.3 1.5-6.8 0.4-8.9-2.5-1.9-2.7-1.7-6.3 0.5-9 1.9-2.3 5.6-3.3 8.1-1.8 1.5 0.9 3 0.9 4.6 0.9 1.3-0.1 1.6 0.1 2 1.3z"/>
		</g>
			<text font-size="8.0224" font-family="&apos;MyriadPro-Regular&apos;" transform="translate(547.12 462.59)" fill="#2196F3">Hyderabad</text>
			<text font-size="8.0224" font-family="&apos;MyriadPro-Regular&apos;" transform="translate(547.12 448.24)" fill="#2196F3">8801</text>
			<text font-size="8.0224" font-family="&apos;MyriadPro-Regular&apos;" transform="translate(569.77 448.24)" fill="#2196F3">5057</text>
			<text font-size="8.0224" font-family="&apos;MyriadPro-Regular&apos;" transform="translate(592.43 448.24)" fill="#2196F3">6588</text>
			<text font-size="8.0224" font-family="&apos;MyriadPro-Regular&apos;" transform="translate(615.09 448.24)" fill="#2196F3">0150</text>
	<g stroke="#808285" stroke-miterlimit="10">
		<g fill="#fff">
			<path d="m718.8 421.8c27.2 5.3 54.2 10.5 81.3 15.8-0.1 0.7-0.2 1.3-0.3 1.9-2.5 12.7-5 25.4-7.4 38.2-0.3 1.6-0.8 2.1-2.6 1.8-25.8-5.1-51.6-10.1-77.4-15.1-1.2-0.2-2.1-0.4-1.7-2.1 2.6-13.1 5.1-26.2 7.7-39.2 0.1-0.4 0.3-0.8 0.4-1.3zm39.7 11.8c-9-1.7-17.9-3.5-26.9-5.3-1.4-0.3-2.2 0-2.7 1.5-1 3-2.7 4.1-5.8 3.9-1.6-0.1-2.2 0.5-2.5 2-0.9 5.2-2 10.5-3.1 15.7-0.3 1.5 0.1 2.3 1.6 2.8 2.7 0.9 4.1 2.7 3.8 5.5-0.2 2.1 0.7 2.7 2.6 3 8.7 1.6 17.5 3.4 26.2 5.1 9 1.7 17.9 3.5 26.9 5.2 1.4 0.3 2.4 0.3 2.8-1.4 0.8-3.1 2.8-4.4 6-4.1 1.5 0.1 2.1-0.4 2.4-1.9 0.9-5.2 1.9-10.3 3-15.5 0.4-1.7 0.1-2.6-1.7-3.2-2.7-0.8-4.1-2.8-3.8-5.5 0.2-1.9-0.6-2.4-2.2-2.7-8.7-1.6-17.6-3.3-26.6-5.1z"/>
			<path d="m786.3 481.6c-1.2 2.4-2.3 4.6-3.5 6.9-8.1-4.1-16.1-8-24-12 0-0.1 0.1-0.2 0.1-0.3 9.1 1.9 18.1 3.6 27.4 5.4z"/>
			<path d="m751.4 425.1c-8.9-1.7-17.8-3.5-27-5.2 1-2.1 2-4.1 3-6.1 0.1-0.3 0.9-0.5 1.2-0.4 7.6 3.8 15.2 7.6 22.9 11.4 0 0 0 0.2-0.1 0.3z"/>
			<path d="m799.9 453.8c0.3-1.4 0.5-2.8 0.8-4.1 1.5 0.5 1.5 0.6-0.8 4.1z"/>
			<path d="m710.8 447.5c-0.3 1.8-0.6 3.1-0.9 4.4-1.4-0.7-1.3-1 0.9-4.4z"/>
			<path d="m784.6 441.5c0.4 3.6 1.9 6.3 5.1 8 0.3 0.2 0.5 0.9 0.4 1.2-0.8 4.4-1.7 8.7-2.6 13.1-0.1 0.4-0.6 0.9-0.9 0.9-3.6 0.4-6 2.4-7.6 5.6-0.8-0.1-1.5-0.3-2.2-0.4-16.3-3.2-32.6-6.4-48.8-9.5-1.3-0.3-2-0.6-2.2-2.1-0.3-2.5-1.8-4.5-4-5.8-0.9-0.5-1.2-1.1-0.9-2.1 0.9-4.1 1.6-8.2 2.5-12.3 0.1-0.5 0.8-1.2 1.4-1.3 2.8-0.6 4.9-2 6.5-4.4 0.3-0.5 1.2-0.9 1.7-0.8 17 3.1 34.2 6.5 51.6 9.9zm-26.7-3.5c-6.9-1.4-14 3.4-15.3 10.3-1.3 6.8 3.5 13.9 10.2 15.2 6.9 1.4 14-3.5 15.3-10.3 1.4-6.8-3.4-13.8-10.2-15.2z"/>
			<path d="m765.3 452.9c-1.2 5.7-6.3 9.1-12.1 7.9-5.7-1.2-9-6.3-7.9-12.1 1.2-5.7 6.4-9.1 12.1-7.9 5.8 1.1 9.1 6.3 7.9 12.1z"/>
		</g>
		<g fill="#FFC900">
			<path d="m801.3 446.5c0.6 0.3 1.2 0.6 1.7 0.9 1.4 1 2 2.9 1.3 4.5-0.4 1-0.9 1.9-1.4 2.8-4.2 7-6.4 14.7-7.6 22.8-0.7 4.7-1.5 5.1-6.1 4.8-1 2-2 4.1-3.1 6.1-1.4 2.8-3.1 3.3-5.8 2-10.3-5.1-20.6-10.3-30.9-15.4-1.3-0.7-2.8-1.1-4.2-1.4-11.2-2.2-22.4-4.4-33.5-6.6-3.2-0.6-4.2-2.1-3.5-5.3 0.2-1.2 0.4-2.5 0.7-3.7 0.4-1.7 0.9-3.2-1.4-4.3-1.5-0.7-1.7-2.6-0.9-4.3 1.7-3.3 3.4-6.5 4.9-9.9 0.9-2 1.6-4.2 2.2-6.3 0.8-3.5 1.4-7.1 2.1-10.7 0.5-2.6 2-3.7 4.5-3.3 1.1 0.2 1.6-0.3 2-1.1 0.8-1.6 1.6-3.2 2.4-4.9 1.4-2.8 3.2-3.4 5.9-2 10.1 5 20.1 10.1 30.2 15.1 1.6 0.8 3.4 1.4 5.1 1.8 11 2.2 22 4.3 33 6.5 3.5 0.7 4.4 2.1 3.7 5.5-0.4 2-0.9 4.2-1.3 6.4zm-82.5-24.7c-0.2 0.5-0.3 0.9-0.4 1.2-2.6 13.1-5.1 26.2-7.7 39.2-0.3 1.7 0.5 1.9 1.7 2.1 25.8 5 51.6 10 77.4 15.1 1.8 0.3 2.2-0.2 2.6-1.8 2.4-12.7 4.9-25.4 7.4-38.2 0.1-0.6 0.2-1.2 0.3-1.9-27.1-5.2-54.1-10.4-81.3-15.7zm67.5 59.8c-9.3-1.8-18.4-3.6-27.4-5.3 0 0.1-0.1 0.2-0.1 0.3 7.9 4 15.9 7.9 24 12l3.5-7zm-34.9-56.5c0-0.1 0.1-0.2 0.1-0.3-7.6-3.8-15.2-7.6-22.9-11.4-0.3-0.1-1.1 0.1-1.2 0.4-1 1.9-2 4-3 6.1 9.2 1.7 18.1 3.4 27 5.2zm48.5 28.7c2.3-3.5 2.3-3.6 0.8-4.1-0.2 1.3-0.5 2.7-0.8 4.1zm-89.1-6.3c-2.2 3.4-2.2 3.7-0.9 4.4 0.3-1.4 0.5-2.7 0.9-4.4z"/>
			<path d="m758.5 433.6c8.9 1.7 17.8 3.5 26.7 5.2 1.6 0.3 2.4 0.8 2.2 2.7-0.3 2.7 1.1 4.8 3.8 5.5 1.9 0.5 2.1 1.5 1.7 3.2-1.1 5.1-2.1 10.3-3 15.5-0.3 1.4-0.9 2-2.4 1.9-3.2-0.3-5.2 1-6 4.1-0.5 1.7-1.5 1.7-2.8 1.4-9-1.8-17.9-3.5-26.9-5.2-8.7-1.7-17.4-3.4-26.2-5.1-1.8-0.3-2.7-0.9-2.6-3 0.2-2.8-1.1-4.6-3.8-5.5-1.5-0.5-1.9-1.2-1.6-2.8 1.1-5.2 2.1-10.4 3.1-15.7 0.3-1.5 0.9-2.1 2.5-2 3.1 0.2 4.8-1 5.8-3.9 0.5-1.5 1.2-1.7 2.7-1.5 8.9 1.8 17.9 3.5 26.8 5.2zm26.1 7.9c-17.4-3.4-34.6-6.7-51.8-10-0.5-0.1-1.4 0.3-1.7 0.8-1.6 2.4-3.7 3.8-6.5 4.4-0.5 0.1-1.3 0.8-1.4 1.3-0.9 4.1-1.6 8.2-2.5 12.3-0.2 1 0.1 1.6 0.9 2.1 2.2 1.3 3.7 3.3 4 5.8 0.2 1.5 0.9 1.9 2.2 2.1 16.3 3.1 32.6 6.3 48.8 9.5 0.7 0.1 1.5 0.3 2.2 0.4 1.7-3.2 4.1-5.2 7.6-5.6 0.3 0 0.9-0.5 0.9-0.9 0.9-4.4 1.8-8.7 2.6-13.1 0.1-0.4-0.1-1.1-0.4-1.2-3-1.6-4.5-4.3-4.9-7.9z"/>
			<path d="m757.9 438c6.8 1.3 11.6 8.4 10.3 15.2-1.3 6.9-8.5 11.7-15.3 10.3-6.8-1.3-11.5-8.4-10.2-15.2 1.2-6.9 8.2-11.6 15.2-10.3zm7.4 14.9c1.2-5.8-2.2-10.9-7.8-12.1-5.7-1.2-10.9 2.2-12.1 7.9-1.2 5.8 2.1 10.9 7.9 12.1 5.7 1.1 10.8-2.2 12-7.9z"/>
			<path d="m754.4 460.2c-0.8-1.6-1.6-3.1-2.4-4.7-0.7-1.3-1.3-2.5-2-3.8v-0.1c0.1-0.5 0.2-0.9 0.3-1.4v-0.1c0.1 0 0.3 0.1 0.4 0.1 0.7 0.2 1.4 0.3 2.1 0.3 0.6 0 1.2 0 1.8-0.3 0.7-0.3 1.1-0.9 1.5-1.5 0-0.1 0.1-0.2 0.1-0.3-2-0.4-3.9-0.8-5.9-1.2l0.1-0.1c0.4-0.4 0.8-0.8 1.1-1.3 0.1-0.1 0.1-0.1 0.2-0.1l4.5 0.9h0.1v-0.2c-0.2-0.6-0.6-1-1.1-1.3s-1-0.5-1.6-0.7c-0.9-0.3-1.8-0.4-2.6-0.6h-0.1l0.1-0.1 1.2-1.2c0-0.1 0.1-0.1 0.2 0 1.8 0.3 3.6 0.7 5.4 1 1.5 0.3 2.9 0.6 4.4 0.8h0.1s0 0.1-0.1 0.1c-0.4 0.4-0.8 0.8-1.1 1.2 0 0.1-0.1 0.1-0.2 0.1-0.8-0.2-1.7-0.3-2.5-0.5h-0.1c0.3 0.6 0.6 1.1 0.6 1.8 0.9 0.2 1.9 0.3 2.9 0.5 0 0 0 0.1-0.1 0.1-0.4 0.4-0.8 0.8-1.1 1.2 0 0-0.1 0.1-0.2 0.1-0.6-0.1-1.1-0.2-1.7-0.3-0.1 0-0.1 0-0.1 0.1-0.3 0.9-0.9 1.6-1.8 2.1s-1.8 0.7-2.8 0.8h-1-0.1c0 0.1 0.1 0.1 0.1 0.2 1.4 2.8 2.8 5.6 4.3 8.4v0.1c-1.1 0.2-2 0-2.9-0.1z"/>
		</g>
	</g>
		<g fill="#fff">
			<path d="m526.9 566c18.9 11.6 37.7 23.2 56.6 34.8-0.3 0.5-0.5 0.9-0.7 1.4-5.4 8.9-10.9 17.7-16.3 26.6-0.7 1.1-1.2 1.4-2.4 0.6-17.9-11.1-35.9-22.1-53.9-33.1-0.9-0.5-1.4-0.9-0.7-2.1l16.8-27.3c0.2-0.3 0.4-0.5 0.6-0.9zm26.6 20.1c-6.3-3.8-12.5-7.7-18.7-11.5-1-0.6-1.6-0.6-2.4 0.4-1.6 1.9-3.2 2.3-5.5 1.3-1.2-0.5-1.8-0.2-2.4 0.8-2.2 3.7-4.4 7.3-6.7 10.9-0.7 1.1-0.6 1.7 0.4 2.5 1.8 1.4 2.3 3.2 1.3 5.2-0.7 1.5-0.2 2.2 1.1 3 6.1 3.7 12.2 7.5 18.2 11.2 6.2 3.8 12.5 7.7 18.7 11.5 0.9 0.6 1.7 0.9 2.5-0.3 1.5-2.1 3.3-2.5 5.7-1.4 1.1 0.5 1.7 0.3 2.3-0.7 2.2-3.6 4.4-7.2 6.6-10.8 0.8-1.2 0.8-1.9-0.4-2.9-1.8-1.3-2.3-3.3-1.3-5.2 0.7-1.4 0.2-2-0.9-2.6-6.1-3.8-12.3-7.6-18.5-11.4z"/>
			<path d="m560.8 630c-1.6 1.5-3 2.8-4.6 4.2-5-5.3-9.8-10.6-14.7-15.8l0.2-0.2c6.3 3.9 12.6 7.8 19.1 11.8z"/>
			<path d="m550.5 577.6c-6.2-3.8-12.4-7.6-18.8-11.5 1.4-1.3 2.7-2.5 4-3.7 0.2-0.2 0.8-0.1 1 0.1 4.7 5 9.3 10 14 15-0.1 0-0.1 0.1-0.2 0.1z"/>
			<path d="m578.9 612.9c0.6-1 1.2-1.9 1.8-2.9 0.9 0.8 0.9 0.9-1.8 2.9z"/>
			<path d="m513.7 583c-0.8 1.2-1.3 2.1-1.9 3.1-0.9-0.9-0.8-1.1 1.9-3.1z"/>
			<path d="m570.8 599.3c-0.7 2.8-0.3 5.3 1.6 7.4 0.2 0.2 0.1 0.8 0 1.1-1.8 3.1-3.7 6.1-5.6 9.1-0.2 0.3-0.7 0.5-1 0.4-2.8-0.7-5.1 0.1-7.3 2l-1.5-0.9c-11.3-7-22.7-13.9-34-20.9-0.9-0.6-1.3-1.1-1.1-2.2 0.5-2-0.1-3.9-1.4-5.5-0.5-0.7-0.6-1.1-0.1-1.8 1.8-2.8 3.5-5.7 5.3-8.6 0.2-0.4 1-0.7 1.4-0.6 2.3 0.3 4.3-0.1 6.1-1.5 0.4-0.3 1.2-0.3 1.5-0.1 12 7.3 24 14.7 36.1 22.1zm-19.1-10.1c-4.8-3-11.5-1.4-14.4 3.4-2.9 4.7-1.3 11.4 3.4 14.3 4.8 3 11.5 1.4 14.4-3.4 3-4.7 1.4-11.4-3.4-14.3z"/>
			<path d="m553.1 602.5c-2.5 4-7.3 5-11.3 2.5s-5-7.3-2.5-11.3c2.5-3.9 7.3-5 11.3-2.5 4 2.4 5 7.3 2.5 11.3z"/>
		</g>
		<g fill="#FFC900">
			<path d="m582 607.8c0.4 0.4 0.7 0.8 1 1.2 0.8 1.1 0.7 2.7-0.3 3.7-0.6 0.6-1.2 1.2-1.9 1.7-5.1 4.1-9 9.2-12.1 15-1.8 3.3-2.5 3.4-5.9 1.9-1.3 1.2-2.7 2.5-4 3.7-1.8 1.7-3.2 1.6-4.9-0.1-6.3-6.7-12.6-13.5-18.9-20.2-0.8-0.9-1.8-1.6-2.8-2.3-7.8-4.8-15.6-9.6-23.4-14.4-2.2-1.4-2.5-2.8-1.2-5 0.5-0.9 1-1.7 1.6-2.6 0.8-1.2 1.6-2.1 0.1-3.6-0.9-1-0.6-2.5 0.6-3.5 2.2-2 4.4-4 6.5-6.1 1.3-1.3 2.4-2.7 3.4-4.2 1.6-2.4 3.1-5 4.6-7.4 1.1-1.8 2.5-2.2 4.3-1.2 0.8 0.5 1.3 0.2 1.8-0.3 1-1 2.1-2 3.2-3 1.9-1.7 3.3-1.7 5 0.2 6.1 6.6 12.3 13.2 18.4 19.8 1 1 2.1 2 3.3 2.8 7.6 4.8 15.3 9.4 23 14.1 2.4 1.5 2.7 2.8 1.2 5.2-0.8 1.6-1.7 3.1-2.6 4.6zm-55.1-41.8c-0.3 0.4-0.5 0.6-0.6 0.8l-16.8 27.3c-0.7 1.2-0.1 1.5 0.7 2.1 18 11 36 22.1 53.9 33.1 1.2 0.8 1.7 0.5 2.4-0.6 5.4-8.9 10.9-17.7 16.3-26.6 0.3-0.4 0.5-0.9 0.7-1.4-18.8-11.5-37.6-23-56.6-34.7zm33.9 64c-6.5-4-12.8-7.9-19.1-11.7l-0.2 0.2c4.8 5.2 9.7 10.4 14.7 15.8 1.6-1.5 3-2.9 4.6-4.3zm-10.3-52.4l0.2-0.2c-4.6-5-9.3-10-14-15-0.2-0.2-0.8-0.2-1-0.1-1.3 1.2-2.6 2.4-4 3.7 6.4 4 12.6 7.8 18.8 11.6zm28.4 35.3c2.7-2 2.7-2.1 1.8-2.9-0.6 1-1.2 1.9-1.8 2.9zm-65.2-29.9c-2.6 2-2.7 2.2-1.9 3.1 0.5-0.9 1.1-1.8 1.9-3.1z"/>
			<path d="m553.5 586.1l18.6 11.4c1.1 0.7 1.6 1.3 0.9 2.6-1 2-0.5 3.9 1.3 5.2 1.2 0.9 1.2 1.7 0.4 2.9-2.3 3.6-4.5 7.2-6.6 10.8-0.6 1-1.2 1.3-2.3 0.7-2.3-1.1-4.2-0.7-5.7 1.4-0.8 1.2-1.6 0.9-2.5 0.3-6.2-3.8-12.5-7.7-18.7-11.5-6.1-3.7-12.1-7.5-18.2-11.2-1.3-0.8-1.8-1.4-1.1-3 1-2 0.5-3.8-1.3-5.2-1-0.8-1.1-1.5-0.4-2.5 2.3-3.6 4.5-7.2 6.7-10.9 0.6-1.1 1.2-1.4 2.4-0.8 2.3 1 3.9 0.6 5.5-1.3 0.8-1 1.4-1 2.4-0.4 6 3.8 12.3 7.7 18.6 11.5zm17.3 13.2c-12.1-7.4-24.1-14.8-36.1-22.1-0.4-0.2-1.2-0.2-1.5 0.1-1.9 1.4-3.9 1.8-6.1 1.5-0.4-0.1-1.2 0.2-1.4 0.6-1.8 2.8-3.5 5.7-5.3 8.6-0.5 0.7-0.4 1.2 0.1 1.8 1.3 1.6 1.8 3.5 1.4 5.5-0.3 1.2 0.1 1.7 1.1 2.2 11.4 6.9 22.7 13.9 34 20.9l1.5 0.9c2.2-1.9 4.5-2.7 7.3-2 0.3 0.1 0.8-0.2 1-0.4 1.9-3 3.8-6.1 5.6-9.1 0.2-0.3 0.2-0.9 0-1.1-1.9-2.1-2.3-4.6-1.6-7.4z"/>
			<path d="m551.7 589.2c4.7 2.9 6.3 9.5 3.4 14.3s-9.7 6.4-14.4 3.4c-4.7-2.9-6.3-9.6-3.4-14.3 3-4.8 9.6-6.4 14.4-3.4zm1.4 13.3c2.5-4 1.5-8.8-2.5-11.3s-8.8-1.4-11.3 2.5c-2.5 4-1.5 8.8 2.5 11.3s8.8 1.4 11.3-2.5z"/>
			<path d="m542.9 604.9c-0.2-1.4-0.3-2.8-0.5-4.2-0.1-1.1-0.3-2.3-0.4-3.4v-0.1l0.6-0.9c0.1 0.1 0.2 0.1 0.3 0.2l1.5 0.9c0.5 0.2 0.9 0.3 1.4 0.3 0.6 0 1.1-0.3 1.5-0.7l0.2-0.2c-1.4-0.8-2.7-1.7-4.1-2.5h0.1l1.2-0.6h0.1c1 0.7 2.1 1.3 3.1 2v-0.1c0-0.5-0.2-0.9-0.4-1.3-0.3-0.4-0.6-0.7-1-0.9l-1.8-1.2h-0.1 0.1c0.4-0.2 0.9-0.4 1.3-0.6h0.1c1.2 0.8 2.5 1.5 3.7 2.3 1 0.6 2 1.2 3 1.9h0.1-0.1l-1.2 0.6h-0.1c-0.6-0.4-1.2-0.7-1.7-1.1 0 0-0.1 0-0.1-0.1 0.1 0.5 0.1 1-0.1 1.5 0.7 0.4 1.3 0.8 2 1.2h-0.1l-1.2 0.6h-0.1c-0.4-0.2-0.8-0.5-1.2-0.7h-0.1c-0.5 0.6-1.2 1-2 1.1s-1.6 0-2.3-0.2c-0.3-0.1-0.5-0.2-0.8-0.3h-0.1v0.2c0.3 2.5 0.6 5 0.8 7.5v0.1c-0.4-0.6-1-0.9-1.6-1.3z"/>
		</g>
	<g stroke-miterlimit="10" stroke="#fff" stroke-width="2" stroke-linecap="round" fill="none">
			<line y2="599.4" x1="743.4" x2="754.9" y1="599.4"/>
			<line y2="605.1" x1="749.1" x2="749.1" y1="593.6"/>
	</g>
	<g stroke-miterlimit="10" stroke="#fff" stroke-width="2" stroke-linecap="round" fill="none">
			<line y2="586" x1="929.4" x2="940.9" y1="586"/>
			<line y2="591.7" x1="935.2" x2="935.2" y1="580.2"/>
	</g>
	<g stroke-miterlimit="10" stroke="#fff" stroke-width="2" stroke-linecap="round" fill="none">
			<line y2="621" x1="970.5" x2="982" y1="621"/>
			<line y2="626.7" x1="976.3" x2="976.3" y1="615.2"/>
	</g>
	<g stroke-miterlimit="10" stroke="#fff" stroke-width="2" stroke-linecap="round" fill="none">
			<line y2="497.5" x1="725" x2="736.5" y1="497.5"/>
			<line y2="503.3" x1="730.8" x2="730.8" y1="491.7"/>
	</g>
	<g stroke-miterlimit="10" stroke="#fff" stroke-width="2" stroke-linecap="round" fill="none">
			<line y2="408.2" x1="515.1" x2="526.6" y1="408.2"/>
			<line y2="413.9" x1="520.8" x2="520.8" y1="402.4"/>
	</g>
	<g stroke-miterlimit="10" stroke="#fff" stroke-width="2" stroke-linecap="round" fill="none">
			<line y2="437.2" x1="334.9" x2="346.4" y1="437.2"/>
			<line y2="442.9" x1="340.7" x2="340.7" y1="431.4"/>
	</g>
	<g stroke-miterlimit="10" stroke="#fff" stroke-width="2" stroke-linecap="round" fill="none">
			<line y2="627.5" x1="259.6" x2="271.1" y1="627.5"/>
			<line y2="633.3" x1="265.3" x2="265.3" y1="621.7"/>
	</g>
	<g stroke-miterlimit="10" stroke="#fff" stroke-width="2" stroke-linecap="round" fill="none">
			<line y2="394.6" x1="855.9" x2="867.4" y1="394.6"/>
			<line y2="400.3" x1="861.7" x2="861.7" y1="388.8"/>
	</g>
	<g stroke-miterlimit="10" stroke="#fff" stroke-width="2" stroke-linecap="round" fill="none">
			<line y2="423.4" x1="1091.2" x2="1102.7" y1="423.4"/>
			<line y2="429.1" x1="1096.9" x2="1096.9" y1="417.6"/>
	</g>
	<g stroke-miterlimit="10" stroke="#fff" stroke-width="2" stroke-linecap="round" fill="none">
			<line y2="629.4" x1="1103" x2="1114.5" y1="629.4"/>
			<line y2="635.2" x1="1108.7" x2="1108.7" y1="623.7"/>
	</g>
	<g stroke-miterlimit="10" stroke="#fff" stroke-width="2" stroke-linecap="round" fill="none">
			<line y2="516.9" x1="443.9" x2="455.5" y1="516.9"/>
			<line y2="522.7" x1="449.7" x2="449.7" y1="511.1"/>
	</g>
	<g stroke-miterlimit="10" stroke="#fff" stroke-width="2" stroke-linecap="round" fill="none">
			<line y2="522.8" x1="518.9" x2="530.4" y1="522.8"/>
			<line y2="528.5" x1="524.6" x2="524.6" y1="517"/>
	</g>
		<circle r="5.8" stroke-linecap="round" cy="556.4" stroke="#fff" cx="952.8" stroke-miterlimit="10" stroke-width="2" fill="none"/>
		<circle r="5.8" stroke-linecap="round" cy="530.4" stroke="#fff" cx="577.6" stroke-miterlimit="10" stroke-width="2" fill="none"/>
		<circle r="5.8" stroke-linecap="round" cy="401.9" stroke="#fff" cx="786.2" stroke-miterlimit="10" stroke-width="2" fill="none"/>
		<circle r="5.8" stroke-linecap="round" cy="503.4" stroke="#fff" cx="357.8" stroke-miterlimit="10" stroke-width="2" fill="none"/>
		<circle r="5.8" stroke-linecap="round" cy="601.3" stroke="#fff" cx="342.6" stroke-miterlimit="10" stroke-width="2" fill="none"/>
		<circle r="5.8" stroke-linecap="round" cy="498.8" stroke="#fff" cx="885.1" stroke-miterlimit="10" stroke-width="2" fill="none"/>
		<circle r="5.8" stroke-linecap="round" cy="511.7" stroke="#fff" cx="1108.7" stroke-miterlimit="10" stroke-width="2" fill="none"/>
		<circle r="5.8" stroke-linecap="round" cy="442.5" stroke="#fff" cx="1031.8" stroke-miterlimit="10" stroke-width="2" fill="none"/>
	<polyline fill="none" stroke="#2E3192" stroke-linecap="round" stroke-miterlimit="10" stroke-width="2" points="610.5 309.9 610.5 347.1 597 360.2 466.4 360.2 450.7 370.9 294.5 370.9 285.7 383.1 285.7 541.2"/>
	<polyline fill="none" stroke="#2E3192" stroke-linecap="round" stroke-miterlimit="10" stroke-width="2" points="637.4 309.9 637.4 354.8 624.5 370.9 504.5 370.9 490 385.5 490 524.1 477.3 535.5 477.3 546.6"/>
	<polyline fill="none" stroke="#2E3192" stroke-linecap="round" stroke-miterlimit="10" stroke-width="2" points="664.2 309.9 664.2 353.6 674.5 364.1 674.5 418.3 687.2 425.5 687.2 519.2"/>
	<polyline fill="none" stroke="#2E3192" stroke-linecap="round" stroke-miterlimit="10" stroke-width="2" points="717.8 309.9 717.8 348.6 726.8 355.7 789.1 355.7 805.9 362.6 926.4 362.6 937.6 379.1 937.6 451"/>
	<polyline fill="none" stroke="#2E3192" stroke-linecap="round" stroke-miterlimit="10" stroke-width="2" points="744.6 309.9 744.6 342.4 752.3 347.1 937.6 347.1 1021.5 347.1 1043.9 368.3 1043.9 466.5"/>
	<path id="globe-5" d="m943.8 475.3c-0.1-0.2 1-0.3 1.2-0.3 0.3 0.1-0.5 1.4-1.2 0.3zm-6.4-9.1c-0.1 0.2 0.3-0.1 0.3-0.1 0.2 0.2-0.2 0.3-0.2 0.4 0.3 0.5 0.1 0.7 0 1 0 0.3-0.3 0.1-0.4 0.3s0.9 0.2 0.9 0.2c0 0.1-1.1 0.3-0.9 0.5 0.3 0.4 2.5-0.6 2.1-0.5 0.7-0.3 0.1-0.4-0.3-0.6-0.1-0.6-0.2-1.6-0.6-2-0.1-0.1 0.3-0.2 0.3-0.3-0.7-0.9-1.2 1.1-1.2 1.1zm38.7 20.5c0 19.7-16 35.7-35.7 35.7s-35.7-16-35.7-35.7 16-35.7 35.7-35.7c19.7 0 35.7 16 35.7 35.7zm-24.7-16c0-0.4-0.6-0.8-1.1-0.1-0.4 0.5-0.3 1.3-0.5 1.7-0.3 0.5 1.7 1 1.7 0.5 0.1-0.8 2.2-0.2 2.6-0.1 0.7 0.2 1.9-0.7 0.6-1.1-1.1-0.4-1.6-0.8-1.7-1.6 0 0 0.6-0.5 0.3-0.5-0.7 0.2-1.9 2.4-1.9 1.2zm18.7 16c0-3.1-0.5-6.2-1.1-7.8-0.2-0.5-0.6-0.9-1.1-1.1-0.8-0.3-4 1.8-4.5 0.8-0.3-0.7-1 0.4-1.7 0-0.4-0.2-1.4-1.5-1.8-1.4-0.9 0.3 1.4 2.9 2 3.2 0.6-0.5 2.5-1.4 2.9-0.1 0.8 2.4-2.2 5-3.7 6.4-2.3 2.1-1.9-1.3-3.4-2.5-0.8-0.6-0.8-2-1.6-2.4-0.4-0.2-2.1-2.2-2-2.4v0.5c-0.3 0.2-0.9-0.8-0.9-1 0 0.9 1.4 2.3 1.9 3 0.8 1.2 1.2 3 2.2 3.9 0.5 0.5 2.6 2.7 3.1 2.7 0.6 0 2.4-1.4 2.7-1.3 1.9 0.5-4.5 9.5-5.1 10.7-0.5 0.9 0.4 3.3 0.3 4.4-0.1 1.3-1.1 1.7-2.1 2.4-1 0.8-0.8 2.2-1.7 2.7-1.5 0.9-2.6 4-4.8 4-0.6 0-3.4 1.1-3.7 0-0.3-0.8-0.7-1.3-1-2.1-0.4-0.7 0-1.5-0.5-2.2-0.3-0.5-1.4-1.5-1.5-2 0-0.5 0.3-1.9 0.8-2.1 0.7-0.3 0.1-1.4 0-2-0.1-1.1-0.8-1.9-1.6-2.5-1.2-0.9-0.6-1.6-0.3-2.9 0-0.6-0.4-1.4-1.2-1.2-1.7 0.5-1.2-1.3-2.4-1.2-0.9 0.1-1.6 0.6-2.4 0.9-1 0.3-2.1-0.2-3.1-0.4-4.2-0.5-5.5-5.3-4.5-8.8 0.1-0.6-0.3-1.6-0.1-2 0.5-1 1.4-2.2 2.3-3 0.5-0.4 1.1-0.3 1.6-0.7 0.9-0.5 0.9-1.6 1.7-2.3 1.2-1 2.8-0.9 4.4-1.2 0.8-0.1 4-0.8 4.5-0.2 0 0.1 0.6 1.8-0.1 1.7 1.3 0.1 3.1 2.2 4.3 1.7 0.6-0.3 0.4-2.2 1.7-1.3 0.8 0.6 4.3 0.8 5 0.2 0.4-0.4 0.7-2.8 0.2-3 0.3 0.3-1.8 0.4-2 0.3-0.4-0.1-0.7 0.3-1.3 0.1 0.3 0.2-1.9-1.1-0.6-2-0.5 0.4-1-0.1-1.6 0.3-0.4 0.3 0.2 0.5-0.4 0.8-0.9 0.5-1.6-1.6-1.9-1.8s-3-2.1-2.3-0.9c0.5 0.9 2.6 2.1 2.3 2.3-0.1 0.1-0.6-0.9-0.6-0.2 0.2-0.4 0.1 1.7-0.3 1-0.2-0.3 0.3-0.4 0-0.8 0-0.3-0.7-0.5-0.8-0.7-0.4-0.5-1.4-1.5-1.9-1.7-0.1-0.1-2.3 0.3-2.5 0.3-0.2 0.3-0.4 0.6-0.5 0.9-0.4 0.2-0.9 0.4-1.2 0.6-0.3 0.3-0.2 0.8-0.5 1-0.2 0.2-2.3 0.9-2.3 0.9 0.1-0.2-1.4-0.5-1.3-1s0.6-2 0.5-2.6 3.2 0.8 3.4-0.7c0.1-0.7 0.1-1.4-0.9-1.6 0.2 0 2.1-0.7 2.4-1.1 0.4-0.5 1.4-1.3 2.2-1.3s0.7-1.2 1.1-1.8c0.4 0.2-0.2 1.1 0.3 1.5 0-0.3 1.3 0.2 1.5 0.1 0.3-0.2 2-0.1 1.8-0.9-0.3-0.8 0.2-0.6 0.5-0.8-0.1 0 1-1.8 1.2-1.2-0.1-0.6-1.3 0.2-1.6 0.2-0.9-0.1-0.5-1.5-0.2-2 0.3-0.3-0.7-0.8-0.7-0.1 0 1-0.9 1.9-0.7 3.2 0.3 2-2.2-0.5-2.4-0.3-0.8 0.5-1.5-0.6-1.1-1.3s1.5-0.7 1.9-1.4c0.3-0.5 0.7-1.1 1.1-1.5 1.6-1.3 2-0.3 3.6-0.1 1.6 0.1 0.5 0.4 0.3 1s0.9 0.8 1.2 0.3c0.2-0.3 0.7-1 0.9-1.5 0.3-0.7 2.7-0.6 1-1.6-1.1-0.7-6-2-9.2-2-0.7 0-1.2 0.8-1.7 1.2-1.1 0.9-3.8 2.6-5.3 2.1s-4.8 2-5.4 2c-0.2 0 0-1.9 1.1-2-0.5 0.1 3.7-2.1 3.6-2.6s-8.3 2.4-8 3c0.2 0.3 0.9 0.3 0 0.9-0.5 0.3-1.1 2.4-1.6 2.4-1.5 0.7-1.6-1.3-3.3 1.2-0.3 0.5-2.1 0.5-2.7 1.1-3.9 4.2-6.7 9.5-7.7 15.4 0 0.2 1 0.7 1.1 0.8 0.3 0.4 0.3 2.1 0.5 2.7 0.4 1.4 1.4 2.2 2.2 3.5 0.5 0.8 1.2 2.7 1 3.5 0.3-0.5 3.2 2.4 3.7 3 1.2 1.4 2.2 3.2 0.2 4.6-0.6 0.5 1 3.4 0.1 4.1-0.1 0.1-0.8 0.1-1.1 0.3-1.1 0.7-0.6 2.2 0.1 2.9 5.4 5.7 13 9.2 21.5 9.2 16.3 0.4 29.6-12.9 29.6-29.3zm-34.2-18.9c0.4-0.2 0.9-0.2 0.9-0.7 0-0.4 0.1-0.1 0.2-0.3s-0.2-0.4-0.3-0.4c-0.2 0-0.3 0.2-0.4 0.3s-0.1 0-0.2 0.1-0.1 0.2-0.2 0.3 0 0.1 0 0.1c0 0.1-0.2 0.3-0.3 0.3-0.2 0.3 0.1 0.4 0.3 0.3 0.1 0-0.1 0.1 0 0z" fill="#fff"/>
		<path stroke="#231F20" stroke-miterlimit="10" d="m1070.5 619.2h-54.3c-4 0-7.3-3.2-7.3-7.3v-116.9c0-4 3.2-7.3 7.3-7.3h54.3c4 0 7.3 3.2 7.3 7.3v117c0 4-3.3 7.2-7.3 7.2z" fill="#D1D3D4"/>
		<rect height="12.3" width="16.1" stroke="#603913" stroke-miterlimit="10" y="555.4" x="1019" fill="#fff"/>
		<rect height="48.5" width="48.8" stroke="#D1D3D4" stroke-miterlimit="10" y="500.7" x="1019" fill="#fff"/>
		<rect height="12.3" width="16.1" stroke="#603913" stroke-miterlimit="10" y="567.7" x="1019" fill="#fff"/>
		<rect height="12.3" width="16.1" stroke="#603913" stroke-miterlimit="10" y="580" x="1019" fill="#fff"/>
		<rect height="12.3" width="16.1" stroke="#603913" stroke-miterlimit="10" y="592.3" x="1019" fill="#FC495F"/>
		<rect height="12.3" width="16.1" stroke="#603913" stroke-miterlimit="10" y="555.4" x="1035.3" fill="#fff"/>
		<rect height="12.3" width="16.1" stroke="#603913" stroke-miterlimit="10" y="567.7" x="1035.3" fill="#fff"/>
		<rect height="12.3" width="16.1" stroke="#603913" stroke-miterlimit="10" y="580" x="1035.3" fill="#fff"/>
		<rect height="12.3" width="16.1" stroke="#603913" stroke-miterlimit="10" y="592.3" x="1035.3" fill="#fff"/>
		<rect height="12.3" width="16.1" stroke="#603913" stroke-miterlimit="10" y="555.4" x="1051.7" fill="#fff"/>
		<rect height="12.3" width="16.1" stroke="#603913" stroke-miterlimit="10" y="567.7" x="1051.7" fill="#fff"/>
		<rect height="12.3" width="16.1" stroke="#603913" stroke-miterlimit="10" y="580" x="1051.7" fill="#fff"/>
		<rect height="12.3" width="16.1" stroke="#603913" stroke-miterlimit="10" y="592.3" x="1051.7" fill="#309172"/>
		<line y2="493.1" x2="1070.3" stroke="#414042" stroke-miterlimit="10" y1="493.1" x1="1017.8" fill="none"/>
		<line y2="585" x2="1073.8" stroke="#414042" stroke-miterlimit="10" y1="508.2" x1="1073.8" fill="none"/>
		<path d="m1064.8 467c-0.5 0-1-0.2-1.3-0.5-0.3 0.3-0.8 0.5-1.3 0.5s-1-0.2-1.3-0.5c-0.3 0.3-0.8 0.5-1.3 0.5s-1-0.2-1.3-0.5c-0.3 0.3-0.8 0.5-1.3 0.5s-1-0.2-1.3-0.5c-0.3 0.3-0.8 0.5-1.3 0.5s-1-0.2-1.3-0.5c-0.3 0.3-0.8 0.5-1.3 0.5s-1-0.2-1.3-0.5c-0.3 0.3-0.8 0.5-1.3 0.5s-1-0.2-1.3-0.5c-0.3 0.3-0.8 0.5-1.3 0.5s-1-0.2-1.3-0.5c-0.3 0.3-0.8 0.5-1.3 0.5s-1-0.2-1.3-0.5c-0.3 0.3-0.8 0.5-1.3 0.5s-1-0.2-1.3-0.5c-0.3 0.3-0.8 0.5-1.3 0.5s-1-0.2-1.3-0.5c-0.3 0.3-0.8 0.5-1.3 0.5s-1-0.2-1.3-0.5c-0.3 0.3-0.8 0.5-1.3 0.5s-1-0.2-1.3-0.5c-0.3 0.3-0.8 0.5-1.3 0.5s-1-0.2-1.3-0.5c-0.3 0.3-0.8 0.5-1.3 0.5s-1-0.2-1.3-0.5c-0.3 0.3-0.8 0.5-1.3 0.5s-1-0.2-1.3-0.5c-0.3 0.3-0.8 0.5-1.3 0.5h-0.4v26.1h43.1v-26.1h-1.1z" fill="#fff"/>
		<text font-size="10.876" font-family="&apos;MyriadPro-Regular&apos;" transform="translate(1029.1 528.53)">TOTAL</text>
	<circle r="4.8" cy="347" stroke="#2E3192" cx="845" stroke-miterlimit="10" stroke-width="2" fill="#fff"/>
	<circle r="4.8" cy="385.8" stroke="#2E3192" cx="674.6" stroke-miterlimit="10" stroke-width="2" fill="#fff"/>
	<circle r="4.8" cy="370.5" stroke="#2E3192" cx="577.6" stroke-miterlimit="10" stroke-width="2" fill="#fff"/>
	<circle r="4.8" cy="370.4" stroke="#2E3192" cx="419.6" stroke-miterlimit="10" stroke-width="2" fill="#fff"/>
	<circle r="4.8" cy="392.7" stroke="#2E3192" cx="937.6" stroke-miterlimit="10" stroke-width="2" fill="#fff"/>
		<path stroke="#58595B" stroke-width=".5" stroke-miterlimit="10" d="m571.2 637.3c1.1 0.1 2.3 0.3 3.4 0.3h163.9c1.1 0 2.3-0.2 3.4-0.3v2.8c-1.7 0-3.5-0.1-5.2-0.1h-160.3c-1.7 0-3.5 0.1-5.2 0.1v-2.8z" fill="#fff"/>
		<path stroke="#58595B" stroke-width=".5" stroke-miterlimit="10" d="m742 640.7v2.8h-170.8v-2.8c23 0 45.9-0.1 68.9-0.1 34 0.1 67.9 0.1 101.9 0.1z" fill="#fff"/>
		<path stroke="#58595B" stroke-width=".5" stroke-miterlimit="10" d="m742 555c-1.3 0.1-2.5 0.3-3.8 0.3h-163.2c-1.3 0-2.5-0.2-3.8-0.3v-2.1c1.2 0.1 2.3 0.2 3.5 0.2h163.8c1.2 0 2.3-0.1 3.5-0.2v2.1z" fill="#fff"/>
		<path stroke="#58595B" stroke-width=".5" stroke-miterlimit="10" d="m737.2 551c-1.7-0.6-3.6-0.9-5.1-1.9-23.4-14.4-46.8-28.9-70.1-43.5-3.9-2.4-6.9-2.4-10.8 0-23.1 14.5-46.3 28.8-69.5 43.1-1.7 1-3.7 1.6-5.5 2.3-0.2-0.3-0.3-0.6-0.5-0.9 0.7-0.5 1.4-1.1 2.2-1.6 24.8-15.5 49.6-30.9 74.4-46.4 2.9-1.8 5.5-2 8.4-0.2l75 46.8c0.7 0.4 1.3 0.9 1.9 1.3-0.2 0.4-0.3 0.7-0.4 1z" fill="#fff"/>
		<path stroke="#58595B" stroke-width=".5" stroke-miterlimit="10" d="m575.7 636.1c-1-2.7 0.1-3.6 2.6-3.5 3 0.1 6 0 8.9 0 1-3.6 1.1-7.2 5.4-8.3v-55.6c-4.1-1.2-4.5-4.6-5.2-8.4h-11.7v-3.6h162.2v3.5h-11.8c-0.9 3.6-0.9 7.3-5.5 8.4v3.3 49.1c0 1.8-0.1 3.1 2.3 4.2 1.8 0.9 2.3 4.3 3.9 7.4 2.2 0 5.3 0.1 8.4 0 2.5-0.1 3.5 0.7 2.6 3.5h-162.1zm62.1-3.6c0.9-3.5 0.9-7.1 5.2-8.1v-55.7c-4.3-1.1-4.5-4.7-5.1-8.2h-13.1c-0.9 3.5-0.9 7.3-5.4 8.2v53.8c0 0.7 0.1 1.9 0.4 1.9 4.3 1 3.9 4.9 5.1 8.1h12.9zm55.8-8.2v-55.8c-4.6-0.8-4.3-4.9-5.3-8h-13c-0.5 3.7-0.9 7-5 8.1v55.7c4.3 1 4.3 4.7 5.2 8.1h12.9c0.7-4.6 2.1-7.5 5.2-8.1zm-48.5-27.8v21.2c0 1.8-0.1 3.8 2.4 3.8 2.5 0.1 2.5-1.9 2.5-3.7 0-14 0.1-28-0.1-42.1 0-1.3-1.4-3.7-2.3-3.8-2.5-0.2-2.5 2.1-2.5 4v20.6zm9 0v21.2c0 1.8-0.1 3.8 2.3 3.8 2.5 0.1 2.5-1.9 2.5-3.7 0-14 0.1-28-0.1-42 0-1.3-1.4-3.6-2.3-3.8-2.3-0.3-2.5 1.8-2.4 3.6 0.1 7 0 13.9 0 20.9zm-36.8 0.3v-20.9c0-1.9 0.2-4.1-2.5-4.1-2.4 0-2.2 2.2-2.2 4v41.8c0 1.7-0.3 3.8 2.3 3.9 2.5 0 2.4-2 2.4-3.8v-20.9zm45.9-0.1v20.9c0 1.8-0.2 3.8 2.3 3.9s2.5-2 2.5-3.7v-41.8c0-1.9 0.1-4.1-2.5-4.1-2.4 0.1-2.3 2.2-2.3 4v20.8zm46.2 0.1v-21.2c0-1.8 0-3.9-2.4-3.6-0.9 0.1-2 2.3-2 3.5-0.1 14.2-0.1 28.3-0.1 42.5 0 1.7-0.1 3.5 2.3 3.5 2.3 0 2.3-1.8 2.3-3.5-0.1-7.1-0.1-14.1-0.1-21.2zm-110.1-0.1v-21.2c0-1.7 0.1-3.5-2.2-3.6s-2.4 1.7-2.4 3.4v42.8c0 1.7 0.1 3.5 2.4 3.4 2.4-0.1 2.2-1.9 2.2-3.6v-21.2zm9 0.5v-21.9c0-1.8-0.2-3.6-2.4-3.3-0.9 0.1-2.1 2-2.1 3.2-0.1 14.4-0.1 28.8 0 43.2 0 1.1 1.2 3 2.1 3.1 2.2 0.4 2.4-1.5 2.4-3.3v-21zm92.1-0.4v-21.2c0-1.8 0.1-4-2.4-3.6-0.9 0.1-2.1 2.3-2.1 3.5-0.1 14.1-0.1 28.3-0.1 42.5 0 1.7 0 3.5 2.3 3.5 2.4 0.1 2.3-1.8 2.3-3.4v-21.3zm18-0.3v-20.5c0-1.9 0.3-4.1-2.4-4.1-2.5 0.1-2.2 2.3-2.2 4v41.8c0 1.7-0.4 3.8 2.2 3.9 2.5 0 2.4-2 2.4-3.8v-21.3z" fill="#fff"/>
		<path stroke="#58595B" stroke-width=".5" stroke-miterlimit="10" d="m742 640.7c-34 0-67.9-0.1-101.9-0.1-23 0-45.9 0-68.9 0.1v-0.7c1.7 0 3.5-0.1 5.2-0.1h160.3c1.7 0 3.5 0.1 5.2 0.1 0.1 0.3 0.1 0.5 0.1 0.7z" fill="#fff"/>
		<g fill="#58595B">
			<path d="m645.1 596.5v-20.5c0-1.9-0.1-4.2 2.5-4 0.9 0.1 2.3 2.4 2.3 3.8 0.2 14 0.1 28 0.1 42.1 0 1.8 0 3.8-2.5 3.7s-2.4-2.1-2.4-3.8v-21.3z"/>
			<path d="m654.1 596.5v-20.8c0-1.8 0.2-4 2.4-3.6 1 0.1 2.3 2.4 2.3 3.8 0.2 14 0.1 28 0.1 42 0 1.8-0.1 3.8-2.5 3.7-2.5-0.1-2.4-2-2.3-3.8v-21.3z"/>
			<path d="m617.3 596.8v20.9c0 1.8 0.1 3.8-2.4 3.8-2.6 0-2.3-2.2-2.3-3.9v-41.8c0-1.7-0.2-3.9 2.2-4 2.7-0.1 2.5 2.2 2.5 4.1v20.9z"/>
			<path d="m663.2 596.7v-20.9c0-1.8-0.2-3.9 2.3-4 2.7-0.1 2.5 2.2 2.5 4.1v41.8c0 1.8 0.1 3.8-2.5 3.7-2.5-0.1-2.3-2.1-2.3-3.9v-20.8z"/>
			<path d="m709.4 596.8v21.2c0 1.7 0 3.5-2.3 3.5-2.4 0-2.3-1.8-2.3-3.5 0-14.2-0.1-28.3 0.1-42.5 0-1.2 1.2-3.4 2-3.5 2.4-0.3 2.4 1.8 2.4 3.6 0.1 7 0.1 14.1 0.1 21.2z"/>
			<path d="m599.3 596.7v21.2c0 1.6 0.2 3.5-2.2 3.6-2.3 0.1-2.4-1.7-2.4-3.4v-42.8c0-1.7 0.1-3.5 2.4-3.4s2.2 2 2.2 3.6v21.2z"/>
			<path d="m608.3 597.2v20.9c0 1.7-0.1 3.7-2.4 3.3-0.9-0.1-2.1-2-2.1-3.1-0.1-14.4-0.2-28.8 0-43.2 0-1.1 1.2-3 2.1-3.2 2.2-0.3 2.4 1.6 2.4 3.3v22z"/>
			<path d="m700.4 596.8v21.2c0 1.7 0.1 3.5-2.3 3.4-2.3-0.1-2.3-1.8-2.3-3.5 0-14.2 0-28.3 0.1-42.5 0-1.2 1.2-3.4 2.1-3.5 2.5-0.3 2.4 1.8 2.4 3.6v21.3z"/>
			<path d="m718.4 596.5v21.2c0 1.8 0.2 3.8-2.4 3.8s-2.2-2.2-2.2-3.9v-41.8c0-1.7-0.3-3.9 2.2-4 2.7-0.1 2.4 2.2 2.4 4.1v20.6z"/>
		</g>
		<path stroke="#58595B" stroke-width=".5" stroke-miterlimit="10" d="m575.2 637.5h162.3v-1.4h-162.3v1.4z" fill="#fff"/>
		<path stroke="#58595B" stroke-width=".5" stroke-miterlimit="10" d="m575.1 555.3v1.4h162.6v-1.4h-162.6z" fill="#fff"/>
		<g fill="#fff">
			<path d="m642.4 539.1h-0.7v2.5h0.8c0.9 0 1.7-0.3 1.7-1.3 0.1-0.9-0.8-1.2-1.8-1.2z"/>
			<path d="m644 536.5c0-0.7-0.5-1-1.4-1-0.4 0-0.7 0-0.9 0.1v2.1h0.7c1.1-0.1 1.6-0.5 1.6-1.2z"/>
			<path d="m651.1 535.6c-0.2 0.5-0.3 1.2-0.4 1.7l-0.5 1.9h2l-0.6-1.9c-0.3-0.5-0.4-1.2-0.5-1.7z"/>
			<path d="m727.6 548.5c-22.2-13.8-44.4-27.5-66.5-41.3-3.2-2-5.7-2-8.9 0-17.5 11-35.1 21.8-52.6 32.7-5.5 3.4-10.9 6.8-17.1 10.7h148.1c-1.4-1-2.2-1.6-3-2.1zm-82.2-6.2c-0.7 0.5-1.7 0.8-3.5 0.8-1 0-1.7-0.1-2.2-0.1v-8.8c0.5-0.1 1.6-0.2 2.6-0.2 1.2 0 2 0.1 2.6 0.5 0.6 0.3 1.1 0.9 1.1 1.8 0 0.8-0.5 1.5-1.5 1.9 1 0.3 1.8 1 1.8 2.2 0.1 0.8-0.3 1.5-0.9 1.9zm7.6 0.7l-0.7-2.3h-2.6l-0.6 2.3h-2.1l2.7-9h2.7l2.8 9h-2.2zm-3.1-20.8s-0.1-0.1-0.1-0.2v-1.6-0.1h1.2c0.8 0 1.6 0 2.4-0.2 0.7-0.2 1.4-0.4 1.9-0.9 0.6-0.6 1-1.3 1.1-2.1v-0.2h-7.2v-0.1c0.4-0.6 0.7-1.2 1.1-1.8l0.1-0.1c1.8 0 3.7 0.1 5.5 0.1h0.1c-0.1-0.3-0.3-0.6-0.6-0.8-0.5-0.5-1.1-0.7-1.7-0.9-0.9-0.2-1.8-0.3-2.7-0.3h-2.1l0.1-0.1c0.4-0.6 0.8-1.1 1.1-1.7 0-0.1 0.1-0.1 0.2-0.1h12 0.1c0 0.1-0.1 0.1-0.1 0.1-0.4 0.6-0.7 1.1-1.1 1.7 0 0.1-0.1 0.1-0.2 0.1h-3.1-0.1c0.2 0.3 0.5 0.6 0.7 1 0.2 0.3 0.3 0.7 0.4 1.1h3.5c0 0.1-0.1 0.1-0.1 0.1-0.4 0.6-0.7 1.1-1.1 1.7 0 0.1-0.1 0.1-0.2 0.1h-2.1c-0.1 0-0.1 0-0.1 0.1 0 0.2-0.1 0.5-0.2 0.7-0.4 1.2-1.1 2-2.1 2.7s-2.1 1-3.3 1.2c-0.2 0-0.4 0.1-0.6 0.1l0.1 0.1c2.1 2.7 4.3 5.5 6.4 8.2 0.3 0.3 0.5 0.7 0.8 1h-3.2c-0.4-0.5-0.8-1-1.2-1.6-1.7-2.4-3.7-4.8-5.6-7.3zm13.9 20.8h-2.1l-1.9-3.5c-0.5-1-1.1-2.1-1.6-3.2 0.1 1.2 0.1 2.4 0.1 3.9v2.7h-1.9v-9h2.4l1.9 3.3c0.5 0.9 1.1 2.1 1.5 3.1-0.1-1.2-0.2-2.4-0.2-3.7v-2.6h1.9v9zm6.7 0l-2.2-3.9-0.8 0.9v2.9h-2v-9h2v4c0.2-0.3 0.4-0.7 0.6-1l2-3h2.5l-3 3.8 3.1 5.1h-2.2z"/>
		</g>
			<path stroke="#808285" stroke-miterlimit="10" d="m444.1 483.6l-48.7 16c-1.6 0.5-3.3-0.3-3.9-1.9l-24.1-73.4c-0.5-1.6 0.3-3.3 1.9-3.9l48.7-16c1.6-0.5 3.3 0.3 3.9 1.9l24.1 73.4c0.6 1.6-0.3 3.3-1.9 3.9z" fill="#fff"/>
				<rect transform="matrix(.3119 .9501 -.9501 .3119 677.89 -85.548)" height="49.4" width="12.2" y="400.5" x="391.9" fill="#2196F3"/>
				<rect transform="matrix(.9501 -.3119 .3119 .9501 -112.77 145.35)" height="11" width="48.1" y="419.8" x="374" fill="#fff"/>
				<rect transform="matrix(.9501 -.3119 .3119 .9501 -120.19 142.46)" height="10.3" width="10.3" y="441.8" x="380.1" fill="#5D5D5D"/>
				<rect transform="matrix(.9501 -.3119 .3119 .9501 -118.37 145.99)" height="10.3" width="10.3" y="437.9" x="392.1" fill="#5D5D5D"/>
				<rect transform="matrix(.9501 -.3119 .3119 .9501 -116.54 149.53)" height="10.3" width="10.3" y="433.9" x="404" fill="#5D5D5D"/>
				<rect transform="matrix(.9501 -.3119 .3119 .9501 -114.72 153.06)" height="10.3" width="10.3" y="430" x="416" fill="#5D5D5D"/>
				<rect transform="matrix(.9501 -.3119 .3119 .9501 -124.32 144.59)" height="10.3" width="10.3" y="455.8" x="384.7" fill="#5D5D5D"/>
				<rect transform="matrix(.9501 -.3119 .3119 .9501 -122.49 148.12)" height="10.3" width="10.3" y="451.8" x="396.6" fill="#5D5D5D"/>
				<rect transform="matrix(.9501 -.3119 .3119 .9501 -120.67 151.66)" height="10.3" width="10.3" y="447.9" x="408.6" fill="#5D5D5D"/>
				<rect transform="matrix(.9501 -.3119 .3119 .9501 -118.85 155.19)" height="10.3" width="10.3" y="444" x="420.6" fill="#5D5D5D"/>
				<rect transform="matrix(.9501 -.3119 .3119 .9501 -128.44 146.71)" height="10.3" width="10.3" y="469.7" x="389.3" fill="#5D5D5D"/>
				<rect transform="matrix(.9501 -.3119 .3119 .9501 -126.62 150.25)" height="10.3" width="10.3" y="465.8" x="401.2" fill="#5D5D5D"/>
				<rect transform="matrix(.9501 -.3119 .3119 .9501 -124.8 153.78)" height="10.3" width="10.3" y="461.9" x="413.2" fill="#5D5D5D"/>
				<rect transform="matrix(.9501 -.3119 .3119 .9501 -122.98 157.32)" height="10.3" width="10.3" y="458" x="425.2" fill="#5D5D5D"/>
				<rect transform="matrix(.9501 -.3119 .3119 .9501 -132.57 148.84)" height="10.3" width="10.3" y="483.7" x="393.9" fill="#5D5D5D"/>
				<rect transform="matrix(.9501 -.3119 .3119 .9501 -130.75 152.37)" height="10.3" width="10.3" y="479.8" x="405.8" fill="#5D5D5D"/>
				<rect transform="matrix(.9501 -.3119 .3119 .9501 -128.93 155.91)" height="10.3" width="10.3" y="475.9" x="417.8" fill="#5D5D5D"/>
				<rect transform="matrix(.9501 -.3119 .3119 .9501 -127.11 159.44)" height="10.3" width="10.3" y="471.9" x="429.7" fill="#5D5D5D"/>
			<text font-size="7.2475" font-family="&apos;MyriadPro-Regular&apos;" transform="matrix(.9501 -.3119 .3119 .9501 376.05 434.61)" fill="#6D6E71">1.61803398875</text>
		<path d="m815.5 603.4c7.6 6.2 15.1 12.3 22.6 18.4 0.3 0.3 0.6 0.8 0.6 1.3v24.9h-14.6v-25.2h-17.2v25.2h-14.5c0-0.3-0.1-0.5-0.1-0.7v-24.1c0-0.5 0.3-1.1 0.6-1.4 7.5-6.1 15-12.2 22.6-18.4z" fill="#fff"/>
		<path d="m849.8 616.8c-2 2.4-3.9 4.8-5.9 7.2-9.5-7.7-18.9-15.4-28.4-23.1-9.5 7.7-18.9 15.4-28.4 23.1-2-2.4-3.9-4.8-5.9-7.2 11.5-9.3 22.8-18.6 34.3-27.9 11.4 9.3 22.8 18.6 34.3 27.9z" fill="#5D5D5D"/>
		<polygon points="838.6 604.9 824.1 593.4 824.1 591.4 838.6 591.4" fill="#fff"/>
		<path d="m911.5 603.7c5.9 0.1 11.8 0.1 17.7 0.2 0.3 0 0.6 0.1 0.9 0.1 2.9 0.2 5.8 0.4 8.7 0.8 2.1 0.3 4.2 0.7 6.1 1.6 7 3.2 13.7 6.7 20.2 10.8 0.2 0.2 0.5 0.3 0.8 0.3 7 0.6 14 1.5 20.9 3.1 2.5 0.6 5 1.4 7.5 2.2 0.8 0.3 1.6 0.8 2.1 1.5 1.3 1.6 2.1 3.4 2.7 5.3 0.1 0.2 0.1 0.4 0.2 0.5 1 0.8 0.9 1.8 0.8 2.9-0.1 1.6-0.4 3.2-0.4 4.8 0 0.9-0.3 1.4-1.2 1.7-1.3 0.4-2.4 1.1-3.7 1.3-1.6 0.3-3.3 0.4-5 0.6-1.9 0.3-3.7 0.6-5.6 0.9-0.3 0-0.6 0.2-0.7 0.5-1.7 3.3-4.5 5-8.1 5.1-4.7 0.2-8.5-1.4-11-5.6-0.2-0.4-0.4-0.4-0.8-0.4-0.9 0.2-1.8 0.3-2.7 0.3-2.5 0-5-0.1-7.5-0.1-14-0.3-28-0.5-42.1-0.8-0.5 0-0.8 0-1.1 0.5-0.1 0.2-0.5 0.3-0.8 0.3-0.9 0-1.9-0.1-2.8-0.1-0.4 0-0.6 0.1-0.7 0.5-0.8 2-2.2 3.4-4.1 4.3-1 0.5-2 0.8-3 1.2-1.9 0-3.8 0-5.7-0.1l-0.1-0.1c-3.5-1-6-3.1-7-6.7-0.1-0.2-0.4-0.4-0.6-0.4-0.7-0.1-1.5 0-2.2-0.1-3.8-0.6-7.6-1.2-11.5-1.7-1.8-0.2-3.5-0.5-4.8-1.9-0.5-0.6-1.1-1.2-1.6-1.8v-0.5c0.5-0.3 0.7-0.7 0.6-1.3-0.1-1.2-0.3-2.4-0.4-3.7-0.1-1.2 0.1-2.4 1.2-3.2 0.2-0.1 0.2-0.5 0.2-0.7 0.1-1.9 0.1-3.8 0.3-5.6 0.2-1.4 0.5-2.8 0.9-4.2 0.2-0.7 0.6-1.2 1.5-1.3 2-0.2 3.9-0.5 5.9-0.7 2.2-0.2 4.3-0.7 6.3-1.7 2.3-1.2 4.7-2.2 7-3.3 6.2-3.1 12.9-4.7 19.8-5 1-0.1 2-0.2 2.9-0.3zm41.1 10.5c-7.2-6.4-15.7-8.5-25.1-8.2 1.1 3.1 2.1 6.2 3.1 9.2 0.6 1.8 1.3 2.3 3.2 2.4 4.4 0.2 8.8 0.5 13.2 0.7 1.2 0.1 2.3 0 3.4 0-0.9-1.1-1.1-1.7-0.7-2.6 0.6-1.2 1.6-1.6 2.9-1.5zm-28.8-8.4c-5.9-0.1-11.7-0.1-17.4 1.1 0.4 3.2 0.7 6.4 1 9.6h2.4c4.6 0.2 9.3 0.4 13.9 0.6 1.3 0.1 1.9-0.5 1.7-1.7-0.5-3.2-1.1-6.4-1.6-9.6zm50.5 39.1c4.1 0 7.4-3.2 7.4-7.2 0.1-4.1-3.2-7.4-7.2-7.5-4.1-0.1-7.4 3.2-7.5 7.3 0 4.1 3.3 7.4 7.3 7.4zm-78.2 0.3c4 0 7.3-3.2 7.4-7.3 0-4-3.2-7.4-7.3-7.4-4 0-7.4 3.3-7.4 7.4 0 4 3.2 7.3 7.3 7.3zm9.4-38.2c-0.5 0.1-0.9 0.2-1.3 0.3-2.7 0.7-5.2 1.8-7.5 3.4-0.9 0.6-1.5 1.4-1.3 2.6 0.3 1.6 1.4 2.5 3 2.6 1.5 0.1 2.9 0.1 4.4 0.2h3.7c-0.3-2.9-0.7-5.9-1-9.1zm-33.1 17.2c0-1.6 0.1-3.1 0-4.7-0.1-1.3-0.6-2.5-1.7-3.3-1.2-0.9-1.7-0.8-2.1 0.7-0.4 1.7-0.6 3.4-0.8 5.1-0.1 0.7 0 1.4 0 2.1 1.5 0 3 0.1 4.6 0.1zm124.9 4.7c-0.3-1.2-1.8-3.3-2.8-3.9-0.2-0.1-0.4-0.1-0.6-0.1-1.1 0.1-2.1 0.1-3.2 0.2-0.4 0.1-1 0.3-1.2 0.7-0.6 0.9-1 2-1.6 3.1 3.3-0.1 6.3 0 9.4 0zm-64-6.6h2c0.4 0 0.8-0.1 0.8-0.6s-0.4-0.7-0.8-0.7h-4c-0.5 0-0.9 0.2-0.8 0.7 0 0.2 0.5 0.6 0.8 0.6 0.6 0.1 1.3 0 2 0zm-30.5-2.3c-0.7 0-1.4-0.1-2.1 0-0.3 0-0.7 0.3-0.7 0.6-0.1 0.4 0.3 0.7 0.7 0.7 1.4 0 2.8 0.1 4.2 0 0.3 0 0.5-0.4 0.8-0.6-0.3-0.2-0.5-0.6-0.8-0.6-0.7-0.1-1.4-0.1-2.1-0.1z" fill="#FC495F"/>
		<path d="m952.6 614.2c-1.3-0.1-2.3 0.3-2.8 1.5-0.4 0.9-0.2 1.5 0.7 2.6h-3.4c-4.4-0.2-8.8-0.4-13.2-0.7-1.9-0.1-2.5-0.5-3.2-2.4-1-3.1-2.1-6.1-3.1-9.2 9.2-0.3 17.8 1.7 25 8.2z" fill="#D1D3D4"/>
		<path d="m923.8 605.8c0.6 3.3 1.1 6.5 1.6 9.6 0.2 1.3-0.3 1.8-1.7 1.7-4.6-0.2-9.3-0.4-13.9-0.6h-2.4c-0.4-3.2-0.7-6.4-1-9.6 5.7-1.2 11.5-1.2 17.4-1.1z" fill="#D1D3D4"/>
		<path d="m905.5 607c0.3 3.1 0.7 6.2 1 9.2h-3.7c-1.5 0-2.9-0.1-4.4-0.2-1.6-0.1-2.7-1-3-2.6-0.2-1.2 0.4-2 1.3-2.6 2.3-1.6 4.8-2.7 7.5-3.4 0.4-0.1 0.8-0.2 1.3-0.4z" fill="#D1D3D4"/>
		<path d="m872.4 624.2h-4.6c0-0.7-0.1-1.4 0-2.1 0.2-1.7 0.4-3.4 0.8-5.1 0.4-1.5 0.9-1.6 2.1-0.7 1.1 0.8 1.7 2 1.7 3.3 0.1 1.4 0 2.9 0 4.6z" fill="#D1D3D4"/>
		<path d="m997.3 628.9c-3.1 0-6.2-0.1-9.3-0.1 0.5-1.1 1-2.1 1.6-3.1 0.2-0.4 0.8-0.6 1.2-0.7 1.1-0.2 2.1-0.2 3.2-0.2 0.2 0 0.4 0 0.6 0.1 0.9 0.7 2.4 2.8 2.7 4z" fill="#D1D3D4"/>
		<path d="m933.3 622.3h-2c-0.3 0-0.7-0.4-0.8-0.6-0.1-0.5 0.3-0.7 0.8-0.7h4c0.4 0 0.8 0.1 0.8 0.7 0 0.5-0.4 0.6-0.8 0.6h-2z" fill="#D1D3D4"/>
		<path d="m902.8 620h2c0.3 0 0.5 0.4 0.8 0.6-0.3 0.2-0.5 0.6-0.8 0.6-1.4 0.1-2.8 0-4.2 0-0.4 0-0.8-0.2-0.7-0.7 0.1-0.3 0.5-0.6 0.7-0.6 0.8 0 1.5 0.1 2.2 0.1z" fill="#D1D3D4"/>
			<path d="m974.5 630.9c-3.7-0.1-6.8 2.9-6.8 6.6s2.9 6.7 6.6 6.8c3.7 0 6.7-2.9 6.8-6.6s-2.9-6.8-6.6-6.8zm-0.1 11c-2.4 0-4.2-2-4.2-4.3 0-2.4 2-4.3 4.4-4.2 2.3 0 4.2 2 4.2 4.4-0.1 2.2-2.1 4.1-4.4 4.1z" fill="#58595B"/>
			<path d="m974.4 641.3c-2.1 0-3.7-1.7-3.7-3.8s1.7-3.7 3.8-3.7c2 0 3.7 1.7 3.7 3.8-0.1 2.1-1.8 3.7-3.8 3.7z" fill="#808285"/>
			<path d="m896.2 631c-3.7-0.1-6.8 2.9-6.8 6.6s2.9 6.7 6.6 6.8c3.7 0 6.7-2.9 6.8-6.6 0-3.6-3-6.7-6.6-6.8zm-0.2 11c-2.4 0-4.2-2-4.2-4.3 0-2.4 2-4.3 4.4-4.2 2.3 0 4.2 2 4.2 4.4-0.1 2.3-2 4.2-4.4 4.1z" fill="#58595B"/>
			<path d="m896 641.5c-2.1 0-3.7-1.7-3.7-3.8s1.7-3.7 3.8-3.7c2 0 3.7 1.7 3.7 3.8-0.1 2.1-1.7 3.7-3.8 3.7z" fill="#808285"/>
	<polyline fill="none" stroke="#2E3192" stroke-linecap="round" stroke-miterlimit="10" stroke-width="2" points="691 308.1 691 371.1 704.4 380.2 816.2 380.2 826.2 391.1 826.2 511.1"/>
	<g fill="#fff">
		<path d="m435.8 562.2c-6.1 0-10.9-4.7-10.9-10.8s4.7-10.9 10.8-10.9 10.9 4.8 11 10.8c0 6-4.9 10.9-10.9 10.9z"/>
			<path d="m457.5 546.4c-0.5 0-1.3 0.5-1.4 1-0.9 2.1-1.6 4.3-2.4 6.6 1.4 0.1 2.5 0.2 3.7 0.3-2.8 10.6-5.6 21-8.4 31.4-9.5-1.4-12.1-4-13-13-0.1-0.7-0.1-1.3-0.2-2-0.4-5.3-4.4-9.6-9.5-10.3-5-0.7-8.7 1.7-10.5 7.7-2.1 6.9-4 13.9-5.3 20.9-0.7 3.6 0 7.4 0.3 11.1 0.1 1.8 0.9 3.5 1.1 5.3 0.2 1.9 0 3.9 0 5.9 0 9.9-0.1 19.9 0 29.8 0 5 4.5 8.1 8.8 6.2 3-1.3 3.8-3.9 3.8-6.9 0-11.4 0-22.9 0.1-34.3 0-1 0.5-2 1-2.9 1-1.7 2.4-3.3 3-5.1 1.1-3.5 1.8-7.2 2.7-11.3 3.8 5.6 9.4 6.6 14.9 8.1-0.1 1.1-0.3 2.1-0.4 3.3h9.1v49.9h28.2v-101.7c-8.6-0.1-17.1-0.1-25.6 0zm8.1 2.5h5.4v0.8h-2.2v6.5h-1v-6.5h-2.2v-0.8zm-3 0h1.1l2.5 7.3h-1l-0.8-2.3h-2.6l-0.8 2.3h-1l2.6-7.3zm9.2 22.2h3.9c0 0.1 0 0.1-0.1 0.1-0.4 0.6-0.8 1.3-1.2 1.9 0 0.1-0.1 0.1-0.2 0.1h-2.4c-0.1 0-0.1 0-0.2 0.1-0.2 1.3-0.8 2.4-1.9 3.3-1 0.9-2.3 1.4-3.6 1.8-0.5 0.1-0.9 0.2-1.4 0.3h-0.1c0.1 0.1 0.1 0.2 0.2 0.3 2.6 3.4 5.3 6.8 7.9 10.1l0.1 0.1h-3.6c-1.5-1.9-3-3.7-4.5-5.6l-3.6-4.5s-0.1-0.1-0.1-0.2v-1.9-0.1h0.6c1 0 2 0.1 3-0.1 0.8-0.1 1.6-0.4 2.3-0.9 0.8-0.6 1.3-1.5 1.6-2.4 0-0.1 0.1-0.3 0.1-0.4h-8.2c0-0.1 0.1-0.1 0.1-0.1 0.4-0.7 0.8-1.3 1.2-2 0.1-0.1 0.1-0.1 0.2-0.1 2.1 0 4.2 0.1 6.3 0.1h0.1c0-0.1-0.1-0.1-0.1-0.2-0.4-0.7-1-1.2-1.8-1.5-0.7-0.3-1.5-0.4-2.3-0.5-1.2-0.1-2.5-0.1-3.7-0.1h-0.1s0-0.1 0.1-0.1c0.4-0.7 0.9-1.3 1.3-2 0.1-0.1 0.1-0.1 0.2-0.1h7.5 6.1 0.2c0 0.1-0.1 0.1-0.1 0.1-0.4 0.6-0.8 1.3-1.2 1.9-0.1 0.1-0.1 0.1-0.2 0.1h-3.5-0.2c0.7 0.9 1.3 1.5 1.3 2.5zm6.4-14.9l-0.2-3.2c-0.1-1-0.1-2.2-0.1-3.2-0.3 0.9-0.6 1.8-0.9 2.8l-1.3 3.6h-0.7l-1.2-3.5c-0.3-1-0.6-2-0.8-2.8 0 0.9-0.1 2.1-0.1 3.2l-0.2 3.1h-0.9l0.5-7.3h1.2l1.2 3.5c0.3 0.9 0.6 1.7 0.7 2.5 0.2-0.7 0.4-1.5 0.8-2.5l1.3-3.5h1.2l0.5 7.3h-1z"/>
			<path d="m463.5 551.1c-0.2-0.5-0.3-0.9-0.4-1.3-0.1 0.4-0.2 0.9-0.4 1.3l-0.7 2.1h2.2l-0.7-2.1z"/>
	</g>
			<path d="m347.4 574.8l-62.9 40.9c-4.6 3-10.7 1.7-13.6-2.9l-25.9-39.7c-3-4.6-1.7-10.7 2.9-13.6l62.9-40.9c4.6-3 10.7-1.7 13.6 2.9l25.8 39.6c3 4.6 1.7 10.7-2.8 13.7z" fill="#5D5D5D"/>
				<rect transform="matrix(.8385 -.5449 .5449 .8385 -260.45 254.25)" height="51.8" width="79.5" y="540.5" x="258.9" fill="#fff"/>
			<circle cy="590.4" cx="261.8" r="3.1" fill="#fff"/>
				<rect transform="matrix(.8385 -.5449 .5449 .8385 -242.14 269.87)" height="17.4" width=".8" y="534.7" x="333.8" fill="#fff"/>
		<path d="m312.7 557.1c0-0.1-0.1-0.1-0.1-0.2 0.6-1.3 1.1-2.5 1.7-3.8 0.8-1.8 1.7-3.7 3-5.2 0.6-0.7 1.3-1.3 2.2-1.6 1.8-0.6 3.4-0.3 4.9 0.8 0.3 0.2 3.4 3.1 1.5 6.5-0.9 1.5-2.1 2.3-3.6 2.6-1.7 0.3-3.4 0.5-5.1 0.6-1.6 0.3-3 0.3-4.5 0.3zm7.5-7.4c-0.8 0.5-1.1 1.8-0.6 2.6 0.6 0.9 1.5 1.2 2.6 0.6 0.7-0.3 1-1.7 0.7-2.4-0.7-1.2-1.9-1.2-2.7-0.8z" fill="#2196F3"/>
			<text font-size="10.876" font-family="&apos;MyriadPro-Regular&apos;" transform="matrix(.5694 .8221 -.8221 .5694 289.12 556.01)" fill="#2196F3"><tspan y="0" x="0">Online</tspan><tspan y="13.1" x="-3.4">Banking</tspan></text>
		<path d="m827.5 575.8h-44.8c-2.6 0-3.6-0.7-4.3-3.2-0.1-0.4-0.1-1 0.2-1.4 2.6-4.4 5.3-8.8 7.9-13.2 0.4-0.6 0.8-0.9 1.5-0.9h78.8c0.8 0 1.2 0.3 1.6 0.9 2.5 4.2 5 8.3 7.4 12.4 1.4 2.3-0.1 5.1-2.8 5.3h-1.1c-14.9 0.1-29.7 0.1-44.4 0.1zm-41.1-8.9c1 0.1 1.6 0.1 2.2 0.1h77.7 0.9c1.2-0.1 1.3-0.3 0.8-1.3-1-1.9-2.2-3.7-3.1-5.7-0.7-1.5-1.7-1.8-3.2-1.8h-68.4c-0.4 0-0.9-0.1-1.3 0s-1 0.3-1.2 0.6c-1.5 2.7-2.9 5.2-4.4 8.1zm30.7 4.4h19.1c-0.1-0.6-0.1-1.1-0.2-1.6-0.2-1.7-0.2-1.7-2-1.7h-13.9c-3 0-3 0-3.1 3 0 0 0.1 0.1 0.1 0.3z" fill="#5D5D5D"/>
		<path d="m787.1 557v-1.5-47.1c0-1.8 0.1-1.9 1.8-1.9h76.8c1.7 0 1.8 0.1 1.8 1.7v47.8c0 0.3 0 0.7-0.1 1.1-26.7-0.1-53.4-0.1-80.3-0.1zm40.3-3.4v-0.2h35.2c1.7 0 1.7 0 1.7-1.8v-39.6c0-2.1 0-2.1-2-2.1h-70c-2 0-2 0.1-2 2.1v39.5c0 2 0.1 2.1 2.1 2.1h35zm-0.1-44.2h1.9c0.9 0.1 1.2-0.3 1.2-1.2s-0.4-1.3-1.3-1.3c-1.2 0-2.4 0.1-3.5 0-1 0-1.2 0.4-1.3 1.3 0 1 0.4 1.2 1.3 1.2h1.7z" fill="#5D5D5D"/>
		<path d="m786.4 566.9c1.6-2.9 2.9-5.4 4.4-7.9 0.2-0.3 0.7-0.5 1.2-0.6 0.4-0.1 0.8 0 1.3 0h68.4c1.5 0 2.5 0.4 3.2 1.8 0.9 1.9 2.1 3.8 3.1 5.7 0.5 1 0.4 1.2-0.8 1.3h-0.9-77.7c-0.7-0.2-1.3-0.2-2.2-0.3zm47.9-2.2h-22.1c-0.3 0-0.5 0.3-0.8 0.5 0.1 0.1 0.1 0.2 0.2 0.3h3.8 17.9c0.4 0.1 1.2 0.4 1-0.8zm-44.2-1.9c0 0.1 0.1 0.2 0.1 0.3h10.2c0.3 0 0.5-0.4 0.7-0.6-3.5-0.3-6.9-0.3-10.3-0.3-0.2 0-0.4 0.4-0.7 0.6zm61.8 2.7c-0.3-0.3-0.5-0.7-0.7-0.7-1.9-0.1-3.8 0-5.8 0 0.3 0.9 2.6 1.2 6.5 0.7zm-53.5-5.7c-2.3-0.5-6.4-0.3-6.9 0.4 1.5 0.5 6.1 0.3 6.9-0.4zm-9.7 5.8h4.2c0.3 0 0.7-0.4 1-0.6-4.2-0.5-4.8-0.4-5.2 0.6zm8.6-0.1c3 0.3 3.4 0.2 3.6-0.8-1.2 0.3-2.5-0.5-3.6 0.8zm35.3-3.2c0.3 0.9 0.8 1 3.2 0.7-0.1-1-0.4-1.1-3.2-0.7zm10.2 0.6c-0.4-0.9-1.6-1.1-3.2-0.6 0.3 0.9 0.8 1 3.2 0.6zm3.9-0.6c0.2 0.9 1.2 1.1 3.2 0.6-0.4-0.9-0.6-0.9-3.2-0.6zm-38.6 2.5c-3-0.2-3.1-0.2-3.3 0.8 3 0.2 3 0.2 3.3-0.8zm33.4 0.8c0.1-0.1 0.1-0.2 0.2-0.3-0.2-0.2-0.5-0.5-0.7-0.6-0.7-0.1-1.4-0.1-2.1 0-0.2 0-0.4 0.3-0.6 0.4 0.2 0.1 0.4 0.4 0.6 0.4 0.9 0.2 1.8 0.1 2.6 0.1zm17.3 0c-0.3-1-0.4-1-3.4-0.8 0.4 1 0.7 1.1 3.4 0.8zm-54.4-2.7c2.4 0.4 3 0.3 3.3-0.6-2.1-0.4-2.9-0.2-3.3 0.6zm10.4-0.4c0-0.1-0.1-0.2-0.1-0.3h-2.5c-0.2 0-0.4 0.3-0.7 0.4 0.2 0.2 0.4 0.4 0.6 0.5 0.6 0.1 1.3 0.1 1.9 0 0.2-0.1 0.5-0.4 0.8-0.6zm43.2 0.6c-0.6-1.1-2.1-1.3-3.6-0.7 1.1 1.2 2.3 0.4 3.6 0.7zm7.5 2.4c-0.8-1.5-2.2-0.5-3.2-0.7 0.7 1.5 2.1 0.5 3.2 0.7zm-46.9-3.3v0.6c1 0.1 2 0.1 3 0.2 0 0 0.2-0.3 0.1-0.4s-0.3-0.3-0.4-0.3c-1-0.1-1.8-0.1-2.7-0.1zm10.4 0h-2.9c-0.2 0-0.3 0.3-0.5 0.4 0.2 0.2 0.3 0.4 0.5 0.4 0.7 0 1.5 0.1 2.2 0 0.2 0 0.4-0.4 0.7-0.8zm32.1 0c0.5 1 1.5 1.2 3.4 0.7-1.1-1.3-2.3-0.5-3.4-0.7zm-7.7-2.5c0.5 0.9 2.1 1 3.7 0.3-1.3-0.6-2.5-0.3-3.7-0.3zm-29.1-0.1c-1.2 0.1-2.2 0.1-3.1 0.2 1.2 0.9 2.7 0.7 3.1-0.2zm38.8 0.6v-0.4c-1.1 0-2.1-0.1-3.3-0.1 0.6 0.8 1.9 1 3.3 0.5zm-35.1-0.4c1.1 0.8 2.5 0.7 3 0h-3zm16.7 0h-3.1c0.6 0.8 2 0.8 3.1 0zm3.2-0.2c0.7 0.9 2.1 1 3.4 0.3-1.1-0.5-2.2-0.2-3.4-0.3zm-46.7 0.6c1 0 2.1 0.6 3-0.3-1.1-0.2-2.1-0.6-3 0.3zm9.9 0.1c-1.3-0.9-2.9-0.8-3.4 0h3.4zm3.4-0.1c1.5 0.4 2.6 0.3 3-0.3-1.3-0.5-2.4-0.4-3 0.3zm20.3-0.6c0.6 0.7 2.8 1 3.1 0.6 0.1-0.1-0.2-0.6-0.3-0.6h-2.8z" fill="#fff"/>
		<path d="m817.1 571.3c-0.1-0.1-0.1-0.2-0.1-0.3 0.1-3 0.1-3 3.1-3h13.9c1.8 0 1.8 0 2 1.7 0.1 0.5 0.1 1 0.2 1.6h-19.1z" fill="#fff"/>
		<path d="m827.4 553.6h-35.1c-2 0-2.1-0.1-2.1-2.1v-39.5c0-2 0.1-2.1 2-2.1h70c2 0 2 0 2 2.1v39.6c0 1.8 0 1.8-1.7 1.8h-35.2c0.1 0.1 0.1 0.2 0.1 0.2zm-5-22c1.4-1.2 2.7-2.4 4.2-3.7-6.3-2.3-12.2-4.4-18.4-6.6 2.6 6.1 5.1 11.9 7.7 17.8 1.3-1.4 2.5-2.7 3.8-4.1 3.1 2.9 6.2 5.8 9.3 8.6 1-1.1 2-2.1 2.9-3.2-3.2-2.8-6.2-5.7-9.5-8.8z" fill="#fff"/>
		<path d="m827.3 509.4h-1.6c-0.9 0.1-1.3-0.2-1.3-1.2 0-0.9 0.3-1.3 1.3-1.3 1.2 0.1 2.4 0 3.5 0 0.9 0 1.3 0.4 1.3 1.3s-0.4 1.2-1.2 1.2h-2z" fill="#fff"/>
		<path d="m834.3 564.7c0.3 1.1-0.5 0.9-1 0.9h-17.9-3.8c-0.1-0.1-0.1-0.2-0.2-0.3 0.3-0.2 0.5-0.5 0.8-0.5 7.3-0.1 14.7-0.1 22.1-0.1z"/>
		<path d="m790.1 562.8c0.2-0.2 0.5-0.6 0.7-0.6 3.4 0 6.8 0 10.3 0.3-0.2 0.2-0.5 0.6-0.7 0.6h-10.2c0-0.1 0-0.2-0.1-0.3z"/>
		<path d="m851.9 565.5c-3.9 0.4-6.2 0.2-6.5-0.8h5.8c0.2 0.1 0.4 0.5 0.7 0.8z"/>
		<path d="m798.4 559.8c-0.8 0.7-5.4 0.9-6.9 0.4 0.5-0.6 4.6-0.9 6.9-0.4z"/>
		<path d="m788.7 565.6c0.4-1 1-1.1 5.1-0.6-0.3 0.2-0.7 0.5-1 0.6-1.3 0.1-2.7 0-4.1 0z"/>
		<path d="m797.3 565.5c1.2-1.3 2.5-0.5 3.6-0.8-0.2 1-0.7 1.2-3.6 0.8z"/>
		<path d="m832.6 562.3c2.8-0.3 3.1-0.3 3.2 0.7-2.4 0.3-2.9 0.2-3.2-0.7z"/>
		<path d="m842.8 562.9c-2.4 0.3-2.9 0.2-3.2-0.6 1.6-0.4 2.8-0.2 3.2 0.6z"/>
		<path d="m846.7 562.3c2.6-0.3 2.8-0.2 3.2 0.6-2 0.4-3 0.2-3.2-0.6z"/>
		<path d="m808.1 564.8c-0.2 1-0.2 1-3.3 0.8 0.2-1 0.3-1 3.3-0.8z"/>
		<path d="m841.5 565.6h-2.6c-0.2 0-0.4-0.3-0.6-0.4 0.2-0.2 0.4-0.4 0.6-0.4 0.7-0.1 1.4-0.1 2.1 0 0.3 0 0.5 0.4 0.7 0.6l-0.2 0.2z"/>
		<path d="m858.8 565.6c-2.7 0.3-3.1 0.2-3.4-0.8 3-0.2 3.1-0.2 3.4 0.8z"/>
		<path d="m804.4 562.9c0.4-0.9 1.3-1 3.3-0.6-0.4 0.9-0.9 1-3.3 0.6z"/>
		<path d="m814.8 562.5c-0.3 0.2-0.5 0.5-0.8 0.6-0.6 0.1-1.3 0.1-1.9 0-0.2 0-0.4-0.3-0.6-0.5 0.2-0.1 0.4-0.4 0.7-0.4h2.5c0 0.1 0 0.2 0.1 0.3z"/>
		<path d="m858 563.1c-1.3-0.3-2.5 0.4-3.6-0.7 1.5-0.5 3-0.3 3.6 0.7z"/>
		<path d="m865.5 565.5c-1.1-0.3-2.5 0.8-3.2-0.7 1.1 0.3 2.4-0.7 3.2 0.7z"/>
		<path d="m818.6 562.2h2.6c0.2 0 0.4 0.2 0.4 0.3 0.1 0.1-0.1 0.4-0.1 0.4-1 0-2-0.1-3-0.2 0 0 0.1-0.3 0.1-0.5z"/>
		<path d="m829 562.2c-0.4 0.5-0.5 0.8-0.7 0.8-0.7 0.1-1.5 0.1-2.2 0-0.2 0-0.3-0.3-0.5-0.4 0.2-0.1 0.3-0.4 0.5-0.4 0.9-0.1 1.7 0 2.9 0z"/>
		<path d="m861.1 562.2c1.2 0.2 2.4-0.5 3.4 0.7-1.9 0.4-2.9 0.3-3.4-0.7z"/>
		<path d="m853.4 559.7c1.2 0 2.3-0.2 3.7 0.3-1.6 0.7-3.2 0.5-3.7-0.3z"/>
		<path d="m824.3 559.6c-0.4 1-1.8 1.1-3.1 0.2 0.9-0.1 1.9-0.2 3.1-0.2z"/>
		<path d="m863.1 560.2c-1.5 0.5-2.7 0.4-3.3-0.6 1.2 0.1 2.3 0.1 3.3 0.1 0.1 0.2 0.1 0.3 0 0.5z"/>
		<path d="m828 559.8h3c-0.5 0.8-1.9 0.9-3 0z"/>
		<path d="m844.7 559.8c-1.1 0.9-2.5 0.8-3.1 0h3.1z"/>
		<path d="m847.9 559.6c1.2 0.1 2.2-0.3 3.4 0.3-1.2 0.8-2.7 0.7-3.4-0.3z"/>
		<path d="m801.2 560.2c0.9-0.9 1.9-0.5 3-0.3-1 0.9-2 0.3-3 0.3z"/>
		<path d="m811.1 560.3h-3.4c0.5-0.8 2.1-0.9 3.4 0z"/>
		<path d="m814.5 560.2c0.5-0.7 1.6-0.8 3-0.3-0.4 0.6-1.5 0.7-3 0.3z"/>
		<path d="m834.8 559.6h2.7c0.1 0 0.4 0.5 0.3 0.6-0.2 0.5-2.4 0.2-3-0.6z"/>
		<path d="m822.4 531.6c3.3 3.1 6.4 6 9.4 8.9-1 1-1.9 2-2.9 3.2-3.1-2.9-6.1-5.7-9.3-8.6-1.3 1.4-2.4 2.7-3.8 4.1-2.5-5.9-5-11.6-7.7-17.8 6.2 2.2 12.2 4.4 18.4 6.6-1.4 1.2-2.7 2.4-4.1 3.6z"/>
	<circle r="4.8" cy="380.4" stroke="#2E3192" cx="744.7" stroke-miterlimit="10" stroke-width="2" fill="#fff"/>
</svg>
