<?xml version="1.0" encoding="UTF-8" standalone="no"?>
<!-- Generator: Adobe Illustrator 18.0.0, SVG Export Plug-In . SVG Version: 6.00 Build 0)  -->
<!DOCTYPE svg  PUBLIC '-//W3C//DTD SVG 1.1//EN'  'http://www.w3.org/Graphics/SVG/1.1/DTD/svg11.dtd'>
<svg id="Layer_1" xmlns="http://www.w3.org/2000/svg" xml:space="preserve" viewBox="0 0 1366 648" version="1.1" y="0px" x="0px" xmlns:xlink="http://www.w3.org/1999/xlink" enable-background="new 0 0 1366 648">
	<defs>
		<rect id="SVGID_1_" width="1366" height="648"/>
	</defs>
	<clipPath id="SVGID_2_">
		<use overflow="visible" xlink:href="#SVGID_1_"/>
	</clipPath>
	<linearGradient id="SVGID_3_" y2="648.63" gradientUnits="userSpaceOnUse" x2="683" y1="-1.3886" x1="683">
		<stop stop-color="#81C784" offset="0"/>
		<stop stop-color="#4CAF50" offset="1"/>
	</linearGradient>
	<rect height="648" width="1366" fill="url(#SVGID_3_)" clip-path="url(#SVGID_2_)"/>
	<g clip-path="url(#SVGID_2_)">
					<path d="m760 343.4c11.3 0 20.4-9.2 20.4-20.4 0-11.3-9.2-20.4-20.4-20.4-0.7 0-1.3 0-2 0.1 2.2-3.8 3.5-8.2 3.5-12.9 0-14.2-11.5-25.7-25.7-25.7-6.4 0-12.3 2.3-16.8 6.2-4.4-24.3-25.6-42.7-51.1-42.7-28.7 0-51.9 23.2-51.9 51.9 0 2.8 0.2 5.5 0.6 8.1-1-0.1-2.1-0.2-3.2-0.2-15.4 0-28 12.5-28 28 0 14.4 10.8 26.2 24.8 27.8l149.8 0.2z" fill="#fff"/>
	</g>
	<path fill="#58595B" d="m893.8 561.3v52.5h-364.5v-57.8l57-24.6 62.8-7.7 58.3-22.1s119.8-3.8 186.4 59.7z" clip-path="url(#SVGID_2_)"/>
	<g fill="#fff" stroke="#58595B" stroke-width=".5" stroke-miterlimit="10" clip-path="url(#SVGID_2_)">
				<rect height="99.3" width="120.5" y="515.4" x="408.9"/>
				<rect height="13.4" width="90.7" y="502" x="423.8"/>
			<rect height="10" width="60" y="492" x="439.1"/>
		<line y2="614.7" x1="423.8" x2="423.8" y1="515.4"/>
		<line y2="614.7" x1="439.1" x2="439.1" y1="515.4"/>
		<line y2="614.7" x1="454.4" x2="454.4" y1="515.4"/>
		<line y2="614.7" x1="469.8" x2="469.8" y1="515.4"/>
		<line y2="614.7" x1="485.1" x2="485.1" y1="515.4"/>
		<line y2="614.7" x1="500.4" x2="500.4" y1="515.4"/>
		<line y2="614.7" x1="515.8" x2="515.8" y1="515.4"/>
	</g>
	<g clip-path="url(#SVGID_2_)">
		<polygon stroke="#58595B" stroke-width=".5" stroke-miterlimit="10" points="957.8 613.8 957.8 451.6 951.9 451.6 951.9 443.6 943.1 443.6 943.1 433.6 938.1 433.6 938.1 443.6 930.2 443.6 930.2 451.6 892.5 451.6 892.5 613.8" fill="#fff"/>
			<line y1="603" x2="923.4" x1="897.8" y2="603" fill="#fff"/>
			<path d="m897.8 603s1.6-0.1 4-0.1c1.2 0 2.6 0 4.1-0.1h4.7 4.7c1.5 0 2.9 0.1 4.1 0.1 2.4 0.1 4 0.1 4 0.1s-1.6 0.1-4 0.1c-1.2 0-2.6 0-4.1 0.1h-4.7-4.7c-1.5 0-2.9-0.1-4.1-0.1-2.4-0.1-4-0.1-4-0.1z" fill="#58595B"/>
			<line y1="592.2" x2="923.4" x1="897.8" y2="592.2" fill="#fff"/>
			<path d="m897.8 592.2s1.6-0.1 4-0.1c1.2 0 2.6 0 4.1-0.1h4.7 4.7c1.5 0 2.9 0.1 4.1 0.1 2.4 0.1 4 0.1 4 0.1s-1.6 0.1-4 0.1c-1.2 0-2.6 0-4.1 0.1h-4.7-4.7c-1.5 0-2.9-0.1-4.1-0.1-2.4 0-4-0.1-4-0.1z" fill="#58595B"/>
			<line y1="581.4" x2="923.4" x1="897.8" y2="581.4" fill="#fff"/>
			<path d="m897.8 581.4s1.6-0.1 4-0.1c1.2 0 2.6 0 4.1-0.1h4.7 4.7c1.5 0 2.9 0.1 4.1 0.1 2.4 0.1 4 0.1 4 0.1s-1.6 0.1-4 0.1c-1.2 0-2.6 0-4.1 0.1h-4.7-4.7c-1.5 0-2.9-0.1-4.1-0.1-2.4 0-4-0.1-4-0.1z" fill="#58595B"/>
			<line y1="570.7" x2="923.4" x1="897.8" y2="570.7" fill="#fff"/>
			<path d="m897.8 570.7s1.6-0.1 4-0.1c1.2 0 2.6 0 4.1-0.1h4.7 4.7c1.5 0 2.9 0.1 4.1 0.1 2.4 0.1 4 0.1 4 0.1s-1.6 0.1-4 0.1c-1.2 0-2.6 0-4.1 0.1h-4.7-4.7c-1.5 0-2.9-0.1-4.1-0.1-2.4-0.1-4-0.1-4-0.1z" fill="#58595B"/>
			<line y1="559.9" x2="923.4" x1="897.8" y2="559.9" fill="#fff"/>
			<path d="m897.8 559.9s1.6-0.1 4-0.1c1.2 0 2.6 0 4.1-0.1h4.7 4.7c1.5 0 2.9 0.1 4.1 0.1 2.4 0.1 4 0.1 4 0.1s-1.6 0.1-4 0.1c-1.2 0-2.6 0-4.1 0.1h-4.7-4.7c-1.5 0-2.9-0.1-4.1-0.1-2.4 0-4-0.1-4-0.1z" fill="#58595B"/>
			<line y1="549.1" x2="923.4" x1="897.8" y2="549.1" fill="#fff"/>
			<path d="m897.8 549.1s1.6-0.1 4-0.1c1.2 0 2.6 0 4.1-0.1h4.7 4.7c1.5 0 2.9 0.1 4.1 0.1 2.4 0.1 4 0.1 4 0.1s-1.6 0.1-4 0.1c-1.2 0-2.6 0-4.1 0.1h-4.7-4.7c-1.5 0-2.9-0.1-4.1-0.1-2.4 0-4-0.1-4-0.1z" fill="#58595B"/>
			<line y1="538.3" x2="923.4" x1="897.8" y2="538.3" fill="#fff"/>
			<path d="m897.8 538.3s1.6-0.1 4-0.1c1.2 0 2.6 0 4.1-0.1h4.7 4.7c1.5 0 2.9 0.1 4.1 0.1 2.4 0.1 4 0.1 4 0.1s-1.6 0.1-4 0.1c-1.2 0-2.6 0-4.1 0.1h-4.7-4.7c-1.5 0-2.9-0.1-4.1-0.1-2.4 0-4-0.1-4-0.1z" fill="#58595B"/>
			<line y1="527.6" x2="923.4" x1="897.8" y2="527.6" fill="#fff"/>
			<path d="m897.8 527.6s1.6-0.1 4-0.1c1.2 0 2.6 0 4.1-0.1h4.7 4.7c1.5 0 2.9 0.1 4.1 0.1 2.4 0.1 4 0.1 4 0.1s-1.6 0.1-4 0.1c-1.2 0-2.6 0-4.1 0.1h-4.7-4.7c-1.5 0-2.9-0.1-4.1-0.1-2.4 0-4-0.1-4-0.1z" fill="#58595B"/>
			<line y1="516.8" x2="923.4" x1="897.8" y2="516.8" fill="#fff"/>
			<path d="m897.8 516.8s1.6-0.1 4-0.1c1.2 0 2.6 0 4.1-0.1h4.7 4.7c1.5 0 2.9 0.1 4.1 0.1 2.4 0.1 4 0.1 4 0.1s-1.6 0.1-4 0.1c-1.2 0-2.6 0-4.1 0.1h-4.7-4.7c-1.5 0-2.9-0.1-4.1-0.1-2.4 0-4-0.1-4-0.1z" fill="#58595B"/>
			<line y1="506" x2="923.4" x1="897.8" y2="506" fill="#fff"/>
			<path d="m897.8 506s1.6-0.1 4-0.1c1.2 0 2.6 0 4.1-0.1h4.7 4.7c1.5 0 2.9 0.1 4.1 0.1 2.4 0.1 4 0.1 4 0.1s-1.6 0.1-4 0.1c-1.2 0-2.6 0-4.1 0.1h-4.7-4.7c-1.5 0-2.9-0.1-4.1-0.1-2.4 0-4-0.1-4-0.1z" fill="#58595B"/>
			<line y1="495.3" x2="923.4" x1="897.8" y2="495.3" fill="#fff"/>
			<path d="m897.8 495.3s1.6-0.1 4-0.1c1.2 0 2.6 0 4.1-0.1h4.7 4.7c1.5 0 2.9 0.1 4.1 0.1 2.4 0.1 4 0.1 4 0.1s-1.6 0.1-4 0.1c-1.2 0-2.6 0-4.1 0.1h-4.7-4.7c-1.5 0-2.9-0.1-4.1-0.1-2.4-0.1-4-0.1-4-0.1z" fill="#58595B"/>
			<line y1="484.5" x2="923.4" x1="897.8" y2="484.5" fill="#fff"/>
			<path d="m897.8 484.5s1.6-0.1 4-0.1c1.2 0 2.6 0 4.1-0.1h4.7 4.7c1.5 0 2.9 0.1 4.1 0.1 2.4 0.1 4 0.1 4 0.1s-1.6 0.1-4 0.1c-1.2 0-2.6 0-4.1 0.1h-4.7-4.7c-1.5 0-2.9-0.1-4.1-0.1-2.4 0-4-0.1-4-0.1z" fill="#58595B"/>
			<line y1="473.7" x2="923.4" x1="897.8" y2="473.7" fill="#fff"/>
			<path d="m897.8 473.7s1.6-0.1 4-0.1c1.2 0 2.6 0 4.1-0.1h4.7 4.7c1.5 0 2.9 0.1 4.1 0.1 2.4 0.1 4 0.1 4 0.1s-1.6 0.1-4 0.1c-1.2 0-2.6 0-4.1 0.1h-4.7-4.7c-1.5 0-2.9-0.1-4.1-0.1-2.4 0-4-0.1-4-0.1z" fill="#58595B"/>
			<line y1="463" x2="923.4" x1="897.8" y2="463" fill="#fff"/>
			<path d="m897.8 463s1.6-0.1 4-0.1c1.2 0 2.6 0 4.1-0.1h4.7 4.7c1.5 0 2.9 0.1 4.1 0.1 2.4 0.1 4 0.1 4 0.1s-1.6 0.1-4 0.1c-1.2 0-2.6 0-4.1 0.1h-4.7-4.7c-1.5 0-2.9-0.1-4.1-0.1-2.4-0.1-4-0.1-4-0.1z" fill="#58595B"/>
			<line y1="603" x2="953.5" x1="927.9" y2="603" fill="#fff"/>
			<path d="m927.9 603s1.6-0.1 4-0.1c1.2 0 2.6 0 4.1-0.1h4.7 4.7c1.5 0 2.9 0.1 4.1 0.1 2.4 0.1 4 0.1 4 0.1s-1.6 0.1-4 0.1c-1.2 0-2.6 0-4.1 0.1h-4.7-4.7c-1.5 0-2.9-0.1-4.1-0.1-2.4-0.1-4-0.1-4-0.1z" fill="#58595B"/>
			<line y1="592.2" x2="953.5" x1="927.9" y2="592.2" fill="#fff"/>
			<path d="m927.9 592.2s1.6-0.1 4-0.1c1.2 0 2.6 0 4.1-0.1h4.7 4.7c1.5 0 2.9 0.1 4.1 0.1 2.4 0.1 4 0.1 4 0.1s-1.6 0.1-4 0.1c-1.2 0-2.6 0-4.1 0.1h-4.7-4.7c-1.5 0-2.9-0.1-4.1-0.1-2.4 0-4-0.1-4-0.1z" fill="#58595B"/>
			<line y1="581.4" x2="953.5" x1="927.9" y2="581.4" fill="#fff"/>
			<path d="m927.9 581.4s1.6-0.1 4-0.1c1.2 0 2.6 0 4.1-0.1h4.7 4.7c1.5 0 2.9 0.1 4.1 0.1 2.4 0.1 4 0.1 4 0.1s-1.6 0.1-4 0.1c-1.2 0-2.6 0-4.1 0.1h-4.7-4.7c-1.5 0-2.9-0.1-4.1-0.1-2.4 0-4-0.1-4-0.1z" fill="#58595B"/>
			<line y1="570.7" x2="953.5" x1="927.9" y2="570.7" fill="#fff"/>
			<path d="m927.9 570.7s1.6-0.1 4-0.1c1.2 0 2.6 0 4.1-0.1h4.7 4.7c1.5 0 2.9 0.1 4.1 0.1 2.4 0.1 4 0.1 4 0.1s-1.6 0.1-4 0.1c-1.2 0-2.6 0-4.1 0.1h-4.7-4.7c-1.5 0-2.9-0.1-4.1-0.1-2.4-0.1-4-0.1-4-0.1z" fill="#58595B"/>
			<line y1="559.9" x2="953.5" x1="927.9" y2="559.9" fill="#fff"/>
			<path d="m927.9 559.9s1.6-0.1 4-0.1c1.2 0 2.6 0 4.1-0.1h4.7 4.7c1.5 0 2.9 0.1 4.1 0.1 2.4 0.1 4 0.1 4 0.1s-1.6 0.1-4 0.1c-1.2 0-2.6 0-4.1 0.1h-4.7-4.7c-1.5 0-2.9-0.1-4.1-0.1-2.4 0-4-0.1-4-0.1z" fill="#58595B"/>
			<line y1="549.1" x2="953.5" x1="927.9" y2="549.1" fill="#fff"/>
			<path d="m927.9 549.1s1.6-0.1 4-0.1c1.2 0 2.6 0 4.1-0.1h4.7 4.7c1.5 0 2.9 0.1 4.1 0.1 2.4 0.1 4 0.1 4 0.1s-1.6 0.1-4 0.1c-1.2 0-2.6 0-4.1 0.1h-4.7-4.7c-1.5 0-2.9-0.1-4.1-0.1-2.4 0-4-0.1-4-0.1z" fill="#58595B"/>
			<line y1="538.3" x2="953.5" x1="927.9" y2="538.3" fill="#fff"/>
			<path d="m927.9 538.3s1.6-0.1 4-0.1c1.2 0 2.6 0 4.1-0.1h4.7 4.7c1.5 0 2.9 0.1 4.1 0.1 2.4 0.1 4 0.1 4 0.1s-1.6 0.1-4 0.1c-1.2 0-2.6 0-4.1 0.1h-4.7-4.7c-1.5 0-2.9-0.1-4.1-0.1-2.4 0-4-0.1-4-0.1z" fill="#58595B"/>
			<line y1="527.6" x2="953.5" x1="927.9" y2="527.6" fill="#fff"/>
			<path d="m927.9 527.6s1.6-0.1 4-0.1c1.2 0 2.6 0 4.1-0.1h4.7 4.7c1.5 0 2.9 0.1 4.1 0.1 2.4 0.1 4 0.1 4 0.1s-1.6 0.1-4 0.1c-1.2 0-2.6 0-4.1 0.1h-4.7-4.7c-1.5 0-2.9-0.1-4.1-0.1-2.4 0-4-0.1-4-0.1z" fill="#58595B"/>
			<line y1="516.8" x2="953.5" x1="927.9" y2="516.8" fill="#fff"/>
			<path d="m927.9 516.8s1.6-0.1 4-0.1c1.2 0 2.6 0 4.1-0.1h4.7 4.7c1.5 0 2.9 0.1 4.1 0.1 2.4 0.1 4 0.1 4 0.1s-1.6 0.1-4 0.1c-1.2 0-2.6 0-4.1 0.1h-4.7-4.7c-1.5 0-2.9-0.1-4.1-0.1-2.4 0-4-0.1-4-0.1z" fill="#58595B"/>
			<line y1="506" x2="953.5" x1="927.9" y2="506" fill="#fff"/>
			<path d="m927.9 506s1.6-0.1 4-0.1c1.2 0 2.6 0 4.1-0.1h4.7 4.7c1.5 0 2.9 0.1 4.1 0.1 2.4 0.1 4 0.1 4 0.1s-1.6 0.1-4 0.1c-1.2 0-2.6 0-4.1 0.1h-4.7-4.7c-1.5 0-2.9-0.1-4.1-0.1-2.4 0-4-0.1-4-0.1z" fill="#58595B"/>
			<line y1="495.3" x2="953.5" x1="927.9" y2="495.3" fill="#fff"/>
			<path d="m927.9 495.3s1.6-0.1 4-0.1c1.2 0 2.6 0 4.1-0.1h4.7 4.7c1.5 0 2.9 0.1 4.1 0.1 2.4 0.1 4 0.1 4 0.1s-1.6 0.1-4 0.1c-1.2 0-2.6 0-4.1 0.1h-4.7-4.7c-1.5 0-2.9-0.1-4.1-0.1-2.4-0.1-4-0.1-4-0.1z" fill="#58595B"/>
			<line y1="484.5" x2="953.5" x1="927.9" y2="484.5" fill="#fff"/>
			<path d="m927.9 484.5s1.6-0.1 4-0.1c1.2 0 2.6 0 4.1-0.1h4.7 4.7c1.5 0 2.9 0.1 4.1 0.1 2.4 0.1 4 0.1 4 0.1s-1.6 0.1-4 0.1c-1.2 0-2.6 0-4.1 0.1h-4.7-4.7c-1.5 0-2.9-0.1-4.1-0.1-2.4 0-4-0.1-4-0.1z" fill="#58595B"/>
			<line y1="473.7" x2="953.5" x1="927.9" y2="473.7" fill="#fff"/>
			<path d="m927.9 473.7s1.6-0.1 4-0.1c1.2 0 2.6 0 4.1-0.1h4.7 4.7c1.5 0 2.9 0.1 4.1 0.1 2.4 0.1 4 0.1 4 0.1s-1.6 0.1-4 0.1c-1.2 0-2.6 0-4.1 0.1h-4.7-4.7c-1.5 0-2.9-0.1-4.1-0.1-2.4 0-4-0.1-4-0.1z" fill="#58595B"/>
			<line y1="463" x2="953.5" x1="927.9" y2="463" fill="#fff"/>
			<path d="m927.9 463s1.6-0.1 4-0.1c1.2 0 2.6 0 4.1-0.1h4.7 4.7c1.5 0 2.9 0.1 4.1 0.1 2.4 0.1 4 0.1 4 0.1s-1.6 0.1-4 0.1c-1.2 0-2.6 0-4.1 0.1h-4.7-4.7c-1.5 0-2.9-0.1-4.1-0.1-2.4-0.1-4-0.1-4-0.1z" fill="#58595B"/>
	</g>
	<circle cx="637.6" cy="308.1" fill="#2E3192" r="5" clip-path="url(#SVGID_2_)"/>
	<circle cx="663.1" cy="308.1" fill="#2E3192" r="5" clip-path="url(#SVGID_2_)"/>
	<circle cx="707.9" cy="308.1" fill="#2E3192" r="5" clip-path="url(#SVGID_2_)"/>
	<circle cx="733.3" cy="308.1" fill="#2E3192" r="5" clip-path="url(#SVGID_2_)"/>
		<line y2="614.7" clip-path="url(#SVGID_2_)" x2="1009.8" stroke="#231F20" stroke-linecap="round" stroke-miterlimit="10" y1="614.7" x1="449" fill="#fff"/>
	<g fill="#fff" stroke="#88D8FB" stroke-width=".5" stroke-miterlimit="10" clip-path="url(#SVGID_2_)">
			<polygon points="231.3 502.5 244.2 502.5 244.2 457.7 255.1 457.7 255.1 442 258.4 439.3 258.4 434.5 266.4 434.5 266.4 439.6 271 439.6 271 459.1 283.9 459.1 283.9 500.4 297.3 500.4 297.3 618.2 231.3 618.2 231.3 514.8 243 514.8 243 504.9 231.3 504.9"/>
			<line y2="414.2" x1="261.8" x2="261.8" y1="434.5"/>
		<line y2="604.6" x1="238.2" x2="290" y1="604.6"/>
		<line y2="593.1" x1="238.2" x2="290" y1="593.1"/>
		<line y2="581.7" x1="238.2" x2="290" y1="581.7"/>
		<line y2="570.3" x1="238.2" x2="290" y1="570.3"/>
		<line y2="558.8" x1="238.2" x2="290" y1="558.8"/>
		<line y2="547.4" x1="238.2" x2="290" y1="547.4"/>
		<line y2="535.9" x1="238.2" x2="290" y1="535.9"/>
		<line y2="524.5" x1="238.2" x2="290" y1="524.5"/>
		<line y2="513" x1="248.4" x2="290" y1="513"/>
		<line y2="490.2" x1="248.4" x2="279.8" y1="490.2"/>
		<line y2="478.7" x1="248.4" x2="279.8" y1="478.7"/>
		<line y2="467.3" x1="248.4" x2="279.8" y1="467.3"/>
	</g>
	<g stroke="#2E3192" stroke-width="2" stroke-miterlimit="10" clip-path="url(#SVGID_2_)">
		<polyline fill="none" stroke-linecap="round" points="320.2 569 320.2 526.6 329.7 518.5 329.7 470.9 320.2 457.8 320.2 405.2 340.3 381.6 402.2 381.6 411.7 369.4 566.7 369.4 578.4 354.9 651.8 354.9 663.1 347.6 663.1 312.6"/>
		<circle r="4.8" cy="369.4" cx="461.5" fill="#fff"/>
		<circle r="4.8" cy="499.4" cx="329.7" fill="#4CAF50"/>
	</g>
		<polyline clip-path="url(#SVGID_2_)" points="708.4 312.6 708.4 376.2 726.3 392.3 1012.1 392.3 1034.4 414.6 1034.4 509 1051.6 526.1 1051.6 549.1" stroke="#2E3192" stroke-linecap="round" stroke-miterlimit="10" stroke-width="2" fill="none"/>
	<g opacity=".02" clip-path="url(#SVGID_2_)">
		<polygon points="427.9 176.7 683 29.5 938.1 176.7 938.1 471.3 683 618.5 427.9 471.3" fill="#2895F1"/>
			<defs>
				<polygon id="SVGID_4_" points="427.9 176.7 683 29.5 938.1 176.7 938.1 471.3 683 618.5 427.9 471.3"/>
			</defs>
			<clipPath id="SVGID_5_">
				<use overflow="visible" xlink:href="#SVGID_4_"/>
			</clipPath>
			<polyline fill="#9B9DA0" points="511 418.9 483.2 336.6 495.8 306.3 575 251.1 641.2 192 729.9 181.8 758.3 178.6 987.8 309.5 989.5 697.8" clip-path="url(#SVGID_5_)"/>
		<path d="m895.6 333.9c0 0.3-0.1 0.6-0.1 0.9v1.1 1.6c0 1.5-0.2 3-0.4 4.5-0.2 1.3-0.3 2.5-0.5 3.8-0.4 2.9-1 5.8-1.7 8.7-3.9 15.9-11.3 30-21.9 42.4-9.1 10.7-20 19.3-32.4 25.9-8.9 4.8-18.4 8.2-28.3 10.5-2.7 0.6-5.5 1.1-8.2 1.6-2 0.3-4 0.6-6.1 0.8-1.2 0.1-2.5 0.2-3.7 0.3-1.7 0.1-3.5 0.2-5.2 0.3-1.4 0-2.8 0.2-4.2 0.3-0.3 0-0.7 0.1-1 0.1l-7.5 0.3c-6.3 0.2-12.7 0.2-19 0.2-3 0-6-0.1-9-0.2-1.6 0-3.2 0-4.9-0.1-2.3-0.1-4.7-0.1-7-0.2-0.5 0-1-0.1-1.6 0.1-0.2 0.3-0.5 0.6-0.9 0.9-11.7 12.2-23.4 24.3-35.2 36.5-2.9 3-5.7 5.9-8.6 8.9l-0.6 0.6c-0.2 0.2-0.4 0.2-0.7 0-0.2-0.1-0.3-0.2-0.5-0.3-10-7.4-20-14.8-30-22.3-0.2-0.2-0.4-0.3-0.6-0.5 0 0-0.1-0.3 0-0.4 0.1-0.2 0.3-0.3 0.4-0.5 3.2-3.5 6.3-6.9 9.5-10.4 10.6-11.6 21.2-23.3 31.8-34.9 4.3-4.7 8.6-9.4 12.8-14.1 0.3-0.4 0.6-0.7 1-1.1 0.5-0.1 1-0.1 1.5-0.1 2.9-0.1 5.7-0.1 8.6 0 2.1 0.1 4.2 0.1 6.3 0.1l7.8 0.3c0.6 0 1.3 0.1 1.9 0.1 3.1 0.1 6.1 0.3 9.2 0.4 0.9 0 1.7 0.1 2.6 0.1 3.7 0.1 7.5 0.3 11.2 0.2 2.5 0 5.1-0.1 7.6-0.2 2.1 0 4.2-0.2 6.2-0.3 2.1-0.1 4.1-0.3 6.2-0.6 2.5-0.3 4.9-0.6 7.4-1 0.7-0.1 1.5-0.3 2.2-0.4 0.3-0.1 0.6-0.1 0.8-0.3 0.2-0.1 0.4-0.2 0.6-0.2l3.3-0.6c1.8-0.3 3.5-0.8 5.3-1.3 2.3-0.6 4.6-1.3 6.8-2.1 2.7-1 5.4-2.2 8-3.5 8.1-4.2 15.2-9.7 21.2-16.6 6.3-7.2 10.8-15.4 13.6-24.6 0.9-3 1.5-6.1 2-9.2 0.6-4.2 0.8-8.4 0.6-12.6-0.5-8.6-2.6-16.9-6.4-24.6-3.9-8.1-9.3-15.2-16.1-21.2-8.5-7.6-18.4-12.8-29.4-15.8-2.7-0.7-5.4-1.3-8.2-1.7-1.5-0.2-3.1-0.4-4.6-0.6-1.1-0.1-2.1-0.2-3.2-0.2-0.4 0-0.6-0.2-0.7-0.5s-0.2-0.6-0.3-0.8c-9.5-23-27.6-41.9-51-52.3-6-2.6-12.2-4.7-18.6-6.1-2.3-0.5-4.6-0.9-6.9-1.3l-4.8-0.6c-1.5-0.1-3.1-0.2-4.6-0.3-0.7-0.1-1.4-0.1-2.2-0.1h-5.7c-1.8 0-3.6 0.2-5.4 0.3l-3 0.3c-1.2 0.1-2.5 0.3-3.7 0.5-2.5 0.4-4.9 0.9-7.3 1.5-10.1 2.4-19.6 6.3-28.4 11.8-12.9 8-23.4 18.4-31.5 31.2-2.2 3.4-3.9 7-5.4 10.7-1.8 4.4-3.3 8.9-4.5 13.5-1.1 3.9-2 7.8-2.7 11.7 0 0.1-0.1 0.3-0.1 0.4s-0.2 0.3-0.3 0.3h-0.6c-1.4-0.2-2.8-0.4-4.3-0.6-0.8-0.1-1.6-0.2-2.5-0.3-1.2-0.1-2.5-0.2-3.7-0.3-2-0.2-3.9-0.2-5.9-0.3-1.7-0.1-3.5-0.1-5.2 0-1 0-2 0.1-3.1 0.1-1.2 0.1-2.5 0.2-3.7 0.3s-2.5 0.3-3.7 0.5c-5 0.9-9.8 2.3-14.4 4.6-6.6 3.2-12.7 7.3-18 12.4-5.3 5-9.6 10.8-12.8 17.3-2.3 4.6-3.9 9.5-4.8 14.6-0.7 3.9-1 7.8-0.8 11.7 0.4 9.4 3.1 18.1 7.9 26.2 1.2 2 2.6 4 4.1 5.8 4.2 5.2 9.1 9.7 14.6 13.5 6.2 4.4 13 7.8 20.2 10.4 0.9 0.3 0.9 0.3 1.9 0.3 6.6 0 13.1-0.1 19.7-0.2 6.7 0 13.4-0.1 20.2-0.1 3.4 0 6.9-0.1 10.3-0.1 3.9 0 7.7-0.1 11.6-0.1h1c0.2 0 0.4-0.1 0.6-0.3 0.2-0.3 0.5-0.5 0.7-0.7 9.9-10.8 19.8-21.5 29.7-32.3 3.3-3.6 6.6-7.2 10-10.9 0.2-0.3 0.5-0.5 0.7-0.8 0 0 0.1-0.2 0.1-0.3-0.2-0.4-0.6-0.6-0.8-0.9l-10.8-10.8-0.7-0.7c-0.1-0.1-0.1-0.2-0.1-0.2 0-0.1 0.1-0.2 0.2-0.2 0.3 0 0.7-0.1 1-0.1 2-0.1 3.9-0.2 5.9-0.3l5.4-0.3 5.4-0.3c2-0.1 4-0.2 6-0.4h0.5c2-0.1 3.9-0.2 5.9-0.3l5.4-0.3h0.5c2-0.1 3.9-0.2 5.9-0.3l5.4-0.3c1.8-0.1 3.5-0.2 5.3-0.3 0.8 0 1.6-0.1 2.4-0.2 0.3 0 0.5 0.1 0.6 0.4 0 0.3 0.1 0.7 0.1 1 0.1 1.5 0.3 3 0.4 4.5 0.1 1 0.2 2 0.3 2.9 0.1 1.2 0.2 2.5 0.3 3.7s0.2 2.5 0.3 3.7c0.1 0.9 0.2 1.9 0.2 2.8 0.1 1.2 0.2 2.5 0.3 3.7 0.1 1.3 0.2 2.6 0.3 3.8l0.3 3c0.1 1.2 0.2 2.5 0.3 3.7s0.2 2.5 0.3 3.7c0.1 0.9 0.2 1.9 0.2 2.8 0.1 1.2 0.2 2.5 0.3 3.7 0.1 1.3 0.2 2.6 0.3 3.8v1.1s-0.1 0.1-0.2 0.1c-0.3-0.1-0.5-0.3-0.8-0.5-2.2-1.5-4.5-3.1-6.7-4.6s-4.4-3-6.5-4.5c-0.2-0.1-0.4-0.3-0.7-0.4-0.3-0.2-0.4-0.2-0.7 0.1-0.2 0.2-0.5 0.5-0.7 0.8-2.8 3.2-5.6 6.3-8.5 9.5-10.1 11.3-20.2 22.6-30.4 33.8-3.3 3.6-6.7 7.2-10 10.8-1.1 1.2-2.3 2.4-3.5 3.6-0.4 0.4-0.8 0.9-1.4 1.1-0.5 0-1.1 0.1-1.6 0.1h-92.4-0.2c-0.7 0.1-1.4-0.1-2.1-0.3-4.4-1.3-8.8-2.7-13.1-4.5-8.3-3.4-16.1-7.5-23.4-12.6-6.8-4.8-13-10.2-18.5-16.5-8.8-10.1-15.2-21.6-18.9-34.5-0.9-3.1-1.6-6.3-2.2-9.5-0.4-2.5-0.8-5-1-7.5l-0.3-4.5c0-0.5 0-1.1-0.1-1.6 0-0.2-0.1-0.4-0.3-0.6v-5.4c0.2-0.1 0.3-0.3 0.3-0.6s0.1-0.6 0.1-0.9c0.1-2.3 0.4-4.5 0.7-6.8 0.5-3.5 1.3-6.9 2.2-10.3 1.9-6.6 4.6-13 7.9-19 4.6-8.2 10.2-15.6 16.8-22.3 10.2-10.3 21.9-18.4 35.2-24.4 8.6-3.8 17.5-6.6 26.8-8.2 0.3-0.1 0.6-0.1 0.9-0.2 0.2-0.3 0.3-0.6 0.5-0.9 6-13.1 14-25 23.8-35.5 10.9-11.7 23.4-21.3 37.5-28.8 16.5-8.8 34.1-14.2 52.7-16.4 0.8-0.1 1.6-0.2 2.5-0.3 1.3-0.1 2.6-0.3 3.8-0.3 1.8-0.1 3.7-0.2 5.5-0.3 0.3 0 0.7 0 1-0.2h9.7c0.2 0.1 0.5 0.1 0.8 0.2l5.1 0.3c1.3 0.1 2.6 0.2 3.8 0.3 1.7 0.2 3.3 0.4 4.9 0.6 2.7 0.3 5.3 0.7 7.9 1.2 4.2 0.8 8.4 1.7 12.5 2.9 14.2 3.9 27.6 9.8 40 17.7 17 10.9 31.1 24.6 42.1 41.5 0.6 0.9 0.4 0.8 1.6 1.1 6.2 1.8 12.2 4.1 18 7 14 6.9 26.1 16.1 36.2 28 10.4 12.3 17.7 26.3 21.6 41.9 0.7 2.9 1.3 5.8 1.7 8.8 0.2 1.3 0.4 2.5 0.5 3.8 0.2 1.4 0.3 2.9 0.4 4.3v1.6c0 0.5 0 0.9 0.1 1.4 0 0.3 0.1 0.6 0.1 0.9 0.3 3.2 0.3 5.5 0.3 7.7z" fill="#fff"/>
	</g>
	<g clip-path="url(#SVGID_2_)" stroke="#2E3192" stroke-linecap="round" stroke-miterlimit="10" stroke-width="2" fill="none">
		<polyline points="394.6 381.5 384.6 371.5 358.1 371.5"/>
			<circle r="4.2" cy="371.4" cx="353.9"/>
	</g>
	<g clip-path="url(#SVGID_2_)" stroke="#2E3192" stroke-linecap="round" stroke-miterlimit="10" stroke-width="2" fill="none">
		<polyline points="302.2 387.8 292.2 377.8 265.7 377.8"/>
			<circle r="4.2" cy="377.7" cx="261.5"/>
	</g>
	<g clip-path="url(#SVGID_2_)" stroke="#2E3192" stroke-linecap="round" stroke-miterlimit="10" stroke-width="2" fill="none">
		<polyline points="492.9 359.1 483 349.1 456.4 349.1"/>
			<circle r="4.2" cy="349" cx="452.3"/>
	</g>
	<g clip-path="url(#SVGID_2_)" stroke="#2E3192" stroke-linecap="round" stroke-miterlimit="10" stroke-width="2" fill="none">
		<polyline points="542.2 369.4 532.3 379.4 505.7 379.4"/>
			<circle r="4.2" cy="379.5" cx="501.6"/>
	</g>
	<g clip-path="url(#SVGID_2_)" stroke="#2E3192" stroke-linecap="round" stroke-miterlimit="10" stroke-width="2" fill="none">
		<polyline points="242.7 388.2 232.8 398.1 194.5 398.1"/>
			<circle r="4.2" cy="398.3" cx="190.3"/>
	</g>
	<g clip-path="url(#SVGID_2_)" stroke="#2E3192" stroke-linecap="round" stroke-miterlimit="10" stroke-width="2" fill="none">
		<polyline points="870.3 367.1 880.2 357.1 906.8 357.1"/>
			<circle r="4.2" cy="357" cx="910.9"/>
	</g>
	<g clip-path="url(#SVGID_2_)" stroke="#2E3192" stroke-linecap="round" stroke-miterlimit="10" stroke-width="2" fill="none">
		<polyline points="1093.1 367.5 1103.1 377.5 1129.6 377.5"/>
			<circle r="4.2" cy="377.6" cx="1133.8"/>
	</g>
	<g clip-path="url(#SVGID_2_)" stroke="#2E3192" stroke-linecap="round" stroke-miterlimit="10" stroke-width="2" fill="none">
		<polyline points="733.3 392.7 743.3 402.7 769.9 402.7"/>
			<circle r="4.2" cy="402.8" cx="774"/>
	</g>
	<g clip-path="url(#SVGID_2_)" stroke="#2E3192" stroke-linecap="round" stroke-miterlimit="10" stroke-width="2" fill="none">
		<polyline points="1034.1 456.8 1024.1 466.8 1024.1 493.3"/>
			<circle r="4.2" cy="497.5" cx="1024"/>
	</g>
	<g clip-path="url(#SVGID_2_)" stroke="#2E3192" stroke-linecap="round" stroke-miterlimit="10" stroke-width="2" fill="none">
		<polyline points="733.3 315.9 741.9 324.4 741.9 347.1"/>
			<circle r="3.6" cy="350.7" cx="742"/>
	</g>
	<g clip-path="url(#SVGID_2_)" stroke="#2E3192" stroke-linecap="round" stroke-miterlimit="10" stroke-width="2" fill="none">
		<polyline points="320.1 446.8 310.2 456.8 310.2 483.3"/>
			<circle r="4.2" cy="487.5" cx="310"/>
	</g>
	<g clip-path="url(#SVGID_2_)" stroke="#2E3192" stroke-linecap="round" stroke-miterlimit="10" stroke-width="2" fill="none">
		<polyline points="169.6 426.3 159.7 436.3 159.7 462.8"/>
			<circle r="4.2" cy="467" cx="159.5"/>
	</g>
		<polyline clip-path="url(#SVGID_2_)" points="733.3 312.6 733.3 353.4 750.8 367.1 1178.4 367.1 1189.5 374.2 1189.5 507.9" stroke="#2E3192" stroke-linecap="round" stroke-miterlimit="10" stroke-width="2" fill="none"/>
		<circle r="4.8" clip-path="url(#SVGID_2_)" cy="392.7" stroke="#2E3192" cx="891.4" stroke-miterlimit="10" stroke-width="2" fill="#fff"/>
	<circle cx="684.3" cy="308.1" fill="#2E3192" r="5" clip-path="url(#SVGID_2_)"/>
	<g clip-path="url(#SVGID_2_)" stroke="#2E3192" stroke-linecap="round" stroke-miterlimit="10" stroke-width="2" fill="none">
		<polyline points="685.3 374.4 694.6 383.8 694.6 408.7"/>
			<circle r="3.9" cy="412.7" cx="694.7"/>
	</g>
	<g stroke="#2E3192" stroke-width="2" stroke-miterlimit="10" clip-path="url(#SVGID_2_)">
		<polyline fill="none" stroke-linecap="round" points="684.6 312.6 684.6 386.3 667.3 394.6 667.3 433.7 657.7 441.9 657.7 479.4 663.5 488.1 663.5 503.1"/>
		<g stroke-linecap="round" fill="none">
			<polyline points="684.6 342.4 674.7 352.4 674.7 378.9"/>
				<circle r="4.2" cy="383.1" cx="674.6"/>
		</g>
		<g stroke-linecap="round" fill="none">
			<polyline points="657.6 452.1 647.7 462 647.7 488.6"/>
				<circle r="4.2" cy="492.7" cx="647.6"/>
		</g>
		<circle r="4.8" cy="415.1" cx="667.4" fill="#fff"/>
	</g>
		<circle r="4.8" clip-path="url(#SVGID_2_)" cy="367.5" stroke="#2E3192" cx="1063.8" stroke-miterlimit="10" stroke-width="2" fill="#fff"/>
	<g clip-path="url(#SVGID_2_)">
			<g fill="#6D6E71">
				<path d="m587.3 522c26.7-9.8 54.5-14.6 82.8-16.5 13.2-0.9 26.4-1.1 40.1-1.6-0.1 1.9-0.2 3-0.3 4.5-3.4-3.1-9.1-3.4-12.6-1.2-0.7 0.5-2.2 0.8-2.8 0.4-3.5-2.5-6.8-2-10.2 0.1-0.1 0.1-0.3 0.3-0.4 0.3-4.8-2.9-9.6-0.6-14.4-0.1-0.7 0.1-1.6-0.6-2.3-0.5-5.3 0.8-10.5 2-15.8 2.7-3.8 0.5-7.7 0.5-11.6 0.7-0.6 0-1.3-0.2-1.9-0.1-3.9 1.1-7.7 2.3-11.6 3.3-2.6 0.7-5.3 1.3-7.9 1.6-11.6 1.3-22.5 4.9-33.2 9.4-0.6 0.2-1.5-0.3-2.3-0.5 1.5-0.9 2.9-1.7 4.4-2.5z"/>
				<path d="m849.7 591.4c-11.5-0.7-23-1.4-34.5-2-8.5-0.5-17-0.9-25.5-1.2-12-0.4-24.2-1.8-36-0.6-8 0.8-15.6-2.2-23.4-0.7-3.1 0.6-6.9-1.7-9.2 2.4 0 0.1-2.7-1.2-4-2-2.1-1.3-4-3.9-6.1-3.9-2 0-3.9 2.7-6 3.9-1.4 0.8-3.1 1.6-4.6 1.5-1.8-0.1-3.6-1.9-5.4-1.8-7.1 0.4-14.2 1.6-21.4 1.7-9.1 0.1-18.3-0.8-27.4-0.8-9.9 0-19.8 0.5-29.7 1-13.2 0.6-26.4 1.3-39.6 2-4.2 0.2-8.4 0.9-13.2 1.4 1.9-1.4 3.3-2.3 4.7-3.3-0.3-0.5-0.5-1-0.8-1.5-3.1 0.3-6.2 0.5-9.3 0.8l0.1 0.1c3.5-0.7 6.9-2 10.4-2.2 36.7-1.9 73.4-3.7 110.1-5.4 9.1-0.4 18.2-0.3 27.3-0.5 0.9 0 1.8-0.4 2.7-1.3h-9.2v-0.9h18.3c-2.5 0.5-3.6 0.7-4.8 1v0.8c0.7 0.2 1.3 0.5 2 0.5 33.6 0.9 67.2 1.3 100.8 2.9 19.8 0.9 39.5 3.7 59.2 5.7 0.9 0.1 1.8 0.9 2.7 1.4l0.1-0.1c-3-0.4-6.1-0.8-9.6-1.2 0.4 1.5 0.7 2.4 1.2 4.4-2.6-0.5-5.2-0.9-7.8-1.4 1.4-0.5 2.7-1 4.1-1.5-1.4-0.8-2.6-2.1-4.1-2.4-2.7-0.6-5.5-0.6-8.2-0.8-0.3 0.4-0.6 0.9-0.9 1.3 1 0.8 1.9 2 3 2.3 2 0.6 4.1 0.8 6.2 1.1-4.1-0.2-8.2-0.5-12.2-0.7 0-1.3 0.2-2.7 0.3-4.6-5.3-0.4-10.2-0.8-15.2-1.2-0.2 0.7-0.4 1.3-0.7 2 1.5 0.8 2.9 1.9 4.5 2.2 3.6 0.7 7.4 1.1 11.1 1.6zm-100.1-6.7c0.3 0.7 0.6 1.5 0.9 2.2 8.9 0 17.8 0.1 26.7-0.1 1.1 0 2.1-1.8 3.2-2.8-0.3-0.7-0.6-1.4-0.9-2.1-8.9 0-17.8-0.1-26.7 0.1-1.1 0.1-2.1 1.8-3.2 2.7zm-76.9-2c-10.8 0-19.9-0.1-28.9 0.1-0.9 0-1.7 2.1-2.6 3.3 10 0 18.7 0.1 27.5-0.1 1 0 2-1.7 4-3.3zm3.6 1.7l1.2 1.5c7.4 0 14.8 0.2 22.2-0.1 1.8-0.1 3.5-1.7 5.3-2.7l-0.6-1.2c-8.2 0-16.5-0.1-24.7 0.1-1.1 0-2.2 1.6-3.4 2.4zm67.7-2.3h-26.6c-0.2 0.4-0.3 0.8-0.5 1.3 1.9 0.9 3.7 2.3 5.6 2.5 6.3 0.3 12.6 0.1 18.9 0.3 3.3-0.1 3.7-1.4 2.6-4.1zm-131.3 4.2c0.4 0.6 0.8 1.2 1.2 1.7 6.7-0.3 13.5-0.5 20.2-1.1 1.1-0.1 2-1.9 3-2.9-0.3-0.5-0.7-0.9-1-1.4-6.7 0.4-13.5 0.6-20.2 1.2-1.2 0.1-2.2 1.7-3.2 2.5zm172.6-3.7c-0.3 0.4-0.7 0.9-1 1.3 0.9 1 1.7 2.8 2.7 2.9 6.8 0.6 13.7 0.7 20.6 1.1 0.3-0.4 0.6-0.8 1-1.2-0.9-1-1.7-2.8-2.6-2.8-7-0.6-13.9-0.9-20.7-1.3zm46.6 6c-1.2-1.6-1.9-3.4-2.7-3.5-5.5-0.6-11.1-0.8-16.7-1.2 0 4.6 5.4 5.8 19.4 4.7zm-222.3-3.5c-0.3-0.4-0.7-0.7-1-1.1-5.3 0.3-10.5 0.5-15.7 1.1-1.1 0.1-2 1.8-3 2.7 0.3 0.5 0.7 1 1 1.4 5.4-0.4 10.8-0.6 16.2-1.2 0.9-0.1 1.6-1.9 2.5-2.9zm-37.9 5.2c14.7-0.4 14.7-0.4 14.6-4.2-9.2-0.8-14.4 0.5-14.6 4.2z"/>
				<path d="m830.4 594.4c5.6 0.2 11.1 0.6 16.7 0.7 4.9 0.1 6.2 3.5 7.3 7.1-4.6-4.8-4.6-4.8-9.1-0.1 0.8-1.8 1.7-3.6 3-6.3-4.4 0-8.4 0.1-12.4-0.1-1.8-0.2-3.7-0.9-5.5-1.3z"/>
				<path d="m574.6 603.1c-4.9-5.4-4.9-5.4-10-0.2 0.9-2.4 1.5-4 2.2-6h-10.7c13.3-2.7 15.2-2.1 18.5 6.2z"/>
				<path d="m830.4 594.4h-28.2 28.2z"/>
				<path d="m623.4 594.4h-27.5 27.5c0.1 0 0 0 0 0z"/>
				<path d="m558.4 588.3l-3 2.4c1.1 0.6 2.2 1.3 3.1 1.8-1.4 0.3-3.3 0.7-5.5 1.1-0.3-1.8-0.5-3.5-0.8-5.7 2.1 0.1 4.2 0.3 6.2 0.4 0.1 0 0 0 0 0z"/>
				<path d="m877.9 590.4c0.6-0.2 1.2-0.6 1.9-0.6 1.1 0 2.3 0.3 3.1 0.4-0.4 1.6-0.8 3.1-1.2 4.6-2.5-0.5-4.8-1-8.5-1.7 2.4 0 3.6 0.2 4.6-0.1 0.3-0.1 0.2-1.7 0.2-2.7l-0.1 0.1z"/>
				<path d="m856.6 543.2c-10.8-2.4-21.5-5.5-32.4-7-20.3-2.8-40.7-6-61.1-6.6-34.6-1.1-69.2-0.6-103.9-0.2-13.5 0.2-27 2.1-40.6 3.3 1.5-0.6 2.9-1.5 4.5-1.7 42.3-4.7 84.7-5.1 127.1-3.5 34.3 1.2 68.4 3.9 101.6 13.6 1.6 0.5 3.2 1.4 4.8 2.1z"/>
				<path d="m606.3 521.1c27.8-6.4 56-8.8 85.7-8.6-15.2 1-29.4 1.6-43.5 3.1-14.1 1.3-28.2 3.6-42.2 5.5z"/>
				<path d="m811.1 519.6c-27.1-2.6-53.8-5.1-74.6-7.1 21-0.4 47.7 2 74.6 7.1z"/>
				<path d="m605 534.2c-10.3 2.4-20.7 4.3-30.8 7.2-8.9 2.5-17.4 6.2-26.1 9.3 0.6-0.7 1-1.7 1.7-2 17.6-7.6 35.9-12.9 55.2-14.5z"/>
				<path d="m741.1 519.1h-61.5v-0.4h61.5v0.4z"/>
				<path d="m886.9 557.1c-2.3-1.1-4.6-2.2-7-3.2-7.8-3.6-15.7-7.2-23.5-10.8 11.1 2.4 21.2 7.4 30.5 14z"/>
				<path d="m598.5 543.4v11.9c0.1 5.8 0.3 11.6 0.1 17.5 0 1.2-1.5 2.3-2.3 3.4-0.8-1.1-2.2-2.3-2.2-3.4-0.2-7.8-0.3-15.6-0.2-23.5 0.1-2.8-0.3-6.3 4.6-5.9z"/>
				<path d="m604.3 575.4v-32.8c1.8-0.3 3.1-0.5 4.3-0.6 0.3 0.7 0.5 1 0.5 1.3 0 9.7-0.3 19.3 0.1 28.9 0.2 3.7-1.4 3.6-4.9 3.2z"/>
			</g>
			<g stroke="#FEC000" stroke-width=".5" stroke-miterlimit="10" fill="#fff">
				<path d="m623.4 594.4c1-0.2 1.9-0.5 2.9-0.5l71.1-0.3c1.1 0 2.2 0.2 3.3 0.3 0.2 0.7 0.4 1.2 0.5 1.6 0.9 13.3 0.9 13.3-12.3 13.4-36.1 0.3-72.2 0.7-108.4 1-2 0-3.9-0.2-6.1-0.3-0.2-1.9-0.4-3.5-0.6-4.5-1.4 1.4-3 3-4.6 4.7-1.3-1.7-2.6-3.3-4.1-5.2-0.9 1.6 1.2 6.5-4.1 5.7 1.1 0.2 2.2 0.3 3.6 0.5v5.5c-13-1-25.7-1.9-38.5-2.8-0.1-0.7-0.3-1.3-0.4-2 1.9-0.6 3.7-1.7 5.6-1.7 8.4-0.2 16.9-0.1 25.3-0.7h-17.9c-9.3-0.1-9.3-0.1-8-9.8 1.6-0.2 3.4-0.5 6.3-0.9-3.3-0.4-5.5-0.7-7.5-0.9 0.6-2.6 1.1-4.9 1.8-8 31.4-17.5 324-17.7 360.9 0.1-0.1 2.6-0.3 4.9-0.5 7.9-1.2 0.2-3.3 0.4-5.4 0.7 0 0.1-0.1 0.3-0.1 0.4 1.4 0.2 2.8 0.4 4.5 0.6 0.1 0.5 0.4 1.1 0.5 1.7 0.4 8.2 0.4 8.2-7.7 8.3-7.8 0-15.5 0-23.3 0.7 9.9 0 19.7-0.1 29.6 0.1 2.1 0 4.2 1 6.3 1.5-0.1 0.7-0.2 1.4-0.3 2.2-13.6 1-27.2 2-41 3v-11.9l-5.3 5.3c-1.4-1.6-2.7-3.3-3.9-4.8-0.1 0.8-0.3 2.3-0.7 4.7h-39.8l0.2 0.1c-7.1-0.3-14.2-0.7-21.3-0.7-19.2-0.2-38.5-0.1-57.7-0.2-1.6 0-3.3-0.1-5.5-0.2v-14.7h74.6v-0.9h-52.4c-5.6 0-11.3 0.2-16.9-0.1-2.7-0.1-5.4-1.3-8.8-2.1 0 4 0.2 7.6-0.1 11.2-0.2 3.3 0 7-5.3 6.9-6.5-0.1-7.5-0.6-7.8-6.5-0.2-3.8 0-7.5 0-11.5-12.3 4-24.5 1.6-36.5 2-12.3 0.4-24.5 0.1-36.8 0.2-2.3-0.3-4.8 0.4-7.4 0.9h-27.5 27.5zm207 0h-28.2 28.2c1.8 0.4 3.7 1.2 5.5 1.2 4 0.2 8 0.1 12.4 0.1-1.3 2.8-2.2 4.6-3 6.3 4.5-4.7 4.5-4.7 9.1 0.1-1.1-3.6-2.4-7-7.3-7.1-5.6 0-11.1-0.4-16.7-0.6zm-272-6.1c3.1-0.3 6.2-0.5 9.3-0.8 0.3 0.5 0.5 1 0.8 1.5-1.4 1-2.8 1.9-4.7 3.3 4.8-0.5 9-1.1 13.2-1.4 13.2-0.8 26.4-1.4 39.6-2 9.9-0.4 19.8-0.9 29.7-1 9.1 0 18.3 0.9 27.4 0.8 7.1-0.1 14.2-1.3 21.4-1.7 1.7-0.1 3.5 1.7 5.4 1.8 1.5 0.1 3.2-0.7 4.6-1.5 2.1-1.2 4-3.9 6-3.9s4 2.6 6.1 3.9c1.3 0.8 3.9 2 4 2 2.3-4.1 6.1-1.8 9.2-2.4 7.8-1.5 15.4 1.5 23.4 0.7 11.9-1.2 24 0.2 36 0.6 8.5 0.3 17 0.7 25.5 1.2 11.5 0.6 23 1.3 34.5 2 4.1 0.2 8.2 0.5 12.3 0.7l-0.2-0.1c2.6 0.5 5.2 0.9 7.8 1.4-0.5-2-0.8-2.9-1.2-4.4 3.5 0.5 6.6 0.8 9.6 1.2-0.1 0.9 0.1 2.6-0.2 2.7-1 0.4-2.2 0.1-4.6 0.1 3.7 0.7 6 1.2 8.5 1.7 0.4-1.5 0.8-3 1.2-4.6-0.8-0.1-2-0.4-3.1-0.4-0.6 0-1.2 0.4-1.9 0.6-0.9-0.5-1.7-1.3-2.7-1.4-19.7-2-39.4-4.8-59.2-5.7-33.6-1.6-67.2-2-100.8-2.9-0.7 0-1.3-0.3-2-0.5v-0.8c1.1-0.2 2.3-0.5 4.8-1h-18.3v0.9h9.2c-0.9 1-1.8 1.3-2.7 1.3-9.1 0.2-18.2 0.1-27.3 0.5-36.7 1.7-73.4 3.5-110.1 5.4-3.6 0.3-7 1.5-10.5 2.2-2-0.1-4-0.2-6.2-0.4 0.3 2.2 0.6 3.8 0.8 5.7 2.1-0.4 4-0.8 5.5-1.1-0.8-0.5-2-1.1-3.1-1.8l3-2.4zm16.2 14.8c-3.3-8.3-5.2-8.9-18.5-6.2h10.7c-0.8 2-1.3 3.6-2.2 6 5.1-5.2 5.1-5.2 10 0.2z"/>
				<path d="m587.3 522c1.6-1 3.2-2.3 4.9-2.9 32.9-12 67.1-16 101.9-16.9 2.9-0.1 8.3 1.7 7.9-3.4-0.4-5.5 5.1-10.5 8.3-13.1v-53c0.5 0 0.9-0.1 1.4-0.1v37c0 3.8 0.2 7.6 0 11.4-0.1 1.7-0.1 3.3 0.4 4.6 0.4 1 9.2 5.6 9 13.4-0.1 2.5 3.4 3.1 4.8 3.1 29.2 0.5 58.2 3.5 86.4 11.2 6.3 1.7 12.6 3.9 18.5 6.9-5.8-1.7-11.5-3.5-17.3-5-32.1-8.4-64.8-11.3-97.9-11.1-2.6 0-4.8 0-3.3 3.8 4.2-2.7 8.3-3.9 12.5-0.3 0.6 0.5 1.9 0.2 2.8 0 0.3-0.1 0.4-1.1 0.8-1.2 1.4-0.2 3.3-0.9 4.3-0.3 5.3 3 11-1.5 16.2 1.1 1 0.5 2.3 0.4 3.5 0.4 0.6 0 1.3-0.5 1.9-0.4 5.4 0.8 10.7 1.9 16.1 2.6 1.5 0.2 3.1-0.8 4.6-0.5 4.3 0.8 8.6 2 12.9 2.9 2.9 0.7 5.7 1.3 8.6 1.8 5.6 0.9 11.4 1.1 16.8 2.6 10.1 2.8 20.2 6 29.9 9.8 11.1 4.4 22.2 9.3 32.7 14.9 6.3 3.3 11.7 8.3 17.4 12.6 2.7 2 2.6 4.4 0.4 7.1-1.2-0.4-2.5-0.9-3.8-1.4-1-0.9-2.1-1.9-3.1-2.8-9.3-6.6-19.3-11.6-30.5-14l0.2 0.1c-1.6-0.7-3.1-1.6-4.8-2.1-33.2-9.7-67.4-12.3-101.6-13.6-42.4-1.5-84.8-1.2-127.1 3.5-1.5 0.2-3 1.1-4.5 1.7-4.6 0.5-9.1 0.9-13.7 1.4-19.2 1.6-37.5 6.9-55.2 14.5-0.7 0.3-1.1 1.3-1.7 2-4.8 2.7-9.7 5.5-14.5 8.2-1.6 0.7-3.2 1.5-5.1 2.3-2.9-2.8-2.5-5.2 0.9-7.7 14.3-10.9 29.5-20 46.7-25.5 2.4-0.8 4.6-2.5 6.9-3.7 0.8 0.2 1.7 0.8 2.3 0.5 10.7-4.5 21.6-8.1 33.2-9.4 2.7-0.3 5.3-0.9 7.9-1.6 3.9-1 7.8-2.2 11.6-3.3 0.6-0.2 1.3 0.1 1.9 0.1 3.9-0.2 7.8-0.2 11.6-0.7 5.3-0.7 10.5-1.8 15.8-2.7 0.7-0.1 1.5 0.6 2.3 0.5 4.8-0.5 9.6-2.8 14.4 0.1 0 0 0.2-0.2 0.4-0.3 3.4-2.1 6.7-2.6 10.2-0.1 0.6 0.4 2 0.1 2.8-0.4 3.5-2.2 9.2-1.9 12.6 1.2 0.1-1.5 0.2-2.6 0.3-4.5-13.6 0.5-26.9 0.7-40.1 1.6-28.2 2.6-55.9 7.4-82.7 17.1zm19-0.9c14.1-1.9 28.1-4.2 42.2-5.6s28.2-2 43.5-3.1c-29.7-0.1-58 2.3-85.7 8.7zm204.8-1.5c-26.9-5-53.6-7.5-74.6-7.1 20.8 1.9 47.5 4.5 74.6 7.1zm-70-0.5v-0.4h-61.5v0.4h61.5z"/>
				<path d="m647.1 537.8c1.9-0.8 3.8-2.3 5.7-2.3 8.9-0.3 17.9-0.2 26.8-0.3 2 0 3.9-0.3 5.8-0.6 1.1-0.2 2.2-0.7 3.3-0.7 9.8 0.1 19.6 0.5 29.4 0.6 3.4 0 6.9-0.8 10.3-0.6 9.4 0.4 18.8 1.3 28.2 1.8 7.6 0.4 15.2 0.3 22.8 0.7 2.4 0.1 4.8 0.8 7.2 1.2 0.6 0.1 1.2 0.6 1.9 0.6 6.1 0.4 12.2 0.5 18.3 1.2 5.9 0.7 11.8 1.9 16.9 2.8v24.9c-4.9 0.8-6.9-0.4-6.6-5 0.3-5.4 0-10.9 0.1-16.4 0-3.2-1.2-4.2-4.7-2.9v23.5c-2.6-0.3-4.6-0.5-7-0.8 0-7.5 0.1-14.6 0-21.7 0-3.3-0.2-3.3-4.7-2.9v24.6c-2.9-0.5-5.3-1-8.3-1.5 0-7.1-0.1-14 0-20.9 0.1-3.4-1.2-4.6-4.7-3.4v24.2c-3.7-0.3-7-0.5-10.7-0.8v-24.2c-3.5-1.4-5.2-0.9-5.1 3 0.1 6.6 0 13.2 0 20.2h-10.9v-24.7c-1.8-0.1-3.2-0.2-5.2-0.4v23.8c-1 0.4-1.5 0.6-1.9 0.6-10.9 0.1-10.9 0.1-11-10.8v-14.1c-1.8-0.1-3.2-0.2-4.8-0.2-0.2 1.1-0.5 1.9-0.5 2.7 0 5.8 0.1 11.6 0.3 17.3 0.1 2.8-0.6 4.4-3.9 4.1s-6.6-0.1-10.7-0.1v-20.3c0-2 0.7-4.6-2.8-4.6-3.7 0-2.5 2.8-2.5 4.7-0.1 6.4 0 12.9 0 19.8h-14.1c0-6.5 0.1-13.1 0-19.7 0-2.1 0.7-5.4-3.1-4.6-1.1 0.2-2.3 3-2.4 4.7-0.3 6.4-0.1 12.9-0.1 19.8-4.2 0.3-7.7 0.6-11.2 0.8 0 0.3 0.1 0.6 0.1 0.9 2.1-0.3 4.2-0.5 6.3-0.8 3.3-0.4 5 0.8 4.7 4.4-0.2 2.1 0 4.2 0 6.6h5.3c0.2-3.5 0.4-6.9 0.6-10.6h14c0.2 3.6 0.3 6.9 0.5 10.5 1.6 0.1 3 0.2 5 0.4 0.2-3.7 0.4-7 0.6-11.1 4.6 0.2 8.8 0.5 12.7 0.7 3.1 3.2-2.3 10.4 5.8 11.3 0.3-4 0.5-7.2 0.8-11.3 4.2 0.3 8.2 0.6 12.5 0.9v9.9c1.8 0.1 3.3 0.2 5.1 0.4v-9.9h6c3.5 0.1 5.6 1.2 5.1 5.3-0.4 3.1 0.1 5.9 4.9 4.4v-8.8c3.8 0.4 7.2 0.7 10.7 1v8.6c1.6 0.1 2.9 0.3 4.5 0.4 0.3-3 0.6-5.5 0.8-8.3h6.7c3.6 2.2-2.5 9.3 5.6 9.1 0.2-2.5 0.3-4.9 0.5-7.2 6.6-1.1 6.6-1.1 6.8 4.9 0 1.3 0.4 2.6 0.6 3.9l0.1-0.1c-2.5 1.2-5 2.6-7.5-0.1-0.1-0.1-0.3-0.1-0.5-0.1h-19.8c-0.2 0-0.3 0.1-0.5 0.1-7.9-0.6-15.7-1.3-23.6-1.9-2-0.1-3.9-0.1-5.9-0.1-4-0.1-8-0.1-12-0.2-1.3 0-2.7-0.5-3.9-0.2-6 1.3-11.8 2.1-17.6-0.8-1.3-0.7-3.5 0.5-5.3 0.5-3.7 0.2-7.4 0.3-11.1 0.2-1.1 0-2.2-0.9-3.3-0.9-8.7 0.6-17.4 1.3-26.2 1.9-2.9 0.2-5.9-0.2-8.9-0.2-2.6 0-5.2 0-7.7 0.1s-4.9 0.4-7.4 0.5c-3.2 0.2-6.4 0.4-9.6 0.5-2.3 0.1-4.6 0-6.9-0.1-1 0-1.9-0.6-2.8-0.5-6.2 0.6-12.4 1.5-18.7 1.9-5.1 0.3-10.1 0.1-15.2 0.1-0.7 0-1.3-0.1-2 0-4.8 0.8-9.5 2-14.3 2.5-8.4 0.9-16.9 1.3-25.3 2.2-5.2 0.5-10.5 1.5-16.2 2.3v-6.1c0.1 0 0.3-0.1 0.4-0.1 0.2 1.6 0.4 3.2 0.7 5.3 5.9 0.3 2.1-5.1 4.8-7.3 0.3 2.1 0.6 4 0.9 6.1 6 0.4 1.9-5.4 5.2-7.3 0.2 2.1 0.5 3.8 0.8 6.2 6.4 0.9 1.8-6.2 5.7-7.7 0.4 2.2 0.8 4.3 1.2 6.6 6.8 1.4 0.7-7.9 6.4-7.6 0.2 2 0.4 4.1 0.6 6.3 3.3 1.4 3.9-0.4 3.9-3.2 0-2.1-0.7-5.1 3.5-4 0.2 2.1 0.3 4.2 0.5 6.2 3.7 1.4 4.1-0.8 4-3.4 0-2.8 0.3-5.1 4.3-4.1 0.1 2.1 0.3 4.2 0.5 8 1.9-1.7 3.9-2.6 3.9-3.5 0.2-9.7 0.1-19.3 0.1-29-0.6-0.2-1.2-0.5-1.8-0.7-0.8 1.2-2.1 2.4-2.2 3.7-0.2 5.5 0.1 10.9-0.2 16.4-0.1 1.4-1.5 2.7-2.3 4-0.7-1.4-2.1-2.7-2.1-4.2-0.3-5.6-0.2-11.3 0-16.9 0-1.2 1-3.1 1.9-3.3 3.8-1 7.8-1.6 11.8-2.3 5.8-1 11.6-2 17.4-2.9 2.7-0.5 5.3-1.1 5.2 3.4-0.3 7.1-0.1 14.2-0.1 21.7-1.6 0.3-3.1 0.7-6 1.3 2.8 0.2 4.2 0.4 5.9 0.5 0.1 2.8 0.3 5.4 0.4 8.2 2.7 0.9 4.3 0.6 4.4-2.8 0.3-7.2 0.4-7.2 8-6.3 0.2 2.7 0.4 5.4 0.6 8.3h4.5v-9.5h10.4v8c4.5 1.2 4.5 1.2 5.4-8.9 3.2-0.2 6.5-0.4 10.3-0.6 0.3 3.8 0.6 6.8 0.9 10.2h4.3c0.2-3.5 0.4-6.7 0.6-10.4h12.2c3.3 2.6-3 9.8 5.6 10.9v-37l-4.2-0.3c-0.3 0.7-0.6 1.2-0.6 1.6-0.1 6-0.5 11.9-0.1 17.9 0.3 4.3-1.5 5.7-5.4 5.5-2.3-0.1-4.6 0-7.8 0 0-6.8-0.1-13.5 0-20.2 0-2 0.8-4.2-2.4-4.2-2.9 0-2.8 1.8-2.7 4.1 0.2 5.3-0.2 10.6 0 15.9 0.2 4.5-1.9 5.9-5.9 5.6-1.5-0.1-3-0.2-5.1-0.4v-20.2c0.2-1.9 0.7-4.3-2.5-3.8zm-48.6 5.6c-4.9-0.5-4.5 3.1-4.5 5.9-0.1 7.8-0.1 15.6 0.2 23.5 0 1.2 1.4 2.3 2.2 3.4 0.8-1.1 2.3-2.2 2.3-3.4 0.2-5.8-0.1-11.6-0.1-17.5-0.1-3.9-0.1-7.8-0.1-11.9zm5.8 32c3.5 0.5 5.1 0.5 5-3.2-0.3-9.6-0.1-19.3-0.1-28.9 0-0.3-0.2-0.6-0.5-1.3-1.2 0.2-2.5 0.4-4.3 0.6-0.1 11.2-0.1 21.9-0.1 32.8z"/>
				<path d="m805.2 609.7c6.8 0.3 13.5 0.7 20.3 0.8 6.4 0.1 12.9 0 19.5 0 0.4 1.9 0.7 3.5 1 5.1 0.3 0 0.6-0.1 0.9-0.1v-4.7h6.3c-0.3 1.9-0.6 3.4-1 5.8h-284.7c-0.4-2.3-0.6-3.8-0.9-5.8h6v4.2c0.3 0 0.6 0.1 0.9 0.1 0.3-1.4 0.7-2.8 1.1-4.8h35.6c64.4-0.2 128.8-0.4 193.3-0.5 0.7 0 1.3-0.1 2-0.1-0.1 0.1-0.3 0-0.3 0z"/>
				<path d="m605 534.2c4.6-0.5 9.1-0.9 13.7-1.4 13.5-1.2 27-3.1 40.6-3.3 34.6-0.5 69.3-0.9 103.9 0.2 20.4 0.6 40.8 3.8 61.1 6.6 10.9 1.5 21.6 4.6 32.4 7l-0.2-0.1c7.8 3.6 15.7 7.2 23.5 10.8 2.3 1.1 4.7 2.2 7 3.2 1 0.9 2.1 1.9 3.1 2.8 0.5 0.8 0.9 1.5 1.4 2.3-0.2 0.2-0.3 0.4-0.5 0.6-2.7-1.8-5.3-3.7-8-5.3-15-8.9-31.8-13.1-48.7-16.2-49.9-9.2-100.3-11.1-150.9-9.4-18 0.6-36.1 1.7-54 3.5-26.2 2.6-52.3 5.8-77 15.7-7.2 2.9-13.9 7-21.3 10.8 1-1.2 1.7-2.1 2.5-3 4.8-2.7 9.7-5.5 14.5-8.2 8.7-3.2 17.2-6.8 26.1-9.3 10.1-3 20.5-5 30.8-7.3z"/>
				<path d="m647 537.7c-0.7 1.4-2 2.8-2 4.3-0.2 6.6-0.1 13.2-0.1 20.4-3.5 0.4-6.8 0.8-10.5 1.3v-24.2c-1.5-0.1-2.9-0.2-4.7-0.3v24.6c-2.7 0.3-5.1 0.6-8.8 1v-26.4h9.5c1.5 0 3.1 0.1 4.4-0.6 4.1-2.4 8.2-1.9 12.2-0.1 0.1 0.1 0 0 0 0z"/>
				<path d="m813.2 576.5c5.6-0.2 3.5-4.9 4.5-7.9 4-1.3 6.4-1 5.8 4.3-0.1 1.2 1.6 2.6 2.5 3.9 0.5-0.3 1-0.6 1.5-0.8 0.2-2.1 0.4-4.2 0.5-6.5 3.3-0.7 5.1 0.4 5 3.9 0 2.7 0.5 4.6 4.1 3.4l0.6-6.3c0.4-0.2 0.8-0.5 1.2-0.7 0.9 1.4 1.9 2.8 2.8 4.2 0.8 1.3 1.5 2.7 2.2 4.1 0.7-1.5 1.5-3 2.2-4.5 0.2-0.4 0.2-0.9 1.6-2.2 0.7 1.3 1.5 2.6 2.2 4l2.1 4.2c0.5-0.2 1.1-0.4 1.6-0.6 0.3-1.9 0.5-3.8 0.8-5.6 0.4-0.2 0.7-0.4 1.1-0.7 1.2 2.6 2.5 5.3 3.7 7.9 0.5-0.2 1.1-0.4 1.6-0.6 0.3-2 0.6-4 0.9-5.9 0.4-0.1 0.8-0.1 1.2-0.2 0.3 1.1 0.6 2.3 1 3.4 0.5 1.3 1.3 2.6 1.9 3.8 0.7-1.3 1.5-2.7 2.1-4 0.3-0.6 0.3-1.2 0.5-2 3.8 0.8-1.2 7.9 5.3 6.8 0.2-1.8 0.5-3.7 0.7-5.5h0.9c0.2 1.2 0.2 2.4 0.6 3.5 0.4 1.2 1.2 2.3 1.8 3.4 0.7-1.1 1.4-2.1 1.9-3.2 0.3-0.7 0.2-1.5 1-2.3v6.6c-9.1-1.3-18.4-2.9-27.7-4-4.2-0.5-8.6 0-12.9-0.4-4.2-0.4-8.3-1.4-12.5-2.1-1.1-0.2-2.7-1-3.4-0.5-4 2.6-7.4-0.7-11.1-0.8 0.3-0.2 0.2-0.1 0.2-0.1z"/>
				<path d="m842.8 546.6c-0.3 3.5-0.7 7-0.9 10.6-0.2 3 0.2 6-0.2 8.9-0.2 1.3-1.7 2.4-2.6 3.6-0.5-0.3-1-0.5-1.6-0.8v-19.7c0-2.7 0-5.3-4.3-3.7v22.1c-1.8 0.1-3.3 0.2-5.5 0.4 0-8.2-0.1-15.9 0.1-23.7 0-0.7 1.5-2.1 2-2 3.7 0.7 7.4 1.6 11.1 2.6 0.7 0.3 1.3 1.2 1.9 1.7z"/>
				<path d="m570.8 548.8c1.5-1 3-2 5-3.4 0 7.6 0.1 14.3-0.1 20.9 0 1.4-1.4 2.7-2.1 4-0.5-0.2-1.1-0.5-1.6-0.7 0-5.6 0.1-11.2-0.1-16.8 0-1.3-0.7-2.7-1.1-4z"/>
				<path d="m842.8 546.6c7.3-0.9 7.3-0.9 7.3 6.1v17.3c-0.5 0.3-0.9 0.5-1.4 0.8-0.8-1.1-2.2-2.3-2.3-3.5-0.2-5.6-0.2-11.2-0.1-16.8 0.1-2.6-0.6-4.1-3.5-3.9z"/>
				<path d="m857.7 550.6v20.6c-0.7 0.2-1.3 0.4-2 0.6-0.5-1.3-1.4-2.7-1.5-4-0.2-6.4-0.1-12.8-0.1-20.1 1.4 1.1 2.5 2 3.6 2.9z"/>
				<path d="m570.8 548.7c-1 1.1-2.7 2.2-2.8 3.3-0.3 5.1-0.1 10.3-0.2 15.4 0 1.3-0.8 2.5-1.2 3.8-0.7-0.1-1.3-0.2-2-0.3 0-7-0.1-13.9 0.3-20.9 0-0.5 3.8-0.8 5.9-1.3v0z"/>
				<path d="m857.7 550.6c6.4-0.5 6.4-0.5 6.4 5.8v12.8c0 1.2-0.4 2.3-0.6 3.5h-1.5c-0.2-1.4-0.6-2.8-0.6-4.2-0.1-4.8-0.2-9.6 0-14.3 0.2-2.9-1.1-3.9-3.7-3.6z"/>
				<path d="m559.9 550.4v21.7c-0.8 0-1.5 0-2.3-0.1 0-6.9-0.1-13.8 0.1-20.6 0.1-0.4 1.9-0.8 2.2-1z"/>
				<path d="m869.8 553v20.5h-1v-20.5h1z"/>
				<path d="m553.3 553.2v19.9h-1.1v-20c0.4 0 0.8 0.1 1.1 0.1z"/>
				<path d="m547.4 556v18.1h-1v-18.1c0.4 0.1 0.7 0 1 0z"/>
				<path d="m875.7 556.2v18.4h-1v-18.5c0.3-0.1 0.7 0 1 0.1z"/>
				<path d="m881.2 559.4v16.1h-0.8v-16.2c0.3 0.1 0.5 0.1 0.8 0.1z"/>
				<path d="m749.6 584.7c1.1-0.9 2.1-2.6 3.2-2.6 8.9-0.2 17.8-0.1 26.7-0.1 0.3 0.7 0.6 1.4 0.9 2.1-1.1 1-2.1 2.7-3.2 2.8-8.9 0.2-17.8 0.1-26.7 0.1-0.3-0.8-0.6-1.6-0.9-2.3z"/>
				<path d="m672.7 582.7c-1.9 1.6-3 3.3-4.1 3.3-8.7 0.2-17.5 0.1-27.5 0.1 0.9-1.2 1.8-3.3 2.6-3.3 9.1-0.2 18.1-0.1 29-0.1z"/>
				<path d="m676.3 584.4c1.1-0.8 2.3-2.4 3.4-2.4 8.2-0.2 16.5-0.1 24.7-0.1l0.6 1.2c-1.8 0.9-3.5 2.6-5.3 2.7-7.4 0.3-14.8 0.1-22.2 0.1l-1.2-1.5z"/>
				<path d="m744 582.1c1.1 2.7 0.7 4.1-2.6 4-6.3-0.2-12.6 0.1-18.9-0.3-1.9-0.1-3.7-1.6-5.6-2.5 0.2-0.4 0.3-0.8 0.5-1.3 8.9 0.1 17.7 0.1 26.6 0.1z"/>
				<path d="m612.7 586.3c1-0.9 2-2.4 3.2-2.5 6.7-0.6 13.5-0.8 20.2-1.2 0.3 0.5 0.7 0.9 1 1.4-1 1-1.9 2.8-3 2.9-6.7 0.6-13.5 0.8-20.2 1.1-0.4-0.5-0.8-1.1-1.2-1.7z"/>
				<path d="m785.3 582.6c6.9 0.4 13.7 0.6 20.6 1.2 1 0.1 1.8 1.9 2.6 2.8-0.3 0.4-0.6 0.8-1 1.2-6.9-0.3-13.7-0.5-20.6-1.1-1-0.1-1.8-1.9-2.7-2.9 0.4-0.3 0.7-0.7 1.1-1.2z"/>
				<path d="m831.9 588.6c-13.9 1.1-19.4-0.1-19.4-4.7 5.6 0.4 11.1 0.6 16.7 1.2 0.8 0.1 1.4 1.9 2.7 3.5z"/>
				<path d="m609.6 585.1c-0.8 1-1.6 2.9-2.6 3-5.4 0.6-10.8 0.8-16.2 1.2-0.3-0.5-0.7-1-1-1.4 1-0.9 1.9-2.6 3-2.7 5.2-0.6 10.5-0.8 15.7-1.1 0.4 0.3 0.8 0.6 1.1 1z"/>
				<path d="m849.7 591.4c-3.7-0.5-7.5-0.8-11.1-1.6-1.6-0.3-3-1.4-4.5-2.2 0.2-0.7 0.4-1.3 0.7-2 5 0.4 10 0.8 15.2 1.2-0.2 1.9-0.3 3.2-0.3 4.6-0.1 0 0 0 0 0z"/>
				<path d="m571.7 590.3c0.2-3.7 5.4-5.1 14.6-4.2 0.1 3.8 0.1 3.8-14.6 4.2z"/>
				<path d="m861.9 592.1c-2.1-0.4-4.2-0.5-6.2-1.1-1.1-0.4-2-1.5-3-2.3 0.3-0.4 0.6-0.9 0.9-1.3 2.7 0.2 5.5 0.2 8.2 0.8 1.5 0.3 2.7 1.6 4.1 2.4-1.4 0.5-2.7 1-4.1 1.5 0-0.1 0.1 0 0.1 0z"/>
			</g>
					<path d="m721.2 442.8c3.7 2.9 7.7 3 10.6 2.6-0.2 2.3 0 4.5 0.7 5.7 0 0-8.3-2.5-12.2-4.3-2-0.9-6.1-1.8-8.5-1.1v-5.2c3.4-0.1 7.1 0.6 9.4 2.3z" fill="#5FBE40"/>
					<path d="m732.3 440.8c-0.2 1.5-0.5 3-0.5 4.6-2.9 0.5-7 0.3-10.6-2.6-2.3-1.8-5.9-2.5-9.4-2.3v-4.5c3.4-0.2 7.1 0.5 9.4 2.3 3.9 3.1 8.2 3.1 11.1 2.5z" fill="#fff"/>
					<path d="m721.8 434.2c2.7 1.2 7.9 3.2 11.6 1.4 0 0-0.6 2.3-1.1 5.2-2.9 0.5-7.2 0.6-11.2-2.5-2.3-1.8-5.9-2.5-9.4-2.3v-3.3s4.4-1.2 10.1 1.5z" fill="#EF873E"/>
					<g stroke="#2E3192" stroke-width=".1" stroke-miterlimit="10">
						<circle r="1.5" cy="441.1" cx="721.7" fill="#fff"/>
						<path d="m721.7 442.7c-0.9 0-1.6-0.7-1.6-1.6s0.7-1.6 1.6-1.6c0.9 0 1.6 0.7 1.6 1.6s-0.8 1.6-1.6 1.6zm0-3.1c-0.8 0-1.5 0.7-1.5 1.5s0.7 1.5 1.5 1.5c0.8 0 1.5-0.7 1.5-1.5s-0.7-1.5-1.5-1.5z" fill="#2E3192"/>
					</g>
						<path stroke="#2E3192" stroke-width=".1" stroke-miterlimit="10" d="m721.7 441.1v-1.4 1.4z" fill="#2E3192"/>
						<path stroke="#2E3192" stroke-width=".1" stroke-miterlimit="10" d="m721.7 441.1l-0.4-1.3 0.4 1.3z" fill="#2E3192"/>
						<polygon stroke="#2E3192" stroke-width=".1" stroke-miterlimit="10" points="721.7 441.1 721.7 441.1 721 439.9 721 439.9 721 439.9 721.7 441.1" fill="#2E3192"/>
						<polygon stroke="#2E3192" stroke-width=".1" stroke-miterlimit="10" points="721.7 441.1 721.7 441.1 720.7 440.1 720.7 440.1 720.7 440.1 721.7 441.1" fill="#2E3192"/>
						<polygon stroke="#2E3192" stroke-width=".1" stroke-miterlimit="10" points="721.7 441.1 721.7 441.1 720.5 440.4 720.5 440.4 720.5 440.4 721.7 441.1" fill="#2E3192"/>
						<path stroke="#2E3192" stroke-width=".1" stroke-miterlimit="10" d="m721.7 441.1l-1.3-0.4 1.3 0.4z" fill="#2E3192"/>
						<path stroke="#2E3192" stroke-width=".1" stroke-miterlimit="10" d="m721.7 441.1h-1.4 1.4z" fill="#2E3192"/>
						<path stroke="#2E3192" stroke-width=".1" stroke-miterlimit="10" d="m720.3 441.5v0l1.3-0.4-1.3 0.4z" fill="#2E3192"/>
						<polygon stroke="#2E3192" stroke-width=".1" stroke-miterlimit="10" points="720.5 441.8 720.5 441.8 720.5 441.8 721.7 441.1 721.7 441.1 721.7 441.1" fill="#2E3192"/>
						<polygon stroke="#2E3192" stroke-width=".1" stroke-miterlimit="10" points="720.7 442.1 720.7 442.1 720.7 442.1 721.7 441.1 721.7 441.1 721.7 441.1" fill="#2E3192"/>
						<polygon stroke="#2E3192" stroke-width=".1" stroke-miterlimit="10" points="721 442.3 721 442.3 721 442.3 721.7 441.1 721.7 441.1 721.7 441.1" fill="#2E3192"/>
						<path stroke="#2E3192" stroke-width=".1" stroke-miterlimit="10" d="m721.3 442.4l0.3-1.3-0.3 1.3z" fill="#2E3192"/>
						<path stroke="#2E3192" stroke-width=".1" stroke-miterlimit="10" d="m721.7 442.5v-1.4 1.4z" fill="#2E3192"/>
						<path stroke="#2E3192" stroke-width=".1" stroke-miterlimit="10" d="m722 442.4l-0.4-1.3 0.4 1.3z" fill="#2E3192"/>
						<polygon stroke="#2E3192" stroke-width=".1" stroke-miterlimit="10" points="722.4 442.3 722.3 442.3 721.7 441.1 721.7 441.1 721.7 441.1 722.4 442.3" fill="#2E3192"/>
						<polygon stroke="#2E3192" stroke-width=".1" stroke-miterlimit="10" points="722.6 442.1 722.6 442.1 721.7 441.1 721.7 441.1 721.7 441.1 722.6 442.1" fill="#2E3192"/>
						<polygon stroke="#2E3192" stroke-width=".1" stroke-miterlimit="10" points="722.9 441.8 722.9 441.8 721.7 441.1 721.7 441.1 721.7 441.1 722.9 441.8" fill="#2E3192"/>
						<path stroke="#2E3192" stroke-width=".1" stroke-miterlimit="10" d="m723 441.5l-1.3-0.4 1.3 0.4v0z" fill="#2E3192"/>
						<path stroke="#2E3192" stroke-width=".1" stroke-miterlimit="10" d="m723 441.1h-1.4 1.4s0.1 0 0 0c0.1 0 0 0 0 0z" fill="#2E3192"/>
						<path stroke="#2E3192" stroke-width=".1" stroke-miterlimit="10" d="m721.7 441.1l1.3-0.4-1.3 0.4z" fill="#2E3192"/>
						<polygon stroke="#2E3192" stroke-width=".1" stroke-miterlimit="10" points="721.7 441.1 721.7 441.1 721.7 441.1 722.9 440.4 722.9 440.4 722.9 440.4" fill="#2E3192"/>
						<polygon stroke="#2E3192" stroke-width=".1" stroke-miterlimit="10" points="721.7 441.1 721.7 441.1 721.7 441.1 722.6 440.1 722.6 440.1 722.6 440.1" fill="#2E3192"/>
						<polygon stroke="#2E3192" stroke-width=".1" stroke-miterlimit="10" points="721.7 441.1 721.7 441.1 721.7 441.1 722.3 439.9 722.4 439.9 722.4 439.9" fill="#2E3192"/>
						<path stroke="#2E3192" stroke-width=".1" stroke-miterlimit="10" d="m721.7 441.1l0.3-1.3-0.3 1.3z" fill="#2E3192"/>
	</g>
	<g clip-path="url(#SVGID_2_)">
		<rect height="33.4" width="1652.4" stroke="#231F20" stroke-miterlimit="10" y="615.1" x="-111.8" fill="#B3B3B3"/>
		<rect y="629.4" x="-84" height="4.8" width="60.4" fill="#fff"/>
		<rect y="629.4" x="61.1" height="4.8" width="60.4" fill="#fff"/>
		<rect y="629.4" x="206.1" height="4.8" width="60.4" fill="#fff"/>
		<rect y="629.4" x="351.2" height="4.8" width="60.4" fill="#fff"/>
		<rect y="629.4" x="496.3" height="4.8" width="60.4" fill="#fff"/>
		<rect y="629.4" x="641.4" height="4.8" width="60.4" fill="#fff"/>
		<rect y="629.4" x="786.4" height="4.8" width="60.4" fill="#fff"/>
		<rect y="629.4" x="931.5" height="4.8" width="60.4" fill="#fff"/>
		<rect y="629.4" x="1076.6" height="4.8" width="60.4" fill="#fff"/>
		<rect y="629.4" x="1221.7" height="4.8" width="60.4" fill="#fff"/>
		<rect y="629.4" x="1366.7" height="4.8" width="60.4" fill="#fff"/>
		<rect y="629.4" x="1511.8" height="4.8" width="28.1" fill="#fff"/>
	</g>
	<g clip-path="url(#SVGID_2_)">
			<rect height="68.9" width="16.2" stroke="#58595B" stroke-miterlimit="10" y="545.9" x="271.9" stroke-width=".5" fill="#fff"/>
			<rect height="68.9" width="16.2" stroke="#58595B" stroke-miterlimit="10" y="545.9" x="396.8" stroke-width=".5" fill="#fff"/>
		<path stroke="#58595B" stroke-width=".5" stroke-miterlimit="10" d="m378.5 533.3v12.5h-5.2v-4h-5.4v-4h6.7v-7h-64.2v7h6.7v4h-5.4v4h-5.2v-12.5s-16.8 4-18.4 12.5v68.9h108.6v-68.9c-1.4-8.5-18.2-12.5-18.2-12.5zm-77.3 8.3h1.2v9.7h-1.2v-9.7zm-4.6 2.8h1.2v6.9h-1.2v-6.9zm-5.1 1.8h1.2v5h-1.2v-5zm11.4 28.3h-11.7v-20.7h11.7v20.7zm89.3-28.3h1.2v5h-1.2v-5zm-5-1.8h1.2v6.9h-1.2v-6.9zm-4.6-2.8h1.2v9.7h-1.2v-9.7zm11.1 32.9h-11.7v-20.7h11.7v20.7z" fill="#fff"/>
		<path d="m368.8 570.3v-2h-3.3v-2h-3.4v-1h-4.6c-9.5-5.7-11-5.5-15-5.5s-5.6-0.2-15 5.5h-4.6v1h-3.4v2h-3.3v2h-10.5v11.8h73.6v-11.8h-10.5z" fill="#58595B"/>
			<rect height="9.1" width="30.8" stroke="#58595B" stroke-miterlimit="10" y="526.9" x="327.2" stroke-width=".5" fill="#fff"/>
			<rect height="30.5" width="14.8" stroke="#58595B" stroke-miterlimit="10" y="584.2" x="327.5" stroke-width=".5" fill="#D1D3D4"/>
			<rect height="30.5" width="14.8" stroke="#58595B" stroke-miterlimit="10" y="584.2" x="343.2" stroke-width=".5" fill="#D1D3D4"/>
			<rect height="13.6" width="19.6" stroke="#58595B" stroke-miterlimit="10" y="593.1" x="359.7" stroke-width=".5" fill="#D1D3D4"/>
			<rect height="13.6" width="19.6" stroke="#58595B" stroke-miterlimit="10" y="593.1" x="305.8" stroke-width=".5" fill="#D1D3D4"/>
			<text font-size="8.9691" font-family="&apos;MyriadPro-Bold&apos;" transform="translate(309.25 579.42)" fill="#4CAF50">REVENUE OFFICE</text>
	</g>
	<g clip-path="url(#SVGID_2_)">
		<rect y="554.2" x="984.4" height="44.7" width="67" fill="#58595B"/>
			<path stroke="#58595B" stroke-width=".5" stroke-miterlimit="10" d="m1036.1 558.2c3.2-1 3.8-0.6 3.9 2.5 0.4 11.4 0.7 22.8 1.1 34.1 0 1 0.5 2.7 1 2.8 1.9 0.2 3.8 0.1 5.7-0.2 0.3 0 0.6-1.4 0.6-2.1 0.4-11.5 0.7-23.1 1.1-34.6 0.1-3.1 0.4-3.3 3.7-2.6l-0.1-0.1c0.2 8.6 0.5 17.2 0.8 25.8 0.2 5 0.5 10 0.7 15.1h-72.5c0-3.5-0.1-7 0-10.5 0.3-9.4 0.6-18.9 0.9-28.3 0-0.8 0.5-2 1.1-2.2 1.5-0.5 2.4 0 2.5 1.8 0.3 11 0.6 22 1 33 0 0.7 0.1 1.4 0 2.1-0.2 2.3 0.8 3.2 3.3 3.1 4.2-0.1 4.2-0.1 4.3-4.1 0.3-11.3 0.7-22.6 1-33.9 0-1.2 0.3-2.1 1.9-2.1 1.8 0 1.7 1.1 1.8 2.2 0.3 11.2 0.7 22.3 1 33.5 0 0.9-0.2 1.8 0.2 2.5s1.3 1.3 2 1.8c0.1 0.1 0.3 0 0.5 0 4.8 0.2 4.9 0.2 5-4.3 0.3-11 0.7-22 1-33 0.1-2.8 0.7-3.2 3.7-2.3v-0.1c0.3 12.5 0.7 25.1 1.1 37.6 0 0.6 0.4 1.2 0.7 1.8 0.2 0 0.5-0.1 0.7-0.1v-12.2h4.9v12.2c0.3 0 0.5 0 0.8 0.1 0.2-0.8 0.4-1.6 0.4-2.5 0.4-11.7 0.7-23.4 1-35.1 0-1.2 0-2.2 1.8-2.2s1.9 1 1.9 2.3c0.3 11.1 0.6 22.3 1 33.4 0.1 4.5 0.2 4.5 5 4.3 0.2 0 0.4 0.1 0.5 0 0.7-0.6 1.9-1.2 1.9-1.8 0.5-12.6 0.8-25.2 1.1-37.7z" fill="#fff"/>
			<path stroke="#88D8FB" stroke-width=".5" stroke-miterlimit="10" d="m968.4 583.5c0.3 3.4 0.7 6.7 0.9 10.1 0.1 1.5 0.4 2.5 2.4 2.4 1.8 0 2.8-0.2 2.9-2.2 0.2-3.6 0.6-7.2 1-10.8l-0.1 0.1c0.7 0.1 1.5 0.2 2.5 0.3 0.3 3.3 0.4 6.6 0.8 9.8 0.1 1 0.8 1.9 1.1 2.8 0.2 0.4 0.4 0.9 0.4 1.2-0.5 2.5-1 14.8-1.6 17.4h-54.6v-18.5c2.8 0.3 3-1.3 3-3.2 0.2-3.3 0.5-6.6 0.8-10l-0.1 0.1c2.3-0.1 3 1 3 2.9 0 2.7 0.4 5.4 0.4 8.1 0.1 1.6 1 1.9 2.5 1.9s2.7-0.1 2.8-1.8c0.2-3.1 0.5-6.2 0.7-9.3 0.1-1.6 0.9-2 2.7-1.5 0.3 3.3 0.6 6.8 0.9 10.2 0.1 1.3 0.1 2.5 2.1 2.4 1.7-0.1 3.1-0.1 3.2-2.3 0.1-3.5 0.5-6.9 0.8-10.4 0.9-0.2 1.7-0.3 2.4-0.4 0.3 3.4 0.7 6.9 0.9 10.3 0.1 1.8 0.6 2.8 2.9 2.8 2.4 0 2.4-1.3 2.5-2.8 0.2-3.3 0.5-6.6 0.8-9.9 1-0.1 1.8-0.2 2.6-0.3l-0.1-0.1c0.3 3.6 0.6 7.2 0.8 10.9 0.1 1.7 1 2.2 2.7 2.2s2.6-0.5 2.7-2.2c0.1-3.5 0.4-7.1 0.6-10.6 1 0.2 1.9 0.3 2.7 0.4zm-1 0.8h-0.3v10h0.3v-10zm9.5 0h-0.3v10.5h0.3v-10.5zm-47.6 0.3c-0.1 0-0.2 0.1-0.2 0.1v9.8h0.2v-9.9zm9.6 0h-0.2v9.9h0.2v-9.9zm9.6-0.3h-0.3v10.5h0.3v-10.5zm9.5 0.3h-0.2v9.9h0.2v-9.9z" fill="#fff"/>
			<path stroke="#88D8FB" stroke-width=".5" stroke-miterlimit="10" d="m1067.6 583.1c0.8 0.1 1.6 0.2 2.7 0.3 0.3 3.4 0.6 6.9 0.7 10.3 0.1 1.5 0.4 2.4 2.2 2.3 1.7 0 3.1-0.1 3.2-2.2 0.2-3.6 0.6-7.2 0.9-10.8 0.7 0.1 1.4 0.2 2.4 0.4 0.3 3.4 0.7 6.8 0.8 10.3 0.1 1.8 0.9 2.3 2.8 2.4 1.9 0 2.4-0.7 2.5-2.3 0.3-3.6 0.8-7.2 1.2-10.8 0.6 0.1 1.3 0.2 2.3 0.4 0.2 3.3 0.6 6.8 0.7 10.2 0.1 1.8 0.8 2.4 2.7 2.4 2.1 0 2.5-0.8 2.6-2.5 0.1-3.3 0.5-6.6 0.8-10.1 0.9-0.2 1.7-0.3 2.5-0.4 0.3 3.6 0.7 7.2 0.9 10.8 0.1 1.9 1.1 2.2 2.9 2.2 1.9 0 2.4-0.8 2.5-2.4 0.1-3.5 0.3-6.9 0.4-10.4 1 0 2.1-0.1 3.1-0.1 0.2 3.6 0.3 7.3 0.7 10.9 0.1 0.9 1.4 1.7 2.2 2.6 0.2-0.1 0.5-0.2 0.7-0.4v19c-0.9 0.1-1.7 0.2-2.5 0.2h-50.3c-1.3 0-2-10.9-2.2-12.1-0.3-1.8-0.8-3.6-1.1-5.5-0.1-0.4-0.3-0.9-0.1-1.1 3.1-4.1 1.4-8.9 2.2-13.4 0.9-0.1 1.9-0.2 2.8-0.3 0.2 3.5 0.5 7.1 0.7 10.6 0.1 1.9 1 2.3 2.8 2.4 1.8 0 2.6-0.6 2.6-2.2 0.1-3.6 0.5-7.2 0.7-10.7z" fill="#fff"/>
			<path stroke="#88D8FB" stroke-width=".5" stroke-miterlimit="10" d="m1018.5 509.8c12.8 2.9 19 8.8 18.6 17.9h-38c-0.9-7 5.9-16.7 18.1-17.6 0.2-3 0.7-16.6 0.8-16.6s0.5 13.5 0.5 16.3z" fill="#fff"/>
			<path stroke="#58595B" stroke-width=".5" stroke-miterlimit="10" d="m1013.3 558.2c0.1-0.5 0.2-1 0.3-1.4-1.3 0.1-2.6 0.2-3.7 0.3-0.7 0.5-1.5 1-2.2 1.5-0.5-0.7-0.9-1.4-1.5-2.3h-2.6c-0.6 0.9-1.2 1.6-1.7 2.4-0.7-0.5-1.4-1-2.3-1.6h-2.7c-0.8 0.6-1.5 1.1-2.1 1.6-0.4-0.7-0.7-1.5-1.3-1.9-0.9-0.6-2-1.3-3.1-1.3-3.3-0.2-6.7-0.1-10.2-0.1v-3h76.1v3h-9.9c-1.8 0-3.4 0.2-3.6 2.4 0 0.3-1 1-1.2 0.9-0.7-0.4-1.3-1-2-1.6h-3.5v1.2l0.1-0.1c-2.1 1-3.1 0.4-2.9-1.8h-3c-0.9 1-1.5 1.7-2 2.4-0.6-0.5-1.2-1-2-1.5-1-0.1-2.5-0.2-3.5-0.3l-1.2 1.8c-0.7-0.7-1.4-1.4-2.4-2.3h-2.9c-0.2 2.3-0.5 2.5-3 1.7z" fill="#fff"/>
			<path stroke="#88D8FB" stroke-width=".5" stroke-miterlimit="10" d="m997.3 533.8v-4.8h41.6v4.8h-41.6z" fill="#fff"/>
			<path stroke="#58595B" stroke-width=".5" stroke-miterlimit="10" d="m1058.2 616.6h-80.4c-0.1-0.2-0.1-0.5-0.2-0.7 0.7-0.2 1.4-0.5 2.1-0.5h67.7 8.8c0.7 0 1.5 0.3 2.2 0.5 0 0.3-0.1 0.5-0.2 0.7z" fill="#fff"/>
			<path stroke="#58595B" stroke-width=".5" stroke-miterlimit="10" d="m978.8 610.8c0.3-0.3 0.7-0.7 1-0.7 25.7 0 51.4 0.1 77.1 0.2 0.2 0 0.3 0.6 0.6 1.1h-78.4c-0.1-0.3-0.2-0.4-0.3-0.6z" fill="#fff"/>
			<path stroke="#58595B" stroke-width=".5" stroke-miterlimit="10" d="m978.3 613.8c1.5-1.5 78-1.6 79.7 0h-79.7z" fill="#fff"/>
			<path stroke="#88D8FB" stroke-width=".5" stroke-miterlimit="10" d="m1020.5 535h23.4v8.3c-7.9-2.6-15.7-5.2-23.5-7.8 0.1-0.2 0.1-0.3 0.1-0.5z" fill="#fff"/>
			<path stroke="#58595B" stroke-width=".5" stroke-miterlimit="10" d="m1056.6 608.8h-77v-1h77v1z" fill="#fff"/>
			<path stroke="#88D8FB" stroke-width=".5" stroke-miterlimit="10" d="m992.2 543.4v-8.2h23.5c0 0.1 0.1 0.2 0.1 0.3-7.8 2.6-15.6 5.2-23.6 7.9z" fill="#fff"/>
			<path stroke="#58595B" stroke-width=".5" stroke-miterlimit="10" d="m980.6 602.6c25-0.2 50 0 75.1-0.1v0.9h-75c-0.1-0.2-0.1-0.5-0.1-0.8z" fill="#fff"/>
			<path stroke="#58595B" stroke-width=".5" stroke-miterlimit="10" d="m1056.2 606.1h-76.2c-0.1-0.2-0.1-0.4-0.2-0.6 0.7-0.2 1.4-0.5 2.2-0.5h39.6 32.3c0.8 0 1.5 0.3 2.3 0.4 0.1 0.2 0.1 0.4 0 0.7z" fill="#fff"/>
			<path stroke="#58595B" stroke-width=".5" stroke-miterlimit="10" d="m1055.1 601.2h-73.9c0-0.2-0.1-0.4-0.1-0.7 0.8-0.1 1.6-0.4 2.4-0.4h63.4 6.6c0.6 0 1.2 0.3 1.8 0.5-0.1 0.2-0.1 0.4-0.2 0.6z" fill="#fff"/>
			<path stroke="#58595B" stroke-width=".5" stroke-miterlimit="10" d="m989.6 567.2h3.9v9h-3.9v-9z" fill="#fff"/>
			<path stroke="#58595B" stroke-width=".5" stroke-miterlimit="10" d="m1046.7 567.2v8.9h-3.9v-8.9h3.9z" fill="#fff"/>
			<path stroke="#58595B" stroke-width=".5" stroke-miterlimit="10" d="m1002.9 567.2h3.9v9h-3.9v-9z" fill="#fff"/>
			<path stroke="#58595B" stroke-width=".5" stroke-miterlimit="10" d="m1002.8 593.9v-8.6h3.9v8.6h-3.9z" fill="#fff"/>
			<path stroke="#58595B" stroke-width=".5" stroke-miterlimit="10" d="m993.5 593.9h-3.8v-8.7h3.8v8.7z" fill="#fff"/>
			<path stroke="#58595B" stroke-width=".5" stroke-miterlimit="10" d="m1046.6 593.9h-3.8v-8.6h3.8v8.6z" fill="#fff"/>
			<path stroke="#58595B" stroke-width=".5" stroke-miterlimit="10" d="m1053.2 558.1c-0.2-0.4-0.4-1-0.7-1-1-0.1-1.9 0-2.8 0-0.4 0.5-0.8 1.2-1.4 1.5-0.3 0.1-1-0.6-1.6-1 0.5-0.5 0.9-1.4 1.4-1.5 1.8-0.2 3.7-0.2 5.5-0.1 0.9 0.1 1.7 0.6 2.5 1 0.1 0.1-0.2 1.1-0.3 1.2-0.9 0-1.8-0.1-2.6-0.1-0.1-0.1 0 0 0 0z" fill="#fff"/>
			<path stroke="#58595B" stroke-width=".5" stroke-miterlimit="10" d="m982.5 556.8c1.1-1 5.8-1.3 6.7-0.4 0.3 0.3 0.4 1 0.3 1.4-0.1 0.3-0.9 0.8-1.1 0.7-0.7-0.4-1.2-0.9-2-1.5-1.1 0-2.5-0.1-3.9-0.2z" fill="#fff"/>
			<path stroke="#58595B" stroke-width=".5" stroke-miterlimit="10" d="m1060.8 583.1c-0.9 0.1-1.9 0.2-2.8 0.3-0.7-0.2-1.4-0.3-2.2-0.5 0.6-0.3 1.2-0.9 1.9-0.9 1.2-0.2 2.4-0.1 3.5 0 0.6 0 1.2 0.3 1.7 0.6 0.1 0.1-0.1 0.7-0.2 1-0.6-0.2-1.3-0.4-1.9-0.5z" fill="#fff"/>
			<path stroke="#58595B" stroke-width=".5" stroke-miterlimit="10" d="m968.4 583.5c-0.9-0.1-1.7-0.2-2.6-0.3-0.6 0.1-1.2 0.3-1.8 0.3-0.1 0-0.4-0.9-0.3-1 0.5-0.3 1.1-0.6 1.7-0.7 1.1-0.1 2.2-0.1 3.2 0 0.7 0.1 1.4 0.6 2.1 0.9-0.7 0.4-1.5 0.6-2.3 0.8z" fill="#fff"/>
			<path stroke="#58595B" stroke-width=".5" stroke-miterlimit="10" d="m1108.4 583.2c-1 0-2.1 0.1-3.1 0.1-0.6-0.1-1.3-0.2-1.9-0.3 0.5-0.4 0.9-1 1.4-1.1 1.3-0.2 2.7-0.1 4 0 0.6 0 1.2 0.3 1.7 0.6 0.1 0.1-0.2 1-0.3 1-0.7 0-1.3-0.2-1.8-0.3z" fill="#fff"/>
			<path stroke="#58595B" stroke-width=".5" stroke-miterlimit="10" d="m1077.3 583c-0.7 0.1-1.5 0.3-2.2 0.4-0.1 0-0.3-0.7-0.3-0.8 0.7-0.3 1.4-0.7 2.1-0.8 1.3-0.1 2.7-0.1 4 0 0.4 0 0.9 0.5 1.1 0.9 0.1 0.1-0.3 0.8-0.6 0.8-0.4 0-0.8-0.3-1.3-0.4-1-0.2-2.1-0.4-3.2-0.5 0 0.1 0 0.2 0.1 0.2 0.1 0.2 0.2 0.2 0.3 0.2z" fill="#fff"/>
			<path stroke="#58595B" stroke-width=".5" stroke-miterlimit="10" d="m1098.6 583.1c-0.9 0-1.9-0.1-2.8 0-0.5 0-1 0.4-1.6 0.5-0.1 0-0.5-0.8-0.4-0.9 0.5-0.3 1-0.7 1.6-0.8 1.2-0.1 2.5-0.1 3.7 0 0.6 0.1 1.3 0.4 1.8 0.7 0 0-0.3 0.9-0.4 0.9-0.6-0.1-1.3-0.3-1.9-0.4v0z" fill="#fff"/>
			<path stroke="#58595B" stroke-width=".5" stroke-miterlimit="10" d="m1086.9 583c-0.5 0.2-1 0.6-1.5 0.7-0.3 0.1-1-0.3-1-0.5 0-0.4 0.3-1.1 0.5-1.1 2-0.1 4-0.1 6-0.1 0.2 0 0.7 0.5 0.6 0.8 0 0.3-0.4 0.8-0.7 0.8-0.4 0-0.8-0.3-1.3-0.4-1-0.2-2.1-0.4-3.1-0.5v0.2c0.3 0.1 0.4 0.1 0.5 0.1z" fill="#fff"/>
			<path stroke="#58595B" stroke-width=".5" stroke-miterlimit="10" d="m949.4 583c0.1-0.2 0.2-0.4 0.3-0.5-1 0.1-2 0.2-2.9 0.4-0.5 0.1-1 0.5-1.5 0.8-0.2-0.4-0.4-0.8-0.6-1.1 0.6-0.2 1.1-0.6 1.7-0.6 1.1-0.1 2.2-0.1 3.3 0 0.8 0.1 1.5 0.4 2.3 0.6 0 0-0.2 1-0.3 1-0.8-0.2-1.6-0.4-2.3-0.6z" fill="#fff"/>
			<path stroke="#58595B" stroke-width=".5" stroke-miterlimit="10" d="m975.6 583.1c-0.7 0.1-1.5 0.3-2.2 0.3-0.1 0-0.3-0.8-0.3-0.8 0.7-0.3 1.4-0.6 2.1-0.7 1.3-0.1 2.7-0.1 4 0 0.4 0 0.9 0.4 1 0.8 0.1 0.2-0.3 0.8-0.5 0.9-0.4 0.1-0.9-0.2-1.3-0.3-1-0.2-2.1-0.4-3.1-0.6v0.2c0.1 0.1 0.2 0.2 0.3 0.2z" fill="#fff"/>
			<path stroke="#58595B" stroke-width=".5" stroke-miterlimit="10" d="m938.8 581.9c0.9 0 1.8-0.1 2.7 0 0.3 0 0.7 0.6 0.9 0.9 0.1 0.2-0.2 0.7-0.4 0.7-0.4 0.1-1.1 0.1-1.3-0.1-1.3-1.4-2.5-1.5-3.8 0-0.2 0.2-0.9 0.2-1.3 0.1-0.2 0-0.5-0.6-0.4-0.7 0.2-0.4 0.5-0.9 0.9-0.9 0.9-0.1 1.8 0 2.7 0z" fill="#fff"/>
			<path stroke="#58595B" stroke-width=".5" stroke-miterlimit="10" d="m1067.6 583c-0.6 0.2-1.3 0.3-1.9 0.5-0.1-0.4-0.3-1-0.2-1 0.5-0.3 1.1-0.6 1.7-0.6 1.3-0.1 2.7-0.1 4 0 0.4 0 0.9 0.5 1.2 0.8 0.1 0.1-0.3 0.8-0.5 0.9-0.4 0.1-0.8-0.3-1.3-0.3l-3-0.3v0z" fill="#fff"/>
			<path stroke="#58595B" stroke-width=".5" stroke-miterlimit="10" d="m959.1 583.1c-1 0-2 0-3 0.1-0.5 0-1 0.3-1.5 0.4-0.1 0-0.5-0.8-0.4-0.9 0.3-0.3 0.9-0.7 1.3-0.7 1.3-0.1 2.7-0.1 4 0 0.6 0 1.1 0.4 1.6 0.7 0.1 0.1-0.3 0.9-0.4 0.9-0.5-0.1-1-0.3-1.6-0.5z" fill="#fff"/>
			<path stroke="#58595B" stroke-width=".5" stroke-miterlimit="10" d="m928.1 583c-0.7 0.2-1.3 0.3-2 0.4 0 0-0.4-0.9-0.3-1 0.5-0.3 1.1-0.6 1.7-0.6 1.3-0.1 2.7-0.1 4 0 0.5 0 1 0.4 1.4 0.8 0.1 0.1-0.3 0.9-0.4 0.9-0.5-0.1-0.9-0.4-1.4-0.4-1.1-0.1-2.1 0-3-0.1-0.1 0.1 0 0 0 0z" fill="#fff"/>
			<path stroke="#58595B" stroke-width=".5" stroke-miterlimit="10" d="m982.4 556.8c-0.2 0.6-0.3 1.2-0.5 1.8-0.6-0.2-1.4-0.3-1.6-0.6-0.2-0.4 0.1-1 0.2-1.6 0.7 0.1 1.3 0.3 1.9 0.4 0.1 0 0 0 0 0z" fill="#fff"/>
			<g stroke="#58595B" stroke-width=".5" stroke-miterlimit="10" fill="#58595B">
					<path d="m967.4 584.3v10h-0.3v-10h0.3z"/>
					<path d="m976.9 584.3v10.5h-0.3v-10.5h0.3z"/>
					<path d="m929.3 584.6v9.9h-0.2v-9.8c0.1-0.1 0.1-0.1 0.2-0.1z"/>
					<path d="m938.9 584.6v9.9h-0.2v-9.9h0.2z"/>
					<path d="m948.5 584.3v10.5h-0.3v-10.5h0.3z"/>
					<path d="m958 584.6v9.9h-0.2v-9.9h0.2z"/>
					<path d="m1107.1 584.2h-0.3v10.5h0.3v-10.5z"/>
					<path d="m1059.7 584.4h-0.3v10.4h0.3v-10.4z"/>
					<path d="m1078.5 584.3h-0.3v10.5h0.3v-10.5z"/>
					<path d="m1087.8 594.6h0.2v-10.1h-0.2v10.1z"/>
					<path d="m1097.6 584.5h-0.1v10h0.1v-10z"/>
					<path d="m1107.1 584.2v10.5h-0.3v-10.5h0.3z"/>
					<path d="m1059.7 584.4v10.3h-0.3v-10.4c0.1 0.1 0.2 0.1 0.3 0.1z"/>
					<path d="m1078.5 584.3v10.5h-0.3v-10.5h0.3z"/>
					<path d="m1069.1 584.4v10.5h-0.3v-10.5h0.3z"/>
					<path d="m1087.8 594.6v-10.1h0.2v10.1c-0.1-0.1-0.1 0-0.2 0z"/>
					<path d="m1097.6 584.5v10h-0.1v-10h0.1z"/>
			</g>
			<path stroke="#58595B" stroke-width=".5" stroke-miterlimit="10" d="m1016.2 567.3c4-0.5 4.2-0.4 4.2 3v5.9h-4.2v-8.9z" fill="#fff"/>
			<path stroke="#58595B" stroke-width=".5" stroke-miterlimit="10" d="m1033.4 566.4v9.8h-4.1c0-2.7-0.2-5.4 0.2-8 0.1-0.7 2.2-1 3.9-1.8z" fill="#fff"/>
			<path stroke="#58595B" stroke-width=".5" stroke-miterlimit="10" d="m1033.4 593.9h-3.9v-8.7h3.9v8.7z" fill="#fff"/>
			<path stroke="#88D8FB" stroke-width=".5" stroke-miterlimit="10" d="m924.3 569.8v11.3h56.8v-11.3h-56.8zm9.2 9.4c-1.1 0-2-0.8-2-1.9 0-1 0.9-5.1 2-5.1s2 4.1 2 5.1c0 1.1-0.9 1.9-2 1.9zm9.6 0c-1.1 0-2-0.8-2-1.9 0-1 0.9-5.1 2-5.1s2 4.1 2 5.1c0 1.1-0.9 1.9-2 1.9zm9.6 0c-1.1 0-2-0.8-2-1.9 0-1 0.9-5.1 2-5.1s2 4.1 2 5.1c0 1.1-0.9 1.9-2 1.9zm9.6 0c-1.1 0-2-0.8-2-1.9 0-1 0.9-5.1 2-5.1s2 4.1 2 5.1c0 1.1-0.9 1.9-2 1.9zm9.6 0c-1.1 0-2-0.8-2-1.9 0-1 0.9-5.1 2-5.1s2 4.1 2 5.1c0.1 1.1-0.9 1.9-2 1.9z" fill="#fff"/>
			<path stroke="#88D8FB" stroke-width=".5" stroke-miterlimit="10" d="m1055.1 569.8v11.3h56.8v-11.3h-56.8zm9.5 9.4c-1.1 0-2-0.8-2-1.9 0-1 0.9-5.1 2-5.1s2 4.1 2 5.1c0 1.1-0.9 1.9-2 1.9zm9.6 0c-1.1 0-2-0.8-2-1.9 0-1 0.9-5.1 2-5.1s2 4.1 2 5.1c0.1 1.1-0.9 1.9-2 1.9zm9.6 0c-1.1 0-2-0.8-2-1.9 0-1 0.9-5.1 2-5.1s2 4.1 2 5.1c0.1 1.1-0.9 1.9-2 1.9zm9.6 0c-1.1 0-2-0.8-2-1.9 0-1 0.9-5.1 2-5.1s2 4.1 2 5.1c0.1 1.1-0.8 1.9-2 1.9zm9.3 0c-1.1 0-2-0.8-2-1.9 0-1 0.9-5.1 2-5.1s2 4.1 2 5.1c0.1 1.1-0.8 1.9-2 1.9z" fill="#fff"/>
			<g fill="#fff">
				<path d="m1024.9 543.6h-0.7v1.8h0.6c0.8 0 1.3-0.4 1.3-0.9 0-0.6-0.5-0.9-1.2-0.9z"/>
				<path d="m1010.8 543.6c-1.1 0-1.7 1-1.7 2.2 0 1.3 0.7 2.2 1.7 2.2 1.1 0 1.7-1 1.7-2.2s-0.6-2.2-1.7-2.2z"/>
				<path d="m1059.5 549.9c-0.6-0.3-1.2-0.5-1.8-0.8-12.4-4.2-24.8-8.3-37.2-12.5-1.7-0.6-3.1-0.6-4.8 0-9.4 3.2-18.8 6.3-28.2 9.5-3.6 1.2-7.1 2.5-10.7 3.7v0.6c1.6 0.3 3.2 0.8 4.8 0.8 24.2 0.1 48.3 0.1 72.5 0 1.8 0 3.5-0.6 5.3-0.9 0.1 0 0.1-0.2 0.1-0.4zm-54.1-1.9c0.5 0 1-0.1 1.3-0.2l0.2 1.2c-0.3 0.1-1 0.3-1.8 0.3-2.5 0-3.7-1.4-3.7-3.3 0-2.2 1.7-3.5 3.9-3.5 0.8 0 1.5 0.2 1.8 0.3l-0.3 1.2c-0.3-0.1-0.8-0.2-1.4-0.2-1.3 0-2.3 0.7-2.3 2.2 0 1.1 0.8 2 2.3 2zm5.3 1.2c-2.1 0-3.4-1.5-3.4-3.3 0-2 1.4-3.4 3.5-3.4 2.2 0 3.4 1.5 3.4 3.3 0 2.1-1.4 3.4-3.5 3.4zm10.4-3c0 2-1.1 3-3 3-1.8 0-2.9-0.9-2.9-3v-3.7h1.6v3.8c0 1.1 0.5 1.7 1.3 1.7s1.3-0.5 1.3-1.7v-3.8h1.6v3.7zm5.2 2.9c-0.1-0.2-0.3-0.7-0.5-1.5s-0.5-1-1.2-1.1h-0.5v2.6h-1.6v-6.5c0.5-0.1 1.3-0.1 2.2-0.1 1.1 0 1.8 0.1 2.3 0.5 0.4 0.3 0.7 0.8 0.7 1.4 0 0.8-0.6 1.4-1.3 1.6 0.5 0.2 0.8 0.6 1 1.2 0.2 0.7 0.4 1.6 0.6 1.9h-1.7zm7.5-5.3h-2v5.3h-1.6v-5.3h-1.9v-1.2h5.5v1.2z"/>
			</g>
	</g>
	<g clip-path="url(#SVGID_2_)">
		<g fill="#58595B">
			<path d="m1202.5 612.3h-23.1c-0.1-0.5-0.1-1-0.1-1.4v-39.5c0-7.5 6-12.6 13.4-11.7 5.3 0.6 9.9 5.4 10 10.9 0.1 13.7 0 27.4 0 41.1-0.1 0.2-0.1 0.3-0.2 0.6z"/>
			<path d="m1124.8 597.6v-35.3c2.1 0 4.1-0.1 6 0.1 0.3 0 0.8 1.1 0.8 1.7 0.1 6.3 0 12.6 0 18.9v13c0 1.3-0.4 1.6-1.6 1.6-1.6-0.1-3.3 0-5.2 0z"/>
			<path d="m1155.9 597.5h-6.8c0-0.6-0.1-1.1-0.1-1.6v-31.7c0-1.6 0.5-2.1 2-1.9 1.2 0.1 2.3 0.1 3.5 0 1.1-0.1 1.6 0.2 1.6 1.5v32.8c-0.1 0.2-0.1 0.4-0.2 0.9z"/>
			<path d="m1256.5 597.5h-6.8v-35.2c2 0 4-0.1 5.9 0.1 0.3 0 0.8 1.1 0.9 1.7 0.1 9.5 0 19 0 28.6v4.8z"/>
			<path d="m1232 597.5h-6.7v-35.1h6.7v35.1z"/>
			<path d="m1237.5 562.4h6.7v35h-6.7v-35z"/>
			<path d="m1143.7 597.5h-6.7v-35h6.7v35z"/>
			<path d="m1191.1 527.5c0.6 0.2 1.1 0.4 1.7 0.7 1.4 0.7 2.8 1.4 4.3 2 1.7 0.6 2.1 1.6 1.4 3.3-0.6 1.5-1 3.1-1.1 4.7-0.1 2.3-1.2 4-3 5.3-0.1 0.1-0.3 0.2-0.5 0.3-1.4 0.1-1.9 2.5-3.6 1.4-2.6-1.7-5.7-3.1-5.6-7.1 0-1.4-0.5-2.9-1-4.3-0.7-1.8-0.3-2.8 1.4-3.4 1.5-0.6 2.8-1.3 4.3-2 0.5-0.5 1.1-0.7 1.7-0.9z"/>
			<path d="m1156 558.8h-6.9v-24h6c0.3 0 0.9 0.6 0.9 1v23z"/>
			<path d="m1131.5 558.8h-6.7c-0.1-0.5-0.1-1-0.1-1.4v-20.8c0-1.4 0.4-1.9 1.8-1.8 1.3 0.1 2.6 0.1 3.9 0 0.9 0 1.4 0.3 1.4 1.3v22c-0.2 0.2-0.2 0.3-0.3 0.7z"/>
			<path d="m1231.9 558.8h-6.6v-24h5.9c0.3 0 0.9 0.6 0.9 1v22.5c0 0.2-0.1 0.3-0.2 0.5z"/>
			<path d="m1244.2 534.8v23.9h-6.8c0-0.6-0.1-1.1-0.1-1.6v-20.4c0-1.6 0.5-2.1 2-1.9 1.6 0.1 3.2 0 4.9 0z"/>
			<path d="m1249.7 534.8h5.9c0.3 0 0.9 0.6 0.9 0.9 0.1 7.6 0 15.2 0 23h-6.9c0.1-7.9 0.1-15.7 0.1-23.9z"/>
			<path d="m1137 558.7v-23.8h6.7v23.8h-6.7z"/>
		</g>
		<g fill="#fff">
			<path d="m1170.8 524.2h39.6v-11.2h-39.6v11.2zm33.4-9.6h4.9v1.5h-3.1v1.7h2.9v1.5h-2.9v1.9h3.3v1.5h-5.1v-8.1zm-3-0.1c0.9 0 1.6 0.2 2 0.4l-0.4 1.4c-0.4-0.2-0.9-0.3-1.5-0.3-1.4 0-2.5 0.9-2.5 2.6 0 1.6 0.9 2.6 2.5 2.6 0.5 0 1.1-0.1 1.5-0.3l0.3 1.4c-0.3 0.2-1.1 0.3-2 0.3-2.7 0-4.2-1.7-4.2-4-0.1-2.6 1.9-4.1 4.3-4.1zm-7.4 0.1h1.8v8h-1.8v-8zm-6 0h1.8v6.4h3.2v1.5h-5v-7.9zm-4.9-0.1c2.4 0 3.8 1.8 3.8 4 0 2.6-1.6 4.2-3.9 4.2-2.4 0-3.7-1.8-3.7-4-0.1-2.4 1.4-4.2 3.8-4.2zm-10.4 0.2c0.6-0.1 1.3-0.2 2.4-0.2s1.9 0.2 2.4 0.6 0.9 1.1 0.9 1.8c0 0.8-0.3 1.4-0.7 1.9-0.6 0.6-1.5 0.8-2.6 0.8h-0.6v2.8h-1.8v-7.7z"/>
			<path d="m1182.8 521.3c1.2 0 1.9-1.2 1.9-2.7 0-1.4-0.7-2.7-1.9-2.7s-1.9 1.2-1.9 2.7c0 1.6 0.7 2.7 1.9 2.7z"/>
			<path d="m1176.4 517.1c0-0.7-0.5-1.2-1.4-1.2-0.4 0-0.6 0-0.7 0.1v2.3h0.6c0.9 0.1 1.5-0.4 1.5-1.2z"/>
		</g>
		<path stroke="#FEC000" stroke-width=".5" stroke-miterlimit="10" d="m1215.1 607.8v-3.6c0.7 0 1.2-0.1 1.7-0.1h34.8 20.5c0.6 0 1.6-0.5 1.6-0.8 0.2-1.8 0.1-3.7 0.1-5.8h-7.8v-68.8h-2.2-46.6c-2.3 0-2.6-0.4-1.7-2.9h55.4v-4.1h-55.7v-2.7h9c-0.5-0.4-0.6-0.6-0.8-0.7-10.4-6.4-20.8-12.9-31.2-19.3-0.5-0.3-1.6-0.1-2.1 0.2l-30.6 18.6c-0.4 0.3-0.8 0.6-1.2 0.8 0 0.1 0 0.2 0.1 0.3h9.2v2.8h-55.7v4.1h55.7c0.4 2.8 0.4 2.8-2 2.8h-46.4c-0.7 0-1.5 0.1-2.5 0.1v68.8h-7.5v6.5h2.5 53.1c3.2 0 3.2 0 2.9 3.2 0 0.1-0.1 0.2-0.3 0.6h-64.4v7.5h176.8v-7.6c-21.8 0.1-43.2 0.1-64.7 0.1zm16.8-10.3h-6.7v-35.1h6.7v35.1zm12.2-0.1h-6.7v-35h6.7v35zm12.3-4.8v4.9h-6.8v-35.2c2 0 4-0.1 5.9 0.1 0.3 0 0.8 1.1 0.9 1.7v28.5zm-6.9-57.8h5.9c0.3 0 0.9 0.6 0.9 0.9 0.1 7.6 0 15.2 0 23h-6.9c0.1-7.9 0.1-15.7 0.1-23.9zm-10.3 0c1.6 0.1 3.1 0 4.9 0v23.9h-6.8c0-0.6-0.1-1.1-0.1-1.6v-20.4c-0.1-1.6 0.4-2.1 2-1.9zm-14 0h5.9c0.3 0 0.9 0.6 0.9 1v22.5c0 0.1-0.1 0.2-0.2 0.4h-6.6v-23.9zm-76.2 0h6c0.3 0 0.9 0.6 0.9 1 0.1 7.6 0 15.1 0 22.9h-6.9v-23.9zm-24.5 1.7c0-1.4 0.4-1.9 1.8-1.8 1.3 0.1 2.6 0.1 3.9 0 0.9 0 1.4 0.3 1.4 1.3v22c0 0.2-0.1 0.3-0.2 0.7h-6.7c-0.1-0.5-0.1-1-0.1-1.4-0.1-6.9-0.1-13.8-0.1-20.8zm5.4 61.1c-1.7-0.1-3.4 0-5.3 0v-35.3c2.1 0 4.1-0.1 6 0.1 0.3 0 0.8 1.1 0.8 1.7 0.1 6.3 0 12.6 0 18.9v13c0.2 1.3-0.3 1.7-1.5 1.6zm13.6-0.1h-6.7v-35h6.7v35zm0-38.8h-6.7v-23.8h6.7v23.8zm12.4 37.8c0 0.3-0.1 0.6-0.1 1h-6.8c0-0.6-0.1-1.1-0.1-1.6v-31.7c0-1.6 0.5-2.1 2-1.9 1.2 0.1 2.3 0.1 3.5 0 1.1-0.1 1.6 0.2 1.6 1.5-0.1 10.8-0.1 21.8-0.1 32.7zm15.5-83.5h38.7v11.2h-38.7v-11.2zm27 20.4c-0.6 1.5-1 3.1-1.1 4.7-0.1 2.3-1.2 4-3 5.3-0.1 0.1-0.3 0.2-0.5 0.3-1.4 0.1-1.9 2.5-3.6 1.4-2.6-1.7-5.7-3.1-5.6-7.1 0-1.4-0.5-2.9-1-4.3-0.7-1.8-0.3-2.8 1.4-3.4 1.5-0.6 2.8-1.3 4.3-2 0.5-0.2 1.1-0.4 1.7-0.6 0.6 0.2 1.1 0.4 1.7 0.7 1.4 0.7 2.8 1.4 4.3 2 1.7 0.4 2 1.3 1.4 3zm4.1 78.3c0 0.2-0.1 0.3-0.2 0.7h-23.1c-0.1-0.5-0.1-1-0.1-1.4v-39.5c0-7.5 6-12.6 13.4-11.7 5.3 0.6 9.9 5.4 10 10.9 0.1 13.6 0 27.3 0 41z" fill="#fff"/>
	</g>
		<polyline clip-path="url(#SVGID_2_)" points="637.6 312.6 637.6 334.3 631.3 342.4 581 342.4 563.7 359.7 344.7 359.7 314.2 387.9 184.8 387.9 169.6 404.2 169.6 480.8" stroke="#2E3192" stroke-linecap="round" stroke-miterlimit="10" stroke-width="2" fill="none"/>
	<g clip-path="url(#SVGID_2_)">
		<path stroke="#58595B" stroke-width=".5" stroke-miterlimit="10" d="m89.4 608.9c1.1 0.1 2.2 0.2 3.2 0.2h153.8c1.1 0 2.2-0.2 3.2-0.2v2.6c-1.6 0-3.3-0.1-4.9-0.1h-150.5c-1.6 0-3.3 0.1-4.9 0.1 0.1-0.8 0.1-1.7 0.1-2.6z" fill="#fff"/>
		<path stroke="#58595B" stroke-width=".5" stroke-miterlimit="10" d="m249.7 612.2v2.6h-160.3v-2.6c21.5 0 43.1-0.1 64.6-0.1 31.9 0.1 63.8 0.1 95.7 0.1z" fill="#fff"/>
		<path stroke="#58595B" stroke-width=".5" stroke-miterlimit="10" d="m249.7 531.8c-1.2 0.1-2.4 0.2-3.6 0.2h-153.2c-1.2 0-2.4-0.2-3.6-0.2v-2c1.1 0.1 2.2 0.2 3.3 0.2h153.8c1.1 0 2.2-0.1 3.3-0.2v2z" fill="#fff"/>
		<path stroke="#58595B" stroke-width=".5" stroke-miterlimit="10" d="m245.2 528c-1.6-0.6-3.4-0.9-4.8-1.8-22-13.5-43.9-27.1-65.8-40.8-3.6-2.3-6.5-2.3-10.1 0-21.7 13.6-43.4 27-65.2 40.5-1.6 1-3.5 1.5-5.2 2.2-0.2-0.3-0.3-0.5-0.5-0.8 0.7-0.5 1.3-1 2.1-1.5 23.3-14.5 46.6-29 69.8-43.6 2.7-1.7 5.2-1.9 7.9-0.2 23.4 14.7 46.9 29.3 70.4 43.9l1.8 1.2c-0.2 0.3-0.3 0.6-0.4 0.9z" fill="#fff"/>
		<path stroke="#58595B" stroke-width=".5" stroke-miterlimit="10" d="m93.6 607.9c-0.9-2.6 0.1-3.4 2.4-3.3 2.8 0.1 5.6 0 8.3 0 1-3.3 1-6.8 5-7.8v-52.2c-3.8-1.1-4.2-4.3-4.9-7.9h-11v-3.4h152.2v3.3h-11.1c-0.9 3.4-0.9 6.8-5.2 7.9v3.1 46.1c0 1.7-0.1 2.9 2.1 3.9 1.7 0.8 2.2 4 3.6 6.9 2.1 0 5 0.1 7.9 0 2.3-0.1 3.3 0.6 2.4 3.3-50.4 0.1-101 0.1-151.7 0.1zm58.3-3.4c0.8-3.3 0.8-6.7 4.9-7.6v-52.3c-4-1-4.2-4.5-4.8-7.7h-12.3c-0.8 3.3-0.8 6.9-5.1 7.7v50.5c0 0.6 0.1 1.7 0.4 1.8 4 1 3.7 4.6 4.8 7.6h12.1zm52.3-7.7v-52.3c-4.3-0.8-4-4.6-5-7.5h-12.2c-0.5 3.4-0.9 6.6-4.7 7.6v52.3c4.1 1 4.1 4.4 4.8 7.6h12.1c0.8-4.4 2.1-7.2 5-7.7zm-45.4-26.2v19.9c0 1.7-0.1 3.6 2.2 3.6 2.3 0.1 2.3-1.8 2.3-3.5 0-13.2 0.1-26.3-0.1-39.5 0-1.2-1.3-3.5-2.1-3.5-2.4-0.2-2.3 1.9-2.3 3.7v19.3zm8.4 0.1v19.9c0 1.7-0.1 3.5 2.2 3.6 2.3 0 2.4-1.8 2.4-3.5 0-13.2 0.1-26.3-0.1-39.5 0-1.2-1.3-3.4-2.2-3.5-2.1-0.3-2.3 1.7-2.3 3.4v19.6zm-34.5 0.3v-19.6c0-1.8 0.2-3.9-2.3-3.8-2.3 0-2.1 2.1-2.1 3.7v39.2c0 1.6-0.2 3.6 2.2 3.6s2.3-1.8 2.3-3.5c-0.1-6.5-0.1-13.1-0.1-19.6zm43-0.1v19.6c0 1.7-0.2 3.6 2.2 3.6 2.4 0.1 2.3-1.9 2.3-3.5v-39.2c0-1.8 0.1-3.9-2.4-3.8-2.3 0.1-2.1 2-2.1 3.7v19.6zm43.4 0.1v-19.9c0-1.7 0-3.7-2.3-3.4-0.8 0.1-1.9 2.2-1.9 3.3-0.1 13.3-0.1 26.6-0.1 39.9 0 1.6-0.1 3.3 2.1 3.3s2.2-1.7 2.2-3.3c-0.1-6.6 0-13.3 0-19.9zm-103.4-0.1v-19.9c0-1.6 0.1-3.3-2-3.4s-2.2 1.6-2.2 3.2v40.2c0 1.6 0.1 3.3 2.2 3.2 2.2-0.1 2.1-1.8 2.1-3.4-0.1-6.6-0.1-13.3-0.1-19.9zm8.5 0.4v-20.6c0-1.6-0.2-3.4-2.2-3.1-0.8 0.1-2 1.9-2 3-0.1 13.5-0.1 27 0 40.5 0 1 1.2 2.8 2 2.9 2.1 0.3 2.2-1.5 2.2-3.1v-19.6zm86.4-0.3v-19.9c0-1.7 0.1-3.7-2.2-3.4-0.8 0.1-2 2.2-2 3.3-0.1 13.3-0.1 26.6-0.1 39.8 0 1.6 0 3.3 2.1 3.3 2.2 0.1 2.2-1.7 2.2-3.2v-19.9zm16.9-0.3v-19.3c0-1.7 0.3-3.9-2.3-3.8-2.3 0.1-2 2.1-2 3.7v39.2c0 1.6-0.4 3.6 2.1 3.6 2.4 0 2.2-1.9 2.2-3.5v-19.9z" fill="#fff"/>
		<path stroke="#58595B" stroke-width=".5" stroke-miterlimit="10" d="m249.7 612.2c-31.9 0-63.8-0.1-95.7-0.1-21.5 0-43.1 0-64.6 0.1v-0.7c1.6 0 3.3-0.1 4.9-0.1h150.5c1.6 0 3.3 0.1 4.9 0.1v0.7z" fill="#fff"/>
		<g fill="#58595B">
			<path d="m158.8 570.6v-19.2c0-1.8-0.1-3.9 2.3-3.7 0.8 0.1 2.1 2.3 2.1 3.5 0.2 13.2 0.1 26.3 0.1 39.5 0 1.7 0 3.5-2.3 3.5-2.3-0.1-2.2-1.9-2.2-3.6v-20z"/>
			<path d="m167.2 570.7v-19.6c0-1.7 0.2-3.7 2.3-3.4 0.9 0.1 2.2 2.3 2.2 3.5 0.2 13.2 0.1 26.3 0.1 39.5 0 1.7-0.1 3.5-2.4 3.5-2.3-0.1-2.2-1.9-2.2-3.6v-19.9z"/>
			<path d="m132.7 571v19.6c0 1.7 0.1 3.6-2.3 3.5-2.4 0-2.2-2-2.2-3.6v-39.2c0-1.6-0.2-3.7 2.1-3.7 2.5-0.1 2.3 2.1 2.3 3.8 0.1 6.5 0.1 13.1 0.1 19.6z"/>
			<path d="m175.7 570.9v-19.6c0-1.7-0.1-3.6 2.1-3.7 2.5-0.1 2.4 2.1 2.4 3.8v39.2c0 1.7 0.1 3.6-2.3 3.5s-2.2-2-2.2-3.6v-19.6z"/>
			<path d="m219.1 571v19.9c0 1.6 0 3.3-2.2 3.3s-2.1-1.7-2.1-3.3c0-13.3 0-26.6 0.1-39.9 0-1.2 1.1-3.2 1.9-3.3 2.3-0.3 2.3 1.7 2.3 3.4-0.1 6.6 0 13.2 0 19.9z"/>
			<path d="m115.7 570.9v19.9c0 1.5 0.2 3.3-2.1 3.4-2.2 0.1-2.2-1.6-2.2-3.2v-40.2c0-1.6 0.1-3.3 2.2-3.2s2 1.8 2 3.4c0.1 6.6 0.1 13.2 0.1 19.9z"/>
			<path d="m124.2 571.3v19.6c0 1.6-0.1 3.4-2.2 3.1-0.8-0.1-2-1.9-2-2.9-0.1-13.5-0.1-27 0-40.5 0-1 1.2-2.8 2-3 2-0.3 2.2 1.5 2.2 3.1v20.6z"/>
			<path d="m210.6 571v19.9c0 1.6 0 3.3-2.2 3.2s-2.1-1.7-2.1-3.3c0-13.3 0-26.6 0.1-39.8 0-1.2 1.1-3.2 2-3.3 2.3-0.3 2.2 1.7 2.2 3.4v19.9z"/>
			<path d="m227.5 570.7v19.9c0 1.7 0.2 3.6-2.2 3.5-2.5 0-2.1-2-2.1-3.6v-39.2c0-1.6-0.3-3.7 2-3.7 2.6-0.1 2.3 2.1 2.3 3.8v19.3z"/>
		</g>
		<path stroke="#58595B" stroke-width=".5" stroke-miterlimit="10" d="m93.1 609.2h152.4v-1.3h-152.4v1.3z" fill="#fff"/>
		<path stroke="#58595B" stroke-width=".5" stroke-miterlimit="10" d="m93 532v1.4h152.6v-1.4h-152.6z" fill="#fff"/>
		<g fill="#fff">
			<path d="m156.2 516.8h-0.6v2.4h0.7c0.9 0 1.6-0.3 1.6-1.2s-0.7-1.2-1.7-1.2z"/>
			<path d="m157.7 514.4c0-0.6-0.5-1-1.3-1h-0.8v2h0.6c1 0 1.5-0.4 1.5-1z"/>
			<path d="m164.3 513.5c-0.1 0.5-0.3 1.1-0.4 1.6l-0.5 1.8h1.9l-0.5-1.8c-0.2-0.4-0.4-1.1-0.5-1.6z"/>
			<path d="m236.1 525.6c-20.8-12.9-41.6-25.8-62.4-38.8-3-1.9-5.4-1.9-8.4 0-16.4 10.3-32.9 20.5-49.4 30.7-5.1 3.2-10.3 6.4-16.1 10h139c-1.2-0.8-1.9-1.4-2.7-1.9zm-77.1-5.8c-0.6 0.5-1.6 0.8-3.3 0.8-0.9 0-1.6-0.1-2.1-0.1v-8.3c0.5-0.1 1.5-0.2 2.5-0.2 1.2 0 1.9 0.1 2.5 0.5 0.6 0.3 1 0.9 1 1.6s-0.4 1.4-1.4 1.8c1 0.3 1.7 1 1.7 2.1 0 0.8-0.3 1.4-0.9 1.8zm7.2 0.7l-0.6-2.2h-2.4l-0.6 2.2h-2l2.6-8.4h2.5l2.6 8.4h-2.1zm-3-19.6l-0.1-0.1v-1.5-0.1h1.1c0.7 0 1.5 0 2.2-0.2 0.7-0.1 1.3-0.4 1.8-0.8 0.6-0.5 0.9-1.2 1.1-1.9v-0.2h-6.8v-0.1c0.3-0.6 0.7-1.1 1-1.7l0.1-0.1c1.7 0 3.5 0 5.2 0.1h0.1c-0.1-0.3-0.3-0.5-0.5-0.7-0.5-0.4-1-0.7-1.6-0.8-0.8-0.2-1.7-0.3-2.5-0.3h-2l0.1-0.1c0.4-0.5 0.7-1.1 1.1-1.6 0-0.1 0.1-0.1 0.2-0.1h11.3 0.1c0 0.1 0 0.1-0.1 0.1-0.3 0.5-0.7 1.1-1 1.6 0 0.1-0.1 0.1-0.2 0.1h-2.9-0.1l0.6 0.9c0.2 0.3 0.3 0.6 0.3 1h3.3s0 0.1-0.1 0.1c-0.3 0.5-0.7 1-1 1.6 0 0.1-0.1 0.1-0.2 0.1h-2c-0.1 0-0.1 0-0.1 0.1 0 0.2-0.1 0.4-0.1 0.7-0.3 1.1-1 1.9-2 2.5-0.9 0.6-2 1-3.1 1.2-0.2 0-0.4 0.1-0.6 0.1l0.1 0.1c2 2.6 4 5.1 6 7.7 0.2 0.3 0.5 0.6 0.7 0.9h-3l-1.2-1.5c-1.5-2.4-3.4-4.7-5.2-7.1zm13.1 19.6h-2l-1.8-3.2c-0.5-0.9-1-2-1.5-3 0 1.1 0.1 2.3 0.1 3.7v2.5h-1.7v-8.4h2.2l1.7 3.1c0.5 0.9 1 1.9 1.4 2.9-0.1-1.1-0.2-2.2-0.2-3.5v-2.5h1.7v8.4zm6.3 0l-2.1-3.6-0.7 0.9v2.7h-1.9v-8.4h1.9v3.7l0.6-0.9 1.9-2.8h2.3l-2.8 3.6 2.9 4.8h-2.1z"/>
		</g>
	</g>
		<circle r="4.8" clip-path="url(#SVGID_2_)" cy="415.1" stroke="#2E3192" cx="169.3" stroke-miterlimit="10" stroke-width="2" fill="#fff"/>
	<g clip-path="url(#SVGID_2_)">
		<text font-size="18.759" font-family="&apos;MyriadPro-Regular&apos;" transform="translate(1050.7 492.44)" fill="#FFFFFF">GRC Services</text>
	</g>
	<g clip-path="url(#SVGID_2_)">
		<text font-size="18.759" font-family="&apos;MyriadPro-Regular&apos;" transform="translate(746.66 494.85)" fill="#FFFFFF">GST Services</text>
	</g>
	<g clip-path="url(#SVGID_2_)">
		<text font-size="18.759" font-family="&apos;MyriadPro-Regular&apos;" transform="translate(340.04 474.92)" fill="#FFFFFF">SAP Services</text>
	</g>
</svg>
