<?xml version="1.0" encoding="UTF-8" standalone="no"?>
<!-- Generator: Adobe Illustrator 18.0.0, SVG Export Plug-In . SVG Version: 6.00 Build 0)  -->
<!DOCTYPE svg  PUBLIC '-//W3C//DTD SVG 1.1//EN'  'http://www.w3.org/Graphics/SVG/1.1/DTD/svg11.dtd'>
<svg id="Layer_1" xmlns="http://www.w3.org/2000/svg" xml:space="preserve" viewBox="0 0 1366 648" version="1.1" y="0px" x="0px" xmlns:xlink="http://www.w3.org/1999/xlink" enable-background="new 0 0 1366 648">
	<linearGradient id="SVGID_1_" y2="644.36" gradientUnits="userSpaceOnUse" x2="683" y1="2.8769" x1="683">
		<stop stop-color="#FFB74D" offset="0"/>
		<stop stop-color="#FF9800" offset="1"/>
	</linearGradient>
	<rect width="1366" height="648" fill="url(#SVGID_1_)"/>
					<path d="m760 343.4c11.3 0 20.4-9.2 20.4-20.4 0-11.3-9.2-20.4-20.4-20.4-0.7 0-1.3 0-2 0.1 2.2-3.8 3.5-8.2 3.5-12.9 0-14.2-11.5-25.7-25.7-25.7-6.4 0-12.3 2.3-16.8 6.2-4.4-24.3-25.6-42.7-51.1-42.7-28.7 0-51.9 23.2-51.9 51.9 0 2.8 0.2 5.5 0.6 8.1-1-0.1-2.1-0.2-3.2-0.2-15.4 0-28 12.5-28 28 0 14.4 10.8 26.2 24.8 27.8l149.8 0.2z" fill="#fff"/>
	<g opacity=".02">
		<polygon points="427.9 176.7 683 29.5 938.1 176.7 938.1 471.3 683 618.5 427.9 471.3" fill="#2895F1"/>
			<defs>
				<polygon id="SVGID_2_" points="427.9 176.7 683 29.5 938.1 176.7 938.1 471.3 683 618.5 427.9 471.3"/>
			</defs>
			<clipPath id="SVGID_3_">
				<use overflow="visible" xlink:href="#SVGID_2_"/>
			</clipPath>
			<polyline fill="#9B9DA0" points="511 418.9 483.2 336.6 495.8 306.3 575 251.1 641.2 192 729.9 181.8 758.3 178.6 987.8 309.5 989.5 697.8" clip-path="url(#SVGID_3_)"/>
		<path d="m895.6 333.9c0 0.3-0.1 0.6-0.1 0.9v1.1 1.6c0 1.5-0.2 3-0.4 4.5-0.2 1.3-0.3 2.5-0.5 3.8-0.4 2.9-1 5.8-1.7 8.7-3.9 15.9-11.3 30-21.9 42.4-9.1 10.7-20 19.3-32.4 25.9-8.9 4.8-18.4 8.2-28.3 10.5-2.7 0.6-5.5 1.1-8.2 1.6-2 0.3-4 0.6-6.1 0.8-1.2 0.1-2.5 0.2-3.7 0.3-1.7 0.1-3.5 0.2-5.2 0.3-1.4 0-2.8 0.2-4.2 0.3-0.3 0-0.7 0.1-1 0.1l-7.5 0.3c-6.3 0.2-12.7 0.2-19 0.2-3 0-6-0.1-9-0.2-1.6 0-3.2 0-4.9-0.1-2.3-0.1-4.7-0.1-7-0.2-0.5 0-1-0.1-1.6 0.1-0.2 0.3-0.5 0.6-0.9 0.9-11.7 12.2-23.4 24.3-35.2 36.5-2.9 3-5.7 5.9-8.6 8.9l-0.6 0.6c-0.2 0.2-0.4 0.2-0.7 0-0.2-0.1-0.3-0.2-0.5-0.3-10-7.4-20-14.8-30-22.3-0.2-0.2-0.4-0.3-0.6-0.5 0 0-0.1-0.3 0-0.4 0.1-0.2 0.3-0.3 0.4-0.5 3.2-3.5 6.3-6.9 9.5-10.4 10.6-11.6 21.2-23.3 31.8-34.9 4.3-4.7 8.6-9.4 12.8-14.1 0.3-0.4 0.6-0.7 1-1.1 0.5-0.1 1-0.1 1.5-0.1 2.9-0.1 5.7-0.1 8.6 0 2.1 0.1 4.2 0.1 6.3 0.1l7.8 0.3c0.6 0 1.3 0.1 1.9 0.1 3.1 0.1 6.1 0.3 9.2 0.4 0.9 0 1.7 0.1 2.6 0.1 3.7 0.1 7.5 0.3 11.2 0.2 2.5 0 5.1-0.1 7.6-0.2 2.1 0 4.2-0.2 6.2-0.3 2.1-0.1 4.1-0.3 6.2-0.6 2.5-0.3 4.9-0.6 7.4-1 0.7-0.1 1.5-0.3 2.2-0.4 0.3-0.1 0.6-0.1 0.8-0.3 0.2-0.1 0.4-0.2 0.6-0.2l3.3-0.6c1.8-0.3 3.5-0.8 5.3-1.3 2.3-0.6 4.6-1.3 6.8-2.1 2.7-1 5.4-2.2 8-3.5 8.1-4.2 15.2-9.7 21.2-16.6 6.3-7.2 10.8-15.4 13.6-24.6 0.9-3 1.5-6.1 2-9.2 0.6-4.2 0.8-8.4 0.6-12.6-0.5-8.6-2.6-16.9-6.4-24.6-3.9-8.1-9.3-15.2-16.1-21.2-8.5-7.6-18.4-12.8-29.4-15.8-2.7-0.7-5.4-1.3-8.2-1.7-1.5-0.2-3.1-0.4-4.6-0.6-1.1-0.1-2.1-0.2-3.2-0.2-0.4 0-0.6-0.2-0.7-0.5s-0.2-0.6-0.3-0.8c-9.5-23-27.6-41.9-51-52.3-6-2.6-12.2-4.7-18.6-6.1-2.3-0.5-4.6-0.9-6.9-1.3l-4.8-0.6c-1.5-0.1-3.1-0.2-4.6-0.3-0.7-0.1-1.4-0.1-2.2-0.1h-5.7c-1.8 0-3.6 0.2-5.4 0.3l-3 0.3c-1.2 0.1-2.5 0.3-3.7 0.5-2.5 0.4-4.9 0.9-7.3 1.5-10.1 2.4-19.6 6.3-28.4 11.8-12.9 8-23.4 18.4-31.5 31.2-2.2 3.4-3.9 7-5.4 10.7-1.8 4.4-3.3 8.9-4.5 13.5-1.1 3.9-2 7.8-2.7 11.7 0 0.1-0.1 0.3-0.1 0.4s-0.2 0.3-0.3 0.3h-0.6c-1.4-0.2-2.8-0.4-4.3-0.6-0.8-0.1-1.6-0.2-2.5-0.3-1.2-0.1-2.5-0.2-3.7-0.3-2-0.2-3.9-0.2-5.9-0.3-1.7-0.1-3.5-0.1-5.2 0-1 0-2 0.1-3.1 0.1-1.2 0.1-2.5 0.2-3.7 0.3s-2.5 0.3-3.7 0.5c-5 0.9-9.8 2.3-14.4 4.6-6.6 3.2-12.7 7.3-18 12.4-5.3 5-9.6 10.8-12.8 17.3-2.3 4.6-3.9 9.5-4.8 14.6-0.7 3.9-1 7.8-0.8 11.7 0.4 9.4 3.1 18.1 7.9 26.2 1.2 2 2.6 4 4.1 5.8 4.2 5.2 9.1 9.7 14.6 13.5 6.2 4.4 13 7.8 20.2 10.4 0.9 0.3 0.9 0.3 1.9 0.3 6.6 0 13.1-0.1 19.7-0.2 6.7 0 13.4-0.1 20.2-0.1 3.4 0 6.9-0.1 10.3-0.1 3.9 0 7.7-0.1 11.6-0.1h1c0.2 0 0.4-0.1 0.6-0.3 0.2-0.3 0.5-0.5 0.7-0.7 9.9-10.8 19.8-21.5 29.7-32.3 3.3-3.6 6.6-7.2 10-10.9 0.2-0.3 0.5-0.5 0.7-0.8 0 0 0.1-0.2 0.1-0.3-0.2-0.4-0.6-0.6-0.8-0.9l-10.8-10.8-0.7-0.7c-0.1-0.1-0.1-0.2-0.1-0.2 0-0.1 0.1-0.2 0.2-0.2 0.3 0 0.7-0.1 1-0.1 2-0.1 3.9-0.2 5.9-0.3l5.4-0.3 5.4-0.3c2-0.1 4-0.2 6-0.4h0.5c2-0.1 3.9-0.2 5.9-0.3l5.4-0.3h0.5c2-0.1 3.9-0.2 5.9-0.3l5.4-0.3c1.8-0.1 3.5-0.2 5.3-0.3 0.8 0 1.6-0.1 2.4-0.2 0.3 0 0.5 0.1 0.6 0.4 0 0.3 0.1 0.7 0.1 1 0.1 1.5 0.3 3 0.4 4.5 0.1 1 0.2 2 0.3 2.9 0.1 1.2 0.2 2.5 0.3 3.7s0.2 2.5 0.3 3.7c0.1 0.9 0.2 1.9 0.2 2.8 0.1 1.2 0.2 2.5 0.3 3.7 0.1 1.3 0.2 2.6 0.3 3.8l0.3 3c0.1 1.2 0.2 2.5 0.3 3.7s0.2 2.5 0.3 3.7c0.1 0.9 0.2 1.9 0.2 2.8 0.1 1.2 0.2 2.5 0.3 3.7 0.1 1.3 0.2 2.6 0.3 3.8v1.1s-0.1 0.1-0.2 0.1c-0.3-0.1-0.5-0.3-0.8-0.5-2.2-1.5-4.5-3.1-6.7-4.6s-4.4-3-6.5-4.5c-0.2-0.1-0.4-0.3-0.7-0.4-0.3-0.2-0.4-0.2-0.7 0.1-0.2 0.2-0.5 0.5-0.7 0.8-2.8 3.2-5.6 6.3-8.5 9.5-10.1 11.3-20.2 22.6-30.4 33.8-3.3 3.6-6.7 7.2-10 10.8-1.1 1.2-2.3 2.4-3.5 3.6-0.4 0.4-0.8 0.9-1.4 1.1-0.5 0-1.1 0.1-1.6 0.1h-92.4-0.2c-0.7 0.1-1.4-0.1-2.1-0.3-4.4-1.3-8.8-2.7-13.1-4.5-8.3-3.4-16.1-7.5-23.4-12.6-6.8-4.8-13-10.2-18.5-16.5-8.8-10.1-15.2-21.6-18.9-34.5-0.9-3.1-1.6-6.3-2.2-9.5-0.4-2.5-0.8-5-1-7.5l-0.3-4.5c0-0.5 0-1.1-0.1-1.6 0-0.2-0.1-0.4-0.3-0.6v-5.4c0.2-0.1 0.3-0.3 0.3-0.6s0.1-0.6 0.1-0.9c0.1-2.3 0.4-4.5 0.7-6.8 0.5-3.5 1.3-6.9 2.2-10.3 1.9-6.6 4.6-13 7.9-19 4.6-8.2 10.2-15.6 16.8-22.3 10.2-10.3 21.9-18.4 35.2-24.4 8.6-3.8 17.5-6.6 26.8-8.2 0.3-0.1 0.6-0.1 0.9-0.2 0.2-0.3 0.3-0.6 0.5-0.9 6-13.1 14-25 23.8-35.5 10.9-11.7 23.4-21.3 37.5-28.8 16.5-8.8 34.1-14.2 52.7-16.4 0.8-0.1 1.6-0.2 2.5-0.3 1.3-0.1 2.6-0.3 3.8-0.3 1.8-0.1 3.7-0.2 5.5-0.3 0.3 0 0.7 0 1-0.2h9.7c0.2 0.1 0.5 0.1 0.8 0.2l5.1 0.3c1.3 0.1 2.6 0.2 3.8 0.3 1.7 0.2 3.3 0.4 4.9 0.6 2.7 0.3 5.3 0.7 7.9 1.2 4.2 0.8 8.4 1.7 12.5 2.9 14.2 3.9 27.6 9.8 40 17.7 17 10.9 31.1 24.6 42.1 41.5 0.6 0.9 0.4 0.8 1.6 1.1 6.2 1.8 12.2 4.1 18 7 14 6.9 26.1 16.1 36.2 28 10.4 12.3 17.7 26.3 21.6 41.9 0.7 2.9 1.3 5.8 1.7 8.8 0.2 1.3 0.4 2.5 0.5 3.8 0.2 1.4 0.3 2.9 0.4 4.3v1.6c0 0.5 0 0.9 0.1 1.4 0 0.3 0.1 0.6 0.1 0.9 0.3 3.2 0.3 5.5 0.3 7.7z" fill="#fff"/>
	</g>
	<g stroke="#231F20" stroke-miterlimit="10">
		<path d="m334.6 416.2l-23.6 23.5c-0.6 0.6-1.6 0.6-2.2 0l-11.5-11.5c-0.6-0.6-0.6-1.6 0-2.2l23.6-23.6c0.6-0.6 1.6-0.6 2.2 0l11.5 11.5c0.6 0.7 0.6 1.6 0 2.3z" fill="#75D4CE"/>
		<path d="m340.8 411.8l-1.4 1.4c-1.3 1.3-3.4 1.3-4.8 0l-10.8-10.8c-1.3-1.3-1.3-3.4 0-4.8l1.4-1.4c1.3-1.3 3.4-1.3 4.8 0l10.8 10.8c1.4 1.3 1.4 3.5 0 4.8z" fill="#FFC900"/>
		<path d="m308.1 444.3l-1.4 1.4c-1.3 1.3-3.4 1.3-4.8 0l-10.8-10.7c-1.3-1.3-1.3-3.4 0-4.8l1.4-1.4c1.3-1.3 3.4-1.3 4.8 0l10.8 10.8c1.3 1.3 1.3 3.4 0 4.7z" fill="#FFC900"/>
		<polygon points="353.7 467.2 350.8 464.3 350.8 463.1 319.4 431.7 326.5 424.5 357.8 455.8 358.8 455.8 362 458.9" fill="#75D4CE"/>
	</g>
		<g id="XMLID_3_">
				<path d="m1060.8 474.7c0.1 1-0.6 1.8-1.4 1.9-0.8 0-1.6-0.7-1.6-1.7s0.6-1.8 1.4-1.9c0.8 0 1.5 0.7 1.6 1.7z" fill="#FFC900"/>
				<path d="m1032.6 479.2c1 0 1.8 0.7 1.8 1.5s-0.8 1.5-1.8 1.5-1.8-0.7-1.8-1.5 0.8-1.5 1.8-1.5z" fill="#75D3CE"/>
				<path d="m1045.1 485.3c0.3 1.1 0.3 2.3 0 3.4-0.3 1-0.7 2.4-1 4h-0.1c-0.8 1.5-2.3 2.5-4 2.5-1.4 0-2.6-0.6-3.4-1.6-2-5.3-7.6-9.1-14.3-9.1-8.3 0-15 5.9-15 13.2 0 6.1 4.6 11.2 10.9 12.8 0 2.1-1.1 3.9-2.8 5-8.4-2.5-14.4-9.5-14.4-17.8 0-9 7.2-16.6 16.9-18.4 1.6-1.7 2.9-4.1 3.7-5.7 0.5-0.9 1.4-1.5 2.5-1.6 10.2-0.5 18.4 4.8 21 13.3zm-10.7-4.6c0-0.8-0.8-1.5-1.8-1.5s-1.8 0.7-1.8 1.5 0.8 1.5 1.8 1.5 1.8-0.7 1.8-1.5z" fill="#FFC900"/>
				<path d="m1090 483.2c-0.5-8.3-6.8-14.6-14.1-14.2-1.4 0.1-2.8 0.4-4.1 1 1-0.9 1.5-2.1 1.4-3.5-0.1-1.7-1.2-3.2-2.7-3.8v-0.1c1.3 0.2 2.7 0.3 4.1 0.3 0.3 0 0.6-0.1 0.9-0.1h1.1c1-0.1 1.5-0.1 1.7 0.1 9.1 1 16.6 9.4 17.2 20.1 0.1 2.4-0.1 4.7-0.6 6.9-1.2-1.6-3.1-2.6-5.2-2.5 0.3-1.4 0.4-2.8 0.3-4.2z" fill="#75D4CE"/>
				<path d="m1043.4 500.5c-1.5 9.1-10.4 16-21 16-2.4 0-4.7-0.3-6.8-1 1.7-1.1 2.8-2.9 2.8-5 1.3 0.3 2.7 0.5 4.1 0.5 8.3 0 15-5.9 15-13.3 0-1.4-0.3-2.8-0.7-4.1 0.8 1 2.1 1.6 3.4 1.6 1.7 0 3.2-1 4-2.5h0.1c-0.3 1.3-0.4 2.7-0.5 4.1v0.9 1.1c-0.2 0.9-0.3 1.5-0.4 1.7z" fill="#FFC900"/>
				<path d="m1077.7 499c6.1-0.3 10.9-5.3 12.1-11.7 2.1-0.1 4 0.9 5.2 2.5-2 8.5-8.7 15-16.9 15.5-9 0.5-17-6.2-19.3-15.8-1.8-1.4-4.3-2.7-5.9-3.3-1-0.4-1.6-1.3-1.7-2.4-0.6-5.2 0.4-10.1 2.7-14 0.8 0.1 1.6-0.4 1.8-1.2 0.1-0.4 0.1-0.9-0.1-1.3 2-2.3 4.5-4.2 7.5-5.3 1.1-0.4 2.2-0.4 3.4-0.2 1 0.3 2.4 0.5 4.1 0.8v0.1c1.5 0.7 2.6 2.1 2.7 3.8 0.1 1.4-0.5 2.6-1.4 3.5-5.2 2.3-8.7 8.1-8.3 14.8 0.4 8.3 6.8 14.6 14.1 14.2zm-18.4-22.4c0.8 0 1.5-0.9 1.4-1.9s-0.8-1.7-1.6-1.7c-0.8 0-1.5 0.9-1.4 1.9s0.8 1.7 1.6 1.7z" fill="#75D4CE"/>
			<g stroke="#414042" stroke-miterlimit="10" fill="none">
				<path d="m1036.6 493.5c0.5 1.3 0.7 2.7 0.7 4.1 0 7.3-6.7 13.3-15 13.3-1.4 0-2.8-0.2-4.1-0.5-6.3-1.6-10.9-6.7-10.9-12.8 0-7.3 6.7-13.2 15-13.2 6.7 0 12.3 3.8 14.3 9.1z"/>
				<path d="m1044.1 492.7c0.3-1.6 0.7-3 1-4 0.3-1.1 0.4-2.3 0-3.4-2.6-8.5-10.9-13.8-21-13.3-1 0.1-2 0.7-2.5 1.6-0.8 1.5-2.1 4-3.7 5.7-9.6 1.8-16.9 9.3-16.9 18.4 0 8.3 6 15.3 14.4 17.8 2.1 0.6 4.4 1 6.8 1 10.7 0 19.5-6.9 21-16 0.2-0.2 0.3-0.7 0.2-1.7v-1.1-0.9c0.2-1.4 0.4-2.8 0.7-4.1z"/>
				<path d="m1018.3 510.4c0 2.1-1.1 3.9-2.8 5-0.1 0-0.2 0.1-0.2 0.1"/>
				<path d="m1044 492.7c-0.8 1.5-2.3 2.5-4 2.5-1.4 0-2.6-0.6-3.4-1.6"/>
				<path d="m1071.8 470c1.3-0.6 2.6-0.9 4.1-1 7.3-0.4 13.6 5.9 14.1 14.2 0.1 1.4 0 2.8-0.3 4.1-1.2 6.4-6 11.3-12.1 11.7-7.3 0.4-13.6-5.9-14.1-14.2-0.4-6.7 3.1-12.5 8.3-14.8z"/>
				<path d="m1070.5 462.6c-1.6-0.2-3.1-0.5-4.1-0.8-1.1-0.3-2.3-0.2-3.4 0.2-3 1.1-5.5 2.9-7.5 5.3-0.7 0.8-1.2 1.6-1.8 2.5-2.3 3.9-3.3 8.7-2.7 14 0.1 1 0.8 2 1.7 2.4 1.6 0.7 4.1 1.9 5.9 3.3 2.3 9.5 10.3 16.3 19.3 15.8 8.2-0.5 14.9-6.9 16.9-15.5 0.5-2.2 0.7-4.5 0.6-6.9-0.6-10.7-8.1-19.1-17.2-20.1-0.2-0.2-0.7-0.2-1.7-0.1h-1.1c-0.3 0-0.6 0-0.9 0.1-1.3 0.1-2.7 0-4-0.2z"/>
				<path d="m1089.7 487.3c2.1-0.1 4 0.9 5.2 2.5 0 0.1 0.1 0.1 0.2 0.2"/>
				<path d="m1070.5 462.7c1.5 0.7 2.6 2.1 2.7 3.8 0.1 1.4-0.5 2.6-1.4 3.5"/>
				<path d="m1037.6 466.7v0.3 5.3c0 1-0.8 1.8-1.8 1.8s-1.8-0.8-1.8-1.8v-5.3c0-0.5 0.2-1 0.6-1.3 0.3-0.3 0.7-0.4 1.2-0.4 1 0 1.7 0.6 1.8 1.4z"/>
				<path d="m1037.6 466.7c-0.5 0.4-1.2 0.6-1.8 0.3-0.6-0.2-1-0.7-1.1-1.3-0.1-0.3 0-0.7 0.1-1l1.5-3.8c0.4-0.9 1.4-1.4 2.3-1 0.2 0.1 0.4 0.2 0.5 0.3 0.6 0.9 0.6 1.1 0.6 1.4 0 0.2 0 0.4-0.1 0.6l-0.6 1.5-0.9 2.3c-0.1 0.3-0.2 0.5-0.5 0.7z"/>
				<path d="m1045.2 461.9c0.1 0.2 0.1 0.4 0.1 0.6-0.1 1-1 1.7-2 1.6h-0.2l-3.9-0.4h-0.2c-0.9-0.2-1.5-1-1.4-1.9 0.1-0.7 0.6-1.3 1.5-1.6h0.3 0.2l4.1 0.4c0.7 0.1 1.3 0.6 1.5 1.3z"/>
				<path d="m1050.5 465.1c0 0.1 0 0.3-0.1 0.4-0.3 0.9-1.3 1.4-2.2 1.2l-3.9-1.2c-0.6-0.2-1.1-0.7-1.2-1.3-0.1-0.3-0.1-0.7 0-1 0.2-0.8 0.9-1.3 1.7-1.3h0.3 0.2l3.9 1.2c0.9 0.4 1.4 1.2 1.3 2z"/>
				<path d="m1055.6 467.3c0.2 0.4 0.2 0.8 0.1 1.3-0.3 0.8-1 1.3-1.8 1.2-0.1 0-0.3 0-0.4-0.1l-3.9-1.2c-0.8-0.3-1.3-1-1.2-1.9 0-0.1 0-0.3 0.1-0.4 0.2-0.8 0.9-1.3 1.7-1.3 0.2 0 0.3 0 0.5 0.1l3.9 1.2c0.4 0.3 0.8 0.6 1 1.1z"/>
			</g>
		</g>
	<path d="m408.9 397.1c0.6-1.1 0.7-2.2 0.2-3.3-0.9 0-1.7-0.1-2.6-0.1-0.5 1.1-0.5 2.3 0.2 3.4 0.2 0.4 0.8 0.8 1.2 0.9 0.3 0 0.8-0.5 1-0.9z" fill="none"/>
	<path d="m308.3 397.3c0.6 1 1.6 1 2.2 0 0.7-1.2 0.7-2.4 0.2-3.5-0.9 0-1.7 0.1-2.6 0.1-0.6 1-0.4 2.2 0.2 3.4z" fill="none"/>
		<path d="m479.5 422.6c0 0.5-0.1 0.8-0.1 1v13.2c0 1 0.2 1.7 1.4 1.8 1.1 0.1 1.7-0.4 1.9-1.6 0.1-1.5 0.3-3 0.2-4.5-0.3-3.5-1.4-6.7-3.4-9.9z" fill="none"/>
		<path stroke="#231F20" stroke-miterlimit="10" d="m499.9 438.6h-5c-1.4 0-1.8-0.5-1.7-1.8 0.5-5.4-0.4-10.5-2.6-15.4-2.9-6.3-7.4-11.3-12.7-15.6-0.5-0.4-1-1-1.4-1.5-2-2.5-4.4-4.3-7.4-5.2-1.5-0.5-2.5 0.3-2.4 1.9v0.9c0.6 7 1.2 14.1 1.9 21.1 0.5 4.9 0.5 4.9-3 8.4-1.1 1-1.9 1-3 0-0.8-0.8-3.3-3.9-3.2-4.9 0.3-3.4 0.6-6.8 0.9-10.2 0.4-5 0.9-9.9 1.3-14.9 0.1-1.7-1.1-2.6-2.6-1.9-2.3 1-4.2 2.4-5.7 4.3-0.3 0.4-0.7 0.9-1.1 1.2-8.4 7.4-19.7 7.9-28.7 1.3-1.9-1.4-3.8-1.7-5.9-0.7-0.5 0.2-1.3 0.2-1.7-0.1-1.7-1.2-3.3-2.5-4.9-3.9-0.2-0.2-0.3-0.9-0.1-1.2 0.5-0.8 1.1-1.4 1.7-2.2 0.8-1 0.7-1.6-0.3-2.4-1.1-0.9-2.2-1.7-3.3-2.6-1-0.8-1.6-0.7-2.4 0.3-2.2 2.8-4.5 5.7-6.7 8.5-0.7 0.9-0.5 1.7 0.3 2.4 1.1 0.9 2.3 1.8 3.4 2.7 0.9 0.7 1.6 0.5 2.3-0.2 0.5-0.6 1.1-1.3 1.5-2 0.5-0.6 0.9-0.8 1.5-0.2 1.8 1.5 3.6 2.8 5.3 4.3 0.3 0.3 0.6 0.7 0.6 1.1 0 2.4 1.1 4.1 3 5.4 9.3 6.2 19.2 8.1 29.9 4.5 1.4-0.5 2-0.1 2 1.2v16.4c0 1-0.5 1.5-1.5 1.5h-33.8 86.8c-0.1-0.4-0.6-0.5-1.3-0.5zm-17.3-1.7c-0.1 1.3-0.7 1.7-1.9 1.6-1.1-0.1-1.4-0.8-1.4-1.8v-13.2c0-0.2 0-0.5 0.1-1 2.1 3.2 3.2 6.4 3.4 9.9 0.1 1.5 0 3-0.2 4.5z" fill="#FFC900"/>
		<path stroke="#231F20" stroke-miterlimit="10" d="m501.4 438.9h-86.8c-1.1 0-1.6-0.5-1.6-1.6v-1.2c0-1.7-0.2-1.9-2-1.9-0.4 0-0.7 0-1.1-0.1-0.1-0.8-0.1-1.5-0.2-2.2h-14.2v1.8c-0.5 0-0.7 0.1-1 0.1-2 0-2.2 0.2-2.2 2.2v0.6c0 1.7-0.3 2-1.9 2h-8.7c-1.4 0-1.7 0.3-1.7 1.7v5.6c0 1.4 0.4 1.7 1.8 1.7h9.7c2 0 2.1 0.2 2.1 2.1v19c0 2.3 0.2 2.5 2.5 2.5h89.8c2.3 0 2.5-0.2 2.5-2.6v-19c0-1.9 0.3-2.3 2.2-2.3h9.6c1.4 0 1.8-0.4 1.8-1.8v-5.1c-0.1-0.7-0.3-1.2-0.6-1.5z" fill="#75D4CE"/>
		<path stroke="#231F20" stroke-miterlimit="10" d="m470.6 388.4c2.6-3 3.7-6.5 3.7-8.7 0-5.7-1.2-9.3-3.5-12-4.4-5.2-11.4-5.2-15.7 0.1-4.7 5.7-4.6 14.9 0.2 20.5 4.1 5 11 5.1 15.3 0.1z" fill="#FFC900"/>
		<g stroke="#231F20" stroke-miterlimit="10">
			<path d="m584 370.2l2.4 4.1s-3.9 2-7.3-4.5l-1.2-8.9 7.5-3.6-0.9 7-0.5 5.9z" fill="#fff"/>
			<path d="m587.1 357.3h-12.5s-2.4-0.1-2.4-2.5h16.1l-1.2 2.5z" fill="#fff"/>
			<path d="m603.1 362.5h-16.4v4.7l4.2 3.4s1.3 3.2-0.3 3.2-8.8-5-8.8-5l-0.7-8 7-6h33.9v13.3l-11.8 5.7h-18.2s1.6-4.1 4.8-4.4 5.6-2.8 5.6-2.8l0.7-4.1z" fill="#fff"/>
			<rect height="20.2" width="63.9" y="351.6" x="622" fill="#75D4CE"/>
		</g>
		<path d="m634.5 427.8c-0.1 0-0.3-0.1-0.4-0.1 0.2 0 0.3 0.1 0.4 0.1z" fill="none"/>
		<path d="m634.1 427.7c-0.1 0-0.1 0-0.2-0.1 0.1 0.1 0.2 0.1 0.2 0.1z"/>
		<path d="m653.4 486.2c-0.6-1.9-1.1-3.7-1.7-5.6-5.2-17.2-10.5-34.4-15.7-51.6l-0.3-1.2h0.1c-0.3 0.1-0.8 0.1-1.3 0h0.2c0 0.1-0.1 0.2-0.1 0.3-2.4 8.2-4.8 16.4-7.2 24.5-3.3 11-6.5 22.1-9.7 33.1-0.1 0.3 0.8 0.1 0.8 0l16.2-55.2h0.1v54.4h0.8v-54.5h0.1c5.6 18.6 11.3 37.1 16.9 55.8 0 0 0.9 0.2 0.8 0 0.1 0.1 0.1 0.1 0 0z" fill="#231F20"/>
		<path d="m549.3 427.8c0.1 0 0.3-0.1 0.4-0.1-0.2 0-0.3 0.1-0.4 0.1z" fill="none"/>
		<path d="m549.7 427.7c0.1 0 0.1 0 0.2-0.1-0.1 0.1-0.2 0.1-0.2 0.1z"/>
		<path d="m530.4 486.2c0.6-1.9 1.1-3.7 1.7-5.6 5.2-17.2 10.5-34.4 15.7-51.6l0.3-1.2h-0.1c0.3 0.1 0.8 0.1 1.3 0h-0.2c0 0.1 0.1 0.2 0.1 0.3 2.4 8.2 4.8 16.4 7.2 24.5 3.3 11 6.5 22.1 9.7 33.1 0.1 0.3-0.8 0.1-0.8 0l-16.2-55.2h-0.1v54.4h-0.8v-54.5h-0.1c-5.6 18.6-11.3 37.1-16.9 55.8 0 0-0.9 0.2-0.8 0-0.1 0.1 0 0.1 0 0z" fill="#231F20"/>
		<path stroke="#231F20" stroke-miterlimit="10" d="m635.6 484.3h-0.8v0.1c-2.9 0-5.7 0.1-8.6 0.3-7 0.6-11.4 1.7-12.5 1.9 0.2 0.2 2.1 2.5 2.3 2.7 1.2 1.2 2.6 1.9 4.2 2.4 2.6 0.8 5.3 1.1 7.9 1.4 2.9 0.3 5.8 0.4 8.7 0.3 3.4-0.1 6.7-0.2 10.1-0.8 2.6-0.4 5.1-1.3 7.3-2.8 0.2-0.2 1.9-2.4 2.5-3.4-2.2-0.4-4.3-0.7-6.3-1-4.9-0.6-9.8-0.9-14.8-1.1z" fill="#75D4CE"/>
		<path stroke="#231F20" stroke-miterlimit="10" d="m548.2 484.3h0.8v0.1c2.9 0 5.7 0.1 8.6 0.3 7 0.6 11.4 1.7 12.5 1.9-0.2 0.2-2.1 2.5-2.3 2.7-1.2 1.2-2.6 1.9-4.2 2.4-2.6 0.8-5.3 1.1-7.9 1.4-2.9 0.3-5.8 0.4-8.7 0.3-3.4-0.1-6.7-0.2-10.1-0.8-2.6-0.4-5.1-1.3-7.3-2.8-0.2-0.2-1.9-2.4-2.5-3.4 2.2-0.4 4.3-0.7 6.3-1 4.9-0.6 9.8-0.9 14.8-1.1z" fill="#75D4CE"/>
		<path stroke="#231F20" stroke-miterlimit="10" d="m638.7 423.7c-0.2-1.8-1.8-3.1-3.6-3.1s-3.3 1.4-3.6 3.2c0 0.2-0.1 0.4-0.3 0.4-0.8 0.2-1.6 0.3-2.4 0.5-2 0.5-4.1 0.5-6.1 0-1.6-0.4-3.2-0.9-4.8-1.5-2.4-0.9-4.7-1.9-7.2-2.7-3-1-6.1-1.3-9.2-0.7-2.5 0.4-4.8 1.4-7 2.6-0.4 0.2-0.7 0.4-1.1 0.6v-0.3c0-1 0.4-1.8 0.9-2.6s1.1-1.6 1.7-2.4c0.8-1.1 1.4-2.4 0.9-3.6-1.7-4.7-8.2-4.8-10 0-0.5 1.2 0.2 2.5 0.9 3.6 0.6 0.8 1.2 1.6 1.7 2.4s0.9 1.6 0.9 2.6v0.3c-0.4-0.2-0.8-0.4-1.1-0.6-2.2-1.2-4.5-2.2-7-2.6-3.1-0.5-6.2-0.2-9.2 0.7-2.4 0.8-4.8 1.8-7.2 2.7-1.6 0.6-3.2 1.1-4.8 1.5-2 0.5-4.1 0.5-6.1 0-0.8-0.2-1.6-0.3-2.4-0.5-0.2 0-0.3-0.2-0.3-0.4-0.2-1.9-1.7-3.2-3.6-3.2-1.8 0-3.4 1.3-3.6 3.1-0.2 1.9 0.9 3.5 2.7 4h0.2c0.3 0.1 0.8 0.1 1.3 0 0.1 0 0.3-0.1 0.4-0.1s0.1 0 0.2-0.1c0.7-0.2 1.2-0.6 1.6-1.1 1.3 0.4 2.5 0.9 3.8 1.2 3.1 0.8 6.2 0.7 9.3-0.2 2.5-0.7 4.9-1.5 7.4-2.2 2.2-0.6 4.5-1.1 6.8-1 1.9 0.1 3.8 0.5 5.5 1.4 0.8 0.4 1.4 1.1 2 1.7 0.6 0.5 1.1 1 1.6 1.6 0.1 0.1 0.2 0.3 0.2 0.4l3.8 3.2-2 2 2.1 16 2.1-16-2-2 3.8-3.2c0-0.1 0.1-0.3 0.2-0.4l1.6-1.6c0.7-0.6 1.3-1.2 2-1.7 1.7-0.9 3.6-1.3 5.5-1.4 2.3-0.1 4.6 0.3 6.8 1 2.5 0.7 4.9 1.5 7.4 2.2 3.1 0.9 6.2 1 9.3 0.2 1.3-0.3 2.5-0.8 3.8-1.2 0.4 0.5 1 0.9 1.6 1.1 0.1 0 0.1 0 0.2 0.1 0.1 0 0.3 0.1 0.4 0.1 0.6 0.1 1 0.1 1.3 0h0.2c1.6-0.4 2.8-2.1 2.5-4zm-46.8-5.7c-1.4 0-2.5-1.1-2.5-2.5s1.1-2.5 2.5-2.5c1.4 0 2.5 1.1 2.5 2.5s-1.1 2.5-2.5 2.5z" fill="#75D4CE"/>
		<path stroke="#231F20" stroke-miterlimit="10" d="m591.9 406.5c-1.1 0-2-0.9-2-2v-4.8c0-1.1 0.9-2 2-2s2 0.9 2 2v4.8c0.1 1.1-0.8 2-2 2z" fill="none"/>
		<path stroke="#231F20" stroke-miterlimit="10" d="m591.9 390.4c-1.1 0-2-0.9-2-2v-4.8c0-1.1 0.9-2 2-2s2 0.9 2 2v4.8c0.1 1.1-0.8 2-2 2z" fill="none"/>
			<path d="m591.9 414.9c-0.5 0-0.9-0.8-0.9-1.7v-6.1c0-1 0.4-1.7 0.9-1.7s0.9 0.8 0.9 1.7v6.1c0 0.9-0.4 1.7-0.9 1.7zm0-9c-0.3 0-0.6 0.5-0.6 1.1v6.1c0 0.6 0.3 1.1 0.6 1.1s0.6-0.5 0.6-1.1v-6.1c0-0.6-0.2-1.1-0.6-1.1z" fill="#231F20"/>
			<path d="m591.9 398.8c-0.5 0-0.9-0.8-0.9-1.7v-6.1c0-1 0.4-1.7 0.9-1.7s0.9 0.8 0.9 1.7v6.1c0 0.9-0.4 1.7-0.9 1.7zm0-8.9c-0.3 0-0.6 0.5-0.6 1.1v6.1c0 0.6 0.3 1.1 0.6 1.1s0.6-0.5 0.6-1.1v-6.1c0-0.6-0.2-1.1-0.6-1.1z" fill="#231F20"/>
			<path d="m591.9 382.4c-0.5 0-0.9-0.8-0.9-1.7v-6.1c0-1 0.4-1.7 0.9-1.7s0.9 0.8 0.9 1.7v6.1c0 0.9-0.4 1.7-0.9 1.7zm0-8.9c-0.3 0-0.6 0.5-0.6 1.1v6.1c0 0.6 0.3 1.1 0.6 1.1s0.6-0.5 0.6-1.1v-6.1c0-0.6-0.2-1.1-0.6-1.1z" fill="#231F20"/>
		<g stroke="#231F20" stroke-miterlimit="10" fill="#FFC900">
			<path d="m717.2 485.2h6.6v-7.9h6.9v-7.9h114.7v7.8h6.9v8h6.7v8.1h-141.8v-8.1z"/>
			<path d="m788.6 357.7c0.7 0.4 1.5 0.9 2.2 1.3 19.1 9 38.3 18.1 57.4 27.1 3.7 1.8 3.7 1.8 2.9 6.3h-126.1c-0.8-4.5-0.8-4.5 2.9-6.3 19.1-9 38.3-18.1 57.4-27.1 0.8-0.4 1.5-0.9 2.2-1.3h1.1z"/>
			<path d="m768.7 405.1h11.6c0.6 20.6 1.2 41.2 1.8 61.9h-14.9c0.5-20.6 1-41.1 1.5-61.9z"/>
			<path d="m809.1 467h-14.9c0.5-20.7 1-41.2 1.6-61.9h11.6c0.5 20.6 1.1 41.2 1.7 61.9z"/>
			<path d="m741.7 404.9c3.7 0 7.1-0.1 10.4 0.1 0.4 0 1.1 1.2 1.1 1.8 0.2 4.4 0.3 8.9 0.4 13.3l1.2 44.7v2.2h-14.8c0.6-20.6 1.1-41.1 1.7-62.1z"/>
			<path d="m737.2 402.6v-7.6h102v7.6h-102z"/>
			<path d="m836.2 467h-14.9c0.5-20.7 1-41.2 1.5-61.9h11.6c0.6 20.6 1.2 41.1 1.8 61.9z"/>
		</g>
			<path d="m779 371.3v10h3.4c-1.2-3.4-2.3-6.7-3.4-10z" fill="none"/>
			<path d="m797.6 371.3v10h3.4c-1.1-3.4-2.3-6.7-3.4-10z" fill="none"/>
			<path d="m782.4 381.3h-3.4 3.4z" fill="none"/>
			<path d="m793.9 381.3h3.4-3.4z" fill="none"/>
			<path d="m797.3 371.3c-1.1 3.3-2.3 6.7-3.4 10h3.4v-10z" fill="none"/>
			<path d="m797.6 381.3h3.4-3.4z" fill="none"/>
			<path d="m775.3 381.3h3.4v-10c-1.2 3.3-2.3 6.6-3.4 10z" fill="none"/>
			<path d="m801 381.3h-3.4-0.3-3.4-0.2v0.1c2 2.4 5.8 2.3 7.6 0v-0.1h-0.3z" fill="#58595B"/>
			<path d="m782.4 381.3h-3.4-4v0.1c1.9 2.4 5.7 2.4 7.6 0v-0.1h-0.2z" fill="#58595B"/>
			<path d="m797.3 371.3v10h0.3v-10c1.1 3.3 2.3 6.7 3.4 10h0.2c-1.2-3.6-2.4-7.1-3.6-10.7 0.3-0.1 0.4-0.4 0.3-0.6 0-0.2-0.1-0.4 0-0.6v-0.2c-0.1 0.1-0.1 0.1-0.1 0.2-0.1 0.2-0.2 0.2-0.4 0.1s-0.1-0.2-0.1-0.4c0.1-0.2 0.2-0.4 0.3-0.7 0.1 0 0.3 0 0.5-0.1 1.3-0.2 2.2-1.5 1.9-2.8-0.3-1.4-1.9-2.1-3-1.4-1 0.6-1.2 1.9-0.4 2.7 0.6 0.6 1.6 0.5 2-0.2 0.3-0.5 0.1-1-0.3-1.2-0.2-0.1-0.4-0.1-0.5 0.1 0.5 0.2 0.6 0.6 0.3 0.9-0.2 0.2-0.6 0.3-0.8 0.1-0.6-0.3-0.6-1.1-0.1-1.5 0.4-0.3 0.9-0.4 1.3-0.1 0.5 0.2 0.7 0.8 0.7 1.3-0.1 1-1.3 1.8-2.3 1.1s-2.1-1.3-3.1-2c-1.1-0.7-2.2-1.3-3.5-1.5-0.5-0.1-1-0.1-1.4-0.2 0.5-0.5 0.6-0.8 0.3-1.5-0.3-0.8-0.7-1.5-1.1-2.3-0.4 0.8-0.8 1.6-1.1 2.3s-0.2 1 0.4 1.5c-0.5 0.1-1 0.1-1.4 0.2-1.3 0.2-2.4 0.8-3.5 1.5s-2.1 1.4-3.2 2c-0.6 0.4-1.1 0.2-1.6-0.1s-0.7-1-0.5-1.5c0.2-0.9 1.3-1.3 1.9-0.7 0.3 0.2 0.4 0.5 0.4 0.9 0 0.3-0.2 0.6-0.6 0.7s-0.7 0-0.8-0.4c-0.1-0.3 0-0.5 0.4-0.7v-0.1c-0.1 0-0.2-0.1-0.2-0.1-0.3 0-0.5 0.2-0.6 0.5-0.3 0.7 0.5 1.5 1.3 1.4 1-0.2 1.6-1.1 1.2-2.1-0.4-1.2-1.8-1.6-2.9-0.9-1.4 0.9-1.3 3.1 0.3 3.9 0.4 0.2 0.8 0.3 1.2 0.3 0.1 0.3 0.2 0.5 0.3 0.8v0.3c-0.1 0.1-0.2 0.1-0.3 0-0.1 0-0.1-0.2-0.2-0.3h-0.1c0 0.1 0.1 0.2 0.1 0.3s0.1 0.1 0 0.2c-0.1 0.4-0.1 0.7 0.3 0.9-1.2 3.6-2.4 7.1-3.6 10.7h3.9v-10c1.1 3.3 2.3 6.7 3.4 10h0.2c-1.2-3.6-2.4-7.1-3.6-10.7 0.3-0.2 0.4-0.6 0.3-0.9 0-0.1-0.1-0.1-0.1-0.2 0.1-0.3 0-0.5-0.2-0.8-0.1-0.1-0.2-0.3-0.2-0.4 0.3-0.1 0.6-0.3 0.8-0.4 1-0.5 2-1.1 3.1-1.6 1.5-0.7 3.1-1.1 4.7-1.2v0.6c0 0.2 0.1 0.4 0.2 0.6-0.4 0.4-0.4 0.7 0.1 1.2-0.2 0.2-0.3 0.4-0.3 0.7v13.4c0 0.3 0.1 0.5 0.3 0.7-0.4 0.4-0.4 0.6-0.2 1.1-0.4 0.4-0.8 0.8-1.2 1.1-1.4 1.2-3 1.7-4.8 1.9-0.2 0-0.2 0.1-0.2 0.2v0.5h-1.9c-0.4 0-0.5 0.1-0.5 0.5v0.7h-1.3c-0.2 0-0.3 0.1-0.4 0.3v1.3h21.8c0-0.4 0-0.9-0.1-1.3 0-0.2-0.1-0.3-0.3-0.3h-1.3v-0.4c0-0.2 0-0.4-0.1-0.5 0-0.2-0.1-0.3-0.3-0.3h-1.8-0.2v-0.6c0-0.1-0.1-0.2-0.2-0.2-0.5-0.1-1-0.1-1.5-0.2-1.8-0.4-3.3-1.4-4.5-2.8 0.3-0.4 0.2-0.8-0.2-1.1 0.2-0.2 0.3-0.4 0.3-0.7v-13.4c0-0.3-0.1-0.5-0.3-0.7 0.4-0.5 0.4-0.8 0-1.3 0.4-0.3 0.2-0.8 0.3-1.2 0.3 0 0.6 0.1 0.9 0.1 1.6 0.2 3.1 0.7 4.6 1.4 1.1 0.5 2.1 1.1 3.2 1.6-0.1 0.2-0.2 0.3-0.3 0.5s-0.2 0.4-0.1 0.6v0.1c-0.2 0.5-0.1 0.7 0.2 1-1.2 3.5-2.4 7.1-3.6 10.7h0.2c0.9-3 2.1-6.3 3.2-9.6zm-18.6 10h-3.4c1.1-3.3 2.3-6.7 3.4-10v10zm0.4-11.6c0.1 0.2 0.1 0.4 0 0.7-0.1 0.2-0.3 0.2-0.4 0s-0.2-0.4 0-0.6c0-0.1 0.2-0.1 0.4-0.1zm18.1 0.7c-0.1-0.2-0.1-0.4 0-0.6h0.5c0.1 0.2 0.1 0.4 0 0.6 0 0.1-0.1 0.2-0.2 0.2-0.1-0.1-0.2-0.2-0.3-0.2z" fill="#75D4CE"/>
	<g stroke-miterlimit="10" stroke="#414042" stroke-width="2" stroke-linecap="round" fill="none">
			<line y2="513.8" x1="831.3" x2="854.2" y1="513.8"/>
			<line y2="525.2" x1="842.8" x2="842.8" y1="502.4"/>
	</g>
	<g stroke-miterlimit="10" stroke="#414042" stroke-width="2" stroke-linecap="round" fill="none">
			<line y2="482.7" x1="289.1" x2="312" y1="482.7"/>
			<line y2="494.1" x1="300.5" x2="300.5" y1="471.3"/>
	</g>
	<g stroke-miterlimit="10" stroke="#414042" stroke-width="2" stroke-linecap="round" fill="none">
			<line y2="462.8" x1="593.5" x2="616.4" y1="462.8"/>
			<line y2="474.3" x1="604.9" x2="604.9" y1="451.4"/>
	</g>
	<g stroke-miterlimit="10" stroke="#414042" stroke-width="2" stroke-linecap="round" fill="none">
			<line y2="504" x1="377.9" x2="394" y1="487.8"/>
			<line y2="504" x1="394" x2="377.9" y1="487.8"/>
	</g>
	<g stroke-miterlimit="10" stroke="#414042" stroke-width="2" stroke-linecap="round" fill="none">
			<line y2="525.2" x1="965.9" x2="988.8" y1="525.2"/>
			<line y2="536.7" x1="977.4" x2="977.4" y1="513.8"/>
	</g>
	<g stroke-miterlimit="10" stroke="#414042" stroke-width="2" stroke-linecap="round" fill="none">
			<line y2="482.3" x1="444.2" x2="467.4" y1="482.3"/>
			<line y2="482.3" x1="473.1" x2="482.3" y1="482.3"/>
	</g>
	<g stroke-miterlimit="10" stroke="#414042" stroke-width="2" stroke-linecap="round" fill="none">
			<line y2="492.7" x1="143.7" x2="162.5" y1="492.7"/>
			<line y2="492.7" x1="167.2" x2="174.6" y1="492.7"/>
	</g>
		<circle r="8.5" stroke-linecap="round" cy="508.9" stroke="#414042" cx="665.2" stroke-miterlimit="10" stroke-width="2" fill="none"/>
		<circle r="6" stroke-linecap="round" cy="432.2" stroke="#414042" cx="690.6" stroke-miterlimit="10" stroke-width="2" fill="none"/>
		<circle r="8.5" stroke-linecap="round" cy="398.2" stroke="#414042" cx="527.8" stroke-miterlimit="10" stroke-width="2" fill="none"/>
		<circle r="6.2" stroke-linecap="round" cy="384.6" stroke="#414042" cx="287.7" stroke-miterlimit="10" stroke-width="2" fill="none"/>
	<g stroke-miterlimit="10" stroke="#2E3192" stroke-width="2" stroke-linecap="round" fill="none">
		<polyline points="492.4 346.2 483.9 337.7 461.4 337.7"/>
			<circle r="3.5" cy="337.6" cx="457.9"/>
	</g>
	<g stroke-miterlimit="10" stroke="#2E3192" stroke-width="2" stroke-linecap="round" fill="none">
		<polyline points="365 363.1 356.5 371.6 334 371.6"/>
			<circle r="3.5" cy="371.7" cx="330.5"/>
	</g>
	<g stroke-miterlimit="10" stroke="#2E3192" stroke-width="2" stroke-linecap="round" fill="none">
		<polyline points="839.8 349.8 848.3 358.2 870.8 358.2"/>
			<circle r="3.5" cy="358.3" cx="874.3"/>
	</g>
	<g stroke-miterlimit="10" stroke="#2E3192" stroke-width="2" stroke-linecap="round" fill="none">
		<polyline points="996.5 346.1 1004.9 337.6 1027.5 337.6"/>
			<circle r="3.5" cy="337.5" cx="1031"/>
	</g>
	<g stroke-miterlimit="10" stroke="#2E3192" stroke-width="2" stroke-linecap="round" fill="none">
		<polyline points="217 441 208.5 449.4 208.5 472"/>
			<circle r="3.5" cy="475.5" cx="208.4"/>
	</g>
	<g stroke-miterlimit="10" stroke="#2E3192" stroke-width="2" stroke-linecap="round" fill="none">
		<polyline points="706.9 366 698.5 374.4 698.5 396.9"/>
			<circle r="3.5" cy="400.5" cx="698.4"/>
	</g>
	<g stroke-miterlimit="10" stroke="#2E3192" stroke-width="2" stroke-linecap="round" fill="none">
		<polyline points="1117.3 491.9 1108.9 500.4 1108.9 522.9"/>
			<circle r="3.5" cy="526.4" cx="1108.8"/>
	</g>
	<g stroke-miterlimit="10" stroke="#2E3192" stroke-width="2" stroke-linecap="round" fill="none">
		<polyline points="242.9 406.8 251.3 415.2 251.3 437.7"/>
			<circle r="3.5" cy="441.3" cx="251.4"/>
	</g>
	<g stroke-miterlimit="10" stroke="#2E3192" stroke-width="2" stroke-linecap="round" fill="none">
		<polyline points="707.7 410.7 716.2 419.1 716.2 441.6"/>
			<circle r="3.5" cy="445.2" cx="716.3"/>
	</g>
	<g stroke-miterlimit="10" stroke="#2E3192" stroke-width="2" stroke-linecap="round" fill="none">
		<polyline points="1117.5 379.8 1125.9 388.2 1125.9 410.7"/>
			<circle r="3.5" cy="414.3" cx="1126"/>
	</g>
	<g stroke-miterlimit="10" stroke="#2E3192" stroke-width="2" stroke-linecap="round" fill="none">
		<path d="m651.2 306.7l7.7 7.7c0.5 0.5 0.7 1.1 0.7 1.8v21.5"/>
		<path d="m660.3 337.7c-2.4-0.4-4.4 1.7-4 4 0.2 1.5 1.4 2.7 2.9 2.9 2.4 0.4 4.4-1.7 4-4-0.2-1.5-1.4-2.7-2.9-2.9z"/>
	</g>
	<g stroke-miterlimit="10" stroke="#2E3192" stroke-width="2" stroke-linecap="round" fill="none">
		<path d="m706.4 306.9l5.9 5.9c0.6 0.6 0.9 1.4 0.9 2.2v16.9"/>
		<path d="m713.9 332c-2-0.4-3.7 1.3-3.3 3.3 0.2 1.1 1.1 2 2.2 2.2 2 0.4 3.7-1.3 3.3-3.3-0.2-1.1-1.1-2-2.2-2.2z"/>
	</g>
	<path d="m651.4 306.7v25.1c0 0.8-0.4 1.6-1.1 2.1l-3.4 2.3h-117.9l-10.3 10.3h-78.4l-16.7 16.7h-161.1l-19.6 19.6v40.6l-25.5 11.8v71.7" stroke="#2E3192" stroke-linecap="round" stroke-miterlimit="10" stroke-width="2" fill="none"/>
	<path d="m656.3 307.2c0.7 3.5-2.4 6.5-5.9 5.9-2-0.4-3.6-2-3.9-3.9-0.7-3.5 2.4-6.5 5.9-5.9 2 0.3 3.6 1.9 3.9 3.9z" fill="#2E3192"/>
	<path d="m681.8 307.2c0.7 3.5-2.4 6.5-5.9 5.9-2-0.4-3.6-2-3.9-3.9-0.7-3.5 2.4-6.5 5.9-5.9 2 0.3 3.6 1.9 3.9 3.9z" fill="#2E3192"/>
	<path d="m710.9 307.2c0.7 3.5-2.4 6.5-5.9 5.9-2-0.4-3.6-2-3.9-3.9-0.7-3.5 2.4-6.5 5.9-5.9 2 0.3 3.6 1.9 3.9 3.9z" fill="#2E3192"/>
	<polyline fill="none" stroke="#2E3192" stroke-linecap="round" stroke-miterlimit="10" stroke-width="2" points="676.9 306.7 676.9 341.4 683 347.5 701.1 347.5 707.2 353.5 707.2 472 700.7 487.9 700.7 513.8"/>
	<circle r="4.1" cy="462.3" stroke="#2E3192" cx="707.3" stroke-miterlimit="10" stroke-width="2" fill="#fff"/>
	<circle r="4.1" cy="363.9" stroke="#2E3192" cx="410.1" stroke-miterlimit="10" stroke-width="2" fill="#fff"/>
		<g stroke="#231F20" stroke-miterlimit="10" fill="#FFC900">
			<path d="m340.8 573.2l9.6-9.7-9.2-8.7-6.9 6.8c-0.1 0 0.3 9.7 6.5 11.6z"/>
			<polygon points="340.4 563.3 350.4 563.3 350.4 517.2 311 517.2 311 573.2 340.4 573.2"/>
			<line y2="527.3" x2="343.4" y1="527.3" x1="317.5"/>
			<line y2="531.4" x2="343.4" y1="531.4" x1="317.5"/>
			<line y2="535.4" x2="343.4" y1="535.4" x1="317.5"/>
			<line y2="539.5" x2="343.4" y1="539.5" x1="317.5"/>
			<line y2="543.6" x2="343.4" y1="543.6" x1="317.5"/>
			<line y2="547.6" x2="343.4" y1="547.6" x1="317.5"/>
			<line y2="551.7" x2="343.4" y1="551.7" x1="317.5"/>
			<line y2="555.8" x2="343.4" y1="555.8" x1="317.5"/>
			<line y2="559.9" x2="343.4" y1="559.9" x1="317.5"/>
		</g>
		<g stroke="#231F20" stroke-miterlimit="10" fill="#fff">
				<circle cx="307.1" cy="578.1" r="23.5"/>
				<rect height="6.3" width="37" y="575" x="246.6"/>
				<path d="m258.2 584h-40.3c-0.7 0-1.3-0.6-1.3-1.3v-9.1c0-0.7 0.6-1.3 1.3-1.3h40.3v11.7z"/>
			<path d="m326.2 579.6c0 9.6-7.8 17.5-17.5 17.5"/>
		</g>
		<g stroke="#231F20" stroke-miterlimit="10">
			<g fill="#fff">
				<path d="m384.1 636.9v-20.8c0-4.6-4.2-8.3-9.3-8.3h-25.7c-5.1 0-9.3 3.7-9.3 8.3v20.8h44.3z"/>
				<path d="m358.1 592.9s-4.6 3.8-7.8 5c0.3 7 5.4 12.6 11.6 12.6 6.4 0 11.6-6 11.6-13.3v-0.7c-5.7 0.1-15.9 0-15.4-3.6z"/>
				<path d="m373.5 596.4c-0.3-7-5.4-12.6-11.6-12.6-6.4 0-11.6 6-11.6 13.3v0.7c3.2-1.2 7.8-5 7.8-5-0.5 3.7 9.7 3.8 15.4 3.6z"/>
			</g>
			<g fill="#fff">
				<path d="m448.1 636.9v-20.8c0-4.6-4.2-8.3-9.3-8.3h-25.7c-5.1 0-9.3 3.7-9.3 8.3v20.8h44.3z"/>
				<path d="m422.2 592.9s-4.6 3.8-7.8 5c0.3 7 5.4 12.6 11.6 12.6 6.4 0 11.6-6 11.6-13.3v-0.7c-5.8 0.1-15.9 0-15.4-3.6z"/>
				<path d="m437.6 596.4c-0.3-7-5.4-12.6-11.6-12.6-6.4 0-11.6 6-11.6 13.3v0.7c3.2-1.2 7.8-5 7.8-5-0.5 3.7 9.6 3.8 15.4 3.6z"/>
			</g>
			<g fill="#75D4CE">
				<path d="m424 636.9v-10.6c0-6.9-5.6-12.6-12.6-12.6h-34.8c-6.9 0-12.6 5.6-12.6 12.6v10.6h60z"/>
				<path d="m388.8 591.1s-6.2 5.8-10.5 7.6c0.5 10.7 7.3 19.2 15.7 19.2 8.7 0 15.7-9.1 15.7-20.3v-1.1c-7.8 0.2-21.5 0-20.9-5.4z"/>
				<path d="m409.7 596.4c-0.5-10.7-7.3-19.2-15.7-19.2-8.7 0-15.7 9.1-15.7 20.3v1.1c4.3-1.9 10.5-7.6 10.5-7.6-0.6 5.5 13.1 5.7 20.9 5.4z"/>
			</g>
		</g>
		<g stroke="#231F20" stroke-miterlimit="10">
			<rect height="47.9" width="24" y="474.7" x="492.3" fill="#fff"/>
			<path d="m496.8 522.6l-7.7 16.6s12.5 9.9 15.3 22.5c0 0 8-16.4 14.6-21.7l-6.7-17.4h-15.5z" fill="#FFC900"/>
		</g>
			<g id="XMLID_1_">
					<path d="m1049.6 561.6c23.6-9.8 53-8.1 53-8.1 1.3 0.1 2.1 0.5 2.6 1 1.4 1.6 0.5 4.5 0.3 4.9l-0.6-0.2s-27.3-1.4-49.2 6.6c-0.8-0.1-1.5-0.2-2-0.3-8.8-1.3-4.1-3.9-4.1-3.9z" fill="#FFC900"/>
					<path d="m1081.2 533l3.2 1.9s-2.8 2.7-0.7 5.9c-4.1 0.1-8.7 0.6-13.2 1.5 1.1-3.5-2.2-5.4-2.2-5.4l2.7-2.6c3.1 1.6 5-1.3 5-1.3s2.6 2.3 5.2 0z" fill="#FFC900"/>
					<path d="m1083.8 540.7c-2.1-3.2 0.7-5.9 0.7-5.9l-3.2-1.9c-2.6 2.3-5.1 0-5.1 0s-1.9 2.9-5 1.3l-2.7 2.6s3.3 1.8 2.2 5.4c-10.6 2-20.5 6.2-21 13v1.9h-1.2s-13.1-3.4-8.4-12.5c8.4-16.1 51.4-32.8 71.2-9.2 4 4.7-8.5 15.8-8.5 15.8l0.2-4s-4-6.8-17.9-6.5h-1.3z" fill="#75D4CE"/>
					<path d="m1105.4 559.6c26.9 13.2-35.5 8.2-49.8 6.3 22-8.1 49.2-6.6 49.2-6.6l0.6 0.3v0z" fill="#fff"/>
					<path d="m1084 541.1s2.4 4.9-2.3 6.6c0 0-3.6 1.5-3.5 2.1-0.1-0.6-3.9-1.2-3.9-1.2-5-0.5-3.9-5.8-3.9-5.8 0.1-0.2 0.1-0.3 0.2-0.5 4.5-0.9 9.1-1.4 13.2-1.5 0 0.1 0.1 0.1 0.2 0.3z" fill="#FFC900"/>
					<path d="m1102.5 553.5s-29.4-1.7-53 8.1v-6.4c0.5-6.8 10.4-11 21-13 0 0.2-0.1 0.3-0.2 0.5 0 0-1.1 5.3 3.9 5.8 0 0 3.8 0.6 3.9 1.2-0.1-0.6 3.5-2.1 3.5-2.1 4.7-1.7 2.3-6.6 2.3-6.6-0.1-0.1-0.1-0.2-0.2-0.3h1.2c13.8-0.3 17.9 6.5 17.9 6.5l-0.2 4-0.1 2.3z" fill="#75D4CE"/>
				<g stroke="#414042" stroke-miterlimit="10" fill="none">
					<path stroke-linecap="round" d="m1070.6 542.2c-10.6 2-20.5 6.2-21 13v6.4s-4.6 2.6 4 4c0.5 0.1 1.2 0.2 2 0.3 14.3 1.8 76.7 6.9 49.8-6.3v-0.1c0.2-0.4 1.2-3.3-0.3-4.9-0.5-0.6-1.3-1-2.6-1l0.1-2.3 0.2-4s-4-6.8-17.9-6.5h-1.2"/>
					<path stroke-linecap="round" d="m1048.3 557.1s-13.1-3.4-8.4-12.5c8.4-16.1 51.4-32.8 71.2-9.2 4 4.7-8.5 15.8-8.5 15.8"/>
					<path stroke-linecap="round" d="m1102.5 553.5s-29.4-1.7-53 8.1"/>
					<path stroke-linecap="round" d="m1105.3 554.6h-0.2c-2.7-0.1-30.3-1.2-52.8 8.1"/>
					<path stroke-linecap="round" d="m1104.8 559.3s-27.3-1.4-49.2 6.6h-0.1"/>
					<path stroke-width=".5" d="m1083.8 540.7c-2.1-3.2 0.7-5.9 0.7-5.9l-3.2-1.9c-2.6 2.3-5.1 0-5.1 0s-1.9 2.9-5 1.3l-2.7 2.6s3.3 1.8 2.2 5.4c0 0.2-0.1 0.3-0.2 0.5 0 0-1.1 5.3 3.9 5.8 0 0 3.8 0.6 3.9 1.2-0.1-0.6 3.5-2.1 3.5-2.1 4.7-1.7 2.3-6.6 2.3-6.6-0.2-0.1-0.3-0.1-0.3-0.3z"/>
				</g>
			</g>
			<path d="m1141 571.6c-0.1 2.2-0.3 4.4-0.4 6.7h-1.7c-0.8-3.7 0.1-6.2 2.1-6.7z" fill="#fff"/>
				<path d="m1152.8 601.8h-23c-0.7 0-1.4 0-2-0.1-1.9-0.4-2.8-1.8-2-3.6 1.5-3.7 2.9-7.4 4.7-11 1.3-2.6 3.5-4.2 6.6-4.2h32.5c3.2 0 5.4 1.8 6.6 4.6 1.4 3.4 2.7 6.8 4 10.3 0.8 2-0.4 3.8-2.6 4-2.1 0.2-4.2 0.1-6.2 0.1-6.2-0.1-12.4-0.1-18.6-0.1z" fill="#fff"/>
				<path d="m1198.3 601.8h-6.9c-3.5 0-6-1.5-7.3-4.8-1.3-3.4-2.7-6.7-4.1-10.1-0.9-2.2 0.3-4.1 2.7-4.1 4.9-0.1 9.9-0.1 14.8 0 2.2 0.1 4.2 1.4 5.2 3.3 2.2 4 4.2 8.1 6.1 12.3 0.8 1.8-0.5 3.4-2.8 3.4h-7.7z" fill="#fff"/>
					<path d="m1187.8 648c-7.7 0-13.7-6-13.7-13.7s6-13.7 13.7-13.7c7.5 0 13.6 6.1 13.7 13.6 0 7.6-6.1 13.8-13.7 13.8zm6.8-13.7c0-3.8-3-6.8-6.7-6.8-3.9 0-6.9 3-6.9 6.8s3 6.8 6.8 6.9c3.7 0.1 6.8-3 6.8-6.9z" fill="#58595B"/>
					<path d="m1194.6 634.3c0 3.8-3.1 6.9-6.9 6.9-3.8-0.1-6.8-3.1-6.8-6.9s3.1-6.9 6.9-6.8c3.8 0 6.8 3 6.8 6.8zm-6.8 4.8c2.5 0 4.8-2.2 4.8-4.7s-2.2-4.8-4.8-4.9c-2.6 0-4.8 2.1-4.8 4.8s2 4.8 4.8 4.8z" fill="#fff"/>
					<path d="m1187.8 639.1c-2.7 0-4.8-2-4.7-4.8 0-2.7 2.2-4.8 4.8-4.8 2.5 0 4.8 2.3 4.8 4.9-0.2 2.5-2.4 4.7-4.9 4.7z" fill="#58595B"/>
					<path d="m1103.8 648c-7.7 0-13.7-6-13.7-13.7s6-13.7 13.7-13.7c7.5 0 13.6 6.1 13.7 13.6 0 7.6-6.2 13.8-13.7 13.8zm6.7-13.7c0-3.8-3-6.8-6.7-6.8-3.9 0-6.9 3-6.9 6.8s3 6.8 6.8 6.9c3.7 0.1 6.8-3 6.8-6.9z" fill="#58595B"/>
					<path d="m1110.5 634.3c0 3.8-3.1 6.9-6.9 6.9-3.8-0.1-6.8-3.1-6.8-6.9s3.1-6.9 6.9-6.8c3.9 0 6.8 3 6.8 6.8zm-6.8 4.8c2.5 0 4.8-2.2 4.8-4.7s-2.2-4.8-4.8-4.9c-2.6 0-4.8 2.1-4.8 4.8 0.1 2.7 2.1 4.8 4.8 4.8z" fill="#fff"/>
					<path d="m1103.7 639.1c-2.7 0-4.8-2-4.7-4.8 0-2.7 2.2-4.8 4.8-4.8 2.5 0 4.8 2.3 4.8 4.9-0.1 2.5-2.4 4.7-4.9 4.7z" fill="#58595B"/>
				<path d="m1222.3 613.4c-1-0.1-1.8-0.1-2.7-0.2-0.2-1.4-0.1-2.7-0.6-3.9-1.2-2.8-2.6-5.4-3.9-8.2-3.4-7.1-6.8-14.2-10.3-21.3-0.3-0.5-0.9-1.2-1.4-1.2-3.1-0.1-6.2-0.1-9.4-0.2h-46.4c-0.6 0-1.1 0-1.8-0.1v-4.5c0-2.7-1.4-4-4.3-4-2.8 0-4.2 1.3-4.3 4v4.5c-0.7 0-1.3 0.1-1.8 0.1h-10.2c-0.5 0-1.1 0-1.5 0.3-1.3 1.1-2.4 2.3-3.7 3.4l-13.8 20.7c-3.7 0.4-7.5 0.8-11.2 1.2-3.9 0.4-7.8 0.8-11.5 1.8-4.4 1.1-8.2 3.5-10.4 7.6-3.7 7.1-3.4 14.5-0.8 21.9 0.2 0.6 1.4 1.1 2.1 1.1 2.6 0.1 5.2 0 7.8 0h4.9c-0.2-11.1 7.7-17.1 15.1-17.8 3.9-0.4 7.6 0.6 10.8 2.9 5 3.6 7.4 8.7 7.1 14.8h51.4c0.1-11.3 8-17.1 15.3-17.7 3.9-0.3 7.5 0.6 10.6 2.8 5.1 3.6 7.4 8.6 7.1 15.3 3-0.7 5.8-1.1 8.4-2 1.3-0.4 2.7-1.6 3.4-2.8 1.9-3.3 3.8-6.6 3.1-10.7 0.9-0.1 1.8-0.2 2.7-0.2 0.2-2.4 0.2-5 0.2-7.6zm-81.3-41.8c-0.1 2.2-0.3 4.4-0.4 6.7h-1.7c-0.8-3.7 0.1-6.2 2.1-6.7zm-33.3 31.2l13.9-20.1h6.1c-0.2 0.5-0.2 0.7-0.3 0.9-2.9 5.8-5.9 11.7-8.8 17.5-0.2 0.4-0.8 0.7-1.2 0.8-3.2 0.2-6.4 0.6-9.7 0.9zm69.9-1.1c-2.1 0.2-4.2 0.1-6.2 0.1h-18.6-23c-0.7 0-1.4 0-2-0.1-1.9-0.4-2.8-1.8-2-3.6 1.5-3.7 2.9-7.4 4.7-11 1.3-2.6 3.5-4.2 6.6-4.2h32.5c3.2 0 5.4 1.8 6.6 4.6 1.4 3.4 2.7 6.8 4 10.3 0.7 1.9-0.4 3.7-2.6 3.9zm28.6 0c-2.6 0.1-5.2 0-7.8 0h-6.9c-3.5 0-6-1.5-7.3-4.8-1.3-3.4-2.7-6.7-4.1-10.1-0.9-2.2 0.3-4.1 2.7-4.1 4.9-0.1 9.9-0.1 14.8 0 2.2 0.1 4.2 1.4 5.2 3.3 2.2 4 4.2 8.1 6.1 12.3 0.9 1.8-0.5 3.4-2.7 3.4z" fill="#75D4CE"/>
				<path d="m1122.6 630.7h47.5c1.2-4.9 4.5-9 8.8-11.3v-13.1h-65.5v12.9c4.6 2.3 8 6.5 9.2 11.5z" fill="#fff"/>
				<text font-size="15.634" font-family="&apos;MyriadPro-Regular&apos;" transform="translate(659.52 328.59)">POLICE</text>
		<g stroke="#231F20" stroke-miterlimit="10">
			<g fill="#75D4CE">
				<path d="m616.3 577.7v-10.2c0-6.7-5.4-12.1-12.1-12.1h-33.5c-6.7 0-12.1 5.4-12.1 12.1v10.2h57.7z"/>
				<path d="m582.4 533.5s-6 5.6-10.1 7.3c0.4 10.3 7 18.5 15.1 18.5 8.4 0 15.2-8.8 15.2-19.6v-1.1c-7.6 0.4-20.8 0.2-20.2-5.1z"/>
				<path d="m602.5 538.7c-0.4-10.3-7-18.5-15.1-18.5-8.4 0-15.2 8.8-15.2 19.6v1.1c4.1-1.8 10.1-7.3 10.1-7.3-0.5 5.2 12.7 5.4 20.2 5.1z"/>
			</g>
			<g fill="#FFC900">
				<rect height="16.1" width="96.9" y="576.5" x="538.9"/>
				<circle cx="546.1" cy="571.8" r="7.1"/>
				<circle cx="628.7" cy="571.8" r="7.1"/>
				<rect height="45.7" width="6.1" y="592.6" x="538.9"/>
				<rect height="45.7" width="6.1" y="592.6" x="584.4"/>
				<rect height="45.7" width="6.1" y="592.6" x="629.8"/>
				<rect height="45.7" width="6.1" y="592.6" x="605.7"/>
				<rect height="45.7" width="6.1" y="592.6" x="561"/>
			</g>
		</g>
		<g stroke="#231F20" stroke-miterlimit="10" fill="#75D4CE">
			<path d="m1025.3 632.1v-11.5c0-7.5-6.1-13.7-13.7-13.7h-37.7c-7.5 0-13.7 6.1-13.7 13.7v11.5h65.1z"/>
			<path d="m987.2 582.4s-6.7 6.3-11.4 8.3c0.5 11.6 7.9 20.8 17 20.8 9.4 0 17.1-9.9 17.1-22v-1.2c-8.6 0.3-23.4 0-22.7-5.9z"/>
			<path d="m1009.8 588.2c-0.5-11.6-7.9-20.8-17-20.8-9.4 0-17.1 9.9-17.1 22v1.2c4.7-2 11.4-8.3 11.4-8.3-0.6 6 14.2 6.3 22.7 5.9z"/>
		</g>
		<g stroke="#231F20" stroke-miterlimit="10">
			<path d="m907.6 486.3h-5.8c-2.2 0-4-1.8-4-4v-0.2c0-2.2 1.8-4 4-4h5.8c2.2 0 4 1.8 4 4v0.2c0 2.2-1.8 4-4 4z" fill="#FFC900"/>
			<rect height="91.8" width="68.5" y="488.9" x="870.4" fill="#75D4CE"/>
			<rect height="13.4" width="22.6" y="482.2" x="893.4" fill="#FFC900"/>
			<line y2="503.9" x2="933.3" y1="503.9" x1="876.1" fill="#FFC900"/>
			<line y2="511.2" x2="933.3" y1="511.2" x1="876.1" fill="#FFC900"/>
			<line y2="518.6" x2="933.3" y1="518.6" x1="876.1" fill="#FFC900"/>
			<line y2="525.9" x2="933.3" y1="525.9" x1="876.1" fill="#FFC900"/>
			<line y2="533.3" x2="933.3" y1="533.3" x1="876.1" fill="#FFC900"/>
			<line y2="540.6" x2="933.3" y1="540.6" x1="876.1" fill="#FFC900"/>
			<line y2="548" x2="933.3" y1="548" x1="876.1" fill="#FFC900"/>
			<line y2="555.3" x2="933.3" y1="555.3" x1="876.1" fill="#FFC900"/>
			<line y2="562.7" x2="933.3" y1="562.7" x1="876.1" fill="#FFC900"/>
			<line y2="570" x2="933.3" y1="570" x1="876.1" fill="#FFC900"/>
		</g>
			<path d="m423.9 547.1h-3.1c-0.6 7.7-6.8 13.2-13.8 13.3-3.8 0.1-7.2-1.2-10-3.7-2.8-2.6-4.3-5.8-4.6-9.7h-4.4c-1.5 0-2.2-0.8-1.8-2.3 2.1-8.8 4.2-17.6 6.2-26.4 0.8-3.4 2.7-5.6 6.1-6.4 0.9-0.2 1.9-0.2 2.8-0.1s1.4 0.8 1.3 1.7c-0.1 0.8-0.8 1.4-1.6 1.4s-1.5 0-2.3 0.2c-1.7 0.5-2.8 1.7-3.2 3.4-2 8.3-3.9 16.5-5.8 24.8 0 0.2-0.1 0.3-0.1 0.5h2.9c0.8-3.8 2.6-6.9 5.8-9.1 2.5-1.8 5.4-2.7 8.5-2.6 6.2 0.1 12.4 4.5 13.7 11.8h3.5c0.8-4.1 2.9-7.3 6.4-9.6 2.7-1.7 5.6-2.4 8.8-2.2 6 0.5 11.4 4.8 12.8 11.8h1.4 1.5c-0.4-1.9-0.9-3.6-1.3-5.4-1.5-6.6-3.1-13.1-4.6-19.7-0.6-2.5-2.6-4-5.1-3.8h-0.8c-0.7-0.2-1.2-0.8-1.2-1.6s0.5-1.3 1.4-1.5c3.9-0.7 7.9 2 8.8 6 2.1 8.9 4.2 17.9 6.3 26.8 0.4 1.6-0.2 2.3-1.9 2.3h-4.3c-0.5 4.9-2.7 8.8-6.9 11.4-2.8 1.7-5.9 2.3-9.2 1.9-6-0.9-11.6-5.8-12.2-13.2zm-17.4 10.2c6 0.1 11-4.8 11.1-10.8 0.1-6.1-4.8-11.2-10.8-11.2-6.2-0.1-11.1 4.8-11.2 11 0 5.9 4.9 10.9 10.9 11zm31.6 0c6 0 11-4.8 11-10.8 0.1-6.2-4.8-11.2-10.9-11.3s-11.1 4.9-11.2 10.9c0.1 6.2 4.9 11.1 11.1 11.2z" fill="#58595B"/>
			<path d="m406.5 557.3c-6.1-0.1-11-5-10.9-11 0.1-6.2 5-11.1 11.2-11 6 0.1 10.9 5.1 10.8 11.2 0 5.9-5 10.8-11.1 10.8z" fill="#fff"/>
			<path d="m438.1 557.3c-6.2 0-11-5-11-11.1s5.1-11 11.2-10.9 10.9 5.1 10.9 11.3c-0.2 5.8-5.1 10.7-11.1 10.7z" fill="#fff"/>
		<g stroke="#231F20" stroke-miterlimit="10">
			<path d="m704.6 602.1c2.1-6.8 4.3-13.5 6.4-20.3 0.4-1.1 0.7-2.2 1.1-3.5 2.7 0.9 5.2 1.7 7.7 2.5-1.9 7.9-3.7 15.7-5.6 23.6-3-0.5-6.4-1-9.7-1.5 0.1-0.2 0.1-0.5 0.1-0.8z" fill="#FFC900"/>
			<path d="m736 616.4c0.2-4.4-0.6-5.3-5.7-5-1.8-3.8-4.5-4.4-6.9-1.4-2.2-1.6-4.4-3.2-6.5-4.9-0.4-0.3-0.8-1.1-0.7-1.6 1.5-6.9 3.1-13.7 4.6-20.6 0.1-0.3 0.3-0.5 0.5-0.8 2 0.4 4.1 0.7 6.5 1.2-1.2 1.2-2.3 2.4-3.5 3.5-0.8 0.8-1.9 1.7-1 2.8 0.7 0.9 2.1 1.9 3 1.8 2.1-0.3 4-1.3 6-2 1.1-0.7 3.7-2 3.9-2.1 4.6-2.8 8.5-1.5 12.5 1.6 5.3 4 11 7.4 16.5 11.2 1.8 1.2 3.3 2.9 4.6 4.6 0.7 0.9 1.3 2.3 1.1 3.3-0.3 1.5-1.1 3.1-2.2 4-0.7 0.6-2.6 0.1-3.7-0.4-2-1.1-3.9-2.5-6-3.6 0.9 1.2 1.9 2.3 2.6 3.5 1.6 2.7 0.3 6.3-2.5 6.8-1.1 0.2-2.5-0.2-3.4-0.8-1.5-1-2.8-2.4-4.5-3.3 0.9 1 1.9 2 2.8 3 0.9 1.1 2.7 2 1.3 3.9-1 1.3-3.8 1.4-5.4 0.2-1.5-1.1-3-2.3-4.5-3.5-0.5-0.4-1.2-0.7-1.9-0.7 1.9 1.5 3.7 3.1 5.6 4.6-1.2 2.1-3.5 2.7-5.4 1.4-1.7-1-6.4-5.2-7.7-6.7z" fill="#FFC900"/>
			<path d="m735.3 587.1l-3.3 2.1c-1.1 0.3-2.3 0.7-3.4 0.9-1 0.2-2.1 0.3-3.1 0.1-2-0.4-2.4-1.8-0.9-3.2 2.5-2.4 5.2-4.8 7.8-7.1 0.5-0.4 1.1-0.7 1.6-0.9 11-4.2 11-4.2 22.4-2 2.6 0.5 5.1 1 7.7 1.4 1.3 0.2 2.7 0.2 3.9-0.3 1.3-0.4 2.2-0.1 3 0.7 0.5 0.5 1 1 1.4 1.6 3.8 5.3 6.1 11.3 8.3 17-3.3 2.6-6.3 5-9.4 7.5-2.1-3.3-5-5.8-8.4-8-5.9-3.8-11.8-7.8-17.6-11.8-1.4-1-2.7-1.4-4.3-0.8-1.8 1-3.7 1.9-5.7 2.8z" fill="#75D4CE"/>
			<path d="m789.6 596.8c-2.8 0.8-4.9 1.5-7.1 2.2-3.3-7.7-4.9-16.3-12.2-22 2.2-1 4.2-2 6.3-2.8 0.4-0.2 1.4 0.3 1.7 0.7 1.2 1.5 2.4 3 3.2 4.7 2.8 5.5 5.3 11.2 8.1 17.2z" fill="#75D4CE"/>
			<path d="m729.7 613.5c0.8-1.7 2.1-1.7 3.5-1.1 1.6 0.7 2.2 1.9 1.8 3.6-0.2 0.7-0.6 1.4-0.9 2.1-0.6 1.7-1.7 2.7-3.5 2.2-1.6-0.5-2.5-1.8-2.3-3.6 0.1-0.5 1.1-2.6 1.4-3.2z" fill="#75D4CE"/>
			<path d="m728.5 615.1c-0.2 0.1-0.3 0.3-0.4 0.4-1.2 2-2.6 2.6-4 1.8-1.6-0.9-2.3-3-1.3-4.7 0.8-1.3 1-3.6 3.5-3.1 2.2 0.4 3.2 2.2 2.5 4.4-0.2 0.3-0.2 0.8-0.3 1.2-0.1 0 0 0 0 0z" fill="#75D4CE"/>
			<path d="m741.9 622.9c-2.7 1.8-4.8 1.7-7.1-0.5-1-0.9-1.4-1.8-0.5-2.9s2.1-1.5 3.4-0.8c0.5 0.3 3.2 3.1 4.2 4.2z" fill="#75D4CE"/>
			<path d="m722.9 610.8c-1.1 2.1-2.5 2.7-4.2 2-2-0.8-2.4-2.4-1.2-6.1 1.8 1.4 3.5 2.7 5.4 4.1z" fill="#75D4CE"/>
		</g>
		<g stroke-miterlimit="10" stroke="#414042" stroke-width="2" stroke-linecap="round" fill="none">
				<line y2="560.8" x1="162.3" x2="185.2" y1="560.8"/>
				<line y2="572.3" x1="173.7" x2="173.7" y1="549.4"/>
		</g>
		<g stroke-miterlimit="10" stroke="#414042" stroke-width="2" stroke-linecap="round" fill="none">
				<line y2="595" x1="662" x2="678.2" y1="578.8"/>
				<line y2="595" x1="678.2" x2="662" y1="578.8"/>
		</g>
		<g stroke-miterlimit="10" stroke="#414042" stroke-width="2" stroke-linecap="round" fill="none">
				<line y2="599.5" x1="463.3" x2="486.4" y1="599.5"/>
				<line y2="599.5" x1="492.1" x2="501.3" y1="599.5"/>
		</g>
		<g stroke-miterlimit="10" stroke="#414042" stroke-width="2" stroke-linecap="round" fill="none">
				<line y2="626" x1="772.7" x2="795.8" y1="626"/>
				<line y2="626" x1="801.6" x2="810.7" y1="626"/>
		</g>
		<g stroke-miterlimit="10" stroke="#414042" stroke-width="2" stroke-linecap="round" fill="none">
				<line y2="617.9" x1="184.3" x2="207.4" y1="617.9"/>
				<line y2="617.9" x1="213.2" x2="222.3" y1="617.9"/>
		</g>
			<circle r="8.5" stroke-linecap="round" cy="609" stroke="#414042" cx="854.2" stroke-miterlimit="10" stroke-width="2" fill="none"/>
			<path d="m224.6 494.5c2 3.6 4.8 6.4 7.6 9.5 0.4-1.6 0.8-3 1.1-4.4 0.1-0.2-0.2-0.5-0.3-0.8-0.3-0.8-0.6-1.5-0.9-2.4h5.2c-0.4 0.9-0.7 1.7-0.9 2.4-0.1 0.3-0.3 0.7-0.2 1 0.3 1.3 0.7 2.7 1.1 4.2 2.8-3.1 5.6-6 7.6-9.6 2.5 0.3 5 0.5 7.5 1 3.2 0.6 5.4 2.8 6.9 5.6 0.8 1.5 1.4 3.1 2 4.6 0.2 0.6 0.5 0.8 1.1 0.8 1.7 0 3.4 0.1 5 0 2.1-0.1 4.1 1.8 3.5 4.5-2.3 10.5-4.5 20.9-6.7 31.4 0 0.2-0.1 0.3-0.1 0.5-0.3 2.2-1.5 3.3-3.7 3.3h-22.7-27.4-1.5c-1.6-0.1-2.8-1.2-3.2-2.8-1.7-8-3.3-15.9-5-23.9-0.6-3-1.3-5.9-1.9-8.9-0.5-2.2 1-4.1 3.3-4.1 1.6 0 3.3-0.1 4.9 0 0.8 0 1.2-0.2 1.5-1 0.6-1.6 1.2-3.2 2.1-4.7 1.9-3.4 4.8-5.4 8.7-5.7 1.7-0.2 3.5-0.4 5.4-0.5zm10 12.4h-31.6c-0.6 0-1.2 0-1.7 0.1-1.8 0.4-2.9 2.1-2.5 3.9 0.9 4.3 1.9 8.5 2.8 12.8 1.3 6.1 2.7 12.2 4 18.3 0.5 2.6 1.6 3.5 4.2 3.5h49.5c2.7 0 3.8-0.9 4.3-3.5 0.1-0.3 0.1-0.6 0.2-0.9 2.2-10.1 4.4-20.1 6.6-30.2 0.1-0.4 0.1-0.9 0-1.3-0.4-1.8-1.7-2.7-3.8-2.7h-32z"/>
			<path d="m247.9 473.2c0.3 0.7 0.5 1.5 0.8 2.2 0.9 1.9 0 6.1-1.5 7.5-0.3 0.3-0.5 0.6-0.7 1-1.3 3-2.9 5.7-5.3 7.8-4.5 4-9.4 3.9-13.8-0.2-2.2-2.1-3.8-4.7-5-7.5-0.2-0.4-0.5-0.8-0.9-1.1-1.2-1.2-1.6-2.8-1.8-4.4-0.1-1.4-0.3-2.8 1-3.8 0.2-0.2 0.1-0.6 0.2-0.9 0.2-1.6 0.4-3.1 0.7-4.7 1.1-4.9 5.1-8.3 10.4-9 2.4-0.3 4.8-0.3 7.2 0.4 5 1.3 8.1 4.9 8.8 10 0.1 0.9 0.2 1.7 0.2 2.6-0.1 0.1-0.2 0.1-0.3 0.1zm-4.9-0.3c-0.8-0.4-1.3-0.7-1.9-0.9-1.2-0.5-2.5-0.7-3.7-0.4-2.4 0.7-4.7 0.6-7.1-0.1-3.3-1-5.6 0.8-6.5 3.6-0.2 0.6-0.1 1.5-1.1 1.6-0.1 0-0.3 0.4-0.3 0.6-0.2 1.3-0.2 2.7 0.4 3.9 0.2 0.3 0.5 0.8 0.8 0.9 0.8 0.1 0.8 0.6 1.1 1.1 1.1 2.7 2.6 5.1 4.8 7 3.2 2.7 6.9 2.7 10.1 0 2.1-1.7 3.5-3.9 4.6-6.3 0.3-0.7 0.4-1.7 1.5-1.9 0.2 0 0.3-0.3 0.4-0.5 0.7-1.2 0.9-2.5 0.7-3.8-0.1-0.4-0.4-1-0.6-1.1-0.8 0-0.8-0.6-1-1-0.4-1-0.9-2.1-1.4-3.1-0.2-0.4-0.6-0.7-0.9-1-0.1 0-0.1 0.1-0.2 0.1 0 0.4 0.1 0.8 0.3 1.3z"/>
			<path d="m234.6 546.9h28.1 0.7c1 0 1.6 0.6 1.6 1.4 0 0.9-0.6 1.5-1.6 1.5h-13.5-43.4-0.8c-1-0.1-1.6-0.7-1.6-1.5s0.6-1.4 1.6-1.4h11.3 17.6z"/>
			<path stroke="#231F20" stroke-miterlimit="10" d="m234.6 506.9h32c2.1 0 3.5 0.9 3.8 2.7 0.1 0.4 0.1 0.9 0 1.3-2.2 10.1-4.4 20.1-6.6 30.2-0.1 0.3-0.1 0.6-0.2 0.9-0.5 2.6-1.6 3.5-4.3 3.5h-49.5c-2.6 0-3.6-0.9-4.2-3.5-1.3-6.1-2.7-12.2-4-18.3-0.9-4.3-1.9-8.5-2.8-12.8-0.4-1.8 0.7-3.5 2.5-3.9 0.6-0.1 1.1-0.1 1.7-0.1h31.6zm1.8 19.6c0-1-0.8-1.9-1.8-1.9s-1.8 0.8-1.8 1.9c0 1 0.8 1.8 1.8 1.8 1 0.1 1.8-0.8 1.8-1.8z" fill="#75D4CE"/>
			<path stroke="#231F20" stroke-miterlimit="10" d="m243 472.9c-0.2-0.6-0.3-0.9-0.4-1.3 0.1 0 0.1-0.1 0.2-0.1 0.3 0.3 0.7 0.6 0.9 1 0.5 1 1 2.1 1.4 3.1 0.2 0.5 0.2 1 1 1 0.2 0 0.5 0.7 0.6 1.1 0.2 1.3 0 2.6-0.7 3.8-0.1 0.2-0.3 0.5-0.4 0.5-1.1 0.2-1.2 1.1-1.5 1.9-1.1 2.4-2.5 4.6-4.6 6.3-3.2 2.7-6.9 2.7-10.1 0-2.3-1.9-3.7-4.3-4.8-7-0.2-0.5-0.3-1-1.1-1.1-0.3 0-0.6-0.5-0.8-0.9-0.7-1.2-0.7-2.6-0.4-3.9 0-0.2 0.2-0.6 0.3-0.6 1-0.1 0.9-1 1.1-1.6 0.9-2.7 3.3-4.5 6.5-3.6 2.3 0.7 4.7 0.7 7.1 0.1 1.3-0.4 2.5-0.2 3.7 0.4 0.7 0.2 1.2 0.5 2 0.9z" fill="#75D4CE"/>
			<path d="m236.4 526.5c0 1-0.9 1.9-1.9 1.8-1 0-1.8-0.8-1.8-1.8s0.8-1.9 1.8-1.9c1.1 0 2 0.9 1.9 1.9z"/>
		<g stroke="#231F20" stroke-miterlimit="10">
			<path d="m767.1 520.2v16.9s-23.3-0.4-31.5 14.8c0 0-14.5-17.6-28.7-13.9v-18l60.2 0.2z" fill="#fff"/>
			<polygon points="691.5 516.1 737.1 502.6 784 516.1 737.7 527.4" fill="#75D4CE"/>
			<path d="m788.1 549.5l-2.5-5.7c0.8-0.4 1.3-1.2 1.3-2.1 0-1.2-0.9-2.2-2.1-2.4v-23.2h-0.7v23.2c-1.1 0.2-2 1.2-2 2.3 0 1 0.6 1.8 1.4 2.2l-2 5.7h6.6z" fill="#75D4CE"/>
		</g>
		<polyline fill="none" stroke="#2E3192" stroke-linecap="round" stroke-miterlimit="10" stroke-width="2" points="706 306.7 706 343.8 710.4 350.4 911.6 350.4 919.6 346.2 1108.5 346.2 1117.4 357.3 1117.4 511.8 1152.9 533 1152.9 577.7"/>
	<text font-size="16.682" font-family="&apos;MyriadPro-Regular&apos;" transform="translate(182.96 396.8)" fill="#FFFFFF"><tspan y="0" x="0">ERP</tspan><tspan y="20" x="-12.2">System</tspan></text>
	<text font-size="16.682" font-family="&apos;MyriadPro-Regular&apos;" transform="translate(555.25 512.13)" fill="#FFFFFF">DR Service</text>
	<text font-size="16.682" font-family="&apos;MyriadPro-Regular&apos;" transform="translate(885.24 452.8)" fill="#FFFFFF">Archive System</text>
	<circle r="4.1" cy="346.4" stroke="#2E3192" cx="937.7" stroke-miterlimit="10" stroke-width="2" fill="#fff"/>
</svg>
