<?xml version="1.0" encoding="UTF-8" standalone="no"?>
<!-- Generator: Adobe Illustrator 18.0.0, SVG Export Plug-In . SVG Version: 6.00 Build 0)  -->
<!DOCTYPE svg  PUBLIC '-//W3C//DTD SVG 1.1//EN'  'http://www.w3.org/Graphics/SVG/1.1/DTD/svg11.dtd'>
<svg id="Layer_1" xmlns="http://www.w3.org/2000/svg" xml:space="preserve" viewBox="0 0 1366 648" version="1.1" y="0px" x="0px" xmlns:xlink="http://www.w3.org/1999/xlink" enable-background="new 0 0 1366 648">
	<defs>
		<rect id="SVGID_1_" width="1366" height="648"/>
	</defs>
	<clipPath id="SVGID_2_">
		<use overflow="visible" xlink:href="#SVGID_1_"/>
	</clipPath>
	<linearGradient id="SVGID_3_" y2="11.224" gradientUnits="userSpaceOnUse" x2="683" y1="652.44" x1="683">
		<stop stop-color="#CDDC39" offset="0"/>
		<stop stop-color="#DCE775" offset="1"/>
	</linearGradient>
	<rect height="648" width="1366" fill="url(#SVGID_3_)" clip-path="url(#SVGID_2_)"/>
	<g clip-path="url(#SVGID_2_)">
						<path d="m760.3 343.4c11.3 0 20.4-9.2 20.4-20.4 0-11.3-9.2-20.4-20.4-20.4-0.7 0-1.3 0-2 0.1 2.2-3.8 3.5-8.2 3.5-12.9 0-14.2-11.5-25.7-25.7-25.7-6.4 0-12.3 2.3-16.8 6.2-4.4-24.3-25.6-42.7-51.1-42.7-28.7 0-51.9 23.2-51.9 51.9 0 2.8 0.2 5.5 0.6 8.1-1-0.1-2.1-0.2-3.2-0.2-15.4 0-28 12.5-28 28 0 14.4 10.8 26.2 24.8 27.8l149.8 0.2z" fill="#fff"/>
	</g>
	<g clip-path="url(#SVGID_2_)">
		<rect y="572.4" x="976.4" height="42.7" width="535.9" fill="#69D2E7"/>
	</g>
	<g clip-path="url(#SVGID_2_)">
		<rect height="33.4" width="1652.4" stroke="#231F20" stroke-miterlimit="10" y="615.1" x="-140.2" fill="#B3B3B3"/>
		<rect y="629.4" x="-112.4" height="4.8" width="60.4" fill="#fff"/>
		<rect y="629.4" x="32.7" height="4.8" width="60.4" fill="#fff"/>
		<rect y="629.4" x="177.7" height="4.8" width="60.4" fill="#fff"/>
		<rect y="629.4" x="322.8" height="4.8" width="60.4" fill="#fff"/>
		<rect y="629.4" x="467.9" height="4.8" width="60.4" fill="#fff"/>
		<rect y="629.4" x="613" height="4.8" width="60.4" fill="#fff"/>
		<rect y="629.4" x="758" height="4.8" width="60.4" fill="#fff"/>
		<rect y="629.4" x="903.1" height="4.8" width="60.4" fill="#fff"/>
		<rect y="629.4" x="1048.2" height="4.8" width="60.4" fill="#fff"/>
		<rect y="629.4" x="1193.3" height="4.8" width="60.4" fill="#fff"/>
		<rect y="629.4" x="1338.3" height="4.8" width="60.4" fill="#fff"/>
		<rect y="629.4" x="1483.4" height="4.8" width="28.1" fill="#fff"/>
	</g>
	<circle cx="634.9" cy="308.1" fill="#2E3192" r="5" clip-path="url(#SVGID_2_)"/>
	<g clip-path="url(#SVGID_2_)">
		<g stroke="#27AAE1" stroke-linecap="round" stroke-miterlimit="10" fill="none">
			<path d="m1167.9 577s5.3-1.8 8.4 0 10.6 2.5 12.7 0"/>
			<path d="m987.3 599.2s5.3-1.8 8.4 0 10.6 2.5 12.7 0"/>
			<path d="m989.4 587.6s5.3-1.8 8.4 0 10.6 2.5 12.7 0"/>
			<path d="m987.8 578.6s5.3-1.8 8.4 0 10.6 2.5 12.7 0"/>
			<path d="m1024.8 602.4s5.3-1.8 8.4 0 10.6 2.5 12.7 0"/>
			<path d="m1032 591.4s5.3-1.8 8.4 0 10.6 2.5 12.7 0"/>
			<path d="m1021.4 581.8s5.3-1.8 8.4 0 10.6 2.5 12.7 0"/>
			<path d="m1053.4 609.5s5.3-1.8 8.4 0 10.6 2.5 12.7 0"/>
			<path d="m1062.6 603.7s5.3-1.8 8.4 0 10.6 2.5 12.7 0"/>
			<path d="m1052.1 594.1s5.3-1.8 8.4 0 10.6 2.5 12.7 0"/>
			<path d="m987.8 610.2s5.3-1.8 8.4 0 10.6 2.5 12.7 0"/>
			<path d="m1014.2 608.2s5.3-1.8 8.4 0 10.6 2.5 12.7 0"/>
			<path d="m1003.7 594.7s5.3-1.8 8.4 0 10.6 2.5 12.7 0"/>
			<path d="m1157.3 606.2s5.3-1.8 8.4 0 10.6 2.5 12.7 0"/>
			<path d="m1166.6 600.4s5.3-1.8 8.4 0 10.6 2.5 12.7 0"/>
			<path d="m1165.1 592s5.3-1.8 8.4 0 10.6 2.5 12.7 0"/>
			<path d="m1188.6 610.2s5.3-1.8 8.4 0 10.6 2.5 12.7 0"/>
			<path d="m1203.8 606.3s5.3-1.8 8.4 0 10.6 2.5 12.7 0"/>
			<path d="m1194.5 600.4s5.3-1.8 8.4 0 10.6 2.5 12.7 0"/>
			<path d="m1200.5 592.8s5.3-1.8 8.4 0 10.6 2.5 12.7 0"/>
			<path d="m1205.1 587s5.3-1.8 8.4 0 10.6 2.5 12.7 0"/>
			<path d="m1175.7 585.1s5.3-1.8 8.4 0 10.6 2.5 12.7 0"/>
			<path d="m1128.9 603.1s5.3-1.8 8.4 0 10.6 2.5 12.7 0"/>
			<path d="m1096.9 605.6s5.3-1.8 8.4 0 10.6 2.5 12.7 0"/>
			<path d="m1048.1 580.6s5.3-1.8 8.4 0 10.6 2.5 12.7 0"/>
			<path d="m1199.1 577.4s5.3-1.8 8.4 0 10.6 2.5 12.7 0"/>
		</g>
		<path stroke="#27AAE1" stroke-linecap="round" stroke-miterlimit="10" d="m1408.2 577s5.3-1.8 8.4 0 10.6 2.5 12.7 0" fill="none"/>
		<path stroke="#27AAE1" stroke-linecap="round" stroke-miterlimit="10" d="m1227.6 599.2s5.3-1.8 8.4 0 10.6 2.5 12.7 0" fill="none"/>
		<path stroke="#27AAE1" stroke-linecap="round" stroke-miterlimit="10" d="m1229.7 587.6s5.3-1.8 8.4 0 10.6 2.5 12.7 0" fill="none"/>
		<path stroke="#27AAE1" stroke-linecap="round" stroke-miterlimit="10" d="m1228.2 578.6s5.3-1.8 8.4 0 10.6 2.5 12.7 0" fill="none"/>
		<path stroke="#27AAE1" stroke-linecap="round" stroke-miterlimit="10" d="m1265.1 602.4s5.3-1.8 8.4 0 10.6 2.5 12.7 0" fill="none"/>
		<path stroke="#27AAE1" stroke-linecap="round" stroke-miterlimit="10" d="m1272.3 591.4s5.3-1.8 8.4 0 10.6 2.5 12.7 0" fill="none"/>
		<path stroke="#27AAE1" stroke-linecap="round" stroke-miterlimit="10" d="m1261.8 581.8s5.3-1.8 8.4 0 10.6 2.5 12.7 0" fill="none"/>
		<path stroke="#27AAE1" stroke-linecap="round" stroke-miterlimit="10" d="m1293.7 609.5s5.3-1.8 8.4 0 10.6 2.5 12.7 0" fill="none"/>
		<path stroke="#27AAE1" stroke-linecap="round" stroke-miterlimit="10" d="m1303 603.7s5.3-1.8 8.4 0 10.6 2.5 12.7 0" fill="none"/>
		<path stroke="#27AAE1" stroke-linecap="round" stroke-miterlimit="10" d="m1299 594.4s5.3-1.8 8.4 0 10.6 2.5 12.7 0" fill="none"/>
		<path stroke="#27AAE1" stroke-linecap="round" stroke-miterlimit="10" d="m1228.2 610.2s5.3-1.8 8.4 0 10.6 2.5 12.7 0" fill="none"/>
		<path stroke="#27AAE1" stroke-linecap="round" stroke-miterlimit="10" d="m1254.5 608.2s5.3-1.8 8.4 0 10.6 2.5 12.7 0" fill="none"/>
		<path stroke="#27AAE1" stroke-linecap="round" stroke-miterlimit="10" d="m1244 594.7s5.3-1.8 8.4 0 10.6 2.5 12.7 0" fill="none"/>
		<path stroke="#27AAE1" stroke-linecap="round" stroke-miterlimit="10" d="m1397.7 606.2s5.3-1.8 8.4 0 10.6 2.5 12.7 0" fill="none"/>
		<path stroke="#27AAE1" stroke-linecap="round" stroke-miterlimit="10" d="m1406.9 600.4s5.3-1.8 8.4 0 10.6 2.5 12.7 0" fill="none"/>
		<path stroke="#27AAE1" stroke-linecap="round" stroke-miterlimit="10" d="m1405.5 592s5.3-1.8 8.4 0 10.6 2.5 12.7 0" fill="none"/>
		<path stroke="#27AAE1" stroke-linecap="round" stroke-miterlimit="10" d="m1428.9 610.2s5.3-1.8 8.4 0 10.6 2.5 12.7 0" fill="none"/>
		<path stroke="#27AAE1" stroke-linecap="round" stroke-miterlimit="10" d="m1444.1 606.3s5.3-1.8 8.4 0 10.6 2.5 12.7 0" fill="none"/>
		<path stroke="#27AAE1" stroke-linecap="round" stroke-miterlimit="10" d="m1434.9 600.4s5.3-1.8 8.4 0 10.6 2.5 12.7 0" fill="none"/>
		<path stroke="#27AAE1" stroke-linecap="round" stroke-miterlimit="10" d="m1440.8 592.8s5.3-1.8 8.4 0 10.6 2.5 12.7 0" fill="none"/>
		<path stroke="#27AAE1" stroke-linecap="round" stroke-miterlimit="10" d="m1445.4 587s5.3-1.8 8.4 0 10.6 2.5 12.7 0" fill="none"/>
		<path stroke="#27AAE1" stroke-linecap="round" stroke-miterlimit="10" d="m1416 585.1s5.3-1.8 8.4 0 10.6 2.5 12.7 0" fill="none"/>
		<path stroke="#27AAE1" stroke-linecap="round" stroke-miterlimit="10" d="m1369.2 603.1s5.3-1.8 8.4 0 10.6 2.5 12.7 0" fill="none"/>
		<path stroke="#27AAE1" stroke-linecap="round" stroke-miterlimit="10" d="m1337.2 605.6s5.3-1.8 8.4 0 10.6 2.5 12.7 0" fill="none"/>
		<path stroke="#27AAE1" stroke-linecap="round" stroke-miterlimit="10" d="m1293.7 580.6s5.3-1.8 8.4 0 10.6 2.5 12.7 0" fill="none"/>
		<path stroke="#27AAE1" stroke-linecap="round" stroke-miterlimit="10" d="m1439.5 577.4s5.3-1.8 8.4 0 10.6 2.5 12.7 0" fill="none"/>
		<path stroke="#27AAE1" stroke-linecap="round" stroke-miterlimit="10" d="m1475.6 577s5.3-1.8 8.4 0 10.6 2.5 12.7 0" fill="none"/>
		<path stroke="#27AAE1" stroke-linecap="round" stroke-miterlimit="10" d="m1474.2 600.4s5.3-1.8 8.4 0 10.6 2.5 12.7 0" fill="none"/>
		<path stroke="#27AAE1" stroke-linecap="round" stroke-miterlimit="10" d="m1486.9 608.9s5.3-1.8 8.4 0 10.6 2.5 12.7 0" fill="none"/>
		<path stroke="#27AAE1" stroke-linecap="round" stroke-miterlimit="10" d="m1472.8 592s5.3-1.8 8.4 0 10.6 2.5 12.7 0" fill="none"/>
		<path stroke="#27AAE1" stroke-linecap="round" stroke-miterlimit="10" d="m1483.4 585.1s5.3-1.8 8.4 0 10.6 2.5 12.7 0" fill="none"/>
		<path stroke="#27AAE1" stroke-linecap="round" stroke-miterlimit="10" d="m1330.6 577.2s5.3-1.8 8.4 0 10.6 2.5 12.7 0" fill="none"/>
		<path stroke="#27AAE1" stroke-linecap="round" stroke-miterlimit="10" d="m1327.8 592.2s5.3-1.8 8.4 0 10.6 2.5 12.7 0" fill="none"/>
		<path stroke="#27AAE1" stroke-linecap="round" stroke-miterlimit="10" d="m1363.2 593.1s5.3-1.8 8.4 0 10.6 2.5 12.7 0" fill="none"/>
		<path stroke="#27AAE1" stroke-linecap="round" stroke-miterlimit="10" d="m1379.8 587.6s5.3-1.8 8.4 0 10.6 2.5 12.7 0" fill="none"/>
		<path stroke="#27AAE1" stroke-linecap="round" stroke-miterlimit="10" d="m1338.4 585.4s5.3-1.8 8.4 0 10.6 2.5 12.7 0" fill="none"/>
		<path stroke="#27AAE1" stroke-linecap="round" stroke-miterlimit="10" d="m1373.7 578.2s5.3-1.8 8.4 0 10.6 2.5 12.7 0" fill="none"/>
			<g id="XMLID_2_">
					<polygon points="1111.6 544.1 1113.1 546.3 1094.5 554.6 1094.4 554.2 1092.8 552 1092.8 552 1111.4 543.8" fill="#fff"/>
					<path d="m1122 549.5l-1.5-1.9 14-0.8 6-2.6v5.5c-4.6 0.7-9.8 1.9-15.1 4.1-11.9 4.8-32.4 11.9-42.5 15.4l3.5-5.7 35.6-14z" fill="#fff"/>
					<polygon points="1109.9 540.1 1111.9 543.5 1111.4 543.8 1092.8 552 1090.9 552.9 1089.9 549.9 1109.3 539.2" fill="#fff"/>
					<path d="m1147.5 565.2c-5.8 0.4-13.4 1.6-21.2 4.7-8.2 3.3-20.5 7.7-30.6 11.3h-16.6l-2.2-10s2.3-0.8 6.1-2.1c10.1-3.5 30.6-10.6 42.5-15.4 5.3-2.1 10.5-3.4 15.1-4.1 9.5-1.4 16.4-0.5 16.4-0.5s-5.3 9-9.5 16.1zm-13.4-4.9c0 2.2 1.8 4 4 4s4-1.8 4-4-1.8-4-4-4c-2.2-0.1-4 1.7-4 4z" fill="#33C7C9"/>
					<polygon points="1086.4 563.4 1084.1 564.3 1085 558.9 1094.5 554.6 1113.1 546.3 1117.9 544.1 1120.5 547.6 1122 549.5" fill="#fff"/>
					<path d="m1148.2 581.2h-52.6c10.2-3.6 22.4-8 30.6-11.3 7.8-3.2 15.4-4.3 21.2-4.7-1.9 3.2-3.5 5.9-4.4 7.3-2.5 4.3 5.2 8.7 5.2 8.7z" fill="#B5B5B5"/>
					<polygon points="1111.6 544.1 1111.4 543.8 1111.9 543.5 1109.9 540.1 1126.1 540.1 1130.1 543.1 1137.3 543.1 1143.4 542.9 1140.5 544.1 1140.5 544.1 1134.6 546.8 1120.5 547.5 1120.5 547.6 1117.9 544.1 1113.1 546.3" fill="#fff"/>
				<g stroke-miterlimit="10" fill="none">
					<path stroke="#27AAE1" stroke-linecap="round" d="m1076.8 584.3s2.9-1 6-1c1.5 0 3.1 0.2 4.4 1 3.9 2.3 13.1 3.2 15.8 0"/>
					<path stroke="#27AAE1" stroke-linecap="round" d="m1108.9 587.4s6.6-2.3 10.4 0c3.9 2.3 13.1 3.2 15.8 0"/>
					<path stroke="#27AAE1" stroke-linecap="round" d="m1134.1 592.7s6.6-2.3 10.4 0c3.9 2.3 13.1 3.2 15.8 0"/>
					<path stroke="#27AAE1" stroke-linecap="round" d="m1138.9 584.3s6.6-2.3 10.4 0c3.9 2.3 13.1 3.2 15.8 0"/>
					<path stroke="#27AAE1" stroke-linecap="round" d="m1094.4 592.7s6.6-2.3 10.4 0c3.9 2.3 13.1 3.2 15.8 0"/>
					<path stroke="#27AAE1" stroke-linecap="round" d="m1057.9 587.4s6.6-2.3 10.4 0c3.9 2.3 13.1 3.2 15.8 0"/>
					<path stroke="#27AAE1" stroke-linecap="round" d="m1147.2 576.5s6.6-2.3 10.5 0 13.1 3.2 15.8 0"/>
					<path stroke="#231F20" stroke-linecap="round" d="m1147.5 565.2c4.2-7 9.5-16.1 9.5-16.1s-6.9-0.9-16.4 0.5c-4.6 0.7-9.8 1.9-15.1 4.1-11.9 4.8-32.4 11.9-42.5 15.4-3.7 1.3-6.1 2.1-6.1 2.1l2.2 10h16.6"/>
					<path stroke="#231F20" d="m1103.1 581.2h45.2s-7.8-4.4-5.1-8.7c0.8-1.4 2.5-4.1 4.4-7.3-5.8 0.4-13.4 1.6-21.2 4.7-8.2 3.3-20.5 7.7-30.6 11.3h7.3z"/>
					<polygon stroke="#231F20" stroke-linecap="round" points="1113.1 546.3 1117.9 544.1 1120.5 547.6 1122 549.5 1086.4 563.4 1084.1 564.3 1085 558.9 1094.5 554.6"/>
					<polygon stroke="#231F20" stroke-linecap="round" points="1092.8 552 1090.9 552.9 1089.9 549.9 1109.3 539.2 1109.9 540.1 1111.9 543.5 1111.4 543.8"/>
						<line y2="546.3" x2="1113.1" stroke="#231F20" stroke-linecap="round" y1="544.1" x1="1111.6"/>
						<line y2="554.2" x2="1094.4" stroke="#231F20" stroke-linecap="round" y1="552" x1="1092.8"/>
					<polyline stroke="#231F20" stroke-linecap="round" points="1140.5 544.1 1134.6 546.8 1120.5 547.5"/>
					<polyline stroke="#231F20" stroke-linecap="round" points="1109.9 540.1 1126.1 540.1 1130.1 543.1 1137.3 543.1 1143.4 542.9 1140.5 544.1"/>
					<path stroke="#231F20" stroke-linecap="round" d="m1142.1 560.3c0 2.2-1.8 4-4 4s-4-1.8-4-4 1.8-4 4-4c2.2-0.1 4 1.7 4 4z"/>
					<polyline stroke="#231F20" stroke-linecap="round" points="1086.4 563.4 1086.4 563.4 1082.9 569.1"/>
					<polyline stroke="#231F20" stroke-linecap="round" points="1140.5 544.1 1140.5 544.1 1140.5 549.6"/>
				</g>
			</g>
				<line y2="546.9" x2="1077.2" stroke="#231F20" stroke-linecap="round" stroke-miterlimit="10" y1="571.1" x1="1077.2" fill="none"/>
			<polygon points="1076.8 550.4 1070.2 553.9 1076.8 546.9" fill="#FC495F"/>
	</g>
	<circle cx="685.5" cy="308.1" fill="#2E3192" r="5" clip-path="url(#SVGID_2_)"/>
	<circle cx="711.1" cy="308.1" fill="#2E3192" r="5" clip-path="url(#SVGID_2_)"/>
	<circle cx="736.7" cy="308.1" fill="#2E3192" r="5" clip-path="url(#SVGID_2_)"/>
	<circle cx="658.5" cy="308.1" fill="#2E3192" r="5" clip-path="url(#SVGID_2_)"/>
	<g clip-path="url(#SVGID_2_)">
				<path d="m185 620c-4.7 0-8.5 3.8-8.5 8.5s3.8 8.5 8.5 8.5 8.5-3.8 8.5-8.5c0-4.7-3.8-8.5-8.5-8.5zm0 13.2c-2.6 0-4.7-2.1-4.7-4.7s2.1-4.7 4.7-4.7 4.7 2.1 4.7 4.7c0 2.6-2.1 4.7-4.7 4.7z" fill="#58595B"/>
				<circle cy="628.5" cx="185" r="3.3" fill="#6D6E71"/>
				<path d="m291.7 620c-4.7 0-8.5 3.8-8.5 8.5s3.8 8.5 8.5 8.5 8.5-3.8 8.5-8.5-3.8-8.5-8.5-8.5zm0 13.2c-2.6 0-4.7-2.1-4.7-4.7s2.1-4.7 4.7-4.7 4.7 2.1 4.7 4.7-2.1 4.7-4.7 4.7z" fill="#58595B"/>
				<circle cy="628.5" cx="291.7" r="3.3" fill="#6D6E71"/>
			<rect height="45.3" width="111.7" stroke="#231F20" stroke-miterlimit="10" y="569" x="202.2" fill="#fff"/>
			<path d="m183 587.7l-14.9 17.5v23.6h8v-0.2c0-4.7 3.8-8.5 8.5-8.5s8.5 3.8 8.5 8.5v0.2h8.8v-41.1h-18.9z" fill="#FC495F"/>
			<rect y="616.8" x="202.2" height="2.1" width="111.7" fill="#8E8A8A"/>
			<path stroke="#231F20" stroke-miterlimit="10" d="m202.2 614.5v14.2h81v-0.2c0-4.7 3.8-8.5 8.5-8.5s8.5 3.8 8.5 8.5v0.2h13.7v-14.2h-111.7z" fill="#FFC900"/>
			<line y2="577.5" x2="296.8" stroke="#231F20" stroke-miterlimit="10" y1="577.5" x1="256.4" fill="#B5B5B5"/>
			<line y2="577.5" x2="305.1" stroke="#231F20" stroke-miterlimit="10" y1="577.5" x1="298.6" fill="#B5B5B5"/>
			<polygon stroke="#58595B" stroke-width=".25" stroke-miterlimit="10" points="174.1 614.5 187.5 614.5 187.5 606.9 198.9 598.1 198.9 591.7 185 591.7 174.1 602.6" fill="#33C7C9"/>
			<rect height="1" width="7.3" stroke="#58595B" stroke-miterlimit="10" y="610.7" x="191.6" stroke-width=".25" fill="#33C7C9"/>
				<rect height="2.2" width="5.5" stroke="#58595B" stroke-miterlimit="10" y="624.8" x="169.3" stroke-width=".25" fill="#33C7C9"/>
		<path d="m259.4 607.5h-0.3c-1.1-1.7-2.1-3.4-3.2-5.1-1.5-2.5-3.1-5-3.9-7.9-0.4-1.3-0.6-2.7-0.2-4 0.7-2.6 2.5-4.3 5-5.2 0.6-0.2 6.6-1.6 9.1 3.5 1.1 2.2 1.2 4.4 0.3 6.5-1 2.3-2.2 4.5-3.4 6.6-1.1 2-2.3 3.8-3.4 5.6zm-2.9-15c-0.1 1.3 1.3 2.8 2.7 2.8 1.5 0 2.6-0.9 2.9-2.7 0.1-1.1-1.2-2.6-2.4-2.7-2-0.2-3 1.1-3.2 2.6z" fill="#FC495F"/>
	</g>
		<line y2="614.7" clip-path="url(#SVGID_2_)" x2="981.4" stroke="#231F20" stroke-linecap="round" stroke-miterlimit="10" y1="614.7" x1="420.6" fill="#fff"/>
	<g stroke-miterlimit="10" clip-path="url(#SVGID_2_)">
		<g stroke="#231F20" fill="#fff">
			<polygon points="520.6 472.9 533.6 472.9 533.6 418.1 544.5 418.1 544.5 398.9 547.8 395.6 547.8 389.7 555.8 389.7 555.8 396 560.4 396 560.4 419.8 573.3 419.8 573.3 470.4 586.7 470.4 586.7 614.7 520.6 614.7 520.6 488 532.4 488 532.4 475.9 520.6 475.9"/>
			<line y2="364.8" x2="551.2" y1="389.7" x1="551.2"/>
		</g>
		<line y2="598" x2="579.4" stroke="#414042" stroke-linecap="round" y1="598" x1="527.5" fill="none"/>
		<line y2="584" x2="579.4" stroke="#414042" stroke-linecap="round" y1="584" x1="527.5" fill="none"/>
		<line y2="570" x2="579.4" stroke="#414042" stroke-linecap="round" y1="570" x1="527.5" fill="none"/>
		<line y2="555.9" x2="579.4" stroke="#414042" stroke-linecap="round" y1="555.9" x1="527.5" fill="none"/>
		<line y2="541.9" x2="579.4" stroke="#414042" stroke-linecap="round" y1="541.9" x1="527.5" fill="none"/>
		<line y2="527.9" x2="579.4" stroke="#414042" stroke-linecap="round" y1="527.9" x1="527.5" fill="none"/>
		<line y2="513.9" x2="579.4" stroke="#414042" stroke-linecap="round" y1="513.9" x1="527.5" fill="none"/>
		<line y2="499.9" x2="579.4" stroke="#414042" stroke-linecap="round" y1="499.9" x1="527.5" fill="none"/>
		<line y2="485.9" x2="579.4" stroke="#414042" stroke-linecap="round" y1="485.9" x1="537.8" fill="none"/>
		<line y2="457.9" x2="569.2" stroke="#414042" stroke-linecap="round" y1="457.9" x1="537.8" fill="none"/>
		<line y2="443.9" x2="569.2" stroke="#414042" stroke-linecap="round" y1="443.9" x1="537.8" fill="none"/>
		<line y2="429.9" x2="569.2" stroke="#414042" stroke-linecap="round" y1="429.9" x1="537.8" fill="none"/>
	</g>
	<g stroke-miterlimit="10" clip-path="url(#SVGID_2_)">
		<g stroke="#231F20" fill="#fff">
			<polygon points="335.7 472.9 348.6 472.9 348.6 418.1 359.5 418.1 359.5 398.9 362.9 395.6 362.9 389.7 370.8 389.7 370.8 396 375.4 396 375.4 419.8 388.4 419.8 388.4 470.4 401.7 470.4 401.7 614.7 335.7 614.7 335.7 488 347.4 488 347.4 475.9 335.7 475.9"/>
			<line y2="364.8" x2="366.2" y1="389.7" x1="366.2"/>
		</g>
		<line y2="598" x2="394.4" stroke="#414042" stroke-linecap="round" y1="598" x1="342.6" fill="none"/>
		<line y2="584" x2="394.4" stroke="#414042" stroke-linecap="round" y1="584" x1="342.6" fill="none"/>
		<line y2="570" x2="394.4" stroke="#414042" stroke-linecap="round" y1="570" x1="342.6" fill="none"/>
		<line y2="555.9" x2="394.4" stroke="#414042" stroke-linecap="round" y1="555.9" x1="342.6" fill="none"/>
		<line y2="541.9" x2="394.4" stroke="#414042" stroke-linecap="round" y1="541.9" x1="342.6" fill="none"/>
		<line y2="527.9" x2="394.4" stroke="#414042" stroke-linecap="round" y1="527.9" x1="342.6" fill="none"/>
		<line y2="513.9" x2="394.4" stroke="#414042" stroke-linecap="round" y1="513.9" x1="342.6" fill="none"/>
		<line y2="499.9" x2="394.4" stroke="#414042" stroke-linecap="round" y1="499.9" x1="342.6" fill="none"/>
		<line y2="485.9" x2="394.4" stroke="#414042" stroke-linecap="round" y1="485.9" x1="352.8" fill="none"/>
		<line y2="457.9" x2="384.2" stroke="#414042" stroke-linecap="round" y1="457.9" x1="352.8" fill="none"/>
		<line y2="443.9" x2="384.2" stroke="#414042" stroke-linecap="round" y1="443.9" x1="352.8" fill="none"/>
		<line y2="429.9" x2="384.2" stroke="#414042" stroke-linecap="round" y1="429.9" x1="352.8" fill="none"/>
	</g>
	<g clip-path="url(#SVGID_2_)">
		<g stroke="#231F20" stroke-miterlimit="10" fill="#fff">
			<polygon points="702.5 614.7 702.5 467.9 708.4 467.9 708.4 460 717.1 460 717.1 449.9 722.2 449.9 722.2 460 730.1 460 730.1 467.9 767.8 467.9 767.8 614.7"/>
			<line y2="425" x2="719.4" y1="449.9" x1="719.4"/>
		</g>
			<g fill="#414042">
				<path d="m714.4 481.5s0.8 0 1.9-0.1c1.1 0 2.6-0.1 4.1-0.2 1.5 0 3-0.1 4.1-0.1h1.9c0.2 0 0.4 0.2 0.4 0.4s-0.2 0.4-0.4 0.4h-1.9c-1.1 0-2.6-0.1-4.1-0.1s-3-0.1-4.1-0.2-1.9-0.1-1.9-0.1z"/>
				<circle cy="481.5" cx="726.4" r=".4"/>
				<circle cy="481.5" cx="726.4" r=".4"/>
				<path d="m726.4 481.1s3-0.1 6-0.1h6c0.3 0 0.5 0.2 0.5 0.5s-0.2 0.5-0.5 0.5h-6c-3 0-6-0.1-6-0.1-0.2 0-0.4-0.2-0.4-0.4s0.2-0.4 0.4-0.4z"/>
				<circle cy="481.5" cx="738.4"/>
				<circle cy="481.5" cx="738.4"/>
				<path d="m738.4 481s3 0 6 0.1c1.5 0 3 0.1 4.1 0.1s1.9 0.1 1.9 0.1c0.1 0 0.2 0.1 0.2 0.2s-0.1 0.2-0.2 0.2c0 0-0.8 0-1.9 0.1-1.1 0-2.6 0.1-4.1 0.1-3 0.1-6 0.1-6 0.1-0.3 0-0.5-0.2-0.5-0.5s0.3-0.5 0.5-0.5z"/>
				<circle cy="481.5" cx="750.4" r=".2"/>
				<circle cy="481.5" cx="750.4" r=".2"/>
				<path d="m750.4 481.3s0.9 0 1.9 0.1c0.9 0.1 1.9 0.1 1.9 0.1s-0.9 0.1-1.9 0.1c-0.9 0-1.9 0.1-1.9 0.1-0.1 0-0.2-0.1-0.2-0.2s0.1-0.2 0.2-0.2z"/>
			</g>
			<g fill="#414042">
				<path d="m714.4 494.7s0.8 0 1.9-0.1c1.1 0 2.6-0.1 4.1-0.2 1.5 0 3-0.1 4.1-0.1h1.9c0.2 0 0.4 0.2 0.4 0.4s-0.2 0.4-0.4 0.4h-1.9c-1.1 0-2.6-0.1-4.1-0.1s-3-0.1-4.1-0.2-1.9-0.1-1.9-0.1z"/>
				<circle cy="494.7" cx="726.4" r=".4"/>
				<circle cy="494.7" cx="726.4" r=".4"/>
				<path d="m726.4 494.2s3-0.1 6-0.1h6c0.3 0 0.5 0.2 0.5 0.5s-0.2 0.5-0.5 0.5h-6c-3 0-6-0.1-6-0.1-0.2 0-0.4-0.2-0.4-0.4s0.2-0.3 0.4-0.4z"/>
				<circle cy="494.7" cx="738.4"/>
				<circle cy="494.7" cx="738.4"/>
				<path d="m738.4 494.2s3 0 6 0.1c1.5 0 3 0.1 4.1 0.1s1.9 0.1 1.9 0.1c0.1 0 0.2 0.1 0.2 0.2s-0.1 0.2-0.2 0.2c0 0-0.8 0-1.9 0.1-1.1 0-2.6 0.1-4.1 0.1-3 0.1-6 0.1-6 0.1-0.3 0-0.5-0.2-0.5-0.5s0.3-0.5 0.5-0.5z"/>
				<circle cy="494.7" cx="750.4" r=".2"/>
				<circle cy="494.7" cx="750.4" r=".2"/>
				<path d="m750.4 494.5s0.9 0 1.9 0.1c0.9 0.1 1.9 0.1 1.9 0.1s-0.9 0.1-1.9 0.1c-0.9 0-1.9 0.1-1.9 0.1-0.1 0-0.2-0.1-0.2-0.2s0.1-0.2 0.2-0.2z"/>
			</g>
			<g fill="#414042">
				<path d="m714.4 507.9s0.8 0 1.9-0.1c1.1 0 2.6-0.1 4.1-0.2 1.5 0 3-0.1 4.1-0.1h1.9c0.2 0 0.4 0.2 0.4 0.4s-0.2 0.4-0.4 0.4h-1.9c-1.1 0-2.6-0.1-4.1-0.1s-3-0.1-4.1-0.2-1.9-0.1-1.9-0.1z"/>
				<circle cy="507.9" cx="726.4" r=".4"/>
				<circle cy="507.9" cx="726.4" r=".4"/>
				<path d="m726.4 507.4s3-0.1 6-0.1h6c0.3 0 0.5 0.2 0.5 0.5s-0.2 0.5-0.5 0.5h-6c-3 0-6-0.1-6-0.1-0.2 0-0.4-0.2-0.4-0.4s0.2-0.4 0.4-0.4z"/>
				<circle cy="507.9" cx="738.4"/>
				<circle cy="507.9" cx="738.4"/>
				<path d="m738.4 507.4s3 0 6 0.1c1.5 0 3 0.1 4.1 0.1s1.9 0.1 1.9 0.1c0.1 0 0.2 0.1 0.2 0.2s-0.1 0.2-0.2 0.2c0 0-0.8 0-1.9 0.1-1.1 0-2.6 0.1-4.1 0.1-3 0.1-6 0.1-6 0.1-0.3 0-0.5-0.2-0.5-0.5s0.3-0.5 0.5-0.5z"/>
				<circle cy="507.9" cx="750.4" r=".2"/>
				<circle cy="507.9" cx="750.4" r=".2"/>
				<path d="m750.4 507.7s0.9 0 1.9 0.1c0.9 0.1 1.9 0.1 1.9 0.1s-0.9 0.1-1.9 0.1c-0.9 0-1.9 0.1-1.9 0.1-0.1 0-0.2-0.1-0.2-0.2s0.1-0.2 0.2-0.2z"/>
			</g>
			<g fill="#414042">
				<path d="m714.4 521s0.8 0 1.9-0.1c1.1 0 2.6-0.1 4.1-0.2 1.5 0 3-0.1 4.1-0.1h1.9c0.2 0 0.4 0.2 0.4 0.4s-0.2 0.4-0.4 0.4h-1.9c-1.1 0-2.6-0.1-4.1-0.1s-3-0.1-4.1-0.2c-1.1 0-1.9-0.1-1.9-0.1z"/>
				<circle cy="521" cx="726.4" r=".4"/>
				<circle cy="521" cx="726.4" r=".4"/>
				<path d="m726.4 520.6s3-0.1 6-0.1h6c0.3 0 0.5 0.2 0.5 0.5s-0.2 0.5-0.5 0.5h-6c-3 0-6-0.1-6-0.1-0.2 0-0.4-0.2-0.4-0.4s0.2-0.4 0.4-0.4z"/>
				<circle cy="521" cx="738.4"/>
				<circle cy="521" cx="738.4"/>
				<path d="m738.4 520.5s3 0 6 0.1c1.5 0 3 0.1 4.1 0.1s1.9 0.1 1.9 0.1c0.1 0 0.2 0.1 0.2 0.2s-0.1 0.2-0.2 0.2c0 0-0.8 0-1.9 0.1-1.1 0-2.6 0.1-4.1 0.1-3 0.1-6 0.1-6 0.1-0.3 0-0.5-0.2-0.5-0.5s0.3-0.5 0.5-0.5z"/>
				<circle cy="521" cx="750.4" r=".2"/>
				<circle cy="521" cx="750.4" r=".2"/>
				<path d="m750.4 520.8s0.9 0 1.9 0.1c0.9 0.1 1.9 0.1 1.9 0.1s-0.9 0.1-1.9 0.1c-0.9 0-1.9 0.1-1.9 0.1-0.1 0-0.2-0.1-0.2-0.2s0.1-0.2 0.2-0.2z"/>
			</g>
			<g fill="#414042">
				<path d="m714.4 534.2s0.8 0 1.9-0.1c1.1 0 2.6-0.1 4.1-0.2 1.5 0 3-0.1 4.1-0.1h1.9c0.2 0 0.4 0.2 0.4 0.4s-0.2 0.4-0.4 0.4h-1.9c-1.1 0-2.6-0.1-4.1-0.1s-3-0.1-4.1-0.2-1.9-0.1-1.9-0.1z"/>
				<circle cy="534.2" cx="726.4" r=".4"/>
				<circle cy="534.2" cx="726.4" r=".4"/>
				<path d="m726.4 533.8s3-0.1 6-0.1h6c0.3 0 0.5 0.2 0.5 0.5s-0.2 0.5-0.5 0.5h-6c-3 0-6-0.1-6-0.1-0.2 0-0.4-0.2-0.4-0.4s0.2-0.4 0.4-0.4z"/>
				<circle cy="534.2" cx="738.4"/>
				<circle cy="534.2" cx="738.4"/>
				<path d="m738.4 533.7s3 0 6 0.1c1.5 0 3 0.1 4.1 0.1s1.9 0.1 1.9 0.1c0.1 0 0.2 0.1 0.2 0.2s-0.1 0.2-0.2 0.2c0 0-0.8 0-1.9 0.1-1.1 0-2.6 0.1-4.1 0.1-3 0.1-6 0.1-6 0.1-0.3 0-0.5-0.2-0.5-0.5s0.3-0.5 0.5-0.5z"/>
				<circle cy="534.2" cx="750.4" r=".2"/>
				<circle cy="534.2" cx="750.4" r=".2"/>
				<path d="m750.4 534s0.9 0 1.9 0.1c0.9 0.1 1.9 0.1 1.9 0.1s-0.9 0.1-1.9 0.1c-0.9 0-1.9 0.1-1.9 0.1-0.1 0-0.2-0.1-0.2-0.2s0.1-0.2 0.2-0.2z"/>
			</g>
			<g fill="#414042">
				<path d="m714.4 547.4s0.8 0 1.9-0.1c1.1 0 2.6-0.1 4.1-0.2 1.5 0 3-0.1 4.1-0.1h1.9c0.2 0 0.4 0.2 0.4 0.4s-0.2 0.4-0.4 0.4h-1.9c-1.1 0-2.6-0.1-4.1-0.1s-3-0.1-4.1-0.2-1.9-0.1-1.9-0.1z"/>
				<circle cy="547.4" cx="726.4" r=".4"/>
				<circle cy="547.4" cx="726.4" r=".4"/>
				<path d="m726.4 546.9s3-0.1 6-0.1h6c0.3 0 0.5 0.2 0.5 0.5s-0.2 0.5-0.5 0.5h-6c-3 0-6-0.1-6-0.1-0.2 0-0.4-0.2-0.4-0.4s0.2-0.4 0.4-0.4z"/>
				<circle cy="547.4" cx="738.4"/>
				<circle cy="547.4" cx="738.4"/>
				<path d="m738.4 546.9s3 0 6 0.1c1.5 0 3 0.1 4.1 0.1s1.9 0.1 1.9 0.1c0.1 0 0.2 0.1 0.2 0.2s-0.1 0.2-0.2 0.2c0 0-0.8 0-1.9 0.1-1.1 0-2.6 0.1-4.1 0.1-3 0.1-6 0.1-6 0.1-0.3 0-0.5-0.2-0.5-0.5s0.3-0.5 0.5-0.5z"/>
				<circle cy="547.4" cx="750.4" r=".2"/>
				<circle cy="547.4" cx="750.4" r=".2"/>
				<path d="m750.4 547.2s0.9 0 1.9 0.1c0.9 0.1 1.9 0.1 1.9 0.1s-0.9 0.1-1.9 0.1c-0.9 0-1.9 0.1-1.9 0.1-0.1 0-0.2-0.1-0.2-0.2s0.1-0.2 0.2-0.2z"/>
			</g>
			<g fill="#414042">
				<path d="m714.4 560.5s0.8 0 1.9-0.1c1.1 0 2.6-0.1 4.1-0.2 1.5 0 3-0.1 4.1-0.1h1.9c0.2 0 0.4 0.2 0.4 0.4s-0.2 0.4-0.4 0.4h-1.9c-1.1 0-2.6-0.1-4.1-0.1s-3-0.1-4.1-0.2c-1.1 0-1.9-0.1-1.9-0.1z"/>
				<circle cy="560.5" cx="726.4" r=".4"/>
				<circle cy="560.5" cx="726.4" r=".4"/>
				<path d="m726.4 560.1s3-0.1 6-0.1h6c0.3 0 0.5 0.2 0.5 0.5s-0.2 0.5-0.5 0.5h-6c-3 0-6-0.1-6-0.1-0.2 0-0.4-0.2-0.4-0.4s0.2-0.4 0.4-0.4z"/>
				<circle cy="560.5" cx="738.4"/>
				<circle cy="560.5" cx="738.4"/>
				<path d="m738.4 560.1s3 0 6 0.1c1.5 0 3 0.1 4.1 0.1s1.9 0.1 1.9 0.1c0.1 0 0.2 0.1 0.2 0.2s-0.1 0.2-0.2 0.2c0 0-0.8 0-1.9 0.1-1.1 0-2.6 0.1-4.1 0.1-3 0.1-6 0.1-6 0.1-0.3 0-0.5-0.2-0.5-0.5s0.3-0.5 0.5-0.5z"/>
				<circle cy="560.5" cx="750.4" r=".2"/>
				<circle cy="560.5" cx="750.4" r=".2"/>
				<path d="m750.4 560.4s0.9 0 1.9 0.1c0.9 0.1 1.9 0.1 1.9 0.1s-0.9 0.1-1.9 0.1c-0.9 0-1.9 0.1-1.9 0.1-0.1 0-0.2-0.1-0.2-0.2 0-0.2 0.1-0.2 0.2-0.2z"/>
			</g>
			<g fill="#414042">
				<path d="m714.4 573.7s0.8 0 1.9-0.1c1.1 0 2.6-0.1 4.1-0.2 1.5 0 3-0.1 4.1-0.1h1.9c0.2 0 0.4 0.2 0.4 0.4s-0.2 0.4-0.4 0.4h-1.9c-1.1 0-2.6-0.1-4.1-0.1s-3-0.1-4.1-0.2c-1.1 0-1.9-0.1-1.9-0.1z"/>
				<circle cy="573.7" cx="726.4" r=".4"/>
				<circle cy="573.7" cx="726.4" r=".4"/>
				<path d="m726.4 573.3s3-0.1 6-0.1h6c0.3 0 0.5 0.2 0.5 0.5s-0.2 0.5-0.5 0.5h-6c-3 0-6-0.1-6-0.1-0.2 0-0.4-0.2-0.4-0.4s0.2-0.4 0.4-0.4z"/>
				<circle cy="573.7" cx="738.4"/>
				<circle cy="573.7" cx="738.4"/>
				<path d="m738.4 573.2s3 0 6 0.1c1.5 0 3 0.1 4.1 0.1s1.9 0.1 1.9 0.1c0.1 0 0.2 0.1 0.2 0.2s-0.1 0.2-0.2 0.2c0 0-0.8 0-1.9 0.1-1.1 0-2.6 0.1-4.1 0.1-3 0.1-6 0.1-6 0.1-0.3 0-0.5-0.2-0.5-0.5 0-0.2 0.3-0.5 0.5-0.5z"/>
				<circle cy="573.7" cx="750.4" r=".2"/>
				<circle cy="573.7" cx="750.4" r=".2"/>
				<path d="m750.4 573.5s0.9 0 1.9 0.1c0.9 0.1 1.9 0.1 1.9 0.1s-0.9 0.1-1.9 0.1c-0.9 0-1.9 0.1-1.9 0.1-0.1 0-0.2-0.1-0.2-0.2s0.1-0.2 0.2-0.2z"/>
			</g>
			<g fill="#414042">
				<path d="m714.4 586.9s0.8 0 1.9-0.1c1.1 0 2.6-0.1 4.1-0.2 1.5 0 3-0.1 4.1-0.1h1.9c0.2 0 0.4 0.2 0.4 0.4s-0.2 0.4-0.4 0.4h-1.9c-1.1 0-2.6-0.1-4.1-0.1s-3-0.1-4.1-0.2-1.9-0.1-1.9-0.1z"/>
				<circle cy="586.9" cx="726.4" r=".4"/>
				<circle cy="586.9" cx="726.4" r=".4"/>
				<path d="m726.4 586.5s3-0.1 6-0.1h6c0.3 0 0.5 0.2 0.5 0.5s-0.2 0.5-0.5 0.5h-6c-3 0-6-0.1-6-0.1-0.2 0-0.4-0.2-0.4-0.4 0-0.3 0.2-0.4 0.4-0.4z"/>
				<circle cy="586.9" cx="738.4"/>
				<circle cy="586.9" cx="738.4"/>
				<path d="m738.4 586.4s3 0 6 0.1c1.5 0 3 0.1 4.1 0.1s1.9 0.1 1.9 0.1c0.1 0 0.2 0.1 0.2 0.2s-0.1 0.2-0.2 0.2c0 0-0.8 0-1.9 0.1-1.1 0-2.6 0.1-4.1 0.1-3 0.1-6 0.1-6 0.1-0.3 0-0.5-0.2-0.5-0.5s0.3-0.5 0.5-0.5z"/>
				<circle cy="586.9" cx="750.4" r=".2"/>
				<circle cy="586.9" cx="750.4" r=".2"/>
				<path d="m750.4 586.7s0.9 0 1.9 0.1c0.9 0.1 1.9 0.1 1.9 0.1s-0.9 0.1-1.9 0.1c-0.9 0-1.9 0.1-1.9 0.1-0.1 0-0.2-0.1-0.2-0.2s0.1-0.2 0.2-0.2z"/>
			</g>
			<g fill="#414042">
				<path d="m714.4 600.1s0.8 0 1.9-0.1c1.1 0 2.6-0.1 4.1-0.2 1.5 0 3-0.1 4.1-0.1h1.9c0.2 0 0.4 0.2 0.4 0.4s-0.2 0.4-0.4 0.4h-1.9c-1.1 0-2.6-0.1-4.1-0.1s-3-0.1-4.1-0.2-1.9-0.1-1.9-0.1z"/>
				<circle cy="600.1" cx="726.4" r=".4"/>
				<circle cy="600.1" cx="726.4" r=".4"/>
				<path d="m726.4 599.6s3-0.1 6-0.1h6c0.3 0 0.5 0.2 0.5 0.5s-0.2 0.5-0.5 0.5h-6c-3 0-6-0.1-6-0.1-0.2 0-0.4-0.2-0.4-0.4s0.2-0.4 0.4-0.4z"/>
				<circle cy="600.1" cx="738.4"/>
				<circle cy="600.1" cx="738.4"/>
				<path d="m738.4 599.6s3 0 6 0.1c1.5 0 3 0.1 4.1 0.1s1.9 0.1 1.9 0.1c0.1 0 0.2 0.1 0.2 0.2s-0.1 0.2-0.2 0.2c0 0-0.8 0-1.9 0.1-1.1 0-2.6 0.1-4.1 0.1-3 0.1-6 0.1-6 0.1-0.3 0-0.5-0.2-0.5-0.5s0.3-0.5 0.5-0.5z"/>
				<circle cy="600.1" cx="750.4" r=".2"/>
				<circle cy="600.1" cx="750.4" r=".2"/>
				<path d="m750.4 599.9s0.9 0 1.9 0.1c0.9 0.1 1.9 0.1 1.9 0.1s-0.9 0.1-1.9 0.1c-0.9 0-1.9 0.1-1.9 0.1-0.1 0-0.2-0.1-0.2-0.2s0.1-0.2 0.2-0.2z"/>
			</g>
	</g>
	<g clip-path="url(#SVGID_2_)">
		<polygon stroke="#231F20" points="977.5 614.7 977.5 452.4 971.7 452.4 971.7 444.5 962.9 444.5 962.9 434.5 957.9 434.5 957.9 444.5 949.9 444.5 949.9 452.4 912.3 452.4 912.3 614.7" stroke-miterlimit="10" fill="#fff"/>
			<g fill="#414042">
				<path d="m917.5 603.8s0.8-0.1 1.9-0.2 2.6-0.2 4.1-0.2c3-0.1 6-0.1 6-0.1 0.3 0 0.5 0.2 0.5 0.5s-0.2 0.5-0.5 0.5c0 0-3 0-6-0.1-1.5-0.1-3-0.1-4.1-0.2s-1.9-0.2-1.9-0.2z"/>
				<circle cy="603.8" cx="929.5"/>
				<circle cy="603.8" cx="929.5"/>
				<path d="m929.5 603.3s3 0 6 0.1c1.5 0.1 3 0.1 4.1 0.2s1.9 0.1 1.9 0.1c0.1 0 0.1 0.1 0.1 0.1 0 0.1-0.1 0.1-0.1 0.1s-0.8 0.1-1.9 0.1-2.6 0.1-4.1 0.2c-3 0.1-6 0.1-6 0.1-0.3 0-0.5-0.2-0.5-0.5 0-0.2 0.3-0.5 0.5-0.5z"/>
				<circle cy="603.8" cx="941.5" r=".1"/>
				<circle cy="603.8" cx="941.5" r=".1"/>
				<path d="m941.5 603.7s0.4 0 0.8 0.1c0.4 0 0.8 0.1 0.8 0.1s-0.4 0-0.8 0.1c-0.4 0-0.8 0.1-0.8 0.1-0.1 0-0.1-0.1-0.1-0.1s0-0.3 0.1-0.3z"/>
			</g>
			<g fill="#414042">
				<path d="m917.5 593.1s0.8-0.1 1.9-0.2 2.6-0.2 4.1-0.2c3-0.1 6-0.1 6-0.1 0.3 0 0.5 0.2 0.5 0.5s-0.2 0.5-0.5 0.5c0 0-3 0-6-0.1-1.5-0.1-3-0.1-4.1-0.2-1.1-0.2-1.9-0.2-1.9-0.2z"/>
				<circle cy="593.1" cx="929.5"/>
				<circle cy="593.1" cx="929.5"/>
				<path d="m929.5 592.6s3 0 6 0.1c1.5 0.1 3 0.1 4.1 0.2s1.9 0.1 1.9 0.1c0.1 0 0.1 0.1 0.1 0.1 0 0.1-0.1 0.1-0.1 0.1s-0.8 0.1-1.9 0.1-2.6 0.1-4.1 0.2c-3 0.1-6 0.1-6 0.1-0.3 0-0.5-0.2-0.5-0.5s0.3-0.5 0.5-0.5z"/>
				<circle cy="593.1" cx="941.5" r=".1"/>
				<circle cy="593.1" cx="941.5" r=".1"/>
				<path d="m941.5 592.9s0.4 0 0.8 0.1c0.4 0 0.8 0.1 0.8 0.1s-0.4 0-0.8 0.1c-0.4 0-0.8 0.1-0.8 0.1-0.1 0-0.1-0.1-0.1-0.1 0-0.2 0-0.3 0.1-0.3z"/>
			</g>
			<g fill="#414042">
				<path d="m917.5 582.3s0.8-0.1 1.9-0.2 2.6-0.2 4.1-0.2c3-0.1 6-0.1 6-0.1 0.3 0 0.5 0.2 0.5 0.5s-0.2 0.5-0.5 0.5c0 0-3 0-6-0.1-1.5-0.1-3-0.1-4.1-0.2s-1.9-0.2-1.9-0.2z"/>
				<circle cy="582.3" cx="929.5"/>
				<circle cy="582.3" cx="929.5"/>
				<path d="m929.5 581.8s3 0 6 0.1c1.5 0.1 3 0.1 4.1 0.2s1.9 0.1 1.9 0.1c0.1 0 0.1 0.1 0.1 0.1 0 0.1-0.1 0.1-0.1 0.1s-0.8 0.1-1.9 0.1-2.6 0.1-4.1 0.2c-3 0.1-6 0.1-6 0.1-0.3 0-0.5-0.2-0.5-0.5s0.3-0.5 0.5-0.5z"/>
				<circle cy="582.3" cx="941.5" r=".1"/>
				<circle cy="582.3" cx="941.5" r=".1"/>
				<path d="m941.5 582.2s0.4 0 0.8 0.1c0.4 0 0.8 0.1 0.8 0.1s-0.4 0-0.8 0.1c-0.4 0-0.8 0.1-0.8 0.1-0.1 0-0.1-0.1-0.1-0.1s0-0.3 0.1-0.3z"/>
			</g>
			<g fill="#414042">
				<path d="m917.5 571.5s0.8-0.1 1.9-0.2 2.6-0.2 4.1-0.2c3-0.1 6-0.1 6-0.1 0.3 0 0.5 0.2 0.5 0.5s-0.2 0.5-0.5 0.5c0 0-3 0-6-0.1-1.5-0.1-3-0.1-4.1-0.2s-1.9-0.2-1.9-0.2z"/>
				<circle cy="571.5" cx="929.5"/>
				<circle cy="571.5" cx="929.5"/>
				<path d="m929.5 571s3 0 6 0.1c1.5 0.1 3 0.1 4.1 0.2s1.9 0.1 1.9 0.1c0.1 0 0.1 0.1 0.1 0.1 0 0.1-0.1 0.1-0.1 0.1s-0.8 0.1-1.9 0.1-2.6 0.1-4.1 0.2c-3 0.1-6 0.1-6 0.1-0.3 0-0.5-0.2-0.5-0.5s0.3-0.5 0.5-0.5z"/>
				<circle cy="571.5" cx="941.5" r=".1"/>
				<circle cy="571.5" cx="941.5" r=".1"/>
				<path d="m941.5 571.4s0.4 0 0.8 0.1c0.4 0 0.8 0.1 0.8 0.1s-0.4 0-0.8 0.1c-0.4 0-0.8 0.1-0.8 0.1-0.1 0-0.1-0.1-0.1-0.1s0-0.3 0.1-0.3z"/>
			</g>
			<g fill="#414042">
				<path d="m917.5 560.8s0.8-0.1 1.9-0.2 2.6-0.2 4.1-0.2c3-0.1 6-0.1 6-0.1 0.3 0 0.5 0.2 0.5 0.5s-0.2 0.5-0.5 0.5c0 0-3 0-6-0.1-1.5-0.1-3-0.1-4.1-0.2-1.1-0.2-1.9-0.2-1.9-0.2z"/>
				<circle cy="560.8" cx="929.5"/>
				<circle cy="560.8" cx="929.5"/>
				<path d="m929.5 560.3s3 0 6 0.1c1.5 0.1 3 0.1 4.1 0.2s1.9 0.1 1.9 0.1c0.1 0 0.1 0.1 0.1 0.1 0 0.1-0.1 0.1-0.1 0.1s-0.8 0.1-1.9 0.1-2.6 0.1-4.1 0.2c-3 0.1-6 0.1-6 0.1-0.3 0-0.5-0.2-0.5-0.5s0.3-0.5 0.5-0.5z"/>
				<circle cy="560.8" cx="941.5" r=".1"/>
				<circle cy="560.8" cx="941.5" r=".1"/>
				<path d="m941.5 560.6s0.4 0 0.8 0.1c0.4 0 0.8 0.1 0.8 0.1s-0.4 0-0.8 0.1c-0.4 0-0.8 0.1-0.8 0.1-0.1 0-0.1-0.1-0.1-0.1s0-0.3 0.1-0.3z"/>
			</g>
			<g fill="#414042">
				<path d="m917.5 550s0.8-0.1 1.9-0.2 2.6-0.2 4.1-0.2c3-0.1 6-0.1 6-0.1 0.3 0 0.5 0.2 0.5 0.5s-0.2 0.5-0.5 0.5c0 0-3 0-6-0.1-1.5-0.1-3-0.1-4.1-0.2s-1.9-0.2-1.9-0.2z"/>
				<circle cy="550" cx="929.5"/>
				<circle cy="550" cx="929.5"/>
				<path d="m929.5 549.5s3 0 6 0.1c1.5 0.1 3 0.1 4.1 0.2s1.9 0.1 1.9 0.1c0.1 0 0.1 0.1 0.1 0.1 0 0.1-0.1 0.1-0.1 0.1s-0.8 0.1-1.9 0.1-2.6 0.1-4.1 0.2c-3 0.1-6 0.1-6 0.1-0.3 0-0.5-0.2-0.5-0.5s0.3-0.5 0.5-0.5z"/>
				<circle cy="550" cx="941.5" r=".1"/>
				<circle cy="550" cx="941.5" r=".1"/>
				<path d="m941.5 549.9s0.4 0 0.8 0.1c0.4 0 0.8 0.1 0.8 0.1s-0.4 0-0.8 0.1c-0.4 0-0.8 0.1-0.8 0.1-0.1 0-0.1-0.1-0.1-0.1s0-0.3 0.1-0.3z"/>
			</g>
			<g fill="#414042">
				<path d="m917.5 539.2s0.8-0.1 1.9-0.2 2.6-0.2 4.1-0.2c3-0.1 6-0.1 6-0.1 0.3 0 0.5 0.2 0.5 0.5s-0.2 0.5-0.5 0.5c0 0-3 0-6-0.1-1.5-0.1-3-0.1-4.1-0.2s-1.9-0.2-1.9-0.2z"/>
				<circle cy="539.2" cx="929.5"/>
				<circle cy="539.2" cx="929.5"/>
				<path d="m929.5 538.7s3 0 6 0.1c1.5 0.1 3 0.1 4.1 0.2s1.9 0.1 1.9 0.1c0.1 0 0.1 0.1 0.1 0.1 0 0.1-0.1 0.1-0.1 0.1s-0.8 0.1-1.9 0.1-2.6 0.1-4.1 0.2c-3 0.1-6 0.1-6 0.1-0.3 0-0.5-0.2-0.5-0.5s0.3-0.5 0.5-0.5z"/>
				<circle cy="539.2" cx="941.5" r=".1"/>
				<circle cy="539.2" cx="941.5" r=".1"/>
				<path d="m941.5 539.1s0.4 0 0.8 0.1c0.4 0 0.8 0.1 0.8 0.1s-0.4 0-0.8 0.1c-0.4 0-0.8 0.1-0.8 0.1-0.1 0-0.1-0.1-0.1-0.1s0-0.3 0.1-0.3z"/>
			</g>
			<g fill="#414042">
				<path d="m917.5 528.4s0.8-0.1 1.9-0.2 2.6-0.2 4.1-0.2c3-0.1 6-0.1 6-0.1 0.3 0 0.5 0.2 0.5 0.5s-0.2 0.5-0.5 0.5c0 0-3 0-6-0.1-1.5-0.1-3-0.1-4.1-0.2s-1.9-0.2-1.9-0.2z"/>
				<circle cy="528.4" cx="929.5"/>
				<circle cy="528.4" cx="929.5"/>
				<path d="m929.5 528s3 0 6 0.1c1.5 0.1 3 0.1 4.1 0.2s1.9 0.1 1.9 0.1c0.1 0 0.1 0.1 0.1 0.1 0 0.1-0.1 0.1-0.1 0.1s-0.8 0.1-1.9 0.1-2.6 0.1-4.1 0.2c-3 0.1-6 0.1-6 0.1-0.3 0-0.5-0.2-0.5-0.5s0.3-0.5 0.5-0.5z"/>
				<circle cy="528.4" cx="941.5" r=".1"/>
				<circle cy="528.4" cx="941.5" r=".1"/>
				<path d="m941.5 528.3s0.4 0 0.8 0.1c0.4 0 0.8 0.1 0.8 0.1s-0.4 0-0.8 0.1c-0.4 0-0.8 0.1-0.8 0.1-0.1 0-0.1-0.1-0.1-0.1s0-0.3 0.1-0.3z"/>
			</g>
			<g fill="#414042">
				<path d="m917.5 517.7s0.8-0.1 1.9-0.2 2.6-0.2 4.1-0.2c3-0.1 6-0.1 6-0.1 0.3 0 0.5 0.2 0.5 0.5s-0.2 0.5-0.5 0.5c0 0-3 0-6-0.1-1.5-0.1-3-0.1-4.1-0.2s-1.9-0.2-1.9-0.2z"/>
				<circle cy="517.7" cx="929.5"/>
				<circle cy="517.7" cx="929.5"/>
				<path d="m929.5 517.2s3 0 6 0.1c1.5 0.1 3 0.1 4.1 0.2s1.9 0.1 1.9 0.1c0.1 0 0.1 0.1 0.1 0.1 0 0.1-0.1 0.1-0.1 0.1s-0.8 0.1-1.9 0.1-2.6 0.1-4.1 0.2c-3 0.1-6 0.1-6 0.1-0.3 0-0.5-0.2-0.5-0.5s0.3-0.5 0.5-0.5z"/>
				<circle cy="517.7" cx="941.5" r=".1"/>
				<circle cy="517.7" cx="941.5" r=".1"/>
				<path d="m941.5 517.5s0.4 0 0.8 0.1c0.4 0 0.8 0.1 0.8 0.1s-0.4 0-0.8 0.1c-0.4 0-0.8 0.1-0.8 0.1-0.1 0-0.1-0.1-0.1-0.1s0-0.2 0.1-0.3z"/>
			</g>
			<g fill="#414042">
				<path d="m917.5 506.9s0.8-0.1 1.9-0.2 2.6-0.2 4.1-0.2c3-0.1 6-0.1 6-0.1 0.3 0 0.5 0.2 0.5 0.5s-0.2 0.5-0.5 0.5c0 0-3 0-6-0.1-1.5-0.1-3-0.1-4.1-0.2s-1.9-0.2-1.9-0.2z"/>
				<circle cy="506.9" cx="929.5"/>
				<circle cy="506.9" cx="929.5"/>
				<path d="m929.5 506.4s3 0 6 0.1c1.5 0.1 3 0.1 4.1 0.2s1.9 0.1 1.9 0.1c0.1 0 0.1 0.1 0.1 0.1 0 0.1-0.1 0.1-0.1 0.1s-0.8 0.1-1.9 0.1-2.6 0.1-4.1 0.2c-3 0.1-6 0.1-6 0.1-0.3 0-0.5-0.2-0.5-0.5s0.3-0.5 0.5-0.5z"/>
				<circle cy="506.9" cx="941.5" r=".1"/>
				<circle cy="506.9" cx="941.5" r=".1"/>
				<path d="m941.5 506.8s0.4 0 0.8 0.1c0.4 0 0.8 0.1 0.8 0.1s-0.4 0-0.8 0.1c-0.4 0-0.8 0.1-0.8 0.1-0.1 0-0.1-0.1-0.1-0.1s0-0.3 0.1-0.3z"/>
			</g>
			<g fill="#414042">
				<path d="m917.5 496.1s0.8-0.1 1.9-0.2 2.6-0.2 4.1-0.2c3-0.1 6-0.1 6-0.1 0.3 0 0.5 0.2 0.5 0.5s-0.2 0.5-0.5 0.5c0 0-3 0-6-0.1-1.5-0.1-3-0.1-4.1-0.2s-1.9-0.2-1.9-0.2z"/>
				<circle cy="496.1" cx="929.5"/>
				<circle cy="496.1" cx="929.5"/>
				<path d="m929.5 495.6s3 0 6 0.1c1.5 0.1 3 0.1 4.1 0.2s1.9 0.1 1.9 0.1c0.1 0 0.1 0.1 0.1 0.1 0 0.1-0.1 0.1-0.1 0.1s-0.8 0.1-1.9 0.1-2.6 0.1-4.1 0.2c-3 0.1-6 0.1-6 0.1-0.3 0-0.5-0.2-0.5-0.5 0-0.2 0.3-0.5 0.5-0.5z"/>
				<circle cy="496.1" cx="941.5" r=".1"/>
				<circle cy="496.1" cx="941.5" r=".1"/>
				<path d="m941.5 496s0.4 0 0.8 0.1c0.4 0 0.8 0.1 0.8 0.1s-0.4 0-0.8 0.1c-0.4 0-0.8 0.1-0.8 0.1-0.1 0-0.1-0.1-0.1-0.1s0-0.3 0.1-0.3z"/>
			</g>
			<g fill="#414042">
				<path d="m917.5 485.4s0.8-0.1 1.9-0.2 2.6-0.2 4.1-0.2c3-0.1 6-0.1 6-0.1 0.3 0 0.5 0.2 0.5 0.5s-0.2 0.5-0.5 0.5c0 0-3 0-6-0.1-1.5-0.1-3-0.1-4.1-0.2s-1.9-0.2-1.9-0.2z"/>
				<circle cy="485.4" cx="929.5"/>
				<circle cy="485.4" cx="929.5"/>
				<path d="m929.5 484.9s3 0 6 0.1c1.5 0.1 3 0.1 4.1 0.2s1.9 0.1 1.9 0.1c0.1 0 0.1 0.1 0.1 0.1 0 0.1-0.1 0.1-0.1 0.1s-0.8 0.1-1.9 0.1-2.6 0.1-4.1 0.2c-3 0.1-6 0.1-6 0.1-0.3 0-0.5-0.2-0.5-0.5s0.3-0.5 0.5-0.5z"/>
				<circle cy="485.4" cx="941.5" r=".1"/>
				<circle cy="485.4" cx="941.5" r=".1"/>
				<path d="m941.5 485.2s0.4 0 0.8 0.1c0.4 0 0.8 0.1 0.8 0.1s-0.4 0-0.8 0.1c-0.4 0-0.8 0.1-0.8 0.1-0.1 0-0.1-0.1-0.1-0.1s0-0.3 0.1-0.3z"/>
			</g>
			<g fill="#414042">
				<path d="m917.5 474.6s0.8-0.1 1.9-0.2 2.6-0.2 4.1-0.2c3-0.1 6-0.1 6-0.1 0.3 0 0.5 0.2 0.5 0.5s-0.2 0.5-0.5 0.5c0 0-3 0-6-0.1-1.5-0.1-3-0.1-4.1-0.2s-1.9-0.2-1.9-0.2z"/>
				<circle cy="474.6" cx="929.5"/>
				<circle cy="474.6" cx="929.5"/>
				<path d="m929.5 474.1s3 0 6 0.1c1.5 0.1 3 0.1 4.1 0.2s1.9 0.1 1.9 0.1c0.1 0 0.1 0.1 0.1 0.1 0 0.1-0.1 0.1-0.1 0.1s-0.8 0.1-1.9 0.1-2.6 0.1-4.1 0.2c-3 0.1-6 0.1-6 0.1-0.3 0-0.5-0.2-0.5-0.5s0.3-0.5 0.5-0.5z"/>
				<circle cy="474.6" cx="941.5" r=".1"/>
				<circle cy="474.6" cx="941.5" r=".1"/>
				<path d="m941.5 474.5s0.4 0 0.8 0.1c0.4 0 0.8 0.1 0.8 0.1s-0.4 0-0.8 0.1c-0.4 0-0.8 0.1-0.8 0.1-0.1 0-0.1-0.1-0.1-0.1s0-0.3 0.1-0.3z"/>
			</g>
			<g fill="#414042">
				<path d="m917.5 463.8s0.8-0.1 1.9-0.2 2.6-0.2 4.1-0.2c3-0.1 6-0.1 6-0.1 0.3 0 0.5 0.2 0.5 0.5s-0.2 0.5-0.5 0.5c0 0-3 0-6-0.1-1.5-0.1-3-0.1-4.1-0.2s-1.9-0.2-1.9-0.2z"/>
				<circle cy="463.8" cx="929.5"/>
				<circle cy="463.8" cx="929.5"/>
				<path d="m929.5 463.3s3 0 6 0.1c1.5 0.1 3 0.1 4.1 0.2s1.9 0.1 1.9 0.1c0.1 0 0.1 0.1 0.1 0.1 0 0.1-0.1 0.1-0.1 0.1s-0.8 0.1-1.9 0.1-2.6 0.1-4.1 0.2c-3 0.1-6 0.1-6 0.1-0.3 0-0.5-0.2-0.5-0.5 0-0.2 0.3-0.5 0.5-0.5z"/>
				<circle cy="463.8" cx="941.5" r=".1"/>
				<circle cy="463.8" cx="941.5" r=".1"/>
				<path d="m941.5 463.7s0.4 0 0.8 0.1c0.4 0 0.8 0.1 0.8 0.1s-0.4 0-0.8 0.1c-0.4 0-0.8 0.1-0.8 0.1-0.1 0-0.1-0.1-0.1-0.1 0-0.2 0-0.3 0.1-0.3z"/>
			</g>
			<g fill="#414042">
				<path d="m947.6 603.8s0.8-0.1 1.9-0.2 2.6-0.2 4.1-0.2c3-0.1 6-0.1 6-0.1 0.3 0 0.5 0.2 0.5 0.5s-0.2 0.5-0.5 0.5c0 0-3 0-6-0.1-1.5-0.1-3-0.1-4.1-0.2s-1.9-0.2-1.9-0.2z"/>
				<circle cy="603.8" cx="959.6"/>
				<circle cy="603.8" cx="959.6"/>
				<path d="m959.6 603.3s3 0 6 0.1c1.5 0.1 3 0.1 4.1 0.2s1.9 0.1 1.9 0.1c0.1 0 0.1 0.1 0.1 0.1 0 0.1-0.1 0.1-0.1 0.1s-0.8 0.1-1.9 0.1-2.6 0.1-4.1 0.2c-3 0.1-6 0.1-6 0.1-0.3 0-0.5-0.2-0.5-0.5 0-0.2 0.3-0.5 0.5-0.5z"/>
				<circle cy="603.8" cx="971.6" r=".1"/>
				<circle cy="603.8" cx="971.6" r=".1"/>
				<path d="m971.6 603.7s0.4 0 0.8 0.1c0.4 0 0.8 0.1 0.8 0.1s-0.4 0-0.8 0.1c-0.4 0-0.8 0.1-0.8 0.1-0.1 0-0.1-0.1-0.1-0.1 0-0.2 0-0.3 0.1-0.3z"/>
			</g>
			<g fill="#414042">
				<path d="m947.6 593.1s0.8-0.1 1.9-0.2 2.6-0.2 4.1-0.2c3-0.1 6-0.1 6-0.1 0.3 0 0.5 0.2 0.5 0.5s-0.2 0.5-0.5 0.5c0 0-3 0-6-0.1-1.5-0.1-3-0.1-4.1-0.2-1.1-0.2-1.9-0.2-1.9-0.2z"/>
				<circle cy="593.1" cx="959.6"/>
				<circle cy="593.1" cx="959.6"/>
				<path d="m959.6 592.6s3 0 6 0.1c1.5 0.1 3 0.1 4.1 0.2s1.9 0.1 1.9 0.1c0.1 0 0.1 0.1 0.1 0.1 0 0.1-0.1 0.1-0.1 0.1s-0.8 0.1-1.9 0.1-2.6 0.1-4.1 0.2c-3 0.1-6 0.1-6 0.1-0.3 0-0.5-0.2-0.5-0.5s0.3-0.5 0.5-0.5z"/>
				<circle cy="593.1" cx="971.6" r=".1"/>
				<circle cy="593.1" cx="971.6" r=".1"/>
				<path d="m971.6 592.9s0.4 0 0.8 0.1c0.4 0 0.8 0.1 0.8 0.1s-0.4 0-0.8 0.1c-0.4 0-0.8 0.1-0.8 0.1-0.1 0-0.1-0.1-0.1-0.1 0-0.2 0-0.3 0.1-0.3z"/>
			</g>
			<g fill="#414042">
				<path d="m947.6 582.3s0.8-0.1 1.9-0.2 2.6-0.2 4.1-0.2c3-0.1 6-0.1 6-0.1 0.3 0 0.5 0.2 0.5 0.5s-0.2 0.5-0.5 0.5c0 0-3 0-6-0.1-1.5-0.1-3-0.1-4.1-0.2s-1.9-0.2-1.9-0.2z"/>
				<circle cy="582.3" cx="959.6"/>
				<circle cy="582.3" cx="959.6"/>
				<path d="m959.6 581.8s3 0 6 0.1c1.5 0.1 3 0.1 4.1 0.2s1.9 0.1 1.9 0.1c0.1 0 0.1 0.1 0.1 0.1 0 0.1-0.1 0.1-0.1 0.1s-0.8 0.1-1.9 0.1-2.6 0.1-4.1 0.2c-3 0.1-6 0.1-6 0.1-0.3 0-0.5-0.2-0.5-0.5s0.3-0.5 0.5-0.5z"/>
				<circle cy="582.3" cx="971.6" r=".1"/>
				<circle cy="582.3" cx="971.6" r=".1"/>
				<path d="m971.6 582.2s0.4 0 0.8 0.1c0.4 0 0.8 0.1 0.8 0.1s-0.4 0-0.8 0.1c-0.4 0-0.8 0.1-0.8 0.1-0.1 0-0.1-0.1-0.1-0.1 0-0.3 0-0.3 0.1-0.3z"/>
			</g>
			<g fill="#414042">
				<path d="m947.6 571.5s0.8-0.1 1.9-0.2 2.6-0.2 4.1-0.2c3-0.1 6-0.1 6-0.1 0.3 0 0.5 0.2 0.5 0.5s-0.2 0.5-0.5 0.5c0 0-3 0-6-0.1-1.5-0.1-3-0.1-4.1-0.2s-1.9-0.2-1.9-0.2z"/>
				<circle cy="571.5" cx="959.6"/>
				<circle cy="571.5" cx="959.6"/>
				<path d="m959.6 571s3 0 6 0.1c1.5 0.1 3 0.1 4.1 0.2s1.9 0.1 1.9 0.1c0.1 0 0.1 0.1 0.1 0.1 0 0.1-0.1 0.1-0.1 0.1s-0.8 0.1-1.9 0.1-2.6 0.1-4.1 0.2c-3 0.1-6 0.1-6 0.1-0.3 0-0.5-0.2-0.5-0.5s0.3-0.5 0.5-0.5z"/>
				<circle cy="571.5" cx="971.6" r=".1"/>
				<circle cy="571.5" cx="971.6" r=".1"/>
				<path d="m971.6 571.4s0.4 0 0.8 0.1c0.4 0 0.8 0.1 0.8 0.1s-0.4 0-0.8 0.1c-0.4 0-0.8 0.1-0.8 0.1-0.1 0-0.1-0.1-0.1-0.1 0-0.2 0-0.3 0.1-0.3z"/>
			</g>
			<g fill="#414042">
				<path d="m947.6 560.8s0.8-0.1 1.9-0.2 2.6-0.2 4.1-0.2c3-0.1 6-0.1 6-0.1 0.3 0 0.5 0.2 0.5 0.5s-0.2 0.5-0.5 0.5c0 0-3 0-6-0.1-1.5-0.1-3-0.1-4.1-0.2-1.1-0.2-1.9-0.2-1.9-0.2z"/>
				<circle cy="560.8" cx="959.6"/>
				<circle cy="560.8" cx="959.6"/>
				<path d="m959.6 560.3s3 0 6 0.1c1.5 0.1 3 0.1 4.1 0.2s1.9 0.1 1.9 0.1c0.1 0 0.1 0.1 0.1 0.1 0 0.1-0.1 0.1-0.1 0.1s-0.8 0.1-1.9 0.1-2.6 0.1-4.1 0.2c-3 0.1-6 0.1-6 0.1-0.3 0-0.5-0.2-0.5-0.5s0.3-0.5 0.5-0.5z"/>
				<circle cy="560.8" cx="971.6" r=".1"/>
				<circle cy="560.8" cx="971.6" r=".1"/>
				<path d="m971.6 560.6s0.4 0 0.8 0.1c0.4 0 0.8 0.1 0.8 0.1s-0.4 0-0.8 0.1c-0.4 0-0.8 0.1-0.8 0.1-0.1 0-0.1-0.1-0.1-0.1 0-0.2 0-0.3 0.1-0.3z"/>
			</g>
			<g fill="#414042">
				<path d="m947.6 550s0.8-0.1 1.9-0.2 2.6-0.2 4.1-0.2c3-0.1 6-0.1 6-0.1 0.3 0 0.5 0.2 0.5 0.5s-0.2 0.5-0.5 0.5c0 0-3 0-6-0.1-1.5-0.1-3-0.1-4.1-0.2s-1.9-0.2-1.9-0.2z"/>
				<circle cy="550" cx="959.6"/>
				<circle cy="550" cx="959.6"/>
				<path d="m959.6 549.5s3 0 6 0.1c1.5 0.1 3 0.1 4.1 0.2s1.9 0.1 1.9 0.1c0.1 0 0.1 0.1 0.1 0.1 0 0.1-0.1 0.1-0.1 0.1s-0.8 0.1-1.9 0.1-2.6 0.1-4.1 0.2c-3 0.1-6 0.1-6 0.1-0.3 0-0.5-0.2-0.5-0.5s0.3-0.5 0.5-0.5z"/>
				<circle cy="550" cx="971.6" r=".1"/>
				<circle cy="550" cx="971.6" r=".1"/>
				<path d="m971.6 549.9s0.4 0 0.8 0.1c0.4 0 0.8 0.1 0.8 0.1s-0.4 0-0.8 0.1c-0.4 0-0.8 0.1-0.8 0.1-0.1 0-0.1-0.1-0.1-0.1 0-0.3 0-0.3 0.1-0.3z"/>
			</g>
			<g fill="#414042">
				<path d="m947.6 539.2s0.8-0.1 1.9-0.2 2.6-0.2 4.1-0.2c3-0.1 6-0.1 6-0.1 0.3 0 0.5 0.2 0.5 0.5s-0.2 0.5-0.5 0.5c0 0-3 0-6-0.1-1.5-0.1-3-0.1-4.1-0.2s-1.9-0.2-1.9-0.2z"/>
				<circle cy="539.2" cx="959.6"/>
				<circle cy="539.2" cx="959.6"/>
				<path d="m959.6 538.7s3 0 6 0.1c1.5 0.1 3 0.1 4.1 0.2s1.9 0.1 1.9 0.1c0.1 0 0.1 0.1 0.1 0.1 0 0.1-0.1 0.1-0.1 0.1s-0.8 0.1-1.9 0.1-2.6 0.1-4.1 0.2c-3 0.1-6 0.1-6 0.1-0.3 0-0.5-0.2-0.5-0.5s0.3-0.5 0.5-0.5z"/>
				<circle cy="539.2" cx="971.6" r=".1"/>
				<circle cy="539.2" cx="971.6" r=".1"/>
				<path d="m971.6 539.1s0.4 0 0.8 0.1c0.4 0 0.8 0.1 0.8 0.1s-0.4 0-0.8 0.1c-0.4 0-0.8 0.1-0.8 0.1-0.1 0-0.1-0.1-0.1-0.1 0-0.2 0-0.3 0.1-0.3z"/>
			</g>
			<g fill="#414042">
				<path d="m947.6 528.4s0.8-0.1 1.9-0.2 2.6-0.2 4.1-0.2c3-0.1 6-0.1 6-0.1 0.3 0 0.5 0.2 0.5 0.5s-0.2 0.5-0.5 0.5c0 0-3 0-6-0.1-1.5-0.1-3-0.1-4.1-0.2s-1.9-0.2-1.9-0.2z"/>
				<circle cy="528.4" cx="959.6"/>
				<circle cy="528.4" cx="959.6"/>
				<path d="m959.6 528s3 0 6 0.1c1.5 0.1 3 0.1 4.1 0.2s1.9 0.1 1.9 0.1c0.1 0 0.1 0.1 0.1 0.1 0 0.1-0.1 0.1-0.1 0.1s-0.8 0.1-1.9 0.1-2.6 0.1-4.1 0.2c-3 0.1-6 0.1-6 0.1-0.3 0-0.5-0.2-0.5-0.5s0.3-0.5 0.5-0.5z"/>
				<circle cy="528.4" cx="971.6" r=".1"/>
				<circle cy="528.4" cx="971.6" r=".1"/>
				<path d="m971.6 528.3s0.4 0 0.8 0.1c0.4 0 0.8 0.1 0.8 0.1s-0.4 0-0.8 0.1c-0.4 0-0.8 0.1-0.8 0.1-0.1 0-0.1-0.1-0.1-0.1 0-0.2 0-0.3 0.1-0.3z"/>
			</g>
			<g fill="#414042">
				<path d="m947.6 517.7s0.8-0.1 1.9-0.2 2.6-0.2 4.1-0.2c3-0.1 6-0.1 6-0.1 0.3 0 0.5 0.2 0.5 0.5s-0.2 0.5-0.5 0.5c0 0-3 0-6-0.1-1.5-0.1-3-0.1-4.1-0.2s-1.9-0.2-1.9-0.2z"/>
				<circle cy="517.7" cx="959.6"/>
				<circle cy="517.7" cx="959.6"/>
				<path d="m959.6 517.2s3 0 6 0.1c1.5 0.1 3 0.1 4.1 0.2s1.9 0.1 1.9 0.1c0.1 0 0.1 0.1 0.1 0.1 0 0.1-0.1 0.1-0.1 0.1s-0.8 0.1-1.9 0.1-2.6 0.1-4.1 0.2c-3 0.1-6 0.1-6 0.1-0.3 0-0.5-0.2-0.5-0.5s0.3-0.5 0.5-0.5z"/>
				<circle cy="517.7" cx="971.6" r=".1"/>
				<circle cy="517.7" cx="971.6" r=".1"/>
				<path d="m971.6 517.5s0.4 0 0.8 0.1c0.4 0 0.8 0.1 0.8 0.1s-0.4 0-0.8 0.1c-0.4 0-0.8 0.1-0.8 0.1-0.1 0-0.1-0.1-0.1-0.1 0-0.2 0-0.2 0.1-0.3z"/>
			</g>
			<g fill="#414042">
				<path d="m947.6 506.9s0.8-0.1 1.9-0.2 2.6-0.2 4.1-0.2c3-0.1 6-0.1 6-0.1 0.3 0 0.5 0.2 0.5 0.5s-0.2 0.5-0.5 0.5c0 0-3 0-6-0.1-1.5-0.1-3-0.1-4.1-0.2s-1.9-0.2-1.9-0.2z"/>
				<circle cy="506.9" cx="959.6"/>
				<circle cy="506.9" cx="959.6"/>
				<path d="m959.6 506.4s3 0 6 0.1c1.5 0.1 3 0.1 4.1 0.2s1.9 0.1 1.9 0.1c0.1 0 0.1 0.1 0.1 0.1 0 0.1-0.1 0.1-0.1 0.1s-0.8 0.1-1.9 0.1-2.6 0.1-4.1 0.2c-3 0.1-6 0.1-6 0.1-0.3 0-0.5-0.2-0.5-0.5s0.3-0.5 0.5-0.5z"/>
				<circle cy="506.9" cx="971.6" r=".1"/>
				<circle cy="506.9" cx="971.6" r=".1"/>
				<path d="m971.6 506.8s0.4 0 0.8 0.1c0.4 0 0.8 0.1 0.8 0.1s-0.4 0-0.8 0.1c-0.4 0-0.8 0.1-0.8 0.1-0.1 0-0.1-0.1-0.1-0.1 0-0.3 0-0.3 0.1-0.3z"/>
			</g>
			<g fill="#414042">
				<path d="m947.6 496.1s0.8-0.1 1.9-0.2 2.6-0.2 4.1-0.2c3-0.1 6-0.1 6-0.1 0.3 0 0.5 0.2 0.5 0.5s-0.2 0.5-0.5 0.5c0 0-3 0-6-0.1-1.5-0.1-3-0.1-4.1-0.2s-1.9-0.2-1.9-0.2z"/>
				<circle cy="496.1" cx="959.6"/>
				<circle cy="496.1" cx="959.6"/>
				<path d="m959.6 495.6s3 0 6 0.1c1.5 0.1 3 0.1 4.1 0.2s1.9 0.1 1.9 0.1c0.1 0 0.1 0.1 0.1 0.1 0 0.1-0.1 0.1-0.1 0.1s-0.8 0.1-1.9 0.1-2.6 0.1-4.1 0.2c-3 0.1-6 0.1-6 0.1-0.3 0-0.5-0.2-0.5-0.5 0-0.2 0.3-0.5 0.5-0.5z"/>
				<circle cy="496.1" cx="971.6" r=".1"/>
				<circle cy="496.1" cx="971.6" r=".1"/>
				<path d="m971.6 496s0.4 0 0.8 0.1c0.4 0 0.8 0.1 0.8 0.1s-0.4 0-0.8 0.1c-0.4 0-0.8 0.1-0.8 0.1-0.1 0-0.1-0.1-0.1-0.1 0-0.2 0-0.3 0.1-0.3z"/>
			</g>
			<g fill="#414042">
				<path d="m947.6 485.4s0.8-0.1 1.9-0.2 2.6-0.2 4.1-0.2c3-0.1 6-0.1 6-0.1 0.3 0 0.5 0.2 0.5 0.5s-0.2 0.5-0.5 0.5c0 0-3 0-6-0.1-1.5-0.1-3-0.1-4.1-0.2s-1.9-0.2-1.9-0.2z"/>
				<circle cy="485.4" cx="959.6"/>
				<circle cy="485.4" cx="959.6"/>
				<path d="m959.6 484.9s3 0 6 0.1c1.5 0.1 3 0.1 4.1 0.2s1.9 0.1 1.9 0.1c0.1 0 0.1 0.1 0.1 0.1 0 0.1-0.1 0.1-0.1 0.1s-0.8 0.1-1.9 0.1-2.6 0.1-4.1 0.2c-3 0.1-6 0.1-6 0.1-0.3 0-0.5-0.2-0.5-0.5s0.3-0.5 0.5-0.5z"/>
				<circle cy="485.4" cx="971.6" r=".1"/>
				<circle cy="485.4" cx="971.6" r=".1"/>
				<path d="m971.6 485.2s0.4 0 0.8 0.1c0.4 0 0.8 0.1 0.8 0.1s-0.4 0-0.8 0.1c-0.4 0-0.8 0.1-0.8 0.1-0.1 0-0.1-0.1-0.1-0.1 0-0.2 0-0.3 0.1-0.3z"/>
			</g>
			<g fill="#414042">
				<path d="m947.6 474.6s0.8-0.1 1.9-0.2 2.6-0.2 4.1-0.2c3-0.1 6-0.1 6-0.1 0.3 0 0.5 0.2 0.5 0.5s-0.2 0.5-0.5 0.5c0 0-3 0-6-0.1-1.5-0.1-3-0.1-4.1-0.2s-1.9-0.2-1.9-0.2z"/>
				<circle cy="474.6" cx="959.6"/>
				<circle cy="474.6" cx="959.6"/>
				<path d="m959.6 474.1s3 0 6 0.1c1.5 0.1 3 0.1 4.1 0.2s1.9 0.1 1.9 0.1c0.1 0 0.1 0.1 0.1 0.1 0 0.1-0.1 0.1-0.1 0.1s-0.8 0.1-1.9 0.1-2.6 0.1-4.1 0.2c-3 0.1-6 0.1-6 0.1-0.3 0-0.5-0.2-0.5-0.5s0.3-0.5 0.5-0.5z"/>
				<circle cy="474.6" cx="971.6" r=".1"/>
				<circle cy="474.6" cx="971.6" r=".1"/>
				<path d="m971.6 474.5s0.4 0 0.8 0.1c0.4 0 0.8 0.1 0.8 0.1s-0.4 0-0.8 0.1c-0.4 0-0.8 0.1-0.8 0.1-0.1 0-0.1-0.1-0.1-0.1 0-0.3 0-0.3 0.1-0.3z"/>
			</g>
			<g fill="#414042">
				<path d="m947.6 463.8s0.8-0.1 1.9-0.2 2.6-0.2 4.1-0.2c3-0.1 6-0.1 6-0.1 0.3 0 0.5 0.2 0.5 0.5s-0.2 0.5-0.5 0.5c0 0-3 0-6-0.1-1.5-0.1-3-0.1-4.1-0.2s-1.9-0.2-1.9-0.2z"/>
				<circle cy="463.8" cx="959.6"/>
				<circle cy="463.8" cx="959.6"/>
				<path d="m959.6 463.3s3 0 6 0.1c1.5 0.1 3 0.1 4.1 0.2s1.9 0.1 1.9 0.1c0.1 0 0.1 0.1 0.1 0.1 0 0.1-0.1 0.1-0.1 0.1s-0.8 0.1-1.9 0.1-2.6 0.1-4.1 0.2c-3 0.1-6 0.1-6 0.1-0.3 0-0.5-0.2-0.5-0.5 0-0.2 0.3-0.5 0.5-0.5z"/>
				<circle cy="463.8" cx="971.6" r=".1"/>
				<circle cy="463.8" cx="971.6" r=".1"/>
				<path d="m971.6 463.7s0.4 0 0.8 0.1c0.4 0 0.8 0.1 0.8 0.1s-0.4 0-0.8 0.1c-0.4 0-0.8 0.1-0.8 0.1-0.1 0-0.1-0.1-0.1-0.1 0-0.2 0-0.3 0.1-0.3z"/>
			</g>
	</g>
	<g clip-path="url(#SVGID_2_)">
		<polygon stroke="#231F20" points="658.7 614.7 658.7 506.7 652.9 506.7 652.9 501.4 644.1 501.4 644.1 494.7 639.1 494.7 639.1 501.4 631.1 501.4 631.1 506.7 617.3 506.7 617.3 614.7" stroke-miterlimit="10" fill="#fff"/>
		<polygon stroke="#231F20" points="679.7 614.7 679.7 529.2 677.2 529.2 677.2 525.1 673.6 525.1 673.6 519.8 671.5 519.8 671.5 525.1 668.2 525.1 668.2 529.2 662.5 529.2 662.5 614.7" stroke-miterlimit="10" fill="#fff"/>
			<g fill="#414042">
				<path d="m624 610.3s0.8-0.1 1.9-0.1c1.1-0.1 2.6-0.2 4.1-0.2 3-0.1 6-0.1 6-0.1 0.3 0 0.5 0.2 0.5 0.5s-0.2 0.5-0.5 0.5c0 0-3 0-6-0.1-1.5-0.1-3-0.1-4.1-0.2-1.2-0.2-1.9-0.3-1.9-0.3z"/>
				<circle cy="610.3" cx="636"/>
				<circle cy="610.3" cx="636"/>
				<path d="m636 609.8h6c1.5 0 3 0.1 4.1 0.1s1.9 0.1 1.9 0.1c0.1 0 0.3 0.1 0.3 0.3 0 0.1-0.1 0.3-0.3 0.3 0 0-0.8 0-1.9 0.1s-2.6 0.1-4.1 0.1c-3 0.1-6 0-6 0-0.3 0-0.5-0.2-0.5-0.5s0.2-0.5 0.5-0.5z"/>
				<circle cy="610.3" cx="648" r=".3"/>
				<circle cy="610.3" cx="648" r=".3"/>
				<path d="m648 610h0.6c0.4 0 0.9 0.1 1.4 0.1 1 0.1 2.1 0.2 2.1 0.2s-1 0.1-2.1 0.2c-0.5 0-1 0.1-1.4 0.1h-0.6c-0.1 0-0.3-0.1-0.3-0.3 0-0.1 0.1-0.3 0.3-0.3z"/>
			</g>
			<g fill="#414042">
				<path d="m624 602.7s0.8-0.1 1.9-0.1c1.1-0.1 2.6-0.2 4.1-0.2 3-0.1 6-0.1 6-0.1 0.3 0 0.5 0.2 0.5 0.5s-0.2 0.5-0.5 0.5c0 0-3 0-6-0.1-1.5-0.1-3-0.1-4.1-0.2-1.2-0.3-1.9-0.3-1.9-0.3z"/>
				<circle cy="602.7" cx="636"/>
				<circle cy="602.7" cx="636"/>
				<path d="m636 602.2h6c1.5 0 3 0.1 4.1 0.1s1.9 0.1 1.9 0.1c0.1 0 0.3 0.1 0.3 0.3 0 0.1-0.1 0.3-0.3 0.3 0 0-0.8 0-1.9 0.1s-2.6 0.1-4.1 0.1c-3 0.1-6 0-6 0-0.3 0-0.5-0.2-0.5-0.5s0.2-0.5 0.5-0.5z"/>
				<circle cy="602.7" cx="648" r=".3"/>
				<circle cy="602.7" cx="648" r=".3"/>
				<path d="m648 602.4h0.6c0.4 0 0.9 0.1 1.4 0.1 1 0.1 2.1 0.2 2.1 0.2s-1 0.1-2.1 0.2c-0.5 0-1 0.1-1.4 0.1h-0.6c-0.1 0-0.3-0.1-0.3-0.3s0.1-0.3 0.3-0.3z"/>
			</g>
			<g fill="#414042">
				<path d="m624 595s0.8-0.1 1.9-0.1c1.1-0.1 2.6-0.2 4.1-0.2 3-0.1 6-0.1 6-0.1 0.3 0 0.5 0.2 0.5 0.5s-0.2 0.5-0.5 0.5c0 0-3 0-6-0.1-1.5-0.1-3-0.1-4.1-0.2-1.2-0.2-1.9-0.3-1.9-0.3z"/>
				<circle cy="595" cx="636"/>
				<circle cy="595" cx="636"/>
				<path d="m636 594.5h6c1.5 0 3 0.1 4.1 0.1s1.9 0.1 1.9 0.1c0.1 0 0.3 0.1 0.3 0.3 0 0.1-0.1 0.3-0.3 0.3 0 0-0.8 0-1.9 0.1s-2.6 0.1-4.1 0.1c-3 0.1-6 0-6 0-0.3 0-0.5-0.2-0.5-0.5s0.2-0.5 0.5-0.5z"/>
				<circle cy="595" cx="648" r=".3"/>
				<circle cy="595" cx="648" r=".3"/>
				<path d="m648 594.7h0.6c0.4 0 0.9 0.1 1.4 0.1 1 0.1 2.1 0.2 2.1 0.2s-1 0.1-2.1 0.2c-0.5 0-1 0.1-1.4 0.1h-0.6c-0.1 0-0.3-0.1-0.3-0.3 0-0.1 0.1-0.3 0.3-0.3z"/>
			</g>
			<g fill="#414042">
				<path d="m624 587.4s0.8-0.1 1.9-0.1c1.1-0.1 2.6-0.2 4.1-0.2 3-0.1 6-0.1 6-0.1 0.3 0 0.5 0.2 0.5 0.5s-0.2 0.5-0.5 0.5c0 0-3 0-6-0.1-1.5-0.1-3-0.1-4.1-0.2-1.2-0.3-1.9-0.3-1.9-0.3z"/>
				<circle cy="587.4" cx="636"/>
				<circle cy="587.4" cx="636"/>
				<path d="m636 586.9h6c1.5 0 3 0.1 4.1 0.1s1.9 0.1 1.9 0.1c0.1 0 0.3 0.1 0.3 0.3 0 0.1-0.1 0.3-0.3 0.3 0 0-0.8 0-1.9 0.1s-2.6 0.1-4.1 0.1c-3 0.1-6 0-6 0-0.3 0-0.5-0.2-0.5-0.5s0.2-0.5 0.5-0.5z"/>
				<circle cy="587.4" cx="648" r=".3"/>
				<circle cy="587.4" cx="648" r=".3"/>
				<path d="m648 587.1h0.6c0.4 0 0.9 0.1 1.4 0.1 1 0.1 2.1 0.2 2.1 0.2s-1 0.1-2.1 0.2c-0.5 0-1 0.1-1.4 0.1h-0.6c-0.1 0-0.3-0.1-0.3-0.3s0.1-0.3 0.3-0.3z"/>
			</g>
			<g fill="#414042">
				<path d="m624 579.7s0.8-0.1 1.9-0.1c1.1-0.1 2.6-0.2 4.1-0.2 3-0.1 6-0.1 6-0.1 0.3 0 0.5 0.2 0.5 0.5s-0.2 0.5-0.5 0.5c0 0-3 0-6-0.1-1.5-0.1-3-0.1-4.1-0.2-1.2-0.2-1.9-0.3-1.9-0.3z"/>
				<circle cy="579.7" cx="636"/>
				<circle cy="579.7" cx="636"/>
				<path d="m636 579.2h6c1.5 0 3 0.1 4.1 0.1s1.9 0.1 1.9 0.1c0.1 0 0.3 0.1 0.3 0.3 0 0.1-0.1 0.3-0.3 0.3 0 0-0.8 0-1.9 0.1s-2.6 0.1-4.1 0.1c-3 0.1-6 0-6 0-0.3 0-0.5-0.2-0.5-0.5s0.2-0.5 0.5-0.5z"/>
				<circle cy="579.7" cx="648" r=".3"/>
				<circle cy="579.7" cx="648" r=".3"/>
				<path d="m648 579.4h0.6c0.4 0 0.9 0.1 1.4 0.1 1 0.1 2.1 0.2 2.1 0.2s-1 0.1-2.1 0.2c-0.5 0-1 0.1-1.4 0.1h-0.6c-0.1 0-0.3-0.1-0.3-0.3 0-0.1 0.1-0.2 0.3-0.3z"/>
			</g>
			<g fill="#414042">
				<path d="m624 572.1s0.8-0.1 1.9-0.1c1.1-0.1 2.6-0.2 4.1-0.2 3-0.1 6-0.1 6-0.1 0.3 0 0.5 0.2 0.5 0.5s-0.2 0.5-0.5 0.5c0 0-3 0-6-0.1-1.5-0.1-3-0.1-4.1-0.2-1.2-0.3-1.9-0.3-1.9-0.3z"/>
				<circle cy="572.1" cx="636"/>
				<circle cy="572.1" cx="636"/>
				<path d="m636 571.6h6c1.5 0 3 0.1 4.1 0.1s1.9 0.1 1.9 0.1c0.1 0 0.3 0.1 0.3 0.3 0 0.1-0.1 0.3-0.3 0.3 0 0-0.8 0-1.9 0.1s-2.6 0.1-4.1 0.1c-3 0.1-6 0-6 0-0.3 0-0.5-0.2-0.5-0.5s0.2-0.5 0.5-0.5z"/>
				<circle cy="572.1" cx="648" r=".3"/>
				<circle cy="572.1" cx="648" r=".3"/>
				<path d="m648 571.8h0.6c0.4 0 0.9 0.1 1.4 0.1 1 0.1 2.1 0.2 2.1 0.2s-1 0.1-2.1 0.2c-0.5 0-1 0.1-1.4 0.1h-0.6c-0.1 0-0.3-0.1-0.3-0.3s0.1-0.3 0.3-0.3z"/>
			</g>
			<g fill="#414042">
				<path d="m624 564.4s0.8-0.1 1.9-0.1c1.1-0.1 2.6-0.2 4.1-0.2 3-0.1 6-0.1 6-0.1 0.3 0 0.5 0.2 0.5 0.5s-0.2 0.5-0.5 0.5c0 0-3 0-6-0.1-1.5-0.1-3-0.1-4.1-0.2-1.2-0.2-1.9-0.3-1.9-0.3z"/>
				<circle cy="564.4" cx="636"/>
				<circle cy="564.4" cx="636"/>
				<path d="m636 563.9h6c1.5 0 3 0.1 4.1 0.1s1.9 0.1 1.9 0.1c0.1 0 0.3 0.1 0.3 0.3 0 0.1-0.1 0.3-0.3 0.3 0 0-0.8 0-1.9 0.1s-2.6 0.1-4.1 0.1c-3 0.1-6 0-6 0-0.3 0-0.5-0.2-0.5-0.5s0.2-0.5 0.5-0.5z"/>
				<circle cy="564.4" cx="648" r=".3"/>
				<circle cy="564.4" cx="648" r=".3"/>
				<path d="m648 564.2h0.6c0.4 0 0.9 0.1 1.4 0.1 1 0.1 2.1 0.2 2.1 0.2s-1 0.1-2.1 0.2c-0.5 0-1 0.1-1.4 0.1h-0.6c-0.1 0-0.3-0.1-0.3-0.3s0.1-0.3 0.3-0.3v0z"/>
			</g>
			<g fill="#414042">
				<path d="m624 556.8s0.8-0.1 1.9-0.1c1.1-0.1 2.6-0.2 4.1-0.2 3-0.1 6-0.1 6-0.1 0.3 0 0.5 0.2 0.5 0.5s-0.2 0.5-0.5 0.5c0 0-3 0-6-0.1-1.5-0.1-3-0.1-4.1-0.2-1.2-0.3-1.9-0.3-1.9-0.3z"/>
				<circle cy="556.8" cx="636"/>
				<circle cy="556.8" cx="636"/>
				<path d="m636 556.3h6c1.5 0 3 0.1 4.1 0.1s1.9 0.1 1.9 0.1c0.1 0 0.3 0.1 0.3 0.3 0 0.1-0.1 0.3-0.3 0.3 0 0-0.8 0-1.9 0.1s-2.6 0.1-4.1 0.1c-3 0.1-6 0-6 0-0.3 0-0.5-0.2-0.5-0.5s0.2-0.5 0.5-0.5z"/>
				<circle cy="556.8" cx="648" r=".3"/>
				<circle cy="556.8" cx="648" r=".3"/>
				<path d="m648 556.5h0.6c0.4 0 0.9 0.1 1.4 0.1 1 0.1 2.1 0.2 2.1 0.2s-1 0.1-2.1 0.2c-0.5 0-1 0.1-1.4 0.1h-0.6c-0.1 0-0.3-0.1-0.3-0.3s0.1-0.3 0.3-0.3z"/>
			</g>
			<g fill="#414042">
				<path d="m624 549.1s0.8-0.1 1.9-0.1c1.1-0.1 2.6-0.2 4.1-0.2 3-0.1 6-0.1 6-0.1 0.3 0 0.5 0.2 0.5 0.5s-0.2 0.5-0.5 0.5c0 0-3 0-6-0.1-1.5-0.1-3-0.1-4.1-0.2-1.2-0.2-1.9-0.3-1.9-0.3z"/>
				<circle cy="549.1" cx="636"/>
				<circle cy="549.1" cx="636"/>
				<path d="m636 548.6h6c1.5 0 3 0.1 4.1 0.1s1.9 0.1 1.9 0.1c0.1 0 0.3 0.1 0.3 0.3 0 0.1-0.1 0.3-0.3 0.3 0 0-0.8 0-1.9 0.1s-2.6 0.1-4.1 0.1c-3 0.1-6 0-6 0-0.3 0-0.5-0.2-0.5-0.5 0-0.2 0.2-0.5 0.5-0.5z"/>
				<circle cy="549.1" cx="648" r=".3"/>
				<circle cy="549.1" cx="648" r=".3"/>
				<path d="m648 548.9h0.6c0.4 0 0.9 0.1 1.4 0.1 1 0.1 2.1 0.2 2.1 0.2s-1 0.1-2.1 0.2c-0.5 0-1 0.1-1.4 0.1h-0.6c-0.1 0-0.3-0.1-0.3-0.3s0.1-0.3 0.3-0.3z"/>
			</g>
			<g fill="#414042">
				<path d="m624 541.5s0.8-0.1 1.9-0.1c1.1-0.1 2.6-0.2 4.1-0.2 3-0.1 6-0.1 6-0.1 0.3 0 0.5 0.2 0.5 0.5s-0.2 0.5-0.5 0.5c0 0-3 0-6-0.1-1.5-0.1-3-0.1-4.1-0.2-1.2-0.2-1.9-0.3-1.9-0.3z"/>
				<circle cy="541.5" cx="636"/>
				<circle cy="541.5" cx="636"/>
				<path d="m636 541h6c1.5 0 3 0.1 4.1 0.1s1.9 0.1 1.9 0.1c0.1 0 0.3 0.1 0.3 0.3 0 0.1-0.1 0.3-0.3 0.3 0 0-0.8 0-1.9 0.1s-2.6 0.1-4.1 0.1c-3 0.1-6 0-6 0-0.3 0-0.5-0.2-0.5-0.5s0.2-0.5 0.5-0.5z"/>
				<circle cy="541.5" cx="648" r=".3"/>
				<circle cy="541.5" cx="648" r=".3"/>
				<path d="m648 541.2h0.6c0.4 0 0.9 0.1 1.4 0.1 1 0.1 2.1 0.2 2.1 0.2s-1 0.1-2.1 0.2c-0.5 0-1 0.1-1.4 0.1h-0.6c-0.1 0-0.3-0.1-0.3-0.3s0.1-0.3 0.3-0.3z"/>
			</g>
			<g fill="#414042">
				<path d="m624 533.8s0.8-0.1 1.9-0.1c1.1-0.1 2.6-0.2 4.1-0.2 3-0.1 6-0.1 6-0.1 0.3 0 0.5 0.2 0.5 0.5s-0.2 0.5-0.5 0.5c0 0-3 0-6-0.1-1.5-0.1-3-0.1-4.1-0.2-1.2-0.2-1.9-0.3-1.9-0.3z"/>
				<circle cy="533.8" cx="636"/>
				<circle cy="533.8" cx="636"/>
				<path d="m636 533.3h6c1.5 0 3 0.1 4.1 0.1s1.9 0.1 1.9 0.1c0.1 0 0.3 0.1 0.3 0.3 0 0.1-0.1 0.3-0.3 0.3 0 0-0.8 0-1.9 0.1s-2.6 0.1-4.1 0.1c-3 0.1-6 0-6 0-0.3 0-0.5-0.2-0.5-0.5 0-0.2 0.2-0.5 0.5-0.5z"/>
				<circle cy="533.8" cx="648" r=".3"/>
				<circle cy="533.8" cx="648" r=".3"/>
				<path d="m648 533.6h0.6c0.4 0 0.9 0.1 1.4 0.1 1 0.1 2.1 0.2 2.1 0.2s-1 0.1-2.1 0.2c-0.5 0-1 0.1-1.4 0.1h-0.6c-0.1 0-0.3-0.1-0.3-0.3s0.1-0.3 0.3-0.3z"/>
			</g>
			<g fill="#414042">
				<path d="m624 526.2s0.8-0.1 1.9-0.1c1.1-0.1 2.6-0.2 4.1-0.2 3-0.1 6-0.1 6-0.1 0.3 0 0.5 0.2 0.5 0.5s-0.2 0.5-0.5 0.5c0 0-3 0-6-0.1-1.5-0.1-3-0.1-4.1-0.2-1.2-0.2-1.9-0.3-1.9-0.3z"/>
				<circle cy="526.2" cx="636"/>
				<circle cy="526.2" cx="636"/>
				<path d="m636 525.7h6c1.5 0 3 0.1 4.1 0.1s1.9 0.1 1.9 0.1c0.1 0 0.3 0.1 0.3 0.3 0 0.1-0.1 0.3-0.3 0.3 0 0-0.8 0-1.9 0.1s-2.6 0.1-4.1 0.1c-3 0.1-6 0-6 0-0.3 0-0.5-0.2-0.5-0.5s0.2-0.5 0.5-0.5z"/>
				<circle cy="526.2" cx="648" r=".3"/>
				<circle cy="526.2" cx="648" r=".3"/>
				<path d="m648 525.9h0.6c0.4 0 0.9 0.1 1.4 0.1 1 0.1 2.1 0.2 2.1 0.2s-1 0.1-2.1 0.2c-0.5 0-1 0.1-1.4 0.1h-0.6c-0.1 0-0.3-0.1-0.3-0.3s0.1-0.3 0.3-0.3z"/>
			</g>
			<g fill="#414042">
				<path d="m624 518.5s0.8-0.1 1.9-0.1c1.1-0.1 2.6-0.2 4.1-0.2 3-0.1 6-0.1 6-0.1 0.3 0 0.5 0.2 0.5 0.5s-0.2 0.5-0.5 0.5c0 0-3 0-6-0.1-1.5-0.1-3-0.1-4.1-0.2-1.2-0.2-1.9-0.3-1.9-0.3z"/>
				<circle cy="518.5" cx="636"/>
				<circle cy="518.5" cx="636"/>
				<path d="m636 518h6c1.5 0 3 0.1 4.1 0.1s1.9 0.1 1.9 0.1c0.1 0 0.3 0.1 0.3 0.3 0 0.1-0.1 0.3-0.3 0.3 0 0-0.8 0-1.9 0.1s-2.6 0.1-4.1 0.1c-3 0.1-6 0-6 0-0.3 0-0.5-0.2-0.5-0.5 0-0.2 0.2-0.5 0.5-0.5z"/>
				<circle cy="518.5" cx="648" r=".3"/>
				<circle cy="518.5" cx="648" r=".3"/>
				<path d="m648 518.3h0.6c0.4 0 0.9 0.1 1.4 0.1 1 0.1 2.1 0.2 2.1 0.2s-1 0.1-2.1 0.2c-0.5 0-1 0.1-1.4 0.1h-0.6c-0.1 0-0.3-0.1-0.3-0.3s0.1-0.3 0.3-0.3z"/>
			</g>
			<g fill="#414042">
				<path d="m624 510.9s0.8-0.1 1.9-0.1c1.1-0.1 2.6-0.2 4.1-0.2 3-0.1 6-0.1 6-0.1 0.3 0 0.5 0.2 0.5 0.5s-0.2 0.5-0.5 0.5c0 0-3 0-6-0.1-1.5-0.1-3-0.1-4.1-0.2-1.2-0.2-1.9-0.3-1.9-0.3z"/>
				<circle cy="510.9" cx="636"/>
				<circle cy="510.9" cx="636"/>
				<path d="m636 510.4h6c1.5 0 3 0.1 4.1 0.1s1.9 0.1 1.9 0.1c0.1 0 0.3 0.1 0.3 0.3 0 0.1-0.1 0.3-0.3 0.3 0 0-0.8 0-1.9 0.1s-2.6 0.1-4.1 0.1c-3 0.1-6 0-6 0-0.3 0-0.5-0.2-0.5-0.5s0.2-0.5 0.5-0.5z"/>
				<circle cy="510.9" cx="648" r=".3"/>
				<circle cy="510.9" cx="648" r=".3"/>
				<path d="m648 510.6h0.6c0.4 0 0.9 0.1 1.4 0.1 1 0.1 2.1 0.2 2.1 0.2s-1 0.1-2.1 0.2c-0.5 0-1 0.1-1.4 0.1h-0.6c-0.1 0-0.3-0.1-0.3-0.3s0.1-0.3 0.3-0.3z"/>
			</g>
			<line y2="612" x2="667.3" stroke="#414042" stroke-linecap="round" stroke-dasharray="12,0,0,0,0,0" y1="532.3" stroke-miterlimit="20" x1="667.3" fill="none"/>
			<line y2="612" x2="671.1" stroke="#414042" stroke-linecap="round" stroke-dasharray="12,0,0,0,0,0" y1="532.3" stroke-miterlimit="20" x1="671.1" fill="none"/>
			<line y2="612" x2="674.9" stroke="#414042" stroke-linecap="round" stroke-dasharray="12,0,0,0,0,0" y1="532.3" stroke-miterlimit="20" x1="674.9" fill="none"/>
	</g>
	<g clip-path="url(#SVGID_2_)">
		<polygon stroke="#231F20" points="430.6 489.2 465.5 489.2 465.5 479.2 473.9 479.2 473.9 466.7 484 466.7 484 455.7 495.3 455.7 495.3 614.7 430.6 614.7" stroke-miterlimit="10" fill="#fff"/>
			<line y2="614.7" x2="484" stroke="#414042" stroke-linecap="round" stroke-dasharray="12,0,0,0,0,0" y1="466.7" stroke-miterlimit="20" x1="484" fill="none"/>
			<line y2="614.7" x2="473.9" stroke="#414042" stroke-linecap="round" stroke-dasharray="12,0,0,0,0,0" y1="479.2" stroke-miterlimit="20" x1="473.9" fill="none"/>
			<line y2="614.7" x2="464.7" stroke="#414042" stroke-linecap="round" stroke-dasharray="12,0,0,0,0,0" y1="489.2" stroke-miterlimit="20" x1="464.7" fill="none"/>
			<line y2="614.7" x2="456.9" stroke="#414042" stroke-linecap="round" stroke-dasharray="12,0,0,0,0,0" y1="489.7" stroke-miterlimit="20" x1="456.9" fill="none"/>
			<line y2="614.7" x2="448.9" stroke="#414042" stroke-linecap="round" stroke-dasharray="12,0,0,0,0,0" y1="489.7" stroke-miterlimit="20" x1="448.9" fill="none"/>
			<line y2="614.7" x2="440.9" stroke="#414042" stroke-linecap="round" stroke-dasharray="12,0,0,0,0,0" y1="489.7" stroke-miterlimit="20" x1="440.9" fill="none"/>
	</g>
	<g clip-path="url(#SVGID_2_)">
		<g stroke="#231F20" stroke-miterlimit="10" fill="#fff">
			<rect height="99.3" width="115" y="515.4" x="783.6"/>
			<rect height="13.4" width="86.6" y="502" x="797.8"/>
			<rect height="10" width="57.3" y="492" x="812.5"/>
		</g>
			<line y2="614.7" x2="797.8" stroke="#414042" stroke-linecap="round" stroke-dasharray="12,0,0,0,0,0" y1="515.4" stroke-miterlimit="20" x1="797.8" fill="none"/>
			<line y2="614.7" x2="812.5" stroke="#414042" stroke-linecap="round" stroke-dasharray="12,0,0,0,0,0" y1="515.4" stroke-miterlimit="20" x1="812.5" fill="none"/>
			<line y2="614.7" x2="827.1" stroke="#414042" stroke-linecap="round" stroke-dasharray="12,0,0,0,0,0" y1="515.4" stroke-miterlimit="20" x1="827.1" fill="none"/>
			<line y2="614.7" x2="841.7" stroke="#414042" stroke-linecap="round" stroke-dasharray="12,0,0,0,0,0" y1="515.4" stroke-miterlimit="20" x1="841.7" fill="none"/>
			<line y2="614.7" x2="856.4" stroke="#414042" stroke-linecap="round" stroke-dasharray="12,0,0,0,0,0" y1="515.4" stroke-miterlimit="20" x1="856.4" fill="none"/>
			<line y2="614.7" x2="871" stroke="#414042" stroke-linecap="round" stroke-dasharray="12,0,0,0,0,0" y1="515.4" stroke-miterlimit="20" x1="871" fill="none"/>
			<line y2="614.7" x2="885.7" stroke="#414042" stroke-linecap="round" stroke-dasharray="12,0,0,0,0,0" y1="515.4" stroke-miterlimit="20" x1="885.7" fill="none"/>
	</g>
	<g stroke="#2E3192" stroke-width="2" stroke-miterlimit="10" clip-path="url(#SVGID_2_)">
		<polyline fill="none" stroke-linecap="round" points="291.8 569 291.8 526.6 301.3 518.5 301.3 470.9 291.8 457.8 291.8 383.4 311.9 360.8 373.8 360.8 383.3 348.5 538.3 348.5 550.1 333.1 634.9 333.1 634.9 312.6"/>
		<circle r="4.8" cy="348.6" cx="433.1" fill="#fff"/>
		<circle r="4.8" cy="499.4" cx="301.3" fill="#fff"/>
	</g>
		<polyline clip-path="url(#SVGID_2_)" points="685.5 312.6 685.5 376.2 701.6 392.3 983.7 392.3 1006 414.6 1006 509 1023.2 526.1 1023.2 584.5" stroke="#2E3192" stroke-linecap="round" stroke-miterlimit="10" stroke-width="2" fill="none"/>
		<polyline clip-path="url(#SVGID_2_)" points="658.5 312.6 658.5 386.3 650.2 394.6 650.2 433.7 640.7 441.9 640.7 479.4 646.4 488.1 646.4 498 644.1 498" stroke="#2E3192" stroke-linecap="round" stroke-miterlimit="10" stroke-width="2" fill="none"/>
	<g opacity=".02" clip-path="url(#SVGID_2_)">
		<polygon points="428.2 176.7 683.3 29.5 938.4 176.7 938.4 471.3 683.3 618.5 428.2 471.3" fill="#2895F1"/>
			<defs>
				<polygon id="SVGID_4_" points="428.2 176.7 683.3 29.5 938.4 176.7 938.4 471.3 683.3 618.5 428.2 471.3"/>
			</defs>
			<clipPath id="SVGID_5_">
				<use overflow="visible" xlink:href="#SVGID_4_"/>
			</clipPath>
			<polyline fill="#9B9DA0" points="511.3 418.9 483.5 336.6 496.1 306.3 575.3 251.1 641.5 192 730.2 181.8 758.6 178.6 988.1 309.5 989.8 697.8" clip-path="url(#SVGID_5_)"/>
		<path d="m895.9 333.9c0 0.3-0.1 0.6-0.1 0.9v1.1 1.6c0 1.5-0.2 3-0.4 4.5-0.2 1.3-0.3 2.5-0.5 3.8-0.4 2.9-1 5.8-1.7 8.7-3.9 15.9-11.3 30-21.9 42.4-9.1 10.7-20 19.3-32.4 25.9-8.9 4.8-18.4 8.2-28.3 10.5-2.7 0.6-5.5 1.1-8.2 1.6-2 0.3-4 0.6-6.1 0.8-1.2 0.1-2.5 0.2-3.7 0.3-1.7 0.1-3.5 0.2-5.2 0.3-1.4 0-2.8 0.2-4.2 0.3-0.3 0-0.7 0.1-1 0.1l-7.5 0.3c-6.3 0.2-12.7 0.2-19 0.2-3 0-6-0.1-9-0.2-1.6 0-3.2 0-4.9-0.1-2.3-0.1-4.7-0.1-7-0.2-0.5 0-1-0.1-1.6 0.1-0.2 0.3-0.5 0.6-0.9 0.9-11.7 12.2-23.4 24.3-35.2 36.5-2.9 3-5.7 5.9-8.6 8.9l-0.6 0.6c-0.2 0.2-0.4 0.2-0.7 0-0.2-0.1-0.3-0.2-0.5-0.3-10-7.4-20-14.8-30-22.3-0.2-0.2-0.4-0.3-0.6-0.5 0 0-0.1-0.3 0-0.4 0.1-0.2 0.3-0.3 0.4-0.5 3.2-3.5 6.3-6.9 9.5-10.4 10.6-11.6 21.2-23.3 31.8-34.9 4.3-4.7 8.6-9.4 12.8-14.1 0.3-0.4 0.6-0.7 1-1.1 0.5-0.1 1-0.1 1.5-0.1 2.9-0.1 5.7-0.1 8.6 0 2.1 0.1 4.2 0.1 6.3 0.1l7.8 0.3c0.6 0 1.3 0.1 1.9 0.1 3.1 0.1 6.1 0.3 9.2 0.4 0.9 0 1.7 0.1 2.6 0.1 3.7 0.1 7.5 0.3 11.2 0.2 2.5 0 5.1-0.1 7.6-0.2 2.1 0 4.2-0.2 6.2-0.3 2.1-0.1 4.1-0.3 6.2-0.6 2.5-0.3 4.9-0.6 7.4-1 0.7-0.1 1.5-0.3 2.2-0.4 0.3-0.1 0.6-0.1 0.8-0.3 0.2-0.1 0.4-0.2 0.6-0.2l3.3-0.6c1.8-0.3 3.5-0.8 5.3-1.3 2.3-0.6 4.6-1.3 6.8-2.1 2.7-1 5.4-2.2 8-3.5 8.1-4.2 15.2-9.7 21.2-16.6 6.3-7.2 10.8-15.4 13.6-24.6 0.9-3 1.5-6.1 2-9.2 0.6-4.2 0.8-8.4 0.6-12.6-0.5-8.6-2.6-16.9-6.4-24.6-3.9-8.1-9.3-15.2-16.1-21.2-8.5-7.6-18.4-12.8-29.4-15.8-2.7-0.7-5.4-1.3-8.2-1.7-1.5-0.2-3.1-0.4-4.6-0.6-1.1-0.1-2.1-0.2-3.2-0.2-0.4 0-0.6-0.2-0.7-0.5s-0.2-0.6-0.3-0.8c-9.5-23-27.6-41.9-51-52.3-6-2.6-12.2-4.7-18.6-6.1-2.3-0.5-4.6-0.9-6.9-1.3l-4.8-0.6c-1.5-0.1-3.1-0.2-4.6-0.3-0.7-0.1-1.4-0.1-2.2-0.1h-5.7c-1.8 0-3.6 0.2-5.4 0.3l-3 0.3c-1.2 0.1-2.5 0.3-3.7 0.5-2.5 0.4-4.9 0.9-7.3 1.5-10.1 2.4-19.6 6.3-28.4 11.8-12.9 8-23.4 18.4-31.5 31.2-2.2 3.4-3.9 7-5.4 10.7-1.8 4.4-3.3 8.9-4.5 13.5-1.1 3.9-2 7.8-2.7 11.7 0 0.1-0.1 0.3-0.1 0.4s-0.2 0.3-0.3 0.3h-0.6c-1.4-0.2-2.8-0.4-4.3-0.6-0.8-0.1-1.6-0.2-2.5-0.3-1.2-0.1-2.5-0.2-3.7-0.3-2-0.2-3.9-0.2-5.9-0.3-1.7-0.1-3.5-0.1-5.2 0-1 0-2 0.1-3.1 0.1-1.2 0.1-2.5 0.2-3.7 0.3s-2.5 0.3-3.7 0.5c-5 0.9-9.8 2.3-14.4 4.6-6.6 3.2-12.7 7.3-18 12.4-5.3 5-9.6 10.8-12.8 17.3-2.3 4.6-3.9 9.5-4.8 14.6-0.7 3.9-1 7.8-0.8 11.7 0.4 9.4 3.1 18.1 7.9 26.2 1.2 2 2.6 4 4.1 5.8 4.2 5.2 9.1 9.7 14.6 13.5 6.2 4.4 13 7.8 20.2 10.4 0.9 0.3 0.9 0.3 1.9 0.3 6.6 0 13.1-0.1 19.7-0.2 6.7 0 13.4-0.1 20.2-0.1 3.4 0 6.9-0.1 10.3-0.1 3.9 0 7.7-0.1 11.6-0.1h1c0.2 0 0.4-0.1 0.6-0.3 0.2-0.3 0.5-0.5 0.7-0.7 9.9-10.8 19.8-21.5 29.7-32.3 3.3-3.6 6.6-7.2 10-10.9 0.2-0.3 0.5-0.5 0.7-0.8 0 0 0.1-0.2 0.1-0.3-0.2-0.4-0.6-0.6-0.8-0.9l-10.8-10.8-0.7-0.7c-0.1-0.1-0.1-0.2-0.1-0.2 0-0.1 0.1-0.2 0.2-0.2 0.3 0 0.7-0.1 1-0.1 2-0.1 3.9-0.2 5.9-0.3l5.4-0.3 5.4-0.3c2-0.1 4-0.2 6-0.4h0.5c2-0.1 3.9-0.2 5.9-0.3l5.4-0.3h0.5c2-0.1 3.9-0.2 5.9-0.3l5.4-0.3c1.8-0.1 3.5-0.2 5.3-0.3 0.8 0 1.6-0.1 2.4-0.2 0.3 0 0.5 0.1 0.6 0.4 0 0.3 0.1 0.7 0.1 1 0.1 1.5 0.3 3 0.4 4.5 0.1 1 0.2 2 0.3 2.9 0.1 1.2 0.2 2.5 0.3 3.7s0.2 2.5 0.3 3.7c0.1 0.9 0.2 1.9 0.2 2.8 0.1 1.2 0.2 2.5 0.3 3.7 0.1 1.3 0.2 2.6 0.3 3.8l0.3 3c0.1 1.2 0.2 2.5 0.3 3.7s0.2 2.5 0.3 3.7c0.1 0.9 0.2 1.9 0.2 2.8 0.1 1.2 0.2 2.5 0.3 3.7 0.1 1.3 0.2 2.6 0.3 3.8v1.1s-0.1 0.1-0.2 0.1c-0.3-0.1-0.5-0.3-0.8-0.5-2.2-1.5-4.5-3.1-6.7-4.6s-4.4-3-6.5-4.5c-0.2-0.1-0.4-0.3-0.7-0.4-0.3-0.2-0.4-0.2-0.7 0.1-0.2 0.2-0.5 0.5-0.7 0.8-2.8 3.2-5.6 6.3-8.5 9.5-10.1 11.3-20.2 22.6-30.4 33.8-3.3 3.6-6.7 7.2-10 10.8-1.1 1.2-2.3 2.4-3.5 3.6-0.4 0.4-0.8 0.9-1.4 1.1-0.5 0-1.1 0.1-1.6 0.1h-92.4-0.2c-0.7 0.1-1.4-0.1-2.1-0.3-4.4-1.3-8.8-2.7-13.1-4.5-8.3-3.4-16.1-7.5-23.4-12.6-6.8-4.8-13-10.2-18.5-16.5-8.8-10.1-15.2-21.6-18.9-34.5-0.9-3.1-1.6-6.3-2.2-9.5-0.4-2.5-0.8-5-1-7.5l-0.3-4.5c0-0.5 0-1.1-0.1-1.6 0-0.2-0.1-0.4-0.3-0.6v-5.4c0.2-0.1 0.3-0.3 0.3-0.6s0.1-0.6 0.1-0.9c0.1-2.3 0.4-4.5 0.7-6.8 0.5-3.5 1.3-6.9 2.2-10.3 1.9-6.6 4.6-13 7.9-19 4.6-8.2 10.2-15.6 16.8-22.3 10.2-10.3 21.9-18.4 35.2-24.4 8.6-3.8 17.5-6.6 26.8-8.2 0.3-0.1 0.6-0.1 0.9-0.2 0.2-0.3 0.3-0.6 0.5-0.9 6-13.1 14-25 23.8-35.5 10.9-11.7 23.4-21.3 37.5-28.8 16.5-8.8 34.1-14.2 52.7-16.4 0.8-0.1 1.6-0.2 2.5-0.3 1.3-0.1 2.6-0.3 3.8-0.3 1.8-0.1 3.7-0.2 5.5-0.3 0.3 0 0.7 0 1-0.2h9.7c0.2 0.1 0.5 0.1 0.8 0.2l5.1 0.3c1.3 0.1 2.6 0.2 3.8 0.3 1.7 0.2 3.3 0.4 4.9 0.6 2.7 0.3 5.3 0.7 7.9 1.2 4.2 0.8 8.4 1.7 12.5 2.9 14.2 3.9 27.6 9.8 40 17.7 17 10.9 31.1 24.6 42.1 41.5 0.6 0.9 0.4 0.8 1.6 1.1 6.2 1.8 12.2 4.1 18 7 14 6.9 26.1 16.1 36.2 28 10.4 12.3 17.7 26.3 21.6 41.9 0.7 2.9 1.3 5.8 1.7 8.8 0.2 1.3 0.4 2.5 0.5 3.8 0.2 1.4 0.3 2.9 0.4 4.3v1.6c0 0.5 0 0.9 0.1 1.4 0 0.3 0.1 0.6 0.1 0.9 0.3 3.2 0.3 5.5 0.3 7.7z" fill="#fff"/>
	</g>
	<g clip-path="url(#SVGID_2_)" stroke="#2E3192" stroke-linecap="round" stroke-miterlimit="10" stroke-width="2" fill="none">
		<polyline points="338.7 360.6 328.7 350.7 302.2 350.7"/>
			<circle r="4.2" cy="350.6" cx="298"/>
	</g>
	<g clip-path="url(#SVGID_2_)" stroke="#2E3192" stroke-linecap="round" stroke-miterlimit="10" stroke-width="2" fill="none">
		<polyline points="513.8 348.6 503.9 358.5 477.3 358.5"/>
			<circle r="4.2" cy="358.7" cx="473.2"/>
	</g>
	<g clip-path="url(#SVGID_2_)" stroke="#2E3192" stroke-linecap="round" stroke-miterlimit="10" stroke-width="2" fill="none">
		<polyline points="841.9 367.1 851.8 357.1 878.4 357.1"/>
			<circle r="4.2" cy="357" cx="882.5"/>
	</g>
	<g clip-path="url(#SVGID_2_)" stroke="#2E3192" stroke-linecap="round" stroke-miterlimit="10" stroke-width="2" fill="none">
		<polyline points="1052.1 518 1062.1 508 1088.6 508"/>
			<circle r="4.2" cy="507.9" cx="1092.8"/>
	</g>
	<g clip-path="url(#SVGID_2_)" stroke="#2E3192" stroke-linecap="round" stroke-miterlimit="10" stroke-width="2" fill="none">
		<polyline points="1117.9 367.5 1127.9 377.5 1154.4 377.5"/>
			<circle r="4.2" cy="377.6" cx="1158.6"/>
	</g>
	<g clip-path="url(#SVGID_2_)" stroke="#2E3192" stroke-linecap="round" stroke-miterlimit="10" stroke-width="2" fill="none">
		<polyline points="736.7 392.7 746.7 402.7 773.2 402.7"/>
			<circle r="4.2" cy="402.8" cx="777.4"/>
	</g>
	<g clip-path="url(#SVGID_2_)" stroke="#2E3192" stroke-linecap="round" stroke-miterlimit="10" stroke-width="2" fill="none">
		<polyline points="658.5 342.4 648.5 352.4 648.5 378.9"/>
			<circle r="4.2" cy="383.1" cx="648.4"/>
	</g>
	<g clip-path="url(#SVGID_2_)" stroke="#2E3192" stroke-linecap="round" stroke-miterlimit="10" stroke-width="2" fill="none">
		<polyline points="710.5 326.1 700.6 336.1 700.6 362.6"/>
			<circle r="4.2" cy="366.8" cx="700.5"/>
	</g>
	<g clip-path="url(#SVGID_2_)" stroke="#2E3192" stroke-linecap="round" stroke-miterlimit="10" stroke-width="2" fill="none">
		<polyline points="1005.7 456.8 995.7 466.8 995.7 493.3"/>
			<circle r="4.2" cy="497.5" cx="995.6"/>
	</g>
	<g clip-path="url(#SVGID_2_)" stroke="#2E3192" stroke-linecap="round" stroke-miterlimit="10" stroke-width="2" fill="none">
		<polyline points="736.7 315.9 745.2 324.4 745.2 347.1"/>
			<circle r="3.6" cy="350.7" cx="745.3"/>
	</g>
	<g clip-path="url(#SVGID_2_)" stroke="#2E3192" stroke-linecap="round" stroke-miterlimit="10" stroke-width="2" fill="none">
		<polyline points="291.7 446.8 281.8 456.8 281.8 483.3"/>
			<circle r="4.2" cy="487.5" cx="281.6"/>
	</g>
	<g clip-path="url(#SVGID_2_)" stroke="#2E3192" stroke-linecap="round" stroke-miterlimit="10" stroke-width="2" fill="none">
		<polyline points="650.6 424.4 660.5 434.4 660.5 460.9"/>
			<circle r="4.2" cy="465.1" cx="660.6"/>
	</g>
		<polyline clip-path="url(#SVGID_2_)" points="736.7 312.6 736.7 353.4 754.2 367.1 1203.3 367.1 1214.3 374.2 1214.3 384.4" stroke="#2E3192" stroke-linecap="round" stroke-miterlimit="10" stroke-width="2" fill="none"/>
	<g clip-path="url(#SVGID_2_)">
		<polyline stroke="#231F20" stroke-width=".5" stroke-miterlimit="10" points="1306 386.9 1304.1 385.9 1316.2 370.4" fill="none"/>
		<circle cy="375.4" cx="1309.9" r="1.6" fill="#FC495F"/>
		<g stroke-width=".5" stroke-miterlimit="10">
			<path stroke="#231F20" d="m1323.8 371l-9.4-0.8-21.8 13.7-5.2-0.2v1.2s-12.6-2.2-17.9-0.3h-72.1s-5.3 0.1-14.2 6.7l-6.2 4.1s-0.3 0.5-0.4 1.1h114.6l8.7-1.7 7.1-1.7 2.9-4c0.3-0.4 0.2-1-0.2-1.3l-0.5-0.3 9-14.7 5.6-1.8z" fill="#fff"/>
				<line y2="380.8" x1="1298.4" x2="1313.1" stroke="#ED1C24" stroke-linecap="round" y1="380.2" fill="none"/>
				<line y2="381.7" x1="1297.1" x2="1312.6" stroke="#ED1C24" stroke-linecap="round" y1="381.1" fill="none"/>
				<line y2="382.5" x1="1295.7" x2="1312.1" stroke="#ED1C24" stroke-linecap="round" y1="381.9" fill="none"/>
			<path stroke="#231F20" d="m1281.1 386.3v2.8c0 0.7-0.5 1.2-1.1 1.4-1.4 0.3-3.6 0.7-4.6 0.7s-3.3-0.5-4.6-0.8c-0.6-0.1-1.1-0.7-1.1-1.3l-0.1-2.7c0-0.7 0.5-1.3 1.2-1.4 1.5-0.3 3.9-0.7 4.9-0.6 0.9 0 3 0.4 4.3 0.6 0.6 0 1.1 0.6 1.1 1.3z" fill="none"/>
			<path stroke="#231F20" d="m1281.5 384.9v5.2l6.7-0.8c0.6-0.1 1.1-0.6 1.1-1.3v-0.7c0-0.6-0.4-1.1-1.1-1.2l-6.7-1.2z" fill="none"/>
			<path stroke="#231F20" d="m1270.5 390.2v3.2c0 0.7 0.6 1.3 1.3 1.3h4.6c0.7 0 1.3-0.6 1.3-1.3v-2.6" fill="none"/>
			<polyline stroke="#231F20" points="1297.5 394.7 1303.3 386.9 1309.2 387.3" fill="none"/>
			<line y2="384.9" x1="1303.3" x2="1287.3" stroke="#231F20" y1="386.9" fill="none"/>
			<path stroke="#231F20" d="m1212.9 392h-0.6c-0.3 0-0.5-0.2-0.5-0.5v-1.7c0-0.3 0.2-0.5 0.5-0.5h0.6c0.3 0 0.5 0.2 0.5 0.5v1.7c0.1 0.2-0.2 0.5-0.5 0.5z" fill="#fff"/>
			<path stroke="#231F20" d="m1204 395.1h-2.6c-0.9 0-1.6-0.7-1.6-1.6v-6.2c0-0.9 0.7-1.6 1.6-1.6h2.6c0.9 0 1.6 0.7 1.6 1.6v6.2c0 0.9-0.7 1.6-1.6 1.6z" fill="none"/>
			<path stroke="#231F20" d="m1217.2 392h-0.6c-0.3 0-0.5-0.2-0.5-0.5v-1.7c0-0.3 0.2-0.5 0.5-0.5h0.6c0.3 0 0.5 0.2 0.5 0.5v1.7c0 0.2-0.2 0.5-0.5 0.5z" fill="#fff"/>
			<path stroke="#231F20" d="m1221.5 392h-0.6c-0.3 0-0.5-0.2-0.5-0.5v-1.7c0-0.3 0.2-0.5 0.5-0.5h0.6c0.3 0 0.5 0.2 0.5 0.5v1.7c0 0.2-0.2 0.5-0.5 0.5z" fill="#fff"/>
			<path stroke="#231F20" d="m1225.7 392h-0.6c-0.3 0-0.5-0.2-0.5-0.5v-1.7c0-0.3 0.2-0.5 0.5-0.5h0.6c0.3 0 0.5 0.2 0.5 0.5v1.7c0.1 0.2-0.2 0.5-0.5 0.5z" fill="#fff"/>
			<path stroke="#231F20" d="m1230 392h-0.6c-0.3 0-0.5-0.2-0.5-0.5v-1.7c0-0.3 0.2-0.5 0.5-0.5h0.6c0.3 0 0.5 0.2 0.5 0.5v1.7c0 0.2-0.2 0.5-0.5 0.5z" fill="#fff"/>
			<path stroke="#231F20" d="m1234.2 392h-0.6c-0.3 0-0.5-0.2-0.5-0.5v-1.7c0-0.3 0.2-0.5 0.5-0.5h0.6c0.3 0 0.5 0.2 0.5 0.5v1.7c0.1 0.2-0.2 0.5-0.5 0.5z" fill="#fff"/>
			<path stroke="#231F20" d="m1238.5 392h-0.6c-0.3 0-0.5-0.2-0.5-0.5v-1.7c0-0.3 0.2-0.5 0.5-0.5h0.6c0.3 0 0.5 0.2 0.5 0.5v1.7c0 0.2-0.2 0.5-0.5 0.5z" fill="#fff"/>
			<path stroke="#231F20" d="m1242.7 392h-0.6c-0.3 0-0.5-0.2-0.5-0.5v-1.7c0-0.3 0.2-0.5 0.5-0.5h0.6c0.3 0 0.5 0.2 0.5 0.5v1.7c0.1 0.2-0.2 0.5-0.5 0.5z" fill="#fff"/>
			<path stroke="#231F20" d="m1247 392h-0.6c-0.3 0-0.5-0.2-0.5-0.5v-1.7c0-0.3 0.2-0.5 0.5-0.5h0.6c0.3 0 0.5 0.2 0.5 0.5v1.7c0 0.2-0.2 0.5-0.5 0.5z" fill="#fff"/>
			<path stroke="#231F20" d="m1251.2 392h-0.6c-0.3 0-0.5-0.2-0.5-0.5v-1.7c0-0.3 0.2-0.5 0.5-0.5h0.6c0.3 0 0.5 0.2 0.5 0.5v1.7c0.1 0.2-0.2 0.5-0.5 0.5z" fill="#fff"/>
			<path stroke="#231F20" d="m1255.5 392h-0.6c-0.3 0-0.5-0.2-0.5-0.5v-1.7c0-0.3 0.2-0.5 0.5-0.5h0.6c0.3 0 0.5 0.2 0.5 0.5v1.7c0 0.2-0.2 0.5-0.5 0.5z" fill="#fff"/>
			<path stroke="#231F20" d="m1259.8 392h-0.6c-0.3 0-0.5-0.2-0.5-0.5v-1.7c0-0.3 0.2-0.5 0.5-0.5h0.6c0.3 0 0.5 0.2 0.5 0.5v1.7c0 0.2-0.2 0.5-0.5 0.5z" fill="#fff"/>
			<g stroke="#231F20">
				<circle r="1.7" cy="402.5" cx="1188" fill="#6D6E71"/>
				<circle r="1.3" cy="402.5" cx="1188" fill="#58595B"/>
			</g>
			<path stroke="#231F20" d="m1187.4 399.7l2 1.5c0.2 0.1 0.2 0.4 0 0.5l-1.6 0.8 2.4-0.6c0.2 0 0.3-0.2 0.2-0.4l-0.9-2.2c0-0.1-0.1-0.2-0.3-0.2h-1.7c-0.2 0.1-0.3 0.4-0.1 0.6z" fill="none"/>
			<polygon stroke="#231F20" points="1189.9 388.6 1195.3 388.6 1195.3 391.6 1187.7 391.6" fill="#fff"/>
			<path stroke="#231F20" d="m1189.5 388.6s-1.4-0.1-1.6-0.6l-5.2 3.5 4.2 0.1 2.6-3z" fill="#fff"/>
			<path stroke="#231F20" d="m1233.9 384.5l10-5.3c0.6-0.3 0.4-1.3-0.3-1.3h-0.5-0.1l-21.9 6.5h12.8z" fill="#fff"/>
			<path stroke="#231F20" d="m1176.5 396.3c-0.1 0.8 0.1 1.7 1.9 2.2 3.1 0.8 21.3 0.8 21.3 0.8h28.9s44.4 0.8 50.4-0.6l12-2.4h-114.5z" fill="#32C8CE"/>
			<g stroke="#231F20">
				<path d="m1250.5 396.3h-8c-0.3 0-0.6 0.3-0.6 0.6s0.3 0.6 0.6 0.6h7.5l13.6-1.3h-13.1z" fill="none"/>
				<path d="m1243.5 396.3h-5.2c-0.7 0-1.2 0.6-1.2 1.2 0 0.7 0.6 1.2 1.2 1.2h17.7v-1.7" fill="none"/>
				<path d="m1238.1 396.3h-5.2c-0.7 0-2.7 0.6-2.7 1.2 0 0.7 2 1.2 2.7 1.2h17.7v-1.7" fill="none"/>
				<path d="m1239.9 396.3h-5.2c-0.7 0-2.7 0.6-2.7 1.2 0 0.7 2 1.2 2.7 1.2h17.7v-1.7" fill="none"/>
				<path d="m1263 394.7l-32.1 0.4c-0.2 0-0.4 0-0.6 0.1l-5.8 1.7c-0.7 0.3-0.7 1.3 0 1.6l5.7 1.8c0.3 0.1 0.6 0.2 0.9 0.2h36c0.4 0 0.9-0.2 1.2-0.5 0.9-1 0.6-2.7-0.7-3.3l-1.9-0.9 3.7-6.1h-1.5l-4.9 5z" fill="none"/>
				<path d="m1247.2 400.4v3.1s1.3-3.5 3.7-2.4v-0.6" fill="none"/>
				<circle r="1.7" cy="402.9" cx="1249.7" fill="#6D6E71"/>
				<circle r="1.3" cy="402.9" cx="1249.7" fill="#58595B"/>
				<path d="m1230.8 394.6l22 10.1c0.7 0.3 0.4 1.3-0.3 1.3h-0.6-0.1l-38.8-10.6 17.8-0.8z" fill="#fff"/>
			</g>
		</g>
	</g>
		<polyline clip-path="url(#SVGID_2_)" points="711.1 312.6 711.1 372.4 719.4 383.4 987.8 383.4 1019.4 414.1 1019.4 499.9 1036.2 518.5 1100.9 518.5 1109.1 526.7 1109.1 539.2" stroke="#2E3192" stroke-linecap="round" stroke-miterlimit="10" stroke-width="2" fill="none"/>
	<g clip-path="url(#SVGID_2_)">
			<path stroke="#231F20" stroke-miterlimit="10" d="m968.8 636.5c0.8-9.1 5-12.7 6.8-13.8 0.5-0.3 1-0.5 1.5-0.6l22.9-4.8 14.3-11.7h35.4l16.2 14.5 12.4 1.2c1.6 0.2 2.9 1.5 2.9 3.2v8.2c-0.4 6.3-7.6 8-7.6 8h-6.1c0.4-1 0.6-2 0.6-3.1 0-5.1-4.1-9.2-9.2-9.2s-9.2 4.1-9.2 9.2c0 1.1 0.2 2.1 0.6 3.1h-42.9c0.4-1 0.6-2 0.6-3.1 0-5.1-4.1-9.2-9.2-9.2s-9.2 4.1-9.2 9.2c0 1.1 0.2 2.1 0.6 3.1h-17.4c-2.4-0.1-4.2-2-4-4.2z" fill="#FC495F"/>
			<g stroke="#231F20" stroke-miterlimit="10">
				<path d="m990.7 637.4c0 4.4 3.5 7.9 7.9 7.9s7.9-3.5 7.9-7.9-3.5-7.9-7.9-7.9-7.9 3.5-7.9 7.9zm3 0c0-2.7 2.2-4.9 4.9-4.9s4.9 2.2 4.9 4.9-2.2 4.9-4.9 4.9-4.9-2.2-4.9-4.9z" fill="#58595B"/>
				<circle cx="998.6" cy="637.4" r="4" fill="#6D6E71"/>
			</g>
			<g stroke="#231F20" stroke-miterlimit="10">
				<path d="m1051.1 637.4c0 4.4 3.5 7.9 7.9 7.9s7.9-3.5 7.9-7.9-3.5-7.9-7.9-7.9-7.9 3.5-7.9 7.9zm3 0c0-2.7 2.2-4.9 4.9-4.9s4.9 2.2 4.9 4.9-2.2 4.9-4.9 4.9-4.9-2.2-4.9-4.9z" fill="#58595B"/>
				<circle cx="1059" cy="637.4" r="4" fill="#6D6E71"/>
			</g>
			<path stroke="#231F20" stroke-linecap="round" stroke-miterlimit="10" d="m969.9 631.6h8.4c1.8 0 3.3-1.5 3.3-3.3v0c0-1.8-1.5-3.3-3.3-3.3h-4.8" fill="none"/>
			<line y2="620.1" x2="1065.9" stroke="#231F20" stroke-miterlimit="10" y1="620.1" x1="1062.9" fill="none"/>
			<g fill="#231F20">
				<polygon points="1014.4 606 1018.3 607.5 1004 620.1 1e3 617.3"/>
				<polygon points="1019.3 607.6 1033.5 607.6 1033.5 620.1 1005.2 620.1"/>
				<polygon points="1035.1 607.6 1035.1 620.1 1061.8 620.1 1047.5 607.7"/>
				<polygon points="1048.3 607.7 1049.7 605.9 1065.5 619.7 1062.9 620.1"/>
			</g>
		<path stroke="#231F20" stroke-miterlimit="10" d="m1024.3 606.7h-0.3c-1.1-1.7-2.1-3.4-3.2-5.1-1.5-2.5-3.1-5-3.9-7.9-0.4-1.3-0.6-2.7-0.2-4 0.7-2.6 2.5-4.3 5-5.2 0.6-0.2 6.6-1.6 9.1 3.5 1.1 2.2 1.2 4.4 0.3 6.5-1 2.3-2.2 4.5-3.4 6.6-1 2-2.2 3.8-3.4 5.6zm-2.9-15c-0.1 1.3 1.3 2.8 2.7 2.8 1.5 0 2.6-0.9 2.9-2.7 0.1-1.1-1.2-2.6-2.4-2.7-2-0.2-3 1.1-3.2 2.6z" fill="#fff"/>
	</g>
		<circle r="4.8" clip-path="url(#SVGID_2_)" cy="457.9" stroke="#2E3192" cx="640.7" stroke-miterlimit="10" stroke-width="2" fill="#fff"/>
		<circle r="4.8" clip-path="url(#SVGID_2_)" cy="392.7" stroke="#2E3192" cx="812.5" stroke-miterlimit="10" stroke-width="2" fill="#fff"/>
		<circle r="4.8" clip-path="url(#SVGID_2_)" cy="367.5" stroke="#2E3192" cx="1088.6" stroke-miterlimit="10" stroke-width="2" fill="#fff"/>
		<circle r="4.8" clip-path="url(#SVGID_2_)" cy="466.7" stroke="#2E3192" cx="1019.4" stroke-miterlimit="10" stroke-width="2" fill="#fff"/>
	<g clip-path="url(#SVGID_2_)">
		<text font-size="21.47" font-family="&apos;MyriadPro-Regular&apos;" transform="translate(1058.8 446.55)" fill="#FFFFFF">Logistic Portal</text>
	</g>
	<g clip-path="url(#SVGID_2_)">
		<text font-size="21.47" font-family="&apos;MyriadPro-Regular&apos;" transform="translate(406.22 418.91)" fill="#FFFFFF">BCP service</text>
	</g>
	<g clip-path="url(#SVGID_2_)">
		<text font-size="21.47" font-family="&apos;MyriadPro-Regular&apos;" transform="translate(113.49 529.02)" fill="#FFFFFF">GPS Tracking</text>
	</g>
</svg>
