<?xml version="1.0" encoding="UTF-8" standalone="no"?>
<!-- Generator: Adobe Illustrator 18.0.0, SVG Export Plug-In . SVG Version: 6.00 Build 0)  -->
<!DOCTYPE svg  PUBLIC '-//W3C//DTD SVG 1.1//EN'  'http://www.w3.org/Graphics/SVG/1.1/DTD/svg11.dtd'>
<svg id="Layer_1" xmlns="http://www.w3.org/2000/svg" xml:space="preserve" viewBox="0 0 1366 648" version="1.1" y="0px" x="0px" xmlns:xlink="http://www.w3.org/1999/xlink" enable-background="new 0 0 1366 648">
	<linearGradient id="SVGID_1_" y2="651.49" gradientUnits="userSpaceOnUse" x2="683" y1="4.2654" x1="683">
		<stop stop-color="#4DD0E1" offset="0"/>
		<stop stop-color="#00BCD4" offset="1"/>
	</linearGradient>
	<rect width="1366" height="648" fill="url(#SVGID_1_)"/>
						<path d="m760 343.4c11.3 0 20.4-9.2 20.4-20.4 0-11.3-9.2-20.4-20.4-20.4-0.7 0-1.3 0-2 0.1 2.2-3.8 3.5-8.2 3.5-12.9 0-14.2-11.5-25.7-25.7-25.7-6.4 0-12.3 2.3-16.8 6.2-4.4-24.3-25.6-42.7-51.1-42.7-28.7 0-51.9 23.2-51.9 51.9 0 2.8 0.2 5.5 0.6 8.1-1-0.1-2.1-0.2-3.2-0.2-15.4 0-28 12.5-28 28 0 14.4 10.8 26.2 24.8 27.8l149.8 0.2z" fill="#fff"/>
			<path stroke="#fff" stroke-miterlimit="10" d="m816.8 639.2h-44.3c-5.6 0-10.1-4.5-10.1-10.1v-33.4c0-5.6 4.5-10.1 10.1-10.1h44.3c5.6 0 10.1 4.5 10.1 10.1v33.4c0 5.6-4.5 10.1-10.1 10.1z" fill="#FFC300"/>
			<path stroke="#fff" stroke-miterlimit="10" d="m786.3 585l-0.1-4.9c0-1.5 1.2-2.8 2.7-2.8l11.6-0.2c1.5 0 2.8 1.2 2.8 2.7l0.1 5.2h1.3v-7.1c0-1.5-1.2-2.8-2.8-2.8h-14.2c-1.5 0-2.8 1.2-2.8 2.8v7.1h1.4z" fill="#414042"/>
				<circle cx="795.3" cy="615.3" stroke="#939598" r="14.7" stroke-miterlimit="10" fill="#E6E7E8"/>
				<polygon points="804.7 613.6 797 613.6 797 605.9 793.7 605.9 793.7 613.6 786 613.6 786 616.9 793.7 616.9 793.7 624.6 797 624.6 797 616.9 804.7 616.9" fill="#ED1C24"/>
			<rect y="410.6" x="675.6" height="4.2" width="21.5" fill="#D1D3D4"/>
			<rect y="414.7" x="679.5" height="29.6" width="13.7" fill="#F1F2F2"/>
			<path d="m679.5 444.4v8.3c0 3.8 3.1 6.9 6.9 6.9s6.9-3.1 6.9-6.9v-8.3h-13.8z" fill="#FFC300"/>
			<rect y="374.8" x="435.8" height="4.2" width="21.5" fill="#D1D3D4"/>
			<rect y="379" x="439.7" height="29.6" width="13.7" fill="#F1F2F2"/>
			<path d="m439.7 408.7v8.3c0 3.8 3.1 6.9 6.9 6.9s6.9-3.1 6.9-6.9v-8.3h-13.8z" fill="#FFC300"/>
				<path d="m752.3 485.7v14c0 3.8 3.1 6.9 6.9 6.9s6.9-3.1 6.9-6.9v-14h-13.8z" fill="#FFC300"/>
				<path d="m766 485.7v-14c0-3.8-3.1-6.9-6.9-6.9s-6.9 3.1-6.9 6.9v14h13.8z" fill="#F1F2F2"/>
				<path d="m779.8 491.6l8.1-11.3c2.2-3.1 1.5-7.4-1.6-9.6s-7.4-1.5-9.6 1.6l-8.1 11.3 11.2 8z" fill="#FFC300"/>
				<path d="m768.6 483.6l-8.1 11.3c-2.2 3.1-1.5 7.4 1.6 9.6s7.4 1.5 9.6-1.6l8.1-11.3-11.2-8z" fill="#F1F2F2"/>
		<g stroke="#fff" stroke-miterlimit="10">
			<path d="m1009.7 545.5c3.1 9.3 11.8 16 22.1 16 10.1 0 18.6-6.4 21.9-15.3-6.5 3.1-13.7 4.8-21.3 4.8-8.2 0.1-15.9-1.9-22.7-5.5z" fill="#FFC300"/>
			<path d="m1036.4 515.4v-35.1h-9.2v35.1c-10.7 2.1-18.7 11.6-18.7 22.9 0 2.6 0.4 5 1.2 7.3 6.8 3.5 14.5 5.5 22.7 5.5 7.6 0 14.9-1.7 21.3-4.8 0.9-2.5 1.4-5.2 1.4-8 0-11.3-8-20.8-18.7-22.9z" fill="none"/>
		</g>
				<path stroke="#fff" stroke-width="2" stroke-miterlimit="10" d="m334.9 403.2l6.5 2.9c2.3 1 4.1 3 5.1 5.4l7.1 18.6c0.9 2.3 1.2 4.8 0.9 7.3-0.7 5.2-3.3 13.7-13 18.4-10.4 2.9-18-1.7-21.9-5.1-1.9-1.6-3.3-3.7-4.2-6.1l-7.1-18.6c-0.9-2.4-0.8-5 0.2-7.4l2.9-6.5" fill="none"/>
			<path stroke="#fff" stroke-width="2" stroke-miterlimit="10" d="m341.8 455.7l7.8 20.6c2.5 6.6 9.9 10 16.6 7.5 6.6-2.5 10-9.9 7.5-16.6l-5.9-15.7c-2.5-6.6 0.8-14.1 7.5-16.6 6.6-2.5 14.1 0.8 16.6 7.5l13 34.3c2.5 6.6 9.9 10 16.6 7.5l7.5-2.8" fill="none"/>
			<circle cy="478.9" cx="434.1" r="6.4" fill="#C6C6C6"/>
			<circle cy="478.9" cx="434.1" r="4.9" fill="#535353"/>
				<path d="m311.7 412c0.2 0.6 0.1 1.2-0.3 1.7 0.4 0.1 0.8 0.1 1.2-0.1 1-0.4 1.6-1.5 1.2-2.4s-1.5-1.4-2.5-1c-0.4 0.2-0.7 0.4-1 0.7 0.7 0.1 1.2 0.5 1.4 1.1z" fill="#939598"/>
				<path d="m312.6 411.6c-0.3-0.7-0.2-1.5 0.1-2.1-0.4-0.1-0.8-0.1-1.3 0-1.1 0.4-1.6 1.7-1.1 2.9s1.7 1.8 2.8 1.4c0.4-0.2 0.7-0.4 1-0.8-0.6-0.1-1.2-0.6-1.5-1.4z" fill="#414042"/>
				<path d="m334.3 403.4c0.2 0.6 0.7 1 1.3 1.1-0.2 0.3-0.6 0.6-1 0.7-1 0.4-2.2 0-2.5-1-0.4-0.9 0.2-2 1.2-2.4 0.4-0.2 0.8-0.2 1.2-0.1-0.3 0.5-0.4 1.1-0.2 1.7z" fill="#939598"/>
				<path d="m333.4 403.7c-0.3-0.7-0.9-1.3-1.5-1.5 0.2-0.4 0.5-0.7 1-0.8 1.1-0.4 2.3 0.2 2.8 1.4s0 2.5-1.1 2.9c-0.4 0.2-0.8 0.2-1.3 0 0.3-0.4 0.4-1.2 0.1-2z" fill="#414042"/>
		<g stroke-miterlimit="10">
				<rect transform="matrix(-.5609 .8279 -.8279 -.5609 1947.7 -29.6)" height="18.3" width="65" stroke="#fff" y="492.6" x="949.2" fill="#D1D3D4"/>
				<rect transform="matrix(.5609 -.8279 .8279 .5609 47.94 1036.6)" height="11.2" width="4.2" stroke="#fff" y="467.5" x="999" fill="none"/>
				<rect transform="matrix(-.5609 .8279 -.8279 -.5609 1955.1 -97.59)" height="6.6" width="4" stroke="#fff" y="466.4" x="1001.4" fill="none"/>
				<rect transform="matrix(-.5609 .8279 -.8279 -.5609 1939.5 46.176)" height="11.5" width="8.2" stroke="#6D6E71" y="531.7" x="953.4" fill="none"/>
				<rect transform="matrix(.5609 -.8279 .8279 .5609 -30.388 1028.1)" height="18.4" width="4.4" stroke="#939598" y="533.5" x="951.8" fill="none"/>
			<line y2="440.7" x2="1023" stroke="#fff" y1="471.4" x1="1002.3" fill="none"/>
			<line y2="481.3" x2="998.7" stroke="#fff" y1="474.7" x1="989" fill="none"/>
			<line y2="491.9" x2="991.5" stroke="#fff" y1="485.3" x1="981.8" fill="none"/>
			<line y2="480.7" x2="993.2" stroke="#fff" y1="476.8" x1="987.5" fill="none"/>
			<line y2="482.8" x2="991.7" stroke="#fff" y1="479" x1="986.1" fill="none"/>
			<line y2="484.9" x2="990.3" stroke="#fff" y1="481.1" x1="984.7" fill="none"/>
			<line y2="487" x2="988.9" stroke="#fff" y1="483.2" x1="983.2" fill="none"/>
			<line y2="501.9" x2="984.7" stroke="#fff" y1="495.3" x1="975" fill="none"/>
			<line y2="490.6" x2="986.4" stroke="#fff" y1="486.8" x1="980.8" fill="none"/>
			<line y2="492.8" x2="985" stroke="#fff" y1="489" x1="979.3" fill="none"/>
			<line y2="494.9" x2="983.5" stroke="#fff" y1="491.1" x1="977.9" fill="none"/>
			<line y2="497" x2="982.1" stroke="#fff" y1="493.2" x1="976.4" fill="none"/>
			<line y2="511.9" x2="978" stroke="#fff" y1="505.3" x1="968.2" fill="none"/>
			<line y2="500.6" x2="979.6" stroke="#fff" y1="496.8" x1="974" fill="none"/>
			<line y2="502.8" x2="978.2" stroke="#fff" y1="499" x1="972.6" fill="none"/>
			<line y2="504.9" x2="976.8" stroke="#fff" y1="501.1" x1="971.1" fill="none"/>
			<line y2="507" x2="975.3" stroke="#fff" y1="503.2" x1="969.7" fill="none"/>
			<line y2="521.9" x2="971.2" stroke="#fff" y1="515.3" x1="961.5" fill="none"/>
			<line y2="510.6" x2="972.9" stroke="#fff" y1="506.8" x1="967.2" fill="none"/>
			<line y2="512.8" x2="971.4" stroke="#fff" y1="509" x1="965.8" fill="none"/>
			<line y2="514.9" x2="970" stroke="#fff" y1="511.1" x1="964.3" fill="none"/>
			<line y2="517" x2="968.5" stroke="#fff" y1="513.2" x1="962.9" fill="none"/>
				<rect transform="matrix(.5609 -.8279 .8279 .5609 -17.622 1029.5)" height="26.6" width="6.5" stroke="#fff" y="518" x="958.4" fill="none"/>
		</g>
		<g stroke-miterlimit="10">
			<rect height="18.3" width="65" stroke="#fff" y="534" x="195.6" fill="#D1D3D4"/>
			<rect height="11.2" width="4.2" stroke="#fff" y="537.5" x="260.7" fill="none"/>
			<rect height="6.6" width="4" stroke="#fff" y="539.8" x="264.8" fill="none"/>
			<rect height="11.5" width="8.2" stroke="#6D6E71" y="537.3" x="180.9" fill="none"/>
			<rect height="18.4" width="4.4" stroke="#939598" y="533.9" x="176.5" fill="none"/>
			<line y2="543.1" x2="301.9" stroke="#fff" y1="543.1" x1="264.8" fill="none"/>
			<line y2="540.5" x2="254.6" stroke="#fff" y1="552.2" x1="254.6" fill="none"/>
			<line y2="540.5" x2="241.8" stroke="#fff" y1="552.2" x1="241.8" fill="none"/>
			<line y2="545.4" x2="252.1" stroke="#fff" y1="552.2" x1="252.1" fill="none"/>
			<line y2="545.4" x2="249.5" stroke="#fff" y1="552.2" x1="249.5" fill="none"/>
			<line y2="545.4" x2="246.9" stroke="#fff" y1="552.2" x1="246.9" fill="none"/>
			<line y2="545.4" x2="244.3" stroke="#fff" y1="552.2" x1="244.3" fill="none"/>
			<line y2="540.5" x2="229.7" stroke="#fff" y1="552.2" x1="229.7" fill="none"/>
			<line y2="545.4" x2="240" stroke="#fff" y1="552.2" x1="240" fill="none"/>
			<line y2="545.4" x2="237.4" stroke="#fff" y1="552.2" x1="237.4" fill="none"/>
			<line y2="545.4" x2="234.8" stroke="#fff" y1="552.2" x1="234.8" fill="none"/>
			<line y2="545.4" x2="232.3" stroke="#fff" y1="552.2" x1="232.3" fill="none"/>
			<line y2="540.5" x2="217.6" stroke="#fff" y1="552.2" x1="217.6" fill="none"/>
			<line y2="545.4" x2="227.9" stroke="#fff" y1="552.2" x1="227.9" fill="none"/>
			<line y2="545.4" x2="225.3" stroke="#fff" y1="552.2" x1="225.3" fill="none"/>
			<line y2="545.4" x2="222.8" stroke="#fff" y1="552.2" x1="222.8" fill="none"/>
			<line y2="545.4" x2="220.2" stroke="#fff" y1="552.2" x1="220.2" fill="none"/>
			<line y2="540.5" x2="205.5" stroke="#fff" y1="552.2" x1="205.5" fill="none"/>
			<line y2="545.4" x2="215.8" stroke="#fff" y1="552.2" x1="215.8" fill="none"/>
			<line y2="545.4" x2="213.3" stroke="#fff" y1="552.2" x1="213.3" fill="none"/>
			<line y2="545.4" x2="210.7" stroke="#fff" y1="552.2" x1="210.7" fill="none"/>
			<line y2="545.4" x2="208.1" stroke="#fff" y1="552.2" x1="208.1" fill="none"/>
			<rect height="26.6" width="6.5" stroke="#fff" y="529.8" x="189.1" fill="none"/>
		</g>
			<polygon stroke="#fff" points="852.4 513 866.8 513 866.8 450.3 809 450.3 809 526.3 852.4 526.3" stroke-miterlimit="10" fill="none"/>
			<line y2="526.3" x2="852.4" stroke="#fff" stroke-miterlimit="10" y1="513" x1="866.8" fill="none"/>
			<line y2="467.2" x2="853.6" stroke="#fff" stroke-miterlimit="10" y1="467.2" x1="812.2" fill="none"/>
			<line y2="473.9" x2="853.6" stroke="#fff" stroke-miterlimit="10" y1="473.9" x1="812.2" fill="none"/>
			<line y2="480.5" x2="853.6" stroke="#fff" stroke-miterlimit="10" y1="480.5" x1="812.2" fill="none"/>
			<line y2="487.2" x2="853.6" stroke="#fff" stroke-miterlimit="10" y1="487.2" x1="812.2" fill="none"/>
			<line y2="493.9" x2="853.6" stroke="#fff" stroke-miterlimit="10" y1="493.9" x1="812.2" fill="none"/>
			<line y2="500.6" x2="853.6" stroke="#fff" stroke-miterlimit="10" y1="500.6" x1="812.2" fill="none"/>
			<line y2="507.2" x2="853.6" stroke="#fff" stroke-miterlimit="10" y1="507.2" x1="812.2" fill="none"/>
			<polyline stroke="#FFC300" points="856.4 466.3 858.7 468.6 863.1 464.2" stroke-miterlimit="10" fill="none"/>
			<polyline stroke="#FFC300" points="856.4 472.7 858.7 475.1 863.1 470.7" stroke-miterlimit="10" fill="none"/>
			<g stroke="#ED1C24" stroke-miterlimit="10" fill="none">
				<line y2="478" x2="862.3" y1="482.3" x1="857.9"/>
				<line y2="478" x2="857.9" y1="482.3" x1="862.3"/>
			</g>
			<g stroke="#ED1C24" stroke-miterlimit="10" fill="none">
				<line y2="491.2" x2="862.3" y1="495.6" x1="857.9"/>
				<line y2="491.2" x2="857.9" y1="495.6" x1="862.3"/>
			</g>
			<polyline stroke="#FFC300" points="856.4 485.7 858.7 488 863.1 483.7" stroke-miterlimit="10" fill="none"/>
			<polyline stroke="#FFC300" points="856.4 498.6 858.7 501 863.1 496.6" stroke-miterlimit="10" fill="none"/>
			<polyline stroke="#FFC300" points="856.4 505.1 858.7 507.5 863.1 503.1" stroke-miterlimit="10" fill="none"/>
			<text font-size="8.0036" font-family="&apos;TimesNewRomanPSMT&apos;" transform="translate(826.1 459.81)" fill="#FFFFFF">Report</text>
			<rect height="64.2" width="3.8" stroke="#fff" stroke-miterlimit="10" y="581.6" x="1045.7" fill="none"/>
				<rect y="610.9" x="1049.4" height="25.3" width="140.1" fill="#F1F2F2"/>
				<rect height="45.2" width="3.8" stroke="#fff" stroke-miterlimit="10" y="600.5" x="1189.5" fill="none"/>
				<path stroke="#fff" stroke-miterlimit="10" d="m1076 608.9c0 2.4-5.8 1.9-12.9 1.9s-12.9-1.9-12.9-4.3 5.8-4.3 12.9-4.3 12.9 4.3 12.9 6.7z" fill="none"/>
				<rect y="445.5" x="1202.1" height="202.5" width="5.2" fill="#808285"/>
				<path d="m1168.4 471.5v10.9c0 3.3 2.4 6.1 5.6 6.6v0.7c0 0.7 0.6 1.2 1.2 1.2h1c0.7 0 1.2-0.6 1.2-1.2v-0.7c3.2-0.5 5.6-3.2 5.6-6.6v-11.1c-1.1 0.9-4 1.6-7.5 1.6-3.1 0-5.9-0.6-7.1-1.4z" fill="#FFC300"/>
				<path d="m1180.2 459.5h-8.3c-3.7 0-3.5 3-3.5 6.6v4.7c1.2 0.8 4 1.4 7.3 1.4 3.5 0 6.4-0.7 7.5-1.6v-4.5c0-3.6 0.7-6.6-3-6.6z" fill="#FFC300"/>
				<rect y="469" x="1183.2" height="4.7" width="23.6" fill="#808285"/>
				<path stroke="#fff" stroke-miterlimit="10" d="m1175.6 490.8v63.2s-0.9 9.2-11.8 11.3c0 0-12.4-0.3-12.6-11.3v-21.8s1.6-13.1-11.1-13.1c0 0-11.3-0.2-11.7 19.3 0 0-2.1 34.2-5.9 43.2-3 7.2-21.5 21.5-21.5 21.5" fill="none"/>
				<g fill="#fff">
					<rect y="604.8" x="1143.8" height="3.8" width="32.7"/>
					<path d="m1088 602.5v7.9h64.2v-7.9h-64.2zm41.4 6.8h-34.1v-5.1h34.1v5.1z"/>
					<rect y="604.8" x="1096" height="3.8" width="32.7"/>
					<rect y="601.6" x="1173.5" height="7.1" width="3.1"/>
					<circle cy="604.2" cx="1081.4" r="6.2"/>
				</g>
				<ellipse ry="6.9" rx="10.1" stroke="#fff" transform="matrix(.7682 -.6402 .6402 .7682 -228.15 408.48)" cy="519.3" cx="450.1" stroke-miterlimit="10" fill="none"/>
				<ellipse ry="6.2" rx="8.7" stroke="#fff" transform="matrix(.7682 -.6402 .6402 .7682 -227.75 408.61)" cy="518.8" cx="450.4" stroke-miterlimit="10" fill="none"/>
			<path d="m454.5 524.6l54-40.1-49.6 31.6s-0.1 6-4.4 8.5z" fill="#D1D3D4"/>
				<ellipse ry="6.9" rx="10.1" stroke="#fff" transform="matrix(.7017 -.7125 .7125 .7017 -243.79 487.27)" cy="534.7" cx="460" stroke-miterlimit="10" fill="none"/>
				<ellipse ry="6.2" rx="8.7" stroke="#fff" transform="matrix(.7017 -.7125 .7125 .7017 -242.65 487.2)" cy="533.3" cx="460.4" stroke-miterlimit="10" fill="none"/>
			<path d="m455.1 529.9l44.4-50.5-35.6 46.8s-6-0.4-8.8 3.7z" fill="#D1D3D4"/>
			<circle cy="505.7" cx="477.9" r=".8" fill="#414042"/>
			<g fill="#fff">
				<path d="m409.6 573.8c-2.3-5.9 3.1-12.1 9.6-11.2 6.9 0.9 10.3 6.6 7.9 13.1-0.5 1.3-1.1 2.6-1.8 3.8-1.9 3.1-2.8 6.5-2.1 10.1 0 0.3 0 0.5 0.1 0.8 0.1 4.4-2.1 7.3-5.6 7.2s-5.7-3.3-5.2-7.1c0.5 1.1 1 2.9 2.2 4.1 1 1 2.9 1.8 4.1 1.5s2.3-2 3-3.3c0.5-1.1 0.5-2.6 0.3-3.9-0.4-3.2 0.2-6.1 1.8-8.9 1.1-1.9 1.9-4 2.4-6.1 1.2-4.6-1.5-8.5-6.1-9.4-5.1-0.9-8.7 1.7-9.3 6.8-0.1 0.7-0.1 1.4-0.3 2.1-0.2 0.1-0.6 0.2-1 0.4z"/>
				<path d="m416.9 582.8c-0.5-1.5-0.9-3-1.3-4.5s-1.1-3-1.3-4.6c-0.4-3.1 1.1-5.1 3.7-5.4 2.2-0.3 5.3 1.2 5 5.1-0.5-0.7-0.9-1.1-1.1-1.5-0.7-2.2-2.2-3-4.3-2.5-2.2 0.5-2.8 2.4-2.5 4.3 0.2 1.5 1 3 1.3 4.5 0.4 1.5 0.6 3 0.8 4.6h-0.3z"/>
				<path d="m414.4 590c1.2 0.4 2.9 1.5 3.6 1.1 1-0.6 1.6-2.3 2-3.6 0.3-1.2 0.1-2.5 0.6-3.7 0 1.8 0.3 3.7-0.1 5.3-0.3 1.2-1.6 2.6-2.7 3-1.8 0.6-2.9-0.8-3.4-2.1z"/>
			</g>
				<path d="m416 627.1c-0.6-2.8-1.1-5.7-1.8-8.5-0.5-2.2-1.3-4.4-1.9-6.6-0.3-1-0.7-2-0.7-3.1-0.1-3 2.2-4.9 5.2-4.1 2.4 0.6 4.6 0.6 6.9 0 3.6-0.9 6.3 2 4.9 5.8-1.7 4.5-2.4 9.2-3.4 13.9-0.2 0.8-0.6 1.6-1.2 2.4-0.2-1.3-0.3-2.6-0.5-3.9-0.3-2.6-1.6-4.3-3.1-4.4-1.6-0.1-2.9 1.5-3.3 4.3-0.1 0.7-0.2 1.3-0.3 2s-0.1 1.3-0.1 2c-0.2 0.1-0.5 0.2-0.7 0.2zm10.1-18.8c-1.3 1.4-2.3 7.7-1.6 11 0.5-3.9 1.1-7.5 1.6-11zm-8-1.3c-0.2-0.2-0.3-0.5-0.5-0.7-0.9 0.5-2 0.7-2.5 1.4-0.6 0.8-0.7 2-1 3 0.3 0.1 0.5 0.3 0.8 0.4-0.3-2.3 0.5-3.9 3.2-4.1z" fill="#fff"/>
				<path d="m426.1 608.3c-0.5 3.5-1 7.1-1.6 11-0.8-3.2 0.3-9.5 1.6-11z" fill="#939598"/>
				<path d="m418.1 607c-2.6 0.2-3.4 1.8-3.2 4.2-0.3-0.1-0.5-0.3-0.8-0.4 0.3-1 0.4-2.2 1-3 0.5-0.7 1.7-1 2.5-1.4 0.1 0.1 0.3 0.4 0.5 0.6z" fill="#939598"/>
			<g fill="#fff">
				<path d="m382.9 625.4c-6.4-0.2-11.5-2.9-15.3-7.9-0.9-1.1-1-2-0.1-3.3 7.4-10.6 23.9-10.6 31.1 0 0.8 1.2 0.8 2.1-0.1 3.3-3.9 5.3-9.2 7.9-15.6 7.9zm14.2-9.6c-6.1-9.4-20.1-10.2-27.1-1.5-0.8 1-1.1 1.8-0.2 2.9 6.9 8.9 21.5 8.1 27.3-1.4z"/>
				<path d="m383.2 609.6c-3.4-0.1-6.4 2.9-6.4 6.4s2.8 6.2 6.2 6.2c3.6 0 6.4-2.7 6.3-6.4 0-3.4-2.7-6.2-6.1-6.2zm-1.8 3.7h-0.1c-0.2 0.3-0.5 0.5-0.9 0.5-0.5 0-0.9-0.4-0.9-0.9s0.4-1 1-1c0.2 0 0.5 0.1 0.6 0.3 0.1-0.1 0.2-0.1 0.3-0.1 0.3 0 0.6 0.3 0.6 0.6 0.1 0.3-0.2 0.6-0.6 0.6z"/>
			</g>
				<path d="m421 557.5c-0.7-0.1-1.8-0.1-2-0.4-0.7-1.6-1.1-3.2-1.4-4.9-0.2-0.9 0.2-1.9 0.3-2.9-7.4 1.6-11.5-2.3-9.8-9.9-3 0.3-6.1 1.2-8.3-1.7-0.2-0.3 0.3-1.1 0.5-1.8 3.7 2.6 7.3 2.4 9.8-0.2s2.5-6 0.1-9.1c0.8-1.6 2-1.4 2.4-0.1 0.8 2.3 1.1 4.8 1.7 7.4 2.1-0.4 5.2-0.9 7.5 1.5s2.2 5.2 1.2 8.4c3.3-0.6 6.4-1.2 8.7 1.7 0.2 0.3-0.4 1.1-0.7 1.7-3.4-2.7-6.9-2.6-9.5 0.1s-2.7 6.1-0.3 9c-0.1 0.6-0.2 0.9-0.2 1.2zm-6.4-9.8c4 0 7-3 6.9-7.1 0-3-1.9-4.9-5-4.9-4 0-6.9 3-6.9 7.1 0.1 3.1 1.9 4.9 5 4.9z" fill="#fff"/>
				<path d="m410.2 528.5c-0.7 2-6.4 7.6-7.7 7.6 2.4-2.4 5.1-5.1 7.7-7.6z" fill="#fff"/>
				<path d="m430 547.9c-2.8 2.7-5.5 5.3-8.3 8-0.5-2.2 5-8 7.4-8.9l0.9 0.9z" fill="#fff"/>
				<path d="m404.9 536.9c2-1.9 3.9-3.6 5.6-5.2 0.2 1.7-2.9 4.8-5.6 5.2z" fill="#fff"/>
				<path d="m426.3 546.6c-2.1 1.9-4 3.6-5.7 5.1-0.1-1.6 2.9-4.8 5.7-5.1z" fill="#fff"/>
				<path stroke="#fff" stroke-miterlimit="10" d="m414.6 547.7c-3.1 0-5-1.8-5-4.8 0-4 2.9-7 6.9-7.1 3.1 0 5 1.8 5 4.9 0.1 3.9-2.9 6.9-6.9 7zm2.4-11c-2.1 0-6.3 4.1-6.3 6.4 2.1-2.1 4.3-4.3 6.3-6.4zm-2.9 10.1c2.8-0.6 6.6-4.7 6.5-6.4-2.1 2-4.2 4.2-6.5 6.4zm-2.1-0.5l-0.8-0.8c2.7-2.7 5.5-5.4 8.2-8.1l0.3 0.3c-2.5 2.9-5.1 5.7-7.7 8.6z" fill="#FFC300"/>
				<path d="m417 536.7c-2.1 2.1-4.2 4.2-6.3 6.4 0.1-2.3 4.2-6.4 6.3-6.4z" fill="#fff"/>
				<path d="m414.1 546.8c2.3-2.3 4.4-4.4 6.5-6.4 0.1 1.8-3.7 5.8-6.5 6.4z" fill="#fff"/>
				<path d="m412 546.3c2.6-2.8 5.2-5.7 7.8-8.5l-0.3-0.3c-2.7 2.7-5.5 5.4-8.2 8.1 0.2 0.1 0.5 0.4 0.7 0.7z" fill="#fff"/>
			<g fill="#fff">
				<path d="m383.8 587.6c0.7-0.3 1.4-0.6 2.4-1.1 0.6 3-0.3 5.3-1.6 7.6-1.1 2-4 2-5.2 0-1-1.8-2-3.6-2.9-5.4-0.2-0.4 0.6-1.4 1-2.2 2.2 1.1 3.8 4.2 6.3 1.1 0.1-0.1 0 0 0 0z"/>
					<path d="m383.9 586.8c-0.1 0-0.1 0.1-0.1 0.1l0.1-0.1z"/>
					<path d="m383.6 581.7c-0.2-0.3-0.4-0.5-0.6-0.8l2.4-0.9c-0.1-0.2-0.3-0.4-0.4-0.5-0.5 0-1 0.1-1.9 0.2 0.9-0.9 1.4-1.5 2.1-2.3h-2c0.7-0.8 1.3-1.3 2-2.1h-2.1c0.8-0.8 1.4-1.2 2.2-2h-2.2c0.8-0.7 1.3-1.1 1.8-1.6-0.6-0.2-1.1-0.4-1.7-0.7 0.7-0.5 1.1-0.9 1.7-1.4-0.6-0.2-1-0.4-2.2-0.9 1.1-0.4 1.7-0.6 2.4-0.8-0.2-0.2-0.3-0.4-0.5-0.5-0.4 0-0.7-0.1-1-0.1 0.3-1.1 1-2.3 0.8-3.3-0.4-1.6-0.4-3.1-0.1-4.7 0.2-1.4 0.7-3.4 0-4.1-1.9-1.8-0.9-4-1.3-5.9-0.2-0.6-0.8-1.1-1.4-1.6-0.5 0.5-1.2 1-1.4 1.6-0.5 1.9 0.6 4.1-1.3 5.9-0.7 0.6-0.2 2.7 0 4.1 0.3 1.6 0.2 3.1-0.1 4.7-0.2 1 0.5 2.2 0.8 3.3-0.3 0-0.6 0.1-1 0.1-0.2 0.2-0.3 0.4-0.5 0.5 0.6 0.2 1.3 0.4 2.4 0.8-1.2 0.5-1.6 0.7-2.2 0.9 0.6 0.5 1 0.8 1.7 1.4-0.7 0.3-1.1 0.4-1.7 0.7 0.6 0.5 1.1 0.9 1.8 1.6h-2.2c0.8 0.7 1.4 1.2 2.2 2h-2.1c0.7 0.8 1.3 1.3 2 2.1h-2c0.7 0.8 1.3 1.4 2.1 2.3-0.9-0.1-1.4-0.1-1.9-0.2-0.1 0.2-0.3 0.4-0.4 0.5l2.4 0.9c-0.2 0.3-0.4 0.5-0.6 0.8h-1.8c0.8 1 1.5 1.7 2.5 3-1.2-0.3-1.8-0.4-2.5-0.5 0.5 1 1 1.8 1.4 2.6 0.8 0.1 1.6 0.2 2.4 0.1 0.8 0.1 1.6 0 2.4-0.1 0.5-0.8 0.9-1.7 1.4-2.6-0.7 0.1-1.3 0.3-2.5 0.5 1.1-1.3 1.7-2 2.5-3h-1.8z"/>
					<path d="m379.2 586.9s-0.1-0.1 0 0l-0.1-0.1 0.1 0.1z"/>
			</g>
			<path stroke="#fff" stroke-width="2" stroke-miterlimit="10" d="m431.3 631.2h-67.5c-3.1 0-5.5-2.5-5.5-5.5v-99.1c0-3.1 2.5-5.5 5.5-5.5h67.5c3.1 0 5.5 2.5 5.5 5.5v99.1c0 3.1-2.5 5.5-5.5 5.5z" fill="none"/>
			<circle cx="364.2" cy="527.2" stroke="#fff" r="2.6" stroke-miterlimit="10" fill="none"/>
			<circle cx="431.6" cy="527.2" stroke="#fff" r="2.6" stroke-miterlimit="10" fill="none"/>
			<circle cx="364.2" cy="627.1" stroke="#fff" r="2.6" stroke-miterlimit="10" fill="none"/>
			<circle cx="431.6" cy="627.1" stroke="#fff" r="2.6" stroke-miterlimit="10" fill="none"/>
			<path d="m254.7 417.6l-6.7 6.4c12.5 2.9 21 13.3 21 26.8 0 15.6-12.7 28.3-28.3 28.3-12.8 0-23.6-8.4-27.1-20h-8.4c3.8 16.1 18.2 28.2 35.5 28.2 20.1 0 36.5-16.3 36.5-36.5 0-15.6-8.8-28-22.5-33.2z" fill="#fff"/>
			<polygon points="252.9 413.6 245.7 405.2 253.6 397.5 251.7 395.7 221.9 424.7 232.6 437 264.2 407.8 261.7 405.4" fill="#fff"/>
			<polygon points="252.9 412.5 271.4 395.4 264.1 388.3 246.7 405.3" fill="#FFC300"/>
			<rect y="451" x="189.6" height="6.9" width="40.9" fill="#fff"/>
			<path d="m243.1 488.1c23.1 0 30.4 7.6 32.7 11.6h1s-2.5-13.9-33.7-13.9c-32.3 0-33.7 13.9-33.7 13.9h0.8c2-3.9 9-11.6 32.9-11.6z" fill="#FFC300"/>
				<rect transform="matrix(.7071 -.7071 .7071 .7071 -375.83 330.13)" height="70.1" width="4.1" y="583.7" x="208.5" fill="#FFC300"/>
				<rect transform="matrix(.7071 .7071 -.7071 .7071 499.19 32.312)" height="70.1" width="4.1" y="583.7" x="208.5" fill="#FFC300"/>
			<rect y="569.2" x="181.9" height="8.7" width="57.4" fill="#FFC300"/>
			<path d="m268.7 595.2h-116.3c-4.3 0-7.8-3.5-7.8-7.8v-3.8c0-4.3 3.5-7.8 7.8-7.8h116.3c4.3 0 7.8 3.5 7.8 7.8v3.8c0 4.3-3.4 7.8-7.8 7.8z" fill="#fff"/>
		<g stroke="#fff" stroke-miterlimit="10">
			<path d="m1101.5 489.9c0.4-0.6 0.8-1.2 1.3-1.8 1.9-2.5 4.1-4.4 6.9-5.8 1.6-0.7 3.3-1.2 5-1.4 2.8-0.3 5.6 0 8.2 1.1 4.7 2 7.7 5.4 9.2 10.3 0.5 1.6 0.7 3.2 0.6 4.8 0 1.3-0.1 2.6-0.2 3.8-0.3 3.6-1.3 7.1-3.3 10.2-1.1 1.8-2.5 3.5-4 5.1-1.7 1.8-3.6 3.6-5.5 5.2l-9 7.8c-3.1 2.7-6.2 5.5-9.2 8.4l-0.1 0.1-0.1-0.1c-4-3.8-8.2-7.5-12.4-11.2-2.8-2.5-5.7-4.9-8.4-7.5-1.7-1.6-3.3-3.3-4.8-5.1-2.1-2.7-3.7-5.7-4.5-9-0.4-1.5-0.6-3-0.7-4.5-0.1-1.3-0.2-2.6-0.1-3.9 0.1-5.7 3.1-11 8.2-13.8 1.8-1 3.7-1.5 5.7-1.8 1.4-0.2 2.8-0.2 4.2 0 2.5 0.3 4.8 1.2 6.9 2.5 2.5 1.6 4.4 3.7 6 6.2 0 0.2 0 0.3 0.1 0.4z" fill="#ED1C24"/>
			<polyline points="1061.6 508.3 1074.3 508.3 1075.3 499.8 1078.6 512.7 1080.5 506.2 1084.6 506.2 1087.1 511.5 1090.8 511.5 1094.5 497.3 1099.4 510.2 1101.7 506.8 1108.5 506.8 1109.2 514.8 1113.9 495.2 1115.6 506.3 1121 506.3 1123.6 513.5 1127.4 499.8 1129.3 507.2 1138.6 507.2" fill="none"/>
		</g>
			<path d="m849.2 648c0-0.4-0.1-0.8-0.1-1.1v-42.6c0-6.5 2.3-12.3 6.1-17.5 5.2-7.2 12.1-12.4 19.9-16.4 7.9-4 16.2-6.7 25.1-7 13.4-0.4 24.5 4.6 33.1 14.9 5 5.9 7.8 12.9 8.9 20.6 0.1 0.5 0.1 1 0.1 1.6h-5.1c-1.6-12-7.4-21.2-17.9-27.3-7.2-4.1-14.9-5.4-23.1-4.1-16.4 2.7-28.7 16.4-29.6 32.9-1 16.5 9.8 31.7 25.8 36.1 15.9 4.4 30.9-2.9 37.8-12.9-1.4-0.2-2.5 0-3.6 1.2-9.3 9.8-20.7 13.3-33.7 9.6-13.1-3.7-21.1-12.7-23.7-26.1-3.3-17.1 7.5-33.9 24.2-38.2 0.1 0 0.3-0.1 0.5-0.1 0.5 1.7 0.9 3.3 1.4 5.1h6.9 5.4c0.6 0 0.8-0.2 1-0.8 0.3-1.4 0.8-2.8 1.2-4.2 12.3 2.5 23.9 14.2 25.1 28.7-0.3 0-0.6 0.1-1 0.1h-13.1c-1.6 0-3.3 0.2-4.8 0.3-0.9-1.7-1.6-3.6-2.7-5.2-3.6-5.2-10.6-7.3-16.5-5-6 2.3-9.9 8.3-9.3 14.4 0.6 6.8 5.3 12 11.8 13.1 0.8 0.1 1.7 0.2 2.5 0.2h51c2.1 0 2.8 0.7 2.8 2.8v1.8c-0.1 1.6-0.8 2.3-2.4 2.3h-9.8-1v22.8h-93.2zm68.5-63.8c-1.2 0-2.2 1-2.2 2.2s1 2.2 2.2 2.2 2.3-1 2.2-2.2c-0.1-1.3-1.1-2.2-2.2-2.2zm-29.5 2.1c0-1.2-1-2.2-2.2-2.2s-2.2 1-2.2 2.2 1 2.2 2.2 2.2c1.2 0.1 2.2-1 2.2-2.2zm-6.7 2.8c-1.2 0-2.2 1.1-2.1 2.2 0 1.2 1 2.1 2.2 2.1s2.1-1 2.1-2.2c0-1.1-1-2.1-2.2-2.1zm40.6 4.4c1.2 0 2.2-0.9 2.2-2.1s-0.9-2.2-2.1-2.3c-1.2 0-2.2 0.9-2.3 2.1 0 1.2 1 2.3 2.2 2.3z" fill="#D1D3D4"/>
			<path d="m948.8 615.9h-2.1c0.2-1.2 0.6-2.4 0.5-3.6-0.2-2.1-1.9-3.6-4-3.6-6.8-0.1-13.6 0-20.5 0 0 0.5-0.1 0.9-0.1 1.4h18.3v5.8c-0.2 0-0.4 0.1-0.6 0.1-7.2 0-14.3 0.1-21.5 0-4.7-0.1-7.7-5.2-5.6-9.4 1.1-2.2 2.9-3.6 5.4-3.6 10-0.1 20.1 0 30.2 0v12.9z" fill="#F1F2F2"/>
			<path d="m895.5 607.9c0-4.4 3.4-7.8 7.9-7.8 4.3 0 7.7 3.5 7.7 7.8 0 4.4-3.5 7.8-7.9 7.8-4.3 0-7.8-3.5-7.7-7.8z" fill="#F1F2F2"/>
			<path d="m950.3 602.8h5v13h-5v-13z" fill="#F1F2F2"/>
			<path d="m941.7 610.6c1.5-0.1 2.9-0.3 3.8 1.1 0.6 0.9 0.5 1.8 0 2.7-0.9 1.4-2.3 1.1-3.8 1.1v-4.9z" fill="#F1F2F2"/>
			<path d="m911.9 614.4c0.5 0.6 1 1.1 1.6 1.7h-3.6c0.6-0.6 1.2-1.2 2-1.7z" fill="#F1F2F2"/>
			<path d="m917.7 584.2c1.2 0 2.2 1 2.2 2.1 0 1.2-1 2.3-2.2 2.2-1.2 0-2.2-1.1-2.2-2.2s1-2.1 2.2-2.1z" fill="#fff"/>
			<path d="m888.2 586.3c0 1.2-1 2.2-2.1 2.2-1.2 0-2.2-1-2.2-2.2s1-2.2 2.2-2.2c1.1 0.1 2.1 1 2.1 2.2z" fill="#fff"/>
			<path d="m881.5 589.1c1.2 0 2.2 0.9 2.2 2.1s-0.9 2.2-2.1 2.2-2.2-0.9-2.2-2.1c-0.1-1.1 0.9-2.1 2.1-2.2z" fill="#fff"/>
			<path d="m922.1 593.5c-1.2 0-2.2-1.1-2.1-2.2 0-1.2 1.1-2.2 2.3-2.1 1.2 0 2.1 1.1 2.1 2.3-0.1 1.1-1.1 2-2.3 2z" fill="#fff"/>
			<path d="m738.1 476.4v-0.3-27c0-1-0.8-1.9-1.9-1.9-1 0-1.9 0.8-1.9 1.9v27 0.3c-2.9 0.8-5 3.4-5 6.6 0 3.8 3.1 6.8 6.8 6.8 3.8 0 6.8-3.1 6.8-6.8 0.2-3.1-2-5.8-4.8-6.6z" fill="#F1F2F2"/>
			<rect y="452.2" x="734.4" height=".3" width="2.2" fill="#414042"/>
			<rect y="452.9" x="734.4" height=".3" width="2.2" fill="#414042"/>
			<rect y="453.6" x="734.4" height=".3" width="2.2" fill="#414042"/>
			<rect y="454.3" x="734.4" height=".3" width="2.2" fill="#414042"/>
			<rect y="455" x="734.4" height=".3" width="2.2" fill="#414042"/>
			<rect y="455.7" x="734.4" height=".3" width="2.2" fill="#414042"/>
			<rect y="456.4" x="734.4" height=".3" width="2.2" fill="#414042"/>
		<path d="m599.5 394.4c-1.6-1.8-2.9-3.1-4-4.5-0.9-1.2-1.5-2.7-2.2-4 1.3 0.9 2.7 1.7 3.8 2.9 1.9 1.9 3.6 4 5.6 6.3 3.2-2.8 6-5.3 9.1-8.1-1.3-1.4-2.6-2.7-3.6-4.1-0.6-0.9-0.9-2-1.3-3 0.9 0.5 2.1 0.7 2.8 1.5 4.8 5.3 9.5 10.6 14.2 16 0.7 0.8 0.9 1.9 1.3 2.9-1-0.5-2.2-0.9-3-1.6-1.3-1.1-2.3-2.5-3.6-3.9-3 2.7-5.8 5.2-9.1 8.1 2.4 2.7 4.9 5.4 7.2 8.1 0.5 0.6 0.6 1.5 0.8 2.3-0.8-0.3-1.8-0.4-2.3-1-1.8-1.9-3.5-3.9-5.4-6-13.5 12-26.8 23.8-40.3 35.7-1.3-1.2-2.3-2.2-3.8-3.6-2.3 2.1-4.6 4.2-7 6.2-0.8 0.6-2 0.6-3 1-0.8 0.3-1.6 0.8-2.2 1.3-4.6 4-9.1 8.1-13.7 12.1-0.9 0.7-1.9 1.3-2.9 1.9-0.2-0.2-0.4-0.4-0.5-0.6 0.5-0.5 0.9-1.1 1.4-1.6 4.9-4.3 9.8-8.6 14.6-13 0.7-0.7 0.9-2 1.4-2.9 0.4-0.8 0.9-1.5 1.6-2.1 2.2-2.1 4.5-4 7-6.2-1-1.4-1.9-2.6-3-4 13.2-12.2 26.5-24.1 40.1-36.1zm-12.9 29c-2.6-2.9-5.2-5.8-7.7-8.7-5.9 5.3-11.7 10.4-17.5 15.5 2.6 2.9 5 5.6 7.4 8.4 1.4-1.2 2.6-2.3 4-3.5-1.2-1.7-2.4-3.3-3.5-4.8 0.2-0.2 0.5-0.4 0.7-0.6 1.4 1.4 2.8 2.7 4.3 4.1 0.8-0.7 1.4-1.3 2.1-1.9-1.3-1.7-2.4-3.3-3.6-4.9 0.3-0.2 0.5-0.4 0.8-0.7 1.5 1.4 2.9 2.8 4.5 4.3 3.6-3.4-2.8-4.3-1.3-7.3 1.5 1.5 3 2.9 4.6 4.5 0.7-0.8 1.3-1.4 1.9-2-1.3-1.7-2.4-3.2-3.5-4.7 0.2-0.2 0.5-0.4 0.7-0.6 1.4 1.4 2.8 2.7 4.1 4.1 0.8-0.5 1.5-0.9 2.2-1.3 0.8-0.2 1.7-0.2 2.3-0.7 5.1-4.4 10.1-8.9 15.1-13.3-1.8-2-3.2-3.7-4.7-5.3-0.2 0.1-0.3 0.3-0.5 0.4 1.2 1.5 2.4 3 3.6 4.6-1.1 1-2 1.8-3.1 2.7-1.5-1.5-2.8-2.8-4.1-4.2l-0.5 0.5c1.2 1.5 2.4 3.1 3.6 4.6-1.1 1-2 1.8-2.9 2.6-1.5-1.5-2.9-2.8-4.3-4.2-0.2 0.2-0.4 0.4-0.6 0.7 1.3 1.5 2.6 2.9 3.9 4.4-1.1 0.9-1.9 1.7-2.8 2.5l-4.2-4.2-0.6 0.6c1.2 1.5 2.4 3 3.6 4.6-0.9 0.8-1.6 1.4-2.4 2.1-1.5-1.5-2.9-2.8-4.3-4.2-0.1 0.1-0.2 0.3-0.3 0.4 0.9 1.8 1.9 3.6 3 5.5z" fill="#fff"/>
		<path d="m1002.2 569.8c2.8 1.9 4.1 5.4 3.1 8.7-0.4 1.2-0.4 2.3-0.2 3.6 0.4 2.2 0.3 4.4 0.4 6.6 0 0.6 0.1 1.1 0.1 1.9 5.9-2.9 11.3-6.6 17-9.6 0.1 0.2 0.3 0.4 0.4 0.6-0.3 0.4-0.7 0.7-1 1-5.2 4.9-10.4 9.7-15.5 14.7-0.4 0.4-0.7 1.3-0.7 1.9 0 7.1 0.1 14.1 0.1 21.2 0 2.9-1.3 4.6-3.4 4.5-2.3-0.1-3.6-1.8-3.5-4.7 0.2-4.8 0.5-9.7 0.8-14.5 0-0.6 0.1-1.1 0.1-2.1-1.8 1.8-3.4 3.3-5.1 4.9 0.3 0.4 0.4 0.8 0.7 1 2.3 1.6 2 4.5 0.7 6.4-1.6 2.4-3.9 3.7-6.8 3.6-3.6-0.2-5.5-3.9-3.5-6.9 1.2-1.8 2.8-3.1 5-3.7 2.6-0.7 2.8-1.2 1.4-3.5-0.1-0.1-0.1-0.3-0.3-0.5 0.3-0.3 0.7-0.7 1.2-1.1 0.6 0.7 1.1 1.3 1.8 2 1.6-1.5 3.3-2.9 4.7-4.5 0.5-0.5 0.4-1.6 0.5-2.4 0.1-1 0.1-2 0.2-3.3-3.2 1.8-6.1 3.5-9.1 5.2 0.5 0.8 0.9 1.5 1.4 2.2l-1.2 0.9c-0.2-0.1-0.3-0.1-0.4-0.1-2.3-2.5-2.2-2.4-4.3 0.2-1.1 1.4-2.7 2.4-4.3 3.3-1.5 0.8-3.2 0.6-4.6-0.7s-1.9-2.9-1.4-4.8c0.8-3.2 4.5-5.8 7.7-5.4 1.7 0.2 2.9 0.9 3.5 2.5 0.4 1.2 1 1.2 2 0.6 3.3-1.9 6.6-3.6 9.8-5.5 0.5-0.3 1-1.1 1-1.7 0.3-3 0.5-6.1 0.7-9.1 0.3-4.1 0.5-8.3 0.8-12.4 0.1-0.4 0.1-0.7 0.2-1zm-15.5 32.9c0.6-1.6 0.7-2.9-0.3-4.1s-2.3-1.4-3.7-1.1c-2.4 0.5-4 2-4.8 4.3-0.9 2.6 0.9 4.9 3.6 4.6 2.5-0.2 4.1-1.7 5.2-3.7zm0.1 10.7c-1.1 2.8 0.5 5 3.4 4.9 2.6-0.1 4.5-1.5 5.6-3.8 1.2-2.5-0.4-4.8-3.2-4.9-2.4-0.1-4.9 1.5-5.8 3.8zm26.1-24.6c-0.1-0.1-0.1-0.2-0.2-0.3-1.7 1-3.4 2-5.2 2.9-2.2 1.2-2.3 1.5-1.6 4 2.4-2.2 4.7-4.4 7-6.6z" fill="#fff"/>
		<g fill="#fff">
			<path d="m790.9 445.8v6.4c0 4.8-0.2 5.1-3 5.1-2.7 0-2.9-0.3-2.9-5.2v-6.2h-8.4c-0.1 1.6-0.2 3.2-0.3 5h-5.7c-0.1-1.6-0.1-3.2-0.2-4.7-0.2 0.1-0.3 0.3-0.5 0.4-2.2-2-4.5-3.9-6.6-6-0.5-0.4-0.5-1.4-0.5-2.2 0-21.6 0-43.1-0.1-64.7 0-1.6 0.5-2.3 2-2.7 7.2-2 14.4-4.1 21.6-6.1 1-0.3 2.3-0.3 3.3 0 7.1 2 14.2 4.1 21.4 6.1 1.6 0.4 2 1.2 2 2.7v64.9c0 2.4-4 6.3-7.4 7.3-0.1 1.5-0.1 3-0.2 4.8h-5.7c-0.1-1.6-0.1-3.2-0.2-5-2.8 0.1-5.6 0.1-8.6 0.1zm13.7-6.4c0.2 0 0.7-0.1 1.1-0.1 4.8-0.2 5.3-0.7 5.3-5.3v-56c0-3.7-0.8-4.5-4.4-4.5h-36.7c-4.1 0-4.8 0.8-4.8 4.9v53.4c0 6.8 0 6.8 6.8 7.7 0 1-0.2 2.1 0.1 3 0.2 0.7 1 1.3 1.5 1.9 0.5-0.7 1.2-1.3 1.4-2 0.3-0.9 0.1-2 0.1-3h11.6c0 1.2-0.2 2.2 0.1 3 0.2 0.7 1 1.3 1.5 1.9 0.5-0.7 1.3-1.3 1.5-2 0.3-0.9 0.1-2 0.1-2.9h10.9c1.5 1.7-0.8 4.7 2 4.8 2.9 0.2 0.7-3 1.9-4.8zm-16.7-73.9c-0.8 1.4-1.7 2.3-1.5 2.8 0.2 0.7 1.2 1.4 1.9 1.5 0.4 0.1 1.4-1.1 1.4-1.7s-0.8-1.2-1.8-2.6z"/>
			<path d="m770.8 395h26v0.5h-26v-0.5z"/>
			<path d="m793.6 400.5h-22.7v-0.5h22.7v0.5z"/>
			<path d="m789.7 405.3h-18.9v-0.5h18.8c0 0.2 0 0.3 0.1 0.5z"/>
			<path d="m792.5 390.7h-21.8v-0.4h21.7c0.1 0.1 0.1 0.3 0.1 0.4z"/>
		</g>
		<g stroke-miterlimit="10" stroke="#fff" stroke-width="2" stroke-linecap="round" fill="none">
				<line y2="552.5" x1="929.1" x2="944.9" y1="552.5"/>
				<line y2="560.4" x1="937" x2="937" y1="544.6"/>
		</g>
		<g stroke-miterlimit="10" stroke="#fff" stroke-width="2" stroke-linecap="round" fill="none">
				<line y2="512.3" x1="891.1" x2="906.8" y1="512.3"/>
				<line y2="520.2" x1="899" x2="899" y1="504.5"/>
		</g>
		<g stroke-miterlimit="10" stroke="#fff" stroke-width="2" stroke-linecap="round" fill="none">
				<line y2="420.4" x1="462.1" x2="477.8" y1="420.4"/>
				<line y2="428.3" x1="470" x2="470" y1="412.5"/>
		</g>
		<g stroke-miterlimit="10" stroke="#fff" stroke-width="2" stroke-linecap="round" fill="none">
				<line y2="467.8" x1="295.2" x2="310.9" y1="467.8"/>
				<line y2="475.7" x1="303" x2="303" y1="459.9"/>
		</g>
		<g stroke-miterlimit="10" stroke="#fff" stroke-width="2" stroke-linecap="round" fill="none">
				<line y2="504.2" x1="169.8" x2="185.5" y1="504.2"/>
				<line y2="512" x1="177.6" x2="177.6" y1="496.3"/>
		</g>
		<g stroke-miterlimit="10" stroke="#fff" stroke-width="2" stroke-linecap="round" fill="none">
				<line y2="573.8" x1="460.1" x2="475.8" y1="573.8"/>
				<line y2="581.7" x1="468" x2="468" y1="566"/>
		</g>
		<g stroke-miterlimit="10" stroke="#fff" stroke-width="2" stroke-linecap="round" fill="none">
				<line y2="395.6" x1="848.4" x2="864.1" y1="395.6"/>
				<line y2="403.5" x1="856.2" x2="856.2" y1="387.7"/>
		</g>
		<g stroke-miterlimit="10" stroke="#fff" stroke-width="2" stroke-linecap="round" fill="none">
				<line y2="557.8" x1="736.9" x2="752.7" y1="557.8"/>
				<line y2="565.7" x1="744.8" x2="744.8" y1="550"/>
		</g>
		<g stroke-miterlimit="10" stroke="#fff" stroke-width="2" stroke-linecap="round" fill="none">
				<line y2="462.1" x1="441.8" x2="469.7" y1="462.1"/>
				<line y2="462.1" x1="476.7" x2="487.7" y1="462.1"/>
		</g>
		<g stroke-miterlimit="10" stroke="#fff" stroke-width="2" stroke-linecap="round" fill="none">
				<line y2="500" x1="319.1" x2="347" y1="500"/>
				<line y2="500" x1="354" x2="365" y1="500"/>
		</g>
		<g stroke-miterlimit="10" stroke="#fff" stroke-width="2" stroke-linecap="round" fill="none">
				<line y2="542.6" x1="859.6" x2="887.6" y1="542.6"/>
				<line y2="542.6" x1="894.5" x2="905.6" y1="542.6"/>
		</g>
		<g stroke-miterlimit="10" stroke="#fff" stroke-width="2" stroke-linecap="round" fill="none">
				<line y2="633.3" x1="989.4" x2="1017.3" y1="633.3"/>
				<line y2="633.3" x1="1024.3" x2="1035.3" y1="633.3"/>
		</g>
		<g stroke-miterlimit="10" stroke="#fff" stroke-width="2" stroke-linecap="round" fill="none">
				<line y2="551.5" x1="1071.6" x2="1099.5" y1="551.5"/>
				<line y2="551.5" x1="1106.5" x2="1117.5" y1="551.5"/>
		</g>
		<g stroke-miterlimit="10" stroke="#fff" stroke-width="2" stroke-linecap="round" fill="none">
				<line y2="639.4" x1="259.3" x2="287.2" y1="639.4"/>
				<line y2="639.4" x1="294.2" x2="305.2" y1="639.4"/>
		</g>
			<circle r="4.9" stroke-linecap="round" cy="468.2" stroke="#fff" cx="548.4" stroke-miterlimit="10" stroke-width="2" fill="none"/>
			<circle r="5.1" stroke-linecap="round" cy="370.3" stroke="#fff" cx="528" stroke-miterlimit="10" stroke-width="2" fill="none"/>
			<circle r="5.6" stroke-linecap="round" cy="447.1" stroke="#fff" cx="403.2" stroke-miterlimit="10" stroke-width="2" fill="none"/>
			<circle r="6.3" stroke-linecap="round" cy="581.8" stroke="#fff" cx="321.5" stroke-miterlimit="10" stroke-width="2" fill="none"/>
			<circle r="6.4" stroke-linecap="round" cy="398.3" stroke="#fff" cx="380.3" stroke-miterlimit="10" stroke-width="2" fill="none"/>
			<circle r="4.6" stroke-linecap="round" cy="426.9" stroke="#fff" cx="203.2" stroke-miterlimit="10" stroke-width="2" fill="none"/>
		<g opacity=".02">
			<polygon points="427.9 176.7 683 29.5 938.1 176.7 938.1 471.3 683 618.5 427.9 471.3" fill="#2895F1"/>
				<defs>
					<polygon id="SVGID_2_" points="427.9 176.7 683 29.5 938.1 176.7 938.1 471.3 683 618.5 427.9 471.3"/>
				</defs>
				<clipPath id="SVGID_3_">
					<use overflow="visible" xlink:href="#SVGID_2_"/>
				</clipPath>
				<polyline fill="#9B9DA0" points="511 418.9 483.2 336.6 495.8 306.3 575 251.1 641.2 192 729.9 181.8 758.3 178.6 987.8 309.5 989.5 697.8" clip-path="url(#SVGID_3_)"/>
			<path d="m895.6 333.9c0 0.3-0.1 0.6-0.1 0.9v1.1 1.6c0 1.5-0.2 3-0.4 4.5-0.2 1.3-0.3 2.5-0.5 3.8-0.4 2.9-1 5.8-1.7 8.7-3.9 15.9-11.3 30-21.9 42.4-9.1 10.7-20 19.3-32.4 25.9-8.9 4.8-18.4 8.2-28.3 10.5-2.7 0.6-5.5 1.1-8.2 1.6-2 0.3-4 0.6-6.1 0.8-1.2 0.1-2.5 0.2-3.7 0.3-1.7 0.1-3.5 0.2-5.2 0.3-1.4 0-2.8 0.2-4.2 0.3-0.3 0-0.7 0.1-1 0.1l-7.5 0.3c-6.3 0.2-12.7 0.2-19 0.2-3 0-6-0.1-9-0.2-1.6 0-3.2 0-4.9-0.1-2.3-0.1-4.7-0.1-7-0.2-0.5 0-1-0.1-1.6 0.1-0.2 0.3-0.5 0.6-0.9 0.9-11.7 12.2-23.4 24.3-35.2 36.5-2.9 3-5.7 5.9-8.6 8.9l-0.6 0.6c-0.2 0.2-0.4 0.2-0.7 0-0.2-0.1-0.3-0.2-0.5-0.3-10-7.4-20-14.8-30-22.3-0.2-0.2-0.4-0.3-0.6-0.5 0 0-0.1-0.3 0-0.4 0.1-0.2 0.3-0.3 0.4-0.5 3.2-3.5 6.3-6.9 9.5-10.4 10.6-11.6 21.2-23.3 31.8-34.9 4.3-4.7 8.6-9.4 12.8-14.1 0.3-0.4 0.6-0.7 1-1.1 0.5-0.1 1-0.1 1.5-0.1 2.9-0.1 5.7-0.1 8.6 0 2.1 0.1 4.2 0.1 6.3 0.1l7.8 0.3c0.6 0 1.3 0.1 1.9 0.1 3.1 0.1 6.1 0.3 9.2 0.4 0.9 0 1.7 0.1 2.6 0.1 3.7 0.1 7.5 0.3 11.2 0.2 2.5 0 5.1-0.1 7.6-0.2 2.1 0 4.2-0.2 6.2-0.3 2.1-0.1 4.1-0.3 6.2-0.6 2.5-0.3 4.9-0.6 7.4-1 0.7-0.1 1.5-0.3 2.2-0.4 0.3-0.1 0.6-0.1 0.8-0.3 0.2-0.1 0.4-0.2 0.6-0.2l3.3-0.6c1.8-0.3 3.5-0.8 5.3-1.3 2.3-0.6 4.6-1.3 6.8-2.1 2.7-1 5.4-2.2 8-3.5 8.1-4.2 15.2-9.7 21.2-16.6 6.3-7.2 10.8-15.4 13.6-24.6 0.9-3 1.5-6.1 2-9.2 0.6-4.2 0.8-8.4 0.6-12.6-0.5-8.6-2.6-16.9-6.4-24.6-3.9-8.1-9.3-15.2-16.1-21.2-8.5-7.6-18.4-12.8-29.4-15.8-2.7-0.7-5.4-1.3-8.2-1.7-1.5-0.2-3.1-0.4-4.6-0.6-1.1-0.1-2.1-0.2-3.2-0.2-0.4 0-0.6-0.2-0.7-0.5s-0.2-0.6-0.3-0.8c-9.5-23-27.6-41.9-51-52.3-6-2.6-12.2-4.7-18.6-6.1-2.3-0.5-4.6-0.9-6.9-1.3l-4.8-0.6c-1.5-0.1-3.1-0.2-4.6-0.3-0.7-0.1-1.4-0.1-2.2-0.1h-5.7c-1.8 0-3.6 0.2-5.4 0.3l-3 0.3c-1.2 0.1-2.5 0.3-3.7 0.5-2.5 0.4-4.9 0.9-7.3 1.5-10.1 2.4-19.6 6.3-28.4 11.8-12.9 8-23.4 18.4-31.5 31.2-2.2 3.4-3.9 7-5.4 10.7-1.8 4.4-3.3 8.9-4.5 13.5-1.1 3.9-2 7.8-2.7 11.7 0 0.1-0.1 0.3-0.1 0.4s-0.2 0.3-0.3 0.3h-0.6c-1.4-0.2-2.8-0.4-4.3-0.6-0.8-0.1-1.6-0.2-2.5-0.3-1.2-0.1-2.5-0.2-3.7-0.3-2-0.2-3.9-0.2-5.9-0.3-1.7-0.1-3.5-0.1-5.2 0-1 0-2 0.1-3.1 0.1-1.2 0.1-2.5 0.2-3.7 0.3s-2.5 0.3-3.7 0.5c-5 0.9-9.8 2.3-14.4 4.6-6.6 3.2-12.7 7.3-18 12.4-5.3 5-9.6 10.8-12.8 17.3-2.3 4.6-3.9 9.5-4.8 14.6-0.7 3.9-1 7.8-0.8 11.7 0.4 9.4 3.1 18.1 7.9 26.2 1.2 2 2.6 4 4.1 5.8 4.2 5.2 9.1 9.7 14.6 13.5 6.2 4.4 13 7.8 20.2 10.4 0.9 0.3 0.9 0.3 1.9 0.3 6.6 0 13.1-0.1 19.7-0.2 6.7 0 13.4-0.1 20.2-0.1 3.4 0 6.9-0.1 10.3-0.1 3.9 0 7.7-0.1 11.6-0.1h1c0.2 0 0.4-0.1 0.6-0.3 0.2-0.3 0.5-0.5 0.7-0.7 9.9-10.8 19.8-21.5 29.7-32.3 3.3-3.6 6.6-7.2 10-10.9 0.2-0.3 0.5-0.5 0.7-0.8 0 0 0.1-0.2 0.1-0.3-0.2-0.4-0.6-0.6-0.8-0.9l-10.8-10.8-0.7-0.7c-0.1-0.1-0.1-0.2-0.1-0.2 0-0.1 0.1-0.2 0.2-0.2 0.3 0 0.7-0.1 1-0.1 2-0.1 3.9-0.2 5.9-0.3l5.4-0.3 5.4-0.3c2-0.1 4-0.2 6-0.4h0.5c2-0.1 3.9-0.2 5.9-0.3l5.4-0.3h0.5c2-0.1 3.9-0.2 5.9-0.3l5.4-0.3c1.8-0.1 3.5-0.2 5.3-0.3 0.8 0 1.6-0.1 2.4-0.2 0.3 0 0.5 0.1 0.6 0.4 0 0.3 0.1 0.7 0.1 1 0.1 1.5 0.3 3 0.4 4.5 0.1 1 0.2 2 0.3 2.9 0.1 1.2 0.2 2.5 0.3 3.7s0.2 2.5 0.3 3.7c0.1 0.9 0.2 1.9 0.2 2.8 0.1 1.2 0.2 2.5 0.3 3.7 0.1 1.3 0.2 2.6 0.3 3.8l0.3 3c0.1 1.2 0.2 2.5 0.3 3.7s0.2 2.5 0.3 3.7c0.1 0.9 0.2 1.9 0.2 2.8 0.1 1.2 0.2 2.5 0.3 3.7 0.1 1.3 0.2 2.6 0.3 3.8v1.1s-0.1 0.1-0.2 0.1c-0.3-0.1-0.5-0.3-0.8-0.5-2.2-1.5-4.5-3.1-6.7-4.6s-4.4-3-6.5-4.5c-0.2-0.1-0.4-0.3-0.7-0.4-0.3-0.2-0.4-0.2-0.7 0.1-0.2 0.2-0.5 0.5-0.7 0.8-2.8 3.2-5.6 6.3-8.5 9.5-10.1 11.3-20.2 22.6-30.4 33.8-3.3 3.6-6.7 7.2-10 10.8-1.1 1.2-2.3 2.4-3.5 3.6-0.4 0.4-0.8 0.9-1.4 1.1-0.5 0-1.1 0.1-1.6 0.1h-92.4-0.2c-0.7 0.1-1.4-0.1-2.1-0.3-4.4-1.3-8.8-2.7-13.1-4.5-8.3-3.4-16.1-7.5-23.4-12.6-6.8-4.8-13-10.2-18.5-16.5-8.8-10.1-15.2-21.6-18.9-34.5-0.9-3.1-1.6-6.3-2.2-9.5-0.4-2.5-0.8-5-1-7.5l-0.3-4.5c0-0.5 0-1.1-0.1-1.6 0-0.2-0.1-0.4-0.3-0.6v-5.4c0.2-0.1 0.3-0.3 0.3-0.6s0.1-0.6 0.1-0.9c0.1-2.3 0.4-4.5 0.7-6.8 0.5-3.5 1.3-6.9 2.2-10.3 1.9-6.6 4.6-13 7.9-19 4.6-8.2 10.2-15.6 16.8-22.3 10.2-10.3 21.9-18.4 35.2-24.4 8.6-3.8 17.5-6.6 26.8-8.2 0.3-0.1 0.6-0.1 0.9-0.2 0.2-0.3 0.3-0.6 0.5-0.9 6-13.1 14-25 23.8-35.5 10.9-11.7 23.4-21.3 37.5-28.8 16.5-8.8 34.1-14.2 52.7-16.4 0.8-0.1 1.6-0.2 2.5-0.3 1.3-0.1 2.6-0.3 3.8-0.3 1.8-0.1 3.7-0.2 5.5-0.3 0.3 0 0.7 0 1-0.2h9.7c0.2 0.1 0.5 0.1 0.8 0.2l5.1 0.3c1.3 0.1 2.6 0.2 3.8 0.3 1.7 0.2 3.3 0.4 4.9 0.6 2.7 0.3 5.3 0.7 7.9 1.2 4.2 0.8 8.4 1.7 12.5 2.9 14.2 3.9 27.6 9.8 40 17.7 17 10.9 31.1 24.6 42.1 41.5 0.6 0.9 0.4 0.8 1.6 1.1 6.2 1.8 12.2 4.1 18 7 14 6.9 26.1 16.1 36.2 28 10.4 12.3 17.7 26.3 21.6 41.9 0.7 2.9 1.3 5.8 1.7 8.8 0.2 1.3 0.4 2.5 0.5 3.8 0.2 1.4 0.3 2.9 0.4 4.3v1.6c0 0.5 0 0.9 0.1 1.4 0 0.3 0.1 0.6 0.1 0.9 0.3 3.2 0.3 5.5 0.3 7.7z" fill="#fff"/>
		</g>
		<g stroke-miterlimit="10" stroke="#2E3192" stroke-width="2" stroke-linecap="round" fill="none">
			<polyline points="578.2 350.3 569.5 341.7 546.4 341.7"/>
				<circle r="3.6" cy="341.6" cx="542.8"/>
		</g>
		<g stroke-miterlimit="10" stroke="#2E3192" stroke-width="2" stroke-linecap="round" fill="none">
			<polyline points="787 347.7 795.7 339.1 818.8 339.1"/>
				<circle r="3.6" cy="339" cx="822.4"/>
		</g>
		<g stroke-miterlimit="10" stroke="#2E3192" stroke-width="2" stroke-linecap="round" fill="none">
			<polyline points="747.8 349 756.4 357.7 775.9 357.7"/>
				<circle r="3.6" cy="357.8" cx="779.5"/>
		</g>
		<g stroke-miterlimit="10" stroke="#2E3192" stroke-width="2" stroke-linecap="round" fill="none">
			<polyline points="512.1 495.9 519 502.7 519 521"/>
				<circle r="2.9" cy="523.9" cx="519.1"/>
		</g>
		<g stroke-miterlimit="10" stroke="#2E3192" stroke-width="2" stroke-linecap="round" fill="none">
			<polyline points="511.1 431.7 502.4 440.4 502.4 463.5"/>
				<circle r="3.6" cy="467.1" cx="502.3"/>
		</g>
		<g stroke-miterlimit="10" stroke="#2E3192" stroke-width="2" stroke-linecap="round" fill="none">
			<polyline points="740 362.6 731.4 371.3 731.4 394.4"/>
				<circle r="3.6" cy="398" cx="731.3"/>
		</g>
		<g stroke-miterlimit="10" stroke="#2E3192" stroke-width="2" stroke-linecap="round" fill="none">
			<polyline points="877.2 371.4 868.5 380.1 868.5 403.2"/>
				<circle r="3.6" cy="406.8" cx="868.4"/>
		</g>
		<polyline fill="none" stroke="#2E3192" stroke-linecap="round" stroke-miterlimit="10" stroke-width="2" points="656 309.9 656 341.4 647.5 349.7 512 349.7 497 365.8 497 410.2 511.2 421.5 512 516.2 501.1 532.8 501.1 600.4"/>
		<g stroke-miterlimit="10" stroke="#2E3192" stroke-width="2" stroke-linecap="round" fill="none">
			<polyline points="497.4 366.1 506 374.8 506 397.9"/>
				<circle r="3.6" cy="401.5" cx="506.1"/>
		</g>
		<g stroke-miterlimit="10" stroke="#2E3192" stroke-width="2" stroke-linecap="round" fill="none">
			<polyline points="740.9 402.8 749.8 411.6 749.8 434.9"/>
				<ellipse rx="3.7" cy="438.5" ry="3.6" cx="750"/>
		</g>
		<g stroke-miterlimit="10" stroke="#2E3192" stroke-width="2" stroke-linecap="round" fill="none">
			<polyline points="878.3 391.4 887 400 887 423.1"/>
				<circle r="3.6" cy="426.8" cx="887.1"/>
		</g>
		<polyline fill="none" stroke="#2E3192" stroke-linecap="round" stroke-miterlimit="10" stroke-width="2" points="680.9 303.9 680.9 349.4 688.7 354 736.2 354 740.5 356.8 740.5 415.9 721.8 424.7 721.8 496.9 714.5 502.2 698 502.2"/>
		<polyline fill="none" stroke="#2E3192" stroke-linecap="round" stroke-miterlimit="10" stroke-width="2" points="711.4 309 711.4 342.3 718.1 348.2 866.5 348.2 878.2 356.6 878.2 450.8 887.1 457.3 896.3 457.3"/>
		<circle cy="308.1" cx="656" r="5" fill="#2E3192"/>
		<circle cy="308.1" cx="681.2" r="5" fill="#2E3192"/>
		<circle cy="308.1" cx="711.4" r="5" fill="#2E3192"/>
		<circle r="4.2" cy="337.6" stroke="#2E3192" cx="841.5" stroke-miterlimit="10" stroke-width="2" fill="#fff"/>
		<circle r="4.2" cy="354.2" stroke="#2E3192" cx="707.8" stroke-miterlimit="10" stroke-width="2" fill="#fff"/>
		<circle r="4.2" cy="387.1" stroke="#2E3192" cx="496.6" stroke-miterlimit="10" stroke-width="2" fill="#fff"/>
				<path d="m922.4 443.8c0.3-0.5 0.9-0.9 1-1.4 0.5-6.2-3.6-12.4-9.3-14.3-0.7-7.9 3.6-16 10.8-20.2-5.6-7.4-7.8-15.9-7.5-25.1 0.3-10.3 7.3-18.4 17.4-20.8 0.3-0.1 0.6-0.3 0.9-0.4h6.1c2.2 0.8 4.5 1.4 6.6 2.5 8.8 4.5 13 14 11.4 25.1-0.9 6.9-3 13.2-7.5 19 5.4 4 9.1 9.1 10.6 15.8-2.5 1.1-4.3 2.7-4.6 5.6-0.3 3.2 1.7 6.1 4.7 6.8 3.2 0.7 6.5-1.1 7.5-4.1 1-3.1-0.4-6.6-3.5-7.7-1.6-0.6-2-1.5-2.6-2.9-1.5-3.5-3.3-6.9-5-10.2 5.3 2.9 9.9 7 13.7 12.1 4.3 5.8 6.9 12.3 7.8 19.4 0.1 0.9-0.3 2.1-0.9 2.9-5.6 7.7-13.4 12.2-22.4 14.4-15.4 3.7-30.7 3.5-45.5-2.8-6-2.5-11-6.5-14.7-11.9-0.5-0.7-0.9-1.7-0.8-2.5 1.9-13.4 8.1-24.1 19.8-31.3 0.4-0.2 0.8-0.4 1.4-0.5-3.6 4.7-5.3 10-5.8 15.8 0 0.6-0.7 1.3-1.2 1.5-4.9 2-7.6 9.1-7.3 14 0.1 1.4 0.9 2.8 1.6 4.2 0.2 0.4 1.2 0.7 1.7 0.6s1.1-0.9 1.1-1.4-0.6-1.5-1-1.5c-3.3-0.2-3.1-2.4-2.4-4.5 0.9-2.6 1.7-5.4 3.2-7.5 3.2-4.4 8.4-4.3 11.7 0 2.4 3.3 3.4 7.2 3 11.3-0.8 0.2-1.8 0.2-2.5 0.6-0.6 0.3-1.1 1.1-1.3 1.8-0.1 0.3 0.8 1.3 1.2 1.2 0.7-0.1 1.4-0.6 1.8-1.2 0.5-0.7 0.6-1.6 0.8-2.4zm-2.1-55.5c0.2 7.8 4.1 16.1 9.4 20.3 5.5 4.3 12.1 4.4 17.6 0 4-3.1 6.5-7.3 7.9-12 1-3.5 1.6-7.2 2.3-10.8-0.2-0.1-0.5-0.1-0.7-0.2-0.6 0.6-1.3 1.2-1.6 1.5-1.6-3.9-3.2-7.8-4.8-11.9-7.7 4.7-15 3.7-22.4 1.2-3.5-1.2-4.6-0.7-5.1 3.1-0.3 2.1-0.3 4.3-0.3 6.5 0 1 0.2 2.1 0.3 3.3-1-0.4-1.7-0.7-2.6-1zm17.9 37.6c3.7-4.9 7.1-9.4 10.5-13.9-7.2 4.5-14 4.1-20.9-0.5 3.4 4.7 6.8 9.4 10.4 14.4zm17.5 15.8c-1.5-0.1-2.7-0.3-3.9-0.4-0.1-1.5-0.1-2.7-0.2-3.9h-3.3c-0.1 1.4-0.2 2.6-0.3 3.9-1.4 0.1-2.7 0.3-4 0.4v3.3c1.4 0.1 2.6 0.2 4 0.3 0.1 1.4 0.2 2.7 0.4 3.9h3.3c0.1-1.3 0.1-2.6 0.2-3.9 1.4-0.1 2.6-0.2 3.9-0.3-0.1-1.1-0.1-2-0.1-3.3z" fill="#F1F2F2"/>
				<path d="m964.6 426c2.3 0.1 4 2 3.9 4.4-0.1 2.2-1.9 3.9-4.2 3.9s-4.1-1.9-4-4.2c0-2.4 1.9-4.2 4.3-4.1z" fill="#FFC300"/>
				<path d="m938.2 425.9c-3.6-5-7-9.7-10.4-14.4 6.8 4.6 13.6 5 20.9 0.5-3.4 4.6-6.8 9.1-10.5 13.9z" fill="#FFC300"/>
				<path d="m955.7 441.7v3.3l-3.9 0.3c-0.1 1.3-0.1 2.6-0.2 3.9h-3.3c-0.1-1.2-0.2-2.5-0.4-3.9-1.3-0.1-2.6-0.2-4-0.3v-3.3c1.3-0.1 2.6-0.2 4-0.4 0.1-1.3 0.2-2.5 0.3-3.9h3.3c0.1 1.2 0.1 2.4 0.2 3.9 1.3 0.2 2.6 0.3 4 0.4z" fill="#FFC300"/>
				<path d="m938.5 477.9h36.7 0.9c1.3 0 2.1 0.5 2.1 1.1 0 0.7-0.8 1.2-2.2 1.2h-17.6-56.6-1.1c-1.2 0-2-0.5-2-1.1s0.8-1.1 2.1-1.1h14.7c7.8-0.1 15.4-0.1 23-0.1z" fill="#FFC300"/>
				<path stroke="#fff" stroke-miterlimit="10" d="m938.5 447.2h41.7c2.8 0 4.5 0.7 5 2.1 0.1 0.3 0.1 0.7 0 1-2.9 7.7-5.7 15.4-8.6 23.2-0.1 0.2-0.2 0.5-0.2 0.7-0.6 2-2 2.7-5.6 2.7h-64.6c-3.4 0-4.7-0.7-5.5-2.7-1.7-4.7-3.5-9.4-5.2-14-1.2-3.3-2.4-6.5-3.7-9.8-0.5-1.3 0.9-2.7 3.2-3 0.7-0.1 1.5-0.1 2.2-0.1 13.9-0.1 27.6-0.1 41.3-0.1zm2.4 15.1c0-0.8-1.1-1.5-2.4-1.4-1.3 0-2.4 0.6-2.4 1.4s1 1.4 2.3 1.4c1.4 0 2.5-0.6 2.5-1.4z" fill="#D1D3D4"/>
				<path d="m940.9 462.3c0 0.8-1.1 1.4-2.5 1.4-1.3 0-2.3-0.6-2.3-1.4s1.1-1.4 2.4-1.4c1.4-0.1 2.5 0.6 2.4 1.4z" fill="#FFC300"/>
				<ellipse rx="8.8" cy="447.4" ry="9.2" stroke="#fff" cx="626.8" stroke-miterlimit="10" fill="none"/>
				<polygon points="632.5 445.4 628.7 445.4 628.7 441.4 624.6 441.4 624.6 445.4 620.8 445.4 620.8 449.7 624.6 449.7 624.6 453.7 628.7 453.7 628.7 449.7 632.5 449.7" fill="#ED1C24"/>
				<g stroke="#fff" stroke-miterlimit="10" fill="#E6E7E8">
					<rect height="142.8" width="97.4" y="479.7" x="575.5"/>
					<polygon points="673 622.5 723.7 622.5 723.7 523.9 673 479.7"/>
					<polygon points="575.5 622.5 524.8 622.5 524.8 523.9 575.5 479.7"/>
					<rect height="142.8" width="97.4" y="479.7" x="575.5"/>
				</g>
				<g fill="#D1D3D4">
					<path d="m648.5 463.2c-0.2 0.7-0.4 1.7-0.6 2.4l-0.7 2.6h2.6l-0.7-2.6c-0.2-0.7-0.4-1.6-0.6-2.4z"/>
					<path d="m604.5 463.2c-1.8 0-2.8 1.8-2.8 4.2s1.1 4.1 2.8 4.1c1.8 0 2.8-1.8 2.8-4.2 0-2.2-1-4.1-2.8-4.1z"/>
					<path d="m624.8 463.2c-0.5 0-0.9 0.1-1.1 0.1v3.6c0.2 0.1 0.5 0.1 0.9 0.1 1.4 0 2.3-0.7 2.3-2-0.1-1.2-0.8-1.8-2.1-1.8z"/>
					<path d="m580.8 456.9v22.4h88v-22.4h-88zm16.3 16.5h-2.6v-5.1h-4.3v5.1h-2.6v-12.2h2.6v4.7h4.3v-4.7h2.6v12.2zm7.3 0.2c-3.4 0-5.5-2.7-5.5-6.2 0-3.7 2.2-6.4 5.6-6.4 3.6 0 5.5 2.8 5.5 6.2 0.1 4-2.2 6.4-5.6 6.4zm10.2 0c-1.3 0-2.6-0.4-3.3-0.7l0.5-2.3c0.7 0.4 1.8 0.8 2.9 0.8 1.2 0 1.8-0.5 1.8-1.3s-0.6-1.2-1.9-1.7c-1.9-0.7-3.2-1.8-3.2-3.6 0-2.1 1.7-3.7 4.4-3.7 1.3 0 2.3 0.3 3 0.6l-0.6 2.2c-0.5-0.2-1.3-0.6-2.4-0.6s-1.7 0.5-1.7 1.2c0 0.8 0.7 1.1 2.2 1.7 2 0.8 3 1.9 3 3.6 0 2-1.5 3.8-4.7 3.8zm13.8-5.8c-0.9 0.9-2.2 1.3-3.8 1.3-0.3 0-0.7 0-0.9-0.1v4.4h-2.6v-12.1c0.8-0.1 1.9-0.3 3.5-0.3s2.8 0.3 3.5 1c0.7 0.6 1.2 1.6 1.2 2.8 0.1 1.3-0.3 2.3-0.9 3zm5.3 5.6h-2.6v-12.2h2.6v12.2zm7.2 0h-2.6v-9.9h-3.1v-2.3h8.9v2.3h-3.2v9.9zm10.2 0l-0.9-3.1h-3.3l-0.8 3.1h-2.7l3.5-12.2h3.4l3.6 12.2h-2.8zm11.6 0h-7.3v-12.2h2.6v9.9h4.6v2.3z"/>
				</g>
				<rect y="536.2" x="529.8" height="17.2" width="17.6" fill="#939598"/>
				<rect y="536.2" x="553.2" height="17.2" width="17.6" fill="#939598"/>
				<rect y="562.2" x="529.8" height="17.2" width="17.6" fill="#939598"/>
				<rect y="562.2" x="553.2" height="17.2" width="17.6" fill="#939598"/>
				<rect y="536.5" x="681.8" height="17.2" width="17.6" fill="#939598"/>
				<rect y="536.2" x="701.2" height="17.2" width="17.6" fill="#939598"/>
				<rect y="562.2" x="677.8" height="17.2" width="17.6" fill="#939598"/>
				<rect y="562.2" x="701.2" height="17.2" width="17.6" fill="#939598"/>
				<rect y="589.1" x="677.8" height="17.2" width="17.6" fill="#939598"/>
				<rect y="589.1" x="701.2" height="17.2" width="17.6" fill="#939598"/>
				<rect y="492.9" x="614.9" height="17.2" width="17.6" fill="#939598"/>
				<rect y="492.9" x="640.8" height="17.2" width="17.6" fill="#939598"/>
				<rect y="519" x="588.9" height="17.2" width="17.6" fill="#939598"/>
				<rect y="519" x="614.9" height="17.2" width="17.6" fill="#939598"/>
				<rect y="519" x="640.8" height="17.2" width="17.6" fill="#939598"/>
				<rect y="545" x="588.9" height="17.2" width="17.6" fill="#939598"/>
				<rect y="545" x="614.9" height="17.2" width="17.6" fill="#939598"/>
				<rect y="545" x="640.8" height="17.2" width="17.6" fill="#939598"/>
				<g fill="#58595B">
					<rect y="568.6" x="588.9" height="53.9" width="34.4"/>
					<rect y="568.6" x="625.4" height="53.9" width="32.4"/>
				</g>
					<path d="m576.2 613.9l-9.4-17.5h-67.5c-6.9-1.6-9.9 7.5-9.9 7.5v36.9h11.7c-0.1-0.4-0.1-0.9-0.1-1.4 0-5.5 4.2-9.9 9.4-9.9s9.4 4.5 9.4 9.9c0 0.5 0 0.9-0.1 1.4h31c-0.1-0.4-0.1-0.9-0.1-1.4 0-5.5 4.2-9.9 9.4-9.9s9.4 4.5 9.4 9.9c0 0.5 0 0.9-0.1 1.4h18.4v-20.8l-11.5-6.1z" fill="#fff"/>
						<path d="m510.2 630.9c-4.5 0-8.1 3.8-8.1 8.5s3.6 8.5 8.1 8.5c4.5 0 8.1-3.8 8.1-8.5s-3.6-8.5-8.1-8.5zm0 13.6c-2.6 0-4.8-2.3-4.8-5s2.1-5 4.8-5c2.6 0 4.8 2.3 4.8 5s-2.1 5-4.8 5z" fill="#58595B"/>
						<ellipse cy="639.5" cx="510.2" rx="4.2" ry="4.4" fill="#939598"/>
						<path d="m560.3 630.9c-4.5 0-8.1 3.8-8.1 8.5s3.6 8.5 8.1 8.5c4.5 0 8.1-3.8 8.1-8.5s-3.6-8.5-8.1-8.5zm0 13.6c-2.6 0-4.8-2.3-4.8-5s2.1-5 4.8-5c2.6 0 4.8 2.3 4.8 5s-2.2 5-4.8 5z" fill="#58595B"/>
						<ellipse cy="639.5" cx="560.3" rx="4.2" ry="4.4" fill="#939598"/>
						<path d="m550.2 594h-6.2v-5c0-1.7 1.4-3.1 3.1-3.1s3.1 1.4 3.1 3.1v5z" fill="#ED1C24"/>
						<rect y="592.9" x="539.1" height="3.6" width="16" fill="#808285"/>
						<rect y="601.2" x="495.9" height="13" width="10.1" fill="#58595B"/>
						<rect y="601.2" x="514.4" height="13" width="10.1" fill="#58595B"/>
						<rect y="601.2" x="534.7" height="13" width="10.1" fill="#58595B"/>
						<polygon points="571.5 614.2 554.2 614.2 554.2 601.2 564.3 601.2" fill="#58595B"/>
					<path d="m636.2 599.8c-0.7 0.2-1.4 0.4-2 0.6-1.3 0.5-1.7 1.3-1.6 2.7 0.2 1.8 0.4 3.7 0.7 5.6 1.3 0 1.4 1 1.5 2l0.6 4.5h0.6 13.4c0.3 0 0.6 0.1 0.7-0.3 0.1-0.1 1-0.2 1.1 0 0.2 0.6 0.6 0.4 1 0.4 0.9 0 1.3 0.4 1.3 1.3 0 1-0.3 1.4-1.3 1.4h-4.7-11-0.7c0.1 1.1 0.2 2.1 0.4 3.2 0 0.1 0.4 0.3 0.6 0.3h7.4 1.3c0.5 0 1.2 0 1.3 0.6s0 1.3 0 2c0 0.3-0.3 0.6-0.3 0.9v6.5h8v1.3c-0.2 0-0.4 0.1-0.8 0.1 0.1 0.8 0.2 1.7 0.3 2.4 0.2 0.9-0.2 1.9-1 2.2s-1.7-0.2-2-1c-0.3-0.9 0.2-1.9 1.1-2.1 0.2 0 0.3-0.1 0.6-0.1v-0.6-0.7h-7.4c0.2-2.6-0.6-4.8-2.5-6.4-1.3-1.1-2.8-1.5-4.5-1.4-3 0.2-6.4 2.9-6.1 7.8h-1.4c0.1 0.9 0.1 1.7 0.2 2.5 0.2 1-0.1 1.9-0.9 2.2-0.9 0.3-1.8-0.2-2.1-1.1s0.3-1.8 1.2-2.1c0.1 0 0.3-0.1 0.5-0.1v-0.9-0.3c-0.8-0.2-0.3-0.9-0.5-1.4h2.3v-8.1h1.9v-1.3c-0.3-2.3-0.5-4.6-0.9-6.9 0-0.3-0.3-0.6-0.5-0.7-1.7-1-2.9-2.4-3.2-4.5-0.3-2.4 0.9-4.5 3.1-5.2 0-1.4-0.5-3 0.6-4.2 1-1.2 2.4-1.4 3.8-1.6 0.1-1.2 0.4-2.3 1.2-3.2 0.2-0.2 0.6-0.4 0.9-0.3 0.2 0 0.5 0.4 0.6 0.7 0.1 0.2 0 0.6-0.2 0.9-1 1.5-0.9 3.1 0 4.6 0.1 0.2 0.2 0.3 0.3 0.5 0.2 0.5 0.2 1-0.3 1.3s-1 0.2-1.2-0.3c-0.4-0.7-0.7-1.5-1.1-2.3-0.2-0.8-0.2-1-0.3-1.4zm-4.1 13.6c-0.1-1.1-0.3-2.1-0.4-3.1-0.1-0.5 0-1 0.5-1.3 0.1-0.1 0.2-0.3 0.2-0.4-0.2-0.9-0.3-1.9-0.5-2.8-1.2 0.2-2.1 1.4-2.3 2.8-0.3 2 0.6 3.9 2.5 4.8zm20.2 23.2c0.5 0 0.8-0.3 0.8-0.8s-0.3-0.8-0.7-0.9-0.9 0.4-0.8 0.8c-0.1 0.6 0.2 0.9 0.7 0.9zm-22.1-0.8c-0.1-0.5-0.3-0.8-0.8-0.8s-0.8 0.3-0.8 0.8 0.3 0.9 0.8 0.9c0.5-0.1 0.7-0.4 0.8-0.9z" fill="#F1F2F2"/>
					<path d="m652 618.5v1.9c-0.1 2.6-0.1 5.1-0.3 7.7 0 0.6-0.2 1.2-0.4 1.7-0.5 0.9-1.5 1.2-2.4 0.9-1-0.3-1.6-1.2-1.6-2.3 0-2.5 0.1-5 0.2-7.5v-0.7c-0.5 0-1 0.1-1.5 0.1-2.1 0.1-4.2 0.2-6.2 0.2-1.2 0-2-0.7-2.6-1.9 4.8-0.1 9.7-0.1 14.8-0.1z" fill="#F1F2F2"/>
					<path d="m643.6 603c-2.2 0-4.1-1.9-4-4.3 0-2.3 1.8-4.2 4-4.3 2.3 0 4.1 2 4.1 4.3 0 2.4-1.8 4.3-4.1 4.3z" fill="#F1F2F2"/>
					<path d="m647.2 614.3h-3.5c-0.8 0-1.2-0.3-1.5-1.1-0.7-1.9-1.4-3.8-2-5.7-0.3-0.9 0.1-1.7 0.9-2s1.5 0.1 1.8 1c0.5 1.4 1 2.8 1.5 4.3 0.1 0.5 0.4 0.6 0.8 0.6h5.5c1 0 1.7 0.6 1.7 1.5s-0.7 1.5-1.7 1.5c-1.2-0.1-2.4-0.1-3.5-0.1z" fill="#F1F2F2"/>
					<path d="m636.4 614.6c-0.2-2.3 0.2-4.4 0.8-6.5 0.2-0.8 0.4-1.6 0.8-2.3 0.7-1.4 1.7-2.4 3.3-2.5 1.4-0.1 2.4 0.6 2.7 2.1 0.2 0.9 0.1 1.9 0.2 2.8-0.1 0-0.2 0-0.3 0.1-0.2-0.7-0.5-1.3-0.7-2-0.3-0.8-0.9-1.2-1.6-1.2-0.8 0-1.4 0.3-1.6 1.1-0.1 0.4-0.2 1-0.1 1.4 0.6 2 1.3 3.9 2 5.9 0.2 0.4 0.5 0.8 0.8 1.2h-3.1c-1-0.1-2.1-0.1-3.2-0.1z" fill="#F1F2F2"/>
					<path d="m637.9 626.2h1.3c0.3 0.9 0.8 1 1.4 0.4 0.4 0.2 0.8 0.5 1.2 0.7-0.1 0.2-0.1 0.4-0.2 0.6 0.4 0.3 0.5 0.9 1.2 0.4 0.3 0.5 0.5 0.9 0.7 1.3h-0.2c-0.1 0.3-0.2 0.6-0.1 0.9 0.1 0.2 0.3 0.4 0.5 0.6l0.1-0.1v1.4c-0.8 0.3-1 0.9-0.3 1.5-0.2 0.4-0.4 0.8-0.7 1.2 0-0.1-0.1-0.1-0.1-0.2-0.3 0.1-0.6 0.2-0.9 0.4-0.1 0.1-0.1 0.5-0.2 0.9-0.2 0.1-0.6 0.4-1.1 0.6-0.3-0.7-0.8-0.4-1.2-0.3 0 0.2-0.1 0.4-0.1 0.6h-1.4l0.1-0.1c-0.2-0.2-0.4-0.5-0.7-0.6-0.2-0.1-0.5 0.1-0.8 0.1v0.2c-0.4-0.2-0.8-0.5-1.2-0.7 0.4-0.6 0-0.9-0.4-1.3-0.2 0.1-0.3 0.1-0.6 0.2-0.2-0.4-0.5-0.8-0.7-1.2h0.2c0-0.4 0.1-0.7 0.1-1.1 0-0.2-0.3-0.3-0.6-0.5v-1.3c0.1 0 0.1 0.1 0.2 0.1 0.2-0.3 0.4-0.6 0.5-0.9 0-0.2-0.2-0.4-0.3-0.8 0.2-0.3 0.4-0.7 0.6-1.2 0.2 0.1 0.4 0.1 0.6 0.2 0.2-0.2 0.4-0.5 0.6-0.8 0-0.1-0.1-0.3-0.2-0.5 0.4-0.2 0.8-0.5 1.2-0.7 0.7 1 1.3 0.9 1.5 0zm0.6 9.3c1.9 0 3.5-1.7 3.5-3.7s-1.6-3.7-3.5-3.7-3.5 1.7-3.5 3.7 1.6 3.7 3.5 3.7z" fill="#F1F2F2"/>
					<path d="m649.9 610.9c0.1-0.2 0.1-0.5 0.1-0.5 0.3-0.1 0.7-0.1 1 0 0.1 0 0.1 0.3 0.2 0.5h-1.3z" fill="#F1F2F2"/>
					<path d="m652.3 636.6c-0.4-0.1-0.7-0.3-0.7-0.8s0.4-0.9 0.8-0.8c0.5 0.1 0.8 0.4 0.7 0.9 0 0.4-0.3 0.7-0.8 0.7z" fill="#FFC300"/>
					<path d="m630.2 635.8c-0.1 0.5-0.3 0.8-0.8 0.8s-0.8-0.4-0.8-0.9 0.3-0.8 0.8-0.8c0.5 0.1 0.7 0.4 0.8 0.9z" fill="#FFC300"/>
					<path d="m638.5 635.5c-1.9 0-3.5-1.7-3.5-3.7s1.6-3.7 3.5-3.7 3.5 1.7 3.5 3.7-1.5 3.7-3.5 3.7zm0-6c-1.2 0-2.2 1-2.2 2.3s0.9 2.3 2.2 2.4c1.2 0 2.2-1 2.2-2.3 0.1-1.3-0.9-2.4-2.2-2.4z" fill="#FFC300"/>
					<path d="m638.5 629.5c1.2 0 2.2 1.1 2.2 2.4 0 1.2-1 2.3-2.2 2.3s-2.2-1.1-2.2-2.4c0.1-1.3 1-2.3 2.2-2.3z" fill="#F1F2F2"/>
		<rect y="41.7" x="64" height="606.3" width="1238" fill="none"/>
		<text font-size="13.182" font-family="&apos;MyriadPro-Regular&apos;" transform="translate(640.09 394.01)" fill="#FFFFFF">HRMS System</text>
		<text font-size="13.182" font-family="&apos;MyriadPro-Regular&apos;" transform="translate(257.43 521.66)" fill="#FFFFFF">HIS System</text>
		<text font-size="13.182" font-family="&apos;MyriadPro-Regular&apos;" transform="translate(773.99 548.37)" fill="#FFFFFF">EMR System</text>
		<text font-size="13.182" font-family="&apos;MyriadPro-Regular&apos;" transform="translate(1060.4 457.33)" fill="#FFFFFF">APP Portals</text>
		<text font-size="13.182" font-family="&apos;MyriadPro-Regular&apos;" transform="translate(254.66 624.27)" fill="#FFFFFF">Salesforce</text>
</svg>
