<?xml version="1.0" encoding="UTF-8" standalone="no"?>
<!-- Generator: Adobe Illustrator 18.0.0, SVG Export Plug-In . SVG Version: 6.00 Build 0)  -->
<!DOCTYPE svg  PUBLIC '-//W3C//DTD SVG 1.1//EN'  'http://www.w3.org/Graphics/SVG/1.1/DTD/svg11.dtd'>
<svg id="Layer_1" xmlns="http://www.w3.org/2000/svg" xml:space="preserve" viewBox="0 0 1366 648" version="1.1" y="0px" x="0px" xmlns:xlink="http://www.w3.org/1999/xlink" enable-background="new 0 0 1366 648">
	<text font-size="15.465" font-family="&apos;MyriadPro-Regular&apos;" transform="translate(1176.6 569.63)" fill="#FFFFFF"><tspan y="0" x="0">Marketing</tspan><tspan y="18.6" x="28.3">&amp;</tspan><tspan y="37.1" x="-49.6">Recommendation Service</tspan></text>
	<linearGradient id="SVGID_1_" y2="641.78" gradientUnits="userSpaceOnUse" x2="683" y1="8.3366" x1="683">
		<stop stop-color="#64B5F6" offset="0"/>
		<stop stop-color="#2196F3" offset="1"/>
	</linearGradient>
	<rect width="1366" height="648" fill="url(#SVGID_1_)"/>
					<path d="m761.6 336.8c11.5 0 20.9-9.3 20.9-20.9 0-11.5-9.3-20.9-20.9-20.9-0.7 0-1.4 0-2 0.1 2.2-3.9 3.5-8.4 3.5-13.1 0-14.5-11.7-26.2-26.2-26.2-6.5 0-12.5 2.4-17.1 6.4-4.4-24.8-26.1-43.6-52.2-43.6-29.3 0-53 23.7-53 53 0 2.8 0.2 5.6 0.6 8.3-1.1-0.1-2.1-0.2-3.2-0.2-15.8 0-28.6 12.8-28.6 28.6 0 14.7 11.1 26.8 25.3 28.4l152.9 0.1z" fill="#fff"/>
	<ellipse rx="62.4" cy="628.1" ry="9.5" stroke="#414042" cx="780.5" stroke-miterlimit="10" fill="#BCBEC0"/>
	<g opacity=".02">
		<polygon points="422.5 173.6 683 23.1 943.5 173.6 943.5 474.4 683 624.9 422.5 474.4" fill="#2895F1"/>
			<defs>
				<polygon id="SVGID_2_" points="422.5 173.6 683 23.1 943.5 173.6 943.5 474.4 683 624.9 422.5 474.4"/>
			</defs>
			<clipPath id="SVGID_3_">
				<use overflow="visible" xlink:href="#SVGID_2_"/>
			</clipPath>
			<polyline fill="#9B9DA0" points="507.3 420.9 478.9 336.9 491.8 305.9 572.7 249.5 640.3 189.1 730.9 178.7 759.9 175.5 994.4 309.2 996.1 705.8" clip-path="url(#SVGID_3_)"/>
		<path d="m900.2 334.1c0 0.3-0.1 0.6-0.1 0.9v1.2 1.6c0 1.5-0.2 3.1-0.4 4.6-0.2 1.3-0.3 2.6-0.5 3.9-0.4 3-1 5.9-1.8 8.9-4 16.2-11.6 30.6-22.4 43.3-9.3 10.9-20.4 19.7-33.1 26.4-9.1 4.9-18.8 8.4-28.9 10.7-2.8 0.6-5.6 1.2-8.4 1.6-2.1 0.3-4.1 0.6-6.2 0.8-1.3 0.1-2.5 0.2-3.8 0.3-1.8 0.2-3.5 0.2-5.3 0.3-1.4 0.1-2.8 0.2-4.3 0.3-0.3 0-0.7 0.1-1 0.1-2.5 0.1-5.1 0.2-7.6 0.3-6.5 0.3-13 0.2-19.4 0.2-3 0-6.1-0.1-9.1-0.2-1.7 0-3.3 0-5-0.1-2.4-0.1-4.8-0.1-7.2-0.2-0.5 0-1-0.1-1.6 0.1-0.3 0.3-0.6 0.6-0.9 1-12 12.4-23.9 24.8-35.9 37.3-2.9 3-5.8 6.1-8.8 9.1-0.2 0.2-0.4 0.4-0.6 0.7-0.2 0.2-0.4 0.2-0.7 0-0.2-0.1-0.3-0.2-0.5-0.3-10.2-7.6-20.5-15.2-30.7-22.7-0.2-0.2-0.4-0.3-0.6-0.5 0 0-0.1-0.3 0-0.4 0.2-0.2 0.3-0.4 0.5-0.5 3.2-3.5 6.4-7.1 9.7-10.6 10.8-11.9 21.7-23.8 32.5-35.7 4.4-4.8 8.7-9.6 13.1-14.4 0.3-0.4 0.6-0.8 1.1-1.1 0.5-0.1 1-0.1 1.5-0.1 2.9-0.1 5.9-0.1 8.8 0 2.2 0.1 4.3 0.1 6.5 0.1 2.7 0.1 5.3 0.2 8 0.3 0.7 0 1.3 0.1 2 0.1 3.1 0.1 6.2 0.3 9.4 0.4 0.9 0 1.8 0.1 2.7 0.1 3.8 0.1 7.6 0.3 11.5 0.2 2.6 0 5.2-0.1 7.8-0.2 2.1 0 4.2-0.2 6.4-0.3 2.1-0.1 4.2-0.3 6.3-0.6 2.5-0.3 5-0.6 7.6-1 0.8-0.1 1.5-0.3 2.3-0.4 0.3-0.1 0.6-0.1 0.9-0.3 0.2-0.1 0.4-0.2 0.7-0.2 1.1-0.2 2.3-0.4 3.4-0.6 1.8-0.3 3.6-0.8 5.4-1.3 2.3-0.6 4.7-1.4 7-2.2 2.8-1 5.5-2.2 8.2-3.6 8.3-4.3 15.5-9.9 21.7-16.9 6.4-7.4 11.1-15.8 13.9-25.1 0.9-3.1 1.6-6.2 2-9.4 0.6-4.3 0.8-8.5 0.6-12.8-0.5-8.8-2.6-17.2-6.5-25.2-4-8.3-9.5-15.5-16.4-21.6-8.7-7.7-18.7-13.1-30-16.1-2.8-0.8-5.5-1.3-8.4-1.8-1.6-0.2-3.1-0.4-4.7-0.6-1.1-0.1-2.2-0.2-3.2-0.2-0.4 0-0.6-0.2-0.7-0.5s-0.2-0.6-0.4-0.9c-9.7-23.5-28.2-42.8-52.1-53.4-6.1-2.7-12.4-4.8-19-6.2-2.3-0.5-4.7-0.9-7.1-1.3-1.6-0.2-3.3-0.4-4.9-0.6s-3.2-0.2-4.7-0.3c-0.7-0.1-1.5-0.1-2.2-0.1h-5.8c-1.9 0-3.7 0.2-5.5 0.4-1 0.1-2.1 0.2-3.1 0.3-1.3 0.2-2.5 0.3-3.8 0.5-2.5 0.4-5 0.9-7.5 1.5-10.3 2.5-20 6.5-29 12.1-13.2 8.2-23.9 18.8-32.2 31.9-2.2 3.5-4 7.1-5.5 10.9-1.8 4.5-3.3 9.1-4.6 13.8-1.1 3.9-2 7.9-2.8 11.9 0 0.2-0.1 0.3-0.1 0.5 0 0.1-0.2 0.3-0.3 0.3h-0.6c-1.5-0.2-2.9-0.4-4.4-0.6-0.8-0.1-1.7-0.2-2.5-0.3-1.3-0.1-2.5-0.2-3.8-0.3-2-0.2-4-0.2-6-0.3-1.8-0.1-3.5-0.1-5.3 0-1 0-2.1 0.1-3.1 0.1-1.3 0.1-2.5 0.2-3.8 0.4-1.3 0.1-2.5 0.3-3.8 0.5-5.1 0.9-10.1 2.4-14.7 4.6-6.8 3.3-12.9 7.5-18.4 12.7-5.4 5.1-9.8 11-13.1 17.7-2.3 4.7-4 9.7-4.9 14.9-0.7 4-1 8-0.8 12 0.4 9.6 3.2 18.5 8.1 26.8 1.2 2.1 2.7 4 4.2 5.9 4.3 5.3 9.3 9.9 14.9 13.8 6.4 4.5 13.3 8 20.6 10.6 0.9 0.3 0.9 0.3 1.9 0.3 6.7-0.1 13.4-0.1 20.1-0.2 6.9 0 13.7-0.1 20.6-0.1 3.5 0 7-0.1 10.5-0.1 3.9 0 7.9-0.1 11.8-0.1h1c0.2 0 0.4-0.1 0.6-0.3 0.2-0.3 0.5-0.5 0.7-0.8l30.3-33c3.4-3.7 6.8-7.4 10.2-11.1 0.2-0.3 0.5-0.5 0.7-0.8 0 0 0.1-0.2 0.1-0.3-0.2-0.4-0.6-0.6-0.9-0.9-3.7-3.7-7.4-7.4-11-11.1l-0.7-0.7c-0.1-0.1-0.1-0.2-0.1-0.2 0-0.1 0.1-0.2 0.2-0.2 0.3 0 0.7-0.1 1-0.1l6-0.3c1.8-0.1 3.7-0.2 5.5-0.4 1.8-0.1 3.7-0.2 5.5-0.3 2-0.1 4.1-0.2 6.1-0.4h0.5l6-0.3c1.8-0.1 3.7-0.2 5.5-0.4h0.5l6-0.3c1.8-0.1 3.7-0.2 5.5-0.4l5.4-0.3c0.8 0 1.6-0.1 2.4-0.2 0.4 0 0.5 0.1 0.6 0.4 0 0.3 0.1 0.7 0.1 1 0.1 1.5 0.3 3.1 0.4 4.6l0.3 3c0.1 1.3 0.2 2.5 0.3 3.8s0.2 2.5 0.3 3.8c0.1 1 0.2 1.9 0.3 2.9 0.1 1.3 0.2 2.5 0.3 3.8s0.2 2.6 0.4 3.9c0.1 1 0.2 2.1 0.3 3.1 0.1 1.3 0.2 2.5 0.3 3.8s0.2 2.5 0.3 3.8c0.1 1 0.2 1.9 0.3 2.9 0.1 1.3 0.2 2.5 0.3 3.8l0.3 3.9v1.2s-0.1 0.1-0.2 0.1c-0.3-0.1-0.5-0.3-0.8-0.5-2.3-1.6-4.6-3.1-6.9-4.7-2.2-1.5-4.5-3.1-6.7-4.6-0.2-0.2-0.4-0.3-0.7-0.5s-0.4-0.2-0.7 0.1c-0.2 0.3-0.5 0.5-0.7 0.8-2.9 3.2-5.8 6.4-8.6 9.7-10.3 11.5-20.6 23.1-31 34.5-3.4 3.7-6.8 7.4-10.2 11l-3.6 3.6c-0.4 0.4-0.9 0.9-1.4 1.2-0.5 0-1.1 0.1-1.6 0.1h-94.3-0.2c-0.7 0.1-1.5-0.1-2.2-0.3-4.5-1.3-9-2.8-13.3-4.6-8.4-3.4-16.4-7.7-23.9-12.9-7-4.9-13.3-10.4-18.9-16.9-9-10.3-15.5-22.1-19.3-35.2-0.9-3.2-1.7-6.4-2.2-9.7-0.5-2.5-0.8-5.1-1.1-7.7-0.2-1.5-0.2-3.1-0.3-4.6 0-0.5-0.1-1.1-0.1-1.6 0-0.2-0.1-0.4-0.3-0.6v-5.6c0.2-0.1 0.3-0.3 0.4-0.6 0-0.3 0.1-0.6 0.1-0.9 0.1-2.3 0.4-4.6 0.7-6.9 0.5-3.6 1.3-7.1 2.3-10.5 1.9-6.8 4.7-13.2 8.1-19.4 4.7-8.4 10.4-15.9 17.1-22.8 10.4-10.6 22.4-18.8 35.9-24.9 8.8-3.9 17.9-6.7 27.3-8.4 0.3-0.1 0.6-0.2 0.9-0.2 0.2-0.3 0.3-0.6 0.5-0.9 6.1-13.4 14.3-25.5 24.3-36.3 11.1-12 23.9-21.7 38.3-29.4 16.9-9 34.8-14.5 53.8-16.7 0.8-0.1 1.7-0.2 2.5-0.3 1.3-0.1 2.6-0.3 3.9-0.4l5.7-0.3c0.3 0 0.7 0 1-0.2h10c0.2 0.1 0.5 0.1 0.8 0.2 1.7 0.1 3.5 0.2 5.2 0.3l3.9 0.3c1.7 0.2 3.4 0.4 5.1 0.6 2.7 0.3 5.4 0.8 8.1 1.3 4.3 0.8 8.5 1.8 12.7 2.9 14.5 4 28.2 10 40.9 18.1 17.3 11.1 31.8 25.2 43 42.4 0.6 1 0.4 0.8 1.6 1.2 6.3 1.9 12.5 4.2 18.4 7.1 14.3 7 26.7 16.5 37 28.6 10.6 12.6 18.1 26.8 22 42.8 0.7 3 1.3 5.9 1.8 9 0.2 1.3 0.4 2.6 0.5 3.9 0.2 1.5 0.3 2.9 0.4 4.4v1.6c0 0.5 0 0.9 0.1 1.4 0 0.3 0.1 0.6 0.1 0.9-0.7 2.8-0.7 5.1-0.7 7.4z" fill="#fff"/>
	</g>
	<circle cy="300.9" cx="634" r="5.1" fill="#2E3192"/>
	<circle cy="300.9" cx="686" r="5.1" fill="#2E3192"/>
	<circle cy="300.9" cx="712" r="5.1" fill="#2E3192"/>
	<circle cy="300.9" cx="738" r="5.1" fill="#2E3192"/>
	<circle cy="300.9" cx="660" r="5.1" fill="#2E3192"/>
	<g stroke-miterlimit="10" stroke="#2E3192" stroke-width="2" stroke-linecap="round" fill="none">
		<polyline points="427.2 364.6 417 354.4 389.9 354.4"/>
			<circle r="4.2" cy="354.3" cx="385.6"/>
	</g>
	<g stroke-miterlimit="10" stroke="#2E3192" stroke-width="2" stroke-linecap="round" fill="none">
		<polyline points="591.8 365.8 581.6 375.9 554.5 375.9"/>
			<circle r="4.2" cy="376.1" cx="550.2"/>
	</g>
	<g stroke-miterlimit="10" stroke="#2E3192" stroke-width="2" stroke-linecap="round" fill="none">
		<polyline points="768.2 349.9 778.3 360.1 805.5 360.1"/>
			<circle r="4.2" cy="360.2" cx="809.7"/>
	</g>
	<g stroke-miterlimit="10" stroke="#2E3192" stroke-width="2" stroke-linecap="round" fill="none">
		<polyline points="967.7 340.6 977.9 330.4 1005 330.4"/>
			<circle r="4.2" cy="330.3" cx="1009.3"/>
	</g>
	<g stroke-miterlimit="10" stroke="#2E3192" stroke-width="2" stroke-linecap="round" fill="none">
		<polyline points="314.7 379.3 304.5 389.5 304.5 416.6"/>
			<circle r="4.2" cy="420.8" cx="304.4"/>
	</g>
	<g stroke-miterlimit="10" stroke="#2E3192" stroke-width="2" stroke-linecap="round" fill="none">
		<polyline points="523.5 460.3 513.3 470.5 513.3 497.6"/>
			<circle r="4.2" cy="501.8" cx="513.2"/>
	</g>
	<g stroke-miterlimit="10" stroke="#2E3192" stroke-width="2" stroke-linecap="round" fill="none">
		<polyline points="523.9 414.7 532.7 423.4 532.7 446.7"/>
			<circle r="3.6" cy="450.3" cx="532.8"/>
	</g>
	<g stroke-miterlimit="10" stroke="#2E3192" stroke-width="2" stroke-linecap="round" fill="none">
		<polyline points="980.7 399.4 989.4 408.1 989.4 431.4"/>
			<circle r="3.6" cy="435" cx="989.5"/>
	</g>
	<g stroke-miterlimit="10" stroke="#2E3192" stroke-width="2" stroke-linecap="round" fill="none">
		<polyline points="1089.4 408.5 1098.1 417.2 1098.1 440.5"/>
			<circle r="3.6" cy="444.1" cx="1098.2"/>
	</g>
				<path d="m909 389.2c0.3-4 1.2-7.8 2.1-11.6 0.4-1.8 1-3.4 1.8-5.1 1.1-2.3 5.2-7.5 8.6-3.1 4.5 5.9 5.3 16.6 1.9 23-0.4 0.7 0.7 1.3 1.1 0.6 3.7-7.1 3.3-22.3-4.5-26.9-3.1-1.8-7 3.7-8.1 5.7-2.9 4.9-3.6 11.8-4.1 17.4-0.1 0.8 1.2 0.8 1.2 0z" fill="#414042"/>
		<polygon points="903.1 378.1 948.3 390.3 946.7 466.8 895.4 467.9" fill="#fff"/>
		<polygon points="879 463.4 895.4 467.9 890.1 458.6" fill="#fff"/>
		<polygon points="899 382.4 894.9 378.8 879 463.4 890.1 458.6 895.4 467.9 903.1 378.1" fill="#D1D3D4"/>
			<ellipse cy="388.6" rx="1.5" transform="matrix(.9963 .085439 -.085439 .9963 36.571 -77.298)" ry="2.2" stroke="#414042" cx="921.3" stroke-miterlimit="10" stroke-width="2" fill="none"/>
			<ellipse cy="392.3" rx="1.5" transform="matrix(.9963 .085439 -.085439 .9963 36.945 -78.594)" ry="2.2" stroke="#414042" cx="936.7" stroke-miterlimit="10" stroke-width="2" fill="none"/>
				<path d="m922 388.6c0.3-4 1.2-7.8 2.1-11.6 0.4-1.8 1-3.4 1.8-5.1 1.1-2.3 5.2-7.5 8.6-3.1 4.5 5.9 5.3 16.6 1.9 23-0.4 0.7 0.7 1.3 1.1 0.6 3.7-7.1 3.3-22.3-4.5-26.9-3.1-1.8-7 3.7-8.1 5.7-2.9 4.9-3.6 11.8-4.1 17.4-0.1 0.8 1.1 0.8 1.2 0z" fill="#414042"/>
				<path d="m415.7 443.4c-2.8-4.3 2.3-9.6 5.9-5.7 2.1 2.2 6.5 9.5 7.9 12.8v-38h-37.1v39.5h36.2c-3.2-1.3-11.1-5.9-12.9-8.6z" fill="#FFC900"/>
				<path d="m429.5 450.5v1.4h-1c0.7 0.3 1.2 0.4 1.3 0.2 0.2-0.2 0.1-0.8-0.3-1.6z" fill="#FFC900"/>
				<path d="m428.8 450c-1.1-2.7-4.8-8.7-6.5-10.6-3-3.2-7.2 1.2-4.9 4.7 1.5 2.2 8 6 10.6 7h0.8v-1.1z" fill="#fff"/>
				<path d="m444.4 461.5c2.8 4.3-2.3 9.6-5.9 5.7-2.1-2.2-6.5-9.5-7.9-12.8v38h37.1v-39.4h-36.2c3.2 1.2 11.1 5.8 12.9 8.5z" fill="#FFC900"/>
				<path d="m430.6 454.4v-1.4h1c-0.7-0.3-1.2-0.4-1.3-0.2-0.2 0.1-0.1 0.7 0.3 1.6z" fill="#FFC900"/>
				<path d="m431.3 454.9c1.1 2.7 4.8 8.7 6.5 10.6 3 3.2 7.2-1.2 4.9-4.7-1.5-2.2-8-6-10.6-7h-0.8v1.1z" fill="#fff"/>
		<path d="m423.5 470.6l-1.7 1.5s-4.3-12.2 7.7-19.4h-37.1v39.7h37.1v-39.7s-10.4 10.8-6 17.9z" fill="#FFC900"/>
		<path d="m436.4 434.2l1.7-1.5s4.3 12.2-7.7 19.4h37.1v-39.7h-37.1v39.6s10.3-10.8 6-17.8z" fill="#FFC900"/>
			<path d="m839.1 548.3h21.4c1.5 0 2.1 0.6 2.1 2.1v8c0 1.3-0.4 1.8-1.8 1.8h-34.3c-0.5 0-0.9 0.1-1.3 0.5-0.6 0.8-1.7 0.7-2.4 0-0.8-0.8-1.9-0.8-2.8-0.2-0.5 0.4-1.1 0.3-1.6 0-0.3-0.2-0.6-0.3-0.9-0.4-0.8-0.1-1.5-0.7-1.5-1.5v-9c0-0.8 0.4-1.2 1.2-1.3h1.6c6.7 0.1 13.5 0.1 20.3 0v0zm-17.7 10.1h2.8c0.4 0 0.6-0.2 0.6-0.6v-1.2l0.9-4.5c0.1-0.9 0.4-1.5 1.4-1.5 0.1 0 0.3-0.2 0.4-0.3-0.2-0.1-0.4-0.2-0.5-0.2-0.6 0.2-1.2 0-1.9 0.3-0.8 0.4-1.8 0.3-2.7 0.5-1.8 0.3-3.6 0.6-5.4 0.9-0.1 0-0.3 0.3-0.3 0.4 0.3 1.6 0.6 3.1 0.9 4.7 0.1 0.4 0.3 0.6 0.7 0.6h5.1 0.4c0.1 0 0.1 0.1 0.2 0.2-0.1 0.1-0.1 0.2-0.2 0.2h-0.4-5c-0.2 0-0.3 0.2-0.5 0.3 0.2 0.1 0.3 0.3 0.5 0.3 1.2-0.1 2.1-0.1 3-0.1zm32.6-6.4v0.3c0.3 1.4 0.7 2.7 1 4.1 0.1 0.4 0.2 0.5 0.6 0.5 0.5 0 0.7-0.2 0.8-0.6 0.2-0.9 0.5-1.8 0.7-2.7 0.4 1 0.6 1.9 0.9 2.9 0.1 0.5 0.4 0.4 0.8 0.4 0.3 0 0.6 0 0.6-0.4 0.1-0.5 0.3-1.1 0.4-1.6 0.2-0.9 0.4-1.9 0.6-2.8-0.9-0.2-1-0.2-1.2 0.6s-0.3 1.5-0.5 2.3c-0.3-0.8-0.5-1.6-0.7-2.5-0.1-0.5-0.4-0.5-0.8-0.5s-0.6 0.1-0.7 0.6c-0.2 0.8-0.4 1.6-0.6 2.5-0.3-0.8-0.4-1.5-0.6-2.3-0.3-1-0.3-1-1.3-0.8zm-22.5 2.2c0.9-1.3 0.4-2.2-1.1-2.3-0.6-0.1-1.3 0-1.9 0-0.4 0-0.5 0.1-0.5 0.5v4c0 0.4 0.1 0.5 0.5 0.5h2.2c0.4 0 0.8-0.2 1.1-0.4 0.7-0.6 0.6-1.5-0.3-2.3zm13.7-0.3c0.2 0.2 0.2 0.3 0.3 0.4 0.5 0.8 1 1.5 1.4 2.3 0.2 0.4 0.6 0.3 0.9 0.3 0.1 0 0.3-0.2 0.3-0.3v-4.5c-0.9-0.3-1-0.2-1 0.7v0.9 1.2l-0.2-0.1c-0.5-0.7-0.9-1.5-1.4-2.2-0.4-0.6-0.6-0.7-1.4-0.4v4.4c0 0.4 0.1 0.5 0.5 0.5s0.6-0.1 0.6-0.5v-2.7zm6.1-2.1c-1.5 0-2.4 1-2.4 2.6 0 1.5 1 2.6 2.4 2.6 1.5 0 2.4-1 2.4-2.6s-0.9-2.6-2.4-2.6zm-14.4 2.1v-1.4c0-0.4-0.1-0.6-0.5-0.6-0.5 0-0.6 0.2-0.6 0.6v2.7c0 0.6-0.3 0.9-0.9 0.9s-0.8-0.4-0.9-1.1v-2.6c0-0.4-0.2-0.5-0.5-0.5s-0.6 0-0.6 0.4v2.9c0 0.7 0.3 1.4 1.1 1.6 0.6 0.1 1.3 0.1 1.9 0s0.9-0.7 1-1.3v-1.6zm5.1-1.9c-1-0.3-1.2-0.2-1.6 0.6-0.2 0.4-0.4 0.7-0.7 1.1-0.3-0.5-0.5-0.9-0.8-1.3-0.4-0.6-0.8-0.7-1.5-0.4 0.2 0.3 0.4 0.7 0.6 1 0.7 1 1.3 2 1.1 3.3-0.1 0.4 0.1 0.5 0.5 0.5s0.7-0.1 0.6-0.6c-0.1-1.1 0.1-2 0.8-2.8 0.4-0.4 0.7-0.9 1-1.4zm-17.4 7.3c0-0.5-0.4-0.8-0.9-0.8s-0.9 0.4-0.9 0.9 0.5 0.9 0.9 0.9c0.5-0.1 0.9-0.5 0.9-1zm-5-0.1c-0.2-0.2-0.4-0.4-0.7-0.5-0.4-0.1-0.6 0.2-0.6 0.6s0.2 0.6 0.6 0.6 0.6-0.2 0.7-0.7z"/>
			<path d="m821.4 558.4h-2.8c-0.2 0-0.3-0.2-0.5-0.3 0.2-0.1 0.3-0.3 0.5-0.3h5 0.4c0.1 0 0.1-0.1 0.2-0.2l-0.2-0.2h-0.4-5.1c-0.4 0-0.6-0.1-0.7-0.6-0.3-1.6-0.6-3.1-0.9-4.7 0-0.1 0.2-0.4 0.3-0.4 1.8-0.3 3.6-0.6 5.4-0.9 0.9-0.1 1.9-0.1 2.7-0.5 0.7-0.3 1.3 0 1.9-0.3 0.1 0 0.3 0.1 0.5 0.2-0.1 0.1-0.3 0.3-0.4 0.3-1.1-0.1-1.3 0.6-1.4 1.5l-0.9 4.5c-0.1 0.4-0.1 0.8 0 1.2 0 0.4-0.2 0.6-0.6 0.6-1.1 0.1-2 0.1-3 0.1zm2.1-5.5c0.5 0 0.9-0.1 1.3-0.1 0.1 0 0.3-0.2 0.3-0.3l0.3-1.5c-0.6 0.1-1.1 0.2-1.7 0.3-0.1 0-0.2 0.2-0.2 0.4v1.2zm-0.5-1.5c-0.5 0.1-1 0.1-1.5 0.3-0.2 0.1-0.2 0.5-0.2 0.8 0 0.1 0.1 0.4 0.3 0.4 1 0.3 1.4-0.1 1.4-1.1v-0.4zm1.9 2h-1.2c-0.1 0-0.3 0.2-0.3 0.3-0.1 0.4-0.1 0.8-0.1 1.1 1.3 0.2 1.6 0 1.6-1.4zm-2.1 0.8c0-0.3 0.2-0.7-0.4-0.7-0.4 0.1-1-0.3-1 0.5 0 0.3-0.2 0.9 0.5 0.9 0.9 0.1 0.9 0.1 0.9-0.7zm1.8 1.4c-1-0.3-1.2-0.2-1.3 0.8v0.2c0.1 0.1 0.2 0.4 0.4 0.4s0.6-0.1 0.7-0.2c0.1-0.5 0.1-0.9 0.2-1.2zm-1.9-0.1h-0.4c-0.9 0.1-1 0.2-0.8 1.1 0 0.1 0.1 0.3 0.2 0.3 0.6 0.2 0.8 0 0.9-0.6 0.1-0.3 0.1-0.5 0.1-0.8zm-2.4-1.8c-0.7 0-0.7 0-0.7 0.5 0 0.7 0.1 0.8 0.7 0.9 0.5 0 0.6-0.2 0.6-0.6-0.1-0.6-0.1-1-0.6-0.8zm-0.2-0.7c0.5 0.1 0.7-0.1 0.7-0.7 0-0.4-0.1-0.5-0.5-0.5-0.4 0.1-0.9-0.1-0.8 0.6 0 0.5 0.1 0.8 0.6 0.6zm-1.1 1.4c0-0.7 0-0.8-0.5-0.8-0.2 0-0.6-0.1-0.7 0.4 0 0.8 0.1 1 0.6 1 0.6 0.1 0.6-0.2 0.6-0.6zm0.8 1.8c-0.1 0.6 0.2 0.7 0.7 0.6 0.3 0 0.6 0 0.5-0.4 0-0.7-0.1-0.8-0.7-0.8-0.4 0-0.6 0.2-0.5 0.6zm-1-4c-0.4 0.1-0.8 0.2-1.2 0.2 0.1 0.8 0.3 0.9 1.3 0.6-0.1-0.2-0.1-0.5-0.1-0.8zm0.2 4.7c0.1-0.1 0.3-0.3 0.2-0.4-0.1-0.3 0.1-0.9-0.5-0.8-0.2 0-0.4 0.2-0.5 0.3-0.1 0.4 0.3 0.9 0.8 0.9z" fill="#fff"/>
			<path d="m854 552c1-0.2 1-0.2 1.2 0.7 0.2 0.8 0.3 1.5 0.6 2.3 0.2-0.8 0.5-1.6 0.6-2.5 0.1-0.4 0.3-0.6 0.7-0.6s0.7 0 0.8 0.5c0.2 0.8 0.4 1.6 0.7 2.5 0.2-0.8 0.3-1.5 0.5-2.3s0.3-0.9 1.2-0.6c-0.2 0.9-0.4 1.9-0.6 2.8-0.1 0.5-0.3 1.1-0.4 1.6-0.1 0.4-0.3 0.5-0.6 0.4-0.3 0-0.7 0.1-0.8-0.4-0.2-1-0.5-1.9-0.9-2.9-0.2 0.9-0.5 1.8-0.7 2.7-0.1 0.5-0.3 0.6-0.8 0.6-0.4 0-0.6-0.1-0.6-0.5-0.3-1.4-0.6-2.7-1-4.1 0.1 0 0.1-0.1 0.1-0.2z" fill="#fff"/>
			<path d="m831.5 554.2c0.8 0.8 0.9 1.7 0.2 2.3-0.3 0.2-0.7 0.4-1.1 0.4-0.7 0.1-1.4 0-2.2 0-0.4 0-0.5-0.2-0.5-0.5v-4c0-0.4 0.2-0.5 0.5-0.5h1.9c1.7 0.1 2.1 1 1.2 2.3zm-1.7 1.7c0.3 0 0.5 0.1 0.6 0 0.2-0.1 0.5-0.3 0.5-0.5s-0.2-0.5-0.4-0.6-0.5 0-0.8-0.1c-0.5-0.1-0.7 0.1-0.7 0.7 0.1 0.8 0.6 0.4 0.8 0.5zm0-2v-0.1h0.4c0.2-0.1 0.5-0.3 0.5-0.5 0.1-0.4-0.2-0.4-0.5-0.5h-0.6c-0.6 0-0.7 0.2-0.5 0.7 0.1 0.2 0.5 0.3 0.7 0.4z" fill="#fff"/>
			<path d="m845.2 553.9v2.4c0 0.4-0.1 0.5-0.6 0.5-0.4 0-0.5-0.2-0.5-0.5v-4.4c0.8-0.2 1-0.2 1.4 0.4 0.5 0.7 0.9 1.5 1.4 2.2 0 0 0.1 0 0.2 0.1v-1.2-0.9c0-0.8 0.1-0.9 1-0.7v4.5c0 0.1-0.2 0.3-0.3 0.3-0.3 0-0.7 0.1-0.9-0.3-0.5-0.8-0.9-1.5-1.4-2.3 0 0.2-0.1 0.1-0.3-0.1z" fill="#fff"/>
			<path d="m851.3 551.8c1.5 0 2.4 1 2.4 2.6s-0.9 2.6-2.4 2.6-2.4-1-2.4-2.6 0.9-2.6 2.4-2.6zm1.4 2.5c0-0.2 0-0.4-0.1-0.6-0.2-0.7-0.7-1-1.4-1-0.6 0.1-1.1 0.6-1.1 1.2v0.6c0 0.8 0.5 1.4 1.2 1.4 0.6 0 1.2-0.4 1.4-1.2-0.1 0-0.1-0.1 0-0.4z" fill="#fff"/>
			<path d="m836.9 553.9v1.6c0 0.7-0.3 1.2-1 1.3-0.6 0.1-1.3 0.1-1.9 0-0.8-0.2-1-0.8-1.1-1.6v-2.9c0-0.5 0.3-0.4 0.6-0.4s0.5 0.1 0.5 0.5v2.6c0 0.7 0.3 1 0.9 1.1 0.6 0 0.9-0.2 0.9-0.9v-2.7c0-0.4 0.1-0.6 0.6-0.6s0.5 0.2 0.5 0.6v1.4z" fill="#fff"/>
			<path d="m842 552c-0.3 0.5-0.6 1.1-0.9 1.5-0.7 0.8-1 1.8-0.8 2.8 0.1 0.5-0.2 0.6-0.6 0.6s-0.6-0.2-0.5-0.5c0.2-1.3-0.4-2.3-1.1-3.3-0.2-0.3-0.4-0.7-0.6-1 0.8-0.3 1.1-0.2 1.5 0.4 0.2 0.4 0.5 0.8 0.8 1.3 0.3-0.4 0.5-0.8 0.7-1.1 0.3-0.9 0.5-1 1.5-0.7z" fill="#fff"/>
			<path d="m824.6 559.3c0 0.4-0.4 0.9-0.9 0.9s-0.9-0.4-0.9-0.9 0.4-0.9 0.9-0.9c0.5 0.1 0.9 0.5 0.9 0.9z" fill="#fff"/>
			<path d="m819.6 559.2c-0.1 0.5-0.3 0.7-0.7 0.7s-0.6-0.2-0.6-0.6 0.2-0.7 0.6-0.6c0.3 0.1 0.5 0.4 0.7 0.5z" fill="#fff"/>
			<path d="m823.5 552.9v-1.2c0-0.1 0.1-0.3 0.2-0.4 0.5-0.1 1.1-0.2 1.7-0.3-0.1 0.6-0.2 1-0.3 1.5 0 0.1-0.2 0.3-0.3 0.3-0.3 0-0.8 0.1-1.3 0.1z"/>
			<path d="m823 551.4v0.4c0 1.1-0.4 1.4-1.4 1.1-0.1 0-0.3-0.3-0.3-0.4 0-0.3 0-0.8 0.2-0.8 0.4-0.2 0.9-0.2 1.5-0.3z"/>
			<path d="m824.9 553.4c0 1.3-0.3 1.6-1.5 1.4 0-0.4 0-0.8 0.1-1.1 0-0.1 0.2-0.2 0.3-0.3h1.1z"/>
			<path d="m822.8 554.2c0 0.8 0 0.8-0.9 0.7-0.7 0-0.5-0.6-0.5-0.9 0-0.8 0.6-0.4 1-0.5 0.6 0 0.4 0.4 0.4 0.7z"/>
			<path d="m824.6 555.6c-0.1 0.4-0.1 0.8-0.2 1.1-0.1 0.2-0.4 0.2-0.7 0.2-0.1 0-0.2-0.2-0.4-0.4v-0.2c0-0.9 0.2-1.1 1.3-0.7z"/>
			<path d="m822.7 555.5v0.8c0 0.6-0.3 0.8-0.9 0.6-0.1 0-0.2-0.2-0.2-0.3-0.2-0.9-0.1-1 0.8-1.1h0.3z"/>
			<path d="m820.3 553.7c0.6-0.2 0.6 0.3 0.6 0.7 0 0.5-0.1 0.6-0.6 0.6-0.6 0-0.7-0.2-0.7-0.9-0.1-0.4-0.1-0.4 0.7-0.4z"/>
			<path d="m820.1 553c-0.5 0.1-0.6-0.1-0.7-0.5 0-0.7 0.5-0.5 0.8-0.6 0.4-0.1 0.5 0.1 0.5 0.5 0.1 0.5 0 0.7-0.6 0.6z"/>
			<path d="m819 554.4c0 0.3 0 0.6-0.5 0.6s-0.6-0.2-0.6-1c0-0.5 0.4-0.3 0.7-0.4 0.4 0 0.4 0.1 0.4 0.8z"/>
			<path d="m819.8 556.2c-0.1-0.5 0.1-0.6 0.5-0.6 0.6 0 0.7 0.1 0.7 0.8 0 0.4-0.3 0.4-0.5 0.4-0.5 0.1-0.9 0-0.7-0.6z"/>
			<path d="m818.8 552.2c0 0.3 0.1 0.6 0.1 0.9-1 0.3-1.2 0.2-1.3-0.6 0.3-0.2 0.7-0.3 1.2-0.3z"/>
			<path d="m819 556.9c-0.5 0-0.8-0.4-0.7-0.9 0-0.1 0.3-0.3 0.5-0.3 0.6-0.1 0.4 0.5 0.5 0.8-0.1 0.1-0.3 0.3-0.3 0.4z"/>
			<path d="m829.8 555.9c-0.2-0.1-0.7 0.2-0.8-0.5 0-0.5 0.1-0.8 0.7-0.7 0.3 0 0.6 0 0.8 0.1s0.4 0.4 0.4 0.6-0.3 0.4-0.5 0.5c-0.1 0.1-0.3 0-0.6 0z"/>
			<path d="m829.8 553.9c-0.2-0.1-0.6-0.2-0.7-0.4-0.2-0.5 0-0.7 0.5-0.7h0.6c0.3 0 0.6 0.1 0.5 0.5-0.1 0.2-0.3 0.3-0.5 0.5-0.1 0.1-0.3 0-0.4 0 0.1 0.1 0.1 0.1 0 0.1z"/>
			<path d="m852.7 554.3c0 0.2 0 0.4-0.1 0.6-0.2 0.7-0.7 1.2-1.4 1.2-0.7-0.1-1.2-0.6-1.2-1.4v-0.6c0.1-0.7 0.5-1.2 1.1-1.2 0.7-0.1 1.2 0.2 1.4 1 0.1 0 0.1 0.3 0.2 0.4z"/>
			<rect height="107.1" width="186" stroke="#414042" stroke-miterlimit="10" y="467.9" x="688.6" fill="none"/>
			<rect y="575" x="688.6" height="18.5" width="186" fill="#58595B"/>
			<polygon stroke="#414042" points="813.5 627.3 749.7 627.3 761.8 593.5 801.3 593.5" stroke-miterlimit="10" fill="#BCBEC0"/>
			<circle cy="585.4" cx="783.3" r="4.9" fill="#fff"/>
			<path stroke="#414042" stroke-miterlimit="10" d="m932.3 610.2c0-9.5-5.2-17.1-11.9-17.1v14.8s8.3-3.8 11.9 2.3z" fill="#fff"/>
			<path stroke="#414042" stroke-miterlimit="10" d="m920 607.9v-14.8c-6.7 0-12 7.7-12 17.1 3.6-6.1 12-2.3 12-2.3z" fill="#fff"/>
			<rect height="107.1" width="186" stroke="#414042" stroke-miterlimit="10" y="467.9" x="688.6" fill="#BCBEC0"/>
			<path stroke="#414042" stroke-miterlimit="10" d="m920.1 608s-8.5-3.7-12.1 2.3c0 9.5 5.4 17.1 12.1 17.1s12.1-7.7 12.1-17.1c-3.5-6-12.1-2.3-12.1-2.3z" fill="#fff"/>
			<path stroke="#58595B" stroke-miterlimit="10" d="m920.6 593.1c0-6.4-5.2-11.5-11.5-11.5h-9.1c-6.4 0-11.5 5.2-11.5 11.5v39.7c0 6.4-5.2 11.5-11.5 11.5h-35.3c-6.4 0-11.5-5.2-11.5-11.5v-39.3" fill="none"/>
			<rect height="86.1" width="168" stroke="#414042" stroke-miterlimit="10" y="478.9" x="699.1" fill="#fff"/>
				<text font-size="27.678" font-family="&apos;MyriadPro-Bold&apos;" transform="translate(707.01 533.03)" fill="#2196F3">e-commerce</text>
		<g fill="#fff">
			<path d="m567.4 459.7v-53.7l0.3-0.9c1-3 3-4.8 6.2-4.9 2.4-0.1 4.8-0.1 7.2-0.1h80.7c1.4 0 2.8 0.3 4 0.9 2.7 1.3 3.7 3.8 3.7 6.8v30 20.2c0 2.4-0.8 4.4-2.6 5.9-1.5 1.2-3.3 1.5-5.2 1.5h-66-20.7c-2.2 0-4.3-0.5-5.7-2.3-0.8-1-1.3-2.2-1.9-3.4zm71.9-31.8c1.2 0 2.9-0.5 4.4-1.6 0.6-0.4 1-0.4 1.7-0.1 3.2 1.8 6.5 1.7 9.6-0.3 3-1.9 4.5-4.7 4.3-8.3s-2-6.4-5.3-8c-3.2-1.6-6.3-1.2-9.3 0.7-0.4 0.3-0.7 0.4-1.1 0.1-5.4-3.5-12.3-0.3-13.9 5.2-1.9 6 2.8 12.4 9.6 12.3zm-47.2-7.1c-0.2-1.3-0.9-2-1.7-2.6-2-1.6-4.3-0.9-6.5-1.1v9.2h3.1v-5.5h5.1zm-10.2 5.5v-3.2c0-0.2-0.3-0.4-0.4-0.5h-2.7c-0.2 0-0.5 0.3-0.5 0.4v3.3h3.6zm7 0h3c0.5 0 0.7-0.2 0.7-0.7v-2.4c0-0.2-0.3-0.6-0.5-0.6-0.9-0.1-1.7-0.1-2.6 0-0.2 0-0.5 0.3-0.5 0.5-0.1 1-0.1 2.1-0.1 3.2zm-1.9 5v-2.6c0-0.2-0.3-0.5-0.5-0.5-0.9-0.1-1.7 0-2.6 0v3.1h3.1zm-8.4-10.6h3.2v-3.3c-1.6 0.6-2.7 1.6-3.2 3.3zm3.3 10.4v-2.4c0-0.2-0.3-0.4-0.4-0.4h-2.7c0.6 1.4 1.6 2.2 3.1 2.8zm10.1-2.8h-3.1v2.8c1.5-0.5 2.5-1.4 3.1-2.8z"/>
			<path d="m684.2 465c-0.4 0.9-0.7 1.8-1.3 2.7-0.8 1.3-2 2.1-3.4 2.6-10 4.1-20 8.2-30 12.2-8.8 3.6-17.6 7.2-26.4 10.7-7 2.9-14.1 5.8-21.1 8.6-1.7 0.7-3.5 1.4-5.3 1.6-2.9 0.4-5.6-1.4-6.7-4.1-4.1-9.9-8.1-19.8-12.2-29.7-0.1-0.2-0.1-0.3-0.2-0.7h3.8c0.2 0 0.4 0.4 0.5 0.6 1.1 2.7 2.2 5.5 3.4 8.2 0.2 0.4 0.3 0.7 0.5 1.2 1.6-0.6 3.1-1.2 4.6-1.9 6.3-2.6 12.6-5.2 18.9-7.7 0.7-0.3 1.4-0.4 2.2-0.4h40.8 1c0 0.1 0 0.1 0.1 0.2-0.8 0.3-1.5 0.7-2.3 1-8.4 3.5-16.9 6.9-25.3 10.3-10 4.1-19.9 8.1-29.9 12.2-1.1 0.4-2.1 0.9-3.2 1.3-0.6 0.2-0.6 0.4-0.4 1 0.4 0.9 0.7 1.8 1.1 2.8 0.8 1.8 2.5 2.6 4.4 1.8 7.8-3.2 15.5-6.3 23.3-9.5 5.5-2.2 10.9-4.4 16.4-6.7l21.3-8.7c6.3-2.6 12.5-5.1 18.8-7.6 0.4-0.2 0.9-0.4 1.3-0.6 1.3-0.7 1.9-2 1.5-3.4s-1-2.7-1.5-4.1c-2.2 0.9-4.4 1.8-6.8 2.7v-1.2c0-5.1 0-24.8 0.2-27.6l1.8 4.2 6 14.7c1.4 3.6 2.9 7.1 4.3 10.7-0.2 0.9-0.2 1.7-0.2 2.6z"/>
			<path d="m647.8 414c-1.8 0-3.6 0.1-5.3 0-0.9 0-1.2 0.3-1.3 1.2h6.4c1.1 0 1.2 0.1 1.2 1.4h-1.8-5.4c-0.9 0-1.2 0.3-1 1.3h8.6c-0.1 0.5-0.1 0.9-0.2 1.4h-7.6c-0.2 0-0.7 0.1-0.7 0.2-0.1 0.3 0 0.6 0.2 0.9 0.1 0.2 0.5 0.2 0.8 0.2h6 0.9c-0.2 1.4-0.2 1.4-1.5 1.4h-4.7-0.9c0.1 0.9 0.6 1.1 1.3 1.1 1.4-0.1 2.9 0 4.5 0-0.6 0.8-1 1.4-2 1.4-1.3 0-2.6 0.1-3.8 0.7-3.4 1.5-6.9 0.4-9.1-2.6-2-2.8-1.8-6.4 0.6-9.2 1.9-2.3 5.7-3.4 8.3-1.9 1.6 0.9 3.1 0.9 4.7 1 1.1 0.1 1.3 0.2 1.8 1.5z"/>
		</g>
			<text font-size="8.1943" font-family="&apos;MyriadPro-Regular&apos;" transform="translate(574.75 461.05)" fill="#2196F3">Hyderabad</text>
			<text font-size="8.1943" font-family="&apos;MyriadPro-Regular&apos;" transform="translate(574.75 446.39)" fill="#2196F3">8801</text>
			<text font-size="8.1943" font-family="&apos;MyriadPro-Regular&apos;" transform="translate(597.89 446.39)" fill="#2196F3">5057</text>
			<text font-size="8.1943" font-family="&apos;MyriadPro-Regular&apos;" transform="translate(621.04 446.39)" fill="#2196F3">6588</text>
			<text font-size="8.1943" font-family="&apos;MyriadPro-Regular&apos;" transform="translate(644.18 446.39)" fill="#2196F3">0150</text>
		<g fill="#fff">
			<path d="m762.9 402.9h84.6c0 0.7 0.1 1.3 0.1 2v39.7c0 1.7-0.4 2.3-2.2 2.3-26.8-0.1-53.7 0-80.5 0-1.3 0-2.1 0-2.1-1.8 0.1-13.6 0-27.2 0-40.8 0-0.5 0.1-0.9 0.1-1.4zm42.2 4.1h-28c-1.5 0-2.2 0.4-2.4 2-0.4 3.2-1.9 4.7-5 5.1-1.6 0.2-2.1 1-2.1 2.5 0.1 5.4 0.1 10.9 0 16.3 0 1.6 0.5 2.3 2.1 2.5 2.9 0.3 4.6 1.9 4.9 4.8 0.2 2.2 1.3 2.5 3.1 2.5 9.1-0.1 18.2 0 27.2 0h28c1.4 0 2.4-0.2 2.6-2 0.3-3.2 2-4.9 5.3-5.3 1.5-0.2 2-0.9 2-2.4-0.1-5.4-0.1-10.7 0-16.1 0-1.8-0.4-2.7-2.4-2.8-2.8-0.3-4.6-2-4.9-4.8-0.2-2-1.1-2.3-2.7-2.3h-27.7z"/>
			<path d="m842.3 449.7c-0.7 2.6-1.4 5.1-2.1 7.6-9-2.5-17.7-4.9-26.4-7.4 0-0.1 0-0.2 0.1-0.3 9.3 0.1 18.7 0.1 28.4 0.1z"/>
			<path d="m796.2 399.8h-28.1c0.6-2.3 1.2-4.5 1.9-6.7 0.1-0.3 0.8-0.7 1.1-0.6 8.4 2.3 16.8 4.6 25.1 6.9 0.1 0.2 0.1 0.3 0 0.4z"/>
			<path d="m850.5 419.1v-4.3c1.6 0.2 1.6 0.3 0 4.3z"/>
			<path d="m759.9 430.2v4.6c-1.5-0.4-1.6-0.8 0-4.6z"/>
			<path d="m832.7 409.8c1.1 3.5 3.1 5.9 6.6 7 0.3 0.1 0.7 0.8 0.7 1.2v13.6c0 0.4-0.4 1-0.8 1.1-3.5 1.1-5.5 3.5-6.6 7.1h-2.3-50.8c-1.4 0-2.2-0.2-2.7-1.7-0.8-2.5-2.7-4.2-5.2-5.1-1-0.4-1.4-0.8-1.4-1.9 0.1-4.3 0-8.6 0.1-12.8 0-0.6 0.6-1.4 1.1-1.6 2.7-1.1 4.5-3 5.7-5.7 0.2-0.5 1-1.1 1.6-1.1 18-0.1 35.9-0.1 54-0.1zm-27.4 1.7c-7.2 0-13.4 6.1-13.4 13.3 0 7.1 6.2 13.2 13.2 13.3 7.1 0 13.4-6.2 13.4-13.3 0-7.2-6.1-13.3-13.2-13.3z"/>
			<path d="m815.6 424.9c-0.1 6-4.6 10.3-10.6 10.2s-10.3-4.5-10.2-10.6c0.1-5.9 4.6-10.3 10.6-10.3 5.9 0.2 10.3 4.7 10.2 10.7z"/>
		</g>
		<g fill="#FFC900">
			<path d="m850.4 411.5c0.7 0.2 1.3 0.4 1.9 0.6 1.6 0.7 2.6 2.5 2.2 4.2-0.2 1.1-0.5 2.1-0.9 3.1-2.8 7.9-3.6 16-3.2 24.3 0.2 4.8-0.5 5.4-5.2 6-0.6 2.2-1.3 4.5-1.9 6.7-0.9 3-2.4 3.9-5.4 3.1-11.3-3.1-22.6-6.3-34-9.4-1.5-0.4-3-0.6-4.5-0.6h-34.9c-3.3 0-4.6-1.3-4.6-4.7v-3.8c0.1-1.8 0.3-3.4-2.3-4-1.6-0.4-2.2-2.3-1.7-4.2 1-3.6 2.1-7.2 3-10.9 0.5-2.2 0.8-4.5 0.9-6.8 0.1-3.7 0-7.4 0-11.1 0-2.7 1.2-4.1 3.9-4.2 1.2 0 1.5-0.6 1.8-1.5 0.5-1.8 1-3.6 1.5-5.3 0.9-3.1 2.5-4 5.6-3.2 11.1 3.1 22.1 6.2 33.2 9.2 1.8 0.5 3.6 0.8 5.5 0.8 11.4 0.1 22.9 0 34.3 0 3.6 0 4.8 1.2 4.8 4.8 0.1 2.4 0 4.6 0 6.9zm-87.5-8.6c-0.1 0.6-0.1 0.9-0.1 1.3v40.8c0 1.8 0.9 1.8 2.1 1.8h80.5c1.8 0 2.2-0.6 2.2-2.3-0.1-13.2 0-26.5 0-39.7 0-0.6-0.1-1.2-0.1-2-28.2 0.1-56.3 0.1-84.6 0.1zm79.4 46.8h-28.5c0 0.1 0 0.2-0.1 0.3 8.7 2.4 17.5 4.9 26.4 7.4 0.8-2.7 1.4-5.1 2.2-7.7zm-46.1-49.9c0-0.1 0-0.2 0.1-0.3-8.4-2.3-16.7-4.7-25.1-6.9-0.3-0.1-1 0.3-1.1 0.6-0.7 2.2-1.2 4.3-1.9 6.7 9.5-0.1 18.8-0.1 28-0.1zm54.3 19.3c1.6-4 1.6-4.1 0-4.3v4.3zm-90.6 11.1c-1.5 3.9-1.5 4.2 0 4.6v-4.6z"/>
			<path d="m805.1 407h27.8c1.7 0 2.6 0.3 2.7 2.3 0.2 2.8 2.1 4.6 4.9 4.8 2 0.2 2.4 1.1 2.4 2.8-0.1 5.4-0.1 10.7 0 16.1 0 1.5-0.5 2.2-2 2.4-3.3 0.4-5 2.1-5.3 5.3-0.1 1.8-1.2 2-2.6 2h-28-27.2c-1.9 0-2.9-0.4-3.1-2.5-0.3-2.8-2-4.4-4.9-4.8-1.6-0.2-2.2-0.9-2.1-2.5 0.1-5.4 0.1-10.9 0-16.3 0-1.6 0.4-2.3 2.1-2.5 3.1-0.4 4.6-1.9 5-5.1 0.2-1.6 0.9-2 2.4-2h27.9zm27.6 2.8h-53.9c-0.5 0-1.4 0.6-1.6 1.1-1.1 2.7-3 4.5-5.7 5.7-0.5 0.2-1.1 1-1.1 1.6-0.1 4.3 0 8.6-0.1 12.8 0 1.1 0.4 1.6 1.4 1.9 2.5 0.9 4.3 2.6 5.2 5.1 0.5 1.5 1.3 1.7 2.7 1.7h50.8 2.3c1-3.5 3.1-6 6.6-7.1 0.3-0.1 0.7-0.7 0.8-1.1 0.1-4.5 0.1-9.1 0-13.6 0-0.4-0.4-1.1-0.7-1.2-3.6-1-5.6-3.4-6.7-6.9z"/>
			<path d="m805.3 411.5c7.1 0 13.2 6.1 13.2 13.2s-6.2 13.4-13.4 13.3c-7.1 0-13.2-6.2-13.2-13.3s6.1-13.2 13.4-13.2zm10.3 13.4c0.1-6-4.3-10.5-10.2-10.6-6-0.1-10.5 4.3-10.6 10.3s4.2 10.5 10.2 10.6 10.5-4.3 10.6-10.3z"/>
			<path d="m806.1 434.4c-1.1-1.4-2.2-2.8-3.3-4.2-0.9-1.1-1.8-2.3-2.7-3.4v-0.1-1.4-0.1h0.4c0.7 0 1.5 0 2.2-0.1 0.6-0.1 1.2-0.3 1.7-0.7 0.6-0.5 1-1.1 1.2-1.8 0-0.1 0-0.2 0.1-0.3h-6.1s0-0.1 0.1-0.1c0.3-0.5 0.6-1 0.9-1.5 0-0.1 0.1-0.1 0.2-0.1 1.6 0 3.1 0 4.7 0.1h0.1c0-0.1 0-0.1-0.1-0.1-0.3-0.5-0.8-0.9-1.3-1.1s-1.1-0.3-1.7-0.4c-0.9-0.1-1.8-0.1-2.8 0h-0.1v-0.1c0.3-0.5 0.7-1 1-1.5 0-0.1 0.1-0.1 0.1-0.1h5.6 4.6 0.1s0 0.1-0.1 0.1c-0.3 0.5-0.6 1-0.9 1.4 0 0.1-0.1 0.1-0.2 0.1h-2.6-0.1c0.4 0.5 0.8 1 0.9 1.7h3s0 0.1-0.1 0.1c-0.3 0.5-0.6 1-0.9 1.4 0 0.1-0.1 0.1-0.1 0.1h-1.8c-0.1 0-0.1 0-0.1 0.1-0.2 1-0.6 1.8-1.4 2.5s-1.7 1.1-2.7 1.3c-0.3 0.1-0.7 0.1-1.1 0.2h-0.1c0.1 0.1 0.1 0.1 0.1 0.2 2 2.5 3.9 5.1 5.9 7.6 0 0 0 0.1 0.1 0.1-0.9 0.1-1.8 0.1-2.7 0.1z"/>
		</g>
	<g stroke="#231F20" stroke-miterlimit="10">
			<circle cx="935.8" cy="541" r="28.2" fill="#fff"/>
				<rect transform="matrix(-.8898 -.4564 .4564 -.8898 1595.9 1513.7)" height="7.6" width="44.5" y="560.3" x="958.5" fill="#33C7C9"/>
			<path d="m991.4 561.6l43.5 22.3c0.6 0.3 0.9 1.1 0.6 1.7l-5.3 10.3c-0.3 0.6-1.1 0.9-1.7 0.6l-43.5-22.3 6.4-12.6z" fill="#FFC900"/>
		<path d="m916.1 529c5.3-10.3 18-14.4 28.3-9.1" fill="#fff"/>
	</g>
		<path d="m226.8 557.5c1.4-4 3.1-8.2 8.4-8.2 5.1 0 7 4 8.6 8.1 2.1-0.4 4.1-1.1 6.1-1.2 6.6-0.4 10.1 4.8 7.4 10.8-0.8 1.7-1.9 3.3-2.9 5 8.2-0.6 15.7 0.2 20.1 8.8-1 0.5-1.9 0.9-2.8 1.4-3.6-6.7-9.7-7.7-16.3-6.9-4.4 0.6-8.8 2-13.1 3.3-4.7 1.4-9.4 1.1-14-0.4-5.4-1.7-10.8-3.4-16.6-3.1-5.1 0.3-9.5 2-12 7.1-1-0.4-1.9-0.9-2.9-1.3 4-8.2 11.2-9.4 19.5-9-0.7-0.9-1.3-1.7-1.8-2.4-4-5.5-1.4-11.7 5.3-12.3 2.3-0.4 4.6 0.1 7 0.3zm13.4 16.1c0.3 0.2 0.4 0.3 0.6 0.3 5.6 1.3 13.7-4.7 14.1-10.4 0.2-2.1-0.9-3.6-3-4.1-2.6-0.6-4.9 0.3-7.1 1.5-0.3 0.2-0.5 0.8-0.5 1.3 0.2 4.2-0.9 8.1-4.1 11.4zm-9.1 0.6c-0.2-0.6-0.2-0.8-0.3-0.9-3-3.1-4.4-6.9-4.4-11.2 0-0.4-0.4-1-0.7-1-1.9-0.3-3.9-0.9-5.8-0.7-3.8 0.4-5 3.3-3 6.6s5 5.4 8.6 6.5c1.7 0.4 3.6 0.4 5.6 0.7zm5.1-9.7c1.3-1.4 2.7-2.9 4.1-4.4 0.4-0.4 0.7-1.3 0.5-1.7-0.9-1.7-1.8-3.5-3.1-5s-3.7-1.5-4.8 0.1c-1.1 1.4-1.8 3.2-2.6 4.9-0.1 0.3 0.1 1 0.4 1.3 1.7 1.6 3.6 3.2 5.5 4.8zm-6.3-1.5c-0.2 3.8 2 8 4.6 8.6 0.6-4-1.9-6.2-4.6-8.6zm8.2 7.8c2-1.8 2.8-4.1 2.9-6.7-1.9 1.8-3.1 3.9-2.9 6.7z" fill="#FF7FDC"/>
		<path d="m242.7 629.2v-29.9h20.9v29.9h-20.9z" fill="#fff"/>
		<path d="m210.7 599.3h20.2v29.9h-20.2v-29.9z" fill="#fff"/>
		<path d="m266.6 580.2v15h-23.8v-15h23.8z" fill="#fff"/>
		<path d="m231.1 580.3v1.5 13.4h-23.6v-14.9h23.6z" fill="#fff"/>
	<g stroke-miterlimit="10" stroke="#fff" stroke-width="2" stroke-linecap="round" fill="none">
			<line y2="546.5" x1="653" x2="664.8" y1="546.5"/>
			<line y2="552.4" x1="658.9" x2="658.9" y1="540.6"/>
	</g>
	<g stroke-miterlimit="10" stroke="#fff" stroke-width="2" stroke-linecap="round" fill="none">
			<line y2="517.2" x1="886.8" x2="898.5" y1="517.2"/>
			<line y2="523" x1="892.7" x2="892.7" y1="511.3"/>
	</g>
	<g stroke-miterlimit="10" stroke="#fff" stroke-width="2" stroke-linecap="round" fill="none">
			<line y2="634" x1="1002.9" x2="1014.7" y1="634"/>
			<line y2="639.9" x1="1008.8" x2="1008.8" y1="628.1"/>
	</g>
	<g stroke-miterlimit="10" stroke="#fff" stroke-width="2" stroke-linecap="round" fill="none">
			<line y2="435.6" x1="697.5" x2="709.3" y1="435.6"/>
			<line y2="441.5" x1="703.4" x2="703.4" y1="429.8"/>
	</g>
	<g stroke-miterlimit="10" stroke="#fff" stroke-width="2" stroke-linecap="round" fill="none">
			<line y2="403" x1="549.1" x2="560.9" y1="403"/>
			<line y2="408.9" x1="555" x2="555" y1="397.1"/>
	</g>
	<g stroke-miterlimit="10" stroke="#fff" stroke-width="2" stroke-linecap="round" fill="none">
			<line y2="432.7" x1="365.1" x2="376.9" y1="432.7"/>
			<line y2="438.6" x1="371" x2="371" y1="426.8"/>
	</g>
	<g stroke-miterlimit="10" stroke="#fff" stroke-width="2" stroke-linecap="round" fill="none">
			<line y2="585.4" x1="291.5" x2="303.3" y1="585.4"/>
			<line y2="591.3" x1="297.4" x2="297.4" y1="579.5"/>
	</g>
	<g stroke-miterlimit="10" stroke="#fff" stroke-width="2" stroke-linecap="round" fill="none">
			<line y2="401.5" x1="960.2" x2="972" y1="401.5"/>
			<line y2="407.4" x1="966.1" x2="966.1" y1="395.6"/>
	</g>
	<g stroke-miterlimit="10" stroke="#fff" stroke-width="2" stroke-linecap="round" fill="none">
			<line y2="418.6" x1="1137.6" x2="1149.4" y1="418.6"/>
			<line y2="424.5" x1="1143.5" x2="1143.5" y1="412.7"/>
	</g>
	<g stroke-miterlimit="10" stroke="#fff" stroke-width="2" stroke-linecap="round" fill="none">
			<line y2="524.1" x1="1155.5" x2="1167.2" y1="524.1"/>
			<line y2="529.9" x1="1161.4" x2="1161.4" y1="518.2"/>
	</g>
	<g stroke-miterlimit="10" stroke="#fff" stroke-width="2" stroke-linecap="round" fill="none">
			<line y2="639.5" x1="1164.7" x2="1176.5" y1="639.5"/>
			<line y2="645.4" x1="1170.6" x2="1170.6" y1="633.6"/>
	</g>
	<g stroke-miterlimit="10" stroke="#fff" stroke-width="2" stroke-linecap="round" fill="none">
			<line y2="620" x1="432.7" x2="444.5" y1="620"/>
			<line y2="625.9" x1="438.6" x2="438.6" y1="614.1"/>
	</g>
	<g stroke-miterlimit="10" stroke="#fff" stroke-width="2" stroke-linecap="round" fill="none">
			<line y2="520.1" x1="553" x2="564.8" y1="520.1"/>
			<line y2="526" x1="558.9" x2="558.9" y1="514.2"/>
	</g>
	<g fill="#fff">
		<path d="m1071 378.1c-0.3 4.4-0.2 8.9-0.9 13.3-2.2 12.5-7.9 23.4-16.4 32.7-4.3 4.7-9.9 7.1-16.3 6.8-0.8 1.4 0 2.7 0.5 4 0.5 1.5 1.2 3 1.4 4.5 0.3 2.2-1.3 4.3-3.5 5.3-0.6 0.3-1.3 0.9-1.5 1.5-1.2 3.9-4 6-7.8 7-0.6 0.2-1.4 0.5-1.8 1-3.8 5.4-10.1 6-14.9 1.5-0.1-0.1-0.3-0.2-0.4-0.3-0.1-0.4-0.1-0.7-0.2-1.1 0.9-0.8 1.5-0.4 2.3 0.3 3.7 3.5 9.1 2.7 11.5-1.3-0.9-1-1.8-1.8-2.5-2.8-0.3-0.5-0.3-1.3-0.1-1.9 0.4-1.5 1.6-1.9 3-1.8 1.7 0.1 2.5 1.4 2.8 4.5 3-0.3 5.6-2.6 6.3-5.9-0.8-0.2-1.7-0.5-2.5-0.8-1.6-0.6-2.8-1.5-2.5-3.4 0.2-1.7 1.4-2.6 3-2.8s2.7 0.8 3.2 2.6c0.2 0.7 0.4 1.5 0.6 2.3 2.6-0.8 3.7-2.5 3.1-4.9-0.3-1.2-1.1-2.3-1.5-3.6s-0.6-2.7-0.9-4.4c-0.3-0.2-1.1-0.5-1.8-0.9-2.2-1.3-3.2-3-2.6-5.3 1.2-4.7 3.8-8.8 7.3-12.1 1-0.9 2.9-1.2 4.4-1.4 1.6-0.1 3.3 0.3 4.9 0.4 1.9 0.1 3.6-0.5 4.6-2.1 4.1-6.1 7.2-12.7 7.4-20.3 0.1-3-1.1-5.3-3.5-7.1-1.3-1-2.6-1.8-3.9-2.7-2.2-1.6-3.4-3.8-2.9-6.5 0.7-3.3 1.5-6.7 2.6-9.9 0.5-1.3 1.8-2.4 2.7-3.6 0.6-0.1 1.2-0.2 1.8-0.4 5.9 1.4 9.8 5.2 12.4 10.5 0.6 1.3 1.1 2.7 1.7 4 0.2 1.7 0.6 3.4 0.9 5.1zm-39.3 65.2c0.3-0.2 0.5-0.5 0.8-0.7-0.6-0.8-1.2-1.7-1.9-2.5-0.5 0.4-0.9 0.8-1.4 1.3 0.9 0.6 1.7 1.2 2.5 1.9zm-8.2 7.9c0.3-0.2 0.7-0.4 1-0.7-0.4-0.7-0.8-1.4-1.3-2.1 0 0-0.7 0.4-1.1 0.6 0.5 0.8 0.9 1.5 1.4 2.2z"/>
		<path d="m1039.3 384.1c-6.2 1.1-8.8 8.3-4.9 13.3 0.4 0.5 0.3 1.3 0.4 2-0.7-0.3-1.7-0.3-2.1-0.8-2.5-3.1-2.9-6.7-1.5-10.4 1.3-3.5 4.1-5.3 7.7-6.2 0.4-0.1 0.8-0.2 1.1-0.1 0.5 0.2 1 0.7 1.5 1-0.4 0.3-0.8 0.7-1.3 1-0.2 0.2-0.6 0.2-0.9 0.2z"/>
		<path d="m1030.4 382c-5.1 0.7-7.5 6-5 9.8 0.2 0.3 0.5 0.5 0.6 0.7 0.1 0.6 0.1 1.2 0.1 1.7-0.6-0.2-1.4-0.2-1.7-0.6-2-2.4-2.5-5.1-1.5-8 1.1-3.1 3.3-5 6.5-5.5 0.6-0.1 1.4 0.5 2.1 0.8-0.6 0.5-1 1-1.1 1.1z"/>
		<path d="m1020.8 380.5c-3.7 0.4-5.2 4.2-3.2 7.2 0.3 0.5 0.2 1.3 0.3 2-0.6-0.3-1.5-0.4-1.9-0.9-2.9-3.8-0.7-9.7 4.1-10.5 0.7-0.1 1.4 0.5 2.2 0.7l-1.5 1.5z"/>
	</g>
		<circle r="6" stroke-linecap="round" cy="606.3" stroke="#fff" cx="975.2" stroke-miterlimit="10" stroke-width="2" fill="none"/>
		<circle r="6" stroke-linecap="round" cy="527.9" stroke="#fff" cx="612.9" stroke-miterlimit="10" stroke-width="2" fill="none"/>
		<circle r="6" stroke-linecap="round" cy="391.8" stroke="#fff" cx="715.3" stroke-miterlimit="10" stroke-width="2" fill="none"/>
		<circle r="6" stroke-linecap="round" cy="472.9" stroke="#fff" cx="547.1" stroke-miterlimit="10" stroke-width="2" fill="none"/>
		<circle r="6" stroke-linecap="round" cy="531.9" stroke="#fff" cx="408.9" stroke-miterlimit="10" stroke-width="2" fill="none"/>
		<circle r="6" stroke-linecap="round" cy="495.7" stroke="#fff" cx="927.1" stroke-miterlimit="10" stroke-width="2" fill="none"/>
		<circle r="6" stroke-linecap="round" cy="571.6" stroke="#fff" cx="1155.5" stroke-miterlimit="10" stroke-width="2" fill="none"/>
		<circle r="6" stroke-linecap="round" cy="438.1" stroke="#fff" cx="1077" stroke-miterlimit="10" stroke-width="2" fill="none"/>
						<path d="m354 553.1l-14.6-2-8.2 8.9 3 14.4 59.8 55.7 19.8-21.3-59.8-55.7zm-16.3 8.1c-1-0.9-1.1-2.5-0.1-3.5 0.9-1 2.5-1.1 3.5-0.1 1 0.9 1.1 2.5 0.1 3.5-0.9 1-2.5 1.1-3.5 0.1z" fill="#FFC900"/>
						<path stroke="#fff" stroke-miterlimit="10" d="m354 553.1l-14.6-2-8.2 8.9 3 14.4 59.8 55.7 19.8-21.3-59.8-55.7zm-16.3 8.1c-1-0.9-1.1-2.5-0.1-3.5 0.9-1 2.5-1.1 3.5-0.1 1 0.9 1.1 2.5 0.1 3.5-0.9 1-2.5 1.1-3.5 0.1z" fill="none"/>
				<path stroke="#fff" stroke-miterlimit="10" d="m341.1 557.5c-1-1-2.7-0.9-3.6 0.1-1 1-0.9 2.7 0.1 3.6 1 1 2.7 0.9 3.6-0.1 1-1 1-2.6-0.1-3.6zm-3.4 3.7c-1-0.9-1-2.5-0.1-3.4 0.9-1 2.5-1 3.4-0.1 1 0.9 1 2.5 0.1 3.4s-2.4 1-3.4 0.1z" fill="#FFC900"/>
			<text font-size="14.602" font-family="&apos;MyriadPro-Regular&apos;" transform="matrix(.7604 .6494 -.6494 .7604 352.07 578.07)" fill="#FFFFFF">10-35%!!!</text>
						<path d="m351.1 547l-13.7 5.6-2.7 11.8 9.9 11 79.6 18.3 6.5-28.4-79.6-18.3zm-10 15.2c-1.4-0.3-2.2-1.7-1.9-3 0.3-1.4 1.7-2.2 3-1.9 1.4 0.3 2.2 1.7 1.9 3-0.3 1.4-1.7 2.2-3 1.9z" fill="#EC4F3E"/>
						<path stroke="#fff" stroke-miterlimit="10" d="m351.1 547l-13.7 5.6-2.7 11.8 9.9 11 79.6 18.3 6.5-28.4-79.6-18.3zm-10 15.2c-1.4-0.3-2.2-1.7-1.9-3 0.3-1.4 1.7-2.2 3-1.9 1.4 0.3 2.2 1.7 1.9 3-0.3 1.4-1.7 2.2-3 1.9z" fill="none"/>
				<path stroke="#fff" stroke-miterlimit="10" d="m342.2 557.3c-1.4-0.3-2.8 0.5-3.1 1.9s0.5 2.8 1.9 3.1 2.8-0.5 3.1-1.9c0.4-1.4-0.5-2.8-1.9-3.1zm-1.1 4.9c-1.3-0.3-2.1-1.6-1.8-2.9s1.6-2.1 2.9-1.8 2.1 1.6 1.8 2.9c-0.3 1.2-1.6 2.1-2.9 1.8z" fill="#EC4F3E"/>
			<text font-size="13.215" font-family="&apos;MyriadPro-Regular&apos;" transform="matrix(.9724 .2334 -.2334 .9724 363.37 569.33)" fill="#FFFFFF">Offers!!!</text>
				<path d="m340.4 559.6c-2.1-12.3-19.3-18.8-27.2-7.7-2.8 4-1.8 10.6 2.1 13.5 4.9 3.6 11.2 1.6 16.6 0.4 0.8-0.2 0.5-1.4-0.3-1.2-3.4 0.8-6.7 1.6-10.2 1.7-7.4 0.3-10.2-8.1-7.1-13.7 3.1-5.8 10.4-5.6 15.8-3.9 5.1 1.6 8.3 6.3 9.1 11.3 0.1 0.7 1.3 0.4 1.2-0.4z" fill="#fff"/>
	<polyline fill="none" stroke="#2E3192" stroke-linecap="round" stroke-miterlimit="10" stroke-width="2" points="634 302.6 634 340.7 620.7 354 499.4 354 483.4 365 323.8 365 314.9 377.4 314.9 441.4"/>
		<path d="m294.3 418.4l54.5 54.5c3.8 3.8 3.8 10.1 0 13.9l-34.5 34.5c-3.8 3.8-10.1 3.8-13.9 0l-54.5-54.5c-3.8-3.8-3.8-10.1 0-13.9l34.5-34.5c3.8-3.8 10.1-3.8 13.9 0z" fill="#5D5D5D"/>
			<rect transform="matrix(-.7071 -.7071 .7071 -.7071 174.54 1010.2)" height="52.9" width="81.2" y="442.5" x="255.9" fill="#fff"/>
		<circle cy="500.7" cx="328.2" r="3.2" fill="#fff"/>
			<rect transform="matrix(-.7071 -.7071 .7071 -.7071 143.95 936.4)" height="17.8" width=".8" y="429.5" x="265.5" fill="#fff"/>
	<polyline fill="none" stroke="#2E3192" stroke-linecap="round" stroke-miterlimit="10" stroke-width="2" points="660 302.6 660 342.2 642.3 365 538.3 365 523.5 379.8 523.5 521.5"/>
		<path stroke="#58595B" stroke-width=".25" stroke-miterlimit="10" d="m623.7 626.8h-22.8c-0.2 2.4-0.1 4.8-0.7 6.9-1.2 4.7-5.5 7.9-10.2 8.1-5.2 0.2-9.7-2.6-11.5-7.2s-0.7-9.9 3.2-12.9c1.8-1.4 2.1-2.5 1.3-4.6-6.5-16.8-13-33.6-19.3-50.4-0.8-2.2-1.8-2.9-4.1-2.7-2.2 0.2-4.4 0.1-6.5 0-2.8-0.1-4.6-1.6-4.5-4 0-2.3 1.7-3.8 4.4-3.8 4-0.1 7.9 0 11.9 0 2.3 0 3.7 1.1 4.5 3.1 1 2.8 2.2 5.5 3.1 8.3 0.7 2.2 1.9 2.7 4.1 2.7 24.1-0.1 48.1-0.1 72.2-0.1h3c2.9 0.3 4.5 2.4 3.6 5.2-3.5 11.5-7.2 23-10.8 34.6-0.8 2.7-3 3.1-5.4 3.1h-45.5-3.3c0.7 5.3 1 5.6 6 5.6 12.8 0 25.6-0.1 38.3 0 7.7 0.1 13.3 6.7 11.7 13.8-1.3 6.1-6.8 10-12.9 9.3-5.9-0.7-10.3-6.1-10-12.4 0-0.8 0.1-1.5 0.2-2.6zm-47.1-48.5c1.4 3.8 2.7 7.4 4.2 10.9 0.2 0.5 1 1.1 1.5 1.1 5.7 0.1 11.4 0 17.3 0-0.4-4.3-0.7-8.1-1-12h-22zm48.1 12h16.2c0.6 0 1.6-0.5 1.8-1 1.2-3.6 2.3-7.2 3.5-10.9h-20.5c-0.4 3.9-0.7 7.7-1 11.9zm-3.1-12h-18.9c0.2 3.5 0.4 6.8 0.8 10.1 0.1 0.7 1.3 1.7 2 1.8 4.4 0.2 8.9 0.2 13.3 0 0.7 0 1.9-1.1 2-1.8 0.4-3.2 0.5-6.6 0.8-10.1zm-1.2 16.2h-16.5c0.3 3.6 0.6 7 0.9 10.5h14.7c0.3-3.6 0.6-7 0.9-10.5zm-37.7-0.1c1.3 3.4 2.4 6.5 3.6 9.4 0.2 0.5 0.9 1.2 1.4 1.2 4.3 0.1 8.6 0.1 13.1 0.1-0.3-3.9-0.6-7.3-0.9-10.7h-17.2zm58.4 0h-16.7c-0.3 3.5-0.5 6.9-0.8 10.7 4.5 0 8.7 0 13-0.1 0.6 0 1.5-0.7 1.7-1.2 0.9-3 1.8-6.1 2.8-9.4zm-6 32.3c-2.1 0-3.9 1.7-3.7 3.7 0.2 2.1 1.4 3.4 3.6 3.6 2 0.2 3.9-1.8 3.7-3.7-0.2-2.2-1.4-3.4-3.6-3.6zm-42.1 3.5c0-2-1.9-3.7-3.9-3.5-2.2 0.2-3.5 1.5-3.4 3.7 0 2.1 1.4 3.4 3.6 3.6 1.9 0.1 3.7-1.8 3.7-3.8z" fill="#33C7C9"/>
		<path d="m576.6 578.3h22c0.3 3.9 0.6 7.7 1 12h-17.3c-0.5 0-1.3-0.6-1.5-1.1-1.5-3.6-2.8-7.2-4.2-10.9z" fill="#fff"/>
		<path d="m624.7 590.3c0.3-4.2 0.6-8 0.9-12h20.5c-1.2 3.7-2.2 7.4-3.5 10.9-0.2 0.5-1.2 1-1.8 1-5.2 0.1-10.4 0.1-16.1 0.1z" fill="#fff"/>
		<path d="m621.6 578.3c-0.3 3.5-0.4 6.8-0.8 10.1-0.1 0.7-1.3 1.7-2 1.8-4.4 0.2-8.9 0.2-13.3 0-0.7 0-1.9-1.1-2-1.8-0.4-3.3-0.6-6.6-0.8-10.1h18.9z" fill="#fff"/>
		<path d="m620.4 594.5c-0.3 3.6-0.6 7-0.9 10.5h-14.7c-0.3-3.5-0.6-6.9-0.9-10.5h16.5z" fill="#fff"/>
		<path d="m582.7 594.4h17.1c0.3 3.4 0.6 6.8 0.9 10.7-4.4 0-8.7 0-13.1-0.1-0.5 0-1.2-0.7-1.4-1.2-1.1-3-2.2-6-3.5-9.4z" fill="#fff"/>
		<path d="m641.1 594.4c-1 3.2-1.9 6.3-2.9 9.4-0.2 0.5-1.1 1.2-1.7 1.2-4.2 0.1-8.5 0.1-13 0.1 0.3-3.7 0.6-7.1 0.8-10.7h16.8z" fill="#fff"/>
		<path d="m635.1 626.7c2.2 0.2 3.4 1.5 3.6 3.6 0.2 2-1.8 3.9-3.7 3.7-2.1-0.2-3.4-1.5-3.6-3.6-0.2-2 1.6-3.8 3.7-3.7z" fill="#fff"/>
		<path d="m593 630.2c0 2-1.8 3.9-3.8 3.7-2.2-0.2-3.5-1.5-3.6-3.6 0-2.1 1.2-3.5 3.4-3.7 2.1-0.1 3.9 1.6 4 3.6z" fill="#fff"/>
	<g fill="#fff">
		<path d="m552 557.9l-20.4-0.9-18.2-18.4c-1.1-1.4-2.8-2.3-4.7-2.3s-3.6 0.9-4.7 2.3l-0.2 0.3s0 0.1-0.1 0.1l-22.3 30.5c-3.4 4.6-5.2 10.1-5.2 15.8v15.3l-12.2 34.4c0 0.1-0.1 0.2-0.1 0.3l-0.2 0.5c-0.3 1.3-0.3 2.7 1.5 4.6 0.8 0.9 1.9 1.5 3.1 1.6 2.6 0.1 4.8-1.8 5.1-4.4l4.1-8.7 8.7-23.2 0.8-23.5 15 23.5-0.5 31.6h0.1c0.3 2.5 2.5 4.5 5.1 4.5 2.8 0 5.1-2.3 5.1-5.1l1.1-31.2c0.1-1.9-0.4-3.8-1.3-5.5l-13.7-24 15.7-22 13.9 13.5 24.1 0.8v-0.1c0.2 0 0.3 0.1 0.5 0.1 2.8 0 5.1-2.3 5.1-5.1 0-3-2.3-5.3-5.2-5.3z"/>
		<circle cy="527.9" cx="520.2" r="10.7"/>
	</g>
	<polyline fill="none" stroke="#2E3192" stroke-linecap="round" stroke-miterlimit="10" stroke-width="2" points="686 302.6 686 347.3 703.7 356.5 703.7 413.4 727 431.6 727 467"/>
	<polyline fill="none" stroke="#2E3192" stroke-linecap="round" stroke-miterlimit="10" stroke-width="2" points="712 302.6 712 342.2 721.2 349.4 829.1 349.4 846.2 356.5 969.3 356.5 980.7 373.3 980.7 446.8"/>
	<polyline fill="none" stroke="#2E3192" stroke-linecap="round" stroke-miterlimit="10" stroke-width="2" points="738 302.6 738 335.9 745.9 340.7 980.7 340.7 1066.4 340.7 1089.2 362.3 1089.2 462.6"/>
	<path id="globe-5" d="m986.1 464.6c-0.1-0.1 0.7-0.2 0.9-0.2 0.1 0-0.4 1-0.9 0.2zm-4.7-6.7c-0.1 0.1 0.2-0.1 0.2-0.1 0.1 0.1-0.2 0.2-0.1 0.3 0.2 0.3 0 0.5 0 0.7s-0.2 0.1-0.3 0.2 0.6 0.2 0.6 0.2c0 0.1-0.8 0.2-0.7 0.4 0.2 0.3 1.8-0.4 1.5-0.4 0.5-0.2 0.1-0.3-0.2-0.4-0.1-0.5-0.2-1.2-0.5-1.5-0.1-0.1 0.2-0.2 0.2-0.2-0.4-0.6-0.7 0.8-0.7 0.8zm28.3 15c0 14.4-11.7 26.1-26.1 26.1s-26.1-11.7-26.1-26.1 11.7-26.1 26.1-26.1c14.4 0 26.1 11.7 26.1 26.1zm-18.1-11.6c0-0.3-0.4-0.6-0.8-0.1-0.3 0.4-0.2 1-0.4 1.2-0.2 0.4 1.2 0.7 1.2 0.4 0.1-0.6 1.6-0.1 1.9-0.1 0.5 0.2 1.4-0.5 0.5-0.8-0.8-0.3-1.2-0.6-1.3-1.1 0 0 0.4-0.4 0.2-0.4-0.4 0-1.3 1.7-1.3 0.9zm13.7 11.6c0-2.3-0.4-4.5-0.8-5.7-0.1-0.4-0.4-0.7-0.8-0.8-0.6-0.2-2.9 1.3-3.3 0.6-0.2-0.5-0.7 0.3-1.2 0-0.3-0.1-1-1.1-1.3-1-0.7 0.2 1 2.1 1.5 2.3 0.4-0.3 1.9-1 2.2-0.1 0.6 1.7-1.6 3.7-2.7 4.7-1.7 1.5-1.4-1-2.5-1.9-0.6-0.5-0.6-1.4-1.2-1.8-0.3-0.2-1.5-1.6-1.5-1.8v0.4c-0.2 0.2-0.6-0.6-0.7-0.7 0 0.6 1 1.7 1.4 2.2 0.6 0.9 0.9 2.2 1.6 2.9 0.4 0.4 1.9 2 2.3 2s1.7-1 2-0.9c1.4 0.3-3.3 7-3.7 7.8-0.4 0.7 0.3 2.4 0.2 3.2-0.1 0.9-0.8 1.2-1.5 1.8-0.8 0.6-0.6 1.6-1.2 2-1.1 0.7-1.9 2.9-3.5 2.9-0.5 0-2.5 0.8-2.7 0-0.2-0.6-0.5-1-0.8-1.5s0-1.1-0.4-1.6c-0.2-0.3-1-1.1-1.1-1.5 0-0.3 0.3-1.4 0.6-1.5 0.5-0.3 0.1-1 0-1.4-0.1-0.8-0.6-1.4-1.2-1.9-0.8-0.7-0.4-1.2-0.2-2.1 0-0.4-0.3-1-0.9-0.9-1.2 0.4-0.9-1-1.7-0.9-0.6 0-1.2 0.5-1.8 0.6-0.8 0.2-1.5-0.2-2.3-0.3-3.1-0.4-4.1-3.9-3.3-6.4 0.1-0.4-0.2-1.2-0.1-1.5 0.3-0.8 1-1.6 1.7-2.2 0.3-0.3 0.8-0.2 1.2-0.5 0.6-0.4 0.6-1.2 1.2-1.7 0.9-0.7 2.1-0.7 3.2-0.8 0.6-0.1 2.9-0.6 3.3-0.1 0 0.1 0.4 1.3 0 1.2 0.9 0.1 2.3 1.6 3.2 1.3 0.5-0.2 0.3-1.6 1.2-0.9 0.6 0.4 3.1 0.6 3.7 0.2 0.3-0.3 0.5-2 0.1-2.2 0.3 0.3-1.3 0.3-1.5 0.2-0.3-0.1-0.5 0.2-0.9 0.1 0.3 0.1-1.4-0.8-0.5-1.5-0.4 0.3-0.8-0.1-1.2 0.2-0.3 0.2 0.1 0.4-0.3 0.6-0.7 0.3-1.2-1.1-1.4-1.3-0.3-0.2-2.2-1.5-1.7-0.6 0.4 0.6 1.9 1.6 1.7 1.7-0.1 0.1-0.5-0.6-0.5-0.1 0.1-0.3 0 1.3-0.2 0.8-0.1-0.2 0.2-0.3 0-0.6 0-0.2-0.5-0.4-0.6-0.5-0.3-0.3-1-1.1-1.4-1.3-0.1-0.1-1.7 0.2-1.8 0.2-0.2 0.2-0.3 0.4-0.4 0.7-0.3 0.1-0.6 0.3-0.9 0.5-0.2 0.2-0.2 0.6-0.3 0.8-0.1 0.1-1.7 0.6-1.7 0.7 0.1-0.2-1.1-0.4-1-0.7 0.1-0.4 0.5-1.5 0.4-1.9s2.3 0.6 2.5-0.5c0.1-0.5 0.1-1.1-0.7-1.1 0.1 0 1.5-0.5 1.7-0.8 0.3-0.4 1-1 1.6-1s0.5-0.9 0.8-1.3c0.3 0.1-0.2 0.8 0.2 1.1 0-0.2 1 0.1 1.1 0.1 0.2-0.1 1.5-0.1 1.3-0.6-0.2-0.6 0.1-0.4 0.4-0.6 0 0 0.7-1.3 0.9-0.9-0.1-0.5-0.9 0.2-1.2 0.1-0.7-0.1-0.4-1.1-0.1-1.4 0.2-0.3-0.5-0.6-0.5-0.1 0 0.7-0.7 1.4-0.5 2.3 0.2 1.4-1.6-0.3-1.8-0.2-0.6 0.4-1.1-0.5-0.8-1s1.1-0.5 1.4-1c0.2-0.4 0.5-0.8 0.8-1.1 1.2-1 1.5-0.2 2.6-0.1s0.4 0.3 0.2 0.7 0.6 0.6 0.9 0.2c0.2-0.2 0.5-0.7 0.6-1.1 0.2-0.5 2-0.4 0.7-1.2-0.8-0.5-4.4-1.5-6.7-1.5-0.5 0-0.9 0.6-1.3 0.9-0.8 0.6-2.8 1.9-3.9 1.5s-3.5 1.4-3.9 1.4c-0.1 0 0-1.4 0.8-1.5-0.3 0 2.7-1.5 2.6-1.9s-6.1 1.8-5.8 2.2c0.1 0.2 0.7 0.2 0 0.6-0.4 0.2-0.8 1.7-1.2 1.7-1.1 0.5-1.2-0.9-2.4 0.9-0.2 0.4-1.5 0.4-1.9 0.8-2.9 3.1-4.9 7-5.6 11.3 0 0.2 0.7 0.5 0.8 0.6 0.2 0.3 0.2 1.5 0.4 2 0.3 1 1 1.6 1.6 2.6 0.3 0.6 0.9 2 0.7 2.6 0.2-0.4 2.3 1.8 2.7 2.2 0.9 1.1 1.6 2.3 0.1 3.4-0.5 0.3 0.7 2.5 0.1 3-0.1 0.1-0.6 0.1-0.8 0.2-0.8 0.5-0.4 1.6 0 2.1 4 4.1 9.5 6.7 15.7 6.7 12.2 0 21.9-9.7 21.9-21.8zm-25-13.8c0.3-0.1 0.6-0.1 0.7-0.5 0-0.3 0.1-0.1 0.2-0.2s-0.1-0.3-0.2-0.3-0.2 0.2-0.3 0.2h-0.2s-0.1 0.1-0.1 0.2v0.1c0 0.1-0.1 0.2-0.2 0.2-0.3 0.3-0.1 0.4 0.1 0.3 0.1 0-0.1 0 0 0z" fill="#fff"/>
			<path stroke="#231F20" stroke-miterlimit="10" d="m1108.9 618.6h-55.8c-4 0-7.3-3.2-7.3-7.3v-119.7c0-4 3.2-7.3 7.3-7.3h55.8c4 0 7.3 3.2 7.3 7.3v119.8c0 4-3.3 7.2-7.3 7.2z" fill="#FFC900"/>
			<rect height="12.5" width="16.4" stroke="#D1D3D4" stroke-miterlimit="10" y="553.4" x="1056.1" fill="#fff"/>
			<rect height="49.5" width="49.9" stroke="#D1D3D4" stroke-miterlimit="10" y="497.5" x="1056.1" fill="#fff"/>
			<rect height="12.5" width="16.4" stroke="#D1D3D4" stroke-miterlimit="10" y="566" x="1056.1" fill="#fff"/>
			<rect height="12.5" width="16.4" stroke="#D1D3D4" stroke-miterlimit="10" y="578.5" x="1056.1" fill="#fff"/>
			<rect y="591.1" x="1056.1" height="12.5" width="16.4" fill="#FC495F"/>
			<rect height="12.5" width="16.4" stroke="#D1D3D4" stroke-miterlimit="10" y="553.4" x="1072.8" fill="#fff"/>
			<rect height="12.5" width="16.4" stroke="#D1D3D4" stroke-miterlimit="10" y="566" x="1072.8" fill="#fff"/>
			<rect height="12.5" width="16.4" stroke="#D1D3D4" stroke-miterlimit="10" y="578.5" x="1072.8" fill="#fff"/>
			<rect height="12.5" width="16.4" stroke="#D1D3D4" stroke-miterlimit="10" y="591.1" x="1072.8" fill="#fff"/>
			<rect height="12.5" width="16.4" stroke="#D1D3D4" stroke-miterlimit="10" y="553.4" x="1089.5" fill="#fff"/>
			<rect height="12.5" width="16.4" stroke="#D1D3D4" stroke-miterlimit="10" y="566" x="1089.5" fill="#fff"/>
			<rect height="12.5" width="16.4" stroke="#D1D3D4" stroke-miterlimit="10" y="578.5" x="1089.5" fill="#fff"/>
			<rect y="591.1" x="1089.5" height="12.5" width="16.4" fill="#309172"/>
			<line y2="489.8" x2="1108.5" stroke="#414042" stroke-miterlimit="10" y1="489.8" x1="1054.9" fill="none"/>
			<line y2="583.6" x2="1112.1" stroke="#414042" stroke-miterlimit="10" y1="505.2" x1="1112.1" fill="none"/>
			<path d="m1102.9 463.1c-0.5 0-1-0.2-1.3-0.5-0.4 0.3-0.8 0.5-1.3 0.5s-1-0.2-1.3-0.5c-0.4 0.3-0.8 0.5-1.3 0.5s-1-0.2-1.3-0.5c-0.4 0.3-0.8 0.5-1.3 0.5s-1-0.2-1.3-0.5c-0.4 0.3-0.8 0.5-1.3 0.5s-1-0.2-1.3-0.5c-0.4 0.3-0.8 0.5-1.3 0.5s-1-0.2-1.3-0.5c-0.4 0.3-0.8 0.5-1.3 0.5s-1-0.2-1.3-0.5c-0.4 0.3-0.8 0.5-1.3 0.5s-1-0.2-1.3-0.5c-0.4 0.3-0.8 0.5-1.3 0.5s-1-0.2-1.3-0.5c-0.4 0.3-0.8 0.5-1.3 0.5s-1-0.2-1.3-0.5c-0.4 0.3-0.8 0.5-1.3 0.5s-1-0.2-1.3-0.5c-0.4 0.3-0.8 0.5-1.3 0.5s-1-0.2-1.3-0.5c-0.4 0.3-0.8 0.5-1.3 0.5s-1-0.2-1.3-0.5c-0.4 0.3-0.8 0.5-1.3 0.5s-1-0.2-1.3-0.5c-0.4 0.3-0.8 0.5-1.3 0.5s-1-0.2-1.3-0.5c-0.4 0.3-0.8 0.5-1.3 0.5s-1-0.2-1.3-0.5c-0.4 0.3-0.8 0.5-1.3 0.5h-0.4v26.7h44v-26.7h-2z" fill="#fff"/>
		<text font-size="11.109" font-family="&apos;MyriadPro-Regular&apos;" transform="translate(1066.4 525.97)">TOTAL</text>
	<circle r="4.9" cy="340.6" stroke="#2E3192" cx="886.1" stroke-miterlimit="10" stroke-width="2" fill="#fff"/>
	<circle r="4.9" cy="366" stroke="#2E3192" cx="704.3" stroke-miterlimit="10" stroke-width="2" fill="#fff"/>
	<circle r="4.9" cy="364.6" stroke="#2E3192" cx="612.9" stroke-miterlimit="10" stroke-width="2" fill="#fff"/>
	<circle r="4.9" cy="364.5" stroke="#2E3192" cx="451.6" stroke-miterlimit="10" stroke-width="2" fill="#fff"/>
	<circle r="4.9" cy="387.2" stroke="#2E3192" cx="980.7" stroke-miterlimit="10" stroke-width="2" fill="#fff"/>
	<g stroke="#fff" stroke-width=".5" stroke-miterlimit="10">
		<path d="m264.5 551.2c0.4 0.1 0.7 0.1 1.1 0.2 0-0.2 0-0.4-0.1-0.5-0.3-1.4-0.3-1.4 1.1-1.5 2.7-0.3 5.3-0.8 7.7-2.1 3.5-1.9 6-4.9 8.3-8.1 1.3-2 2.7-3.9 2.6-6.4-0.1-1.4-0.2-2.8-0.4-4.2-1.3-7.3-6.7-10.2-12.9-9-4.6 0.9-8 3.8-9.7 8.4-0.7 2-1.2 4-1.7 6.1-1 5.1-0.2 9.8 2.9 14 0.6 0.9 0.8 1.6-0.1 2.3-0.1 0-0.1 0.2-0.1 0.3 0.2 0.3 0.5 0.5 0.8 0.9-3.8 6.8-7.5 13.6-11.2 20.2 0.1 0.1 0.2 0.1 0.2 0.2 4-7.2 7.8-14 11.5-20.8zm9.9-29.6c-4.7 2.2-8.3 5.5-10.6 10.5 0.2-5.4 5-10.1 10.6-10.5z" fill="#33C7C9"/>
		<path d="m253.6 572.2c5.9-5.9 11.6-11.7 17.3-17.4 0.4 0.3 0.6 0.5 0.9 0.7 0.1-0.2 0.2-0.3 0.3-0.4 0.6-1.2 0.6-1.2 1.9-0.8 1.8 0.5 3.5 1 5.3 1.5 0.4-0.9 0.7-1.5 1-2.1 1.9-3.5 4.9-6 8.1-8.3 2.3-1.6 4.7-2.8 7.6-2.8 1 0 2 0.1 3 0.2 1.2-3.7 0.5-7.5-1.8-9.9-3.1-3.3-6.8-4.7-11.3-3.7 0.1 0.6 0.2 1.1 0.2 1.6 1.3-0.2 2.5-0.4 3.7-0.5-0.9 0.5-1.9 0.9-2.8 1.3-0.6 0.2-0.7 0.5-0.8 1.1-0.1 1.3-0.2 2.8-0.7 4-1.6 3.3-3.8 6.2-6.6 8.6-2.1 1.9-4.5 3.4-7.4 3.9 0.2 1.5 0.4 2.9 0.6 4.3-0.6 0.2-1.1 0.3-1.6 0.5 0.1 0.1 0.2 0.1 0.2 0.2-0.2 0.4-0.4 0.9-0.7 1.3-4.5 4.5-8.9 9.1-13.4 13.6-1 1-2.1 2-3.3 3 0.1-0.1 0.2 0 0.3 0.1z" fill="#FFC900"/>
		<path d="m308 558.7c1.8-3.9 1.6-7.6-1.2-11-3.7-4.5-10.5-6-15.6-3.1-2 1.1-3.8 2.4-5.6 3.8-3.9 3.1-6.4 7-6.9 12.1-0.1 0.8-0.2 1.5-0.3 2.3h-1.7l0.2 0.2c-0.3 0.3-0.6 0.7-0.9 0.8-7.3 2.9-14.5 5.7-21.8 8.5-0.1 0-0.2 0.1-0.3 0.1 0.1 0.1 0.1 0.2 0.2 0.3 7.1-2.8 14.2-5.5 21.3-8.3 1.3-0.5 1.3-0.5 2.3 0.4l0.3-0.3c0.6-0.7 1.1-0.8 1.9-0.2 1.4 1 2.9 1.9 4.4 2.5 4.6 1.9 9.2 1.4 13.9 0.1 4.5-1.2 7.8-3.9 9.8-8.2zm-19.7-7.3c3.4-4.5 9.1-5.9 14.8-3.1-5.2-0.8-10.1 0-14.8 3.1z" fill="#FF7FDC"/>
	</g>
	<path d="m484.5 523.3c0 11.6-9.4 20.9-21 20.9-11.5-0.1-20.9-9.4-20.8-20.9 0-11.6 9.4-20.9 21-20.9 11.4 0 20.8 9.3 20.8 20.9zm-20.3-1.9c0 0.3 0 0.5-0.1 0.7-0.5 2.9-1.1 5.9-1.6 8.8-0.4 2.2-1 2.7-3.2 2.8h-0.9-5.1c-0.9 0-1.4 0.4-1.5 1.2-0.1 0.7-0.3 1.5-0.5 2.2s0.1 1 0.8 1c3.2 0 6.5 0 9.7-0.1 2.4-0.1 4.4-1.4 5.1-3.8 0.6-1.9 0.9-3.8 1.3-5.8 0.4-2.3 0.8-4.6 1.2-7h1.4c1.5 0 1.9-0.4 2.2-1.8 0-0.2 0.1-0.5 0.1-0.7 0.1-0.9-0.2-1.3-1.1-1.3h-2c0.2-0.9 0.3-1.5 0.5-2.2 0.5-2.1 1.3-2.8 3.5-2.9 1.8-0.1 2-0.4 1.6-2.2 0-0.1 0-0.2-0.1-0.3-0.3-1-0.6-1.4-1.7-1.4-2.8-0.1-5.2 0.8-7 3.1-1.2 1.6-1.6 3.4-1.9 5.3-0.1 0.5-0.3 0.7-0.8 0.7h-3.5c-0.7 0-0.9 0.3-0.8 0.9 0.2 0.7 0.3 1.3 0.5 2 0.1 0.7 0.6 1 1.2 0.9 1-0.1 1.8-0.1 2.7-0.1z" fill="#fff"/>
	<path d="m935.9 553.9h-0.3c-1.1-1.7-2.2-3.5-3.3-5.2-1.6-2.5-3.1-5.1-4-8-0.4-1.4-0.6-2.7-0.2-4.1 0.8-2.6 2.5-4.4 5.1-5.3 0.6-0.2 6.7-1.6 9.3 3.6 1.1 2.3 1.2 4.5 0.3 6.7-1 2.3-2.2 4.6-3.5 6.8-1 1.8-2.2 3.7-3.4 5.5zm-2.9-15.4c-0.1 1.3 1.3 2.9 2.8 2.9s2.7-0.9 2.9-2.8c0.2-1.2-1.2-2.7-2.4-2.8-2.1-0.1-3.1 1.3-3.3 2.7z" fill="#2196F3"/>
	<text font-size="15.465" font-family="&apos;MyriadPro-Regular&apos;" transform="translate(368.25 390.28)" fill="#FFFFFF">Web Front-End Service</text>
	<text font-size="15.465" font-family="&apos;MyriadPro-Regular&apos;" transform="translate(748.06 382.12)" fill="#FFFFFF">Check Out Service</text>
</svg>
