<?xml version="1.0" encoding="utf-8"?>
<!-- Generator: Adobe Illustrator 18.0.0, SVG Export Plug-In . SVG Version: 6.00 Build 0)  -->
<!DOCTYPE svg PUBLIC "-//W3C//DTD SVG 1.1//EN" "http://www.w3.org/Graphics/SVG/1.1/DTD/svg11.dtd">
<svg version="1.1" id="Layer_1" xmlns="http://www.w3.org/2000/svg" xmlns:xlink="http://www.w3.org/1999/xlink" x="0px" y="0px"
	 viewBox="0 0 220 250" enable-background="new 0 0 220 250" xml:space="preserve">
<g>
	<g>
		<g>
			<defs>
				<polygon id="SVGID_1_" points="1.7,62.5 110,0 218.3,62.5 218.3,187.5 110,250 1.7,187.5 				"/>
			</defs>
			<clipPath id="SVGID_2_">
				<use xlink:href="#SVGID_1_"  overflow="visible"/>
			</clipPath>
		</g>
		<g>
			<defs>
				<polygon id="SVGID_3_" points="1.7,62.5 110,0 218.3,62.5 218.3,187.5 110,250 1.7,187.5 				"/>
			</defs>
			<use xlink:href="#SVGID_3_"  overflow="visible" fill="#AED581"/>
			<clipPath id="SVGID_4_">
				<use xlink:href="#SVGID_3_"  overflow="visible"/>
			</clipPath>
			<g clip-path="url(#SVGID_4_)">
				<path fill="#8BC34A" d="M220.3,121.3l-41.2-23.9l-4-2.4c-3.7-2.6-6.9-5.7-11.5-8.3c-2.9-1.6-5.7-3.6-9.3-4.9c0,0,0,0,0,0
					c-0.1,0-0.1,0-0.2-0.1l0,0c-11.4-4.4-25.7-7.4-41.9-7.4c-28.5,0-52.8,8.7-63.2,20.2l-1.4,0.8l-3,1.9l-2.2,1.5l-1.6,1.4l-1.9,1.4
					l-1.7,2l-1.4,1.8l-0.6,1l-0.9,1.5l-0.5,1.3l0.1,2.6c0,0-1.6,4.8-1.7,5c0,0.2-0.3,1.7-0.3,1.7l0.3,0.9c0,0,1.9-1.8,2-1.9
					c0.1-0.1,0.7-0.7,0.7-0.7h0.9v2.6l-1.5,13.1l-0.2,2.7l-0.2,1.1l-0.3,0.9l-1.1,3l0.5,1.9l-0.7,0.5l-2.1,1.3l-0.7,0.3l-0.9,0.6
					l-0.1,0.4l0,0.1c0,0,0,0,0,0c0,0,0,0,0,0l0.1,0.5l-0.5,1.1l-0.6-0.3l-1,1.3L219.1,259l25.3-1.1L220.3,121.3z"/>
			</g>
		</g>
		<g>
			<defs>
				<polygon id="SVGID_5_" points="1.7,62.5 110,0 218.3,62.5 218.3,187.5 110,250 1.7,187.5 				"/>
			</defs>
			<clipPath id="SVGID_6_">
				<use xlink:href="#SVGID_5_"  overflow="visible"/>
			</clipPath>
		</g>
	</g>
	<g>
		<polygon fill="#FFFFFF" points="174.8,134.9 174.8,134.9 174.7,134.9 		"/>
		<polygon fill="#FFFFFF" points="164,86.3 164,86.3 164,86.4 		"/>
		<path fill="#FFFFFF" d="M151.7,80.8C151.7,80.8,151.7,80.8,151.7,80.8C151.7,80.8,151.7,80.8,151.7,80.8L151.7,80.8z"/>
		<path fill="#FFFFFF" d="M166.3,89c0.2-0.3,0.4-0.8,0.5-0.7c0.4,0.2,0.7,0.6,1.1,1c0.1,0.1,0.2,0.4,0.4,0.5
			c0.6,0.3,1.1,1.4,1.9,0.9c0,0,0.1,0.1,0.1,0.1c0.2,0.1,0.5,0.3,0.7,0.4c-0.1-0.2-0.2-0.4-0.3-0.5c-0.8-0.6-1.7-1.2-2.5-1.8
			c-0.8-0.5-1.6-1.1-2.3-1.6C165.5,87.9,165.7,88.6,166.3,89z"/>
		<path fill="#FFFFFF" d="M165.8,87.3C165.8,87.3,165.8,87.3,165.8,87.3C165.8,87.3,165.8,87.3,165.8,87.3
			C165.8,87.3,165.8,87.3,165.8,87.3z"/>
		<path fill="#FFFFFF" d="M185.4,137.2c0.1,0.3,0.2,0.5,0.2,0.7c0,0.2,0.1,0.3,0.2,0.7c0-1.3,0.4-0.9,0.6-0.9
			c0.3-0.1,0.6,0.4,0.7,1.1c0-0.1,0.1-0.2,0.1-0.2c-0.1-0.4-0.1-0.8-0.2-1.2c0.2-0.3,0.5-0.1,0.6,0.4c0.1-0.2,0.2-0.3,0.4-0.5
			C187.2,137.2,186.3,137.2,185.4,137.2z"/>
		<path fill="#FFFFFF" d="M188.9,138c-0.3,0-0.6,0.1-1,0.2c0,0.1,0,0.2,0,0.3c0.2,0.1,0.4,0.3,0.5,0.2c0.4-0.2,0.7,0,0.8,0.8
			c0,0.1,0.1,0.2,0.1,0.3c0-0.1,0.1-0.1,0.1-0.1c0-0.1,0-0.2,0-0.3C189.5,138.3,189.4,138,188.9,138z"/>
		<path fill="#FFFFFF" d="M150,80.5c0.2,0.3,0.4,0.6,0.6,0.7c0.4,0.4,0.9,0.2,1.1-0.4c-0.5-0.2-1.1-0.4-1.6-0.5
			C150,80.4,150,80.4,150,80.5z"/>
		<path fill="#FFFFFF" d="M151.7,80.8L151.7,80.8C151.7,80.8,151.7,80.8,151.7,80.8C151.7,80.8,151.7,80.8,151.7,80.8z"/>
		<path fill="#FFFFFF" d="M189.4,133.5c-0.2-0.1-0.4-0.1-0.6-0.2c0.1-0.2,0.2-0.3,0.2-0.4c-0.1-0.1-0.2-0.2-0.4-0.4
			c0.1,0.6,0.1,1.2,0.2,1.8C189.1,134.1,189.2,133.9,189.4,133.5z"/>
		<path fill="#FFFFFF" d="M193.4,142c0-0.1,0.1-0.1,0.1-0.2c-0.1-0.4-0.1-0.8-0.2-1.2c-0.2,0-0.3,0-0.6,0.1c0.1,0.5,0.3,0.8,0.4,1.2
			c0,0.1,0.1,0.2,0.1,0.3C193.3,142.2,193.4,142.1,193.4,142z"/>
		<path fill="#FFFFFF" d="M164,86.3C164,86.3,164,86.4,164,86.3C164,86.4,164.1,86.4,164,86.3C164.1,86.4,164,86.3,164,86.3z"/>
		<path fill="#FFFFFF" d="M165.7,87.3c-0.3-0.2-0.6-0.4-0.9-0.6c-0.3-0.1-0.5-0.2-0.8-0.3C164.6,86.8,165.1,87.4,165.7,87.3z"/>
		<path fill="#FFFFFF" d="M165.8,87.3C165.8,87.3,165.8,87.3,165.8,87.3C165.8,87.3,165.8,87.3,165.8,87.3
			C165.7,87.3,165.8,87.3,165.8,87.3L165.8,87.3z"/>
		<path fill="#FFFFFF" d="M174.8,134.9C174.8,134.9,174.7,134.9,174.8,134.9C174.8,134.9,174.8,134.9,174.8,134.9
			C174.8,134.9,174.8,134.9,174.8,134.9z"/>
		<path fill="#FFFFFF" d="M176.2,136.4c0,0.2,0,0.4,0,0.6c0,0,0.1,0,0.1,0c0-0.5,0-1-0.1-1.6c0.1,0.1,0.2,0.2,0.3,0.3
			c0-0.1,0-0.1,0.1-0.2c-0.1-0.3-0.3-0.7-0.4-0.7c-0.5,0-1,0.1-1.5,0.2c0.1,0.1,0.3,0.3,0.4,0.3
			C175.8,135.1,176.1,135.4,176.2,136.4z"/>
		<path fill="#FFFFFF" d="M171.5,95.2c-1.4-0.6-2.9-1.2-4.3-1.8c0,0.1,0,0.2,0,0.2c1.4,0.6,2.9,1.2,4.3,1.8
			C171.5,95.4,171.5,95.3,171.5,95.2z"/>
		<path fill="#FFFFFF" d="M162.9,91.9c-1.2-0.4-2.5-0.7-3.7-1.1c0,0.1,0,0.1,0,0.2c1.2,0.4,2.4,0.7,3.7,1.1
			C162.9,92,162.9,92,162.9,91.9z"/>
		<path fill="#FFFFFF" d="M177.3,98.2c-0.7-0.4-1.3-0.7-2-1.1c0,0.1,0,0.2,0,0.2c0.7,0.4,1.3,0.8,2,1.1
			C177.3,98.4,177.3,98.3,177.3,98.2z"/>
		<path fill="#FFFFFF" d="M179.8,99.8c-0.6-0.4-1.2-0.7-1.8-1.1c0,0.1,0,0.1,0,0.2c0.6,0.4,1.2,0.7,1.8,1.1
			C179.8,99.9,179.8,99.8,179.8,99.8z"/>
		<path fill="#FFFFFF" d="M165,101.3c-0.7-0.2-1.5-0.4-2.2-0.6c0,0.1,0,0.2,0,0.2c0.7,0.2,1.5,0.4,2.2,0.6
			C165,101.4,165,101.4,165,101.3z"/>
		<path fill="#FFFFFF" d="M153.8,98.5c-0.6-0.1-1.3-0.2-1.9-0.3c0,0.1,0,0.1,0,0.2c0.6,0.1,1.3,0.2,1.9,0.2
			C153.8,98.6,153.8,98.5,153.8,98.5z"/>
		<path fill="#FFFFFF" d="M152.4,144.1c0.6,0,1.3,0,1.9,0c0,0,0-0.1,0-0.1c-0.6,0-1.3,0-1.9,0C152.4,144,152.4,144,152.4,144.1z"/>
		<path fill="#FFFFFF" d="M150.3,144c0,0,0,0.1,0,0.1c0.6,0,1.3,0,1.9,0c0-0.1,0-0.2,0-0.3C151.6,143.9,150.9,144,150.3,144z"/>
		<path fill="#FFFFFF" d="M177.3,145.4c-1-0.1-2-0.3-3-0.4C174.6,145.6,176.2,145.8,177.3,145.4z"/>
		<path fill="#FFFFFF" d="M28.6,146.9c0,0.1,0.1,0.1,0.1,0.2c0,0.3-0.1,0.6-0.1,0.8c0.2,0,0.4,0,0.5,0c0-0.9,0.2-1.6,0.7-1.8
			c0.4-0.2,0.9-0.5,1.3-0.8c0,0.7,0,1.2,0,1.7c0,0,0.1,0,0.1,0c0.1-0.2,0.2-0.5,0.3-0.7c0,0,0.1,0.1,0.1,0.1c-0.1,0.5-0.1,1-0.2,1.5
			c0.1,0,0.1,0,0.2,0c0.1-0.6,0.4-1.1,0.4-1.7c0.1-1,0.3-1.5,0.8-1.6c0.9-0.2,1.8-0.5,2.7-0.9c-0.1,1-0.1,1.8-0.2,2.7
			c0.6,0,0.2-1.2,0.6-1.4c-0.1,0.9-0.2,1.7-0.2,2.5c-0.1-0.3-0.2-0.5-0.3-0.7c-0.1,0.2-0.2,0.4-0.3,0.6c-0.2,0.2-0.3,0.3-0.5,0.5
			c1,0,2,0,3,0c0.3-0.1,0.7-0.3,1-0.3c0.7-0.1,1.3-0.1,2-0.2c0.2,0,0.5-0.1,0.7-0.2c0,0.1,0,0.2,0,0.2c-0.2,0.1-0.4,0.1-0.6,0.2
			c-0.4,0.1-0.9,0.2-1.3,0.4c1.1,0,2.2,0,3.3,0c0-0.5-0.1-1-0.1-1.6c0.2,0.4,0.4,0.6,0.4,1c0.1,0.7,0.4,0.3,0.6,0.3
			c0.4-0.1,0.8-0.2,1.2-0.2c0.3,0,0.5,0,0.8,0c0.2,0,0.5-0.1,0.7-0.3c-0.7,0-1.4,0-2.2,0c0.2-0.1,0.3-0.3,0.4-0.3
			c1.3-0.2,2.6-0.4,3.9-0.5c0.5,0,1.1,0.1,1.6,0.1c0,0,0.1,0,0.1,0c0.1-0.1,0.3-0.3,0.4-0.4c0,0.6-0.1,1.1-0.1,1.6
			c0,0.1,0,0.2,0,0.4c19.9,0,117.3,0,144.2,0c-0.2-0.8-0.3-1.6-0.5-2.4c0,0,0.1-0.1,0.1-0.1c0.2,0.3,0.4,0.7,0.6,1
			c0.1,0.1,0.2,0.1,0.3,0c0.1-0.3,0.2-0.6,0.2-0.9c0-0.5,0-1.1-0.1-1.7c0,0-0.1,0-0.2,0c0-0.7-0.3-1.1-0.7-1.2
			c-0.3-0.1-0.6-0.3-0.9-0.5c0,0.1-0.1,0.1-0.1,0.2c0-0.1-0.1-0.2-0.1-0.3c-0.1-0.1-0.3-0.2-0.4-0.3c0,0-0.1-0.2-0.1-0.3
			c-0.1-0.5-0.2-1.1-0.2-1.5c-0.3,0-0.5,0-0.9,0c0.4,0.6,0.7,1,1,1.5c0,0.1-0.1,0.2-0.1,0.3c-0.4-0.5-1,0-1.3-1.3
			c-0.1,0.1-0.2,0.1-0.4,0.2c0-0.3,0-0.5,0-0.7c0-0.1,0.1-0.1,0.1-0.1c0,0.1,0,0.2,0.1,0.2c0,0.1,0.1,0.2,0.1,0.3
			c0-0.1,0.1-0.3,0.1-0.4c-0.1-0.5-0.1-0.9-0.5-0.8c-0.5,0.1-1-0.2-1.2,1.4c-0.2-0.3-0.5-0.5-0.7-0.8c0,0.2-0.1,0.5-0.1,0.7
			c-0.1,0.1-0.1,0.2-0.2,0.3c-0.1-0.3-0.2-0.5-0.2-0.8c-0.2,0-0.5,0.2-0.7,0c-0.8-0.7-1.7-0.4-2.6-0.5c-0.2,0-0.5,0-0.6-0.2
			c-0.2-0.3-0.3-0.8-0.3-1.2c-0.1-1.5-0.1-1.4-0.8-1.2c-0.3,0.1-0.6,0-1-0.2c0.2-0.2,0.3-0.5,0.4-0.6c-0.2-0.1-0.4-0.2-0.5-0.2
			c0-0.5,0-0.9,0-1.3c0-0.5,0.1-0.9,0-1.4c0-0.4-0.2-0.7-0.3-1.1c-0.1-0.4-0.2-0.8-0.2-1.2c0-0.2,0.1-0.5,0.2-0.7
			c-0.1-0.1-0.6-1.8-0.4-2.2c0.2-0.5,0-0.8,0-1.2c-0.1-0.6-0.4-1.2-0.2-2c0.1-0.3-0.1-0.9-0.2-1.2c-0.2-0.6-0.1-1,0-1.2
			c-0.1-0.7-0.3-1.4-0.4-2.1c0.1-0.2,0.1-0.4,0.2-0.5c0,0-0.1,0-0.1,0.1c-0.1-0.6-0.2-1.1-0.2-1.7c0-0.7-0.3-1.3-0.3-1.9
			c0.1-0.9-0.3-1.6-0.2-2.5c0-0.3,0-0.6-0.1-0.9c-0.2-0.5,0.1-1.1,0.4-1.2c0.1,0,0.2-0.1,0.4-0.2c0.1,0,0.3,0,0.5,0
			c0.9,8.1,1.9,16.2,2.8,24.3c0,0,0,0,0.1,0c0-0.5,0-1.1-0.1-1.9c0.4,0.9,0.5,3.1,0.3,3.4c0.2,0,0.4,0.1,0.5,0.1
			c0.2,0,0.4-0.1,0.6-0.1c-0.2-0.2-0.4-0.3-0.6-0.4c0.1-0.2,0.2-0.3,0.3-0.4c-0.1-0.8-0.1-1.5-0.2-2.2c0-0.3-0.1-0.5-0.1-0.8
			c-0.1-0.7-0.4-1.3-0.1-2.2c0.1-0.3-0.1-1-0.2-1.5c0-0.4,0-0.8-0.1-1.3c-0.4-0.6-0.5-1.9-0.2-2.5c-0.4-0.7-0.5-1.8-0.3-2.5
			c-0.4-0.5-0.3-1.4-0.4-2.1c0-0.3,0-0.6-0.1-0.9c0-0.2-0.1-0.4-0.1-0.5c0.1-1-0.3-1.7-0.2-2.6c0.1-0.9-0.3-1.7-0.2-2.7
			c0-0.3-0.1-0.7,0-1.1c0-0.2,0.2-0.5,0.3-0.5c0.3,0.1,0.7-0.8,0.9,0.5c0.3,2.3,0.6,4.7,0.9,7c0.2,1.7,0.4,3.4,0.6,5.1
			c0.4,3.4,0.8,6.8,1.1,10.1c0.1,0.7,0.2,1.4,0.8,1.7c-0.1-0.9-0.2-1.6-0.3-2.3c0.1,0,0.1-0.1,0.2-0.2c-0.2-0.9-0.6-1.7-0.5-2.9
			c-0.3-0.3-0.4-2-0.2-2.4c-0.1-0.7-0.4-1.5-0.4-2.1c0.1-1-0.5-1.8-0.2-2.6c-0.1-0.9-0.3-1.7-0.3-2.3c0.1-0.9-0.3-1.4-0.2-2.2
			c0-0.7-0.1-1.5-0.2-2.2c0-0.6-0.5-1.1-0.3-1.8c0-0.5-0.1-1.1,0-1.3c0.2-0.3,0.5-0.5,0.7-0.5c0.1,0,0.3,0.5,0.4,0.9
			c0.4,3.1,0.8,6.1,1.2,9.2c0.1,0.4,0.1,0.9,0.1,1.3c0,0.2,0.1,0.3,0.2,0.5c-0.1-1.2-0.3-2.2-0.3-3.1c-0.1-1.5-0.3-2.9-0.6-4.2
			c-0.1-0.6-0.2-1,0.1-1.1c0-0.4-0.1-0.7-0.1-0.9c0.1-0.6,0.4-0.7,0.7-0.7c0.3-0.1,0.3,0.4,0.4,0.8c0.1,0.5,0.1,1.1,0.2,1.4
			c0.3-0.2,0.5-0.5,0.7-0.6c0.1,0,0.3,0.2,0.3,0.4c0.1,0.9,0.2,1.5,0.7,1.3c0.1,0,0.2,0.1,0.2,0.2c0.2,0.8,0.5,1.5,0.8,2.3
			c0-0.3,0.1-0.8,0.1-0.9c-0.3-0.5-0.1-0.8,0-1.2c0.6-2.8,0.4-5.4-0.5-7.8c-0.4-0.9-0.8-1.6-1.2-2.5c-0.3-0.6-0.6-1.2-0.8-1.8v0
			c0,0,0,0,0,0c-0.1,0.1-0.2,0.2-0.2,0.2c-1.8-2.5-3.9-4.3-5.9-6c-0.7-0.6-1.6-0.9-2.3-1.3c-1.5-0.8-2.9-1.7-4.4-2.4
			c-2.1-1-4.1-1.9-6.2-2.7c-2-0.8-4-1.6-6-2.3c-1.4-0.5-2.7-0.7-4.1-1.1c-1.4-0.4-2.7-0.8-4-1.2c-0.9-0.2-1.8-0.4-2.8-0.6
			c-1-0.2-1.9-0.5-2.9-0.7c-0.7-0.2-1.4-0.3-2.2-0.4c-1.5-0.2-2.9-0.5-4.4-0.7c-0.9-0.1-1.8-0.2-2.7-0.4c-1.5-0.2-3-0.4-4.6-0.5
			c-0.4-0.1-0.9-0.1-1.3-0.2c-1.7-0.1-3.3-0.2-5-0.4c-0.4,0-0.8-0.1-1.2-0.2c-1.1-0.1-2.2-0.1-3.3-0.2c-0.9-0.1-1.7-0.2-2.6-0.2
			c-5.3-0.1-10.7-0.1-16-0.2c-1.6,0-3.2,0.1-4.8,0.2c-1.7,0.1-3.4,0.2-5,0.4c-1.2,0.1-2.4,0.2-3.6,0.3c-1.2,0.1-2.5,0.2-3.7,0.4
			c-1.4,0.2-2.8,0.3-4.2,0.5c-0.8,0.1-1.6,0.2-2.4,0.4c-1.2,0.2-2.4,0.5-3.5,0.7c-0.5,0.1-1,0.1-1.6,0.2c-1.1,0.2-2.3,0.5-3.4,0.7
			c-0.9,0.2-1.8,0.3-2.8,0.5c-0.9,0.2-1.7,0.5-2.6,0.7c-0.8,0.2-1.6,0.4-2.5,0.6c-0.9,0.2-1.8,0.5-2.7,0.7c-0.8,0.2-1.6,0.4-2.4,0.7
			c-1.3,0.4-2.6,0.8-3.9,1.3c-1.5,0.5-3,1.1-4.4,1.7c-1.4,0.6-2.8,1.1-4.1,1.8c-2.4,1.2-4.8,2.8-7.2,3.9c-1.4,0.6-2.7,1.7-3.9,2.9
			c-1.4,1.3-2.8,2.5-4.1,4.3c0,0.1-0.1,0.1-0.2,0.1c0.9-2.3,2.1-4,3.3-5.5c0.8-1,1.6-1.8,2.5-2.7c-0.4,0.4-0.9,0.6-1.3,1.1
			c-1.4,1.5-2.7,3.2-3.8,5.2c-0.4,0.7-0.7,1.6-1.1,2.5c-0.2,0.4-0.3,0.8-0.5,1.2c-0.9,1.4-1.5,3.3-1.9,5.5c-0.2,1.3,0,2.5,0.1,3.7
			c0.1,0.4,0.2,0.8,0.2,1.2c0,0.3-0.1,0.6,0,0.9c0,0.4,0.1,0.8,0.1,1.2c0,0,0.1,0,0.1,0c0.1-0.3,0.1-0.6,0.2-1
			c0.2,0.2,0.4,0.1,0.4-0.5c0-0.5,0.1-1.3,0.6-1c0.1,0.1,0.4,0,0.4-0.7c0-0.4,0.2-1.1,0.3-1.1c0.3,0.1,0.7-0.1,0.9,1
			c0.1-0.9,0.2-1.5,0.3-2.1c0.1-0.6,0.2-0.8,0.5-0.6c0.1,0.1,0.1,0.1,0.2,0.1c0.4,0.1,0.5,0.5,0.3,1.2c0,0.1-0.1,0.2-0.1,0.3
			c-0.1,1-0.1,2-0.2,3c-0.1,0.9-0.2,1.7-0.3,2.6c0,0.4,0,0.8-0.1,1.2c-0.1,1.1-0.2,2.2-0.5,3.2c-0.2,0.9,0,1.7-0.2,2.5
			c-0.1,0.2-0.1,0.4-0.2,0.5c0,0.4,0,0.9,0,1.2c-0.1,0.9-0.4,1.8-0.3,2.8c0,0.4-0.1,0.8-0.2,1.3c0,0.4,0.1,0.9,0.1,1.5
			c0,0,0.1,0,0.1,0.1c0.1-1,0.3-2,0.4-3.1c0.2-1.6,0.4-3.2,0.5-4.9c0.5-4.1,0.9-8.2,1.4-12.3c0.1-1.1,0.3-2.2,0.4-3.3
			c0-0.1,0.1-0.2,0.1-0.3c0,0.1,0.1,0.2,0.1,0.3c0.1,0.2,0.2,0.5,0.4,0.6c0.3,0.1,0.5,0.6,0.4,1.1c-0.1,0.4-0.1,0.8-0.2,1.2
			c-0.3,1-0.1,2.2-0.5,3.1c0.2,0.6,0.1,1.2,0,1.7c0,0.2-0.1,0.3-0.1,0.3c0,0.8,0,1.5-0.1,2.1c0,0.4-0.1,0.8-0.1,1.2
			c-0.1,0.7-0.2,1.4-0.3,2.1c-0.1,0.7-0.1,1.5-0.4,2.1c-0.1,0.3,0,1.1,0,1.7c0,0.3-0.2,0.6-0.3,1c0,0,0,0,0,0c0,0.6,0.1,1.3,0,1.9
			c0,0.5-0.3,1-0.3,1.5c0,0.4,0,1,0.1,1.4c0.1,0.5,0.2,0.4,0.4,0c0.5-0.9,0.4-2.1,0.6-3.2c0.4-3.5,0.8-7,1.1-10.5
			c0.4-3.4,0.8-6.9,1.1-10.3c0.1-0.6,0.2-0.6,0.4-0.6c0.3,0.1,0.7,0.4,0.9,0.6c0,0.9-0.1,1.5-0.1,2.2c0,0.4-0.1,0.7-0.2,1.2
			c0,0.2,0,0.5,0,0.8c-0.2,0.9-0.2,2-0.3,2.9c-0.1,1-0.3,2-0.4,3c-0.1,0.6,0,1.2,0,1.7c0,0.2-0.1,0.4-0.2,0.5c0,0.1-0.1,0.3-0.1,0.4
			c0,0.6,0,1.3,0,1.9c0,0.2-0.1,0.4-0.2,0.5c-0.2,1.9-0.1,3.9-0.7,5.7c0,0.8,0,1.7,0,2.7c-0.1,0-0.2,0-0.3,0.1
			c0.3,0.5,0.8,0.5,1,0.1c0.4-0.8,0.6-1.7,0.7-2.9c0.2-2.3,0.4-4.5,0.7-6.8c0.4-3.8,0.8-7.5,1.2-11.3c0.2-1.5,0.4-3.1,0.5-4.6
			c0.1-0.6,0.2-0.7,0.4-0.6c0.3,0.1,0.6,0.2,0.8,0.5c0.1,0.2,0.2,0.9,0.1,1.2c-0.2,0.7,0,1.6-0.3,2.3c-0.1,0.3,0.1,1.2,0,1.6
			c-0.2,0.9-0.2,1.9-0.4,2.9c-0.1,0.6-0.1,1.3-0.1,1.9c0,0.3-0.2,0.5-0.3,0.7c0.1,0.4,0.1,2-0.2,2.5c0.3,0.8,0.2,2.3-0.1,2.6
			c0,0.8,0,1.5-0.1,2.1c-0.2,0.9-0.1,1.8-0.2,2.6c-0.1,0.4-0.2,0.8-0.4,1.3c0.4,0.7,0.1,2.7-0.4,3c0.1,0.2,0.3,0.5,0.5,0.8
			c0.1,0.1,0.3,0.1,0.4,0c0.2-0.1,0.3-0.4,0.5-0.6c0.4-0.5,0.6-1.3,0.8-2.1c0.1-0.4,0-0.9,0-1.4c0-0.5,0.1-1.1,0.2-1.6
			c0.2-2,0.5-4,0.7-6.1c0.3-2.3,0.5-4.6,0.7-6.9c0.3-2.7,0.6-5.4,0.9-8.1c0.1-1.1,0.5-1.3,0.9-0.7c0.1,0.2,0.3,0.4,0.5,0.6
			c0,0.2-0.1,0.5-0.2,0.9c0,0.2,0,0.3,0,0.5c0,0.2,0.1,0.4,0,0.5c-0.3,0.9-0.1,1.9-0.2,2.9c0,0.3-0.2,0.6-0.2,0.7
			c0,0.8,0.1,1.5-0.1,2c-0.2,0.7-0.1,1.4-0.2,2c0,0.3-0.1,0.6-0.2,0.9c0,0.1,0,0.3,0,0.4c-0.1,0.8-0.2,1.5-0.3,2.3
			c0,0.4,0,0.9,0,1.3c0,0.5,0,0.9-0.1,1.4c-0.2,0-0.3,0-0.5,0.1c0.5,0.4,0.4,2.2-0.1,3c0.3,0.6,0.1,2.6-0.3,3c0.6,0.8-0.3,2.2,0.4,3
			c-0.2,0.1-0.4,0.1-0.7,0.2c0.3,0.3,0.5,0.5,0.7,0.7c0,0.1,0,0.3,0,0.4c0.3-0.3,0.5-0.5,0.8-0.8c0.2-0.2,0.4-0.2,0.5-0.4
			c0.5-0.7,0.6-1.8,0.7-2.9c0-0.7,0-1.5,0-2.2c0-0.5,0.1-1,0.2-1.6c0.1-0.5,0.2-1,0.2-1.6c0.4-3.9,0.8-7.8,1.2-11.7
			c0.2-2.2,0.4-4.5,0.6-6.8c0.1-0.8,0.2-1.1,0.7-1c0.5,0.1,0.9,1.1,0.8,2.1c-0.1,1.2-0.2,2.5-0.3,3.8c-0.1,0.9-0.1,1.8-0.2,2.7
			c0,0.2-0.1,0.4-0.2,0.7c0.2,1.3,0.1,2.3-0.4,2.5c0.5,0.2,0.3,1,0.3,1.4c-0.1,0.5,0.1,1.5-0.5,1.3c0.3,0.9,0.1,2.5-0.2,2.9
			c0.1,0.3,0.2,0.6,0.2,0.9c-0.1,0.8,0.1,1.8-0.3,2.4c0,0.1,0,0.3,0,0.5c0,0.5,0,1.1,0,1.6c0,0.3-0.2,0.6-0.3,0.8c0,1,0.1,2,0.1,3.1
			c-0.2,0-0.5,0.1-0.8,0.2c0.4,0.3,0.9,0.1,1.2,1.1c0.1,0.2,0.5,0.1,0.7,0c0.2-0.1,0.3-0.3,0.4-0.6c0.6-0.2,1.1-1.3,1.2-2.6
			c0.2-2.6,0.4-5.2,0.6-7.8c0.2-2.6,0.5-5.2,0.8-7.8c0.3-3.2,0.6-6.4,0.9-9.6c0-0.4,0.2-1,0.3-1c0.3-0.1,0.6,0,0.8,0.3
			c0.5,0.7,0.5,3.2,0,3.9c0.2,0.4,0.2,2.1,0,2.4c-0.1,0.1-0.2,0.1-0.1,0.4c0.2,0.8,0,1.8-0.4,2.2c0.2,0.2,0.3,0.4,0.2,1
			c-0.1,0.4,0,1-0.1,1.4c-0.2,0.7-0.1,1.4-0.2,2c0,0.2,0,0.5,0,0.6c-0.3,0.7-0.1,1.6-0.2,2.3c0,0.4-0.1,0.8-0.2,1.2
			c0,0.1,0,0.3,0,0.4c0.2,0.9,0,2.5-0.3,2.8c0.3,1,0,3-0.4,3.2c0.4,0.5,0.2,1.2,0.2,1.9c0,0.4,0,0.8,0,1.1c0,0,0.1,0,0.1,0
			c-0.1,0.2-0.2,0.4-0.3,0.6c0.2,0.3,0.4,0.5,0.5,0.8c0,0.1,0,0.2-0.1,0.3c-0.4-0.1-0.9-0.2-1.3-0.2c-0.3-0.1-0.3,0-0.4,0.5
			c0.8,0,1.5,0,2.3,0c0.1,0,0.3,0,0.4,0c0.2-0.1,0.5,0.2,0.6-0.6c0-0.2,0.2-0.3,0.3-0.4c0.2-0.1,0.4-0.1,0.5-0.3
			c0.2-0.6,0.5-1.3,0.5-2c0.3-3.9,0.6-7.7,0.9-11.6c0.2-2.1,0.4-4.2,0.6-6.3c0.2-2.7,0.4-5.4,0.6-8.1c0-0.5-0.1-1.3,0.4-1.4
			c0.7-0.1,0.9-0.3,1.1,1c0.1,0.7,0.1,2.8-0.1,3.5c0,0.1,0,0.3,0,0.4c-0.1,1.4-0.2,2.8-0.3,4.2c-0.1,0.9-0.1,1.9-0.2,2.8
			c-0.1,0.9,0,1.9-0.2,2.7c-0.3,1.1,0,2.2-0.2,3.1c-0.2,0.9,0,1.9-0.2,2.8c-0.2,1.2,0,2.6-0.3,3.7c-0.2,0.9-0.1,1.8-0.2,2.6
			c-0.1,0.3,0,0.8,0.1,1.3c-0.1,0-0.2,0.1-0.4,0.2c0.2,0.3,0.5,0.6,0.8,0.8c0,0,0,0.1-0.1,0.1c-0.4,0-0.8,0-1.3,0
			c-0.1,0-0.3,0.2-0.3,0.3c0,0.7-0.3,0.8-0.6,0.9c0,0.3,0.1,0.6,0.1,0.9c0.1,0.6-0.2,0.9-0.4,1c-0.8,0.2-1.5,0.3-2.3,0.4
			c-1.2,0.1-2.3,0.2-3.5,0.4c-0.7,0.1-1.5,0.3-2.2,0.3c-1,0-2,0.5-3.1,0.7c-0.7,0.1-1.4,0.2-2,0.4c-1,0.2-2,0.5-3,0.7
			c-0.8,0.2-1.6,0.3-2.4,0.6c-1.2,0.3-2.3,0.7-3.5,1c-0.1,0-0.2-0.2-0.2-0.2c-0.1,0-0.2,0-0.3,0c-0.5-1.1-0.5-1.1-1-0.9
			c0.1,0.4,0.2,0.8,0.4,1.4c-0.5,0.3-1,0.5-1.5,0.8c-0.9,0.5-1.8,1.1-2.7,1.6c-0.2,0.1-0.5,0.2-0.5,0.8c0,0,0,0,0,0c0,0,0,0,0,0
			c-0.2,0.8-0.4,1.6-0.6,2.4c0,0,0,0.1,0,0.1c0.1,0,0.1,0,0.2,0c0.1,0,0.2,0,0.3,0C28.3,147.5,28.5,147.2,28.6,146.9z M42.2,146.5
			c0-0.4-0.1-0.6-0.1-0.9c-0.1,0-0.3,0-0.4,0c-0.1,0.3-0.1,0.7-0.2,1c-1.7,0.3-3.5,0.6-5.2,0.9c0-0.3,0-0.7,0.1-0.8
			c0.6-0.7,0.5-2,0.7-3.3c1.6-0.4,3.3-0.7,4.9-1.1c0,1-0.1,1.9-0.1,2.8c0.1,0,0.2,0,0.2,0c0.1-0.6,0.2-1.2,0.2-1.7
			c0.1,0,0.1,0.1,0.2,0.1C42.4,144.3,42.3,145.3,42.2,146.5z M50.7,145.1c0,0.1-0.4,0.4-0.6,0.4c-0.3,0.1-0.5-0.1-0.8-0.1
			c-0.5,0-0.9,0.1-1.4,0.2c-0.4,0.1-0.8,0.3-1.2,0.3c-0.9,0.1-1.7,0.1-2.6,0.2c-0.2,0-0.4,0.1-0.6,0.2c0.1-0.4,0.1-0.9,0.2-1
			c0.4-0.4,0.4-1.1,0.5-1.7c0.1-0.6,0.1-1.1,0.1-1.8c2.2-0.3,4.5-0.7,6.8-1c0,1.2-0.1,2.2-0.1,3.3c0.1-0.1,0.2-0.1,0.3-0.2
			c0.1,0,0.1-0.1,0.2-0.2c-0.1-0.7-0.2-1.4,0.1-2c0.1,0,0.1,0,0.2,0.1c-0.1,0.9-0.1,1.7-0.2,2.6C51,144.2,50.7,143.9,50.7,145.1z
			 M51.1,147.3c0-0.1,0-0.1,0-0.2c0.4-0.1,0.8-0.2,1.2-0.3c-0.2-0.1-0.3-0.1-0.4-0.2c0-0.2,0.1-0.4,0.1-0.6c0.3-0.1,0.6-0.1,1-0.2
			c-0.1,0.3-0.2,0.5-0.3,0.7c1.1,0,2.2,0,3.3,0c0,0.1,0,0.1,0,0.2C54.3,146.9,52.7,147.1,51.1,147.3z M51.6,146.5
			c0.1-1.2,0.1-2.4,0.2-3.7c0,0,0.1,0,0.1,0c-0.1,1.2-0.2,2.4-0.2,3.7C51.7,146.5,51.7,146.5,51.6,146.5z M56.6,145.8
			c-1.1,0.1-2.2,0.2-3.3,0.3c0-0.1,0-0.1,0-0.2c1.1-0.1,2.2-0.2,3.3-0.4C56.6,145.6,56.6,145.7,56.6,145.8z M58.2,145.3
			c0.8-0.1,1.6-0.2,2.4-0.3c0,0.1,0,0.2,0,0.3c-0.8,0.1-1.6,0.2-2.4,0.3C58.2,145.5,58.2,145.4,58.2,145.3z M62.2,146.2
			c-0.5,0.2-1,0.2-1.4,0.2c-0.4,0-0.8-0.2-1.2-0.3c0,0,0-0.1,0-0.1c0.3,0,0.7-0.1,1-0.1c0.2,0,0.4,0,0.4-0.6c0-0.2,0.1-0.4,0.2-0.4
			c0.4-0.1,0.8-0.2,1.2-0.2c0.1,0,0.2,0.3,0.2,0.4C62.4,145.6,62.3,146.2,62.2,146.2z M62.6,143.2c0,0.4-0.1,0.8-0.1,1.1
			c-3.1,0.3-6.2,0.6-9.4,0.9c0-0.3,0-0.9,0.1-1c0.6-1,0.5-2.4,0.7-3.9c2.9-0.3,5.9-0.7,8.9-1c-0.1,1.2-0.1,2.3-0.1,3.3
			c0,0,0.1,0,0.1,0c0.1-0.4,0.1-0.9,0.2-1.3c0-0.5,0-1,0.5-0.8c-0.1,1.3-0.2,2.7-0.3,4.1C62.7,144.1,63.3,142.8,62.6,143.2z
			 M58.4,137.6c0.4-0.1,0.7-0.2,1.1-0.3c0.4-0.1,0.8-0.1,1.2-0.2c0.8-0.1,1.5-0.1,2.3-0.2c1.8-0.2,3.6-0.3,5.4-0.5
			c0.5,0,1-0.1,1.5-0.2c1-0.1,2.1-0.1,3.1-0.2c0.9-0.1,1.9-0.3,2.8-0.3c0.7-0.1,1.4,0,2.1,0c0.9,0,1.7,0,2.6-0.1
			c0.6,0,1.3-0.2,1.9-0.2c0.2,0,0.4,0.3,0.8,0.5c-0.4,0.1-0.6,0.1-0.8,0.1c-0.2,0-0.3,0-0.5,0c-1.6,0.1-3.1,0.1-4.7,0.2
			c-1.1,0-2.1,0.1-3.2,0.2c-1.6,0.1-3.3,0.3-4.9,0.5c-0.9,0.1-1.9,0.1-2.8,0.2c-1,0.1-1.9,0.3-2.9,0.3c-1,0.1-2.1,0.1-3.1,0.2
			c-0.5,0-1,0.2-1.5,0.3c-0.2,0-0.3-0.1-0.5-0.1C58.4,137.8,58.4,137.7,58.4,137.6z M77,145.6c-0.1,0.1-0.2,0-0.3,0
			c-0.5,0.1-1-0.2-1.6,0.1c-0.3,0.2-0.6-0.2-0.9-0.2c-0.1,0-0.1,0.1-0.2,0.1c-0.1,0.1-0.2,0.1-0.3,0.1c-0.4-0.1-0.8-0.2-1.3-0.3
			c-0.1,0-0.1,0.2-0.2,0.3c0,0.1-0.1,0.1-0.2,0.1c-0.5,0-1.1-0.1-1.6-0.1c-0.7,0-1.3,0.1-2,0.2c-0.3,0-0.5,0-0.8,0
			c-0.2,0-0.4,0.2-0.6,0.2c-0.6,0-1.2,0-1.8-0.1c-0.4,0-0.8,0-1.3,0c0.1,0.3,0.2,0.3,0.2,0.5c0,0.1-0.1,0.3-0.1,0.3
			c-0.2-0.1-0.5-0.3-0.7-0.4c0,0,0-0.2-0.1-0.4c1.2-0.2,2.4-0.4,3.6-0.5c-1.3-0.9-2.5,0.6-3.8-0.2c0.1-1.3,0.2-2.6,0.2-3.9
			c0.3,0.1,0.5,0.2,0.4,0.9c-0.1,0.9-0.1,1.8-0.2,2.9c0.6-0.2,1.2-0.4,1.8-0.6c0,0,0.1,0,0.1,0c1.5-0.1,3.1-0.1,4.6-0.2
			c0.1,0,0.1,0.1,0.2,0.1c-0.1,0.2-0.2,0.4-0.4,0.7c0.3,0.1,0.6,0.2,0.8,0.2c0.5,0,0.9-0.1,1.4-0.2c1.2-0.1,2.5-0.1,3.7-0.2
			c0.4,0,0.7,0.1,1.2,0.1C77.2,145.3,77.1,145.5,77,145.6z M70.9,144.6c0-0.1,0-0.2,0-0.2c1.1,0,2.2,0,3.3,0c0,0.1,0,0.2,0,0.2
			C73.1,144.6,72,144.6,70.9,144.6z M75.1,144.2c0.5-0.1,1-0.1,1.6-0.2C76.5,144.5,75.6,144.7,75.1,144.2z M77.2,143.5
			c-0.5,0.2,0.2-1.5-0.4-1.2c0,0.3,0,0.7,0,1.3c-0.7,0-1.4,0-2.1,0c-0.8,0-1.5,0-2.3,0.1c-1.4,0.1-2.9,0.1-4.3,0.2
			c-0.8,0-1.5,0.2-2.4,0.3c0.2-0.7,0.3-1.1,0.3-1.5c0.1-0.7,0.1-1.4,0.2-2.1c0.1-0.5,0.1-1,0.2-1.4c0.1-0.2,0.3-0.4,0.4-0.4
			c1.1-0.1,2.3-0.1,3.4-0.2c2.1-0.1,4.1-0.2,6.2-0.4c0.1,0,0.3-0.1,0.5-0.2c0,1.3,0,2.5,0,3.7c0,0,0.1,0,0.1,0
			c0-0.7,0.1-1.5,0.1-2.2c0-0.2,0.1-0.3,0.2-0.4c0.1,0.2,0.2,0.3,0.2,0.5c0,0.2,0,0.5,0,0.7C77.3,141.3,77.3,142.4,77.2,143.5z
			 M78.3,145.4c-0.2,0-0.5,0-0.7,0c0-0.1,0-0.1,0-0.2c0.4-0.1,0.9-0.2,1.3-0.2c0,0.1,0,0.1,0,0.2C78.7,145.2,78.5,145.3,78.3,145.4z
			 M77.8,144.7c-0.3,0-0.4-0.2-0.4-0.9c0.1-1.2,0.1-2.3,0.2-3.7c0.5,0.6,0.3,1.4,0.3,2.1c0-0.3,0-0.7,0-1c0,0-0.1,0-0.1,0
			c0,0.8,0,1.5,0,2.3c0,0.2,0.1,0.5,0.2,0.5c0.3,0,0.6-0.2,0.9-0.2c0.2,0,0.4,0.2,0.7,0.3c-0.2,0.2-0.4,0.6-0.6,0.6
			C78.7,144.8,78.2,144.7,77.8,144.7z M82.2,144.9c0,0.1,0.1,0.2,0.1,0.3c-1,0-2,0-3,0c0-0.1,0-0.2,0-0.3c0.4,0.2,0.6,0.2,0.8-0.6
			c0.1-0.3,0.3-0.5,0.5-0.6c0.5-0.1,1,0,1.6,0c-0.1,0.3-0.1,0.6-0.2,1c0.8,0.2,1.5,0.4,2.3,0.5c0-0.1,0-0.2,0-0.3
			c-0.3,0-0.5,0-0.8,0c0-0.1,0-0.2,0-0.3c0.7,0.1,1.3,0.2,2,0.3C85.3,145.6,84.8,145.6,82.2,144.9z M86.4,143.9c1-0.5,1.1-0.5,1.3,0
			C87.3,143.9,86.9,143.9,86.4,143.9z M87.8,142.9c-2.5,0.1-5,0.2-7.6,0.3c0.1-1.3,0.2-2.6,0.3-4c0-0.1,0.1-0.2,0.1-0.3
			c0.3-0.2,0.3-1.3,0.9-1.2c1.1,0.2,2.2,0.1,3.2-0.2c0.7-0.2,1.3,0.6,1.9,1c0.2,0.1,0.5,0.3,0.7,0.5c0.2,0.2,0.4,0.5,0.4,0.7
			c0,0.7,0.3,1.6-0.4,2c0.2,0.4,0.4,0.6,0.5,0.9C87.8,142.8,87.8,142.9,87.8,142.9z M137.1,139.1c0-0.3,0.2-0.7,0.4-0.9
			c0.9-1,1.9-1.2,2.9-1.1c0.8,0.1,1.6,0,2.5,0c0.2,0.9,0.4,1.7,0.5,2.5c0.1,0.9,0.2,1.8,0.3,2.7c-2.2,0-4.4,0-6.8,0
			c0.2-0.4,0.3-0.6,0.5-0.9C136.9,141,137.1,139.9,137.1,139.1z M143.8,143.5c-0.9,0-1.9,0.1-2.8,0c-0.9-0.1-1.7,0-2.6-0.1
			c0-0.1,0-0.2,0-0.3c0.5-0.1,1.1-0.2,1.6-0.2c1.1,0,2.2,0.1,3.4,0.1C143.5,143,143.7,143.2,143.8,143.5z M137.1,143
			c0.4,0,0.8,0,1.2,0c0,0.1,0,0.1,0,0.2c-0.4,0-0.8,0-1.2,0C137.1,143.1,137.1,143.1,137.1,143z M163.2,145.4
			c-0.3,0.1-0.6-0.1-0.9-0.1c-0.8,0-1.6,0-2.3,0c-1.9,0-3.8-0.1-5.7-0.2c-1.6-0.1-3.3-0.1-4.9-0.2c-3.8-0.1-7.5-0.1-11.3-0.2
			c-0.2,0-0.4-0.1-0.6-0.3c0.3,0,0.7-0.1,1-0.1c0-0.1,0-0.1,0-0.2c-0.4,0-0.7,0-1.1,0c0-0.1,0-0.2-0.1-0.2c0,0,0.1-0.1,0.1-0.1
			c0.7,0.1,1.3,0.2,2,0.3c0.2,0,0.5-0.2,0.7-0.1c0.5,0.1,1,0.3,1.5,0.3c0.4,0,0.8-0.3,1.2-0.3c1.3,0.1,2.6,0.2,3.9,0.3
			c0.2,0,0.4,0,0.6,0c0.6,0,1.2,0,1.7,0c0,0-0.1,0-0.2-0.1c0.1-0.2,0.2-0.3,0.3-0.6c-0.5-0.1-0.9-0.2-1.4-0.3
			c1.4-0.3,2.7-0.3,3.9-0.1c1,0.2,2,0,2.9,0c1.1,0,2.2,0.1,3.4,0.2c0.6,0.1,1.2,0.2,1.8,0.4c0.1,0,0.2,0.2,0.2,0.4
			c-0.5-0.1-1.1,0.6-1.6-0.2c-0.1-0.2-0.4-0.1-0.6-0.1c-0.6,0-1.2,0.1-1.8,0.1c-0.1,0-0.1,0-0.2,0c-0.4-0.1-0.9-0.2-1.3-0.2
			c0,0.1,0,0.2,0,0.3c0.4,0.1,0.7,0.2,1.1,0.2c0.9,0.1,1.7,0.1,2.6,0.2c0.9,0.1,1.8,0.4,2.7,0.5c0.4,0,0.8-0.3,1.2-0.3
			c0.6-0.1,1.1,0,1.7,0c0.1,0,0.2,0.1,0.2,0.1C163.8,145,163.5,145.3,163.2,145.4z M146.2,139.6c0.1,0.5,0.1,1.1,0.2,1.6
			c0,0.3,0,0.7,0,1.1c0,1.8,0,1.8-0.9,1.7c-0.4,0-0.7-0.1-1.1-0.2c0-0.3,0-0.5,0-0.8c0.5,0.1,1.1,0.1,1.6,0.2
			C146,141.9,145.6,140.8,146.2,139.6z M147.2,140.8c-0.1-0.9-0.1-1.8-0.2-2.7c-0.1-0.9,0.2-0.6,0.5-0.6c1.1,0.1,2.2,0,3.4,0
			c1.2,0,2.4,0.1,3.7,0.2c1,0.1,2,0.2,2.9,0.3c0.3,1.7,0.6,3.4,0.9,5.2c-1.3-0.1-2.6-0.3-4-0.4c-0.9-0.1-1.8,0-2.7,0
			c-1.4,0-2.7-0.1-4.1-0.2c-0.3,0-0.4-0.2-0.4-0.7c0-0.2-0.1-0.5-0.1-0.9c-0.2,0.5-0.3,0.7-0.4,1c0-0.5,0-1-0.1-1.8
			c0-0.3-0.1-0.9-0.2-1.4c0.5-0.3,0.6,0.1,0.5,2.1C147,140.8,147.1,140.8,147.2,140.8z M161,139.1c0-0.5-0.1-1,0.3-0.7
			c0.1,0.1,0.2,0,0.3,0c1,0.1,2,0.2,3,0.3c0.1,0,0.2,0.2,0.4,0.3c0.3,0.3,0.6,0.6,0.9,0c0.1-0.3,0.5-0.2,0.7-0.2c1,0.1,2,0.2,3,0.3
			c0.1,1.7,0.4,3.3,0.9,4.8c-3.2-0.2-6.2-0.5-9.1-0.7c-0.2-0.5-0.3-0.8-0.4-1.1c-0.1,0.2-0.2,0.5-0.3,0.8c-0.1-0.9-0.2-1.8-0.3-2.7
			c0-0.3,0.1-0.6,0.2-0.9c0.1,0.2,0.3,0.4,0.3,0.7c0.1,0.5,0,1,0.1,1.6c0.1-0.2,0.1-0.3,0.1-0.5C161.1,140.4,161,139.7,161,139.1z
			 M160.3,144.5c-0.5-1.8-0.6-3.6-0.1-4.2C160.4,141.6,160.5,142.9,160.3,144.5z M180,145.6c-0.7,0-1.4,0-2.1,0c0,0,0,0.1,0,0.1
			c0.5,0.1,1.1,0.3,1.6,0.4c0,0.1,0,0.3,0,0.4c-0.4-0.1-0.9-0.2-1.3-0.3c-0.4-0.2-0.7,0.1-0.7,0.8c-0.1,0-0.2-0.1-0.3-0.1
			c0,0.2,0,0.3,0,0.4c0,0.1-0.1,0.1-0.1,0.2c0-0.2-0.1-0.3-0.1-0.5c0-0.8-0.3-0.8-0.6-0.8c-0.5-0.1-1.1,0-1.6-0.2c0.2,0,0.3,0,0.5,0
			c0-0.1,0-0.1,0-0.2c-0.4,0-0.8-0.1-1.2,0c-1,0.4-2.1,0.1-3.1,0c-0.3,0-0.5,0-0.8-0.2c0.4,0,0.7,0,1.1,0c0-0.1,0-0.2,0-0.2
			c-0.8,0.1-1.5,0.2-2.3,0.2c-0.8,0-1.6,0.1-2.4,0c-0.7-0.1-1.5-0.3-2.2-0.6c1.4-0.4,2.8,0.4,4.3-0.2c-1.9-0.6-3.9-0.1-5.9-0.7
			c0-0.1,0-0.2,0-0.4c1.2,0.2,2.4,0.3,3.6,0.5c0.4,0,0.8,0,1.1,0c0.8,0,1.6,0,2.5,0c0.4,0,0.8,0.2,1.3,0.3c0.1,0,0.3,0,0.4,0
			c-0.1-1-0.1-2-0.2-2.9c0.1,0,0.2,0,0.2-0.1c0,0.7,0.1,1.3,0.1,2c0,0.6,0.3,1.4-0.3,1.8c0.4,0.1,0.8,0.2,1.1,0.2
			c0.3,0.1,0.4-0.1,0.3-1c2.3,0.3,4.7,0.5,7,0.8C180,145.4,180,145.5,180,145.6z M172.4,139.6c0.8,0,1.5-0.1,2.2,0
			c1,0.1,2.1,0.3,3.1,0.5c0.4,0.1,0.8,0.1,1.1,0.4c0.2,0.1,0.2,0.8,0.3,1.2c0,0.8,0.1,1.5,0.5,1.9c0.1,0.1,0.1,0.5,0.2,1
			c-2.4-0.3-4.7-0.5-7-0.8c0-0.1,0-0.1,0.1-0.2c-0.2-0.3-0.3-0.6-0.5-1c-0.1,0.4-0.2,0.7-0.2,1.1c-0.1-1.1-0.2-2.2-0.3-3.4
			c0,0,0.1-0.1,0.1-0.1c0.1,0.7,0.2,1.4,0.4,2.4C172.8,141.6,172.3,140.5,172.4,139.6z M175.4,138.1c0-0.1,0-0.2,0-0.3
			c1.2,0.2,2.4,0.3,3.7,0.5c0,0.1,0,0.2,0,0.3C177.8,138.4,176.6,138.3,175.4,138.1z M180.5,144.8c-0.1-0.6-0.1-1.1-0.2-1.8
			C180.6,143.3,180.6,143.4,180.5,144.8z M180.1,138.7c0-0.1,0-0.2,0-0.2c0.5,0.1,1,0.1,1.5,0.2c0,0.1,0,0.2,0,0.3
			C181.1,138.9,180.6,138.8,180.1,138.7z M181,143.7c-0.1-0.6-0.2-1.1-0.4-1.7C181.1,142,181.2,142.6,181,143.7z M185,146.2
			c-1-0.1-2.1-0.3-3.1-0.4c0-0.1,0-0.2,0-0.3c1,0.1,2.1,0.3,3.1,0.4C185,146,185,146.1,185,146.2z M193.1,144.5
			c0.1,0.1,0.1,0.5,0.2,0.1c0.1,0.1,0.2,0.1,0.2,0.2c0.2,0.9,0.4,1.9,0.7,3c-0.8-0.3-1.7-0.2-2.2-1.8c0-0.6-0.1-1.3-0.1-2.1
			C192.3,144,192.7,144.2,193.1,144.5z M187.7,142.3c0.5,0.1,1,0.2,1.4,0.4c0.2,0.1,0.4,0.3,0.6,0.4c0.1,0.1,0.3,0,0.5,0
			c0.3,0,0.6,0.1,0.7,0.8c0.1,0.9,0.4,1.7,0.6,2.8c-0.5-0.1-1.1-0.2-1.6-0.3c-0.4-0.1-0.7-0.3-1.1-0.3c-0.3-0.1-0.5-0.1-0.7-0.8
			c0-0.2-0.4-0.3-0.6-0.4C188,144.6,188,144.3,187.7,142.3z M184.9,142c0,0.1,0.2,0,0.2-0.1c0.4-0.5,0.8-0.1,1,0.8
			c0.1,0.7,0.1,1.6,0.5,2c0.1,0.1,0.1,0.6,0.2,1c-0.5-0.1-0.9-0.1-1.3-0.2c-0.8-0.1-1.6-0.2-2.4-0.3c-0.4-0.1-0.8-0.1-1.3-0.2
			c0,0-0.1,0-0.1-0.1c0-1-0.5-0.9-0.8-1.3c0.1,0,0.2-0.1,0.4-0.1c-0.1-1-0.1-1.8-0.2-2.9c0.2,0.3,0.3,0.4,0.4,0.6c0,0,0-0.1,0-0.1
			c0-0.1-0.1-0.2-0.2-0.5c0.8,0.2,1.5,0.3,2.2,0.6C184.1,141.4,184.6,141.3,184.9,142z M184.2,139.3c0,0.1,0,0.2,0,0.3
			c-0.4-0.1-0.8-0.2-1.2-0.3c0-0.1,0-0.3,0-0.4C183.4,139.1,183.8,139.2,184.2,139.3z M180.7,101.7c0.6,0.4,1.1,0.7,1.7,1.1
			c0,0.1,0,0.2,0,0.2c-0.6-0.4-1.1-0.8-1.7-1.1C180.7,101.9,180.7,101.8,180.7,101.7z M174.2,98.2c1.5,0.8,3,1.5,4.5,2.3
			c0,0.1,0,0.2,0,0.3c-1.5-0.8-3-1.6-4.5-2.3C174.2,98.3,174.2,98.2,174.2,98.2z M173.7,98c-5-1.7-10.3-3.6-15.4-5.3
			C159.2,92.3,172.5,96.9,173.7,98z M118.9,87.5c1.5,0,3.1-0.1,4.6,0c1.5,0.1,3.1,0.3,4.6,0.5c0.5,0.1,1.1,0,1.6,0
			c0.8,0,1.6,0.1,2.4,0.2c1.1,0.1,2.2,0.1,3.3,0.2c1.6,0.1,3.2,0.3,4.9,0.5c1.1,0.1,2.3,0.3,3.4,0.5c1.4,0.3,2.8,0.6,4.3,0.9
			c0.9,0.2,1.8,0.2,2.6,0.4c0.9,0.2,1.9,0.4,2.8,0.7c0.9,0.2,1.7,0.4,2.6,0.6c0.2,0,0.4,0.1,0.5,0.2c0,0.1,0,0.2,0,0.3
			c-0.2-0.1-0.4-0.1-0.6-0.2c-1.2-0.3-2.5-0.6-3.7-0.9c-1-0.2-2-0.4-2.9-0.5c-1.6-0.3-3.1-0.6-4.7-0.9c-1-0.2-2-0.2-3-0.4
			c-1.6-0.2-3.1-0.3-4.7-0.5c-0.8-0.1-1.6-0.2-2.4-0.3c-1-0.1-2.1-0.2-3.1-0.3c-0.3,0-0.6,0-0.8,0c-1.4-0.1-2.8-0.2-4.1-0.3
			c-1.1-0.1-2.2,0-3.3-0.1c-1.1-0.1-2.2-0.2-3.3-0.2c-0.5,0-0.9,0-1.4,0c0-0.1,0-0.2,0-0.2C118.6,87.5,118.8,87.5,118.9,87.5z
			 M45.5,100.9c0.5-0.3,0.9-0.5,1.4-0.8c1.2-0.6,2.5-1.1,3.7-1.7c0.9-0.4,1.8-0.9,2.8-1.3c1.1-0.4,2.2-0.8,3.3-1.2
			c0.9-0.3,1.7-0.7,2.6-1c1.1-0.4,2.2-0.6,3.3-1c0.7-0.2,1.3-0.4,2-0.6c0.7-0.2,1.5-0.4,2.2-0.6c1-0.3,2.1-0.5,3.1-0.7
			c1-0.2,2-0.4,3-0.6c0.9-0.2,1.9-0.5,2.8-0.7c0.9-0.2,1.8-0.3,2.7-0.5c0.7-0.1,1.4-0.2,2-0.4c0.7-0.1,1.4-0.2,2.2-0.3
			c1.5-0.2,3-0.4,4.5-0.5c1-0.1,1.9-0.2,2.9-0.4c1.1-0.2,2.2-0.4,3.3-0.5c0.6-0.1,1.2-0.1,1.8-0.2c1.2-0.1,2.3-0.1,3.5-0.2
			c1.3-0.1,2.6-0.1,3.9-0.2c1.8-0.1,3.5-0.1,5.3-0.2c2.5-0.1,4.9-0.1,7.4-0.2c0.5,0,0.9,0.1,1.4,0.3c-0.1,0-0.1,0-0.2,0
			c-2.1,0.1-4.1,0.1-6.2,0.2c-1.8,0-3.7,0-5.5,0c-1.4,0-2.9,0.1-4.3,0.2c-1.5,0.1-2.9,0.2-4.4,0.3c-1.3,0.1-2.6,0.2-3.9,0.4
			c-0.9,0.1-1.9,0.2-2.8,0.3c-1.6,0.2-3.2,0.3-4.8,0.5c-1.5,0.2-3,0.5-4.5,0.7c-1,0.2-2,0.3-3,0.5c-1.5,0.3-3.1,0.7-4.6,1
			c-1,0.2-2,0.3-3,0.5c-1,0.2-2,0.6-3,0.9c-0.8,0.2-1.5,0.4-2.3,0.5c-0.9,0.2-1.8,0.5-2.7,0.7c-0.9,0.3-1.8,0.5-2.6,0.8
			c-1,0.4-2.1,0.8-3.1,1.2c-1,0.4-2.1,0.7-3.1,1.1c-1.8,0.8-3.7,1.6-5.5,2.5c-1.8,0.9-3.5,2-5.3,3c-0.1,0-0.2,0-0.3,0
			c0-0.1,0-0.1,0-0.2C42.9,102.4,44.2,101.6,45.5,100.9z M39.5,109.2c0.6-0.5,1.3-1,1.9-1.4c0.6-0.4,1.1-0.6,1.7-0.9
			c0.6-0.3,1.1-0.8,1.7-1.2c0.7-0.4,1.5-0.8,2.2-1.1c1.2-0.5,2.4-1.1,3.6-1.6c0.6-0.2,1.2-0.5,1.7-0.7c0.1-0.1,0.3-0.3,0.3-0.3
			c0.3-0.1,0.7-0.1,1-0.2c0.7-0.2,1.4-0.4,2-0.7c0.3-0.1,0.5-0.6,0.7-0.9c0.1,0.8,0.4,0,0.6,0.1c0,0,0.1-0.1,0.1-0.2
			c0.2,0.7,0.5,0.2,0.7,0.1c0.6-0.3,1.2-0.1,1.7-0.9c0.2-0.3,0.5-0.1,0.7-0.2c0.3-0.1,0.5-0.2,0.8-0.4c0,0.1,0,0.3,0,0.5
			c0.6-0.2,1.2-0.4,1.7-0.6c0.1,0,0.2-0.2,0.2-0.3c0.1-0.1,0.2-0.2,0.3-0.2c0.3,0.1,0.4,0,0.5-0.4c0,0,0.1,0.1,0.1,0.1
			c0.2,0.3,0.2,0.2,0.4,0.1c0.4-0.1,0.7-0.1,1.1-0.1c0.1,0,0.2,0.1,0.3,0c0.3-0.5,0.6-0.5,0.9-0.3c0.4,0.3,0.7-0.2,0.9-0.7
			c0.1-0.3,0.9-0.5,1.1-0.2c0.1,0.2,0.2,0.3,0.4,0.3c0-0.1-0.1-0.2-0.1-0.3c0.1-0.1,0.1-0.2,0.2-0.2c0.8,0.3,1.4-0.1,2.1-0.6
			c0.4-0.3,0.9-0.1,1.4-0.1c0.2,0,0.3-0.1,0.5-0.1c0.1,0.3,0.2,0.4,0.5,0.1c0.2-0.3,0.5-0.3,0.7-0.3c0.3,0,0.7,0,1,0
			c0-0.1,0-0.4,0.1-0.5c0.1-0.1,0.2,0.1,0.3-0.1c0.1-0.1,0.3-0.2,0.4-0.2c0.3,0,0.6,0,0.9,0c0,0.1,0,0.3,0,0.6
			c0.1-0.3,0.2-0.6,0.3-0.8c0,0,0.1,0.1,0.1,0.1c0,0.2,0,0.5,0,0.9c0.1-0.1,0.3-0.2,0.3-0.4c0.1-1,0.5-0.9,0.8-1
			c0.4-0.1,0.7,0,1.1,0c0.1,0,0.2,0.2,0.4,0.3c0.4-0.1,1-0.3,1.6-0.5c0,0,0,0.1,0,0.1c-0.1,0.1-0.1,0.1-0.2,0.2c0,0.1,0,0.2,0,0.2
			c0.3-0.2,0.7-0.4,1-0.6c0.1-0.1,0.2-0.1,0.3-0.1c0.5,0,1,0,1.5,0c0.1,0,0.3,0.2,0.4,0.5c0.6-0.1,1.2-0.2,1.9-0.3
			c0.2,0,0.5,0.1,0.7-0.4c0.1-0.2,0.4-0.1,0.6-0.2c0.4-0.1,0.7-0.2,1.1-0.2c0.1,0,0.3,0.2,0.4,0.4c0-0.1,0.1-0.4,0.1-0.6
			c0-0.1,0.1-0.3,0.2-0.3c0.4,0,0.8,0.1,1.3,0.2c0.2,0,0.4,0,0.6,0c0.3-0.1,0.5-0.1,0.6,0.7c0-0.3,0.1-0.5,0.2-1
			c0.3,0.1,0.6,0.3,0.9,0.3c0.2,0,0.4-0.3,0.6-0.3c0.3-0.1,0.6,0,0.9,0c0,0.2,0,0.5,0.1,0.7c0,0,0.1,0,0.1,0
			c0.3-0.5,0.5-0.9,0.9-0.5c0.2,0.1,0.5-0.2,0.7-0.2c0.1,0,0.3,0.1,0.4,0.2c0,0.1,0,0.2,0,0.3c0-0.1,0-0.2,0.1-0.3
			c0,0.2,0.1,0.3,0.1,0.5c0.1-0.1,0.1-0.1,0.1-0.1c0-0.2,0-0.4,0-0.6c0.1,0,0.2,0.1,0.3,0.1c0.3,0.1,0.5,0.2,0.8,0.3
			c-0.1,0.1-0.1,0.2-0.2,0.3c0,0,0,0.1,0,0.1c0.5-0.2,1-0.3,1.5-0.5c0,0,0,0.2,0.1,0.3c0.4-0.1,0.8-0.2,1.1-0.2
			c0.2,0,0.3,0.2,0.5,0.1c0.5-0.4,1.1,0.3,1.4-0.2c0.6-0.8,1.1-0.2,1.7-0.4c0.1,0,0.2,0,0.3,0c0.3,0.9,0.7,0.4,1.1,0.3
			c0.4-0.1,0.8-0.3,1.2-0.1c0.1,0.1,0.3,0.4,0.3-0.2c0.1,0.2,0.2,0.3,0.4,0.5c0.1-1.1,0.2-1.1,0.7-0.9c0.6,0.2,1.2,0.1,1.7,0.2
			c0.2,0,0.3,0.2,0.5,0.3c0,0.1,0.1,0.3,0.1,0.4c0.1-0.3,0.1-0.5,0.2-0.7c1.2,0.1,2.3,0.2,3.5,0.3c0,0,0,0.1,0,0.1
			c0.5,0,0.9,0,1.4,0c0-0.1,0-0.1,0-0.2c0.2-0.2,0.4-0.4,0.6-0.4c0.7,0,1.4-0.3,2,0.1c0.7,0.4,1.2-0.3,1.9,0
			c0.5,0.2,0.9,0.5,1.4,0.5c0.4,0,0.9-0.2,1.3-0.3c0.1,0,0.2,0.1,0.4,0.2c0.1,0.1,0.2,0.3,0.3,0.3c0.6-0.5,1.2-0.2,1.8-0.1
			c-0.1,0.1-0.1,0.2-0.2,0.2c0,0,0.1,0.1,0.1,0.1c0.2,0,0.5,0,0.7,0c0.4,0,0.7,0.2,0.9-0.7c0.4,0.6,0.8,1.1,1.3,0.5
			c0.1-0.1,0.2,0,0.3,0.1c0,0.1,0,0.2-0.1,0.4c1.4-0.3,2.8,0.8,4.2-0.2c0,0.1,0,0.1,0,0.1c0,0-0.1,0.1-0.1,0.3
			c0.2,0,0.3-0.1,0.5-0.1c0.2,0,0.4-0.1,0.5,0c0.5,0.4,1,0.4,1.6,0c0.1-0.1,0.3,0.1,0.4,0.1c0.1,0,0.2,0.1,0.3,0.1
			c0.1,0,0.2-0.2,0.2-0.1c0.6,0.8,1.3,0,2,0.3c0.3,0.2,0.6-0.1,0.9,0.4c0.1,0.2,0.4-0.1,0.7-0.2c0.1,0,0.3,0,0.4,0.1
			c-0.1,0-0.2,0.1-0.3,0.1c0.4,0.2,0.4,0.2,1.5-0.5c0,0.3,0.1,0.5,0.1,0.5c0.3,0,0.5-0.1,0.7-0.1c0.2,0,0.4,0,0.7,0
			c0.1,0,0.2,0.3,0.4,0.4c0.1,0.1,0.1,0.1,0.2,0.1c0.5,0,0.9,0.2,1.4-0.3c0.1-0.1,0.2,0.1,0.2,0.2c0,0.1,0,0.1,0,0.2
			c0.2,0,0.5-0.2,0.6,0c0.5,0.9,1.2,0.2,1.7,0.6c0.1,0.1,0.2,0.2,0.3,0.2c0.1-0.5,0.2-0.3,0.3-0.2c0.2,0.1,0.4,0.2,0.5,0.2
			c0.1,0,0.2-0.3,0.3-0.3c0.3,0,0.7,0,1,0c0.1,0,0.1,0,0.2,0.1c0.2,0.1,0.3,0.2,0.4,0.5c0.4,0.1,0.7,0.3,1.1,0.4
			c0.5,0.1,1,0.2,1.5,0.3c0.3,0.1,0.7,0.2,1,0.3c0.3,0.1,0.6,0,0.9,0.1c0.1,0,0.2,0.1,0.4,0.2c0.1,0,0.3,0,0.3-0.1
			c0.2-1,0.5-0.3,0.7-0.1c0.4,0.6,0.4,0.7,0.7-0.1c0.1,0.2,0.1,0.4,0.2,0.6c0.3-0.4,0.5-0.7,0.6,0.2c0,0.1,0.1,0.1,0.1,0.1
			c0.2-0.5,0.5,0,0.7,0c0.4,0,0.8,0.1,1.1,0.2c0.2,0,0.4,0.1,0.5,0.1c0.5,0.1,1.1,0,1.5,0.3c0.8,0.6,1.6,0.7,2.4,1
			c0.7,0.3,1.4,0.5,2,0.7c0.2,0,0.4,0.5,0.6-0.1c0-0.1,0.3,0.1,0.5,0.2c0.2,0.2,0.4,0.5,0.7,0.6c0.5,0.2,1,0.3,1.5,0.5
			c0.2,0.1,0.4,0.2,0.5,0.2c0.1,0,0.1-0.3,0.2-0.5c0.2,0.2,0.4,0.6,0.6,0.7c0.4,0.3,0.9,0.6,1.4,0.9c0.8,0.3,1.5,0.6,2.3,0.9
			c0.3,0.1,0.6,0,1,0c0.1,0,0.2,0,0.4,0.3c-0.1,0-0.3,0-0.4,0c0,0.1,0,0.1,0,0.2c1,0.5,2,1,2.9,1.5c0,0.1,0,0.2,0,0.3
			c-0.3-0.1-0.5-0.3-0.8-0.4c-2.1-0.9-4.1-1.9-6.2-2.8c-1.6-0.7-3.2-1.2-4.9-1.8c-1.6-0.5-3.2-1-4.8-1.4c-1.5-0.4-3-0.7-4.5-1.1
			c-1.3-0.3-2.6-0.6-4-0.9c-1-0.2-2-0.4-2.9-0.5c-1.4-0.2-2.8-0.5-4.1-0.7c-1.2-0.2-2.5-0.4-3.7-0.5c-1.6-0.2-3.2-0.4-4.9-0.6
			c-1-0.1-2-0.2-2.9-0.3c-1.5-0.1-2.9-0.3-4.4-0.4c-1.2-0.1-2.4-0.1-3.6-0.2c-1.1-0.1-2.2-0.1-3.2-0.2c-1.4-0.1-2.7-0.1-4.1-0.2
			c-0.5,0-1-0.1-1.6-0.2c-0.3,0-0.5,0.2-0.8,0.2c-1.3,0-2.6-0.1-3.9-0.2c-0.8,0-1.5,0.1-2.3,0.2c-2.2,0-4.3,0-6.5,0
			c-1.6,0-3.1,0.1-4.7,0.2C98,93.6,96.5,93.9,95,94c-0.8,0.1-1.6,0.1-2.4,0.2c-1.7,0.2-3.5,0.3-5.2,0.5c-0.9,0.1-1.8,0.2-2.6,0.3
			c-1.5,0.2-3,0.3-4.6,0.5c-1,0.1-2,0.3-3,0.5c-1.3,0.3-2.7,0.6-4,0.9c-1,0.2-2.1,0.3-3.1,0.5c-0.9,0.2-1.9,0.5-2.8,0.7
			c-0.8,0.2-1.7,0.3-2.5,0.5c-1,0.3-2,0.6-3,0.8c-0.9,0.2-1.7,0.5-2.6,0.7c-1.1,0.3-2.2,0.7-3.3,1.1c-1.2,0.4-2.5,0.9-3.7,1.4
			c-1.4,0.6-2.9,1.2-4.3,1.9c-2.2,1.1-4.3,2.2-6.5,3.4c-0.8,0.5-1.7,1.2-2.5,1.8C39.2,109.7,39.3,109.4,39.5,109.2z M39,109.9
			c-0.7,0.5-1.3,1-2,1.6C37.6,110.7,38.2,109.9,39,109.9z M58.7,102.5c0.1,0.2,0.2,0.4,0.3,0.6c-0.2,0-0.3,0.1-0.5,0.1
			c-0.9-0.2-1.8,0.2-2.8,0.5c-0.8,0.3-1.7,0.4-2.5,0.7c-0.8,0.3-1.7,0.8-2.5,1.1c-0.6,0.2-1.2,0.3-1.8,0.7c0.2-0.1,0.4-0.1,0.7-0.2
			c0,0.1,0,0.2,0,0.3c-0.4,0.1-0.7,0.3-1.1,0.4c-0.6,0.2-1.2,0.4-1.8,0.6c-0.6,0.2-1.3,0.6-1.9,0.8c-0.1,0-0.2-0.2-0.4-0.3
			c0,0.2,0,0.4,0,0.7c-0.6,0.3-1.2,0.7-1.9,1c0,0-0.1,0-0.1,0.1c-0.3,0.1-0.5-0.5-0.8,0.2c-0.1,0.2-0.3,0-0.5,0.1
			c-0.1,0-0.2,0.2-0.3,0.3c0.2,0.1,0.3,0.2,0.4,0.3c-0.4,0.3-0.8,0.5-1.3,0.8c-0.6,0.4-1.3,0.1-1.9,0.9c0,0-0.1,0.1-0.2,0.1
			c0.2,0,0.4,0,0.6,0.1c-0.4,0.4-0.8,0.7-1.3,1c-0.1,0.1-0.3-0.1-0.4-0.1c-0.2,0-0.3,0.1-0.5,0.3c-0.2,0.2-0.4,0.5-0.6,0.7
			c0.1,0,0.2,0,0.5,0.1c-0.4,0.4-0.6,0.7-0.9,0.9c-0.1,0.1-0.2,0-0.3-0.1c-0.2,0.3-0.5,0.4-0.6,1c-0.1,0.5-0.5,0.7-0.8,1
			c-0.2,0.2-0.5,0.2-0.5,0.9c0,0.7-0.2,0.9-0.7,0.8c0.2-0.5,0.4-0.9,0.6-1.2c1-2.2,2.4-3.6,3.7-4.9c1.1-1.1,2.3-2,3.5-2.8
			c1.7-1.1,3.4-2.2,5.1-3.1c1.5-0.8,3-1.5,4.5-2.1c1.7-0.8,3.4-1.5,5.2-2.1c1.3-0.5,2.7-0.9,4-1.3c1.6-0.5,3.1-1,4.7-1.4
			c1.1-0.3,2.2-0.5,3.3-0.7c1.2-0.3,2.4-0.6,3.6-0.9c1-0.2,2-0.3,3.1-0.5c1-0.2,2-0.5,3.1-0.7c0.7-0.2,1.5-0.3,2.2-0.4
			c1.5-0.2,3-0.5,4.5-0.7c0.6-0.1,1.1-0.1,1.7-0.2c1.4-0.1,2.8-0.2,4.1-0.4c1.1-0.1,2.2-0.2,3.3-0.3c1.5-0.1,3-0.2,4.5-0.4
			c1.8-0.1,3.7-0.3,5.5-0.4c1.8-0.1,3.6-0.1,5.4-0.2c2.2-0.1,4.4-0.1,6.6-0.2c2.3,0,4.6,0,6.9,0c1.2,0,2.4,0.1,3.6,0.2
			c1.9,0.1,3.7,0.2,5.6,0.4c1.5,0.1,3,0.2,4.4,0.4c1.1,0.1,2.2,0.2,3.3,0.4c1.4,0.2,2.7,0.4,4.1,0.5c0.9,0.1,1.8,0.2,2.7,0.4
			c1.6,0.3,3.1,0.6,4.7,0.9c0.9,0.1,1.7,0.2,2.6,0.4c1,0.2,2,0.5,3,0.7c0.9,0.2,1.7,0.4,2.6,0.5c0.7,0.2,1.4,0.3,2.1,0.5
			c0.8,0.2,1.6,0.4,2.4,0.7c1.1,0.3,2.2,0.7,3.3,1c1,0.3,2,0.5,3,0.9c1.4,0.5,2.7,1.1,4.1,1.7c1.2,0.5,2.4,0.9,3.5,1.5
			c1.2,0.6,2.4,1.2,3.6,1.9c1.3,0.8,2.6,1.5,3.9,2.5c1.9,1.4,3.7,3.1,5.4,5.5c0.4,0.7,0.8,1.5,1.2,2.3c0,0.1-0.1,0.2-0.1,0.3
			c-0.1-0.2-0.1-0.5-0.2-0.7c-0.3-0.4-0.5-0.8-0.8-1.2c-0.3-0.4-0.5-0.9-0.8-1.2c-0.2-0.3-0.4-0.6-0.7-0.5c-0.3,0.1-0.6-0.5-1-0.9
			c0.1-0.1,0.2-0.2,0.3-0.2c-0.4-0.4-0.8-0.8-1.2-1.2c0,0,0,0.1,0,0.1c0.1,0.1,0.2,0.2,0.2,0.4c0,0.1,0,0.1,0,0.2
			c-0.4-0.3-0.8-0.7-1.2-1c0,0,0-0.3,0-0.5c-0.2-0.2-0.5-0.5-0.7-0.5c-0.8,0.2-1.4-0.7-2.2-0.8c0-0.2,0.1-0.4,0.2-0.8
			c-0.4-0.1-0.8-0.2-1.2-0.3c-0.3-0.1-0.5-0.1-0.8-0.2c-0.6-0.2-1.3-0.5-1.9-0.7c-0.1,0-0.2-0.1-0.2-0.4c0.3,0,0.6,0,0.8,0
			c0-0.1,0-0.2,0-0.3c-0.6-0.3-1.3-0.6-1.9-0.9c0,0,0,0.1,0,0.1c0.2,0.2,0.4,0.3,0.7,0.5c0,0.1,0,0.1,0,0.2
			c-0.5-0.2-1.1-0.4-1.6-0.6c-0.7-0.3-1.3-0.8-2-1.1c-0.6-0.2-1.2-0.2-1.8-0.5c-0.5-0.2-1-0.6-1.5-0.8c-0.6-0.2-1.1-0.3-1.7-0.4
			c-0.4-0.1-0.9-0.3-1.3-0.4c-1.1-0.4-2.2-0.9-3.3-1.3c-0.6-0.2-1.2-0.1-1.8-0.2c-0.8-0.2-1.6-0.6-2.4-0.8c-0.7-0.2-1.4-0.2-2-0.3
			c-0.5-0.1-1-0.2-1.5-0.3c-0.6-0.2-1.3-0.3-1.9-0.5c-0.8-0.2-1.6-0.5-2.4-0.7c-0.4-0.1-0.9,0-1.3,0c-1.3-0.3-2.7-0.6-4-0.8
			c-0.6-0.1-1.2,0-1.8,0c-0.7-0.1-1.5-0.2-2.2-0.3c-0.1,0-0.3,0-0.4,0c-1.3-0.2-2.6-0.5-4-0.7c-0.2,0-0.5,0.2-0.7,0.1
			c-1.6-0.2-3.2-0.5-4.9-0.7c-0.8-0.1-1.5-0.1-2.3-0.1c-1.3,0-2.5,0.1-3.8,0.1c-0.2,0-0.5-0.2-0.7-0.2c-0.5,0.1-1.1,0.3-1.6,0.3
			c-0.5,0.1-1.1,0.3-1.5-0.1c-1.1-1-2.2-0.2-3.4-0.4c-0.7-0.1-1.3-0.2-2-0.2c-0.1,0-0.3,0.2-0.4,0.4c0,0,0,0.1-0.1,0.1
			c-0.5,0-1.1,0-1.6,0c-0.1,0-0.3,0-0.4-0.1c-0.1,0-0.2,0-0.3-0.1c0.1-0.1,0.2-0.2,0.3-0.3c-0.8,0-1.6,0-2.3,0c-1.2,0-2.4,0-3.5,0
			c-0.9,0-1.7,0.1-2.6,0.2c-0.6,0-1.3,0-1.9,0c-1,0-1.9,0.1-2.9,0.1c-1,0-2-0.1-3,0c-1.8,0.2-3.7,0.5-5.5,0.6
			c0.1,0.1,0.2,0.1,0.2,0.2c0,0.1,0,0.1,0,0.2c-0.5,0.1-1,0.3-1.4,0.3c-1.1-0.2-2.3-0.4-3.4-0.1c-0.5,0.1-0.9,0-1.4,0
			c-0.6,0-1.3,0-1.9,0c0,0.1,0,0.1,0,0.2c0.2,0,0.4,0,0.6,0c0,0.1,0,0.2,0,0.2c-0.1,0-0.2,0-0.3,0.1c-0.2,0.1-0.4-0.3-0.5,0.4
			c0,0.1-0.4,0-0.6-0.1c-0.2,0-0.4-0.1-0.6-0.2c-0.2-0.1-0.4-0.3-0.7-0.2c-1.1,0.2-2.3,0.3-3.4,0.4c-0.5,0.1-1,0.1-1.5,0.3
			c0.1,0,0.3,0.1,0.4,0.1c0,0,0,0.1,0,0.1c-0.3,0.2-0.7,0.5-1,0.5c-0.4,0-0.7-0.1-1.1-0.3c0.3-0.1,0.5-0.2,0.8-0.2
			c0-0.1,0-0.1,0-0.2c-0.5,0.2-1.1,0.3-1.6,0.5c-0.4,0.1-0.8,0.3-1.2,0.3c-1.1,0.1-2.3,0.2-3.4,0.4c-1.1,0.2-2.2,0.7-3.4,1
			c-0.7,0.2-1.5,0-2.2,0.2c-0.7,0.2-1.4-0.1-2,0.7c0,0,0,0,0,0c-0.8,0.2-1.5,0.4-2.3,0.5c-0.3,0.1-0.7,0.2-1,0.3
			C59.6,102.4,59.2,102.4,58.7,102.5z M160,100.7c0,0.1,0,0.2,0,0.2c-0.6-0.1-1.1-0.3-1.7-0.4c0-0.1,0-0.2,0-0.3
			C158.9,100.5,159.4,100.6,160,100.7z M153.8,99.3c0,0.1,0,0.2,0,0.3c-0.6-0.1-1.2-0.2-1.8-0.3c0-0.1,0-0.2,0-0.4
			C152.6,99,153.2,99.2,153.8,99.3z M146.2,98.4c-0.3-0.1-0.6-0.2-0.9-0.5c0.7,0.1,1.3,0.2,2,0.3c0,0.1,0,0.2,0,0.3
			C146.9,98.4,146.5,98.5,146.2,98.4z M146.5,100c-0.3,0-0.6,0-1,0C145.9,99.3,146.3,99.3,146.5,100z M138.1,97.3c0-0.1,0-0.3,0-0.4
			c0.7,0.1,1.4,0.2,2.1,0.3c0,0.1,0,0.2,0,0.2C139.4,97.4,138.8,97.4,138.1,97.3z M139.5,99.2c-0.4,0-0.7-0.1-1.1-0.1
			C138.8,98.4,139.1,98.4,139.5,99.2z M133.4,127.3c0.1,0.3,0.1,0.7,0.2,1c0,0-0.1,0-0.1,0.1c0.2,0.3,0.3,0.5,0.6,1
			c-2.4,0-4.7,0-7,0c-2.3,0-4.7,0-7,0c0.1-0.6,0.1-1.1,0.2-1.6c-0.3,0-0.6,0.1-0.8,0.1c-0.1,0-0.3,0-0.4,0.1c0,0.3,0.1,0.5,0.1,0.8
			c0,0.1,0,0.1,0.1,0.4c-0.4,0.1-0.7,0.2-1,0.2c-1.2,0-2.5,0-3.7,0c-2.7,0-5.5,0.1-8.2,0.2c-0.1,0-0.3,0-0.4-0.1
			c0.1,0,0.2-0.1,0.5-0.1c-0.2-0.1-0.2-0.1-0.4-0.2c0.1-0.2,0.1-0.3,0.1-0.5c0-0.3,0-0.5,0-0.8c-0.1,0-0.3,0-0.4,0
			c-0.3,0-0.6,0-0.9,0c0,0.4,0,0.9,0,1.4c0.1,0,0.2,0.1,0.3,0.1c0,0.1,0,0.1,0,0.2c-4.8,0.1-9.5,0.2-14.3,0.3
			c0.3-0.7,0.6-1.3,0.5-2.1c-0.4,0.2-0.8,0.5-1.3,0.7c0,0.3,0,0.8,0,1.2c-0.5,0.1-1.1,0.2-1.6,0.2c-0.1,0-0.2-0.2-0.3-0.2
			c0.1-0.2,0.1-0.4,0.2-0.6c0.1-0.4,0.2-0.8,0.2-1.1c0-1.7,0.2-2,1-2c2.2,0,4.3-0.1,6.5-0.2c1.5,0,3.1-0.1,4.6-0.2c1,0,2-0.2,3-0.2
			c0.6,0,1.3,0.2,1.9,0.4c0.2,0.1,0.4,0.2,0.5-0.3c0-0.1,0.1-0.1,0.2-0.1c0.9-0.1,1.8-0.2,2.7-0.2c3.6,0,7.1,0,10.7,0
			c1,0,1.9,0,2.9,0c0.4,0,0.8,0.1,1.2,0.1c0.8,0,1.6-0.1,2.5-0.1c3.2,0,6.5,0.1,9.7,0.2c0.4,0,0.9,0.6,0.8,1.4
			c-0.1,1.1,0.3,1.8,0.5,2.6c-0.7,0-1.4,0-2.1,0c0-0.5,0-0.9,0-1.2C134.3,128,133.9,127.7,133.4,127.3z M103.6,131c-0.7,0-1.3,0-2,0
			c0,0,0-0.1,0-0.1C102.3,130.9,102.9,130.9,103.6,131C103.6,131,103.6,131,103.6,131z M96.9,131.3c-1.3,0-2.6,0-3.9,0
			C94.3,130.7,95.6,131.1,96.9,131.3z M100.4,124.7c-1,0-2,0-2.9,0c-0.1,0-0.3-0.1-0.4,0c-0.4,0.3-0.6,0-0.7-0.9
			c0,0.8-0.2,0.9-0.5,0.9c-0.9,0-1.8,0-2.8,0c-0.2,0-0.4-0.2-0.5-0.4c-0.3,0.2-0.6,0.5-0.9,0.5c-0.9,0.1-1.7,0.1-2.6,0
			c-0.3,0-0.7,0.1-0.6-1c0,0,0.1-0.1,0.1-0.1c1.1-0.1,2.2-0.1,3.3-0.2c0.9,0,1.8,0,2.6,0c2,0,4-0.1,6-0.2c1.2,0,2.3-0.1,3.5-0.2
			c0.1,0,0.2,0,0.4,0c0,0.4,0,0.7,0,1.2c-0.3,0-0.5,0-0.8,0c-0.4,0-0.9,0.1-1.3,0.2c-0.2,0-0.5,0-0.7-0.2
			C101.1,124.1,100.8,124.7,100.4,124.7z M101,125C101,125.1,101,125.1,101,125c-0.7,0.1-1.4,0.1-2.2,0.1c0,0,0-0.1,0-0.1
			C99.5,125,100.2,125,101,125z M105.8,124.3c0-0.3,0-0.6,0-1.1c3.2,0.3,6.5-0.5,9.8,0.2c0.1-0.1,0.2-0.3,0.3-0.3c1.2,0,2.5,0,3.7,0
			c1,0,2.1,0,3.1,0c0.2,0,0.4-0.1,0.4,0.5c0,0.7-0.2,0.7-0.4,0.7c-0.7,0-1.4,0-2.2,0c-0.2,0-0.5,0-0.5-0.5c-0.2,0.2-0.4,0.5-0.6,0.5
			c-0.9,0.1-1.8,0.1-2.7,0c-0.4,0-0.8-0.2-1.2-0.3c0,0-0.1,0-0.1,0c-1.8,0.8-3.7,0.1-5.5,0.3c-0.1,0-0.2-0.2-0.4-0.3
			c-0.1,0.1-0.2,0.3-0.4,0.3C108,124.3,106.9,124.3,105.8,124.3z M108.5,124.9c-0.7,0-1.4,0-2.1,0c0,0,0,0,0-0.1
			C107.1,124.9,107.8,124.9,108.5,124.9C108.5,124.9,108.5,124.9,108.5,124.9z M124.4,123.2c1.3,0,2.7,0,4,0c0.1,0.8,0,1.2-0.4,1.1
			c-0.5-0.1-1.1-0.1-1.6-0.2c-0.5,0-1,0-1.5,0C124.4,124.2,124.3,124.1,124.4,123.2z M128.6,123.6c0.1-0.1,0.2-0.4,0.4-0.4
			c0.9,0,1.8,0,2.7,0c0.2,0,0.4,0.1,0.6,0.2c-0.1,0.3-0.1,0.5-0.1,0.8c-1,0-2.1,0-3.1,0C128.8,124.3,128.7,123.8,128.6,123.6z
			 M132.2,123.8c0-0.1,0-0.3,0-0.4c0.5,0,0.9-0.1,1.4-0.1c0.7,0,1.5,0.1,2.2,0.2c0.1,0,0.4,0.2,0.4,0.4c0,0.4-0.1,0.6-0.3,0.6
			c-1.1-0.1-2.2-0.1-3.2-0.2C132.5,124.2,132.4,123.9,132.2,123.8z M136,122.7c0-0.1,0-0.1,0-0.2c0.2,0,0.3,0,0.5-0.1
			c-0.6,0.1-0.7-0.6-0.5-1.6c-0.1,0-0.1,0-0.2,0.1c0,0.3-0.1,0.5-0.1,0.8c0,0.3,0,0.6-0.1,1c-3.7-0.1-7.4-0.2-11.1-0.3
			c0-0.1,0-0.1,0-0.2c1,0,2,0,3,0c0-0.1,0-0.1,0-0.2c-0.9,0-1.8,0-2.7,0c-0.5,0-0.6-0.1-0.4-1.1c0-0.1,0-0.2,0-0.3
			c0-0.3,0-0.7,0-1.1c-0.5,0-0.9,0-1.4,0c-0.1,1-0.1,1.9-0.2,3c-5.7,0-11.4,0-17.2,0c0.1-0.7,0.3-1.5,0.4-2.3c0,0-0.1-0.3-0.2-0.5
			c0,0.1-0.1,0.2-0.1,0.2c0,0.1-0.1,0.2-0.1,0.2c0-0.1-0.1-0.1-0.1-0.2c-0.1-0.6-0.1-0.5-0.3-0.3c-0.1,0.1-0.2,0-0.3,0
			c0-0.2,0-0.4,0.1-0.6c-0.1-0.1-0.2-0.3-0.3-0.5c-0.1,0.3-0.2,0.8-0.3,0.9c-0.1,0.2-0.4,0-0.5,0c-0.3,0-0.6-0.1-0.9,0
			c0,0-0.1,0.4-0.1,0.4c0.3,0.4-0.1,0.4-0.1,0.5c-0.3-0.2-0.3,0.5-0.3,0.6c0.1,0.3,0,0.9,0.4,0.9c0.4-0.1,0.7,0,1.1,0.1
			c0.1,0,0.2,0.3,0.3,0.4c0,0.1,0,0.1-0.1,0.2c-0.1,0-0.1,0-0.2,0c-1.8,0.1-3.6,0.1-5.5,0.2c-0.6,0-1.1,0.2-1.7,0.2
			c-1.8,0-3.6,0-5.4,0c-0.9,0-1.9,0.2-2.9,0.3c0-0.5,0.1-0.8,0.1-1.2c0-0.4-0.5-1.5-0.8-1.7c-0.4-0.2-0.7,0.1-0.8,0.9
			c0.4,0.5,0.8,1,1.2,1.6c-0.2,0.2-0.4,0.5-0.6,0.5c-0.8,0.1-1.5,0-2.3,0c0.1-2.5,0.2-5.1,0.3-7.7c0.4,0.3,0.7,0.4,1.1,0.1
			c0.4-0.4,0.9-0.4,1.4-0.4c0.4,0,0.9,0.1,1.3,0.1c0,0,0.1,0,0.1,0c0.3-1,0.5-0.2,0.8,0.1c0.3,0.3,0.3,0.4,0.4-0.3
			c0.1-1.2,0.2-2.4,0.3-3.6c0.1-2.4,0.2-4.9,0.3-7.3c0-1.2,0.1-2.3,0.1-3.5c0.1-1.4,0.1-1.5,0.8-1.7c-0.2,0-0.4,0-0.6-0.1
			c0.3-0.8,0.5-0.9,1.2-0.2c-0.1,0.1-0.2,0.2-0.3,0.3c0.7,0.8,0.7,1.1,0.7,2.8c-0.1,1.1,0,2.3,0,3.4c-0.1,1.5,0.2,3-0.1,4.5
			c0,0.2,0.1,0.5,0.1,0.7c0,1.4,0.1,2.9,0,4.3c-0.1,1.3,0,2.5-0.1,3.8c0,0.9-0.1,1.9-0.1,2.8c0,0.6,0.1,0.7,0.4,0.6
			c0.3-0.2,0.7,0.1,1,0.1c0.1,0,0.3,0,0.3,0c0.1-0.8,0.1-1.4,0.2-2.1c0.4,0.6,0.4,1.6,0.2,2c0.3,0,0.5,0,0.8,0
			c0.1,0,0.2-0.1,0.2-0.2c0.1-0.7,0.2-1.4,0.3-2.3c-0.1,0.2-0.2,0.3-0.2,0.3c-0.1-0.1-0.3-0.3-0.4-0.4c0.9-0.2,0.2-1.6,0.4-2.4
			c0.2,0,0.4-0.1,0.6-0.1c-0.1,0.8,0,0.9,1.2,1.1c0,0.3-0.1,0.6-0.1,1c0.2-0.1,0.3-0.2,0.6-0.4c-0.1,0.4-0.2,0.6-0.2,0.6
			c0,0.5,0,0.8,0,1.1c-0.1,0.4-0.7,0.4-1.1,0c0,0.3-0.1,0.5,0,0.6c0.1,0.1,0.2,0.1,0.3,0.2c0.2,0,0.4,0,0.7,0
			c-0.2,0.2-0.4,0.3-0.6,0.5c0.6,0.6,1.2,0.3,1.9,0.4c-0.1-0.9-0.5-1.4-0.9-1.1c0.1-0.4,0.2-0.7,0.3-1c0,0-0.1,0-0.1,0.1
			c0-0.5-0.1-1-0.1-1.4c0-1.1,0.1-2.2,0.1-3.3c0.1-4.2,0.2-8.3,0.3-12.5c0-1.1,0.1-2.3,0.2-3.4c0-0.5,0.2-0.8,0.4-0.7
			c0.1,0,0.1,0,0.2,0c1.1,0,1.2,0.1,1.2,2.4c0.4-0.3,0.4-0.4,0.3-1.5c0.4,0,0.8-0.1,1.2-0.1c0,0,0.1,0.1,0.1,0.2
			c0.1,1.1,0.6,1,1,1.4c0.1,0.1,0.2,0.2,0.3,0.4c0,0.1,0,0.1-0.1,0.2c-0.1-0.1-0.2-0.3-0.3-0.4c0,0.1-0.1,0.1-0.1,0.2
			c0.1,0.3,0.2,0.6,0.3,0.9c0.1,0.3,0.2,0.5,0.3,0.8c0,0-0.1,0.1-0.1,0.1c-0.1-0.2-0.1-0.3-0.2-0.5c-0.1,0.1-0.1,0.2-0.2,0.4
			c0.3,0.3,0.4,0.5,0.7,0.8c0-0.7,0-1.2,0-1.8c0.1,1.1,0.4,1.3,0.9,1.1c-0.1-0.3-0.2-0.5-0.3-0.6c0.2-0.5,0.4-1.1,0.1-1.8
			c0.2-0.3,0.6-0.3,0.5-1.1c0-0.1,0.2-0.3,0.4-0.3c0.3,0,0.6,0.1,0.9,0.2c0.1,0.5,0.1,1,0.2,1.5c0,0,0.1,0,0.1-0.1
			c0-0.4,0.1-0.9,0.1-1.3c0.1-1.1,0.4-1.3,1.2-1.2c0.4,0.1,0.6,0.5,0.7,1.5c0,0.3,0.1,0.5,0.2,0.8c0.1-0.3,0.2-0.5,0.2-0.8
			c0-0.8,0.3-1.1,0.8-1c0.3,0,0.5,0.1,0.5,0.9c0,0.2,0.2,0.4,0.4,0.6c-0.2,0.9,0.1,1.5,0.3,2.3c0.4,1.4,0.9,0.1,1.3,0.6
			c0-0.2,0-0.4,0.1-0.6c0.1,0,0.2,0.1,0.2,0.1c0-0.1,0-0.1,0-0.1c-0.2-0.5,0-1.2-0.1-1.7c-0.2-1,0.6-1.2,0.3-2.3
			c0.5,0.1,0.9,0.2,1.4,0.3c0,0.5,0,1,0,1.4c0,0,0.1,0,0.1,0c0-0.3,0.1-0.5,0.1-0.8c0-0.5,0-1,0.3-1.3c0,0,0.1,0,0.1-0.1
			c0.4-1.2,0.5-1.3,1.2-0.5c0,0.2-0.1,0.3-0.1,0.4c0.1,0.4,0.3,0.7,0.4,1.1c0.1,0.4,0.1,0.8,0.1,1.3c0.1-0.6,0.2-1.4,0.4-1.6
			c0.5-0.6,1.1,0.1,1.4,1.3c0.1,0,0.2-0.1,0.3-0.1c-0.1,0.4-0.2,0.6-0.3,0.9c0.1,0.1,0.2,0.1,0.3,0.2c0.1-0.3,0.1-0.6,0.2-0.9
			c0,0,0.1,0,0.1,0.1c0,0.1,0,0.2,0,0.3c0.1,0,0.1,0,0.2,0c0,0.1,0.1,0.1,0.1,0.2c0.1,0.1,0.2,0.1,0.4,0.2c0.2-0.2,0.3-0.5,0.5-0.7
			c0.1-0.1,0.2-0.1,0.3,0c0.4-0.1,0.2-1.8,0.9-1.2c0.4,0.3,1,0,0.9,1.6c0.2-0.8,0.1-1.8,0.6-2c0.9-0.4,1.4-0.4,1.5,1.8
			c0.1,3,0.2,6.1,0.3,9.1c0.1,2.2,0.2,4.4,0.3,6.6c0,0.6,0.1,1.2,0.1,1.9c0.9-1.3,1.8-2.6,2.9-2.7c0.1,0.2,0.1,0.4,0.2,0.7
			c0,0,0,0,0,0c0.1,1.1,0.1,2.3,0.2,3.4c0,0,0.1,0,0.1,0c-0.1,0.1-0.2,0.2-0.3,0.4c0,0,0.1,0.1,0.1,0.1c-0.1,0.3-0.2,0.7-0.4,1.2
			c0.2-0.3,0.4-0.4,0.5-0.5c0,0.3,0.1,0.6,0.1,1.1c0.8,0,1.8,0,2.9,0c0-0.5,0-1.2,0-1.8c0-0.8-0.2-1.4-0.7-1.6c0-0.2,0-0.5,0-0.7
			c-0.8,0.3-1.3,1.2-1.7,2.7c0-0.2-0.1-0.4,0-0.6c0.1-0.4,0.1-0.8,0-1.2c0-0.3,0.2-0.9,0.3-1.1c0.4-0.5,0.8-0.8,1.2-1.2
			c0.1,0.5,0.1,0.8,0.2,1.2c0-1.6,0-3.2,0-4.8c-0.1-4-0.2-7.9-0.3-11.9c0-1.6,0.7-2.4,1.4-1.8c0.5,0.4,0.4,1.3,0.4,1.9
			c0.2,2.9,0.2,5.9,0.4,8.8c0.1,1.6,0.2,3.2,0.3,4.7c0,0.1,0.1,0.2,0.2,0.3c0-0.2,0-0.3,0-0.3c0.4,0,0.8-0.1,1.2-0.1
			c0.2,0,0.4,0,0.7,0c0.1,0,0.3-0.1,0.5-0.1c0.8,0.3,1.7,0.6,2.7,0.9c0.1,2.4,0.2,5.1,0.4,7.7C137.5,122.7,136.7,122.7,136,122.7z
			 M95.1,115C95.1,115,95.1,115,95.1,115c0.2-0.1,0.3-0.1,0.4-0.2c0.1-0.3,0.1-0.7,0.1-1.1c0.1,0,0.1,0,0.2,0
			c-0.1,1.6-0.2,3.2-0.2,4.7c-0.1-0.1-0.3-0.3-0.4-0.5c-0.1-0.2-0.4-0.2-0.2-0.8c0,0-0.1-0.2-0.1-0.2c-0.3,0-0.6,0.1-0.9,0.1
			c0-0.2,0-0.4,0-0.6c0,0.1-0.1,0.1-0.1,0.2c-0.1-0.2-0.2-0.4-0.4-0.7c0.3-0.1,0.5-0.1,0.6-0.2c0.2-0.1,0.4-0.3,0.6-0.4
			C94.7,115.2,94.9,115.1,95.1,115z M95,113.1c0.2-0.6,0.3-1,0.4-1.4c0.8,0.5,0.9,1.5,0.6,2.8c-0.1-0.4-0.1-0.9-0.2-1.4
			C95.6,113.1,95.4,113.1,95,113.1z M93.8,117.1c0.1,0.3,0.3,0.6,0.4,0.9c0.1,0.2,0.2,0.5,0.3,0.7c-0.5,0.8-0.9-0.2-1.3-0.5
			c0-0.4,0-0.8,0-1.3c0.1,0.2,0.2,0.3,0.3,0.4C93.6,117.3,93.7,117.2,93.8,117.1z M98.8,96.6c0-0.1,0-0.3,0-0.4c0.8,0,1.5,0,2.3,0
			c0,0.1,0,0.1,0,0.2C100.3,96.4,99.5,96.5,98.8,96.6z M100.6,98c0,0.1,0,0.2,0,0.3c-0.4,0-0.8-0.1-1.2-0.1
			C99.7,97.6,100.2,97.5,100.6,98z M106.8,96.2c0-0.1,0-0.2,0-0.3c0.8,0,1.5,0,2.3,0c0,0.1,0,0.2,0,0.3
			C108.3,96.2,107.6,96.2,106.8,96.2z M108.5,98c-0.4,0-0.7,0-1.1,0C107.6,97.3,107.8,97.3,108.5,98z M111.2,100.6
			c0,0.2,0.1,0.4,0.1,0.6c0.1-0.1,0.1-0.1,0.2-0.2c0.1-0.2,0.3-0.5,0.4-0.5c0.2,0.1,0.4,0.4,0.4,0.6c0,0.6-0.3,0.7-0.6,0.5
			c-0.1,0.1-0.2,0.5-0.4,0.2C111.1,101.5,111.1,101.1,111.2,100.6z M123,98.1c0.5-0.8,0.9-0.8,1.4,0C123.9,98.1,123.5,98.1,123,98.1
			z M128.7,114c0,0,0.1,0,0.1,0c0-0.2,0-0.5,0-0.7c0,0,0.1,0,0.1,0c0,0.3,0.1,0.7,0.1,0.9c0.2,0.3,0.4,0.7,0.7,1.1
			c-0.5,0.3-0.9,0.5-1.4,0.7c-0.1-1.1-0.1-2.2-0.1-3.3c0-0.4,0.1-1.1,0.2-1.2c0.6-0.2,0.7-0.1,0.8,0.9c-0.3,0.2-0.7-0.3-0.7,0.7
			C128.6,113.5,128.7,113.7,128.7,114z M130.5,96.3c0.7,0.1,1.5,0.2,2.2,0.2C131.9,96.8,131.2,97,130.5,96.3z M132.1,98.4
			c-0.4,0-0.7,0-1.1,0C131.3,97.9,131.7,97.6,132.1,98.4z M130.5,114.9c0.1,1,0.1,1.1-0.5,0.9c0,0-0.1,0.1-0.1,0.1
			c-0.1,0.1-0.3,0.1-0.4,0.2c0-0.1,0-0.3-0.1-0.4C129.9,115.4,130.2,115.2,130.5,114.9z M85.4,99.6c-0.5,0.1-0.8,0.1-1.2,0.2
			C84.4,99,84.8,98.9,85.4,99.6z M78.8,117.8c0,0-0.1,0.2-0.2,0.4c-0.1,0.2-0.1,0.4-0.2,0.6c0,0-0.1-0.1-0.1-0.1
			c0-0.8,0.1-1.5,0.1-2.3c0,0,0,0,0.1,0c0,0.3,0,0.5,0,0.9c0.2-0.2,0.4-0.4,0.7-0.6C79.2,117.3,79.4,118.1,78.8,117.8z M77.1,100.3
			c0.2-0.5,0.8-0.4,1,0.1c-0.3,0.1-0.6,0.2-0.9,0.3l0,0C77.2,100.6,77.1,100.4,77.1,100.3z M64.1,101.6c-0.2,0-0.4-0.1-0.7-0.2
			c0.6-0.1,1.2-0.3,1.8-0.4c0,0.1,0,0.2,0,0.3C64.9,101.4,64.5,101.6,64.1,101.6z M65.1,103.1c-0.3,0-0.6,0-0.9,0
			C64.5,102.5,64.9,102.4,65.1,103.1z M58.2,135.1c0.2,0,0.4-0.2,0.7-0.2c0.5-0.1,1.1,0.1,1.5-0.3c0.8-0.7,1.7-1.3,1.8-3.6
			c0-1.4,0.2-2.8,0.3-4.2c-0.2,0-0.4-0.1-0.6-0.1c0.1-1.2,0.2-2.3,0.3-3.4c0.1-0.5,0.1-1.1,0.2-1.6c0.1-0.3,0.2-0.4,0.4-0.8
			c0.1-0.3,0.2-0.9,0.2-1.5c0.1-0.8,0.1-1.5,0.2-2.3c0.2-2.2,0.4-4.4,0.5-6.5c0.1-1.3,0.2-2.5,0.3-3.8c0.1-1,0.1-1.9,0.3-2.9
			c0-0.3,0.3-0.6,0.4-0.6c0.6-0.1,1,0.2,1.1,1.5c0.1,1-0.1,2-0.1,3c0,0.5,0.1,0.9,0,1.4c0,0.5,0.1,0.9-0.2,1.3
			c-0.1,0.2-0.1,0.8-0.1,1.2c0,1.1,0,2.2-0.1,3.2c0,0.4-0.1,0.7-0.2,1.2c0.2,0.7,0.1,2.3-0.2,2.8c0.2,0.8,0,2.9-0.2,3.1
			c0,1.1,0,2.1,0,3c-0.2,0.1-0.3,0.2-0.3,0.2c0,0.4,0.1,0.7,0.1,1c-0.1,0.8-0.2,1.6-0.3,2.4c0,0.1,0.1,0.3,0.1,0.4
			c0,0.9,0,1.8-0.1,2.8c0,0.2-0.2,0.4-0.3,0.5c0.2,0.2,0.4,0.5,0.6,0.8c0,0.1,0,0.2-0.1,0.3c-0.4-0.1-0.7-0.1-1.1-0.2
			c0,0.3-0.1,0.5-0.1,0.8c1.3-0.2,2.6-0.3,3.8-0.4c0,0,0,0,0,0c0.2-1,0.9-0.4,1.1-1.4c0.2-0.8,0.3-1.7,0.4-2.6
			c0.2-1.8,0.3-3.6,0.4-5.4c0.1-1.1,0.1-2.3,0.1-3.4c-1,0.8-1.2,1.9-1.6,3.9c-0.1,0.7-0.3,1-0.6,0.9c-0.3,0-0.6,0-0.9,0
			c-0.3,0-0.6,0.1-0.9,0.2c0.2-2.3,0.1-4.6,0.8-6.8c0,0.5,0.1,0.7,0.1,0.9c0.6-0.1,1.2-0.3,1.8-0.4c0.2-0.4,0.2,1,0.4-0.1
			c0,0,0.1,0,0.2,0.1c0,0.1,0.1,0.3,0,0.4c0,0.1-0.1,0.3-0.1,0.5c0.3-0.3,0.6-0.5,0.9-0.7c0.1-0.6,0.2-1.3,0.2-1.9
			c-0.1-0.9,0.2-1.5,0.2-2.4c0-0.9,0.1-1.8,0.2-2.7c0.1-2,0.3-3.9,0.4-5.9c0.1-1.4,0.2-2.7,0.3-4.1c0-0.4,0.1-0.9,0.2-1.2
			c0.1-0.5,0.6-0.5,0.9,0.1c-0.1,0.1-0.3,0.1-0.4,0.2c0,0,0,0.1,0,0.1c0.6,0.1,0.9,0.9,0.9,2.3c-0.1,1.1-0.1,2.2-0.1,3.3
			c0,1.1-0.1,2.2-0.2,3.4c-0.1,1.2-0.1,2.3-0.2,3.5c0,0.4-0.1,0.9-0.1,1.3c-0.1,1.7-0.1,3.3-0.2,5c0,0.2-0.1,0.5-0.2,0.7
			c0,0.6,0.1,1.3,0,2c-0.1,1-0.1,2.1-0.1,3.1c0,0.6-0.1,1.1-0.2,1.8c0.2,0.5,0.1,3.1-0.2,3.5c0,0,0,0.1,0,0.1
			c0.2,0.2,0.3,0.4,0.5,0.6c-0.2,0.1-0.4,0.2-0.6,0.3c-0.1,0-0.3,0-0.5-0.1c0,0.2,0,0.5,0,0.7c1-0.1,2-0.2,3-0.3c0.3,0,0.6,0,0.9,0
			c0.3,0,0.6,0.1,0.5-0.8c0.7,0,1.1-0.7,1.2-2.7c0.1-1.7,0.2-3.5,0.3-5.3c-0.7,0.1-1.5,0-2.2,0.3c-0.5,0.2-0.9,0-1.3-0.7
			c-0.1-0.1-0.1-0.5-0.1-0.8c0,0.3-0.1,0.6-0.1,0.9c-0.1,0.4-0.2,0.7-0.3,1c-0.1,0-0.1-0.1-0.2-0.1c0-1.2,0-2.3,0-3.6
			c0.2,0.7,0.4,1.2,0.6,1.8c-0.2-1.5-0.7-2.9-0.3-4.6c0,0,0.1,0.1,0.2,0.2c-0.1-0.3-0.2-0.5-0.3-0.8c0.1,0,0.2-0.1,0.2-0.1
			c0.1,0.1,0.2,0.3,0.3,0.3c0.2,0.1,0.4,0.7,0.4-0.3c0-0.5,0.2-0.6,0.4-0.6c0.3,0,0.6-0.2,0.9-0.3c0.1,0,0.2,0.1,0.2,0.1
			c0.3,0,0.6,0.1,0.8-0.1c0.3-0.4,0.6-0.5,0.8,0.4c0-0.6,0-1,0-1.6c0.1,0.3,0.1,0.5,0.1,0.6c0,0,0.1,0,0.1,0
			c0.2-2.4,0.3-4.8,0.5-7.2c0.2-2.5,0.3-5,0.5-7.6c0-0.4,0.2-0.7,0.3-1.1c0.4,0.1,0.8,0.1,1.1,0.4c0.2,0.2,0.3,0.9,0.3,1.4
			c0,1.1-0.1,2.1-0.1,3.2c0,0.4,0,0.8,0,1.2c-0.1,1.4-0.2,2.8-0.2,4.2c0,0.7,0.1,1.3,0.1,2c0,1.3-0.1,2.5-0.2,3.8c0,1,0,1.9-0.1,2.9
			c0,0.2-0.1,0.5-0.2,0.8c0.2,0.8,0.1,3-0.1,3.1c0,0.9,0.1,1.8,0,2.6c-0.2,1.3-0.1,2.6,0,3.9c0,0.8-0.1,0.9-0.4,0.8
			c0.2,0.3,0.4,0.5,0.6,0.9c-0.4,0.4-0.9-0.3-1,0.9c0.7-0.1,1.4-0.2,2.1-0.2c0.7,0,1.3,0,2,0c0.3,0,0.6,0.1,0.7-0.8c0.7,0,1-1,1-2.4
			c0.1-1.9,0.2-3.8,0.3-5.7c-0.2,0-0.3-0.1-0.4-0.1c-0.2-2.1-0.5-4.1-1.7-4.6c-1.1-0.5-2,0.6-2.7,2.4c0.1-0.7,0.1-1.3,0.2-2
			c0-0.1,0-0.3,0.1-0.3c0.6-0.4,1.1-1.1,1.7-1.2c0.8-0.2,1.5,0.4,2.2,1.1c0-0.1,0.1-0.1,0.1-0.2c-0.1-0.3-0.2-0.6-0.3-0.7
			c-0.4-0.4-0.7-0.6-1.1-1c-0.1-0.1-0.2-0.3-0.2-0.5c0-0.1,0.1-0.1,0.1-0.2c0.1,0.1,0.3,0.4,0.4,0.4c0.1,0,0.4,0,0.4-0.2
			c0.2-1,0.7-1.1,1.1-1.3c0.4-0.3,0.6-0.9,0.6-1.4c0.1-1.8,0.2-3.7,0.3-5.5c0.1-2.1,0.2-4.3,0.3-6.4c0-0.2,0-0.5,0-0.7
			c0-1.2,0.4-1.7,1-1.4c0.7,0.4,0.8,0.6,0.8,2.1c0,0.9-0.2,1.9-0.1,2.7c0.2,1.4-0.1,2.6-0.1,3.9c0,1.2,0,2.5,0,3.7
			c0,1.3-0.1,2.5-0.2,3.8c0,0.7,0,1.5-0.1,2.2c0,0.5,0.2,1.1-0.2,1.4c0,0.1,0,0.2,0,0.3c0.1,1.1,0.2,2.1,0,3.2c-0.1,0.5,0,1.1,0,1.7
			c0,1.5-0.1,2.9-0.2,4.4c0,0.3,0,0.6,0,1c-0.1,0.1-0.3,0.2-0.3,0.3c0.2,0.3,0.4,0.6,0.6,1c0,0,0,0.1-0.1,0.1
			c-0.2,0-0.4-0.1-0.6-0.1c0,0.3,0,0.6,0,0.9c0.1-0.1,0.2-0.1,0.4-0.1c1-0.1,2-0.3,3-0.4c1-0.1,2.1-0.2,3.1-0.2c1.9,0,3.9,0,5.8,0
			c0-0.4,0-0.6,0-0.9c0.6,0,1.1,0,1.6,0c0.7,0,1.3-0.1,2-0.1c0.2,0,0.3,0.3,0.5,0.4c0.1,0.1,0.2,0.3,0.4,0.3c1.1,0,2.1,0,3.2,0
			c2.4,0,4.8-0.1,7.2-0.2c0.1,0,0.1,0,0.2,0c0-0.1,0-0.2,0-0.2c-0.7,0-1.4,0-2.2,0c0-0.1,0-0.3,0-0.4c1.6,0,3.2,0,4.8,0
			c-0.1,0.2-0.1,0.4-0.2,0.6c4.1,0,8.1,0,12.1,0c0-0.1,0-0.1,0-0.2c-0.8,0-1.5,0-2.3,0c0-0.1,0-0.3,0-0.4c0.9-0.2,1.9,0,2.8,0.2
			c0.3,0.2,0.6,0.5,0.8,0.5c1.1,0.1,2.1,0,3.2,0c0.5,0,1-0.2,1.6-0.2c1.2,0.1,2.3,0.2,3.5,0.3c0,0,0.1-0.1,0.1-0.2
			c-0.1-0.1-0.2-0.1-0.3-0.2c0,0,0-0.1,0-0.1c0.1,0,0.3-0.1,0.3,0c0.2,0.8,0.7,0.6,1,0.7c0.6,0.2,1.2,0.2,1.8,0.3
			c0.1,0,0.2-0.1,0.3-0.4c-0.3-0.2-0.6-0.3-0.9-0.5c0-0.7,0.4-0.7,0.7-0.8c-0.2-0.1-0.4-0.2-0.5-0.3c0-0.8-0.1-1.6-0.1-2.4
			c-0.1-1.9-0.2-3.8-0.2-5.6c-0.1-1.6-0.1-3.2-0.1-4.8c-0.1-1.8-0.1-3.6-0.2-5.5c0-1.5-0.1-2.9-0.1-4.4c-0.1-1.7-0.1-3.5-0.2-5.2
			c0-0.2,0-0.5,0-0.7c0.1-1.7,0.9-2.5,1.6-1.5c0.2,0.3,0.2,1.2,0.3,1.9c0.2,2.5,0.3,5,0.4,7.5c0.1,1.5,0.2,2.9,0.3,4.4
			c0,0.4,0.2,0.8,0.3,1.2c0.1,0.1,0.1,0.4,0.2,0.4c0.7-0.2,1.4,0.2,2.1,0.2c0.6,0.1,1.1,0.3,1.7,0.6c0,0,0.1-0.1,0.1-0.1
			c0.3-0.3,0.4-0.2,0.4,0.5c0.1,1.8,0.2,3.5,0.3,5.5c-0.4-1.6-1-2.7-1.8-3.2c-1.3-0.8-2.5,0.8-2.6,3.4c0,0.4-0.2,0.7-0.3,1
			c-0.1,0.4-0.1,0.8-0.1,1.2c0.1,1.4,0.1,2.9,0.3,4.3c0.1,0.8,0.2,1.5,0.4,2.2c0,0.1,0.1,0.3,0.2,0.3c0.2,0.1,0.6-0.2,0.5,0.7
			c0,0,0.2,0.2,0.4,0.2c0.8,0,1.6,0,2.5,0c0.5,0,1.1,0,1.6,0c0.1,0,0.2,0.1,0.3,0.2c0-0.3,0-0.5,0-0.8c-0.3,0.1-0.7,0.1-1,0.2
			c0-0.1,0-0.1-0.1-0.2c0.2-0.4,0.5-0.7,0.7-1c-0.1,0-0.2-0.1-0.3-0.2c0-0.8,0-1.5-0.1-2.2c-0.1-1.2-0.2-2.4-0.2-3.6
			c0-1.4-0.3-2.7-0.2-3.9c0.1-1.1-0.2-2-0.2-3c0-1.9-0.2-3.7-0.2-5.6c0-1-0.2-2.1-0.2-3c0.1-1.3-0.2-2.4-0.1-3.6
			c0.1-0.7-0.1-1.5-0.1-2.3c0-0.5,0-1,0.1-1.5c0.1-0.9,0.5-1.1,1.1-1.1c0.5,0,0.5,0.8,0.5,1.4c0.2,2.7,0.3,5.3,0.5,8
			c0.1,1.9,0.3,3.9,0.4,5.8c0,0.2,0,0.3,0.1,0.4c0,0,0.1,0,0.2,0c-0.1-0.3-0.1-0.5-0.2-0.7c0.1-0.1,0.1-0.2,0.2-0.3
			c0.1,0.2,0.3,0.4,0.4,0.7c0.1-0.1,0.3-0.2,0.6,0.4c0,0,0.1,0.1,0.1,0.1c0.7-0.6,1.2,0.9,1.8,0.6c0.1-0.1,0.2-0.1,0.4-0.1
			c-0.1,0.2-0.1,0.3-0.2,0.6c0.3-0.1,0.6-0.2,0.8-0.3c-0.1,1,0.4,2.1,0.1,3.2c0.1,0.2,0.2,0.4,0.2,0.5c0,0.9,0,1.8,0,2.7
			c0,0.1,0,0.3,0,0.4c0.1,0.6-0.1,0.6-0.3,0.6c-0.7-0.1-1.3-0.2-2-0.3c-0.5-0.1-1.1-0.1-1.7-0.2c0,0.9,0.1,1.7,0.1,2.6
			c0.1,1.3,0.2,2.6,0.3,3.9c0.1,0.7,0.2,1.4,0.7,1.3c0.1,0,0.3,0.4,0.4,0.6c0,0.1,0,0.2-0.1,0.3c1.4,0,2.9,0,4.3,0
			c-0.1-0.3-0.1-0.3-1.1-0.6c0.2-0.3,0.4-0.5,0.5-0.8c-0.1-0.1-0.2-0.1-0.3-0.2c0,0,0,0,0,0c0-0.7-0.1-1.3,0-1.9
			c0-1.6-0.2-3.1-0.3-4.6c0-0.6-0.1-1.2-0.1-1.8c-0.1-1.2-0.3-2.5-0.2-3.7c0.1-1.5-0.2-2.8-0.2-4.3c0-1.6-0.2-3.3-0.3-4.9
			c-0.1-1.1-0.1-2.1-0.1-3.2c0-0.2,0-0.4-0.1-0.6c-0.1-1.1-0.2-2.3,0-3.4c0.2-0.9,0.6-1.2,1.1-1.2c-0.2-0.1-0.4-0.2-0.6-0.3
			c0.1-0.6,0.4-0.5,0.7-0.4c0.1,0,0.1,0.3,0.2,0.4c-0.1,0.1-0.2,0.2-0.2,0.3c0.7,0.6,0.5,1.9,0.6,2.9c0.2,2.2,0.4,4.5,0.5,6.7
			c0.1,1.5,0.2,3,0.3,4.5c0.1,0.7,0.3,1.4,0.4,2c0,0.2,0.2,0.2,0.4,0.3c0.1,0.3,0.2,0.6,0.3,1c0,0,0.1-0.1,0.1-0.1
			c0-0.2,0.1-0.5,0.1-0.7c0.1,0.1,0.2,0.3,0.3,0.3c0.7-0.2,1.3,0.6,2,0.6c0.6,0.1,0.4,1.1,0.4,1.7c0.2,1.5,0.2,3.1,0.3,4.7
			c-0.3,0-0.5,0-0.8,0c-0.4,0-0.8-0.2-1.2-0.2c-0.4,0-0.5-0.2-0.7-0.9c-0.2-1.5-0.6-2.9-1.4-3.8c0,0.6,0.1,1.1,0.1,1.5
			c0.1,1.9,0.2,3.8,0.4,5.7c0.1,1.3,0.1,2.7,0.4,3.8c0.1,0.4,0.3,0.7,0.6,0.7c0.2,0,0.4,0.4,0.6,0.6c0,0.1,0,0.1,0,0.2
			c1.3,0.1,2.6,0.2,3.9,0.3c0-0.1,0-0.3,0-0.6c-0.5,0-0.9,0.1-1.3,0.1c0-0.1,0-0.1-0.1-0.2c0.2-0.3,0.4-0.5,0.6-0.8
			c-0.6-0.1-0.3-1.3-0.4-1.9c-0.1-0.5,0-1.1,0-1.6c0-0.1,0-0.3,0-0.4c-0.1-2-0.3-4-0.4-6c-0.1-0.7-0.2-1.3-0.3-2c0-0.4,0-0.9,0-1.5
			c-0.3-0.7-0.1-1.7-0.2-2.7c-0.1-1-0.4-1.9-0.1-2.6c-0.3-1.5-0.2-3-0.3-4.4c-0.1-1.4-0.2-2.7-0.3-4.2c0-0.1,0.2-0.2,0.2-0.4
			c0.2-1,0.6-0.9,1-1c0.3,0,0.4,0.3,0.5,0.8c0.2,3,0.4,6,0.7,8.9c0.2,2.6,0.6,5.2,0.8,7.8c0.2,1.6,0.5,3.3,0.4,4.7
			c-0.2,2,0.2,3.7,0.2,5.5c0,0.9,0.3,1.5,0.6,2.1c0,0.1,0.1,0.1,0.2,0.1c0.3-0.1,0.5,0,0.6,0.7c0,0.1,0.2,0.2,0.3,0.2
			c1,0.1,2,0.2,2.9,0.3c0.1,0,0.3,0.1,0.4,0.2c0-0.2-0.1-0.5-0.1-0.9c-0.5,0-0.9,0-1.4,0c0-0.1,0-0.2,0-0.2c0.2-0.2,0.4-0.4,0.5-0.6
			c-0.1-0.1-0.3-0.3-0.4-0.4c0.3-1-0.4-2.2,0.1-3.1c-0.1-0.2-0.2-0.4-0.2-0.6c-0.1-0.8-0.1-1.7-0.1-2.5c0-0.6-0.2-1.2-0.2-1.8
			c0-0.5,0-1,0-1.5c0,0,0.1,0,0.1-0.1c-0.1,0-0.2-0.1-0.3-0.1c0.3-1-0.5-2,0-2.8c-0.1-0.7-0.2-1.3-0.2-1.9c-0.1-0.7-0.3-1.5-0.3-2.2
			c0-1.2-0.3-2.3-0.2-3.3c0.1-1.1-0.3-2.1-0.1-3.2c0.1-0.8-0.1-1.7-0.2-2.6c-0.1-1,0.3-2,0.8-2.1c0.5-0.1,0.7,0.3,0.8,1.3
			c0.3,3.2,0.6,6.4,0.9,9.6c0.3,3.5,0.6,7.1,0.9,10.6c0.2,1.9,0.3,3.9,0.5,5.8c0.1,1.1,0.4,2.2,1.1,2.1c0,0,0.1,0.1,0.1,0.1
			c0.2,1.1,0.7,0.7,1,0.7c0.8,0.1,1.5,0.2,2.3,0.2c0-0.1,0-0.3,0-0.5c-0.5,0-1.1,0-1.8,0c0.2-0.4,0.4-0.7,0.5-0.9
			c-0.1-0.1-0.3-0.2-0.5-0.3c0.3-0.4,0.4-0.9,0.2-1.5c0-0.1,0-0.3,0-0.5c0-0.3,0-0.5,0-0.9c0,0,0.1-0.1,0.2-0.2c0,0,0,0-0.1-0.1
			c-0.1-0.1-0.2-0.2-0.2-0.3c-0.1-0.6-0.2-1.2-0.3-1.9c-0.1-0.7-0.2-1.5-0.2-2.2c0-0.5,0-1.1,0-1.7c0-0.1-0.2-0.4-0.2-0.6
			c0-0.8-0.3-1.5,0-2.3c-0.2-0.8-0.4-1.7-0.3-2.8c0-0.4-0.2-0.8-0.2-1.3c0-0.4,0-0.9,0-1.3c0-0.4-0.1-0.9-0.2-1.3
			c-0.1-1.3-0.2-2.6-0.3-3.9c-0.1-0.9-0.2-1.7-0.3-2.6c0-0.3,0-0.6-0.1-0.7c0.2-0.3,0.4-0.5,0.5-0.7c0.4-0.6,0.9-0.2,1,0.8
			c0.4,3.7,0.8,7.3,1.1,11c0.3,3.2,0.6,6.4,0.9,9.6c0.1,1.6,0.3,3.2,0.5,4.7c0.1,0.7,0.4,1.3,0.6,1.9c0,0.1,0.2,0.2,0.3,0.2
			c0.2,0,0.5-0.1,0.5,0.6c0,0.1,0.1,0.2,0.2,0.2c0.3,0,0.5-0.1,0.8-0.1c0.2-0.4,0.3-0.7,0.5-1.1c-0.1,0-0.2-0.1-0.3-0.2
			c0-1.1-0.1-2.1-0.1-2.9c-0.1-1-0.3-1.9-0.4-2.8c0.1-0.2,0.2-0.3,0.3-0.4c-0.3-0.9-0.5-1.8-0.4-2.9c-0.4-0.4-0.5-2-0.3-2.6
			c-0.1-0.8-0.3-1.5-0.3-2.2c0-0.8-0.1-1.5-0.2-2.2c-0.1-0.4,0-0.9,0-1.4c-0.1-1.3-0.2-2.6-0.3-3.9c-0.1-1.4-0.2-2.9-0.3-4.4
			c0.4-0.2,0.7-0.4,1-0.5c0.3-0.1,0.4,0.4,0.4,0.9c0.3,3.2,0.7,6.5,1,9.7c0.3,2.8,0.6,5.6,0.9,8.4c0.2,2.2,0.4,4.3,0.6,6.5
			c0.1,1.2,0.4,2,1,2.3c0.3,0.2,0.6,0.6,1,0.9c0.1,0.5-0.2,1.2,0.2,1.6c0.1-0.5,0.2-1,0.3-1.7c0.4,0.1,0.8,0.2,1.3,0.3
			c-0.1-0.7-0.6-0.9-1.7-0.5c0-0.6,0-0.7,0.6-0.9c-0.3-0.1-0.5-0.2-0.6-0.3c0-0.5,0-0.9,0-1.4c0-1.1-0.2-2.2-0.3-3.3
			c-0.1-0.9-0.2-1.9-0.3-2.8c0-0.4,0-0.8,0-1.2c-0.1-0.6-0.2-1.1-0.2-1.7c0-0.4,0-0.8,0-1.4c-0.3-0.5-0.3-2-0.1-2.4
			c-0.1-0.2-0.2-0.4-0.3-0.6c-0.1-0.8-0.2-1.5-0.3-2.3c-0.1-0.7-0.3-1.5,0-2c-0.1-0.7-0.2-1.3-0.3-2c-0.1-0.9-0.1-1.7-0.3-2.6
			c-0.1-0.8,0-1.2,0.4-1.4c1-0.4,0.9-0.4,1.1,1.5c0.3,2.7,0.6,5.4,0.9,8.1c0.3,3.1,0.7,6.3,1.1,9.4c0.2,1.3,0.5,2.4,0.8,3.6
			c0.1,0.2,0.1,0.5,0.2,0.8c-0.2-0.1-0.3-0.1-0.6-0.2c0.2,1.1,0.4,1.9,0.6,2.9c0,0-0.1,0.1-0.3,0.1c0.7,0,1.3,0.5,1.7,1.7
			c0.3-1.2,0.8,0,1.2-0.4c-0.1,0.3-0.1,0.4-0.1,0.4c0,1.1,0.1,1.1-0.5,1.1c-0.8-0.1-1.6,0-2.4-0.2c-0.9-0.3-1.8,0.3-2.6-0.8
			c-0.1-0.1-0.2,0.2-0.4,0.2c-0.2,0-0.5,0-0.7-0.1c0,0,0-0.1,0-0.1c-0.5-0.1-1-0.1-1.5-0.2c-0.3,0-0.6,0-0.9-0.1
			c-1.4-0.2-2.9-0.3-4.3-0.5c-0.2,0-0.5-0.3-0.7-0.3c-0.3,0-0.5,0.3-0.8,0.4c1.9,0.3,3.7,0.5,5.6,0.8c0,0.1,0,0.2,0,0.3
			c-0.8-0.1-1.6-0.2-2.5-0.3c-0.8-0.1-1.5-0.2-2.3-0.2c-1.1-0.1-2.3-0.2-3.4-0.4c-0.1,0-0.2-0.2-0.4-0.4c0.8,0,1.5,0,2.3,0
			c0-0.1,0-0.1,0-0.2c-0.7-0.1-1.3-0.2-2-0.3c0-0.1,0-0.1,0-0.2c0-0.5,0.4-0.8,0.1-1.3c-0.2-0.4-0.8,0-1,0.6c0,0,0,0.1-0.1,0.2
			c-0.2-0.2-0.4-0.4-0.6-0.6c0,0.4-0.1,0.7-0.1,1.2c-1.9-0.2-3.9-0.3-5.9-0.5c0,0.1,0,0.1,0,0.2c2.2,0.2,4.5,0.5,6.7,0.7
			c0,0.1,0,0.2,0,0.3c-0.1,0-0.2,0.1-0.2,0.1c-1.6-0.1-3.1-0.2-4.7-0.4c-0.4,0-0.9-0.1-1.3-0.2c-1.1-0.1-2.2-0.1-3.4-0.2
			c-0.9-0.1-1.7-0.1-2.6-0.2c-1.1-0.1-2.1-0.2-3.2-0.3c-0.8-0.1-1.6-0.1-2.4-0.1c-1.9,0-3.8,0-5.7-0.2c0.3-0.3,0.5-0.9,1-0.5
			c0.2,0.2,0.4,0,0.6,0c0.8,0,1.5,0,2.3,0c0.7,0,1.4,0.1,2.1,0.2c0.8,0,1.5,0,2.3,0c0.8,0,1.7,0.2,2.5,0.2c0.8,0,1.6,0,2.5-0.1
			c-0.8-0.1-1.5-0.1-2.3-0.2c0,0,0-0.1,0-0.1c0.5,0,1.1,0,1.6,0c0-0.1,0-0.1,0-0.2c-0.8,0-1.6,0-2.4,0c0,0.1,0,0.1,0,0.2
			c0.2,0,0.3,0,0.5,0.1c0,0,0,0.1,0,0.1c-3.2-0.2-6.3-0.4-9.5-0.5c0.2-0.2,0.4-0.4,0.6-0.6c0-0.1,0-0.2,0-0.3
			c-0.4-0.1-0.8-0.2-1.1-0.2c-2.2,0-4.3,0-6.5,0c-8.4-0.1-16.7-0.1-25.1-0.2c-2.7,0-5.4,0.1-8.1,0.2c-1.4,0-2.9,0.1-4.3,0.2
			c-1.7,0.1-3.4,0.1-5,0.2c-0.6,0-1.3,0.1-1.9,0.2c-0.7,0-1.4-0.1-2.1-0.1c-1,0-2,0.2-3.1,0.2c-0.9,0-1.8,0-2.6,0
			c-0.6,0-1.3,0-1.9,0c0,0.1,0,0.3,0,0.4c0.1,0.2,0.3,0.3,0.4,0.5c0,0.1-0.1,0.1-0.1,0.1c-1,0.1-1.9,0.1-2.9,0.2
			c-1.1,0.1-2.1,0.1-3.2,0.2c-1.2,0.1-2.3,0.2-3.5,0.2c-0.6,0-1.2,0.1-1.8,0.1c-1.4,0.1-2.7,0.2-4.1,0.4c-1.1,0.1-2.2,0.2-3.3,0.3
			c-1.5,0.2-2.9,0.3-4.4,0.5c-0.2,0-0.5-0.4-0.7,0.2c0-0.1-0.1-0.2-0.1-0.4c-0.2,0.4-0.3,0.2-0.4-0.3c-0.1-0.5-0.2-1-0.3-1.5
			C57.4,135.1,57.8,135.1,58.2,135.1z M58.2,137.6c0,0.1,0,0.2,0,0.3c-0.2,0.1-0.5,0.3-0.7,0.3c-0.5,0.1-1.1,0.1-1.7,0.2
			c-1.3,0.1-2.6,0.2-3.9,0.4c-0.9,0.1-1.9,0.3-2.8,0.4c0-0.1,0-0.2,0-0.4C52.2,138.4,55.2,138,58.2,137.6z M41.9,140.1
			c0.8-0.2,1.6-0.4,2.4-0.5c1.3-0.2,2.5-0.5,3.8-0.7c0.3,0,0.5,0,0.9,0c-0.1,0.2-0.1,0.3-0.2,0.3c-1.4,0.3-2.9,0.5-4.3,0.7
			c-1.2,0.2-2.3,0.4-3.5,0.7c-1.3,0.3-2.5,0.7-3.8,1c-0.1,0-0.2,0-0.3,0c0.2-0.1,0.4-0.4,0.6-0.4C39,140.8,40.5,140.5,41.9,140.1z
			 M34.2,142.1c0.8-0.3,1.6-0.5,2.4-0.7c0.1,0,0.2,0.2,0.3,0.2c-1,0.3-2,0.6-3,1c0-0.1,0-0.1,0-0.2C34,142.3,34.1,142.1,34.2,142.1z
			 M33.7,142.3c0,0,0.1,0.1,0.2,0.2c-1.3,0.6-2.5,1.1-3.7,1.6c0.4-0.3,0.7-0.6,1.1-0.8C32.1,142.9,32.9,142.6,33.7,142.3z
			 M30.2,144.1c-0.5,0.4-1,0.8-1.6,1.2c-0.1,0.1-0.2,0.1-0.2,0.1C29,144.7,29.5,144,30.2,144.1z"/>
		<path fill="#FFFFFF" d="M130.8,117.4c0,0.1,0,0.1,0,0.2c0,0,0,0,0,0C130.8,117.5,130.8,117.5,130.8,117.4z"/>
		<path fill="#FFFFFF" d="M35.7,133.4C35.7,133.4,35.7,133.4,35.7,133.4C35.7,133.4,35.7,133.4,35.7,133.4z"/>
		<path fill="#FFFFFF" d="M119.3,100.5C119.3,100.5,119.3,100.5,119.3,100.5C119.3,100.5,119.3,100.5,119.3,100.5L119.3,100.5z"/>
		<path fill="#FFFFFF" d="M49.6,147.2c-0.4,0-0.8,0.1-1.2,0.2c-0.2,0-0.5,0-0.7,0.1c-0.3,0-0.6,0.1-0.9,0.2
			c-0.4,0.1-0.7,0.2-1.1,0.3c1.6,0,3.1,0,4.7,0c0-0.1,0-0.2,0-0.4C50.1,147.4,49.9,147.2,49.6,147.2z"/>
		<path fill="#FFFFFF" d="M119.4,101.4c-0.1,0.1-0.2,0.1-0.3,0.2c0,0.4,0,0.8,0,1.3c0.1,0,0.2-0.1,0.3-0.2c0.1,0.2,0.1,0.4,0.2,0.8
			c0.2-0.4,0.4-0.7,0.6-1c0,0.2,0.1,0.3,0.1,0.6c0.2-0.4,0.3-0.7,0.4-1c0,0-0.1-0.1-0.1-0.1c0,0.1-0.1,0.2-0.2,0.4
			c0.1-0.5,0.2-0.9,0.3-1.2c0,0-0.1-0.1-0.1-0.1c-0.1,0.1-0.1,0.2-0.1,0.3c-0.1-0.1-0.2-0.3-0.4-0.4c0,0.3-0.1,0.6-0.1,0.7
			c-0.1-0.3-0.2-0.5-0.3-0.7c-0.1-0.1-0.2-0.1-0.4-0.2c0,0.1,0,0.1,0,0.2C119.5,101.1,119.5,101.2,119.4,101.4z"/>
		<path fill="#FFFFFF" d="M112.3,101.2c0-0.2-0.3-0.5-0.4-0.6c-0.1,0-0.3,0.3-0.4,0.5c0.1,0.2,0.2,0.5,0.3,0.7
			C112.1,101.9,112.3,101.8,112.3,101.2z"/>
		<path fill="#FFFFFF" d="M118.7,101.9c0,0.2-0.1,0.3-0.1,0.5c0.3,0,0.1,0.7,0.2,0.8c0.2-0.2,0.2-0.3,0.3-0.4c0-0.4,0-0.8,0-1.3
			c0,0-0.1,0-0.1,0c0,0-0.1,0.1-0.2,0.1c0-0.2,0-0.4,0.1-0.6c-0.1-0.1-0.2-0.1-0.3-0.2C118.3,101.4,118.9,101.6,118.7,101.9z"/>
		<path fill="#FFFFFF" d="M49,146.7c0.4,0.1,0.7,0.1,1.1,0c0,0,0.1-0.2,0.1-0.3c-0.1-0.1-0.1-0.1-0.2-0.2c0,0-0.1,0-0.1,0
			C49.7,146.4,49.3,146.5,49,146.7z"/>
		<path fill="#FFFFFF" d="M119.5,100.7c0-0.1-0.1-0.1-0.1-0.2c0,0.1,0.1,0.2,0.1,0.4C119.5,100.8,119.5,100.8,119.5,100.7z"/>
		<path fill="#FFFFFF" d="M161.8,88.2c-1.7-0.6-3.3-1.1-5-1.6c-0.7-0.2-1.5-0.4-2.2-0.6c-1-0.3-2-0.6-2.9-0.8
			c-0.9-0.2-1.9-0.3-2.8-0.5c-1.2-0.3-2.5-0.6-3.7-0.9c-1.3-0.2-2.6-0.3-3.9-0.6c-0.8-0.1-1.7-0.4-2.5-0.5c-1.4-0.2-2.8-0.4-4.1-0.5
			c-1.2-0.1-2.4-0.3-3.6-0.4c-1.5-0.1-3.1-0.2-4.6-0.4c-1-0.1-2.1-0.1-3.1-0.2c-1.3-0.1-2.7-0.2-4-0.2c-2,0-3.9,0-5.9,0
			c-1.5,0-3.1,0-4.6,0c-1.5,0-3.1,0.1-4.6,0.2c-1.7,0.1-3.4,0.2-5.1,0.4c-1.1,0.1-2.3,0.2-3.4,0.3c-1.5,0.1-3.1,0.2-4.6,0.4
			c-0.6,0.1-1.2,0.1-1.9,0.2c-1.5,0.2-3,0.5-4.5,0.7c-0.9,0.1-1.9,0.2-2.8,0.4c-1.5,0.3-3.1,0.7-4.6,1c-1,0.2-2.1,0.5-3.1,0.7
			c-0.1,0-0.2-0.2-0.3-0.3c-0.1-0.1-0.1-0.1-0.2-0.2c-0.1,0-0.1,0-0.2,0c0.1,0.1,0.2,0.2,0.3,0.4c-0.7,0.2-1.4,0.4-2,0.6
			c-1.2,0.3-2.5,0.5-3.7,0.9c-1.5,0.5-3.1,1-4.6,1.6c-1.9,0.7-3.9,1.2-5.8,2c-2.6,1.1-5.1,2.3-7.7,3.5c-1.6,0.8-3.2,1.9-4.8,2.9
			c-1.2,0.8-2.4,1.7-3.5,2.6c-0.6,0.5-1.2,1.1-1.9,1.7c0.3-0.2,0.6-0.5,1-0.7c1.9-1.4,3.9-2.8,5.8-4c1.9-1.2,3.7-2.2,5.6-3.2
			c1.4-0.7,2.9-1.3,4.3-1.9c1.1-0.5,2.2-0.8,3.2-1.2c1-0.4,2-0.7,3-1c0.9-0.3,1.8-0.6,2.7-0.9c0.9-0.3,1.8-0.6,2.6-0.9
			c0.8-0.3,1.7-0.5,2.5-0.7c1.1-0.3,2.3-0.5,3.4-0.7c1.3-0.3,2.6-0.6,3.9-0.9c1.4-0.3,2.8-0.6,4.3-0.9c1.2-0.2,2.5-0.4,3.7-0.5
			c1.2-0.2,2.4-0.4,3.6-0.5c1.2-0.2,2.4-0.4,3.6-0.5c1.1-0.1,2.2-0.1,3.3-0.2c0.6,0,1.2-0.1,1.8-0.2c1.4-0.1,2.8-0.3,4.1-0.3
			c0.6,0,0.6,0.1,0.7,1.3c0,0.3,0.2,0.6,0.3,0.6c0.5,0.1,1,0,1.5,0c0-0.5,0-0.9,0-1.3c0,0,0,0,0.1,0c0,0.4,0,0.7,0.1,1.1
			c0,0,0.1,0,0.1,0c0-0.3,0.1-0.5,0.1-0.8c-0.1-0.7,0.1-0.9,0.4-1c0.2-0.1,0.5-0.2,0.7-0.2c1.4,0,2.8,0,4.3,0c0,0.7,0.6,1.1,0,1.8
			c0,0,0.1,0.1,0.1,0.1c0.1-0.2,0.3-0.4,0.4-0.5c0.1-0.2,0.2-0.4,0.3-0.5c0.1,0.1,0.1,0.2,0.2,0.3c0.1,0.2,0.1,0.5,0.2,0.8
			c0.1-0.2,0.1-0.3,0.1-0.5c0,0.1,0.1,0.4,0.1,0.4c0.3-0.1,0.6-0.2,0.9-0.3c0.1-0.5,0.2-0.9,0.3-1.3c0.2-0.8,0.5-0.1,0.7-0.2
			c0.1,0,0.2,0,0.3,0c1.3,0,2.6,0,3.9,0c0.4,0,0.7,0.8,0.7,1.5c0,0.2,0,0.5,0,0.7c0.4-0.1,0.7-0.2,1-0.3c0-0.2,0.1-0.4,0.1-0.7
			c0,0,0,0,0.1,0c0,0.2,0,0.4,0,0.6c0.2,0.1,0.4,0.2,0.5,0.2c0.2-0.4,0.3-0.7,0.4-1c0.1-0.6,0.3-0.9,0.7-0.9
			c0.9,0.1,1.7,0.1,2.6,0.2c2.1,0.1,4.2,0.2,6.3,0.4c0.5,0,0.9,0.1,1.4,0.2c1.8,0.2,3.6,0.3,5.4,0.5c0.9,0.1,1.8,0.2,2.7,0.4
			c1.4,0.2,2.9,0.5,4.3,0.7c0.8,0.1,1.6,0.2,2.4,0.4c1,0.2,1.9,0.5,2.9,0.7c1.1,0.3,2.3,0.4,3.4,0.7c1.6,0.4,3.2,0.9,4.8,1.4
			c1.5,0.4,2.9,0.8,4.4,1.3c1.9,0.7,3.9,1.4,5.8,2.3c0.8,0.4,1.6,0.7,2.4,1.1c1.2,0.6,2.3,1.1,3.5,1.7c1.5,0.8,2.9,1.6,4.3,2.6
			c1.7,1.1,3.3,2.3,4.9,3.6c0.3,0.3,0.7,0.6,1,0.9c1,0.9,1.9,1.9,2.7,3.3c0.8,1.3,1.5,2.5,2.3,3.8c0,0,0,0,0,0v0
			c-0.1-0.2-0.1-0.4-0.2-0.6c-1.1-2.5-2.5-4.3-4-5.9c0,0,0-0.1-0.1-0.1c-2.3-2.5-4.7-4.1-7.1-5.7c-1.6-1.1-3.3-1.9-5-2.8
			c-1.5-0.8-2.9-1.5-4.4-2.1c-0.3-0.1-0.6-0.3-0.9-0.4C165.4,89.4,163.6,88.8,161.8,88.2z"/>
		<path fill="#FFFFFF" d="M85.2,82.8c0.1-0.1,0.2-0.3,0.3-0.4c1-0.2,2-0.4,3-0.5c1.7-0.2,3.5-0.4,5.2-0.5c0.9-0.1,1.8-0.1,2.8-0.2
			c0,0,0.1,0,0.1,0c0.3-0.1,0.7-0.2,1-0.1c0.2,0.1,0.4,0.4,0.6,0c0,0,0,0,0,0c0.2,0.7,0.5,0.2,0.8,0.3c0.1,0,0.3-0.1,0.4-0.1
			c0.7-0.1,1.4-0.2,2-0.2c0-0.1,0-0.1,0-0.2c0.3,0.1,0.6,0.2,0.9,0.2c1.1,0,2.3-0.1,3.4-0.2c0.1,0,0.3-0.3,0.4-0.3
			c0.2,0,0.4,0.3,0.5,0.3c0.6-0.2,1.2,0.5,1.7-0.4c0.2-0.3,0.7-0.1,1-0.1c0,0.1-0.1,0.2-0.1,0.3c0.1,0,0.3,0,0.4,0
			c0.1-0.1,0.2-0.3,0.3-0.3c1.3,0,2.5,0,3.8,0c0.2,0,0.4,0.1,0.6,0.2c-0.1,0.1-0.1,0.2-0.2,0.3c0.9,0,1.7,0,2.4,0c0.1,0,0.2,0,0.2,0
			c0.1-0.4,0.1-0.5,0.2,0c0,0.1,0.1,0,0.2,0c0.2-0.1,0.3-0.3,0.4-0.3c1.9,0,3.7,0.1,5.6,0.2c0.7,0,1.5-0.2,2.2,0.4
			c0.6,0.5,1.4,0.1,2.2,0.1c0,0,0-0.1,0-0.1c-0.2,0-0.3,0-0.5-0.1c0.2-0.1,0.5-0.2,0.7-0.1c1.1,0.1,2.1,0.2,3.2,0.4
			c0.2,0,0.6-0.4,0.7,0.5c0-0.1,0.1-0.2,0.1-0.2c0.1-0.1,0.2-0.1,0.3-0.1c0.7,0.1,1.5,0.1,2.2,0.2c0.2,0,0.4,0.2,0.6,0.3
			c0.1,0,0.2-0.2,0.3-0.2c0.9,0,1.7,0.1,2.6,0.2c0.1,0,0.2,0.1,0.3,0.2c0.1,0.1,0.1,0.2,0.2,0.2c0.9,0,1.8,0.1,2.6,0.1
			c0,0,0.1,0,0.1,0c0.2,1,0.6,0.4,1,0.4c0.3,0,0.7,0,1,0c0,0.1,0,0.1,0,0.2c-0.3,0-0.6,0-0.9,0c0,0,0,0.1,0,0.1
			c0.6,0.1,1.3,0.1,1.9,0.2c0,0,0-0.1,0-0.1c-0.1,0-0.3-0.1-0.4-0.1c0,0,0-0.1,0-0.1c0.8,0.1,1.5,0.3,2.3,0.4
			c-1.3-0.5-2.6-0.8-3.9-1.1c-1.6-0.3-3.1-0.6-4.7-0.9c-1.2-0.2-2.4-0.5-3.7-0.7c-1.2-0.2-2.4-0.2-3.7-0.4c-0.6-0.1-1.1-0.1-1.7-0.2
			c-1.3-0.1-2.6-0.3-4-0.4c-1.3-0.1-2.7-0.2-4-0.3c-1.9-0.1-3.8-0.1-5.7-0.1c-1.1,0-2.2,0-3.3,0c-2,0-4.1,0.1-6.1,0.2
			c-0.8,0-1.6,0.1-2.4,0.2c-1.9,0.1-3.7,0.2-5.6,0.4c-0.9,0.1-1.9,0.2-2.8,0.3c-1.5,0.2-3.1,0.4-4.6,0.5c-0.5,0.1-1,0.1-1.5,0.2
			c-1.5,0.2-3,0.5-4.4,0.7c-0.6,0.1-1.3,0.2-1.9,0.4c-1,0.3-2.1,0.6-3.1,0.8c-1,0.3-2,0.5-3,0.7c0,0,0,0.1,0,0.1
			C79.4,83.5,82.3,83.2,85.2,82.8z M101.1,80.6c0.2,0,0.3,0.1,0.5,0.1c-0.2,0-0.4,0-0.7,0C101,80.7,101,80.6,101.1,80.6z"/>
		<path fill="#FFFFFF" d="M147.6,79.1c-1-0.3-2.1-0.6-3.1-0.9c-0.8-0.2-1.6-0.4-2.4-0.6c-0.9-0.2-1.8-0.5-2.7-0.7
			c-0.6-0.1-1.3-0.2-1.9-0.4c-1.1-0.2-2.2-0.5-3.3-0.7c-0.7-0.1-1.4-0.2-2.1-0.3c-0.3,0-0.5,0-0.8,0c0,0.1,0,0.2,0,0.2
			c1.1,0.2,2.1,0.3,3.2,0.5c0,0.4,0.1,0.7,0.1,0.9c0.2,0,0.4,0.1,0.5,0.1c0,0.2-0.1,0.4-0.1,0.7c0.3-0.1,0.6-0.3,0.8-0.2
			c0.4,0.2,0.4-0.7,0.6-0.9c-0.1-0.1-0.2-0.1-0.2-0.2c0.2,0,0.5,0.2,0.7,0.2c0.9,0.1,1.7,0.2,2.6,0.3c0.4,0,0.4,0.8,0.6,1.2
			c0.4,0.1,0.7,0.2,1,0.2c0.3,0.1,0.5,0.1,0.7-0.5c0-0.2,0.2-0.3,0.3-0.3c0.2,0,0.5,0.2,0.7,0.3c0.6,0.2,1.2,0.6,1.8,0.5
			c0.5-0.1,0.5,0.7,0.7,1c0.5,0.2,0.9,0.3,1.4,0.4c0.1-0.2,0.2-0.7,0.4-0.7c0.4,0,0.7,0.1,1.1,0.2c0.4,0.1,0.9,0.3,1.3,0.4
			c0.6,0.2,1.3,0.4,1.9,0.6c0.1,0,0.1,0.2,0.2,0.3c0.8,0.3,1.7,0.6,2.5,0.9c0.1,0,0.1,0,0.2,0.1c0,0,0,0,0,0.1
			c0.1,0.3,0.2,0.6,0.3,1.1c0,0.2,0,0.5-0.1,0.9c0,0,0.1,0.1,0.1,0.1c0.2-0.8,0.5-0.8,0.7-0.5c0,0.3,0,0.5,0.1,0.7
			c0.1-0.1,0.1-0.2,0.2-0.3c0,0.2,0.1,0.3,0.1,0.4c0.1-0.5,0.1-0.9,0.2-1.4c0-0.1,0-0.2,0-0.3c1,0.4,1.8,0.7,2.5,1
			c0.1,0.4,0.2,0.8,0.3,1.2c0,0.1,0.1,0.2,0.1,0.4c0.1-0.1,0.1-0.1,0.2-0.2c0.1,0,0.2,0,0.2,0.1c0.2,0.3,0.2,1,0.5,1.1
			c0-0.2,0-0.3,0-0.4c0-0.2,0-0.4,0-0.5c0-0.9,0.1-1,0.7-0.8c0.5,0.2,0.9,0.5,1.3,0.8c0.2,0.1,0.3,0.2,0.5,0.4
			c0.3,0.5,0.5,1,0.7,1.6c0,0,0,0,0,0.1c0,0.1,0,0.2-0.1,0.3c0.2,0.2,0.4,0.2,0.4-0.1c0-0.1,0-0.3,0-0.5c0-0.4,0-0.8,0.3-0.7
			c0.1,0,0.2,0,0.3,0c0-0.1-0.1-0.2-0.1-0.2c-0.7-0.4-1.4-0.9-2.1-1.2c-2.1-1-4.2-2.1-6.3-3c-0.8-0.4-1.7-0.7-2.5-1
			c-0.8-0.3-1.5-0.5-2.3-0.8C149.7,79.7,148.7,79.4,147.6,79.1z"/>
		<path fill="#FFFFFF" d="M109.6,75.5c0.6,0.1,1.3,0,1.9-0.1c0.5,0,1.1,0,1.6-0.1c0.3,0,0.7,0,0.9-0.3c0.4-0.7,0.8-0.8,1.3-0.1
			c0.1,0.2,0.3,0.5,0.4,0.5c0.5,0,1.1,0,1.6,0c0.2,0,0.5-0.3,0.7-0.2c0.5,0.4,1.1,0.4,1.7,0.3c0.2,0,0.3-0.2,0.5-0.3
			c0-0.1,0-0.2,0-0.4c-1,0-1.9,0-2.9,0c0-0.1,0-0.1,0-0.2c2.1,0,4.3,0,6.4,0c0,0,0-0.1,0-0.1c-4.9-0.1-9.8-0.3-14.7-0.4
			c0,0.1,0,0.2,0,0.3C109.1,74.9,109.4,75.4,109.6,75.5z"/>
		<path fill="#FFFFFF" d="M103.9,74.9c0,0,0,0.1,0,0.1c-0.2,0-0.4,0.1-0.7,0.1c0.2,0.6,0.3,0.7,0.8,0.7c0.6,0,1.2,0,1.8-0.1
			c0.6,0,1.2-0.1,1.9-0.2c0.1,0,0.2-0.4,0.4-0.8c0,0,0.1,0,0.2,0.1c0-0.1,0-0.2,0.1-0.3c-0.1-0.1-0.2-0.2-0.3-0.2
			c-0.6,0-1.3,0.1-1.9,0.2c-1.3,0.1-2.7,0.1-4,0.2c0,0.1,0,0.1,0,0.2C102.7,74.9,103.3,74.9,103.9,74.9z"/>
		<path fill="#FFFFFF" d="M87.3,78.5c0-0.2,0.1-0.4,0.1-0.6c0.1,0.1,0.1,0.3,0.2,0.5c0-0.3,0-0.5-0.1-0.8c0.2,0.2,0.3,0.3,0.4,0.4
			c0-0.1,0-0.2,0-0.3c0.3-0.1,0.6-0.1,0.9-0.2c0-0.2,0.1-0.4,0.1-0.7c-0.2,0-0.5,0-0.7,0c0,0,0-0.1,0-0.1c0.1,0,0.2-0.1,0.3-0.1
			c0.7-0.1,1.4-0.3,2.2-0.3c0.8,0,1.6-0.6,2.3,0.5c0,0.1,0.1,0.1,0.2,0.1c0.4-0.1,0.9-0.1,1.3-0.2c0.2-0.1,0.3-0.5,0.4-0.8
			c0,0-0.1-0.1-0.1-0.1c0.2-0.4,0.6,0.7,0.7-0.4c0,0-0.1,0-0.1,0c-1.4,0.2-2.8,0.5-4.1,0.7c-0.9,0.1-1.8,0.2-2.8,0.4
			c-0.1,0-0.2,0.1-0.2,0.1c-0.1,0.1-0.3,0.3-0.4,0.4C87.5,77,87.2,77,87,77.1c0,0.7,0,1.3,0,2c0,0,0.1,0,0.1,0
			C87.2,78.9,87.2,78.7,87.3,78.5z"/>
		<path fill="#FFFFFF" d="M71.7,81.2c0,0.5,0.1,0.9,0.1,1.7c0.1-0.2,0.2-0.3,0.3-0.5c-0.2-0.6,0.1-0.5,0.2-0.7c0,0.2,0,0.3,0,0.5
			c0.4-0.6,1-0.5,1-1.6c0.7-0.2,1.3-0.5,1.9-0.7c0-0.1,0-0.1,0-0.2c-1.6,0.6-3.1,1.1-4.7,1.7c0,0.1,0,0.1,0,0.2
			C70.9,81.4,71.3,81.3,71.7,81.2z"/>
		<path fill="#FFFFFF" d="M59.7,88.6c0.5-0.1,0.9-0.5,0.9-1.8c0-0.3,0.1-0.6,0.2-1c-0.5,0.3-0.9,0.5-1.3,0.8
			C59.6,87.3,59.6,88,59.7,88.6z"/>
		<polygon fill="#FFFFFF" points="60.8,85.8 60.8,85.9 60.8,85.8 		"/>
		<path fill="#FFFFFF" d="M61.4,85.8c0.4-0.2,0.7-0.4,1.1-0.6c0.2-0.1,0.4-0.2,0.6-0.3c0.2,0.2,0.4,0.3,0.6,0.2c0.2,0,0.6,0,0.7-0.3
			c0.2-0.8,0.6-0.8,0.9-1.4c-1.5,0.8-3,1.5-4.5,2.3C61,85.9,61.2,85.9,61.4,85.8z"/>
		<path fill="#FFFFFF" d="M60.8,85.8C60.8,85.8,60.8,85.8,60.8,85.8C60.8,85.8,60.8,85.8,60.8,85.8C60.8,85.8,60.8,85.8,60.8,85.8z"
			/>
		<path fill="#FFFFFF" d="M98.2,75.2c0.6,0,1.1,0,1.7,0c0,0.1,0,0.1,0,0.2c-0.5,0-1,0-1.4,0c0,0.1,0,0.2,0,0.3
			c0.1,0.1,0.3,0.4,0.4,0.4c0.3,0,0.6,0.1,0.9-0.1c0.3-0.2,0.7,0.4,0.8-0.8c-0.2,0-0.3-0.1-0.5-0.1c0,0,0-0.1,0-0.1
			c-0.6,0-1.3,0-1.9,0C98.2,75.1,98.2,75.2,98.2,75.2z"/>
		<path fill="#FFFFFF" d="M100.1,75C100.1,75,100.1,75,100.1,75c0.1,0,0.3,0,0.4,0C100.4,75,100.3,75,100.1,75z"/>
		<path fill="#FFFFFF" d="M101.2,75c-0.2,0-0.5,0-0.7,0C100.8,75.1,101,75.1,101.2,75C101.2,75.1,101.2,75.1,101.2,75z"/>
		<path fill="#FFFFFF" d="M54.4,91c0.2-0.1,0.3-0.4,0.4-0.6c0.1-0.3,0.2-0.6,0.4-1c-1,0.8-2,1.6-3,2.4c0.5,0,1-0.2,1.5-0.3
			C53.9,91.3,54.2,91.2,54.4,91z"/>
		<path fill="#FFFFFF" d="M67.2,83c0.1,0.3,0.2,0.6,0.2,0.8c0.5-0.4,1.2,0,1.3-1.4c0.2-0.1,0.4-0.1,0.6-0.2c0-0.1,0-0.2,0-0.3
			c-0.9,0.4-1.8,0.7-2.7,1.1c0,0.1,0,0.1,0,0.2C66.9,83.1,67.1,83,67.2,83z"/>
		<path fill="#FFFFFF" d="M76.7,81.6c0.1-0.5,0.1-0.9,0.2-1.2c0-0.1,0.2-0.3,0.3-0.2c0.4,0.1,0.9-0.2,1.1-1
			c-0.7,0.2-1.2,0.4-1.7,0.5c0,0.5,0,0.8,0,1.1C76.6,81,76.6,81.3,76.7,81.6z"/>
		<path fill="#FFFFFF" d="M123.3,75.8c0.2-0.1,0.5,0,0.8,0.2c0.5,0.2,0.7,0.1,0.8-0.8c-0.7,0-1.4,0-2.2,0
			C123,75.6,123,76,123.3,75.8z"/>
		<path fill="#FFFFFF" d="M130,76.5c0.3,0,0.6-0.2,0.9-0.3c0-0.1,0-0.3,0-0.4c-0.6-0.1-1.3-0.1-2-0.2C129,76.3,129,76.4,130,76.5z"
			/>
		<path fill="#FFFFFF" d="M82.7,78.9c0.1-0.5,0.7,0.1,0.7-1c-0.6,0.1-1.2,0.3-1.9,0.4c0,0.1,0,0.2,0,0.3c0.2,0.1,0.4,0.2,0.6,0.3
			C82.3,79,82.5,78.4,82.7,78.9z"/>
		<path fill="#FFFFFF" d="M128.4,75.1c-1.1-0.1-2.1-0.2-3.2-0.4c0,0.1,0,0.2,0,0.3c1.1,0.1,2.1,0.2,3.2,0.4
			C128.3,75.3,128.3,75.2,128.4,75.1z"/>
		<path fill="#FFFFFF" d="M57,89.7c0-0.3,0.1-0.8,0.2-1.3c-0.4,0.3-0.7,0.5-1,0.7c0.1,0.3,0.2,0.6,0.2,0.7
			C56.6,89.7,56.8,89.7,57,89.7z"/>
		<path fill="#FFFFFF" d="M39.2,138.5c0.5-0.1,1-0.3,1.5-0.4C39.6,137.6,39.1,137.8,39.2,138.5z"/>
		<path fill="#FFFFFF" d="M48.4,136.1c-0.5,0-1,0-1.5,0C47,136.6,47.8,136.6,48.4,136.1z"/>
		<path fill="#FFFFFF" d="M121.7,80.8C121.7,80.9,121.7,80.9,121.7,80.8c0.9,0.1,1.8,0.1,2.7,0.1c0,0,0-0.1,0-0.1
			C123.5,80.8,122.6,80.8,121.7,80.8z"/>
		<path fill="#FFFFFF" d="M44.1,137.1c-0.5,0.1-1-0.4-1.4,0.2c0,0.1,0,0.2,0,0.3C43.1,137.4,43.6,137.2,44.1,137.1z"/>
		<path fill="#FFFFFF" d="M118.4,80.7C118.4,80.7,118.4,80.7,118.4,80.7c0.8,0.1,1.7,0.1,2.5,0.1c0,0,0-0.1,0-0.1
			C120.1,80.7,119.2,80.7,118.4,80.7z"/>
		<path fill="#FFFFFF" d="M85.1,77.3c0-0.1,0-0.1,0-0.2c-0.7,0.1-1.4,0.3-2.1,0.4c0,0.1,0,0.1,0,0.2C83.7,77.6,84.4,77.5,85.1,77.3z
			"/>
		<path fill="#FFFFFF" d="M86.8,77.1c0-0.1,0-0.2,0-0.3c-0.5,0.1-1,0.2-1.5,0.3c0,0,0,0,0,0.1C85.8,77.1,86.3,77.1,86.8,77.1z"/>
		<path fill="#FFFFFF" d="M142.9,117.3c0.5,0.1,1.1,0.3,1.6,0.5c-0.4-1.2-1.1-1.5-2.6-0.5c-0.2,0.2-0.6,0.4-0.6,1.2
			C141.8,117.7,142.3,117.1,142.9,117.3z"/>
		<path fill="#FFFFFF" d="M114.2,116.7c0.2-1.1-0.1-2-0.4-2.8c-0.6-1.3-1.3-1.8-2.2-1.6c-0.9,0.2-1.8,1.7-1.9,3.6c0,0.6,0,1.2,0,1.9
			c-0.2,0-0.4,0.1-0.7,0.1c0.1,0.3,0.2,0.5,0.3,0.6c0.1-0.1,0.1-0.3,0.3-0.5c0,0.5,0,0.9,0,1.4c-0.2-0.3-0.4-0.6-0.6-0.8
			c0,0.3,0.1,0.4,0.1,0.5c-0.2,0.6,0.2,0.3,0.2,0.7c0.3-0.6,0.3,0,0.4,0.3c0,0.2-0.2,0.5-0.2,0.6c0.1,0.3,0.2,0.7,0.3,1.1
			c0.1,0,0.4,0.1,0.4,0c0.3-0.9,0.5-0.4,0.7,0c0.1-0.3,0.2-0.5,0.4-0.9c0,0.5,0,0.7,0,1c0.4-0.1,0.8-0.1,1.1-0.3
			c0.3-0.2,0.4-0.8,0.8-0.5c0.1,0.1,0.2,0.3,0.4,0.4c0.2,0.1,0.5,0.3,0.7,0.3c0.1,0,0.1-0.7,0.1-1.1c0-0.8-0.1-1.6-0.1-2.5
			c0.2,0,0.4-0.1,0.6-0.1C114.2,117.7,114.1,117.5,114.2,116.7z"/>
		<path fill="#FFFFFF" d="M119,114.9c0-0.1,0-0.1,0-0.1c0.2-0.1,0.4-0.3,0.6-0.4c0,0.1,0,0.3,0,0.5c0.1-0.3,0.2-0.4,0.3-0.6
			c0.1,0.3,0.2,0.5,0.3,0.6c0.1-0.1,0.2-0.3,0.3-0.3c0.7-0.1,1.1,0.8,1.5,1.6c0,0.3-0.1,0.7-0.1,1c0,0,0.1,0,0.1,0
			c0-0.2,0.1-0.5,0.1-0.5c0.2-0.1,0.2-0.1,0.2-0.5c-0.1-1.1-0.4-1.9-0.8-2.6c-1.2-2.2-3.1-1.3-3.7,1.6c-0.1,0.7,0,1.6,0.2,1.9
			C118,115.6,118.6,114.5,119,114.9z"/>
		<path fill="#FFFFFF" d="M103.1,112.7c-0.8,0.6-1.3,1.9-1.5,3.7c-0.1,0.6,0.1,0.9,0.4,0.8c0-1.8,0.5-1.9,1.3-2.7
			c0.1,0.2,0.1,0.4,0.2,0.7c0.1-0.2,0.3-0.4,0.4-0.7c0.1,0.1,0.2,0.2,0.3,0.3c0.8-0.5,1.5,0.3,1.8,2.4c0-0.1,0.1-0.2,0.1-0.3
			c0.2-1.2,0-2.1-0.4-2.9C105,112.3,104,112.1,103.1,112.7z"/>
		<path fill="#FFFFFF" d="M122.1,118.6c-0.1-0.2-0.2-0.5-0.3-0.7c0.1,1.8-0.9,1.1-1.1,2.3c-0.1-0.9-0.2-1.5-0.3-2.2
			c-0.1,0.1-0.2,0.3-0.4,0.5c0-0.3,0-0.6,0-0.8c-0.1,0-0.1,0-0.2,0c0,0.4,0,0.8,0,1.2c0,0,0.1,0,0.1,0c-0.1,0.4-0.3,0.8-0.4,1.2
			c0,0.1,0.1,0.1,0.1,0.2c0.1-0.2,0.2-0.5,0.3-0.6c0.1-0.1,0.3,0,0.4,0c0,0.1,0,0.1,0,0.2c-0.1,0-0.2,0.1-0.4,0.1c0,0,0,0.1,0,0.1
			c0.1,0,0.3,0,0.4,0.1c0,0,0,0.1,0,0.1c-0.7,0.1-1.5,0.2-2.3,0.3c0.1,0.5,0.1,0.7,0.2,0.9c0.6,0,1.2,0,1.7,0c0.4,0,0.9,0,1.3,0.1
			c0.3,0,0.4-0.5,0.4-0.9c0-0.3-0.2-0.6-0.2-0.7c0.1-0.5,0.2-0.8,0.3-1.2C121.9,118.8,122,118.7,122.1,118.6z"/>
		<path fill="#FFFFFF" d="M117.5,120.7L117.5,120.7C117.5,120.7,117.6,120.7,117.5,120.7C117.6,120.6,117.5,120.7,117.5,120.7z"/>
		<path fill="#FFFFFF" d="M117.3,119.6c0-0.2,0.1-0.4,0.1-0.6c0-0.1-0.1-0.1-0.1-0.2c-0.2,0.4-0.3,0.9-0.5,1.4
			c0-0.4,0.1-0.8,0.1-1.1c0-0.3,0.1-0.5,0.1-0.7c0,0-0.1,0-0.1,0c-0.1,0.3-0.3,0.6-0.4,1c0.1,0.4,0.3,0.8,0,1.3c0,0,0.1,0.4,0.2,0.7
			c-0.1,0-0.2-0.1-0.3-0.1c0-0.3,0-0.6-0.1-1.1c-0.2,0.4-0.4,0.7-0.4,0.8c-0.3-0.1-0.5-0.1-0.8-0.2c0,0.1,0,0.2,0,0.3
			c0.1,0,0.2,0.1,0.2,0.1c0.2,0,0.4,0,0.6,0.1c0.5,0.5,0.9,0.4,1.2-0.4c0.1,0.2,0.3,0.4,0.4,0.7c0-0.1,0.1-0.1,0.1-0.2
			c0-0.1-0.1-0.2-0.1-0.2c0-0.1-0.1-0.1-0.1-0.1c0.1-0.2,0.2-0.4,0.3-0.5c-0.1-0.1-0.2-0.2-0.4-0.4
			C117.2,120,117.2,119.8,117.3,119.6z"/>
		<path fill="#FFFFFF" d="M90.8,122.2c0-1.1,0-2,0-3.1c-0.6,0.8-0.9,1.8-1.1,3.3C90.1,122.3,90.4,122.3,90.8,122.2z"/>
		<path fill="#FFFFFF" d="M117.6,120.6C117.6,120.7,117.5,120.7,117.6,120.6C117.6,120.7,117.6,120.7,117.6,120.6
			C117.6,120.7,117.6,120.6,117.6,120.6C117.6,120.6,117.6,120.6,117.6,120.6z"/>
		<path fill="#FFFFFF" d="M119.1,119.6c-0.2-0.4-0.3-0.7-0.4-0.9c0,0.1,0,0.2,0,0.3c-0.2,0.1-0.3,0.3-0.5,0.3
			c-0.2,0-0.4-0.1-0.6-0.2c0.1,0.2,0.2,0.4,0.2,0.5c0,0.5,0,0.8-0.1,1.1c-0.1,0-0.2,0-0.3,0c0,0.2,0.1,0.5,0.1,0.8
			c0,0.1-0.1,0.1-0.1,0.2c0.2,0,0.3,0,0.5,0.1c0-0.6-0.1-1.2-0.1-1.9C118.4,119.7,118.7,119.6,119.1,119.6z"/>
		<path fill="#FFFFFF" d="M133.1,119.4c0,0.4,0,0.8,0,1.2c0,1.3,0.1,1.4,0.8,1c-0.2-0.8-0.4-1.6-0.7-2.3
			C133.2,119.4,133.2,119.4,133.1,119.4z"/>
		<path fill="#FFFFFF" d="M122.9,117.8c-0.2,0-0.4,0-0.5,0c-0.1,0.4-0.2,0.8-0.3,1.2c-0.1,0.6-0.2,1.2-0.2,1.8c0,0,0.1,0.1,0.2,0.2
			c0.3,0.4,0.3-0.5,0.6-0.5c-0.2-0.4-0.4-0.7-0.5-1c0.1-0.2,0.3-0.5,0.3-0.6C122.2,118,122.5,117.9,122.9,117.8z"/>
		<path fill="#FFFFFF" d="M104.4,117.4c-0.2,0.6-0.3,0-0.5,0c-0.1,0.1-0.2,0.3-0.2,0.4c-0.1-0.1-0.2-0.3-0.2-0.4c0,0-0.1,0-0.1,0
			c0,0.3,0.1,0.6,0.1,0.9c0,0.1-0.1,0.1-0.1,0.2c0,0,0,0.1,0.1,0.3c0.4-0.3,0.7-0.6,1.1-0.9c0-0.1,0-0.3,0.1-0.4
			C104.5,117.5,104.4,117.4,104.4,117.4z"/>
		<path fill="#FFFFFF" d="M103.3,116.4L103.3,116.4c-0.1,0.1-0.1,0.1-0.2,0.2c-0.1,0.3-0.3,0.5-0.2,0.8c0.1,0.6,0.3,1,0.6,1
			c0-0.3-0.1-0.6-0.1-0.9C103.3,117.1,103.3,116.7,103.3,116.4z"/>
		<path fill="#FFFFFF" d="M128.8,122.1c0.7,0,1.4,0,2.1,0c0,0,0-0.1,0-0.1C130.2,122,129.5,122,128.8,122.1
			C128.8,122.1,128.8,122.1,128.8,122.1z"/>
		<path fill="#FFFFFF" d="M103.4,117.4c0.1-0.1,0.2-0.2,0.2-0.3c0-0.3-0.1-0.5-0.1-0.8c-0.1-0.1-0.1-0.2-0.2-0.4
			c-0.1,0.1-0.1,0.2-0.2,0.3C103.3,116.7,103.3,117.1,103.4,117.4C103.4,117.4,103.4,117.4,103.4,117.4z"/>
		<polygon fill="#FFFFFF" points="127.1,85.6 127.1,85.6 127.1,85.7 		"/>
		<path fill="#FFFFFF" d="M89.5,86.6c0.9-0.1,1.9-0.1,2.8-0.2c1.1-0.1,2.1-0.4,3.2-0.5c1.5-0.2,3.1-0.2,4.6-0.4
			c0.9-0.1,1.9-0.1,2.8-0.2c1.4-0.1,2.7-0.2,4.1-0.2c4.1,0,8.2,0.1,12.3,0.2c2.4,0,4.8,0.1,7.3,0.2c0.2,0,0.3,0,0.5,0.1
			c-0.1-0.1-0.1-0.2-0.2-0.2c-0.9-0.1-1.8-0.1-2.7-0.2c-1.2-0.1-2.4-0.1-3.5-0.2c-2.4-0.1-4.8-0.2-7.2-0.2c-1.3,0-2.6,0.1-3.8,0.2
			c-2.1,0.1-4.1,0.1-6.2,0.2c-0.7,0-1.5,0.1-2.2,0.2c-1.6,0.1-3.2,0.2-4.8,0.4c-1.2,0.1-2.5,0.2-3.7,0.3c-1.3,0.1-2.6,0.2-3.9,0.4
			c-0.9,0.1-1.8,0.3-2.7,0.4c0.1,0.1,0.3,0.1,0.4,0.1C87.5,86.9,88.5,86.7,89.5,86.6z"/>
		<path fill="#FFFFFF" d="M131.1,86.1c1.9,0.1,3.8,0.2,5.6,0.4c0.6,0,1.1,0.2,1.7,0.3c0.7,0.1,1.4,0.1,2.2,0.2
			c-1.2-0.3-2.4-0.5-3.5-0.7c-1.1-0.2-2.3-0.3-3.4-0.4c-1-0.1-2-0.1-3-0.2c-0.1,0-0.1,0-0.2,0c-1.1,0-2.2-0.1-3.3-0.1
			c0.1,0,0.1,0.1,0.2,0.1C128.6,85.9,129.9,86,131.1,86.1z"/>
		<path fill="#FFFFFF" d="M127.1,85.6C127.1,85.6,127.1,85.7,127.1,85.6C127.1,85.7,127.1,85.7,127.1,85.6
			C127.1,85.7,127.1,85.6,127.1,85.6z"/>
		<path fill="#FFFFFF" d="M69.3,90.2c0-0.1,0-0.2,0-0.2c-3.4,1-6.9,2-10.3,3c0,0.1,0,0.2,0,0.2C62.5,92.3,65.9,91.3,69.3,90.2z"/>
		<path fill="#FFFFFF" d="M150.1,88.7c0.6,0.1,1.3,0.2,1.9,0.4c0.9,0.2,1.7,0.5,2.5,0.7c0.9,0.2,1.7,0.5,2.6,0.7
			c0.4,0.1,0.8,0.1,1.2,0.2c-0.7-0.3-1.4-0.5-2.1-0.7c-0.6-0.1-1.2-0.2-1.8-0.4c-1.1-0.3-2.1-0.6-3.2-0.8c-0.8-0.2-1.6-0.3-2.4-0.4
			c0,0.1,0,0.2,0.1,0.2C149.4,88.6,149.8,88.7,150.1,88.7z"/>
		<polygon fill="#FFFFFF" points="148.9,88.3 148.9,88.3 148.9,88.3 		"/>
		<polygon fill="#FFFFFF" points="78.4,88.3 78.4,88.3 78.4,88.3 		"/>
		<path fill="#FFFFFF" d="M84.5,87c-1.1,0.2-2.3,0.5-3.4,0.7c-0.9,0.2-1.7,0.2-2.6,0.4c0,0-0.1,0.1-0.1,0.2c2.5-0.4,4.9-0.8,7.4-1.2
			C85.4,87,84.9,86.9,84.5,87z"/>
		<path fill="#FFFFFF" d="M148.9,88.3C148.9,88.3,148.9,88.3,148.9,88.3C148.9,88.3,148.9,88.3,148.9,88.3
			C148.9,88.3,148.9,88.3,148.9,88.3z"/>
		<path fill="#FFFFFF" d="M146,87.9c0.4,0.1,0.9,0.3,1.3,0.3c0.5,0.1,1.1,0.1,1.6,0.1c-2.6-0.7-5.3-1.1-8-1.3
			c0.4,0.1,0.7,0.3,1.1,0.3C143.3,87.5,144.6,87.7,146,87.9z"/>
		<path fill="#FFFFFF" d="M72.9,89.4c0-0.1,0-0.1,0-0.2c-1.1,0.3-2.2,0.5-3.3,0.8c0,0.1,0,0.1,0,0.2C70.7,90,71.8,89.7,72.9,89.4z"
			/>
		<path fill="#FFFFFF" d="M78.4,88.3C78.4,88.3,78.4,88.3,78.4,88.3C78.4,88.3,78.4,88.3,78.4,88.3L78.4,88.3z"/>
		<path fill="#FFFFFF" d="M78.4,88.3c-0.8,0.1-1.6,0.1-2.3,0.2c0,0.1,0,0.2,0,0.3C76.8,88.6,77.6,88.4,78.4,88.3z"/>
		<path fill="#FFFFFF" d="M111.2,83.1c0-0.2,0.1-0.5,0.1-0.7c-0.1,0.2-0.2,0.4-0.3,0.5C111.1,83,111.2,83.1,111.2,83.1z"/>
		<path fill="#FFFFFF" d="M133.5,95.8C133.6,95.7,133.6,95.7,133.5,95.8c-0.7-0.1-1.5-0.1-2.2-0.1c0,0,0,0.1,0,0.1
			C132.1,95.8,132.8,95.8,133.5,95.8z"/>
		<path fill="#FFFFFF" d="M119.9,95C119.9,95,119.9,95,119.9,95c-0.7-0.1-1.4-0.1-2.2-0.1c0,0,0,0,0,0.1C118.5,95,119.2,95,119.9,95
			z"/>
		<path fill="#FFFFFF" d="M130.8,95.6C130.8,95.5,130.8,95.5,130.8,95.6c-0.7-0.1-1.4-0.1-2.2-0.1c0,0,0,0.1,0,0.1
			C129.4,95.6,130.1,95.6,130.8,95.6z"/>
		<path fill="#FFFFFF" d="M88.8,127.2c0.8,0.8,1,0.7,1.1-0.4c-0.4,0-0.8,0.1-1.1,0.1C88.8,127,88.8,127.1,88.8,127.2z"/>
		<path fill="#FFFFFF" d="M119.9,126.1c0.2,0.5,0.3,1,0.5,1.5C120.6,126.4,120.5,126.1,119.9,126.1z"/>
		<path fill="#FFFFFF" d="M118.6,126.5c0,0.5,0,1-0.1,1.5c0.2-0.4,0.1-1.4,0.6-1.2c0-0.2,0-0.4,0-0.6
			C118.9,126.3,118.8,126.4,118.6,126.5z"/>
		<path fill="#FFFFFF" d="M119.2,101C119.2,101,119.2,101,119.2,101c-0.3-0.2-0.1,0.4-0.2,0.5c0,0,0.1,0,0.1,0
			c0.1-0.1,0.2-0.1,0.3-0.2C119.4,101.3,119.3,101.2,119.2,101z"/>
		<path fill="#FFFFFF" d="M119.3,100.5L119.3,100.5c0,0,0,0.1,0,0.1C119.2,100.6,119.2,100.6,119.3,100.5z"/>
	</g>
</g>
</svg>
