<?xml version="1.0" encoding="utf-8"?>
<!-- Generator: Adobe Illustrator 18.0.0, SVG Export Plug-In . SVG Version: 6.00 Build 0)  -->
<!DOCTYPE svg PUBLIC "-//W3C//DTD SVG 1.1//EN" "http://www.w3.org/Graphics/SVG/1.1/DTD/svg11.dtd">
<svg version="1.1" id="Layer_1" xmlns="http://www.w3.org/2000/svg" xmlns:xlink="http://www.w3.org/1999/xlink" x="0px" y="0px"
	 viewBox="0 0 218 250" enable-background="new 0 0 218 250" xml:space="preserve">
<g>
	<g>
		<polygon fill="#37B7B0" points="0.7,62.5 109,0 217.3,62.5 217.3,187.5 109,250 0.7,187.5 		"/>
		<g>
			<defs>
				<polygon id="SVGID_9_" points="0.7,62.5 109,0 217.3,62.5 217.3,187.5 109,250 0.7,187.5 				"/>
			</defs>
			<clipPath id="SVGID_2_">
				<use xlink:href="#SVGID_9_"  overflow="visible"/>
			</clipPath>
			<g clip-path="url(#SVGID_2_)">
				<path fill="#247573" d="M287,276.5l-5.9-123.6L175.3,92l-12.3-2l-6.1-3.4l-5.3,0.3l-12.9-2.9l-7.7-4.6l-3.5-2l-4.4-0.9
					l-11.7-6.8l-3.3,2.1l0.6,12.9l-13.3-7.7l-5.8,0.7l4.2,2.4l-4.2-1.5L87,80.8l-12.6,3.3L58.1,87l0.5,1.9l-13.3,3.9l-1.6,0.8
					l0.4,1.4l53.5,31.3l9.9,9.3c-0.5-0.2-0.9-0.5-1.4-0.7c-0.2-0.1,0-0.7,0-1c0-2.4,0-4.7,0-7.1c0.1,0,0.2,0,0.3,0L105,126
					c-0.1,0.1-0.1,0.2-0.2,0.3c-2.8,1.4-4.4,3.2-3.8,5.8c0.6,2.7,3.2,3.7,6.3,4.4c0.1,0,0.3,0.1,0.4,0.1l0,3.7
					c-1.3-0.3-2.6-0.5-3.8-0.8c-1-0.3-1.9-0.6-2.7-1.1v1.1c0.5,0.1,1.1,0.2,1.7,0.4c0.8,0.2,1.6,0.5,2.6,0.8
					c-0.3,0.2-0.5,0.3-0.7,0.4c-2.5,1.2-3.9,2.9-3.3,5.3c0.6,2.4,3,3.3,5.8,3.8c0.1,0,0.3,0.1,0.4,0.1l0,2.8
					c-0.6-0.1-1.2-0.2-1.8-0.3c-1.8-0.3-3.4-0.8-4.7-1.4v1.5c1.1-0.2,2.5,0,4.3,0.8c-0.1,0.1-0.2,0.2-0.3,0.2
					c-2.3,0.9-4.2,2.1-3.8,4.4c0.4,2.3,2.6,3.2,5.2,3.8c0.3,0.1,0.7,0.2,1,0.2l0,2.5c-1.5-0.3-3-0.6-4.4-1c-0.5-0.2-1-0.3-1.5-0.6
					l0.1,1.4c0.6,0,1.4,0.2,2.6,0.8c-1.4,1.2-2.1,2.3-2.2,3.3l0.1,1c0.4,1.3,2.1,2.3,5,2.9c0.1,0,0.2,0,0.2,0.1l0,2.3
					c-1.6-0.3-3.1-0.7-4.5-1.3c-0.2-0.1-0.4-0.2-0.6-0.3l0,1.4c0.7-0.1,1.5,0.1,2.7,0.7c-1.6,1.2-2.4,2.2-2.6,3.2l0,1
					c0,0.1,0,0.1,0,0.2l0.9,2.2l4.4,9.9c-0.6-4.8-1.4-12.1-1.4-14.3c0-0.6,0.1-1.2,0.1-1.8c0.3,0,0.7,0,0.9,0.1l0,4.8l0-4.8
					c0.3,0,0.6,0.1,0.9,0.1v0c2.7,0.3,2.1,0.6,2.1,2.8c0.1,2.9-1.9,16.2-2.1,17.5L287,276.5z M110,166.6c0.4,1.5,0.3,3.2,0,4.7
					c0,0.2-1,0.4-1.8,0.5v0c-0.3,0-0.6,0-0.8,0.1l0.1-6.2c0.3,0.1,0.5,0.1,0.8,0.2v0C109.1,166.1,109.9,166.3,110,166.6z M108.5,154
					c1.1,0,1.8,0.4,1.8,1.4c-0.1,1.2,0,2.4,0,3.6c0,2.1-0.1,2.6-2.1,2.5c-0.2,0-0.5,0-0.8-0.1l0.1-7.4
					C107.8,154,108.2,154,108.5,154z M109.1,141.3c0,0,0.1,0,0.1,0c0.1,0,0.2,0,0.2,0.1c0,0,0.1,0,0.1,0c0.1,0,0.2,0.1,0.2,0.1
					c0,0,0,0,0.1,0c0.2,0.2,0.4,0.5,0.4,0.9c0,1,0,2,0,3c0,0.8-0.1,1.7,0,2.5c0.1,1-0.3,1.5-1.4,1.6c-0.2,0-0.3,0-0.5,0
					c-0.3,0-0.6,0-0.9-0.1l0.1-8.4c0,0,0,0,0.1,0c0.2,0,0.3,0,0.5,0.1v0C108.5,141.2,108.8,141.2,109.1,141.3z M107.6,135.5l1.4,0.4
					c-0.1,0-0.1,0-0.2,0.1c0,0,0,0,0,0c0,0-0.1,0-0.1,0c-0.4,0-0.7-0.1-1.1-0.3L107.6,135.5z M107.6,136.7c0.2,0,0.3,0.1,0.5,0.1v0
					c2.7,0.6,5.4,1.1,7.8,2c5,2,6.2,6.8,3,10c-1.4,1.4-2.3,2.1-3.6,2.1c-1,0-2.2-0.3-3.9-0.9c0.6-0.3,1.1-0.5,1.6-0.8
					c2.1-1.1,3-2.7,2.7-4.6c-0.3-1.9-1.8-2.9-3.9-3.4c-1.4-0.3-2.8-0.6-4.2-0.9L107.6,136.7z M106.2,148c0.1-1.8,0.1-3.7,0-5.5
					c0-0.8,0.2-1.5,1.4-1.3l-0.1,8.4C106.6,149.4,106.1,149,106.2,148z M107.5,150.3c0.2,0,0.4,0.1,0.6,0.1v0
					c0.9,0.2,1.9,0.3,2.8,0.5c0,0,0.1,0,0.1,0c0.9,0.2,1.8,0.4,2.7,0.6c5.8,1.3,6.4,7.2,4,9.8c-1.1,1.2-1.8,1.7-3.1,1.7
					c-1,0-2.3-0.4-4.4-1c1-0.4,1.9-0.6,2.7-1c1.8-0.9,2.5-2.2,2.5-3.8c0-1.6-1.2-2.6-2.9-3.1c-1.6-0.4-3.2-0.8-4.9-1.1L107.5,150.3z
					 M106.2,161.3c0-2.1,0-4,0-6c0-0.9,0.6-1.2,1.3-1.3l-0.1,7.4C107,161.4,106.6,161.4,106.2,161.3z M107.4,162.4
					c0.2,0.1,0.5,0.1,0.7,0.2v0c0.8,0.2,1.6,0.4,2.3,0.5c0.2,0,0.3,0.1,0.5,0.1c0.3,0.1,0.6,0.2,0.9,0.3c0.2,0.1,0.5,0.2,0.7,0.2
					c0.2,0.1,0.4,0.1,0.7,0.2c3.4,1.2,4.7,4.2,3.3,6.8c-0.8,1.5-1.9,2.3-3.3,2.3c-0.9,0-1.9-0.2-3-0.7c0.6-0.2,1.1-0.4,1.6-0.7
					c1.6-0.8,2.5-2,2-3.3c-0.4-1-1.5-2.1-2.7-2.5c-1.2-0.4-2.5-0.7-3.7-0.9L107.4,162.4z M107.2,171.9c-0.3,0-0.9-0.8-0.9-1.3
					c-0.1-1.6,0-3.2,0-5.2c0.4,0.1,0.8,0.2,1.2,0.3l-0.1,6.2C107.2,171.9,107.2,171.9,107.2,171.9z M107.3,172.8
					c0.3,0.1,0.6,0.1,0.8,0.2v0c1.6,0.3,3.1,0.7,4.6,1.2c2.3,0.7,3.7,2,3.6,4c-0.1,2-1.1,3.7-4.2,4.5c0.5-0.7,0.8-1.1,1-1.4
					c1.9-3.1,0.5-5-3.8-5.8c-0.7-0.1-1.4-0.2-2-0.4L107.3,172.8z"/>
				<g>
					<path fill="#FFFFFF" d="M117.8,108.5c-1.9-1-4-1.9-6.2-2.3c-4.1-0.8-8.3-1.2-12.5-1.9c-4-0.7-8-1.6-12-2.5
						c-1.2-0.3-2.4-1.2-1.4-2.2c0.6-0.6,2.2-0.8,3.3-1c0.5-0.1,1,0.4,1.6,0.7c3.4,1.4,6.9,1.8,10.5,0.7c2.9-0.9,3.2-2.2,1-3.9
						C98.1,93,90.4,92,84.7,94c-3.4,1.2-5.9,3.2-5.9,6.3c0,3,2.6,4.8,6,5.7c2.9,0.8,5.9,1.4,8.9,1.9c5.8,0.9,11.7,1.7,17.5,2.7
						c4.8,0.8,6.7,4.1,4.5,7.5c-0.9,1.4-2.5,2.4-3.9,3.8c0.8,0.2,1.9,0.3,2.9,0.6c2.2,0.9,3.6,0,5-1.2
						C124,117.4,123.2,111.5,117.8,108.5z"/>
					<path fill="#FFFFFF" d="M62.5,90c3.4,0.8,6.6,0.3,9.6-0.9c5.5-2.1,10.9-4.2,16.3-6.3c0.6-0.3,1.3-0.4,2-0.7
						c0.1,0.1,0.2,0.2,0.2,0.4c-0.7,0.3-1.4,0.6-2,0.9c-5.1,2.2-10.2,4.4-15.3,6.7c-1.2,0.6-2.5,1.3-3.4,2.1
						c-0.6,0.5-0.9,1.8-0.5,2.2c0.6,0.6,2.1,1.2,3,1.1c1.5-0.2,3.1-0.7,4.4-1.4c4-2.2,7.9-4.6,11.9-6.9c0.6-0.3,1.2-0.7,1.9-1
						c-4,3.4-9.1,5.9-11.6,10.2c3.3-2.5,4.5-3.1,7.7-3.7c2-0.4,3.9-1,5.7-1.5c0,0.1-0.2,0.5-0.5,1c1.3,0.1,2.5,0.2,3.1,0.3
						c0-3.2,0-6.2,0-9.2c0-1.6,0.1-3.4-2-4.3c-2.1-1-4-0.3-6.1,0.5c-3.6,1.4-7.2,2.8-11,3.7c-5.8,1.4-11.9,2.4-17.9,3.6
						C58.7,88.4,60.3,89.5,62.5,90z"/>
					<path fill="#FFFFFF" d="M121.8,82.5c-0.4,3.3-0.1,6.6-0.1,10c1-0.1,1.8-0.2,2.5-0.3c0-0.4,0-0.7,0-0.9c3.9,2,9.5,1.2,12.4,4.6
						c-2.5-4-7.4-6.3-11.1-9.5c2.5,1.3,4.7,2.9,7,4.3c2.7,1.6,5.4,3.2,8.3,4.6c1.2,0.6,2.9,0.8,4.4,0.8c2.1-0.1,2.8-1.5,1.5-2.8
						c-1-0.9-2.2-1.9-3.6-2.6c-5-2.6-10.1-5-15.2-7.6c-0.7-0.4-1.4-0.7-2.1-1.1c0.8-0.1,1.4,0,1.8,0.2c3.3,1.5,6.5,3.2,9.9,4.6
						c2.8,1.1,5.7,2.2,8.7,2.9c4.7,1.1,8.4-0.1,10.7-3.3c-0.8-0.1-1.3-0.1-1.8-0.2c-8.6-0.9-16.6-3.1-23.7-7
						C127.1,76.9,122.2,78.3,121.8,82.5z"/>
					<path fill="#FFFFFF" d="M137.7,100.4c0.1-2.9-2.1-5-5.4-6.2c-4.4-1.7-9-1.8-13.5-0.4c-1.9,0.6-3.6,1.8-5.2,2.9
						c-1.4,1-1.2,2.2,0.5,2.8c1.5,0.6,3.4,1.1,5,1c2.5-0.2,5-0.9,7.4-1.6c1.7-0.5,3.7-0.4,4.2,0.7c0.7,1.4-0.6,2-1.9,2.5
						c-1.1,0.4-2.3,0.7-3.5,0.9c-4.6,0.8-9.3,1.5-13.7,2.3c2.2,0.9,4.6,2,7,2.9c0.4,0.2,1.1,0.3,1.5,0.2c3.9-0.7,7.8-1.3,11.6-2.3
						C135.2,105.1,137.6,103.2,137.7,100.4z"/>
					<path fill="#FFFFFF" d="M114.8,123.4c-3.2-0.9-6.5-1.5-9.7-2.3c-2.9-0.7-4.7-2.3-5-4.7c-0.3-2.2,1-3.9,3.4-5.2
						c0.5-0.3,1-0.5,2-1c-2.3-0.3-3.9-0.5-5.6-0.8c-1.5-0.3-2.4,0-3.3,1c-4,4.3-2.7,10.4,3.3,12.9c3.3,1.4,7.2,2.1,10.9,2.9
						c3.6,0.8,5.3,2,5.6,4.3c0.3,2.2-1.2,4.2-4,5.4c-0.4,0.1-0.7,0.3-1,0.5c0,0.2,0,0.3,0.1,0.5c1.9,0.1,4.1,0.6,5.6,0.1
						c2.5-0.8,3.5-2.9,4.1-5C122.1,128.1,119.8,124.8,114.8,123.4z"/>
					<path fill="#FFFFFF" d="M116,138.8c-2.7-1.1-5.8-1.6-8.7-2.3c-3.1-0.7-5.7-1.7-6.3-4.4c-0.6-2.6,1.1-4.5,3.8-5.8
						c0.1-0.1,0.1-0.2,0.2-0.3c-0.9-0.3-1.7-0.5-2.6-0.8c-3-0.9-3.7-0.8-5.3,1.4c-0.4,0.6-0.8,1.2-1,1.8c-1.6,4.4,1.9,9.6,7.6,11.1
						c2.6,0.7,5.4,1.1,8,1.7c2.1,0.5,3.7,1.5,3.9,3.4c0.3,2-0.6,3.5-2.7,4.6c-0.5,0.3-1,0.5-1.6,0.8c4.1,1.4,5,1.3,7.5-1.2
						C122.2,145.6,120.9,140.8,116,138.8z"/>
					<path fill="#FFFFFF" d="M113.8,151.6c-2.2-0.5-4.5-0.9-6.7-1.3c-2.8-0.5-5.2-1.4-5.8-3.8c-0.6-2.3,0.9-4,3.3-5.3
						c0.2-0.1,0.4-0.2,0.7-0.4c-1-0.3-1.8-0.5-2.6-0.8c-3.2-1-4.2-0.7-5.6,1.8c-0.3,0.5-0.5,1-0.6,1.5c-1,4.8,2.5,8.4,9.2,9.4
						c2.3,0.3,4.5,0.8,6.7,1.4c1.8,0.5,2.9,1.6,2.9,3.1c0,1.6-0.7,3-2.5,3.8c-0.8,0.4-1.6,0.6-2.7,1c4.7,1.5,5.6,1.4,7.5-0.7
						C120.2,158.7,119.6,152.9,113.8,151.6z"/>
					<path fill="#FFFFFF" d="M158.3,88.7c-0.8-0.1-1.9-0.2-2.4,0.1c-2.7,1.8-5.8,2.1-9.1,2.2c3.1,1,6.1,2.3,9.3,3.1
						c3.4,0.8,6.9,1.4,10.4,1.5c3.6,0.2,6.6-1.2,8.7-3.7C169.3,90.8,163.8,89.7,158.3,88.7z"/>
					<path fill="#FFFFFF" d="M58.7,88.9c-0.3-0.2-1-0.2-1.4-0.1c-5.2,1-10.5,1.9-15.7,2.9c0.7,2.7,3.1,4.2,6.9,4.4
						c7.5,0.4,13.3-3.1,19.8-5.3C64.7,91.2,61.4,91,58.7,88.9z"/>
					<path fill="#FFFFFF" d="M113.3,164c-2.2-0.8-4.6-1.2-7-1.8c-2.5-0.6-4.8-1.5-5.2-3.8c-0.4-2.3,1.5-3.5,3.8-4.4
						c0.1-0.1,0.2-0.2,0.3-0.2c-4.9-2.3-7,0.1-7.8,2.9c-1,3,1.3,6.1,5.5,7.4c2.6,0.8,5.5,1.1,8.1,1.9c1.2,0.4,2.3,1.5,2.7,2.5
						c0.5,1.3-0.4,2.6-2,3.3c-0.5,0.2-1,0.4-1.6,0.7c3.1,1.3,5.1,0.7,6.4-1.7C118.1,168.1,116.8,165.2,113.3,164z"/>
					<path fill="#FFFFFF" d="M69.1,95.1c-0.8-0.8-0.4-2.3-0.5-3.4c-3.7,1.6-7.9,3.4-12,5.2c-1.7,0.8-3.1,2.2-2.2,3.8
						c0.8,1.5,3.1,1.4,4.7,0.9c4.9-1.5,9.7-3.2,14.7-4.9C71.8,96.1,69.9,95.9,69.1,95.1z"/>
					<path fill="#FFFFFF" d="M159,97.1c-3.9-2-8.1-3.8-12.2-5.6c2.5,3.4,2,4.3-2.9,5.4c4.2,1.8,8,4.1,12.9,4.2
						c1.5,0.1,3.5,0.2,3.8-1.3C160.9,99,159.9,97.6,159,97.1z"/>
					<path fill="#FFFFFF" d="M112.8,174.2c-1.9-0.6-3.8-1-5.7-1.4c-5.6-1.3-6.6-3.8-2.9-7.1c-2.7-1.3-3.6-1-4.7,1.2
						c-1.4,2.9-0.3,5.6,3.3,7c2,0.8,4.3,1.3,6.5,1.7c4.3,0.7,5.6,2.7,3.8,5.8c-0.2,0.4-0.5,0.7-1,1.5c3.2-0.9,4.2-2.5,4.3-4.6
						C116.5,176.2,115.1,174.8,112.8,174.2z"/>
					<path fill="#FFFFFF" d="M68.2,101.1c-0.8,0.6-0.8,1.8-1.2,2.7c1.3,0.2,2.6,0.8,3.7,0.6c2.1-0.4,4.2-1.1,6.2-1.8
						c0.5-0.2,0.9-0.9,0.9-1.4c0.3-2.1,0.4-4.3,0.7-7C75,96.6,71.5,98.7,68.2,101.1z"/>
					<path fill="#FFFFFF" d="M137.6,94.8c0.3,1.5,0.3,2.9,0.9,4.1c0.6,1.2-1.3,2.8,0.9,3.7c1.6,0.7,3.3,1.2,5.1,1.7
						c0.8,0.2,1.7,0.4,2.5,0.3c0.9-0.1,1.9-0.3,2.8-0.5c-0.3-0.7-0.3-1.5-0.8-2.1C146,98.7,141.7,96.7,137.6,94.8z"/>
					<path fill="#FFFFFF" d="M111.2,94.9c0,1.3,0,2.5,0,3.8c1.1-3.1,4.1-4.5,7.5-5.6c1.4-0.4,2.2-1,2.2-2.1c-0.1-2.5-0.2-5-0.2-7.5
						c0.1-3.8,2-5.4,6.9-6.1c-2.4-2.3-6.7-1.2-7.6,1c-0.9,2.1-1.5,4.4-1.2,6.6C119.4,90.4,117.7,92.9,111.2,94.9z"/>
					<path fill="#FFFFFF" d="M106.3,176c0,0.7-0.1,1.3-0.1,1.8c0,3.2,1.8,17.2,2,18.6c0,0.1,0,0.1,0,0.1s0,0,0-0.1
						c0.2-1.3,2.1-14.6,2.1-17.5C110.2,176.3,111.2,176.3,106.3,176z"/>
					<path fill="#FFFFFF" d="M96,82.6c0,1.2-0.4,2.4-0.3,3.6c0.2,1.9,0.5,3.8,0.9,5.6c0.1,0.4,0.7,1,1.2,1.2c3.1,1.1,5.8,2.6,7.4,5
						c0-1.1,0-2.2,0-3.3c-5.5-1.6-7.6-3.9-7.4-8.4c0-1.5,0.3-3,0.2-4.5c-0.1-1.1-0.2-2.3-0.8-3.3c-1.5-2.5-4.4-2.9-7.5-1
						C94.3,77.9,96,79.2,96,82.6z"/>
					<path fill="#FFFFFF" d="M110.2,112c-0.1-0.5-1.3-1.1-2-1.1c-0.6-0.1-1.9,0.6-1.9,1c-0.2,2.7-0.1,5.4-0.1,8.1
						c0,1.4,1.6,1.1,2.6,1.2c1.3,0.1,1.5-0.5,1.5-1.4c-0.1-1.2,0-2.4,0-3.6C110.3,114.8,110.5,113.4,110.2,112z"/>
					<path fill="#FFFFFF" d="M106.3,134.9c0.7,0.5,1.6,1,2.5,1c0.5,0,1.4-0.8,1.5-1.3c0.2-1.8,0.1-3.7,0.1-5.5
						c0-2.4-0.5-2.8-4.1-2.3c0,2.3,0,4.7,0,7.1C106.2,134.2,106,134.7,106.3,134.9z"/>
					<path fill="#FFFFFF" d="M108.4,149.7c1.5,0.1,2-0.5,1.9-1.6c-0.1-0.8,0-1.7,0-2.5c0-1,0-2,0-3c0-1.5-1.6-1.2-2.6-1.4
						c-1.3-0.2-1.5,0.5-1.5,1.3c0,1.8,0.1,3.7,0,5.5C106.1,149.4,107.1,149.6,108.4,149.7z"/>
					<path fill="#FFFFFF" d="M108.5,154c-1.1,0-2.4,0-2.3,1.4c0.1,2,0,3.9,0,6c3.9,0.4,4.1,0.3,4.1-2.4c0-1.2-0.1-2.4,0-3.6
						C110.4,154.3,109.7,153.9,108.5,154z"/>
					<path fill="#FFFFFF" d="M107.2,171.9c1,0,2.8-0.2,2.8-0.6c0.3-1.6,0.5-3.2,0-4.7c-0.1-0.5-2.2-0.7-3.8-1.2c0,2-0.1,3.6,0,5.2
						C106.3,171.1,106.9,171.9,107.2,171.9z"/>
					<path fill="#FFFFFF" d="M111,100.6c0,1.2,0,2.3,0,3.7c2.5-0.3,4.8-0.5,7-0.8c0.1-0.2,0.2-0.3,0.3-0.5c-1.8-1.1-3.5-2.2-5.3-3.2
						C111.8,99.1,111,99.4,111,100.6z"/>
					<path fill="#FFFFFF" d="M105.1,104.2c0-1.9,0-3.5,0-5.2c-0.3-0.2-0.6-0.3-0.9-0.5c-1.8,1.5-3.6,3-5.4,4.5
						c0.1,0.2,0.2,0.4,0.4,0.5C101.2,103.8,103.2,104,105.1,104.2z"/>
					<path fill="#FFFFFF" d="M104.9,175.6c-2.4-1.1-3.3-0.9-4.6,1c-1.4,2.1,0,4.7,2.9,5.6C101.6,179.2,101.9,177.9,104.9,175.6z"/>
					<path fill="#FFFFFF" d="M138.4,103.5c-1.4,1.1-2.7,2.1-4.1,3.1c1.4,0.1,3.6,1.2,5-0.4C140.4,105,139.1,104,138.4,103.5z"/>
					<path fill="#FFFFFF" d="M78.5,103.9c0.2,0.8-0.1,1.9,0.5,2.5c1.1,1.1,2.7,0.9,4.3,0.2c-1.5-1-2.9-1.9-4.3-2.7
						C78.9,103.9,78.7,103.9,78.5,103.9z"/>
					<path fill="#FFFFFF" d="M95.2,101.2c-0.2,0.2-0.4,0.3-0.6,0.5c0.8,0.5,1.7,1.5,2.2,1.4c1.3-0.2,2.4-1,3.5-1.6
						c-0.1-0.1-0.2-0.2-0.4-0.4C98.4,101.2,96.8,101.2,95.2,101.2z"/>
					<path fill="#FFFFFF" d="M122.8,101.2c-2.3,0-3.9,0-5.5,0c-0.1,0.2-0.2,0.5-0.4,0.7c1.4,0.4,2.7,0.9,4.1,1
						C121.5,102.9,122.1,101.9,122.8,101.2z"/>
					<path fill="#FFFFFF" d="M129.5,99.5c-1.1,0-2.2,0-3.4,0.1c0,0.3,0,0.7,0,1c1.2,0,2.4,0,3.6,0
						C129.7,100.2,129.6,99.5,129.5,99.5z"/>
					<path fill="#FFFFFF" d="M86.8,99.6c-0.1,0,0,0.7,0,1c1.1-0.1,2.2-0.1,3.4-0.2c0-0.4-0.1-0.7-0.1-1.1
						C88.9,99.5,87.8,99.5,86.8,99.6z"/>
					<path fill="#FFFFFF" d="M128,101.3c-1.9-0.3-3.2-0.5-4.5-0.8C124.4,102.4,125.8,102.3,128,101.3z"/>
					<path fill="#FFFFFF" d="M93,101.4c-0.1-0.3-0.2-0.6-0.3-1c-1.2,0.2-2.4,0.4-3.7,0.6c0.1,0.3,0.1,0.6,0.2,0.9
						C90.4,101.9,91.7,101.6,93,101.4z"/>
					<path fill="#FFFFFF" d="M108.2,81.3v0.2c-0.6,0-1.2,0-1.9,0c0,0.6-0.1,1.1-0.1,1.6c0,6.6,0,13.2,0,19.7c0,1.2,0.4,1.9,2.1,1.9
						c1.8,0,2.1-0.8,2-2c-0.1-6.5,0-13,0-19.5c0-0.6-0.1-1.1-0.1-1.7c-0.5,0-1.1,0-1.5,0v-0.2c3.4-0.1,6.1-2.8,6.1-6.2
						c0-3.4-2.8-6.2-6.2-6.2s-6.2,2.8-6.2,6.2C102.3,78.4,104.9,81.1,108.2,81.3z"/>
				</g>
				<g>
					<path fill="#257471" d="M122.5,96.4c-1.2,0.7-1.7,1.1-2.4,1.3c-0.7,0.2-1.4,0.2-2.2,0.1c-0.2,0-0.5-0.7-0.4-0.8
						c0.6-0.4,1.2-0.9,2-1C120.3,96,121.1,96.3,122.5,96.4z"/>
					<path fill="#257471" d="M94.8,96.4c1.2,0.7,1.7,1.1,2.4,1.3c0.7,0.2,1.4,0.2,2.2,0.1c0.2,0,0.5-0.7,0.4-0.8
						c-0.6-0.4-1.2-0.9-2-1C97,96,96.1,96.3,94.8,96.4z"/>
				</g>
			</g>
		</g>
	</g>
</g>
</svg>
