<?xml version="1.0" encoding="utf-8"?>
<!-- Generator: Adobe Illustrator 18.0.0, SVG Export Plug-In . SVG Version: 6.00 Build 0)  -->
<!DOCTYPE svg PUBLIC "-//W3C//DTD SVG 1.1//EN" "http://www.w3.org/Graphics/SVG/1.1/DTD/svg11.dtd">
<svg version="1.1" id="Layer_1" xmlns="http://www.w3.org/2000/svg" xmlns:xlink="http://www.w3.org/1999/xlink" x="0px" y="0px"
	 viewBox="0 0 220 250" enable-background="new 0 0 220 250" xml:space="preserve">
<g>
	<g>
		<polygon fill="#FFB74D" points="1.7,62.5 110,0 218.3,62.5 218.3,187.5 110,250 1.7,187.5 		"/>
		<polygon fill="#9B9DA0" points="110.3,172.7 110.3,172.7 110.3,172.7 		"/>
		<g>
			<defs>
				<polygon id="SVGID_1_" points="1.7,62.5 110,0 218.3,62.5 218.3,187.5 110,250 1.7,187.5 				"/>
			</defs>
			<clipPath id="SVGID_2_">
				<use xlink:href="#SVGID_1_"  overflow="visible"/>
			</clipPath>
			<path clip-path="url(#SVGID_2_)" fill="#FFA726" d="M112.5,59c0.3,0.3,0.5,0.5,0.7,0.8c2.1,2.5,2.2,5.4,0,7.8
				c-1.3,1.4-2.7,2.7-4,4.1l1.8,1.7c1.6-1.6,3.3-3.2,4.9-4.9c6.2,6.1,12.7,12.6,19,18.8c-1.6,1.6-3.2,3.2-4.9,4.9l1.6,1.6
				c0.9-0.9,1.8-1.8,2.8-2.8c3.8-3.8,6.6-3.8,10.4,0c0.9,0.9,1.9,1.8,2.7,2.8c2.1,2.5,2.2,5.4,0,7.8c-6.1,6.3-12.4,12.5-18.7,18.7
				c-0.9,0.9-2.4,1.3-3.4,1.8c-4.9-0.8-7.5-4.1-9.5-7.5c-1.7-2.9,0.2-5.4,2.3-7.5c0.9-0.9,1.8-1.8,2.6-2.6l-1.5-1.5
				c-1.8,1.8-3.6,3.7-5.5,5.5c-1-1.5-2.3-3.4-3.8-5.6c-1.6,1.5-2.3,2-2.9,2.6c-11.9,11.9-23.8,23.8-35.8,35.8
				c-1.1,1.1-2.3,2.1-1.2,3.9c0.1,0.2,0.1,0.4,0.1,0.7c0.1,2.4-8.8,8.9-11.9,10l165.5,96.8l13.5-123.1L111.5,57.9
				C111.8,58.3,112.2,58.6,112.5,59z"/>
		</g>
		<g>
			<path fill="#FFFFFF" d="M109.9,103c1.5,2.2,2.8,4.1,3.8,5.6c1.9-1.9,3.7-3.7,5.5-5.5l1.5,1.5c-0.9,0.9-1.8,1.8-2.6,2.6
				c-2.2,2.1-4,4.6-2.3,7.5c2,3.4,4.6,6.7,9.5,7.5c1-0.5,2.5-0.9,3.4-1.8c6.3-6.1,12.5-12.3,18.7-18.7c2.2-2.3,2.1-5.2,0-7.8
				c-0.8-1-1.8-1.9-2.7-2.8c-3.9-3.8-6.6-3.8-10.4,0c-0.9,0.9-1.8,1.8-2.8,2.8l-1.6-1.6c1.6-1.7,3.3-3.3,4.9-4.9
				c-6.3-6.2-12.8-12.7-19-18.8c-1.6,1.6-3.2,3.2-4.9,4.9l-1.8-1.7c1.3-1.4,2.7-2.7,4-4.1c2.2-2.3,2.1-5.2,0-7.8
				c-0.2-0.3-0.5-0.6-0.7-0.8c-0.3-0.4-0.7-0.7-1.1-1.1c-0.3-0.3-0.6-0.6-1-0.9c-2-2-3.8-2.9-5.5-2.8c-0.2,0-0.4,0-0.7,0.1
				c-1.3,0.3-2.7,1.2-4.3,2.7C94.7,62.3,89.4,67.7,84,73c-2.2,2.1-4,4.6-2.3,7.5c2,3.4,4.6,6.7,9.5,7.5c1-0.5,2.5-0.9,3.4-1.8
				c1.3-1.3,2.6-2.6,3.9-3.8l1.8,1.7c-1.7,1.7-3.5,3.5-5.2,5.2c1.3,1.4,2.9,3,4.6,4.9c-1,1-1.7,1.9-2.6,2.7
				c-11.5,11.5-22.9,22.9-34.4,34.4c-1.4,1.4-2.6,3.3-5.2,2c-0.7-0.3-2.3,0.5-3.2,1.2c-2.1,1.8-4,3.8-5.9,5.8
				c-2.1,2.1-2.1,4.3,0,6.4c2,2,4,4,6,6c0.4,0.4,0.9,0.9,1.3,1.3c0.4,0.4,0.7,0.7,1.1,1.1c0.7,0.7,1.9,1.3,2.9,1.4
				c0.1,0,0.2,0,0.2,0c0.2,0,0.4-0.1,0.7-0.2c3.2-1.1,9.6-8,9.5-10.3c0-0.2,0-0.5-0.1-0.7c-1.1-1.8,0.1-2.8,1.2-3.9
				c11.9-11.9,23.9-23.8,35.8-35.8C107.7,105,108.3,104.5,109.9,103z"/>
			<path fill="#FFFFFF" d="M172.9,153.3c-3,0-4.9-1-5.3-4.1c-0.3-2.4-1.8-3.4-4.1-3.4c-15.4,0-30.9-0.1-46.3,0.1
				c-1.3,0-3.5,1.6-3.8,2.8c-0.7,3.7-2.7,4.6-6,4.5c-4.5-0.1-5.6,1.2-5.5,5.7c0,4.5,1,5.5,5.7,5.5c10.9,0,21.8,0,32.7,0
				c11.1,0,22.3,0.1,33.4-0.1c1.6,0,4-0.8,4.7-2.1C181.1,157.8,178.3,153.3,172.9,153.3z"/>
		</g>
	</g>
</g>
</svg>
