<?xml version="1.0" encoding="utf-8"?>
<!-- Generator: Adobe Illustrator 18.0.0, SVG Export Plug-In . SVG Version: 6.00 Build 0)  -->
<!DOCTYPE svg PUBLIC "-//W3C//DTD SVG 1.1//EN" "http://www.w3.org/Graphics/SVG/1.1/DTD/svg11.dtd">
<svg version="1.1" id="Layer_1" xmlns="http://www.w3.org/2000/svg" xmlns:xlink="http://www.w3.org/1999/xlink" x="0px" y="0px"
	 viewBox="0 0 218 250" enable-background="new 0 0 218 250" xml:space="preserve">
<g>
	<polygon fill="#37B7B0" points="0.7,62.5 109,0 217.3,62.5 217.3,187.5 109,250 0.7,187.5 	"/>
	<g>
		<defs>
			<polygon id="SVGID_1_" points="0.7,62.5 109,0 217.3,62.5 217.3,187.5 109,250 0.7,187.5 			"/>
		</defs>
		<clipPath id="SVGID_2_">
			<use xlink:href="#SVGID_1_"  overflow="visible"/>
		</clipPath>
		<g clip-path="url(#SVGID_2_)">
			<polygon fill="#247573" points="77.5,71.5 84.1,75.3 81.5,76.5 75.1,77.1 75.1,75.9 			"/>
			<path fill="#247573" d="M177.8,92.1l-24.7,22l-34.5-5.6l3.1-4.6l29.3-10l-37.8-21.7l-6.3-0.8L85.2,76l-20.6,7.1L41.6,85l-7.7-3.3
				l-3.8-0.9l40.8,23.6c-3,0.2-11.9,1-12.4,1c-0.6,0-3,1.2-3,1.2l-5.6,13.1l-1.3,10.7l-1.4,13.8l-1.1,1.9l-0.4,1.8v4l129.7,74.9
				l48.3-0.6l7.6-103.2L177.8,92.1z"/>
			<g>
				<path fill="#FFFFFF" d="M88.2,153c15.6,0,31.1,0,46.7,0c-0.1-1.1-0.1-1.9-0.1-2.8c-15.6,0-31.1,0-46.5,0
					C88.2,151.2,88.2,152.1,88.2,153z"/>
				<path fill="#FFFFFF" d="M163.3,148.8c0,3.2,0,3.2,2.1,3.3c2.7,0.1,5.5,0.1,8.2-0.1c0.7,0,1.3-1,1.9-1.6
					c-0.6-0.5-1.2-1.5-1.9-1.6C170.2,148.8,166.8,148.8,163.3,148.8z"/>
				<path fill="#FFFFFF" d="M86.6,151.8c0-1.5,0-2.7,0-3.9c-1.5,0-2.8,0-4.1,0c0,1.4,0,2.6,0,3.9C83.9,151.8,85.1,151.8,86.6,151.8z
					"/>
				<path fill="#FFFFFF" d="M177.8,135.2c-1.1,0-2.2,0-3.6,0c0,4.3,0,8.3,0,12.6c-3.8,0-7.2,0.1-10.5-0.1c-0.7,0-1.5-0.8-1.9-1.4
					c-2.9-5.7-7.5-8.8-13.8-8.3c-6.6,0.5-10.8,4.5-12.8,10.9c-15.5,0-31,0-46.4,0c0-18.8,0-37.6,0-56.8c30.2,0,59.6,0,89.1,0
					C177.8,106.5,177.8,120.9,177.8,135.2z M170.6,135.3c-0.3,0-0.6,0-0.9,0.1c0,2.2,0,4.4,0,6.7c0.3,0,0.6,0,0.9,0
					C170.6,139.8,170.6,137.5,170.6,135.3z"/>
				<path fill="#FFFFFF" d="M45.7,147.8c1.8,0,3.7,0,5.7,0c0,1.2,0,2.5,0,4c-1.9,0-3.8,0-5.7,0C45.7,150.5,45.7,149.1,45.7,147.8z"
					/>
				<path fill="#FFFFFF" d="M86.7,103.2c0,14.5,0,28.6,0,42.8c-3,0.9-4.7,0.4-6.1-2.8c-2.3-5.2-6.8-7.9-12.6-8.1
					c-5.9-0.2-10.9,2.2-13.3,7.5c-1.9,4.3-4.6,4.1-8.6,3.4c1.1-9.9-2.3-20.1,3.2-29.7c2-3.5,3.3-7.4,5.2-11.1c0.4-0.9,1.6-2,2.5-2
					C66.7,103.1,76.5,103.2,86.7,103.2z M83.2,117.2c0-3.7,0-7,0-10.7c-8.4,0-16.6,0-24.8,0c-0.6,0-1.6,0.5-1.8,1
					c-2.1,5.6-4.2,11.2-6.2,16.7c7.4,1.4,13.8,0.7,18.8-5.3c0.9-1.1,3-1.5,4.6-1.7C76.9,117,80,117.2,83.2,117.2z"/>
				<path fill="#FFFFFF" d="M79.4,150.6c-0.1,6.6-5.4,11.9-12,11.9c-6.7,0-12-5.5-11.9-12.3c0.1-6.7,5.4-11.8,12.2-11.7
					C74.3,138.5,79.5,143.9,79.4,150.6z M72.7,151.6c0-2.9-2.4-5.2-5.3-5.2c-2.9,0-5.2,2.3-5.2,5.2c0,2.8,2.4,5.3,5.3,5.2
					C70.3,156.9,72.8,154.4,72.7,151.6z"/>
				<path fill="#FFFFFF" d="M148.7,140.1c6.2,0,11.2,4.8,11.2,11c0.1,6.3-5.1,11.5-11.3,11.4c-6.1-0.1-11.1-5.1-11.1-11.3
					C137.6,145,142.5,140.1,148.7,140.1z M148.6,146.3c-2.6,0.1-4.7,2.3-4.7,5c0,2.9,2.3,4.9,5.1,4.8c2.7-0.2,4.6-2.3,4.5-5.1
					C153.5,148.3,151.2,146.2,148.6,146.3z"/>
				<path fill="#FFFFFF" d="M88.2,153c0-0.9,0-1.8,0-2.8c15.5,0,30.9,0,46.5,0c0,0.9,0.1,1.8,0.1,2.8C119.3,153,103.9,153,88.2,153z
					"/>
				<path fill="#FFFFFF" d="M163.3,148.8c3.6,0,7-0.1,10.3,0.1c0.6,0,1.2,1,1.9,1.6c-0.6,0.5-1.2,1.5-1.9,1.6
					c-2.7,0.2-5.4,0.1-8.2,0.1C163.3,152.1,163.3,152,163.3,148.8z"/>
				<path fill="#FFFFFF" d="M86.6,151.8c-1.5,0-2.7,0-4.1,0c0-1.3,0-2.5,0-3.9c1.3,0,2.6,0,4.1,0C86.6,149.1,86.6,150.3,86.6,151.8z
					"/>
			</g>
			<path fill="#FFFFFF" d="M113.3,72.2c-0.2-0.1-0.3-0.2-0.5-0.3c-2.2-1.2-4.5-1.8-7-1.7c-1.8,0.1-3.5,0.6-5.3,1
				c-7.1,1.6-14.3,3.2-21.4,4.9c-1.1,0.3-1.8-0.2-2.6-0.6c0.4-0.1,0.8-0.2,1.1-0.4c0.3-0.1,0.6-0.3,0.7-0.6c0.4-0.9,0.4-1.8-0.2-2.6
				c-0.5-0.7-1.2-0.7-2-0.6c-1.6,0.4-3.2,0.8-4.9,1.1c-0.3,0.1-0.7,0.1-1-0.1c-3-1.5-6-2.9-9.1-4.4c-4.1-2-8.2-4-12.4-6.1
				c-1.4-0.7-2.7-1.5-4.3-1.1c-0.3,0.1-0.5,0.1-0.9,0.1c6.6,4.9,13.1,9.8,19.6,14.6c-0.5,0.8-0.4,1,0.3,1.4c0.4,0.2,0.8,0.2,1.1,0.3
				c0.2,0.1,0.5,0.1,0.5,0.2c0.2,0.5,0.4,1.1,0.6,1.7c-0.1,0-0.2,0.1-0.3,0.1c-5.2,1.2-10.3,2.5-15.5,3.7c-0.2,0.1-0.5,0-0.7-0.1
				c-2.6-1.3-5.1-2.5-7.7-3.8c-1.2-0.6-2.4-0.4-3.7,0.2c0.8,1.4,1.7,2.7,2.5,4c-0.3,0-0.4,0-0.6-0.1c-2.2-0.9-4.5-1.8-6.7-2.7
				c-1-0.4-1.9,0.1-3,0.4c3.2,2,6.3,3.9,9.5,5.8c-0.6,0.3-1.1,0.6-1.6,0.9c-0.3,0.2-0.4,0.4-0.3,0.7c0.1,0.2,0.3,0.4,0.5,0.5
				c0.5,0.1,1.1,0.1,1.7,0c1.4-0.2,2.1,0.6,2.6,1.6c0.4,0.9,1,1.7,1.5,2.5c0.1,0.2,0.5,0.4,0.8,0.4c0.4,0,0.9-0.1,1.3-0.3
				c0.2-0.1,0.5-0.4,0.5-0.6c0.2-0.9,0.3-1.9,0.5-2.8c0-0.3,0.1-0.5,0.5-0.5c1.3,0.1,2.5,0.2,3.8,0.2c1.6,0,3.3,0.2,4.9-0.2
				c2.4-0.6,4.8-1.2,7.2-1.7c1.1-0.2,2.3-0.4,3.4-0.5c1.7,0,3.5,0.1,5.2-0.4c0.2-0.1,0.4,0,0.6,0.1c1.3,0.7,2.7,1.5,4,2.2
				c0.3,0.2,0.6,0.4,0.7,0.7c1.4,2.2,2.7,4.4,4.1,6.6c0.9,1.5,0.9,1.5,2.7,1.1c0.3-0.1,0.4-0.2,0.4-0.5c0.1-0.8,0.2-1.7,0.3-2.5
				c0.2-1.4,0.3-2.8,0.5-4.2c1.2-0.3,2.3-0.5,3.4-0.8c0.9-0.2,1.2-0.8,1.1-1.8c-0.1-1-0.6-1.4-1.5-1.4c-0.9,0.1-1.7,0.2-2.6,0.3
				c0.1-0.9,0.2-1.8,0.3-2.8c0.1-0.9,0.2-1.1,1.1-1.3c5.2-1.2,10.5-2.3,15.7-3.5c2.7-0.6,5.3-1.3,7.7-2.6c1-0.6,2-1.1,2.7-2.1
				C113.9,73.2,113.9,72.7,113.3,72.2z M89.9,79.1l-1.4,0.3c-0.3,0.1-0.5-0.1-0.6-0.4c0-0.3,0.1-0.5,0.4-0.6l1.4-0.3
				c0.3-0.1,0.5,0.1,0.6,0.4C90.3,78.7,90.1,79,89.9,79.1z M93.4,78.2l-1.4,0.3c-0.3,0.1-0.5-0.1-0.6-0.4c0-0.3,0.1-0.5,0.4-0.6
				l1.4-0.3c0.3-0.1,0.5,0.1,0.6,0.4C93.9,77.9,93.7,78.2,93.4,78.2z M97,77.3l-1.4,0.3c-0.3,0.1-0.5-0.1-0.6-0.4
				c0-0.3,0.1-0.5,0.4-0.6l1.4-0.3c0.3-0.1,0.5,0.1,0.6,0.4C97.4,77,97.3,77.3,97,77.3z M100.5,76.5l-1.4,0.3
				c-0.3,0.1-0.5-0.1-0.6-0.4c0-0.3,0.1-0.5,0.4-0.6l1.4-0.3c0.3-0.1,0.5,0.1,0.6,0.4C101,76.2,100.8,76.4,100.5,76.5z M104.1,75.6
				l-1.4,0.3c-0.3,0.1-0.5-0.1-0.6-0.4c0-0.3,0.1-0.5,0.4-0.6l1.4-0.3c0.3-0.1,0.5,0.1,0.6,0.4C104.6,75.3,104.4,75.6,104.1,75.6z
				 M109,72.7c-0.6,2.1-3.6,2.6-3.6,2.6l-0.4-0.6c0,0,0.5-0.3,1.2-0.5c2.2-0.9,1.9-2,1.9-2s0.2-0.1,0.7,0.1
				C109.1,72.3,109,72.7,109,72.7z"/>
		</g>
	</g>
</g>
</svg>
