<?xml version="1.0" encoding="utf-8"?>
<!-- Generator: Adobe Illustrator 18.0.0, SVG Export Plug-In . SVG Version: 6.00 Build 0)  -->
<!DOCTYPE svg PUBLIC "-//W3C//DTD SVG 1.1//EN" "http://www.w3.org/Graphics/SVG/1.1/DTD/svg11.dtd">
<svg version="1.1" id="Layer_1" xmlns="http://www.w3.org/2000/svg" xmlns:xlink="http://www.w3.org/1999/xlink" x="0px" y="0px"
	 viewBox="0 0 220 250" enable-background="new 0 0 220 250" xml:space="preserve">
<g>
	<polygon fill="#FFD54F" points="1.6,62.5 109.9,0 218.1,62.5 218.1,187.5 109.9,250 1.6,187.5 	"/>
	<g>
		<defs>
			<polygon id="SVGID_1_" points="1.6,62.5 109.9,0 218.1,62.5 218.1,187.5 109.9,250 1.6,187.5 			"/>
		</defs>
		<clipPath id="SVGID_2_">
			<use xlink:href="#SVGID_1_"  overflow="visible"/>
		</clipPath>
		<g clip-path="url(#SVGID_2_)">
			<polygon fill="#F4BD21" points="142.8,73.9 218.3,117.7 219.3,202.8 185.6,217.9 112.8,175.9 82.7,132.9 82.7,127.2 95.8,123.7 
				112.3,115.4 115,95.6 114.8,81.1 			"/>
			<polygon fill="#F4BD21" points="71.3,103.6 98.2,119.2 102.3,120.6 110.9,117.6 116.3,102.7 105,100.4 			"/>
			<path fill="#F4BD21" d="M71.4,83.4l3.8-1.3l21-2.1c0,0,9.8,3.1,10,3.4c0.2,0.3,7.6,14.1,7.6,14.1l-12.6,3L71.4,83.4z"/>
			<path fill="#FFFFFF" d="M74.9,121.5c0,0.3,0,0.6,0,0.8c0,2.6,0,5.1,0,7.7c0,0.6,0.2,1.1,0.6,1.6c0.7,0.7,1.3,1.5,2,2.3
				c11.4,13.4,35.4,41.9,35.4,41.9h16.6c0,0-20.2-24.2-29-34.9c-3.1-3.7-6.1-7.5-9.2-11.2c-0.2-0.3-0.3-0.7-0.5-1.1
				c0.3,0,0.4-0.1,0.5-0.1c4.8-0.1,9.5-1,14-2.7c10.2-3.9,16.7-10.9,18.9-21.7c0.1-0.6,0.4-0.7,0.9-0.7c3.6,0,7.1,0,10.7,0
				c0.5,0,0.8-0.1,1-0.5c1.8-2.8,3.7-5.6,5.6-8.4c0.1-0.2,0.2-0.4,0.4-0.7c-0.4,0-0.6,0-0.8,0c-5.6,0-11.3,0-16.9,0
				c-1.2,0-1.1,0-1.4-1.1c-0.7-3.1-2-5.9-3.9-8.5c-0.2-0.3-0.4-0.6-0.8-1c0.5,0,0.8,0,1.1,0c5.3,0,10.6,0,15.9,0
				c0.5,0,0.8-0.1,1.1-0.6c1.8-2.8,3.7-5.5,5.5-8.3c0.1-0.2,0.3-0.4,0.4-0.7c-0.3,0-0.6,0-0.8,0c-21.2,0-42.4,0-63.6,0
				c-0.5,0-0.8,0.2-1.1,0.6c-1.8,2.8-3.7,5.5-5.5,8.3c-0.1,0.2-0.2,0.4-0.4,0.7c0.4,0,0.7,0,1,0c5.2,0,10.3,0,15.5,0
				c3.5,0,7,0.6,10.3,1.8c4.1,1.5,7.5,3.7,9.9,7.4c0.2,0.4,0.4,0.8,0.7,1.3c-0.5,0-0.8,0-1.2,0c-9.7,0-19.5,0-29.2,0
				c-0.5,0-0.8,0.1-1.1,0.5c-1.9,2.9-3.8,5.7-5.7,8.6c-0.1,0.1-0.1,0.3-0.3,0.6c13.1,0,26,0,39,0c-0.1,0.7-0.1,1.3-0.2,1.9
				c-1.2,6.3-5,10.5-10.6,13.2c-6,2.9-12.4,3.4-18.9,3.2C78.7,121.8,76.8,121.6,74.9,121.5z"/>
		</g>
	</g>
</g>
</svg>
