<?xml version="1.0" encoding="utf-8"?>
<!-- Generator: Adobe Illustrator 18.0.0, SVG Export Plug-In . SVG Version: 6.00 Build 0)  -->
<!DOCTYPE svg PUBLIC "-//W3C//DTD SVG 1.1//EN" "http://www.w3.org/Graphics/SVG/1.1/DTD/svg11.dtd">
<svg version="1.1" id="Layer_1" xmlns="http://www.w3.org/2000/svg" xmlns:xlink="http://www.w3.org/1999/xlink" x="0px" y="0px"
	 viewBox="0 0 220 250" enable-background="new 0 0 220 250" xml:space="preserve">
<g>
	<polygon fill="#64B5F6" points="1.7,62.5 110,0 218.3,62.5 218.3,187.5 110,250 1.7,187.5 	"/>
	<path fill="#FFFFFF" d="M129.2,175.5c3.7,0,6.7-3.3,6.8-7.3c0-4-3-7.3-6.7-7.3c-3.7,0-6.7,3.2-6.7,7.3
		C122.6,172.3,125.6,175.5,129.2,175.5z"/>
	<line fill="none" x1="61.7" y1="146.2" x2="100.1" y2="169.3"/>
	<g>
		<g>
			<polygon fill="#42A5F5" points="66.5,74.4 90.7,88.3 89.3,90.3 71.5,91.1 67.7,86.9 64.1,77.7 			"/>
			<path fill="#42A5F5" d="M94.1,110c3.8,0,7.5,0,11.3,0c0-4.8,0-9.6,0-14.4c-4.4,0-8.6,0-12.9,0C93,100.5,93.5,105.3,94.1,110z"/>
			<path fill="#42A5F5" d="M77.4,117.4c1.1,4.9,2.2,9.6,3.3,14.4c3.1,0,6.1,0,9.1,0c-0.6-4.8-1.1-9.6-1.7-14.4
				C84.5,117.4,81,117.4,77.4,117.4z"/>
			<path fill="#42A5F5" d="M85.6,95.6c-4.4,0-8.8,0-13.3,0c1.1,4.9,2.2,9.7,3.3,14.4c3.9,0,7.7,0,11.6,0
				C86.7,105.2,86.2,100.4,85.6,95.6z"/>
			<path fill="#42A5F5" d="M96.6,131.8c3,0,5.8,0,8.7,0c0-4.8,0-9.6,0-14.4c-3.5,0-6.9,0-10.4,0C95.5,122.3,96,127.1,96.6,131.8z"/>
			<path fill="#42A5F5" d="M130.2,110.1c3.9,0,7.7,0,11.6,0c1.1-4.8,2.2-9.6,3.3-14.4c-4.5,0-8.9,0-13.3,0
				C131.3,100.5,130.7,105.2,130.2,110.1z"/>
			<path fill="#42A5F5" d="M112.2,131.9c2.9,0,5.8,0,8.7,0c0.6-4.9,1.1-9.6,1.7-14.4c-3.5,0-6.9,0-10.4,0
				C112.2,122.3,112.2,127.1,112.2,131.9z"/>
			<path fill="#42A5F5" d="M127.6,131.8c3.1,0,6.1,0,9.1,0c1.1-4.8,2.2-9.6,3.3-14.4c-3.6,0-7.2,0-10.8,0
				C128.7,122.3,128.2,127,127.6,131.8z"/>
			<path fill="#42A5F5" d="M112.1,110.1c3.7,0,7.4,0,11.2,0c0.6-4.8,1.1-9.6,1.7-14.4c-4.3,0-8.6,0-12.9,0
				C112.1,100.5,112.1,105.2,112.1,110.1z"/>
		</g>
	</g>
	<g>
		<defs>
			<polygon id="SVGID_1_" points="1.7,62.5 110,0 218.3,62.5 218.3,187.5 110,250 1.7,187.5 			"/>
		</defs>
		<clipPath id="SVGID_2_">
			<use xlink:href="#SVGID_1_"  overflow="visible"/>
		</clipPath>
		<path clip-path="url(#SVGID_2_)" fill="#42A5F5" d="M88.1,175.5c-0.5,0-1-0.1-1.5-0.2l142.1,83l20.6-112.8l-96.9-55.2
			c0.1,0.2,0.2,0.5,0.4,0.7c0,0.6,0,1.2,0,1.8c-0.7,2.9-1.4,5.7-2.1,8.6c-2.7,11.5-5.3,23.1-8,34.6c-0.5,2.1-1.7,3.1-3.7,3.1
			c-18.2,0-36.4,0-54.5,0c-0.6,0-1.3,0-2.1,0c0.6,2.5,1.1,5,1.7,7.4l1,3.5c0.3,0,0.7,0,1,0c16.7,0,33.5,0,50.2,0
			c2,0,3.3,0.9,3.8,2.6c0.7,2.4-0.9,4.7-3.3,4.7c-5.5,0-10.9,0-16.4,0c-11.1,0-22.2,0-33.3,0l1,3.6c0.1,0,0.2,0,0.3,0
			c3.6,0,6.6,3.3,6.6,7.3C94.9,172.3,91.8,175.5,88.1,175.5z M129.2,161c3.7,0,6.7,3.3,6.7,7.3c0,4-3,7.3-6.8,7.3
			c-3.7,0-6.7-3.3-6.7-7.2C122.6,164.2,125.5,161,129.2,161z"/>
	</g>
	<g>
		<path fill="#FFFFFF" d="M71.8,88.3c-0.4,0-0.8,0-1.2,0c-0.9-3.8-1.7-7.5-2.6-11.3c-0.5-2.3-1.6-3.3-3.9-3.3c-4.8,0-9.6,0.1-14.5,0
			c-2.1,0-3.5,0.7-4.3,2.8c0,0.6,0,1.2,0,1.8c0.8,2.1,2.3,2.8,4.3,2.8c3.8-0.1,7.5,0,11.3,0c0.3,0,0.7,0,1,0
			c0.1,0.3,0.1,0.4,0.1,0.6c5.5,24,11,47.9,16.6,71.9c0.7,3.1,1.6,3.8,4.5,3.8c12.3,0,24.7,0,37,0c5.5,0,10.9,0,16.4,0
			c2.4,0,4-2.3,3.3-4.7c-0.5-1.7-1.7-2.6-3.8-2.6c-16.7,0-33.5,0-50.2,0c-0.4,0-0.8,0-1.1,0c-0.8-3.7-1.7-7.2-2.5-10.9
			c0.8,0,1.4,0,2.1,0c18.2,0,36.4,0,54.5,0c2,0,3.2-1,3.7-3.1c2.7-11.5,5.3-23.1,8-34.6c0.7-2.9,1.4-5.8,2.1-8.6c0-0.6,0-1.2,0-1.8
			c-0.1-0.3-0.2-0.5-0.4-0.7c-0.8-1.3-1.9-1.9-3.4-2c-0.2,0-0.4,0-0.5,0C122.9,88.3,97.4,88.3,71.8,88.3z M72.3,95.6
			c4.5,0,8.8,0,13.3,0c0.6,4.8,1.1,9.6,1.7,14.4c-3.9,0-7.7,0-11.6,0C74.6,105.3,73.5,100.5,72.3,95.6z M80.7,131.8
			c-1.1-4.8-2.2-9.6-3.3-14.4c3.6,0,7.1,0,10.8,0c0.6,4.8,1.1,9.6,1.7,14.4C86.8,131.8,83.8,131.8,80.7,131.8z M105.3,131.8
			c-2.9,0-5.8,0-8.7,0c-0.6-4.8-1.1-9.5-1.7-14.4c3.5,0,6.9,0,10.4,0C105.3,122.2,105.3,127,105.3,131.8z M105.3,110
			c-3.7,0-7.4,0-11.3,0c-0.6-4.8-1.1-9.6-1.7-14.4c4.3,0,8.6,0,12.9,0C105.3,100.5,105.3,105.2,105.3,110z M120.9,131.9
			c-2.9,0-5.8,0-8.7,0c0-4.8,0-9.6,0-14.4c3.4,0,6.9,0,10.4,0C122,122.2,121.4,127,120.9,131.9z M123.4,110.1c-3.8,0-7.5,0-11.2,0
			c0-4.8,0-9.6,0-14.4c4.3,0,8.6,0,12.9,0C124.5,100.5,123.9,105.2,123.4,110.1z M136.7,131.8c-3,0-6,0-9.1,0
			c0.6-4.8,1.1-9.5,1.7-14.4c3.6,0,7.1,0,10.8,0C139,122.2,137.9,127,136.7,131.8z M141.8,110.1c-3.9,0-7.7,0-11.6,0
			c0.6-4.8,1.1-9.6,1.7-14.4c4.4,0,8.8,0,13.3,0C144,100.5,142.9,105.2,141.8,110.1z"/>
		<path fill="#FFFFFF" d="M94.9,168.3c0-4-3-7.3-6.6-7.3c-3.8,0-6.8,3.2-6.8,7.3c0,2,0.8,3.9,2.1,5.2c0.8,0.9,1.9,1.5,3.1,1.8
			c0.5,0.1,1,0.2,1.5,0.2C91.8,175.5,94.9,172.3,94.9,168.3z"/>
		<path fill="#FFFFFF" d="M136,168.3c0-4-3-7.3-6.6-7.3c-3.8,0-6.8,3.2-6.8,7.3c0,2,0.8,3.9,2.1,5.2c0.8,0.9,1.9,1.5,3.1,1.8
			c0.5,0.1,1,0.2,1.5,0.2C132.9,175.5,136,172.3,136,168.3z"/>
	</g>
</g>
</svg>
