<?xml version="1.0" encoding="UTF-8" standalone="no"?>
<!-- Generator: Adobe Illustrator 18.0.0, SVG Export Plug-In . SVG Version: 6.00 Build 0)  -->
<!DOCTYPE svg  PUBLIC '-//W3C//DTD SVG 1.1//EN'  'http://www.w3.org/Graphics/SVG/1.1/DTD/svg11.dtd'>
<svg id="Layer_1" xmlns="http://www.w3.org/2000/svg" xml:space="preserve" viewBox="0 0 1366 715" version="1.1" y="0px" x="0px" xmlns:xlink="http://www.w3.org/1999/xlink" enable-background="new 0 0 1366 715">
	<linearGradient id="SVGID_1_" y2="710.99" gradientUnits="userSpaceOnUse" x2="683" y1="3.1744" x1="683">
		<stop stop-color="#FFD54F" offset="0"/>
		<stop stop-color="#FFC107" offset="1"/>
	</linearGradient>
	<rect width="1366" height="715" fill="url(#SVGID_1_)"/>
					<path d="m767.9 378.9c12.5 0 22.6-10.1 22.6-22.6s-10.1-22.6-22.6-22.6c-0.7 0-1.5 0-2.2 0.1 2.4-4.2 3.8-9 3.8-14.2 0-15.6-12.7-28.3-28.3-28.3-7.1 0-13.5 2.6-18.5 6.9-4.8-26.8-28.2-47.1-56.3-47.1-31.6 0-57.2 25.6-57.2 57.2 0 3.1 0.2 6 0.7 9-1.2-0.1-2.3-0.2-3.5-0.2-17 0-30.9 13.8-30.9 30.9 0 15.8 11.9 28.9 27.3 30.6l165.1 0.3z" fill="#fff"/>
	<g opacity=".02">
		<polygon points="401.5 195 683 32.5 964.5 195 964.5 520 683 682.5 401.5 520" fill="#2895F1"/>
			<defs>
				<polygon id="SVGID_2_" points="401.5 195 683 32.5 964.5 195 964.5 520 683 682.5 401.5 520"/>
			</defs>
			<clipPath id="SVGID_3_">
				<use overflow="visible" xlink:href="#SVGID_2_"/>
			</clipPath>
			<polyline fill="#9B9DA0" points="493.2 462.2 462.5 371.4 476.4 337.9 563.8 277 636.9 211.8 734.8 200.6 766 197.1 1019.4 341.5 1021.2 769.9" clip-path="url(#SVGID_3_)"/>
		<path d="m917.6 368.5c-0.1 0.3-0.1 0.6-0.2 1v1.2 1.8c0 1.7-0.2 3.3-0.4 5l-0.6 4.2c-0.5 3.2-1.1 6.4-1.9 9.6-4.4 17.5-12.5 33.1-24.2 46.8-10.1 11.8-22.1 21.2-35.7 28.6-9.9 5.3-20.3 9.1-31.2 11.6-3 0.7-6 1.3-9.1 1.8-2.2 0.4-4.5 0.6-6.7 0.9-1.4 0.2-2.7 0.2-4.1 0.3-1.9 0.2-3.8 0.2-5.7 0.3-1.5 0.1-3.1 0.2-4.6 0.3-0.4 0-0.7 0.1-1.1 0.1-2.7 0.1-5.5 0.2-8.2 0.3-7 0.3-14 0.3-21 0.2-3.3 0-6.6-0.1-9.9-0.2-1.8 0-3.6 0-5.4-0.1-2.6-0.1-5.2-0.1-7.7-0.2-0.5 0-1.1-0.1-1.7 0.1-0.3 0.3-0.6 0.7-0.9 1-12.9 13.4-25.9 26.8-38.8 40.3-3.2 3.3-6.3 6.5-9.5 9.8l-0.7 0.7c-0.3 0.3-0.4 0.3-0.8 0-0.2-0.1-0.3-0.2-0.5-0.4-11.1-8.2-22.1-16.4-33.1-24.6-0.2-0.2-0.5-0.4-0.7-0.5 0 0-0.1-0.3 0-0.4 0.2-0.2 0.3-0.4 0.5-0.6 3.5-3.8 7-7.6 10.4-11.5 11.7-12.8 23.4-25.7 35.1-38.5 4.7-5.2 9.4-10.4 14.2-15.5 0.4-0.4 0.7-0.8 1.1-1.2 0.5-0.1 1.1-0.1 1.6-0.1 3.2-0.1 6.3-0.1 9.5 0 2.3 0.1 4.7 0.1 7 0.2 2.9 0.1 5.7 0.2 8.6 0.3 0.7 0 1.4 0.1 2.1 0.1 3.4 0.1 6.7 0.3 10.1 0.4 1 0 1.9 0.1 2.9 0.1 4.1 0.1 8.2 0.3 12.4 0.2 2.8 0 5.6-0.1 8.4-0.2 2.3 0 4.6-0.2 6.9-0.3 2.3-0.2 4.6-0.4 6.8-0.6 2.7-0.3 5.5-0.7 8.2-1.1 0.8-0.1 1.6-0.3 2.5-0.4 0.3-0.1 0.7-0.1 0.9-0.3s0.5-0.2 0.7-0.2c1.2-0.2 2.5-0.4 3.7-0.6 2-0.3 3.9-0.9 5.8-1.4 2.5-0.7 5-1.5 7.5-2.3 3-1.1 6-2.4 8.8-3.9 9-4.6 16.8-10.7 23.4-18.3 6.9-8 12-17 15-27.2 1-3.3 1.7-6.7 2.2-10.1 0.7-4.6 0.9-9.2 0.6-13.8-0.5-9.5-2.9-18.6-7-27.2-4.3-9-10.3-16.7-17.7-23.3-9.4-8.4-20.3-14.1-32.4-17.4-3-0.8-6-1.4-9-1.9-1.7-0.3-3.4-0.5-5.1-0.6-1.2-0.1-2.3-0.2-3.5-0.2-0.4 0-0.6-0.2-0.7-0.5s-0.3-0.6-0.4-0.9c-10.4-25.3-30.5-46.3-56.2-57.7-6.6-2.9-13.4-5.2-20.5-6.7-2.5-0.5-5.1-1-7.6-1.4-1.8-0.3-3.6-0.5-5.3-0.6-1.7-0.2-3.4-0.2-5.1-0.4-0.8-0.1-1.6-0.1-2.4-0.1h-6.3c-2 0.1-4 0.2-6 0.4-1.1 0.1-2.2 0.2-3.4 0.3-1.4 0.2-2.7 0.3-4.1 0.6-2.7 0.4-5.4 1-8.1 1.6-11.2 2.7-21.6 7-31.4 13-14.2 8.8-25.8 20.3-34.8 34.4-2.4 3.7-4.3 7.7-6 11.8-2 4.9-3.6 9.9-5 14.9-1.2 4.3-2.2 8.6-3 12.9 0 0.2-0.1 0.3-0.1 0.5 0 0.1-0.2 0.3-0.4 0.3h-0.6c-1.6-0.2-3.1-0.4-4.7-0.6-0.9-0.1-1.8-0.2-2.7-0.3-1.4-0.1-2.7-0.2-4.1-0.3-2.2-0.2-4.3-0.2-6.5-0.3-1.9-0.1-3.8-0.1-5.7 0-1.1 0.1-2.3 0.1-3.4 0.2-1.4 0.1-2.7 0.2-4.1 0.4-1.4 0.1-2.7 0.3-4.1 0.6-5.5 0.9-10.9 2.6-15.9 5-7.3 3.6-14 8.1-19.9 13.7-5.8 5.5-10.6 11.9-14.1 19.1-2.5 5.1-4.3 10.5-5.3 16.1-0.8 4.3-1.1 8.6-0.9 13 0.4 10.4 3.4 20 8.7 28.9 1.3 2.3 2.9 4.4 4.6 6.4 4.6 5.8 10 10.7 16.1 14.9 6.9 4.9 14.3 8.6 22.3 11.4 1 0.3 1 0.3 2.1 0.3 7.3-0.1 14.5-0.1 21.8-0.2 7.4 0 14.8-0.1 22.3-0.1 3.8 0 7.6-0.1 11.4-0.1 4.3 0 8.5-0.1 12.8-0.1h1.1c0.3 0 0.5-0.1 0.7-0.3l0.8-0.8c10.9-11.9 21.8-23.8 32.7-35.7 3.7-4 7.3-8 11-12 0.3-0.3 0.5-0.6 0.8-0.8 0 0 0.1-0.2 0.2-0.3-0.2-0.4-0.6-0.7-0.9-1l-11.9-11.9-0.8-0.8c-0.1-0.1-0.1-0.2-0.1-0.2 0-0.1 0.1-0.2 0.2-0.2 0.4 0 0.7-0.1 1.1-0.1 2.2-0.1 4.3-0.2 6.5-0.3 2-0.1 4-0.3 6-0.4l6-0.3c2.2-0.1 4.4-0.3 6.6-0.4h0.5c2.2-0.1 4.3-0.2 6.5-0.3 2-0.1 4-0.3 6-0.4h0.5c2.2-0.1 4.3-0.2 6.5-0.3 2-0.1 4-0.3 6-0.4s3.9-0.2 5.9-0.3c0.9 0 1.7-0.1 2.6-0.2 0.4 0 0.6 0.1 0.6 0.5 0.1 0.4 0.1 0.7 0.1 1.1 0.1 1.7 0.3 3.3 0.4 5 0.1 1.1 0.2 2.2 0.3 3.2 0.1 1.4 0.2 2.7 0.3 4.1s0.3 2.7 0.4 4.1c0.1 1 0.2 2.1 0.3 3.1 0.1 1.4 0.2 2.7 0.3 4.1s0.3 2.8 0.4 4.2c0.1 1.1 0.2 2.2 0.3 3.4 0.1 1.4 0.2 2.7 0.3 4.1s0.2 2.7 0.4 4.1c0.1 1 0.2 2.1 0.3 3.1 0.1 1.4 0.2 2.7 0.3 4.1s0.3 2.8 0.4 4.2v1.2s-0.1 0.1-0.2 0.1c-0.3-0.2-0.6-0.3-0.9-0.5-2.5-1.7-5-3.4-7.4-5.1-2.4-1.6-4.8-3.3-7.2-4.9-0.2-0.2-0.5-0.3-0.7-0.5-0.3-0.2-0.5-0.2-0.8 0.1s-0.5 0.6-0.8 0.8c-3.1 3.5-6.2 7-9.3 10.4-11.1 12.5-22.3 25-33.5 37.3-3.7 4-7.4 8-11 11.9l-3.9 3.9c-0.5 0.5-0.9 1-1.5 1.3-0.6 0-1.2 0.1-1.7 0.1h-101.9-0.3c-0.8 0.1-1.6-0.1-2.3-0.3-4.9-1.4-9.7-3-14.4-4.9-9.1-3.7-17.7-8.3-25.8-13.9-7.5-5.3-14.3-11.3-20.4-18.2-9.7-11.2-16.7-23.8-20.9-38.1-1-3.4-1.8-6.9-2.4-10.5-0.5-2.8-0.9-5.5-1.1-8.3-0.2-1.7-0.2-3.3-0.3-5 0-0.6-0.1-1.2-0.1-1.7 0-0.3-0.2-0.5-0.4-0.6v-6c0.2-0.1 0.4-0.4 0.4-0.6 0-0.3 0.1-0.7 0.1-1 0.1-2.5 0.4-5 0.7-7.5 0.6-3.8 1.4-7.6 2.4-11.4 2.1-7.3 5-14.3 8.8-20.9 5-9 11.3-17.2 18.5-24.6 11.2-11.4 24.2-20.4 38.8-26.9 9.5-4.2 19.3-7.3 29.5-9 0.3-0.1 0.6-0.2 1-0.3 0.2-0.4 0.3-0.7 0.5-1 6.6-14.5 15.4-27.5 26.2-39.2 12-12.9 25.8-23.5 41.3-31.8 18.2-9.7 37.6-15.7 58.1-18.1 0.9-0.1 1.8-0.2 2.7-0.3 1.4-0.1 2.8-0.3 4.2-0.4 2-0.1 4.1-0.2 6.1-0.3 0.4 0 0.8 0 1.1-0.2h10.8c0.3 0.1 0.6 0.2 0.8 0.2 1.9 0.1 3.7 0.2 5.6 0.3l4.2 0.3c1.8 0.2 3.6 0.4 5.5 0.6 2.9 0.3 5.9 0.8 8.8 1.4 4.6 0.9 9.2 1.9 13.8 3.2 15.7 4.3 30.4 10.8 44.2 19.6 18.7 12 34.3 27.2 46.5 45.8 0.7 1 0.4 0.9 1.7 1.3 6.8 2 13.5 4.6 19.9 7.7 15.4 7.6 28.8 17.8 39.9 30.9 11.5 13.6 19.5 29 23.8 46.3 0.8 3.2 1.5 6.4 1.9 9.7l0.6 4.2c0.2 1.6 0.4 3.1 0.4 4.7v1.8c0 0.5 0 1 0.1 1.5 0 0.3 0.1 0.7 0.2 1-0.6 1.9-0.6 4.4-0.6 6.9z" fill="#fff"/>
	</g>
	<g fill="#2E3192">
		<path d="m697.2 338.9c0.7 3.9-2.6 7.2-6.5 6.5-2.2-0.4-3.9-2.2-4.3-4.3-0.7-3.9 2.6-7.2 6.5-6.5 2.1 0.4 3.9 2.2 4.3 4.3z"/>
		<path d="m726.8 338.9c0.7 3.9-2.6 7.2-6.5 6.5-2.2-0.4-3.9-2.2-4.3-4.3-0.7-3.9 2.6-7.2 6.5-6.5 2.1 0.4 3.9 2.2 4.3 4.3z"/>
		<path d="m756.4 338.9c0.7 3.9-2.6 7.2-6.5 6.5-2.2-0.4-3.9-2.2-4.3-4.3-0.7-3.9 2.6-7.2 6.5-6.5 2.1 0.4 3.9 2.2 4.3 4.3z"/>
		<circle cy="340" cx="632.6" r="5.5"/>
		<circle cy="340" cx="603" r="5.5"/>
		<circle cy="340" cx="662.2" r="5.5"/>
	</g>
	<g stroke-miterlimit="10" stroke="#2E3192" stroke-width="2" stroke-linecap="round" fill="none">
		<polyline points="366 408.8 355 397.8 325.7 397.8"/>
			<circle r="4.6" cy="397.7" cx="321.1"/>
	</g>
	<g stroke-miterlimit="10" stroke="#2E3192" stroke-width="2" stroke-linecap="round" fill="none">
		<polyline points="549.5 397.3 538.5 386.3 509.2 386.3"/>
			<circle r="4.6" cy="386.2" cx="504.6"/>
	</g>
	<g stroke-miterlimit="10" stroke="#2E3192" stroke-width="2" stroke-linecap="round" fill="none">
		<polyline points="543.8 410.1 532.8 421.1 503.5 421.1"/>
			<circle r="4.6" cy="421.2" cx="498.9"/>
	</g>
	<g stroke-miterlimit="10" stroke="#2E3192" stroke-width="2" stroke-linecap="round" fill="none">
		<polyline points="318.4 410.1 307.4 421.1 278.2 421.1"/>
			<circle r="4.6" cy="421.2" cx="273.6"/>
	</g>
	<g stroke-miterlimit="10" stroke="#2E3192" stroke-width="2" stroke-linecap="round" fill="none">
		<polyline points="1004.9 383.3 1015.9 394.2 1045.2 394.2"/>
			<circle r="4.6" cy="394.4" cx="1049.8"/>
	</g>
	<g stroke-miterlimit="10" stroke="#2E3192" stroke-width="2" stroke-linecap="round" fill="none">
		<polyline points="858.2 400.9 869.2 411.9 898.5 411.9"/>
			<circle r="4.6" cy="412" cx="903.1"/>
	</g>
	<g stroke-miterlimit="10" stroke="#2E3192" stroke-width="2" stroke-linecap="round" fill="none">
		<polyline points="750.1 393 761.1 404 790.4 404"/>
			<circle r="4.6" cy="404.1" cx="794.9"/>
	</g>
	<g stroke-miterlimit="10" stroke="#2E3192" stroke-width="2" stroke-linecap="round" fill="none">
		<polyline points="905.9 382.9 916.9 371.9 946.2 371.9"/>
			<circle r="4.6" cy="371.8" cx="950.8"/>
	</g>
	<g stroke-miterlimit="10" stroke="#2E3192" stroke-width="2" stroke-linecap="round" fill="none">
		<polyline points="244.5 489.7 233.5 500.7 233.5 530"/>
			<circle r="4.6" cy="534.6" cx="233.4"/>
	</g>
	<g stroke-miterlimit="10" stroke="#2E3192" stroke-width="2" stroke-linecap="round" fill="none">
		<polyline points="470 441.9 459 452.9 459 482.2"/>
			<circle r="4.6" cy="486.8" cx="458.9"/>
	</g>
	<g stroke-miterlimit="10" stroke="#2E3192" stroke-width="2" stroke-linecap="round" fill="none">
		<polyline points="687.5 493.7 676.5 504.7 676.5 534"/>
			<circle r="4.6" cy="538.6" cx="676.4"/>
	</g>
	<g stroke-miterlimit="10" stroke="#2E3192" stroke-width="2" stroke-linecap="round" fill="none">
		<polyline points="662.2 381.6 651.2 392.6 651.2 421.9"/>
			<circle r="4.6" cy="426.4" cx="651.1"/>
	</g>
	<g stroke-miterlimit="10" stroke="#2E3192" stroke-width="2" stroke-linecap="round" fill="none">
		<polyline points="1080.5 410.2 1069.5 421.2 1069.5 450.5"/>
			<circle r="4.6" cy="455.1" cx="1069.4"/>
	</g>
	<g stroke-miterlimit="10" stroke="#2E3192" stroke-width="2" stroke-linecap="round" fill="none">
		<polyline points="470.5 516.3 479.9 525.8 479.9 550.9"/>
			<circle r="3.9" cy="554.8" cx="480"/>
	</g>
	<g stroke-miterlimit="10" stroke="#2E3192" stroke-width="2" stroke-linecap="round" fill="none">
		<polyline points="245 435.3 254.4 444.8 254.4 469.9"/>
			<circle r="3.9" cy="473.8" cx="254.5"/>
	</g>
	<g stroke-miterlimit="10" stroke="#2E3192" stroke-width="2" stroke-linecap="round" fill="none">
		<polyline points="963.9 446.5 973.4 455.9 973.4 481"/>
			<circle r="3.9" cy="484.9" cx="973.5"/>
	</g>
	<g stroke-miterlimit="10" stroke="#2E3192" stroke-width="2" stroke-linecap="round" fill="none">
		<polyline points="1081.4 456.3 1090.8 465.7 1090.8 490.8"/>
			<circle r="3.9" cy="494.7" cx="1090.9"/>
	</g>
		<g fill="#fff">
			<path d="m525.1 509v-58l0.3-0.9c1.1-3.2 3.3-5.1 6.7-5.3 2.6-0.1 5.2-0.1 7.7-0.1h87.1c1.5 0 3.1 0.3 4.4 0.9 2.9 1.5 4 4.1 4 7.3v32.4 21.9c0 2.6-0.8 4.7-2.9 6.4-1.6 1.3-3.5 1.6-5.6 1.6h-71.3-22.4c-2.4 0-4.7-0.6-6.2-2.5-0.6-1.1-1.1-2.5-1.8-3.7zm77.7-34.4c1.3 0 3.1-0.6 4.7-1.7 0.6-0.4 1.1-0.4 1.8-0.1 3.5 1.9 7.1 1.9 10.4-0.3 3.2-2 4.8-5.1 4.6-8.9-0.2-3.9-2.2-6.9-5.7-8.6-3.4-1.7-6.8-1.3-10 0.7-0.4 0.3-0.7 0.5-1.2 0.1-5.9-3.8-13.2-0.3-15.1 5.6-1.9 6.5 3.1 13.3 10.5 13.2zm-50.9-7.7c-0.2-1.4-1-2.2-1.9-2.9-2.2-1.7-4.7-0.9-7.1-1.1v10h3.3v-6h5.7zm-11.1 6v-3.5c0-0.2-0.3-0.5-0.5-0.5h-2.9c-0.2 0-0.5 0.3-0.5 0.4v3.5c1.3 0.1 2.5 0.1 3.9 0.1zm7.5 0h3.3c0.5 0 0.7-0.2 0.7-0.7v-2.6c0-0.3-0.4-0.7-0.6-0.7-0.9-0.1-1.9-0.1-2.8 0-0.2 0-0.5 0.3-0.5 0.5-0.1 1.2-0.1 2.3-0.1 3.5zm-2 5.4v-2.8c0-0.2-0.3-0.5-0.5-0.5-0.9-0.1-1.8 0-2.8 0v3.3h3.3zm-9.1-11.4h3.5v-3.6c-1.8 0.6-2.9 1.7-3.5 3.6zm3.6 11.2v-2.6c0-0.2-0.3-0.5-0.5-0.5h-2.9c0.7 1.6 1.8 2.4 3.4 3.1zm11-3.1h-3.4v3c1.5-0.5 2.6-1.4 3.4-3z"/>
			<path d="m651.3 514.6c-0.4 1-0.8 2-1.4 2.9-0.8 1.4-2.2 2.2-3.7 2.9-10.8 4.4-21.6 8.8-32.4 13.2-9.5 3.9-19 7.7-28.5 11.6-7.6 3.1-15.2 6.3-22.8 9.3-1.9 0.7-3.8 1.5-5.7 1.8-3.1 0.4-6.1-1.5-7.3-4.5-4.4-10.7-8.8-21.4-13.1-32.1-0.1-0.2-0.1-0.4-0.2-0.7h4.1c0.2 0 0.5 0.4 0.6 0.7 1.2 2.9 2.4 5.9 3.6 8.8 0.2 0.4 0.4 0.8 0.6 1.3 1.7-0.7 3.4-1.3 5-2 6.8-2.8 13.6-5.6 20.4-8.3 0.7-0.3 1.6-0.5 2.3-0.5h44.1 1.1c0 0.1 0 0.1 0.1 0.2-0.8 0.4-1.6 0.7-2.5 1.1-9.1 3.7-18.2 7.4-27.4 11.2-10.8 4.4-21.5 8.8-32.3 13.2-1.1 0.5-2.3 1-3.5 1.4-0.6 0.2-0.7 0.5-0.4 1l1.2 3c0.9 2 2.7 2.8 4.7 2 8.4-3.4 16.8-6.9 25.1-10.3l17.7-7.2c7.7-3.1 15.3-6.3 23-9.4 6.8-2.8 13.5-5.5 20.3-8.3 0.5-0.2 0.9-0.4 1.4-0.6 1.4-0.7 2.1-2.2 1.6-3.7s-1.1-2.9-1.7-4.4c-2.4 1-4.8 1.9-7.3 2.9v-1.2c0-5.5 0-26.8 0.2-29.8 0.6 1.5 1.3 3 1.9 4.6 2.2 5.3 4.3 10.6 6.5 15.8 1.6 3.8 3.1 7.7 4.6 11.6 0.1 0.8 0.1 1.7 0.1 2.5z"/>
			<path d="m611.9 459.6c-1.9 0-3.8 0.1-5.7 0-1 0-1.3 0.4-1.4 1.3h7c1.2 0 1.3 0.1 1.4 1.5h-2-5.8c-1 0-1.3 0.4-1.1 1.4h9.3c-0.1 0.6-0.1 1-0.2 1.5h-8.2c-0.3 0-0.7 0.1-0.8 0.3-0.1 0.3 0 0.7 0.2 0.9 0.1 0.2 0.5 0.2 0.8 0.2h6.4 1c-0.2 1.5-0.2 1.5-1.6 1.5h-5c-0.3 0-0.6 0-1 0.1 0.1 0.9 0.6 1.2 1.5 1.2 1.5-0.1 3.1 0 4.9 0-0.7 0.8-1.1 1.6-2.2 1.5-1.4-0.1-2.8 0.1-4.2 0.7-3.7 1.6-7.5 0.4-9.8-2.8-2.1-3-1.9-7 0.6-10 2.1-2.5 6.1-3.6 8.9-2 1.7 1 3.3 1 5.1 1 1.2 0.1 1.5 0.3 1.9 1.7z"/>
		</g>
			<text font-size="8.8519" font-family="&apos;MyriadPro-Regular&apos;" transform="translate(533.07 510.42)" fill="#2196F3">Hyderabad</text>
			<text font-size="8.8519" font-family="&apos;MyriadPro-Regular&apos;" transform="translate(533.07 494.59)" fill="#2196F3">8801</text>
			<text font-size="8.8519" font-family="&apos;MyriadPro-Regular&apos;" transform="translate(558.07 494.59)" fill="#2196F3">5057</text>
			<text font-size="8.8519" font-family="&apos;MyriadPro-Regular&apos;" transform="translate(583.07 494.59)" fill="#2196F3">6588</text>
			<text font-size="8.8519" font-family="&apos;MyriadPro-Regular&apos;" transform="translate(608.07 494.59)" fill="#2196F3">0150</text>
	<g stroke="#808285" stroke-miterlimit="10">
		<g fill="#fff">
			<path d="m722.5 465.4c30 5.8 59.8 11.6 89.7 17.5-0.1 0.8-0.2 1.4-0.3 2.1-2.7 14-5.5 28.1-8.2 42.1-0.3 1.8-0.9 2.4-2.8 2-28.5-5.6-56.9-11.1-85.4-16.7-1.4-0.3-2.3-0.5-1.9-2.3 2.9-14.4 5.7-28.9 8.5-43.3 0.1-0.4 0.3-0.8 0.4-1.4zm43.9 13.1c-9.9-1.9-19.8-3.8-29.7-5.8-1.6-0.3-2.4 0-2.9 1.6-1.1 3.3-3 4.6-6.4 4.4-1.8-0.1-2.4 0.6-2.7 2.2-1 5.8-2.2 11.5-3.4 17.3-0.4 1.7 0.1 2.5 1.8 3.1 3 1 4.5 3 4.2 6.1-0.2 2.3 0.8 2.9 2.8 3.3 9.6 1.8 19.3 3.7 28.9 5.6 9.9 1.9 19.8 3.8 29.7 5.8 1.5 0.3 2.6 0.3 3.1-1.6 0.9-3.4 3.1-4.8 6.7-4.5 1.7 0.1 2.3-0.5 2.6-2.1 1-5.7 2.1-11.4 3.3-17.1 0.4-1.9 0.1-2.9-1.9-3.5-2.9-0.9-4.5-3.1-4.2-6.1 0.2-2.1-0.7-2.6-2.4-3-9.9-1.9-19.7-3.8-29.5-5.7z"/>
			<path d="m797 531.4c-1.3 2.6-2.5 5.1-3.8 7.7-9-4.5-17.7-8.9-26.5-13.3 0-0.1 0.1-0.2 0.1-0.3 9.9 2 19.9 3.9 30.2 5.9z"/>
			<path d="m758.5 469c-9.8-1.9-19.6-3.8-29.8-5.8 1.2-2.3 2.2-4.5 3.3-6.7 0.2-0.3 1-0.6 1.3-0.4 8.4 4.1 16.8 8.4 25.2 12.6 0.1 0.1 0 0.2 0 0.3z"/>
			<path d="m812 500.7c0.3-1.5 0.6-3 0.9-4.6 1.7 0.6 1.6 0.7-0.9 4.6z"/>
			<path d="m713.7 493.7c-0.4 1.9-0.7 3.4-0.9 4.9-1.6-0.8-1.6-1.1 0.9-4.9z"/>
			<path d="m795.1 487.1c0.4 3.9 2.1 6.9 5.6 8.8 0.3 0.2 0.6 0.9 0.5 1.4-0.9 4.8-1.8 9.6-2.8 14.4-0.1 0.4-0.6 1-1 1-3.9 0.4-6.6 2.6-8.4 6.1-0.8-0.2-1.6-0.3-2.4-0.5-18-3.5-35.9-7-53.9-10.5-1.5-0.3-2.2-0.7-2.5-2.4-0.4-2.8-2-5-4.4-6.4-1-0.6-1.3-1.2-1-2.3 0.9-4.5 1.7-9.1 2.7-13.6 0.1-0.6 0.9-1.3 1.5-1.5 3.1-0.6 5.4-2.2 7.2-4.9 0.3-0.5 1.3-1 1.9-0.8 18.8 3.8 37.8 7.5 57 11.2zm-29.5-3.8c-7.7-1.5-15.4 3.7-16.9 11.3-1.4 7.5 3.8 15.3 11.3 16.8 7.6 1.5 15.5-3.8 16.9-11.4 1.5-7.5-3.8-15.2-11.3-16.7z"/>
			<path d="m773.8 499.7c-1.3 6.3-7 10-13.3 8.7s-10-6.9-8.7-13.3c1.3-6.3 7-10 13.3-8.7 6.3 1.2 10 6.9 8.7 13.3z"/>
		</g>
		<g fill="#FFC900">
			<path d="m813.6 492.6c0.7 0.4 1.3 0.7 1.9 1 1.6 1.1 2.2 3.2 1.4 4.9-0.5 1.1-1 2.1-1.6 3.1-4.6 7.8-7.1 16.2-8.4 25.1-0.8 5.1-1.6 5.6-6.7 5.3-1.1 2.2-2.3 4.5-3.4 6.7-1.5 3-3.4 3.7-6.4 2.2-11.4-5.7-22.7-11.3-34.1-17-1.5-0.7-3.1-1.3-4.7-1.6-12.3-2.5-24.7-4.8-37-7.2-3.5-0.7-4.6-2.3-3.9-5.9 0.3-1.4 0.5-2.7 0.8-4.1 0.4-1.9 1-3.5-1.6-4.7-1.7-0.8-1.9-2.9-1-4.8 1.8-3.6 3.7-7.2 5.4-10.9 1-2.2 1.8-4.6 2.4-7 0.9-3.9 1.6-7.9 2.3-11.8 0.6-2.8 2.2-4.1 5-3.6 1.3 0.2 1.7-0.3 2.2-1.3l2.7-5.4c1.6-3.1 3.5-3.8 6.6-2.2 11.1 5.5 22.2 11.1 33.3 16.6 1.8 0.9 3.7 1.5 5.6 1.9 12.1 2.4 24.3 4.8 36.4 7.1 3.8 0.7 4.9 2.3 4.1 6.1-0.4 2.7-0.9 5.1-1.3 7.5zm-91.1-27.2c-0.2 0.6-0.3 1-0.4 1.4-2.8 14.4-5.6 28.9-8.5 43.3-0.4 1.9 0.6 2.1 1.9 2.3 28.5 5.5 56.9 11 85.4 16.7 1.9 0.4 2.5-0.2 2.8-2 2.7-14 5.4-28.1 8.2-42.1 0.1-0.7 0.2-1.3 0.3-2.1-29.9-5.8-59.7-11.6-89.7-17.5zm74.5 66c-10.3-2-20.3-3.9-30.2-5.9 0 0.1-0.1 0.2-0.1 0.3 8.8 4.4 17.5 8.8 26.5 13.3 1.3-2.6 2.5-5 3.8-7.7zm-38.5-62.4c0-0.1 0.1-0.2 0.1-0.3l-25.2-12.6c-0.3-0.2-1.2 0.1-1.3 0.4-1.2 2.1-2.2 4.4-3.3 6.7 10.1 2 19.9 3.9 29.7 5.8zm53.5 31.7c2.5-3.9 2.5-4 0.9-4.6-0.3 1.6-0.6 3.1-0.9 4.6zm-98.3-7c-2.4 3.8-2.5 4.1-0.9 4.9 0.2-1.5 0.5-2.9 0.9-4.9z"/>
			<path d="m766.4 478.5c9.8 1.9 19.7 3.9 29.5 5.7 1.8 0.3 2.7 0.8 2.4 3-0.3 3 1.2 5.3 4.2 6.1 2 0.6 2.3 1.6 1.9 3.5-1.2 5.7-2.3 11.4-3.3 17.1-0.3 1.6-1 2.2-2.6 2.1-3.6-0.3-5.7 1.2-6.7 4.5-0.5 1.9-1.6 1.9-3.1 1.6-9.9-1.9-19.8-3.9-29.7-5.8-9.6-1.9-19.2-3.8-28.9-5.6-2-0.4-3-1-2.8-3.3 0.3-3.1-1.2-5.1-4.2-6.1-1.7-0.5-2.1-1.4-1.8-3.1 1.2-5.7 2.3-11.5 3.4-17.3 0.3-1.7 1-2.3 2.7-2.2 3.4 0.2 5.3-1.1 6.4-4.4 0.6-1.6 1.4-1.9 2.9-1.6 9.9 1.9 19.8 3.8 29.7 5.8zm28.7 8.6c-19.2-3.7-38.2-7.4-57.1-11.1-0.6-0.1-1.6 0.3-1.9 0.8-1.7 2.6-4.1 4.2-7.2 4.9-0.6 0.1-1.4 0.9-1.5 1.5-1 4.5-1.8 9.1-2.7 13.6-0.2 1.1 0.1 1.7 1 2.3 2.4 1.4 4 3.6 4.4 6.4 0.2 1.7 1 2.1 2.5 2.4 18 3.4 35.9 7 53.9 10.5 0.8 0.2 1.6 0.3 2.4 0.5 1.8-3.5 4.5-5.7 8.4-6.1 0.4 0 0.9-0.6 1-1 1-4.8 1.9-9.6 2.8-14.4 0.1-0.4-0.2-1.2-0.5-1.4-3.4-2-5.1-4.9-5.5-8.9z"/>
			<path d="m765.6 483.3c7.5 1.5 12.8 9.2 11.3 16.7-1.5 7.6-9.4 12.9-16.9 11.4s-12.7-9.3-11.3-16.8c1.5-7.6 9.3-12.8 16.9-11.3zm8.2 16.4c1.3-6.4-2.4-12.1-8.6-13.4-6.3-1.3-12.1 2.4-13.3 8.7-1.3 6.4 2.3 12 8.7 13.3 6.2 1.4 11.9-2.3 13.2-8.6z"/>
			<path d="m761.8 507.7l-2.7-5.1c-0.7-1.4-1.4-2.8-2.2-4.2v-0.1l0.3-1.5v-0.1c0.2 0 0.3 0.1 0.4 0.1 0.8 0.2 1.6 0.4 2.4 0.4 0.7 0 1.4 0 2-0.3 0.8-0.4 1.3-1 1.6-1.7 0-0.1 0.1-0.2 0.1-0.3-2.2-0.4-4.3-0.9-6.5-1.3l0.1-0.1c0.4-0.5 0.8-0.9 1.2-1.4 0.1-0.1 0.1-0.1 0.2-0.1 1.7 0.3 3.3 0.7 5 1h0.1v-0.2c-0.2-0.6-0.6-1.1-1.2-1.4-0.5-0.3-1.1-0.6-1.7-0.7-1-0.3-1.9-0.4-2.9-0.6h-0.1s0-0.1 0.1-0.1l1.4-1.4c0.1-0.1 0.1-0.1 0.2 0 2 0.4 4 0.8 5.9 1.1l4.8 0.9h0.1l-0.1 0.1c-0.4 0.4-0.8 0.9-1.3 1.3-0.1 0.1-0.1 0.1-0.2 0.1-0.9-0.2-1.8-0.4-2.8-0.5h-0.2c0.4 0.6 0.7 1.3 0.6 2 1 0.2 2.1 0.4 3.1 0.6l-0.1 0.1c-0.4 0.4-0.8 0.9-1.3 1.3-0.1 0.1-0.1 0.1-0.2 0.1-0.6-0.1-1.3-0.2-1.9-0.3-0.1 0-0.1 0-0.2 0.1-0.4 1-1 1.8-2 2.3-1 0.6-2 0.8-3.1 0.8h-1.2-0.1c0 0.1 0.1 0.2 0.1 0.2 1.6 3.1 3.1 6.2 4.7 9.3v0.1c-0.5-0.1-1.4-0.3-2.4-0.5z"/>
		</g>
	</g>
		<g fill="#fff">
			<path d="m510.8 624.6c20.9 12.8 41.6 25.6 62.5 38.4-0.3 0.6-0.5 1-0.8 1.5-6 9.8-12 19.5-18 29.3-0.8 1.3-1.3 1.5-2.7 0.7-19.8-12.2-39.6-24.4-59.5-36.6-0.9-0.6-1.6-1-0.8-2.3 6.2-10 12.4-20.1 18.6-30.2 0.2-0.2 0.4-0.5 0.7-0.8zm29.3 22.1c-6.9-4.2-13.8-8.5-20.7-12.7-1.1-0.7-1.8-0.7-2.7 0.4-1.8 2.2-3.5 2.6-6 1.5-1.3-0.6-2-0.2-2.7 0.9-2.4 4-4.9 8.1-7.4 12-0.7 1.2-0.7 1.9 0.5 2.8 2 1.6 2.5 3.5 1.5 5.8-0.8 1.7-0.2 2.4 1.2 3.3l20.1 12.3c6.9 4.2 13.8 8.5 20.7 12.7 1 0.6 1.9 1 2.8-0.3 1.7-2.3 3.7-2.7 6.3-1.5 1.2 0.6 1.9 0.3 2.6-0.8 2.4-4 4.8-8 7.3-11.9 0.8-1.3 0.9-2.1-0.5-3.2-2-1.5-2.5-3.6-1.4-5.8 0.8-1.5 0.2-2.2-1-2.9-7-4.2-13.8-8.4-20.6-12.6z"/>
			<path d="m548.2 695.1c-1.7 1.6-3.3 3.1-5 4.7-5.5-5.9-10.8-11.7-16.2-17.4l0.2-0.2c6.9 4.3 13.8 8.5 21 12.9z"/>
			<path d="m536.8 637.4c-6.8-4.2-13.7-8.4-20.7-12.7 1.5-1.4 2.9-2.8 4.4-4.1 0.2-0.2 0.9-0.1 1.1 0.1 5.2 5.5 10.3 11 15.4 16.5-0.1 0-0.1 0.1-0.2 0.2z"/>
			<path d="m568.1 676.3c0.7-1.1 1.3-2.1 2-3.2 1 0.9 1 1-2 3.2z"/>
			<path d="m496.2 643.3c-0.8 1.3-1.5 2.4-2.1 3.4-1-1-0.8-1.2 2.1-3.4z"/>
			<path d="m559.2 661.3c-0.8 3.1-0.4 5.8 1.7 8.2 0.2 0.2 0.2 0.9 0 1.2-2 3.4-4.1 6.7-6.2 10.1-0.2 0.3-0.8 0.5-1.1 0.5-3.1-0.8-5.7 0.1-8.1 2.2-0.6-0.4-1.1-0.7-1.7-1-12.5-7.7-25-15.4-37.6-23-1-0.6-1.5-1.2-1.2-2.5 0.5-2.2-0.1-4.3-1.5-6.1-0.6-0.7-0.6-1.2-0.1-2 2-3.1 3.9-6.3 5.9-9.5 0.3-0.4 1.1-0.7 1.6-0.7 2.5 0.4 4.7-0.1 6.7-1.6 0.4-0.3 1.3-0.3 1.7-0.1 13.3 8 26.5 16.1 39.9 24.3zm-21.1-11.2c-5.3-3.3-12.6-1.6-15.9 3.8-3.2 5.2-1.4 12.6 3.8 15.8 5.3 3.3 12.7 1.5 15.9-3.8 3.2-5.2 1.5-12.5-3.8-15.8z"/>
			<path d="m539.7 664.7c-2.8 4.4-8.1 5.6-12.5 2.8s-5.5-8-2.8-12.5c2.7-4.4 8.1-5.5 12.5-2.8 4.4 2.8 5.6 8.1 2.8 12.5z"/>
		</g>
		<g fill="#FFC900">
			<path d="m571.5 670.6c0.4 0.5 0.8 0.9 1.1 1.3 0.9 1.2 0.8 3-0.3 4.1-0.7 0.7-1.3 1.3-2.1 1.9-5.7 4.5-9.9 10.2-13.4 16.5-2 3.6-2.8 3.8-6.6 2.1-1.5 1.3-3 2.7-4.5 4.1-2 1.8-3.6 1.8-5.4-0.2-6.9-7.4-13.9-14.9-20.8-22.3-0.9-1-1.9-1.8-3.1-2.5l-25.8-15.9c-2.4-1.5-2.8-3-1.3-5.5 0.6-0.9 1.1-1.9 1.7-2.8 0.9-1.3 1.7-2.4 0.2-4-1-1.1-0.6-2.7 0.6-3.9 2.4-2.2 4.9-4.4 7.1-6.7 1.4-1.4 2.7-3 3.8-4.6 1.8-2.7 3.4-5.5 5.1-8.2 1.2-2 2.8-2.5 4.8-1.3 0.9 0.5 1.4 0.3 2-0.3 1.2-1.1 2.3-2.2 3.5-3.3 2-1.9 3.7-1.8 5.6 0.2 6.8 7.3 13.5 14.6 20.3 21.9 1.1 1.2 2.3 2.2 3.7 3 8.4 5.2 16.9 10.4 25.3 15.6 2.7 1.6 3 3.1 1.4 5.8-0.8 1.7-1.8 3.3-2.9 5zm-60.7-46c-0.3 0.4-0.5 0.6-0.7 0.9-6.2 10.1-12.3 20.1-18.6 30.2-0.8 1.3-0.2 1.7 0.8 2.3 19.8 12.2 39.7 24.3 59.5 36.6 1.4 0.8 1.9 0.6 2.7-0.7 6-9.8 12-19.6 18-29.3 0.3-0.5 0.5-1 0.8-1.5-20.9-13-41.6-25.7-62.5-38.5zm37.4 70.5c-7.2-4.4-14.1-8.7-21.1-12.9l-0.2 0.2c5.4 5.8 10.7 11.5 16.2 17.4 1.7-1.6 3.3-3.1 5.1-4.7zm-11.4-57.7l0.2-0.2c-5.1-5.5-10.3-11-15.4-16.5-0.2-0.2-0.9-0.2-1.1-0.1-1.5 1.3-2.9 2.7-4.4 4.1 7 4.3 13.9 8.5 20.7 12.7zm31.3 38.9c3-2.2 3-2.3 2-3.2-0.7 1.1-1.3 2.1-2 3.2zm-71.9-33c-2.9 2.2-3 2.4-2.1 3.4 0.6-1 1.2-2 2.1-3.4z"/>
			<path d="m540.1 646.7c6.8 4.2 13.7 8.4 20.6 12.6 1.2 0.7 1.8 1.4 1 2.9-1.1 2.2-0.5 4.3 1.4 5.8 1.4 1 1.3 1.9 0.5 3.2-2.5 3.9-4.9 7.9-7.3 11.9-0.7 1.1-1.3 1.4-2.6 0.8-2.6-1.2-4.6-0.7-6.3 1.5-0.9 1.3-1.8 1-2.8 0.3-6.9-4.2-13.8-8.5-20.7-12.7-6.7-4.1-13.4-8.3-20.1-12.3-1.4-0.8-2-1.6-1.2-3.3 1.1-2.2 0.5-4.2-1.5-5.8-1.1-0.9-1.2-1.6-0.5-2.8 2.5-4 5-8 7.4-12 0.7-1.2 1.4-1.5 2.7-0.9 2.5 1.1 4.3 0.7 6-1.5 0.9-1.1 1.6-1.1 2.7-0.4 6.9 4.2 13.8 8.5 20.7 12.7zm19.1 14.6c-13.4-8.2-26.6-16.3-39.8-24.4-0.4-0.2-1.3-0.2-1.7 0.1-2 1.5-4.3 2-6.7 1.6-0.5-0.1-1.3 0.3-1.6 0.7-2 3.1-3.9 6.3-5.9 9.5-0.5 0.8-0.4 1.3 0.1 2 1.4 1.8 2 3.9 1.5 6.1-0.3 1.3 0.2 1.8 1.2 2.5 12.5 7.7 25 15.4 37.6 23 0.6 0.3 1.1 0.7 1.7 1 2.4-2.1 5-3 8.1-2.2 0.3 0.1 0.9-0.2 1.1-0.5 2.1-3.3 4.2-6.7 6.2-10.1 0.2-0.3 0.2-0.9 0-1.2-2.2-2.3-2.6-5-1.8-8.1z"/>
			<path d="m538.1 650.1c5.2 3.2 7 10.5 3.8 15.8s-10.7 7-15.9 3.8-7-10.6-3.8-15.8c3.3-5.3 10.6-7 15.9-3.8zm1.6 14.6c2.8-4.4 1.6-9.7-2.7-12.5-4.4-2.8-9.7-1.6-12.5 2.8s-1.6 9.7 2.8 12.5c4.3 2.8 9.6 1.6 12.4-2.8z"/>
			<path d="m528.4 667.4c-0.2-1.5-0.4-3.1-0.6-4.6-0.2-1.2-0.3-2.5-0.5-3.7v-0.1c0.2-0.3 0.4-0.7 0.7-1 0.1 0.1 0.2 0.1 0.3 0.2 0.5 0.4 1.1 0.7 1.7 1 0.5 0.2 1 0.3 1.6 0.3 0.7-0.1 1.2-0.4 1.7-0.8l0.2-0.2c-1.5-0.9-3-1.9-4.5-2.8 0 0 0.1 0 0.1-0.1 0.4-0.2 0.9-0.5 1.3-0.7h0.2c1.1 0.7 2.3 1.5 3.4 2.2h0.1v-0.1c0-0.5-0.2-1-0.5-1.4s-0.7-0.7-1.1-1c-0.6-0.5-1.3-0.9-2-1.3h-0.1 0.1c0.5-0.2 0.9-0.4 1.4-0.6h0.1c1.4 0.8 2.8 1.7 4.1 2.5 1.1 0.7 2.2 1.4 3.4 2.1 0 0 0.1 0 0.1 0.1h-0.1c-0.4 0.2-0.9 0.4-1.3 0.6h-0.2c-0.6-0.4-1.3-0.8-1.9-1.2 0 0-0.1 0-0.1-0.1 0.1 0.6 0.2 1.1-0.1 1.7 0.7 0.4 1.5 0.9 2.2 1.3h-0.1c-0.4 0.2-0.9 0.4-1.3 0.6h-0.1c-0.4-0.3-0.9-0.5-1.3-0.8h-0.1c-0.6 0.7-1.3 1.1-2.2 1.2s-1.7 0-2.6-0.2c-0.3-0.1-0.6-0.2-0.9-0.3h-0.1v0.2c0.3 2.8 0.6 5.5 0.9 8.3v0.1c-0.6-0.6-1.2-1-1.9-1.4z"/>
		</g>
	<g stroke-miterlimit="10" stroke="#fff" stroke-width="2" stroke-linecap="round" fill="none">
			<line y2="661.3" x1="749.6" x2="762.3" y1="661.3"/>
			<line y2="667.7" x1="756" x2="756" y1="655"/>
	</g>
	<g stroke-miterlimit="10" stroke="#fff" stroke-width="2" stroke-linecap="round" fill="none">
			<line y2="646.6" x1="954.9" x2="967.6" y1="646.6"/>
			<line y2="652.9" x1="961.2" x2="961.2" y1="640.2"/>
	</g>
	<g stroke-miterlimit="10" stroke="#fff" stroke-width="2" stroke-linecap="round" fill="none">
			<line y2="685.2" x1="1000.2" x2="1013" y1="685.2"/>
			<line y2="691.5" x1="1006.6" x2="1006.6" y1="678.8"/>
	</g>
	<g stroke-miterlimit="10" stroke="#fff" stroke-width="2" stroke-linecap="round" fill="none">
			<line y2="548.9" x1="729.3" x2="742.1" y1="548.9"/>
			<line y2="555.3" x1="735.7" x2="735.7" y1="542.6"/>
	</g>
	<g stroke-miterlimit="10" stroke="#fff" stroke-width="2" stroke-linecap="round" fill="none">
			<line y2="450.4" x1="497.7" x2="510.4" y1="450.4"/>
			<line y2="456.7" x1="504.1" x2="504.1" y1="444"/>
	</g>
	<g stroke-miterlimit="10" stroke="#fff" stroke-width="2" stroke-linecap="round" fill="none">
			<line y2="482.4" x1="298.9" x2="311.6" y1="482.4"/>
			<line y2="488.7" x1="305.3" x2="305.3" y1="476"/>
	</g>
	<g stroke-miterlimit="10" stroke="#fff" stroke-width="2" stroke-linecap="round" fill="none">
			<line y2="692.4" x1="215.8" x2="228.5" y1="692.4"/>
			<line y2="698.7" x1="222.2" x2="222.2" y1="686"/>
	</g>
	<g stroke-miterlimit="10" stroke="#fff" stroke-width="2" stroke-linecap="round" fill="none">
			<line y2="435.4" x1="873.8" x2="886.5" y1="435.4"/>
			<line y2="441.7" x1="880.2" x2="880.2" y1="429"/>
	</g>
	<g stroke-miterlimit="10" stroke="#fff" stroke-width="2" stroke-linecap="round" fill="none">
			<line y2="467.2" x1="1133.4" x2="1146.1" y1="467.2"/>
			<line y2="473.5" x1="1139.7" x2="1139.7" y1="460.8"/>
	</g>
	<g stroke-miterlimit="10" stroke="#fff" stroke-width="2" stroke-linecap="round" fill="none">
			<line y2="694.5" x1="1146.4" x2="1159.1" y1="694.5"/>
			<line y2="700.9" x1="1152.7" x2="1152.7" y1="688.1"/>
	</g>
	<g stroke-miterlimit="10" stroke="#fff" stroke-width="2" stroke-linecap="round" fill="none">
			<line y2="570.3" x1="419.2" x2="431.9" y1="570.3"/>
			<line y2="576.7" x1="425.6" x2="425.6" y1="564"/>
	</g>
	<g stroke-miterlimit="10" stroke="#fff" stroke-width="2" stroke-linecap="round" fill="none">
			<line y2="576.8" x1="501.9" x2="514.6" y1="576.8"/>
			<line y2="583.2" x1="508.2" x2="508.2" y1="570.5"/>
	</g>
		<circle r="6.4" stroke-linecap="round" cy="614" stroke="#fff" cx="980.7" stroke-miterlimit="10" stroke-width="2" fill="none"/>
		<circle r="6.4" stroke-linecap="round" cy="585.2" stroke="#fff" cx="566.7" stroke-miterlimit="10" stroke-width="2" fill="none"/>
		<circle r="6.4" stroke-linecap="round" cy="443.5" stroke="#fff" cx="796.9" stroke-miterlimit="10" stroke-width="2" fill="none"/>
		<circle r="6.4" stroke-linecap="round" cy="555.5" stroke="#fff" cx="324.2" stroke-miterlimit="10" stroke-width="2" fill="none"/>
		<circle r="6.4" stroke-linecap="round" cy="663.5" stroke="#fff" cx="307.4" stroke-miterlimit="10" stroke-width="2" fill="none"/>
		<circle r="6.4" stroke-linecap="round" cy="550.4" stroke="#fff" cx="906" stroke-miterlimit="10" stroke-width="2" fill="none"/>
		<circle r="6.4" stroke-linecap="round" cy="564.6" stroke="#fff" cx="1152.7" stroke-miterlimit="10" stroke-width="2" fill="none"/>
		<circle r="6.4" stroke-linecap="round" cy="488.2" stroke="#fff" cx="1067.9" stroke-miterlimit="10" stroke-width="2" fill="none"/>
	<polyline fill="none" stroke="#2E3192" stroke-linecap="round" stroke-miterlimit="10" stroke-width="2" points="603 341.9 603 383 588.1 397.4 444 397.4 426.7 409.3 254.3 409.3 244.7 422.7 244.7 597.2"/>
	<polyline fill="none" stroke="#2E3192" stroke-linecap="round" stroke-miterlimit="10" stroke-width="2" points="632.7 341.9 632.7 391.5 618.5 409.3 486 409.3 470 425.3 470 578.3 456 590.8 456 603.2"/>
	<polyline fill="none" stroke="#2E3192" stroke-linecap="round" stroke-miterlimit="10" stroke-width="2" points="662.2 341.9 662.2 390.1 673.6 401.8 673.6 461.6 687.6 469.5 687.6 572.8"/>
	<polyline fill="none" stroke="#2E3192" stroke-linecap="round" stroke-miterlimit="10" stroke-width="2" points="721.4 341.9 721.4 384.6 731.4 392.4 800.1 392.4 818.6 400.1 951.6 400.1 963.9 418.3 963.9 497.7"/>
	<polyline fill="none" stroke="#2E3192" stroke-linecap="round" stroke-miterlimit="10" stroke-width="2" points="751 341.9 751 377.8 759.5 383 963.9 383 1056.5 383 1081.2 406.3 1081.2 514.7"/>
	<path id="globe-5" d="m970.8 524.5c-0.1-0.2 1.1-0.3 1.3-0.3 0.3 0-0.6 1.4-1.3 0.3zm-7-10.1c-0.1 0.2 0.3-0.1 0.4-0.1 0.2 0.2-0.2 0.3-0.2 0.4 0.3 0.5 0.1 0.8 0 1.1 0 0.3-0.3 0.2-0.5 0.3-0.2 0.2 0.8 0.2 0.9 0.3 0 0.1-1.2 0.3-1 0.6 0.3 0.4 2.7-0.6 2.3-0.6 0.7-0.4 0.1-0.4-0.3-0.6-0.1-0.7-0.3-1.8-0.7-2.2-0.1-0.2 0.4-0.2 0.3-0.3-0.7-1.1-1.2 1.1-1.2 1.1zm42.6 22.6c0 21.7-17.6 39.4-39.4 39.4-21.7 0-39.4-17.6-39.4-39.4 0-21.7 17.6-39.4 39.4-39.4 21.8 0.1 39.4 17.7 39.4 39.4zm-27.2-17.6c0-0.5-0.6-0.9-1.3-0.1-0.4 0.6-0.4 1.4-0.6 1.8-0.3 0.6 1.9 1.1 1.9 0.6 0.1-0.9 2.4-0.2 2.9-0.1 0.8 0.2 2.1-0.7 0.7-1.2-1.2-0.4-1.8-0.9-1.9-1.7 0 0 0.6-0.6 0.3-0.5-0.7 0-2 2.5-2 1.2zm20.6 17.6c0-3.4-0.6-6.8-1.2-8.6-0.2-0.6-0.6-1-1.2-1.2-0.8-0.3-4.4 2-4.9 0.8-0.4-0.8-1.1 0.5-1.9 0-0.4-0.2-1.5-1.7-2-1.5-1 0.4 1.6 3.2 2.3 3.5 0.7-0.5 2.8-1.5 3.3-0.1 0.9 2.6-2.4 5.5-4.1 7.1-2.5 2.3-2-1.5-3.8-2.8-0.9-0.7-0.9-2.2-1.8-2.7-0.4-0.2-2.3-2.4-2.3-2.7 0 0.2 0 0.4-0.1 0.5-0.3 0.2-1-0.9-1-1.1 0 1 1.6 2.5 2.1 3.3 0.9 1.3 1.4 3.3 2.5 4.4 0.6 0.6 2.8 3 3.4 2.9s2.6-1.5 3-1.4c2.1 0.5-5 10.5-5.6 11.8-0.6 1 0.5 3.6 0.4 4.8-0.1 1.4-1.2 1.9-2.3 2.7s-0.9 2.4-1.8 3c-1.7 1-2.9 4.4-5.3 4.4-0.7 0-3.7 1.2-4.1 0-0.3-0.8-0.7-1.5-1.2-2.3-0.4-0.8 0-1.7-0.6-2.4-0.4-0.5-1.6-1.6-1.7-2.2 0-0.5 0.4-2.1 0.9-2.3 0.8-0.4 0.1-1.5 0.1-2.2-0.2-1.2-0.9-2.1-1.7-2.8-1.3-1-0.6-1.8-0.3-3.2 0-0.7-0.4-1.5-1.3-1.3-1.9 0.5-1.3-1.4-2.6-1.4-1 0.1-1.8 0.7-2.7 1-1.1 0.3-2.3-0.3-3.4-0.4-4.6-0.6-6.1-5.9-4.9-9.7 0.1-0.6-0.4-1.8-0.2-2.3 0.5-1.2 1.6-2.5 2.5-3.3 0.5-0.5 1.2-0.4 1.8-0.7 0.9-0.6 1-1.8 1.9-2.6 1.3-1.1 3.1-1 4.8-1.3 0.9-0.1 4.4-0.9 4.9-0.2 0 0.1 0.6 2-0.1 1.9 1.4 0.1 3.4 2.5 4.8 1.9 0.7-0.3 0.4-2.4 1.9-1.4 0.9 0.6 4.7 0.9 5.5 0.2 0.5-0.4 0.8-3 0.2-3.3 0.4 0.4-2 0.4-2.2 0.3-0.4-0.1-0.8 0.4-1.4 0.1 0.4 0.2-2.1-1.2-0.7-2.2-0.6 0.4-1.1-0.1-1.8 0.4-0.4 0.4 0.2 0.6-0.4 0.9-1 0.5-1.7-1.7-2.1-2s-3.3-2.3-2.5-1c0.6 0.9 2.9 2.4 2.6 2.6-0.1 0.1-0.7-0.9-0.7-0.2 0.2-0.4 0.1 1.9-0.3 1.1-0.2-0.3 0.3-0.5 0-0.9 0-0.3-0.7-0.6-0.9-0.7-0.4-0.5-1.5-1.6-2.1-1.9-0.2-0.1-2.5 0.3-2.7 0.4-0.2 0.3-0.4 0.7-0.6 1-0.5 0.2-0.9 0.4-1.4 0.7-0.3 0.3-0.3 0.9-0.5 1.2-0.2 0.2-2.5 1-2.5 1 0.1-0.2-1.6-0.6-1.5-1.1s0.7-2.2 0.6-2.8c-0.2-0.6 3.5 0.9 3.8-0.8 0.1-0.7 0.2-1.6-1-1.7 0.2 0 2.3-0.8 2.6-1.2 0.5-0.6 1.6-1.5 2.4-1.5 0.9 0 0.7-1.4 1.2-2 0.4 0.2-0.2 1.2 0.3 1.7 0-0.3 1.5 0.2 1.6 0.1 0.3-0.2 2.2-0.1 2-1-0.3-0.9 0.2-0.6 0.6-0.8-0.1 0 1.1-2 1.3-1.4-0.1-0.7-1.4 0.2-1.8 0.2-1-0.1-0.6-1.7-0.2-2.2 0.3-0.4-0.8-0.8-0.8-0.1 0 1.1-1 2.1-0.8 3.5 0.4 2.2-2.4-0.5-2.7-0.4-0.9 0.6-1.7-0.7-1.2-1.5s1.7-0.7 2.1-1.6c0.3-0.6 0.7-1.3 1.3-1.7 1.8-1.5 2.2-0.3 4-0.1 1.7 0.2 0.6 0.4 0.3 1.1-0.2 0.6 0.9 0.8 1.3 0.3 0.2-0.3 0.8-1.1 1-1.6 0.3-0.7 3-0.6 1.1-1.8-1.2-0.7-6.6-2.2-10.2-2.2-0.8 0-1.3 0.9-1.9 1.4-1.2 1-4.2 2.9-5.8 2.3-1.7-0.6-5.3 2.2-5.9 2.2-0.2 0 0-2.1 1.2-2.2-0.5 0.1 4.1-2.3 4-2.8-0.2-0.6-9.2 2.7-8.8 3.4 0.2 0.3 1 0.3-0.1 1-0.6 0.4-1.2 2.6-1.8 2.6-1.7 0.7-1.8-1.4-3.6 1.3-0.4 0.5-2.3 0.6-2.9 1.2-4.4 4.6-7.4 10.5-8.5 17 0 0.3 1.1 0.7 1.2 0.9 0.4 0.4 0.4 2.3 0.5 3 0.5 1.6 1.6 2.4 2.4 3.9 0.5 0.8 1.3 3 1.1 3.9 0.4-0.6 3.5 2.7 4.1 3.4 1.4 1.6 2.4 3.5 0.2 5.1-0.7 0.5 1.1 3.7 0.2 4.5-0.1 0.1-0.9 0.1-1.2 0.3-1.2 0.7-0.6 2.5 0.1 3.2 6 6.2 14.4 10.1 23.7 10.1 17.8 0.1 32.5-14.6 32.5-32.7zm-37.7-20.8c0.4-0.2 1-0.2 1-0.7s0.1-0.2 0.3-0.3c0.1-0.2-0.2-0.5-0.4-0.5s-0.4 0.2-0.5 0.3-0.2 0-0.2 0.1c-0.1 0.1-0.2 0.2-0.2 0.3-0.1 0.1 0 0.1 0 0.2s-0.2 0.3-0.3 0.3c-0.3 0.2 0 0.4 0.3 0.3 0.1-0.1-0.2 0 0 0z" fill="#fff"/>
		<path stroke="#231F20" stroke-miterlimit="10" d="m1111.4 683.3h-61.5c-4 0-7.3-3.2-7.3-7.3v-130.5c0-4 3.2-7.3 7.3-7.3h61.5c4 0 7.3 3.2 7.3 7.3v130.5c-0.1 4-3.3 7.3-7.3 7.3z" fill="#D1D3D4"/>
		<rect height="13.6" width="17.7" stroke="#603913" stroke-miterlimit="10" y="612.8" x="1053.7" fill="#fff"/>
		<rect height="53.5" width="53.9" stroke="#D1D3D4" stroke-miterlimit="10" y="552.5" x="1053.7" fill="#fff"/>
		<rect height="13.6" width="17.7" stroke="#603913" stroke-miterlimit="10" y="626.4" x="1053.7" fill="#fff"/>
		<rect height="13.6" width="17.7" stroke="#603913" stroke-miterlimit="10" y="639.9" x="1053.7" fill="#fff"/>
		<rect height="13.6" width="17.7" stroke="#603913" stroke-miterlimit="10" y="653.5" x="1053.7" fill="#FC495F"/>
		<rect height="13.6" width="17.7" stroke="#603913" stroke-miterlimit="10" y="612.8" x="1071.8" fill="#fff"/>
		<rect height="13.6" width="17.7" stroke="#603913" stroke-miterlimit="10" y="626.4" x="1071.8" fill="#fff"/>
		<rect height="13.6" width="17.7" stroke="#603913" stroke-miterlimit="10" y="639.9" x="1071.8" fill="#fff"/>
		<rect height="13.6" width="17.7" stroke="#603913" stroke-miterlimit="10" y="653.5" x="1071.8" fill="#fff"/>
		<rect height="13.6" width="17.7" stroke="#603913" stroke-miterlimit="10" y="612.8" x="1089.8" fill="#fff"/>
		<rect height="13.6" width="17.7" stroke="#603913" stroke-miterlimit="10" y="626.4" x="1089.8" fill="#fff"/>
		<rect height="13.6" width="17.7" stroke="#603913" stroke-miterlimit="10" y="639.9" x="1089.8" fill="#fff"/>
		<rect height="13.6" width="17.7" stroke="#603913" stroke-miterlimit="10" y="653.5" x="1089.8" fill="#309172"/>
		<line y2="544.1" x2="1110.3" stroke="#414042" stroke-miterlimit="10" y1="544.1" x1="1052.4" fill="none"/>
		<line y2="645.5" x2="1114.2" stroke="#414042" stroke-miterlimit="10" y1="560.8" x1="1114.2" fill="none"/>
		<path d="m1104.2 515.3c-0.6 0-1.1-0.2-1.5-0.6-0.4 0.4-0.9 0.6-1.5 0.6s-1.1-0.2-1.5-0.6c-0.4 0.4-0.9 0.6-1.5 0.6s-1.1-0.2-1.5-0.6c-0.4 0.4-0.9 0.6-1.5 0.6s-1.1-0.2-1.5-0.6c-0.4 0.4-0.9 0.6-1.5 0.6s-1.1-0.2-1.5-0.6c-0.4 0.4-0.9 0.6-1.5 0.6s-1.1-0.2-1.5-0.6c-0.4 0.4-0.9 0.6-1.5 0.6s-1.1-0.2-1.5-0.6c-0.4 0.4-0.9 0.6-1.5 0.6s-1.1-0.2-1.5-0.6c-0.4 0.4-0.9 0.6-1.5 0.6s-1.1-0.2-1.5-0.6c-0.4 0.4-0.9 0.6-1.5 0.6s-1.1-0.2-1.5-0.6c-0.4 0.4-0.9 0.6-1.5 0.6s-1.1-0.2-1.5-0.6c-0.4 0.4-0.9 0.6-1.5 0.6s-1.1-0.2-1.5-0.6c-0.4 0.4-0.9 0.6-1.5 0.6s-1.1-0.2-1.5-0.6c-0.4 0.4-0.9 0.6-1.5 0.6s-1.1-0.2-1.5-0.6c-0.4 0.4-0.9 0.6-1.5 0.6s-1.1-0.2-1.5-0.6c-0.4 0.4-0.9 0.6-1.5 0.6s-1.1-0.2-1.5-0.6c-0.4 0.4-0.9 0.6-1.5 0.6h-0.5v28.8h47.5v-28.8h1z" fill="#fff"/>
		<text font-size="12" font-family="&apos;MyriadPro-Regular&apos;" transform="translate(1064.9 583.18)">TOTAL</text>
	<circle r="5.3" cy="382.9" stroke="#2E3192" cx="861.7" stroke-miterlimit="10" stroke-width="2" fill="#fff"/>
	<circle r="5.3" cy="425.7" stroke="#2E3192" cx="673.7" stroke-miterlimit="10" stroke-width="2" fill="#fff"/>
	<circle r="5.3" cy="408.8" stroke="#2E3192" cx="566.7" stroke-miterlimit="10" stroke-width="2" fill="#fff"/>
	<circle r="5.3" cy="408.7" stroke="#2E3192" cx="392.3" stroke-miterlimit="10" stroke-width="2" fill="#fff"/>
	<circle r="5.3" cy="433.3" stroke="#2E3192" cx="963.9" stroke-miterlimit="10" stroke-width="2" fill="#fff"/>
		<path stroke="#58595B" stroke-width=".5" stroke-miterlimit="10" d="m559.7 703.1c1.3 0.1 2.5 0.3 3.8 0.3h180.8c1.3 0 2.5-0.2 3.8-0.3v3.1c-1.9 0-3.8-0.1-5.8-0.1h-176.9c-1.9 0-3.8 0.1-5.8 0.1 0.1-1 0.1-2 0.1-3.1z" fill="#fff"/>
		<path stroke="#58595B" stroke-width=".5" stroke-miterlimit="10" d="m748.1 707v3.1h-188.4v-3.1c25.3 0 50.7-0.1 76-0.1 37.4 0 74.9 0.1 112.4 0.1z" fill="#fff"/>
		<path stroke="#58595B" stroke-width=".5" stroke-miterlimit="10" d="m748.1 612.4c-1.4 0.1-2.8 0.3-4.2 0.3h-180c-1.4 0-2.8-0.2-4.2-0.3v-2.3c1.3 0.1 2.5 0.2 3.8 0.2h180.8c1.3 0 2.5-0.1 3.8-0.2v2.3z" fill="#fff"/>
		<path stroke="#58595B" stroke-width=".5" stroke-miterlimit="10" d="m742.8 607.9c-1.9-0.7-4-1-5.7-2.1-25.8-15.9-51.6-31.8-77.3-48-4.3-2.7-7.6-2.7-11.9 0-25.5 16-51.1 31.8-76.7 47.6-1.9 1.1-4.1 1.7-6.1 2.6-0.2-0.3-0.4-0.6-0.6-1l2.4-1.8c27.4-17.1 54.7-34.1 82.1-51.2 3.2-2 6.1-2.2 9.3-0.2 27.6 17.2 55.2 34.4 82.7 51.6 0.7 0.4 1.4 1 2.1 1.5 0 0.4-0.2 0.7-0.3 1z" fill="#fff"/>
		<path stroke="#58595B" stroke-width=".5" stroke-miterlimit="10" d="m564.6 701.9c-1-3 0.1-4 2.8-3.8 3.3 0.1 6.6 0 9.8 0 1.1-3.9 1.2-8 5.9-9.2v-61.4c-4.5-1.3-5-5.1-5.8-9.3h-12.9v-3.9h179v3.9h-13c-1 3.9-1 8-6.1 9.3v3.7 54.2c0 2-0.1 3.4 2.5 4.6 2 0.9 2.6 4.7 4.2 8.1 2.5 0 5.9 0.1 9.3 0 2.7-0.1 3.9 0.8 2.9 3.8h-178.6zm68.5-4c0.9-3.8 1-7.9 5.7-9v-61.5c-4.7-1.2-4.9-5.2-5.6-9h-14.5c-1 3.9-0.9 8.1-5.9 9v59.4c0 0.7 0.1 2 0.5 2.1 4.7 1.1 4.3 5.4 5.6 8.9 4.6 0.1 9.3 0.1 14.2 0.1zm61.6-9.1v-61.5c-5.1-0.9-4.7-5.4-5.9-8.8h-14.4c-0.5 4-1 7.8-5.5 9v61.4c4.8 1.1 4.8 5.2 5.7 8.9h14.3c0.8-5.1 2.4-8.3 5.8-9zm-53.5-30.7v23.4c0 2-0.1 4.2 2.6 4.2 2.7 0.1 2.8-2.1 2.8-4.1 0-15.5 0.1-30.9-0.1-46.4 0-1.5-1.5-4.1-2.5-4.2-2.8-0.3-2.7 2.3-2.7 4.4-0.1 7.6-0.1 15.2-0.1 22.7zm10 0v23.4c0 2-0.1 4.2 2.6 4.2 2.7 0.1 2.8-2.1 2.8-4.1 0-15.5 0.1-30.9-0.1-46.4 0-1.5-1.5-4-2.6-4.2-2.5-0.4-2.7 2-2.7 4v23.1zm-40.6 0.4v-23.1c0-2.1 0.3-4.6-2.7-4.5-2.7 0.1-2.5 2.5-2.5 4.4v46.1c0 1.9-0.3 4.2 2.5 4.3 2.8 0 2.6-2.2 2.6-4.1 0-7.7 0-15.4 0.1-23.1zm50.5-0.1v23.1c0 1.9-0.2 4.2 2.6 4.3s2.7-2.2 2.7-4.1v-46.1c0-2.1 0.2-4.6-2.8-4.5-2.7 0.1-2.5 2.4-2.5 4.4v22.9zm51 0.1v-23.4c0-2 0-4.4-2.7-4-1 0.1-2.2 2.5-2.3 3.9-0.2 15.6-0.1 31.2-0.1 46.9 0 1.8-0.1 3.9 2.5 3.9s2.5-2 2.5-3.8c0.1-7.9 0.1-15.7 0.1-23.5zm-121.5-0.1v-23.4c0-1.8 0.1-3.9-2.4-4s-2.6 1.9-2.6 3.8v47.2c0 1.9 0.1 3.8 2.6 3.8 2.6-0.1 2.4-2.1 2.4-3.9v-23.5zm10 0.5v-24.2c0-1.9-0.2-4-2.6-3.7-1 0.1-2.3 2.3-2.3 3.5-0.2 15.9-0.1 31.7 0 47.6 0 1.2 1.4 3.3 2.3 3.4 2.5 0.4 2.6-1.7 2.6-3.6v-23zm101.6-0.4v-23.4c0-2 0.1-4.4-2.6-4-1 0.1-2.3 2.5-2.3 3.9-0.2 15.6-0.1 31.2-0.1 46.8 0 1.9 0 3.8 2.5 3.9 2.6 0.1 2.6-1.9 2.6-3.8-0.1-7.8-0.1-15.6-0.1-23.4zm19.9-0.4v-22.7c0-2 0.3-4.6-2.7-4.5-2.7 0.1-2.4 2.5-2.4 4.4v46.1c0 1.9-0.4 4.2 2.5 4.3 2.8 0 2.6-2.2 2.6-4.2v-23.4z" fill="#fff"/>
		<path stroke="#58595B" stroke-width=".5" stroke-miterlimit="10" d="m748.1 707c-37.5 0-75-0.1-112.4-0.1-25.3 0-50.7 0-76 0.1v-0.8c1.9 0 3.8-0.1 5.8-0.1h176.9c1.9 0 3.8 0.1 5.8 0.1-0.1 0.3-0.1 0.5-0.1 0.8z" fill="#fff"/>
		<g fill="#58595B">
			<path d="m641.2 658.1v-22.6c0-2.1-0.1-4.6 2.7-4.4 1 0.1 2.5 2.7 2.5 4.2 0.2 15.5 0.1 30.9 0.1 46.4 0 2 0 4.2-2.8 4.1-2.7-0.1-2.6-2.3-2.6-4.2 0.1-7.9 0.1-15.7 0.1-23.5z"/>
			<path d="m651.2 658.1v-23c0-2 0.2-4.4 2.7-4 1.1 0.2 2.5 2.7 2.6 4.2 0.2 15.5 0.1 30.9 0.1 46.4 0 2-0.1 4.2-2.8 4.1s-2.6-2.3-2.6-4.2v-23.5z"/>
			<path d="m610.6 658.5v23.1c0 2 0.2 4.2-2.6 4.1-2.8 0-2.5-2.4-2.5-4.3v-46.1c0-1.9-0.2-4.3 2.5-4.4 3-0.1 2.7 2.4 2.7 4.5-0.1 7.8-0.1 15.5-0.1 23.1z"/>
			<path d="m661.1 658.4v-23.1c0-2-0.2-4.3 2.5-4.4 3-0.1 2.8 2.4 2.8 4.5v46.1c0 1.9 0.1 4.2-2.7 4.1s-2.6-2.3-2.6-4.3v-22.9z"/>
			<path d="m712.1 658.5v23.4c0 1.9 0 3.8-2.5 3.8-2.6 0-2.5-2-2.5-3.9 0-15.6-0.1-31.2 0.1-46.9 0-1.4 1.3-3.8 2.3-3.9 2.7-0.4 2.7 2 2.7 4-0.1 7.9-0.1 15.7-0.1 23.5z"/>
			<path d="m590.6 658.4v23.4c0 1.8 0.2 3.9-2.4 3.9-2.5 0.1-2.6-1.9-2.6-3.8v-47.2c0-1.9 0.1-3.9 2.6-3.8s2.4 2.2 2.4 4v23.5z"/>
			<path d="m600.6 658.9v23c0 1.9-0.1 4-2.6 3.6-1-0.2-2.3-2.2-2.3-3.4-0.2-15.9-0.2-31.7 0-47.6 0-1.2 1.4-3.3 2.3-3.5 2.4-0.4 2.6 1.7 2.6 3.7v24.2z"/>
			<path d="m702.2 658.5v23.4c0 1.9 0.1 3.9-2.6 3.8-2.5-0.1-2.5-2-2.5-3.9 0-15.6-0.1-31.2 0.1-46.8 0-1.4 1.3-3.8 2.3-3.9 2.7-0.4 2.6 2 2.6 4 0.1 7.8 0.1 15.6 0.1 23.4z"/>
			<path d="m722.1 658.1v23.4c0 2 0.2 4.2-2.6 4.2-2.9 0-2.5-2.4-2.5-4.3v-46.1c0-1.9-0.3-4.3 2.4-4.4 3-0.1 2.7 2.4 2.7 4.5v22.7z"/>
		</g>
		<path stroke="#58595B" stroke-width=".5" stroke-miterlimit="10" d="m564.1 703.4h179.1v-1.6h-179.1v1.6z" fill="#fff"/>
		<path stroke="#58595B" stroke-width=".5" stroke-miterlimit="10" d="m563.9 612.7v1.6h179.4v-1.6h-179.4z" fill="#fff"/>
		<g fill="#fff">
			<path d="m638.2 594.8h-0.8v2.8h0.9c1 0 1.9-0.4 1.9-1.4s-0.8-1.4-2-1.4z"/>
			<path d="m640 592c0-0.7-0.6-1.1-1.6-1.1-0.5 0-0.8 0-1 0.1v2.3h0.7c1.3-0.1 1.9-0.6 1.9-1.3z"/>
			<path d="m647.8 591c-0.2 0.6-0.3 1.3-0.5 1.9l-0.6 2.1h2.2l-0.6-2.1c-0.2-0.6-0.4-1.3-0.5-1.9z"/>
			<path d="m732.2 605.2c-24.5-15.2-49-30.3-73.4-45.6-3.5-2.2-6.3-2.2-9.8 0-19.3 12.1-38.7 24-58 36-6 3.7-12.1 7.5-18.9 11.8h163.4l-3.3-2.2zm-90.6-6.8c-0.7 0.6-1.9 0.9-3.9 0.9-1.1 0-1.9-0.1-2.4-0.1v-9.7c0.6-0.1 1.8-0.2 2.9-0.2 1.4 0 2.2 0.1 2.9 0.6 0.7 0.4 1.2 1 1.2 1.9s-0.5 1.7-1.6 2.1c1.1 0.3 2 1.2 2 2.4-0.1 0.9-0.5 1.6-1.1 2.1zm8.3 0.8l-0.8-2.5h-2.8l-0.7 2.5h-2.3l3-9.9h2.9l3.1 9.9h-2.4zm-3.5-23s-0.1-0.1-0.1-0.2v-1.8-0.1h1.3c0.9 0 1.8 0 2.6-0.2s1.5-0.5 2.1-1c0.7-0.6 1-1.4 1.3-2.3 0-0.1 0-0.2 0.1-0.3h-8v-0.1c0.4-0.7 0.8-1.3 1.2-2 0 0 0.1-0.1 0.2-0.1 2 0 4.1 0.1 6.1 0.1h0.1c-0.2-0.3-0.4-0.6-0.6-0.8-0.5-0.5-1.2-0.8-1.9-1-1-0.2-2-0.3-3-0.3h-2.3l0.1-0.1c0.4-0.6 0.8-1.3 1.3-1.9 0.1-0.1 0.1-0.1 0.2-0.1h13.2 0.1c0 0.1-0.1 0.1-0.1 0.1-0.4 0.6-0.8 1.2-1.2 1.9-0.1 0.1-0.1 0.1-0.2 0.1h-3.4-0.1c0.3 0.4 0.5 0.7 0.7 1.1s0.4 0.8 0.4 1.2h3.9c0 0.1-0.1 0.1-0.1 0.1l-1.2 1.8c-0.1 0.1-0.1 0.1-0.2 0.1h-2.3c-0.1 0-0.1 0-0.2 0.1 0 0.3-0.1 0.5-0.2 0.8-0.4 1.3-1.2 2.3-2.3 3s-2.3 1.1-3.6 1.4c-0.2 0-0.4 0.1-0.7 0.1 0 0.1 0.1 0.1 0.1 0.1 2.3 3 4.7 6 7 9 0.3 0.4 0.6 0.7 0.8 1.1h-3.5c-0.5-0.6-0.9-1.2-1.4-1.7-1.8-2.7-4-5.4-6.2-8.1zm15.4 23h-2.3l-2.1-3.8c-0.6-1.1-1.2-2.3-1.7-3.5 0.1 1.3 0.1 2.7 0.1 4.3v3h-2.1v-9.9h2.6l2.1 3.6c0.6 1 1.2 2.3 1.6 3.4-0.1-1.3-0.2-2.6-0.2-4.1v-2.9h2.1v9.9zm7.5 0l-2.4-4.3-0.9 1v3.2h-2.2v-9.9h2.2v4.4c0.2-0.4 0.5-0.7 0.7-1.1l2.2-3.3h2.7l-3.3 4.2 3.4 5.7h-2.4z"/>
		</g>
			<path stroke="#808285" stroke-miterlimit="10" d="m419.7 533.5l-54.3 17.8c-1.6 0.5-3.3-0.3-3.9-1.9l-26.8-81.6c-0.5-1.6 0.3-3.3 1.9-3.9l54.3-17.8c1.6-0.5 3.3 0.3 3.9 1.9l26.8 81.6c0.6 1.6-0.3 3.3-1.9 3.9z" fill="#fff"/>
				<rect transform="matrix(.3119 .9501 -.9501 .3119 699.39 -27.297)" height="54.5" width="13.5" y="442" x="361.8" fill="#2196F3"/>
				<rect transform="matrix(.9501 -.3119 .3119 .9501 -127.96 138.35)" height="12.1" width="53.1" y="463.2" x="342" fill="#fff"/>
				<rect transform="matrix(.9501 -.3119 .3119 .9501 -136.14 135.16)" height="11.4" width="11.4" y="487.5" x="348.8" fill="#5D5D5D"/>
				<rect transform="matrix(.9501 -.3119 .3119 .9501 -134.13 139.06)" height="11.4" width="11.4" y="483.1" x="362" fill="#5D5D5D"/>
				<rect transform="matrix(.9501 -.3119 .3119 .9501 -132.12 142.96)" height="11.4" width="11.4" y="478.8" x="375.2" fill="#5D5D5D"/>
				<rect transform="matrix(.9501 -.3119 .3119 .9501 -130.11 146.86)" height="11.4" width="11.4" y="474.5" x="388.4" fill="#5D5D5D"/>
				<rect transform="matrix(.9501 -.3119 .3119 .9501 -140.69 137.51)" height="11.4" width="11.4" y="502.9" x="353.8" fill="#5D5D5D"/>
				<rect transform="matrix(.9501 -.3119 .3119 .9501 -138.68 141.41)" height="11.4" width="11.4" y="498.6" x="367" fill="#5D5D5D"/>
				<rect transform="matrix(.9501 -.3119 .3119 .9501 -136.67 145.31)" height="11.4" width="11.4" y="494.2" x="380.2" fill="#5D5D5D"/>
				<rect transform="matrix(.9501 -.3119 .3119 .9501 -134.66 149.21)" height="11.4" width="11.4" y="489.9" x="393.4" fill="#5D5D5D"/>
				<rect transform="matrix(.9501 -.3119 .3119 .9501 -145.25 139.86)" height="11.4" width="11.4" y="518.3" x="358.9" fill="#5D5D5D"/>
				<rect transform="matrix(.9501 -.3119 .3119 .9501 -143.24 143.76)" height="11.4" width="11.4" y="514" x="372.1" fill="#5D5D5D"/>
				<rect transform="matrix(.9501 -.3119 .3119 .9501 -141.23 147.66)" height="11.4" width="11.4" y="509.6" x="385.3" fill="#5D5D5D"/>
				<rect transform="matrix(.9501 -.3119 .3119 .9501 -139.22 151.56)" height="11.4" width="11.4" y="505.3" x="398.5" fill="#5D5D5D"/>
				<rect transform="matrix(.9501 -.3119 .3119 .9501 -149.8 142.2)" height="11.4" width="11.4" y="533.7" x="364" fill="#5D5D5D"/>
				<rect transform="matrix(.9501 -.3119 .3119 .9501 -147.79 146.1)" height="11.4" width="11.4" y="529.4" x="377.2" fill="#5D5D5D"/>
				<rect transform="matrix(.9501 -.3119 .3119 .9501 -145.78 150)" height="11.4" width="11.4" y="525.1" x="390.4" fill="#5D5D5D"/>
				<rect transform="matrix(.9501 -.3119 .3119 .9501 -143.77 153.9)" height="11.4" width="11.4" y="520.7" x="403.6" fill="#5D5D5D"/>
			<text font-size="7.9968" font-family="&apos;MyriadPro-Regular&apos;" transform="matrix(.9501 -.3119 .3119 .9501 344.31 479.54)" fill="#6D6E71">1.61803398875</text>
		<path d="m829.2 665.8c8.4 6.8 16.7 13.6 24.9 20.3 0.4 0.3 0.6 0.9 0.6 1.4v27.5h-16.1v-27.8h-18.9v27.8h-16c-0.1-0.3-0.1-0.5-0.1-0.8v-26.6c0-0.5 0.3-1.2 0.7-1.6 8.3-6.7 16.6-13.4 24.9-20.2z" fill="#fff"/>
		<path d="m867.1 680.6c-2.2 2.7-4.3 5.3-6.5 8-10.5-8.5-20.9-17-31.3-25.5-10.4 8.5-20.8 17-31.4 25.5-2.2-2.7-4.3-5.3-6.5-8 12.7-10.3 25.2-20.5 37.8-30.8 12.6 10.3 25.2 20.5 37.9 30.8z" fill="#5D5D5D"/>
		<polygon points="854.7 667.4 838.7 654.8 838.7 652.5 854.7 652.5" fill="#fff"/>
		<path d="m935.2 666.1c6.5 0.1 13 0.1 19.5 0.2 0.3 0 0.6 0.1 1 0.1 3.2 0.3 6.4 0.4 9.6 0.9 2.3 0.3 4.6 0.8 6.7 1.7 7.7 3.5 15.1 7.4 22.3 11.9 0.3 0.2 0.6 0.3 0.9 0.3 7.7 0.7 15.5 1.7 23 3.4 2.8 0.6 5.5 1.5 8.2 2.4 0.9 0.3 1.8 0.9 2.3 1.6 1.4 1.7 2.3 3.7 2.9 5.9 0.1 0.2 0.1 0.5 0.2 0.6 1.2 0.8 1 2 0.9 3.2-0.1 1.8-0.4 3.6-0.4 5.3 0 1-0.3 1.6-1.3 1.9-1.4 0.4-2.7 1.2-4.1 1.5-1.8 0.4-3.7 0.4-5.5 0.7-2.1 0.3-4.1 0.6-6.2 1-0.3 0-0.6 0.3-0.8 0.5-1.9 3.7-5 5.5-9 5.7-5.2 0.3-9.4-1.5-12.1-6.1-0.2-0.4-0.5-0.5-0.9-0.4-1 0.2-2 0.4-2.9 0.4-2.8 0-5.5-0.1-8.3-0.1-15.5-0.3-30.9-0.6-46.4-0.9-0.5 0-0.9 0-1.3 0.5-0.1 0.2-0.6 0.4-0.9 0.4-1 0-2.1-0.1-3.1-0.1-0.4 0-0.6 0.1-0.8 0.5-0.9 2.2-2.4 3.7-4.5 4.8-1.1 0.5-2.2 0.9-3.3 1.3-2.1 0-4.2 0-6.3-0.1l-0.1-0.1c-3.9-1.1-6.6-3.4-7.7-7.4-0.1-0.2-0.4-0.4-0.6-0.4-0.8-0.1-1.7 0-2.5-0.1-4.2-0.6-8.4-1.3-12.7-1.9-2-0.3-3.9-0.6-5.3-2.1-0.6-0.6-1.2-1.3-1.7-1.9v-0.5c0.6-0.3 0.7-0.8 0.6-1.5-0.2-1.3-0.3-2.7-0.4-4-0.1-1.4 0.1-2.6 1.4-3.5 0.2-0.1 0.2-0.5 0.3-0.8 0.1-2.1 0.1-4.1 0.3-6.2 0.2-1.6 0.6-3.1 1-4.7 0.2-0.7 0.7-1.4 1.6-1.5 2.2-0.3 4.3-0.6 6.5-0.8 2.4-0.2 4.7-0.8 6.9-1.9 2.5-1.3 5.2-2.4 7.8-3.7 6.9-3.4 14.2-5.2 21.9-5.5 1.1-0.3 2.2-0.4 3.3-0.5zm45.2 11.6c-7.9-7.1-17.4-9.3-27.7-9 1.2 3.4 2.3 6.8 3.5 10.2 0.7 2 1.4 2.5 3.5 2.6 4.8 0.2 9.7 0.5 14.5 0.7 1.3 0.1 2.6 0 3.8 0-1-1.2-1.2-1.9-0.7-2.9 0.6-1.3 1.7-1.7 3.1-1.6zm-31.8-9.3c-6.5-0.1-12.9-0.1-19.3 1.2 0.4 3.6 0.8 7 1.2 10.6h2.7c5.1 0.2 10.3 0.5 15.4 0.7 1.5 0.1 2.1-0.5 1.8-1.9-0.5-3.5-1.1-7-1.8-10.6zm55.8 43.2c4.5 0.1 8.1-3.5 8.2-8s-3.5-8.2-7.9-8.3c-4.5-0.1-8.2 3.5-8.3 8 0 4.6 3.6 8.3 8 8.3zm-86.3 0.3c4.5 0 8.1-3.6 8.1-8.1s-3.6-8.2-8-8.2c-4.5-0.1-8.2 3.6-8.2 8.1s3.6 8.2 8.1 8.2zm10.4-42.1c-0.5 0.1-1 0.2-1.4 0.4-3 0.8-5.8 2-8.3 3.8-1 0.7-1.7 1.6-1.4 2.9 0.3 1.8 1.6 2.8 3.4 2.9 1.6 0.1 3.2 0.2 4.9 0.2h4c-0.4-3.4-0.8-6.7-1.2-10.2zm-36.6 18.9c0-1.8 0.1-3.5 0-5.1-0.1-1.4-0.7-2.7-1.9-3.6-1.4-1-1.9-0.9-2.3 0.7-0.5 1.8-0.6 3.7-0.9 5.6-0.1 0.8 0 1.6 0 2.3 1.7 0.1 3.4 0.1 5.1 0.1zm137.9 5.2c-0.4-1.4-2-3.7-3.1-4.3-0.2-0.1-0.4-0.2-0.6-0.2-1.2 0.1-2.4 0.1-3.5 0.3-0.5 0.1-1.1 0.4-1.4 0.7-0.7 1-1.1 2.2-1.7 3.4 3.5 0 6.9 0.1 10.3 0.1zm-70.6-7.2h2.2c0.5 0 0.9-0.1 0.9-0.7s-0.4-0.7-0.9-0.7h-4.5c-0.5 0-1 0.2-0.9 0.7 0 0.3 0.5 0.6 0.8 0.7h2.4zm-33.6-2.6c-0.8 0-1.5-0.1-2.3 0-0.3 0-0.8 0.4-0.8 0.7-0.1 0.5 0.3 0.7 0.8 0.7 1.5 0 3.1 0.1 4.6 0 0.3 0 0.6-0.4 0.8-0.7-0.3-0.2-0.5-0.6-0.9-0.7h-2.2z" fill="#FC495F"/>
		<path d="m980.4 677.7c-1.4-0.1-2.5 0.4-3.1 1.6-0.5 1-0.2 1.7 0.7 2.9h-3.8c-4.8-0.2-9.7-0.5-14.5-0.7-2.1-0.1-2.8-0.6-3.5-2.6-1.2-3.4-2.3-6.8-3.5-10.2 10.4-0.4 19.8 1.9 27.7 9z" fill="#D1D3D4"/>
		<path d="m948.6 668.4c0.6 3.6 1.2 7.1 1.8 10.6 0.2 1.4-0.3 2-1.8 1.9-5.1-0.2-10.3-0.5-15.4-0.7h-2.7c-0.4-3.6-0.8-7-1.2-10.6 6.5-1.3 12.9-1.3 19.3-1.2z" fill="#D1D3D4"/>
		<path d="m928.5 669.8c0.4 3.5 0.8 6.8 1.1 10.1h-4c-1.6 0-3.2-0.1-4.9-0.2-1.8-0.1-3-1.1-3.4-2.9-0.3-1.3 0.4-2.2 1.4-2.9 2.5-1.8 5.3-3 8.3-3.8 0.5 0 1-0.1 1.5-0.3z" fill="#D1D3D4"/>
		<path d="m891.9 688.7h-5.1c0-0.8-0.1-1.6 0-2.3 0.2-1.9 0.4-3.8 0.9-5.6 0.4-1.7 1-1.7 2.3-0.7 1.2 0.9 1.8 2.2 1.9 3.6 0.1 1.5 0 3.2 0 5z" fill="#D1D3D4"/>
		<path d="m1029.8 693.9c-3.4 0-6.8-0.1-10.3-0.1 0.6-1.2 1.1-2.3 1.7-3.4 0.2-0.4 0.9-0.7 1.4-0.7 1.2-0.2 2.4-0.2 3.5-0.3 0.2 0 0.4 0 0.6 0.2 1.1 0.6 2.7 3 3.1 4.3z" fill="#D1D3D4"/>
		<path d="m959.2 686.7c-0.7 0-1.5 0.1-2.2-0.1-0.3 0-0.8-0.4-0.8-0.7-0.1-0.5 0.4-0.7 0.9-0.7h4.5c0.5 0 0.9 0.2 0.9 0.7 0 0.6-0.4 0.7-0.9 0.7-0.9 0.1-1.7 0.1-2.4 0.1z" fill="#D1D3D4"/>
		<path d="m925.6 684.1c0.7 0 1.5-0.1 2.2 0.1 0.3 0 0.6 0.4 0.9 0.7-0.3 0.2-0.6 0.7-0.8 0.7-1.5 0.1-3.1 0-4.6 0-0.5 0-0.9-0.2-0.8-0.7 0.1-0.3 0.5-0.6 0.8-0.7 0.7-0.2 1.5-0.1 2.3-0.1z" fill="#D1D3D4"/>
			<path d="m1004.7 696.1c-4.1-0.1-7.5 3.2-7.5 7.3s3.2 7.4 7.3 7.5c4.1 0 7.4-3.2 7.5-7.3 0-4.1-3.3-7.4-7.3-7.5zm-0.2 12.1c-2.6 0-4.7-2.2-4.7-4.8s2.2-4.7 4.8-4.7 4.7 2.2 4.6 4.8c0 2.7-2.1 4.8-4.7 4.7z" fill="#58595B"/>
			<path d="m1004.5 707.6c-2.3 0-4.1-1.9-4.1-4.2s1.9-4.1 4.2-4.1 4.1 1.9 4 4.2c0 2.3-1.8 4.2-4.1 4.1z" fill="#808285"/>
			<path d="m918.2 696.3c-4.1-0.1-7.5 3.2-7.5 7.3s3.2 7.4 7.3 7.5c4.1 0 7.4-3.2 7.5-7.3 0-4.1-3.2-7.4-7.3-7.5zm-0.2 12.1c-2.6 0-4.7-2.2-4.7-4.8s2.2-4.7 4.8-4.7 4.7 2.2 4.6 4.8c0.1 2.7-2.1 4.8-4.7 4.7z" fill="#58595B"/>
			<path d="m918 707.8c-2.3 0-4.1-1.9-4.1-4.2s1.9-4.1 4.2-4.1 4.1 1.9 4 4.2c0.1 2.3-1.8 4.2-4.1 4.1z" fill="#808285"/>
	<polyline fill="none" stroke="#2E3192" stroke-linecap="round" stroke-miterlimit="10" stroke-width="2" points="691.8 340 691.8 409.5 706.6 419.5 830 419.5 841 431.5 841 564"/>
	<g fill="#fff">
		<path d="m410.2 620.3c-6.7 0-12-5.2-12.1-11.9 0-6.7 5.2-12 11.9-12s12.1 5.3 12.1 11.9c0.1 6.6-5.3 12-11.9 12z"/>
			<path d="m434.2 602.9c-0.5 0-1.4 0.6-1.6 1.1-1 2.4-1.7 4.8-2.6 7.3 1.5 0.1 2.7 0.2 4.1 0.4-3.1 11.7-6.2 23.2-9.3 34.7-10.5-1.6-13.3-4.4-14.4-14.3-0.1-0.7-0.2-1.4-0.2-2.2-0.5-5.9-4.8-10.6-10.4-11.4s-9.6 1.9-11.6 8.4c-2.3 7.6-4.4 15.3-5.8 23.1-0.7 3.9 0 8.2 0.3 12.2 0.1 2 1 3.9 1.2 5.8 0.2 2.2 0 4.3 0 6.5 0 11-0.1 21.9 0 32.9 0 5.5 5 9 9.7 6.9 3.3-1.5 4.2-4.3 4.2-7.6 0-12.6 0-25.3 0.1-37.9 0-1.1 0.6-2.3 1.1-3.2 1.1-1.9 2.7-3.6 3.3-5.6 1.2-3.9 1.9-7.9 3-12.5 4.2 6.2 10.4 7.3 16.4 8.9-0.2 1.2-0.3 2.3-0.5 3.6h10.1v55h31.1v-112.2c-9.4 0-18.8 0-28.2 0.1zm9 2.8h6v0.9h-2.5v7.2h-1.1v-7.2h-2.5v-0.9zm-3.4 0h1.3l2.8 8.1h-1.1l-0.9-2.5h-2.9l-0.8 2.5h-1.2l2.8-8.1zm10.2 24.4c1.4 0 2.9 0 4.4-0.1 0 0.1-0.1 0.1-0.1 0.1-0.4 0.7-0.9 1.4-1.3 2.1-0.1 0.1-0.1 0.1-0.2 0.1h-2.6c-0.1 0-0.2 0-0.2 0.2-0.2 1.5-0.9 2.7-2 3.6-1.1 1-2.5 1.6-4 1.9l-1.5 0.3h-0.1c0.1 0.1 0.1 0.2 0.2 0.3 2.9 3.7 5.8 7.5 8.7 11.2l0.1 0.1h-4c-1.6-2.1-3.3-4.1-4.9-6.2-1.3-1.7-2.7-3.3-4-5 0 0-0.1-0.1-0.1-0.2v-2.1-0.1h0.6c1.1 0.1 2.2 0.1 3.3-0.1 0.9-0.1 1.8-0.4 2.6-1 0.9-0.7 1.4-1.6 1.7-2.7 0-0.1 0.1-0.3 0.1-0.4-3 0-6 0-9-0.1 0-0.1 0.1-0.1 0.1-0.2 0.4-0.7 0.9-1.5 1.3-2.2 0.1-0.1 0.1-0.1 0.2-0.1 2.3 0 4.6 0.1 6.9 0.1h0.1c0-0.1-0.1-0.1-0.1-0.2-0.4-0.8-1.1-1.3-1.9-1.6s-1.6-0.4-2.5-0.5c-1.4-0.1-2.7-0.1-4.1-0.1h-0.2s0-0.1 0.1-0.1c0.5-0.7 1-1.5 1.5-2.2 0.1-0.1 0.1-0.1 0.2-0.1h8.2 6.7 0.2c0 0.1-0.1 0.1-0.1 0.1-0.4 0.7-0.9 1.4-1.3 2.1-0.1 0.1-0.1 0.1-0.2 0.1h-3.8-0.2c0.5 1.2 1.1 2 1.2 3zm7.1-16.3l-0.2-3.5c-0.1-1.1-0.1-2.5-0.1-3.5-0.3 0.9-0.6 2-1 3.1l-1.4 3.9h-0.8l-1.3-3.8c-0.4-1.1-0.7-2.2-0.9-3.1 0 1-0.1 2.4-0.2 3.6l-0.2 3.5h-1l0.6-8.1h1.3l1.4 3.9c0.3 1 0.6 1.9 0.8 2.7 0.2-0.8 0.5-1.7 0.9-2.7l1.4-3.9h1.3l0.5 8.1h-1.1z"/>
			<path d="m440.8 608.1c-0.2-0.5-0.3-1-0.4-1.5-0.1 0.5-0.3 1-0.4 1.5l-0.8 2.3h2.4l-0.8-2.3z"/>
	</g>
			<path d="m313.5 633.6l-71.1 46.2c-4.6 3-10.7 1.7-13.6-2.9l-29.5-45.5c-3-4.6-1.7-10.7 2.9-13.6l71.1-46.2c4.6-3 10.7-1.7 13.6 2.9l29.5 45.5c3 4.6 1.7 10.7-2.9 13.6z" fill="#5D5D5D"/>
				<rect transform="matrix(.8385 -.5449 .5449 .8385 -298.78 242.05)" height="57.2" width="87.7" y="596.4" x="215" fill="#fff"/>
			<circle cy="651.4" cx="218.3" r="3.4" fill="#fff"/>
				<rect transform="matrix(.8385 -.5449 .5449 .8385 -278.58 259.29)" height="19.2" width=".9" y="589.9" x="297.7" fill="#fff"/>
		<path d="m274.4 614.7c0-0.1-0.1-0.1-0.1-0.2 0.6-1.4 1.2-2.8 1.9-4.2 0.9-2 1.8-4 3.3-5.8 0.7-0.8 1.4-1.5 2.4-1.8 1.9-0.6 3.7-0.3 5.4 0.9 0.4 0.3 3.8 3.5 1.6 7.2-0.9 1.6-2.3 2.6-4 2.9-1.8 0.4-3.7 0.5-5.6 0.7-1.6 0.3-3.3 0.3-4.9 0.3zm8.2-8.2c-0.9 0.5-1.2 2-0.6 2.9s1.7 1.3 2.9 0.7c0.8-0.4 1.1-1.9 0.7-2.6-0.7-1.4-2-1.4-3-1z" fill="#2196F3"/>
			<text font-size="12" font-family="&apos;MyriadPro-Regular&apos;" transform="matrix(.5694 .8221 -.8221 .5694 248.4 613.5)" fill="#2196F3"><tspan y="0" x="0">Online</tspan><tspan y="14.4" x="-3.8">Banking</tspan></text>
		<path d="m842.4 635.3h-49.5c-2.8 0-3.9-0.8-4.7-3.5-0.1-0.5-0.1-1.1 0.2-1.5 2.9-4.9 5.8-9.7 8.7-14.6 0.4-0.7 0.8-0.9 1.6-0.9h86.9c0.9 0 1.3 0.3 1.8 1 2.7 4.6 5.5 9.2 8.2 13.7 1.5 2.5-0.1 5.6-3.1 5.8h-1.3-48.8zm-45.3-9.8c1.1 0.1 1.7 0.1 2.4 0.1h85.7 1c1.3-0.1 1.4-0.3 0.8-1.4-1.1-2.1-2.4-4.1-3.4-6.2-0.8-1.6-1.8-2-3.5-2h-75.5c-0.5 0-1-0.1-1.4 0.1-0.5 0.1-1.1 0.3-1.3 0.7-1.6 2.7-3.1 5.6-4.8 8.7zm33.9 4.8h21c-0.1-0.7-0.2-1.2-0.2-1.7-0.2-1.9-0.2-1.9-2.2-1.9h-15.3c-3.4 0-3.4 0-3.4 3.3 0 0.1 0 0.2 0.1 0.3z" fill="#5D5D5D"/>
		<path d="m797.9 614.6v-1.6-52c0-2 0.1-2.1 2-2.1h84.7c1.8 0 2 0.1 2 1.8v52.7c0 0.4 0 0.7-0.1 1.2h-88.6zm44.5-3.7v-0.2h38.8c1.9 0 1.9 0 1.9-2v-43.7c0-2.3 0-2.3-2.2-2.3h-77.3c-2.2 0-2.2 0.1-2.2 2.3v43.6c0 2.2 0.1 2.3 2.3 2.3h38.7zm-0.2-48.8h2.1c0.9 0.1 1.4-0.3 1.4-1.3s-0.4-1.4-1.4-1.4c-1.3 0-2.6 0.1-3.9 0-1.1-0.1-1.4 0.4-1.4 1.4 0 1.1 0.5 1.4 1.4 1.3 0.6-0.1 1.2 0 1.8 0z" fill="#5D5D5D"/>
		<path d="m797.1 625.5c1.7-3.2 3.2-6 4.8-8.8 0.2-0.4 0.8-0.6 1.3-0.7 0.4-0.1 0.9-0.1 1.4-0.1h75.5c1.7 0 2.8 0.4 3.5 2 1 2.1 2.3 4.2 3.4 6.2 0.6 1.1 0.4 1.4-0.8 1.4h-1-85.7c-0.7 0.2-1.4 0.1-2.4 0zm52.8-2.4h-24.4c-0.3 0-0.6 0.4-0.9 0.6 0.1 0.1 0.1 0.3 0.2 0.4h4.2 19.8c0.5 0 1.4 0.3 1.1-1zm-48.7-2.1c0 0.1 0.1 0.2 0.1 0.3h11.3c0.3 0 0.5-0.4 0.8-0.6-3.9-0.3-7.7-0.3-11.4-0.3-0.3-0.1-0.5 0.3-0.8 0.6zm68.1 3c-0.3-0.4-0.6-0.8-0.8-0.8-2.1-0.1-4.2 0-6.4 0 0.4 1 3 1.3 7.2 0.8zm-59-6.3c-2.6-0.5-7-0.3-7.6 0.4 1.7 0.6 6.8 0.4 7.6-0.4zm-10.7 6.4h4.6c0.4 0 0.7-0.4 1.1-0.6-4.6-0.6-5.2-0.5-5.7 0.6zm9.5-0.1c3.3 0.4 3.8 0.3 3.9-0.9-1.2 0.3-2.6-0.6-3.9 0.9zm39-3.6c0.3 1 0.9 1.1 3.5 0.8-0.1-1.1-0.5-1.2-3.5-0.8zm11.3 0.7c-0.4-1-1.8-1.2-3.6-0.6 0.4 0.9 0.9 1 3.6 0.6zm4.2-0.7c0.2 1 1.4 1.2 3.6 0.7-0.4-1-0.7-1-3.6-0.7zm-42.6 2.8c-3.3-0.3-3.4-0.2-3.7 0.9 3.5 0.2 3.5 0.2 3.7-0.9zm36.9 0.9c0.1-0.1 0.1-0.2 0.2-0.3-0.3-0.2-0.5-0.6-0.8-0.6-0.8-0.1-1.6-0.1-2.3 0-0.2 0-0.4 0.3-0.6 0.5 0.2 0.2 0.4 0.4 0.7 0.5 0.9 0 1.9-0.1 2.8-0.1zm19.1-0.1c-0.4-1.1-0.5-1.1-3.7-0.8 0.3 1.1 0.7 1.2 3.7 0.8zm-60.1-2.9c2.7 0.4 3.3 0.3 3.7-0.7-2.3-0.4-3.2-0.2-3.7 0.7zm11.5-0.5c-0.1-0.1-0.1-0.2-0.2-0.3h-2.8c-0.2 0-0.5 0.3-0.7 0.4 0.2 0.2 0.4 0.5 0.7 0.5 0.7 0.1 1.4 0.1 2.1 0 0.3 0 0.6-0.4 0.9-0.6zm47.7 0.8c-0.7-1.2-2.3-1.4-4-0.7 1.2 1.1 2.5 0.3 4 0.7zm8.3 2.6c-0.9-1.6-2.4-0.5-3.6-0.8 0.8 1.7 2.4 0.5 3.6 0.8zm-51.8-3.7v0.6c1.1 0.1 2.2 0.2 3.3 0.2 0 0 0.2-0.4 0.1-0.5-0.1-0.2-0.3-0.3-0.5-0.3h-2.9zm11.5 0h-3.2c-0.2 0-0.4 0.3-0.5 0.5 0.2 0.2 0.3 0.5 0.5 0.5 0.8 0 1.7 0.1 2.5 0 0.2-0.1 0.3-0.5 0.7-1zm35.4 0c0.5 1.1 1.7 1.3 3.7 0.7-1.1-1.3-2.4-0.5-3.7-0.7zm-8.5-2.8c0.6 1 2.3 1.1 4.1 0.3-1.5-0.5-2.7-0.2-4.1-0.3zm-32.1-0.1c-1.3 0.1-2.4 0.1-3.5 0.2 1.4 1.1 3 0.9 3.5-0.2zm42.9 0.7c0-0.2 0-0.3 0.1-0.5-1.2-0.1-2.4-0.1-3.7-0.2 0.6 1.1 1.9 1.2 3.6 0.7zm-38.8-0.4c1.2 0.9 2.8 0.8 3.3 0h-3.3zm18.4 0h-3.4c0.7 0.8 2.2 0.9 3.4 0zm3.6-0.2c0.7 1 2.4 1.1 3.7 0.3-1.2-0.6-2.4-0.2-3.7-0.3zm-51.6 0.6c1.1 0.1 2.3 0.6 3.3-0.4-1.2-0.1-2.3-0.5-3.3 0.4zm10.9 0.1c-1.4-1-3.2-0.9-3.7 0h3.7zm3.8-0.1c1.7 0.5 2.8 0.3 3.4-0.4-1.6-0.5-2.8-0.3-3.4 0.4zm22.4-0.6c0.6 0.8 3.1 1.1 3.4 0.7 0.1-0.1-0.2-0.6-0.4-0.6-0.9-0.1-1.9-0.1-3-0.1z" fill="#fff"/>
		<path d="m831 630.3c-0.1-0.2-0.1-0.2-0.1-0.3 0.1-3.3 0.1-3.3 3.4-3.3h15.3c2 0 2 0 2.2 1.9 0.1 0.5 0.1 1.1 0.2 1.7h-21z" fill="#fff"/>
		<path d="m842.4 610.9h-38.7c-2.2 0-2.3-0.1-2.3-2.3v-43.6c0-2.2 0.1-2.3 2.2-2.3h77.3c2.2 0 2.2 0 2.2 2.3v43.7c0 2 0 2-1.9 2h-38.8v0.2zm-5.6-24.3c1.6-1.4 3-2.6 4.7-4-6.9-2.5-13.4-4.8-20.3-7.3 2.9 6.8 5.6 13.1 8.5 19.6 1.5-1.6 2.8-3 4.2-4.5 3.5 3.2 6.8 6.3 10.2 9.5 1.1-1.2 2.2-2.3 3.2-3.5-3.5-3.3-6.8-6.4-10.5-9.8z" fill="#fff"/>
		<path d="m842.2 562.1h-1.8c-1 0.1-1.5-0.2-1.4-1.3 0-1 0.3-1.5 1.4-1.4 1.3 0.1 2.6 0 3.9 0 1 0 1.4 0.4 1.4 1.4s-0.4 1.3-1.4 1.3c-0.7-0.1-1.4 0-2.1 0z" fill="#fff"/>
		<path d="m849.9 623.1c0.3 1.3-0.6 1-1.1 1h-19.8-4.2c-0.1-0.1-0.1-0.3-0.2-0.4 0.3-0.2 0.6-0.6 0.9-0.6h24.4z"/>
		<path d="m801.2 621c0.3-0.2 0.5-0.6 0.8-0.6 3.8 0 7.5 0 11.4 0.3-0.3 0.2-0.5 0.6-0.8 0.6h-11.3c0-0.1-0.1-0.2-0.1-0.3z"/>
		<path d="m869.3 624c-4.3 0.5-6.9 0.2-7.2-0.9h6.4c0.3 0.1 0.5 0.5 0.8 0.9z"/>
		<path d="m810.3 617.7c-0.9 0.8-6 1-7.6 0.4 0.6-0.7 5.1-0.9 7.6-0.4z"/>
		<path d="m799.6 624.1c0.4-1.2 1.1-1.3 5.7-0.6-0.4 0.2-0.7 0.6-1.1 0.6-1.5 0.1-3 0-4.6 0z"/>
		<path d="m809.1 624c1.3-1.5 2.7-0.5 3.9-0.9-0.1 1.1-0.6 1.3-3.9 0.9z"/>
		<path d="m848.1 620.4c3.1-0.4 3.4-0.3 3.5 0.8-2.7 0.3-3.3 0.2-3.5-0.8z"/>
		<path d="m859.4 621.1c-2.7 0.4-3.2 0.3-3.6-0.6 1.8-0.5 3.1-0.3 3.6 0.6z"/>
		<path d="m863.6 620.4c2.9-0.3 3.1-0.3 3.6 0.7-2.2 0.5-3.4 0.3-3.6-0.7z"/>
		<path d="m821 623.2c-0.3 1.1-0.3 1.1-3.7 0.9 0.3-1.1 0.4-1.2 3.7-0.9z"/>
		<path d="m857.9 624.1h-2.9c-0.2 0-0.4-0.3-0.7-0.5 0.2-0.2 0.4-0.5 0.6-0.5 0.8-0.1 1.6-0.1 2.3 0 0.3 0 0.5 0.4 0.8 0.6 0.1 0.2 0 0.3-0.1 0.4z"/>
		<path d="m877 624c-3 0.3-3.4 0.2-3.7-0.8 3.3-0.3 3.4-0.2 3.7 0.8z"/>
		<path d="m816.9 621.1c0.5-0.9 1.4-1.1 3.7-0.7-0.4 1-1 1.1-3.7 0.7z"/>
		<path d="m828.4 620.6c-0.3 0.2-0.6 0.6-0.9 0.6-0.7 0.1-1.4 0.1-2.1 0-0.2 0-0.4-0.3-0.7-0.5 0.2-0.2 0.5-0.4 0.7-0.4 0.9-0.1 1.8 0 2.8 0 0.1 0.1 0.1 0.2 0.2 0.3z"/>
		<path d="m876.1 621.4c-1.4-0.4-2.8 0.5-4-0.7 1.7-0.7 3.3-0.5 4 0.7z"/>
		<path d="m884.4 624c-1.2-0.3-2.7 0.9-3.6-0.8 1.2 0.3 2.7-0.8 3.6 0.8z"/>
		<path d="m832.6 620.3h2.9c0.2 0 0.4 0.2 0.5 0.3s-0.1 0.5-0.1 0.5c-1.1 0-2.2-0.1-3.3-0.2v-0.6z"/>
		<path d="m844.1 620.3c-0.4 0.5-0.6 0.9-0.8 0.9-0.8 0.1-1.6 0.1-2.5 0-0.2 0-0.4-0.3-0.5-0.5 0.2-0.2 0.3-0.4 0.5-0.5 1 0.1 2 0.1 3.3 0.1z"/>
		<path d="m879.5 620.3c1.3 0.2 2.6-0.6 3.7 0.7-2 0.6-3.2 0.4-3.7-0.7z"/>
		<path d="m871 617.5c1.3 0 2.6-0.3 4.1 0.3-1.7 0.9-3.5 0.7-4.1-0.3z"/>
		<path d="m838.9 617.4c-0.5 1.1-2 1.2-3.5 0.2 1.1 0 2.2-0.1 3.5-0.2z"/>
		<path d="m881.8 618.1c-1.6 0.6-3 0.4-3.6-0.6 1.3 0.1 2.5 0.1 3.7 0.2-0.1 0.1-0.1 0.2-0.1 0.4z"/>
		<path d="m843 617.7h3.3c-0.5 0.8-2.1 0.9-3.3 0z"/>
		<path d="m861.4 617.7c-1.2 0.9-2.7 0.9-3.4 0h3.4z"/>
		<path d="m865 617.5c1.3 0.1 2.5-0.3 3.7 0.3-1.3 0.9-3 0.7-3.7-0.3z"/>
		<path d="m813.4 618.1c1-1 2.1-0.5 3.3-0.4-1 1.1-2.2 0.5-3.3 0.4z"/>
		<path d="m824.3 618.2h-3.7c0.6-0.9 2.3-1 3.7 0z"/>
		<path d="m828.1 618.1c0.6-0.8 1.8-0.9 3.4-0.4-0.5 0.8-1.7 0.9-3.4 0.4z"/>
		<path d="m850.5 617.5h3c0.1 0 0.4 0.5 0.4 0.6-0.3 0.6-2.8 0.2-3.4-0.6z"/>
		<path d="m836.8 586.6c3.7 3.5 7 6.6 10.4 9.8-1.1 1.1-2.1 2.3-3.2 3.5-3.4-3.2-6.8-6.3-10.2-9.5-1.4 1.5-2.7 2.9-4.2 4.5-2.8-6.5-5.5-12.8-8.5-19.6 6.9 2.5 13.4 4.8 20.3 7.3-1.6 1.4-3 2.6-4.6 4z"/>
	<circle r="5.3" cy="419.7" stroke="#2E3192" cx="751.1" stroke-miterlimit="10" stroke-width="2" fill="#fff"/>
</svg>
