<?xml version="1.0" encoding="UTF-8" standalone="no"?>
<!-- Generator: Adobe Illustrator 18.0.0, SVG Export Plug-In . SVG Version: 6.00 Build 0)  -->
<!DOCTYPE svg  PUBLIC '-//W3C//DTD SVG 1.1//EN'  'http://www.w3.org/Graphics/SVG/1.1/DTD/svg11.dtd'>
<svg id="Layer_1" xmlns="http://www.w3.org/2000/svg" xml:space="preserve" viewBox="0 0 1366 715" version="1.1" y="0px" x="0px" xmlns:xlink="http://www.w3.org/1999/xlink" enable-background="new 0 0 1366 715">
	<linearGradient id="SVGID_1_" y2="715.7" gradientUnits="userSpaceOnUse" x2="683" y1="-1.5321" x1="683">
		<stop stop-color="#81C784" offset="0"/>
		<stop stop-color="#4CAF50" offset="1"/>
	</linearGradient>
	<rect width="1366" height="715" fill="url(#SVGID_1_)"/>
					<path d="m767.9 378.9c12.5 0 22.6-10.1 22.6-22.6s-10.1-22.6-22.6-22.6c-0.7 0-1.5 0-2.2 0.1 2.4-4.2 3.8-9 3.8-14.2 0-15.6-12.7-28.3-28.3-28.3-7.1 0-13.5 2.6-18.5 6.9-4.8-26.8-28.2-47.1-56.3-47.1-31.6 0-57.2 25.6-57.2 57.2 0 3.1 0.2 6 0.7 9-1.2-0.1-2.3-0.2-3.5-0.2-17 0-30.9 13.8-30.9 30.9 0 15.8 11.9 28.9 27.3 30.6l165.1 0.3z" fill="#fff"/>
		<defs>
			<rect id="SVGID_2_" y="46" width="1366" height="669"/>
		</defs>
		<clipPath id="SVGID_3_">
			<use overflow="visible" xlink:href="#SVGID_2_"/>
		</clipPath>
		<path fill="#58595B" d="m915.6 619.4v57.9h-402.1v-63.8l62.9-27.1 69.3-8.5 64.3-24.4c-0.1 0 132.1-4.3 205.6 65.9z" clip-path="url(#SVGID_3_)"/>
		<g fill="#fff" stroke="#58595B" stroke-width=".5" stroke-miterlimit="10" clip-path="url(#SVGID_3_)">
					<rect height="109.6" width="132.9" y="568.7" x="380.5"/>
					<rect height="14.8" width="100.1" y="553.9" x="397"/>
					<rect height="11.1" width="66.2" y="542.8" x="413.9"/>
			<line y2="678.3" x1="397" x2="397" y1="568.7"/>
			<line y2="678.3" x1="413.9" x2="413.9" y1="568.7"/>
			<line y2="678.3" x1="430.8" x2="430.8" y1="568.7"/>
			<line y2="678.3" x1="447.7" x2="447.7" y1="568.7"/>
			<line y2="678.3" x1="464.6" x2="464.6" y1="568.7"/>
			<line y2="678.3" x1="481.6" x2="481.6" y1="568.7"/>
			<line y2="678.3" x1="498.5" x2="498.5" y1="568.7"/>
		</g>
		<g clip-path="url(#SVGID_3_)">
			<polygon stroke="#58595B" stroke-width=".5" stroke-miterlimit="10" points="986.2 677.3 986.2 498.3 979.7 498.3 979.7 489.5 970 489.5 970 478.4 964.5 478.4 964.5 489.5 955.7 489.5 955.7 498.3 914.2 498.3 914.2 677.3" fill="#fff"/>
				<line y1="665.3" x2="948.2" x1="920" y2="665.3" fill="#fff"/>
				<path d="m920 665.3s1.8-0.1 4.4-0.1c1.3 0 2.9 0 4.5-0.1h5.2 5.2c1.7 0 3.2 0.1 4.5 0.1 2.6 0.1 4.4 0.1 4.4 0.1s-1.8 0.1-4.4 0.1c-1.3 0-2.9 0-4.5 0.1h-5.2-5.2c-1.7 0-3.2-0.1-4.5-0.1-2.7 0-4.4-0.1-4.4-0.1z" fill="#58595B"/>
				<line y1="653.4" x2="948.2" x1="920" y2="653.4" fill="#fff"/>
				<path d="m920 653.4s1.8-0.1 4.4-0.1c1.3 0 2.9 0 4.5-0.1h5.2 5.2c1.7 0 3.2 0.1 4.5 0.1 2.6 0.1 4.4 0.1 4.4 0.1s-1.8 0.1-4.4 0.1c-1.3 0-2.9 0-4.5 0.1h-5.2-5.2c-1.7 0-3.2-0.1-4.5-0.1-2.7 0-4.4-0.1-4.4-0.1z" fill="#58595B"/>
				<line y1="641.5" x2="948.2" x1="920" y2="641.5" fill="#fff"/>
				<path d="m920 641.5s1.8-0.1 4.4-0.1c1.3 0 2.9 0 4.5-0.1h5.2 5.2c1.7 0 3.2 0.1 4.5 0.1 2.6 0.1 4.4 0.1 4.4 0.1s-1.8 0.1-4.4 0.1c-1.3 0-2.9 0-4.5 0.1h-5.2-5.2c-1.7 0-3.2-0.1-4.5-0.1-2.7 0-4.4-0.1-4.4-0.1z" fill="#58595B"/>
				<line y1="629.7" x2="948.2" x1="920" y2="629.7" fill="#fff"/>
				<path d="m920 629.7s1.8-0.1 4.4-0.1c1.3 0 2.9 0 4.5-0.1h5.2 5.2c1.7 0 3.2 0.1 4.5 0.1 2.6 0.1 4.4 0.1 4.4 0.1s-1.8 0.1-4.4 0.1c-1.3 0-2.9 0-4.5 0.1h-5.2-5.2c-1.7 0-3.2-0.1-4.5-0.1-2.7-0.1-4.4-0.1-4.4-0.1z" fill="#58595B"/>
				<line y1="617.8" x2="948.2" x1="920" y2="617.8" fill="#fff"/>
				<path d="m920 617.8s1.8-0.1 4.4-0.1c1.3 0 2.9 0 4.5-0.1h5.2 5.2c1.7 0 3.2 0.1 4.5 0.1 2.6 0.1 4.4 0.1 4.4 0.1s-1.8 0.1-4.4 0.1c-1.3 0-2.9 0-4.5 0.1h-5.2-5.2c-1.7 0-3.2-0.1-4.5-0.1-2.7-0.1-4.4-0.1-4.4-0.1z" fill="#58595B"/>
				<line y1="605.9" x2="948.2" x1="920" y2="605.9" fill="#fff"/>
				<path d="m920 605.9s1.8-0.1 4.4-0.1c1.3 0 2.9 0 4.5-0.1h5.2 5.2c1.7 0 3.2 0.1 4.5 0.1 2.6 0.1 4.4 0.1 4.4 0.1s-1.8 0.1-4.4 0.1c-1.3 0-2.9 0-4.5 0.1h-5.2-5.2c-1.7 0-3.2-0.1-4.5-0.1-2.7 0-4.4-0.1-4.4-0.1z" fill="#58595B"/>
				<line y1="594" x2="948.2" x1="920" y2="594" fill="#fff"/>
				<path d="m920 594s1.8-0.1 4.4-0.1c1.3 0 2.9 0 4.5-0.1h5.2 5.2c1.7 0 3.2 0.1 4.5 0.1 2.6 0.1 4.4 0.1 4.4 0.1s-1.8 0.1-4.4 0.1c-1.3 0-2.9 0-4.5 0.1h-5.2-5.2c-1.7 0-3.2-0.1-4.5-0.1-2.7 0-4.4-0.1-4.4-0.1z" fill="#58595B"/>
				<line y1="582.1" x2="948.2" x1="920" y2="582.1" fill="#fff"/>
				<path d="m920 582.1s1.8-0.1 4.4-0.1c1.3 0 2.9 0 4.5-0.1h5.2 5.2c1.7 0 3.2 0.1 4.5 0.1 2.6 0.1 4.4 0.1 4.4 0.1s-1.8 0.1-4.4 0.1c-1.3 0-2.9 0-4.5 0.1h-5.2-5.2c-1.7 0-3.2-0.1-4.5-0.1-2.7 0-4.4-0.1-4.4-0.1z" fill="#58595B"/>
				<line y1="570.2" x2="948.2" x1="920" y2="570.2" fill="#fff"/>
				<path d="m920 570.2s1.8-0.1 4.4-0.1c1.3 0 2.9 0 4.5-0.1h5.2 5.2c1.7 0 3.2 0.1 4.5 0.1 2.6 0.1 4.4 0.1 4.4 0.1s-1.8 0.1-4.4 0.1c-1.3 0-2.9 0-4.5 0.1h-5.2-5.2c-1.7 0-3.2-0.1-4.5-0.1-2.7 0-4.4-0.1-4.4-0.1z" fill="#58595B"/>
				<line y1="558.4" x2="948.2" x1="920" y2="558.4" fill="#fff"/>
				<path d="m920 558.4s1.8-0.1 4.4-0.1c1.3 0 2.9 0 4.5-0.1h5.2 5.2c1.7 0 3.2 0.1 4.5 0.1 2.6 0.1 4.4 0.1 4.4 0.1s-1.8 0.1-4.4 0.1c-1.3 0-2.9 0-4.5 0.1h-5.2-5.2c-1.7 0-3.2-0.1-4.5-0.1-2.7-0.1-4.4-0.1-4.4-0.1z" fill="#58595B"/>
				<line y1="546.5" x2="948.2" x1="920" y2="546.5" fill="#fff"/>
				<path d="m920 546.5s1.8-0.1 4.4-0.1c1.3 0 2.9 0 4.5-0.1h5.2 5.2c1.7 0 3.2 0.1 4.5 0.1 2.6 0.1 4.4 0.1 4.4 0.1s-1.8 0.1-4.4 0.1c-1.3 0-2.9 0-4.5 0.1h-5.2-5.2c-1.7 0-3.2-0.1-4.5-0.1-2.7 0-4.4-0.1-4.4-0.1z" fill="#58595B"/>
				<line y1="534.6" x2="948.2" x1="920" y2="534.6" fill="#fff"/>
				<path d="m920 534.6s1.8-0.1 4.4-0.1c1.3 0 2.9 0 4.5-0.1h5.2 5.2c1.7 0 3.2 0.1 4.5 0.1 2.6 0.1 4.4 0.1 4.4 0.1s-1.8 0.1-4.4 0.1c-1.3 0-2.9 0-4.5 0.1h-5.2-5.2c-1.7 0-3.2-0.1-4.5-0.1-2.7 0-4.4-0.1-4.4-0.1z" fill="#58595B"/>
				<line y1="522.7" x2="948.2" x1="920" y2="522.7" fill="#fff"/>
				<path d="m920 522.7s1.8-0.1 4.4-0.1c1.3 0 2.9 0 4.5-0.1h5.2 5.2c1.7 0 3.2 0.1 4.5 0.1 2.6 0.1 4.4 0.1 4.4 0.1s-1.8 0.1-4.4 0.1c-1.3 0-2.9 0-4.5 0.1h-5.2-5.2c-1.7 0-3.2-0.1-4.5-0.1-2.7 0-4.4-0.1-4.4-0.1z" fill="#58595B"/>
				<line y1="510.8" x2="948.2" x1="920" y2="510.8" fill="#fff"/>
				<path d="m920 510.8s1.8-0.1 4.4-0.1c1.3 0 2.9 0 4.5-0.1h5.2 5.2c1.7 0 3.2 0.1 4.5 0.1 2.6 0.1 4.4 0.1 4.4 0.1s-1.8 0.1-4.4 0.1c-1.3 0-2.9 0-4.5 0.1h-5.2-5.2c-1.7 0-3.2-0.1-4.5-0.1-2.7 0-4.4-0.1-4.4-0.1z" fill="#58595B"/>
				<line y1="665.3" x2="981.5" x1="953.2" y2="665.3" fill="#fff"/>
				<path d="m953.2 665.3s1.8-0.1 4.4-0.1c1.3 0 2.9 0 4.5-0.1h5.2 5.2c1.7 0 3.2 0.1 4.5 0.1 2.6 0.1 4.4 0.1 4.4 0.1s-1.8 0.1-4.4 0.1c-1.3 0-2.9 0-4.5 0.1h-5.2-5.2c-1.7 0-3.2-0.1-4.5-0.1-2.6 0-4.4-0.1-4.4-0.1z" fill="#58595B"/>
				<line y1="653.4" x2="981.5" x1="953.2" y2="653.4" fill="#fff"/>
				<path d="m953.2 653.4s1.8-0.1 4.4-0.1c1.3 0 2.9 0 4.5-0.1h5.2 5.2c1.7 0 3.2 0.1 4.5 0.1 2.6 0.1 4.4 0.1 4.4 0.1s-1.8 0.1-4.4 0.1c-1.3 0-2.9 0-4.5 0.1h-5.2-5.2c-1.7 0-3.2-0.1-4.5-0.1-2.6 0-4.4-0.1-4.4-0.1z" fill="#58595B"/>
				<line y1="641.5" x2="981.5" x1="953.2" y2="641.5" fill="#fff"/>
				<path d="m953.2 641.5s1.8-0.1 4.4-0.1c1.3 0 2.9 0 4.5-0.1h5.2 5.2c1.7 0 3.2 0.1 4.5 0.1 2.6 0.1 4.4 0.1 4.4 0.1s-1.8 0.1-4.4 0.1c-1.3 0-2.9 0-4.5 0.1h-5.2-5.2c-1.7 0-3.2-0.1-4.5-0.1-2.6 0-4.4-0.1-4.4-0.1z" fill="#58595B"/>
				<line y1="629.7" x2="981.5" x1="953.2" y2="629.7" fill="#fff"/>
				<path d="m953.2 629.7s1.8-0.1 4.4-0.1c1.3 0 2.9 0 4.5-0.1h5.2 5.2c1.7 0 3.2 0.1 4.5 0.1 2.6 0.1 4.4 0.1 4.4 0.1s-1.8 0.1-4.4 0.1c-1.3 0-2.9 0-4.5 0.1h-5.2-5.2c-1.7 0-3.2-0.1-4.5-0.1-2.6-0.1-4.4-0.1-4.4-0.1z" fill="#58595B"/>
				<line y1="617.8" x2="981.5" x1="953.2" y2="617.8" fill="#fff"/>
				<path d="m953.2 617.8s1.8-0.1 4.4-0.1c1.3 0 2.9 0 4.5-0.1h5.2 5.2c1.7 0 3.2 0.1 4.5 0.1 2.6 0.1 4.4 0.1 4.4 0.1s-1.8 0.1-4.4 0.1c-1.3 0-2.9 0-4.5 0.1h-5.2-5.2c-1.7 0-3.2-0.1-4.5-0.1-2.6-0.1-4.4-0.1-4.4-0.1z" fill="#58595B"/>
				<line y1="605.9" x2="981.5" x1="953.2" y2="605.9" fill="#fff"/>
				<path d="m953.2 605.9s1.8-0.1 4.4-0.1c1.3 0 2.9 0 4.5-0.1h5.2 5.2c1.7 0 3.2 0.1 4.5 0.1 2.6 0.1 4.4 0.1 4.4 0.1s-1.8 0.1-4.4 0.1c-1.3 0-2.9 0-4.5 0.1h-5.2-5.2c-1.7 0-3.2-0.1-4.5-0.1-2.6 0-4.4-0.1-4.4-0.1z" fill="#58595B"/>
				<line y1="594" x2="981.5" x1="953.2" y2="594" fill="#fff"/>
				<path d="m953.2 594s1.8-0.1 4.4-0.1c1.3 0 2.9 0 4.5-0.1h5.2 5.2c1.7 0 3.2 0.1 4.5 0.1 2.6 0.1 4.4 0.1 4.4 0.1s-1.8 0.1-4.4 0.1c-1.3 0-2.9 0-4.5 0.1h-5.2-5.2c-1.7 0-3.2-0.1-4.5-0.1-2.6 0-4.4-0.1-4.4-0.1z" fill="#58595B"/>
				<line y1="582.1" x2="981.5" x1="953.2" y2="582.1" fill="#fff"/>
				<path d="m953.2 582.1s1.8-0.1 4.4-0.1c1.3 0 2.9 0 4.5-0.1h5.2 5.2c1.7 0 3.2 0.1 4.5 0.1 2.6 0.1 4.4 0.1 4.4 0.1s-1.8 0.1-4.4 0.1c-1.3 0-2.9 0-4.5 0.1h-5.2-5.2c-1.7 0-3.2-0.1-4.5-0.1-2.6 0-4.4-0.1-4.4-0.1z" fill="#58595B"/>
				<line y1="570.2" x2="981.5" x1="953.2" y2="570.2" fill="#fff"/>
				<path d="m953.2 570.2s1.8-0.1 4.4-0.1c1.3 0 2.9 0 4.5-0.1h5.2 5.2c1.7 0 3.2 0.1 4.5 0.1 2.6 0.1 4.4 0.1 4.4 0.1s-1.8 0.1-4.4 0.1c-1.3 0-2.9 0-4.5 0.1h-5.2-5.2c-1.7 0-3.2-0.1-4.5-0.1-2.6 0-4.4-0.1-4.4-0.1z" fill="#58595B"/>
				<line y1="558.4" x2="981.5" x1="953.2" y2="558.4" fill="#fff"/>
				<path d="m953.2 558.4s1.8-0.1 4.4-0.1c1.3 0 2.9 0 4.5-0.1h5.2 5.2c1.7 0 3.2 0.1 4.5 0.1 2.6 0.1 4.4 0.1 4.4 0.1s-1.8 0.1-4.4 0.1c-1.3 0-2.9 0-4.5 0.1h-5.2-5.2c-1.7 0-3.2-0.1-4.5-0.1-2.6-0.1-4.4-0.1-4.4-0.1z" fill="#58595B"/>
				<line y1="546.5" x2="981.5" x1="953.2" y2="546.5" fill="#fff"/>
				<path d="m953.2 546.5s1.8-0.1 4.4-0.1c1.3 0 2.9 0 4.5-0.1h5.2 5.2c1.7 0 3.2 0.1 4.5 0.1 2.6 0.1 4.4 0.1 4.4 0.1s-1.8 0.1-4.4 0.1c-1.3 0-2.9 0-4.5 0.1h-5.2-5.2c-1.7 0-3.2-0.1-4.5-0.1-2.6 0-4.4-0.1-4.4-0.1z" fill="#58595B"/>
				<line y1="534.6" x2="981.5" x1="953.2" y2="534.6" fill="#fff"/>
				<path d="m953.2 534.6s1.8-0.1 4.4-0.1c1.3 0 2.9 0 4.5-0.1h5.2 5.2c1.7 0 3.2 0.1 4.5 0.1 2.6 0.1 4.4 0.1 4.4 0.1s-1.8 0.1-4.4 0.1c-1.3 0-2.9 0-4.5 0.1h-5.2-5.2c-1.7 0-3.2-0.1-4.5-0.1-2.6 0-4.4-0.1-4.4-0.1z" fill="#58595B"/>
				<line y1="522.7" x2="981.5" x1="953.2" y2="522.7" fill="#fff"/>
				<path d="m953.2 522.7s1.8-0.1 4.4-0.1c1.3 0 2.9 0 4.5-0.1h5.2 5.2c1.7 0 3.2 0.1 4.5 0.1 2.6 0.1 4.4 0.1 4.4 0.1s-1.8 0.1-4.4 0.1c-1.3 0-2.9 0-4.5 0.1h-5.2-5.2c-1.7 0-3.2-0.1-4.5-0.1-2.6 0-4.4-0.1-4.4-0.1z" fill="#58595B"/>
				<line y1="510.8" x2="981.5" x1="953.2" y2="510.8" fill="#fff"/>
				<path d="m953.2 510.8s1.8-0.1 4.4-0.1c1.3 0 2.9 0 4.5-0.1h5.2 5.2c1.7 0 3.2 0.1 4.5 0.1 2.6 0.1 4.4 0.1 4.4 0.1s-1.8 0.1-4.4 0.1c-1.3 0-2.9 0-4.5 0.1h-5.2-5.2c-1.7 0-3.2-0.1-4.5-0.1-2.6 0-4.4-0.1-4.4-0.1z" fill="#58595B"/>
		</g>
		<circle cx="632.9" cy="340" fill="#2E3192" r="5.5" clip-path="url(#SVGID_3_)"/>
		<circle cx="661" cy="340" fill="#2E3192" r="5.5" clip-path="url(#SVGID_3_)"/>
		<circle cx="710.5" cy="340" fill="#2E3192" r="5.5" clip-path="url(#SVGID_3_)"/>
		<circle cx="738.6" cy="340" fill="#2E3192" r="5.5" clip-path="url(#SVGID_3_)"/>
			<line y2="678.3" clip-path="url(#SVGID_3_)" x2="1043.6" stroke="#231F20" stroke-linecap="round" stroke-miterlimit="10" y1="678.3" x1="424.8" fill="#fff"/>
		<g fill="#fff" stroke="#88D8FB" stroke-width=".5" stroke-miterlimit="10" clip-path="url(#SVGID_3_)">
				<polygon points="184.5 554.4 198.9 554.4 198.9 505 210.9 505 210.9 487.7 214.5 484.7 214.5 479.4 223.3 479.4 223.3 485.1 228.4 485.1 228.4 506.6 242.7 506.6 242.7 552.2 257.5 552.2 257.5 682.2 184.5 682.2 184.5 568 197.5 568 197.5 557.1 184.5 557.1"/>
				<line y2="457" x1="218.2" x2="218.2" y1="479.4"/>
			<line y2="667.1" x1="192.2" x2="249.4" y1="667.1"/>
			<line y2="654.5" x1="192.2" x2="249.4" y1="654.5"/>
			<line y2="641.8" x1="192.2" x2="249.4" y1="641.8"/>
			<line y2="629.2" x1="192.2" x2="249.4" y1="629.2"/>
			<line y2="616.6" x1="192.2" x2="249.4" y1="616.6"/>
			<line y2="604" x1="192.2" x2="249.4" y1="604"/>
			<line y2="591.3" x1="192.2" x2="249.4" y1="591.3"/>
			<line y2="578.7" x1="192.2" x2="249.4" y1="578.7"/>
			<line y2="566.1" x1="203.5" x2="249.4" y1="566.1"/>
			<line y2="540.8" x1="203.5" x2="238.1" y1="540.8"/>
			<line y2="528.2" x1="203.5" x2="238.1" y1="528.2"/>
			<line y2="515.6" x1="203.5" x2="238.1" y1="515.6"/>
		</g>
		<g stroke="#2E3192" stroke-width="2" stroke-miterlimit="10" clip-path="url(#SVGID_3_)">
			<polyline fill="none" stroke-linecap="round" points="282.6 627.8 282.6 581.1 293.1 572.1 293.1 519.6 282.6 505.1 282.6 447.1 304.9 421.1 373.1 421.1 383.6 407.6 554.6 407.6 567.6 391.6 648.6 391.6 661 383.5 661 344.9"/>
			<circle r="5.3" cy="407.6" cx="438.6" fill="#fff"/>
			<circle r="5.3" cy="551" cx="293.1" fill="#4CAF50"/>
		</g>
			<polyline clip-path="url(#SVGID_3_)" points="711 344.9 711 415.1 730.8 432.9 1046.1 432.9 1070.7 457.5 1070.7 561.6 1089.7 580.5 1089.7 605.9" stroke="#2E3192" stroke-linecap="round" stroke-miterlimit="10" stroke-width="2" fill="none"/>
		<g opacity=".02" clip-path="url(#SVGID_3_)">
			<polygon points="401.5 195 683 32.5 964.5 195 964.5 520 683 682.5 401.5 520" fill="#2895F1"/>
				<defs>
					<polygon id="SVGID_4_" points="401.5 195 683 32.5 964.5 195 964.5 520 683 682.5 401.5 520"/>
				</defs>
				<clipPath id="SVGID_5_">
					<use overflow="visible" xlink:href="#SVGID_4_"/>
				</clipPath>
				<polyline fill="#9B9DA0" points="493.2 462.2 462.5 371.4 476.4 337.9 563.8 277 636.9 211.8 734.8 200.6 766 197.1 1019.4 341.5 1021.2 769.9" clip-path="url(#SVGID_5_)"/>
			<path d="m917.6 368.5c-0.1 0.3-0.1 0.6-0.2 1v1.2 1.8c0 1.7-0.2 3.3-0.4 5l-0.6 4.2c-0.5 3.2-1.1 6.4-1.9 9.6-4.4 17.5-12.5 33.1-24.2 46.8-10.1 11.8-22.1 21.2-35.7 28.6-9.9 5.3-20.3 9.1-31.2 11.6-3 0.7-6 1.3-9.1 1.8-2.2 0.4-4.5 0.6-6.7 0.9-1.4 0.2-2.7 0.2-4.1 0.3-1.9 0.2-3.8 0.2-5.7 0.3-1.5 0.1-3.1 0.2-4.6 0.3-0.4 0-0.7 0.1-1.1 0.1-2.7 0.1-5.5 0.2-8.2 0.3-7 0.3-14 0.3-21 0.2-3.3 0-6.6-0.1-9.9-0.2-1.8 0-3.6 0-5.4-0.1-2.6-0.1-5.2-0.1-7.7-0.2-0.5 0-1.1-0.1-1.7 0.1-0.3 0.3-0.6 0.7-0.9 1-12.9 13.4-25.9 26.8-38.8 40.3-3.2 3.3-6.3 6.5-9.5 9.8l-0.7 0.7c-0.3 0.3-0.4 0.3-0.8 0-0.2-0.1-0.3-0.2-0.5-0.4-11.1-8.2-22.1-16.4-33.1-24.6-0.2-0.2-0.5-0.4-0.7-0.5 0 0-0.1-0.3 0-0.4 0.2-0.2 0.3-0.4 0.5-0.6 3.5-3.8 7-7.6 10.4-11.5 11.7-12.8 23.4-25.7 35.1-38.5 4.7-5.2 9.4-10.4 14.2-15.5 0.4-0.4 0.7-0.8 1.1-1.2 0.5-0.1 1.1-0.1 1.6-0.1 3.2-0.1 6.3-0.1 9.5 0 2.3 0.1 4.7 0.1 7 0.2 2.9 0.1 5.7 0.2 8.6 0.3 0.7 0 1.4 0.1 2.1 0.1 3.4 0.1 6.7 0.3 10.1 0.4 1 0 1.9 0.1 2.9 0.1 4.1 0.1 8.2 0.3 12.4 0.2 2.8 0 5.6-0.1 8.4-0.2 2.3 0 4.6-0.2 6.9-0.3 2.3-0.2 4.6-0.4 6.8-0.6 2.7-0.3 5.5-0.7 8.2-1.1 0.8-0.1 1.6-0.3 2.5-0.4 0.3-0.1 0.7-0.1 0.9-0.3s0.5-0.2 0.7-0.2c1.2-0.2 2.5-0.4 3.7-0.6 2-0.3 3.9-0.9 5.8-1.4 2.5-0.7 5-1.5 7.5-2.3 3-1.1 6-2.4 8.8-3.9 9-4.6 16.8-10.7 23.4-18.3 6.9-8 12-17 15-27.2 1-3.3 1.7-6.7 2.2-10.1 0.7-4.6 0.9-9.2 0.6-13.8-0.5-9.5-2.9-18.6-7-27.2-4.3-9-10.3-16.7-17.7-23.3-9.4-8.4-20.3-14.1-32.4-17.4-3-0.8-6-1.4-9-1.9-1.7-0.3-3.4-0.5-5.1-0.6-1.2-0.1-2.3-0.2-3.5-0.2-0.4 0-0.6-0.2-0.7-0.5s-0.3-0.6-0.4-0.9c-10.4-25.3-30.5-46.3-56.2-57.7-6.6-2.9-13.4-5.2-20.5-6.7-2.5-0.5-5.1-1-7.6-1.4-1.8-0.3-3.6-0.5-5.3-0.6-1.7-0.2-3.4-0.2-5.1-0.4-0.8-0.1-1.6-0.1-2.4-0.1h-6.3c-2 0.1-4 0.2-6 0.4-1.1 0.1-2.2 0.2-3.4 0.3-1.4 0.2-2.7 0.3-4.1 0.6-2.7 0.4-5.4 1-8.1 1.6-11.2 2.7-21.6 7-31.4 13-14.2 8.8-25.8 20.3-34.8 34.4-2.4 3.7-4.3 7.7-6 11.8-2 4.9-3.6 9.9-5 14.9-1.2 4.3-2.2 8.6-3 12.9 0 0.2-0.1 0.3-0.1 0.5 0 0.1-0.2 0.3-0.4 0.3h-0.6c-1.6-0.2-3.1-0.4-4.7-0.6-0.9-0.1-1.8-0.2-2.7-0.3-1.4-0.1-2.7-0.2-4.1-0.3-2.2-0.2-4.3-0.2-6.5-0.3-1.9-0.1-3.8-0.1-5.7 0-1.1 0.1-2.3 0.1-3.4 0.2-1.4 0.1-2.7 0.2-4.1 0.4-1.4 0.1-2.7 0.3-4.1 0.6-5.5 0.9-10.9 2.6-15.9 5-7.3 3.6-14 8.1-19.9 13.7-5.8 5.5-10.6 11.9-14.1 19.1-2.5 5.1-4.3 10.5-5.3 16.1-0.8 4.3-1.1 8.6-0.9 13 0.4 10.4 3.4 20 8.7 28.9 1.3 2.3 2.9 4.4 4.6 6.4 4.6 5.8 10 10.7 16.1 14.9 6.9 4.9 14.3 8.6 22.3 11.4 1 0.3 1 0.3 2.1 0.3 7.3-0.1 14.5-0.1 21.8-0.2 7.4 0 14.8-0.1 22.3-0.1 3.8 0 7.6-0.1 11.4-0.1 4.3 0 8.5-0.1 12.8-0.1h1.1c0.3 0 0.5-0.1 0.7-0.3l0.8-0.8c10.9-11.9 21.8-23.8 32.7-35.7 3.7-4 7.3-8 11-12 0.3-0.3 0.5-0.6 0.8-0.8 0 0 0.1-0.2 0.2-0.3-0.2-0.4-0.6-0.7-0.9-1l-11.9-11.9-0.8-0.8c-0.1-0.1-0.1-0.2-0.1-0.2 0-0.1 0.1-0.2 0.2-0.2 0.4 0 0.7-0.1 1.1-0.1 2.2-0.1 4.3-0.2 6.5-0.3 2-0.1 4-0.3 6-0.4l6-0.3c2.2-0.1 4.4-0.3 6.6-0.4h0.5c2.2-0.1 4.3-0.2 6.5-0.3 2-0.1 4-0.3 6-0.4h0.5c2.2-0.1 4.3-0.2 6.5-0.3 2-0.1 4-0.3 6-0.4s3.9-0.2 5.9-0.3c0.9 0 1.7-0.1 2.6-0.2 0.4 0 0.6 0.1 0.6 0.5 0.1 0.4 0.1 0.7 0.1 1.1 0.1 1.7 0.3 3.3 0.4 5 0.1 1.1 0.2 2.2 0.3 3.2 0.1 1.4 0.2 2.7 0.3 4.1s0.3 2.7 0.4 4.1c0.1 1 0.2 2.1 0.3 3.1 0.1 1.4 0.2 2.7 0.3 4.1s0.3 2.8 0.4 4.2c0.1 1.1 0.2 2.2 0.3 3.4 0.1 1.4 0.2 2.7 0.3 4.1s0.2 2.7 0.4 4.1c0.1 1 0.2 2.1 0.3 3.1 0.1 1.4 0.2 2.7 0.3 4.1s0.3 2.8 0.4 4.2v1.2s-0.1 0.1-0.2 0.1c-0.3-0.2-0.6-0.3-0.9-0.5-2.5-1.7-5-3.4-7.4-5.1-2.4-1.6-4.8-3.3-7.2-4.9-0.2-0.2-0.5-0.3-0.7-0.5-0.3-0.2-0.5-0.2-0.8 0.1s-0.5 0.6-0.8 0.8c-3.1 3.5-6.2 7-9.3 10.4-11.1 12.5-22.3 25-33.5 37.3-3.7 4-7.4 8-11 11.9l-3.9 3.9c-0.5 0.5-0.9 1-1.5 1.3-0.6 0-1.2 0.1-1.7 0.1h-101.9-0.3c-0.8 0.1-1.6-0.1-2.3-0.3-4.9-1.4-9.7-3-14.4-4.9-9.1-3.7-17.7-8.3-25.8-13.9-7.5-5.3-14.3-11.3-20.4-18.2-9.7-11.2-16.7-23.8-20.9-38.1-1-3.4-1.8-6.9-2.4-10.5-0.5-2.8-0.9-5.5-1.1-8.3-0.2-1.7-0.2-3.3-0.3-5 0-0.6-0.1-1.2-0.1-1.7 0-0.3-0.2-0.5-0.4-0.6v-6c0.2-0.1 0.4-0.4 0.4-0.6 0-0.3 0.1-0.7 0.1-1 0.1-2.5 0.4-5 0.7-7.5 0.6-3.8 1.4-7.6 2.4-11.4 2.1-7.3 5-14.3 8.8-20.9 5-9 11.3-17.2 18.5-24.6 11.2-11.4 24.2-20.4 38.8-26.9 9.5-4.2 19.3-7.3 29.5-9 0.3-0.1 0.6-0.2 1-0.3 0.2-0.4 0.3-0.7 0.5-1 6.6-14.5 15.4-27.5 26.2-39.2 12-12.9 25.8-23.5 41.3-31.8 18.2-9.7 37.6-15.7 58.1-18.1 0.9-0.1 1.8-0.2 2.7-0.3 1.4-0.1 2.8-0.3 4.2-0.4 2-0.1 4.1-0.2 6.1-0.3 0.4 0 0.8 0 1.1-0.2h10.8c0.3 0.1 0.6 0.2 0.8 0.2 1.9 0.1 3.7 0.2 5.6 0.3l4.2 0.3c1.8 0.2 3.6 0.4 5.5 0.6 2.9 0.3 5.9 0.8 8.8 1.4 4.6 0.9 9.2 1.9 13.8 3.2 15.7 4.3 30.4 10.8 44.2 19.6 18.7 12 34.3 27.2 46.5 45.8 0.7 1 0.4 0.9 1.7 1.3 6.8 2 13.5 4.6 19.9 7.7 15.4 7.6 28.8 17.8 39.9 30.9 11.5 13.6 19.5 29 23.8 46.3 0.8 3.2 1.5 6.4 1.9 9.7l0.6 4.2c0.2 1.6 0.4 3.1 0.4 4.7v1.8c0 0.5 0 1 0.1 1.5 0 0.3 0.1 0.7 0.2 1-0.6 1.9-0.6 4.4-0.6 6.9z" fill="#fff"/>
		</g>
		<g clip-path="url(#SVGID_3_)" stroke="#2E3192" stroke-linecap="round" stroke-miterlimit="10" stroke-width="2" fill="none">
			<polyline points="364.8 420.9 353.8 409.9 324.5 409.9"/>
				<circle r="4.6" cy="409.8" cx="319.9"/>
		</g>
		<g clip-path="url(#SVGID_3_)" stroke="#2E3192" stroke-linecap="round" stroke-miterlimit="10" stroke-width="2" fill="none">
			<polyline points="262.8 427.9 251.8 416.9 222.5 416.9"/>
				<circle r="4.6" cy="416.7" cx="217.9"/>
		</g>
		<g clip-path="url(#SVGID_3_)" stroke="#2E3192" stroke-linecap="round" stroke-miterlimit="10" stroke-width="2" fill="none">
			<polyline points="473.3 396.2 462.3 385.2 433 385.2"/>
				<circle r="4.6" cy="385.1" cx="428.4"/>
		</g>
		<g clip-path="url(#SVGID_3_)" stroke="#2E3192" stroke-linecap="round" stroke-miterlimit="10" stroke-width="2" fill="none">
			<polyline points="527.7 407.6 516.7 418.6 487.4 418.6"/>
				<circle r="4.6" cy="418.7" cx="482.8"/>
		</g>
		<g clip-path="url(#SVGID_3_)" stroke="#2E3192" stroke-linecap="round" stroke-miterlimit="10" stroke-width="2" fill="none">
			<polyline points="197.2 428.3 186.2 439.3 143.9 439.3"/>
				<circle r="4.6" cy="439.4" cx="139.4"/>
		</g>
		<g clip-path="url(#SVGID_3_)" stroke="#2E3192" stroke-linecap="round" stroke-miterlimit="10" stroke-width="2" fill="none">
			<polyline points="889.6 405 900.6 394.1 929.9 394.1"/>
				<circle r="4.6" cy="393.9" cx="934.5"/>
		</g>
		<g clip-path="url(#SVGID_3_)" stroke="#2E3192" stroke-linecap="round" stroke-miterlimit="10" stroke-width="2" fill="none">
			<polyline points="1135.5 405.5 1146.5 416.5 1175.8 416.5"/>
				<circle r="4.6" cy="416.6" cx="1180.4"/>
		</g>
		<g clip-path="url(#SVGID_3_)" stroke="#2E3192" stroke-linecap="round" stroke-miterlimit="10" stroke-width="2" fill="none">
			<polyline points="738.6 433.3 749.5 444.3 778.8 444.3"/>
				<circle r="4.6" cy="444.5" cx="783.4"/>
		</g>
		<g clip-path="url(#SVGID_3_)" stroke="#2E3192" stroke-linecap="round" stroke-miterlimit="10" stroke-width="2" fill="none">
			<polyline points="1070.4 504 1059.4 515 1059.4 544.3"/>
				<circle r="4.6" cy="548.9" cx="1059.3"/>
		</g>
		<g clip-path="url(#SVGID_3_)" stroke="#2E3192" stroke-linecap="round" stroke-miterlimit="10" stroke-width="2" fill="none">
			<polyline points="738.6 348.5 748 357.9 748 383"/>
				<circle r="3.9" cy="387" cx="748.1"/>
		</g>
		<g clip-path="url(#SVGID_3_)" stroke="#2E3192" stroke-linecap="round" stroke-miterlimit="10" stroke-width="2" fill="none">
			<polyline points="282.6 493 271.6 504 271.6 533.3"/>
				<circle r="4.6" cy="537.9" cx="271.5"/>
		</g>
		<g clip-path="url(#SVGID_3_)" stroke="#2E3192" stroke-linecap="round" stroke-miterlimit="10" stroke-width="2" fill="none">
			<polyline points="116.5 470.4 105.5 481.4 105.5 510.7"/>
				<circle r="4.6" cy="515.3" cx="105.4"/>
		</g>
			<polyline clip-path="url(#SVGID_3_)" points="738.6 344.9 738.6 390 757.8 405.1 1229.7 405.1 1241.9 412.9 1241.9 560.4" stroke="#2E3192" stroke-linecap="round" stroke-miterlimit="10" stroke-width="2" fill="none"/>
			<circle r="5.3" clip-path="url(#SVGID_3_)" cy="433.3" stroke="#2E3192" cx="913" stroke-miterlimit="10" stroke-width="2" fill="#fff"/>
		<circle cx="684.4" cy="340" fill="#2E3192" r="5.5" clip-path="url(#SVGID_3_)"/>
		<g clip-path="url(#SVGID_3_)" stroke="#2E3192" stroke-linecap="round" stroke-miterlimit="10" stroke-width="2" fill="none">
			<polyline points="685.5 413.1 695.8 423.5 695.8 451"/>
				<circle r="4.3" cy="455.3" cx="696"/>
		</g>
		<g stroke="#2E3192" stroke-width="2" stroke-miterlimit="10" clip-path="url(#SVGID_3_)">
			<polyline fill="none" stroke-linecap="round" points="684.8 344.9 684.8 426.3 665.6 435.4 665.6 478.6 655.1 487.6 655.1 528.9 661.5 538.6 661.5 555.2"/>
			<g stroke-linecap="round" fill="none">
				<polyline points="684.8 377.8 673.8 388.8 673.8 418.1"/>
					<circle r="4.6" cy="422.7" cx="673.7"/>
			</g>
			<g stroke-linecap="round" fill="none">
				<polyline points="655 498.8 644 509.8 644 539.1"/>
					<circle r="4.6" cy="543.7" cx="643.9"/>
			</g>
			<circle r="5.3" cy="458" cx="665.8" fill="#fff"/>
		</g>
			<circle r="5.3" clip-path="url(#SVGID_3_)" cy="405.5" stroke="#2E3192" cx="1103.2" stroke-miterlimit="10" stroke-width="2" fill="#fff"/>
		<g clip-path="url(#SVGID_3_)">
				<g fill="#6D6E71">
					<path d="m577.4 576c29.5-10.8 60.1-16.1 91.4-18.2 14.5-1 29.1-1.2 44.2-1.8-0.1 2.1-0.2 3.3-0.3 5-3.8-3.4-10-3.7-13.9-1.3-0.8 0.5-2.4 0.9-3 0.4-3.8-2.7-7.5-2.2-11.2 0.1-0.2 0.1-0.4 0.4-0.4 0.3-5.3-3.2-10.6-0.6-15.9-0.1-0.8 0.1-1.7-0.7-2.5-0.6-5.8 0.9-11.6 2.2-17.4 2.9-4.2 0.5-8.5 0.5-12.8 0.7-0.7 0-1.5-0.3-2.1-0.1-4.3 1.2-8.5 2.5-12.9 3.6-2.9 0.7-5.8 1.4-8.8 1.8-12.8 1.5-24.8 5.4-36.6 10.4-0.6 0.3-1.7-0.4-2.5-0.6 1.5-0.8 3.1-1.6 4.7-2.5z"/>
					<path d="m866.9 652.5c-12.7-0.8-25.4-1.6-38.1-2.2-9.4-0.5-18.7-0.9-28.1-1.3-13.3-0.5-26.6-2-39.7-0.7-8.9 0.9-17.2-2.4-25.8-0.8-3.4 0.7-7.7-1.9-10.2 2.6 0 0.1-2.9-1.3-4.4-2.2-2.3-1.5-4.5-4.3-6.7-4.3s-4.3 3-6.6 4.3c-1.5 0.9-3.4 1.8-5.1 1.7-2-0.1-4-2.1-5.9-2-7.9 0.4-15.7 1.8-23.6 1.9-10.1 0.1-20.2-0.9-30.2-0.8-10.9 0-21.8 0.6-32.7 1.1-14.6 0.6-29.2 1.4-43.7 2.2-4.7 0.3-9.3 1-14.6 1.5 2.2-1.5 3.7-2.6 5.2-3.6-0.3-0.5-0.6-1.1-0.9-1.6-3.4 0.3-6.8 0.6-10.3 0.8l0.1 0.1c3.8-0.8 7.6-2.2 11.4-2.4 40.5-2.1 80.9-4.1 121.4-5.9 10-0.5 20.1-0.4 30.1-0.6 1 0 2-0.4 2.9-1.5h-10.1v-0.9h20.2c-2.7 0.5-4 0.8-5.3 1.1 0 0.3 0 0.6-0.1 0.8 0.7 0.2 1.5 0.5 2.2 0.5 37.1 1 74.2 1.5 111.2 3.2 21.8 1 43.6 4.1 65.3 6.3 1 0.1 2 1 2.9 1.5l0.1-0.1c-3.4-0.4-6.7-0.9-10.6-1.4 0.4 1.6 0.7 2.7 1.3 4.8-2.9-0.5-5.7-1-8.6-1.6 1.5-0.6 3-1.1 4.5-1.6-1.5-0.9-2.9-2.3-4.5-2.6-2.9-0.6-6-0.6-9-0.9-0.3 0.5-0.6 0.9-1 1.4 1.1 0.9 2.1 2.2 3.3 2.6 2.2 0.7 4.6 0.9 6.9 1.3-4.2-0.1-8.7-0.4-13.2-0.7 0.1-1.5 0.2-3 0.3-5.1-5.8-0.5-11.3-0.9-16.8-1.3-0.2 0.7-0.5 1.5-0.7 2.2 1.6 0.8 3.2 2.1 4.9 2.4 4.1 0.9 8.2 1.3 12.3 1.8zm-110.4-7.4c0.3 0.8 0.6 1.6 1 2.4 9.8 0 19.6 0.1 29.5-0.1 1.2 0 2.3-2 3.5-3-0.3-0.8-0.7-1.5-1-2.3-9.8 0-19.6-0.1-29.4 0.1-1.3 0.1-2.4 1.9-3.6 2.9zm-84.9-2.2c-11.9 0-21.9-0.1-31.9 0.2-1 0-1.9 2.3-2.9 3.7 11 0 20.7 0.1 30.3-0.1 1.2-0.1 2.3-2 4.5-3.8zm4.1 1.9c0.4 0.6 0.9 1.1 1.3 1.7 8.2 0 16.4 0.2 24.5-0.1 2-0.1 3.9-1.9 5.8-2.9-0.2-0.5-0.4-0.9-0.6-1.4-9.1 0-18.2-0.1-27.2 0.1-1.3 0-2.6 1.7-3.8 2.6zm74.6-2.6h-29.3c-0.2 0.5-0.4 0.9-0.5 1.4 2.1 0.9 4.1 2.6 6.2 2.7 6.9 0.4 13.9 0.1 20.8 0.3 3.6 0.1 4-1.4 2.8-4.4zm-144.9 4.7c0.4 0.6 0.9 1.3 1.3 1.9 7.4-0.4 14.9-0.6 22.3-1.2 1.2-0.1 2.2-2.1 3.3-3.2-0.4-0.5-0.7-1-1.1-1.6-7.4 0.4-14.9 0.7-22.3 1.3-1.2 0.2-2.3 1.9-3.5 2.8zm190.4-4c-0.4 0.5-0.7 1-1.1 1.5 1 1.1 1.9 3.1 2.9 3.2 7.5 0.6 15.1 0.8 22.7 1.2 0.4-0.5 0.7-0.9 1.1-1.4-1-1.1-1.9-3-2.9-3.1-7.5-0.7-15.1-1-22.7-1.4zm51.4 6.5c-1.3-1.8-2.1-3.7-3-3.8-6.1-0.7-12.2-0.9-18.4-1.3 0.1 5 6.1 6.4 21.4 5.1zm-245.2-3.8c-0.4-0.4-0.7-0.8-1.1-1.2-5.8 0.4-11.6 0.6-17.4 1.2-1.2 0.1-2.2 2-3.3 3 0.4 0.5 0.7 1.1 1.1 1.6 6-0.4 11.9-0.6 17.9-1.3 1-0.2 1.9-2.2 2.8-3.3zm-41.8 5.8c16.2-0.5 16.2-0.5 16.1-4.6-10.2-1-15.9 0.5-16.1 4.6z"/>
					<path d="m845.6 655.8c6.1 0.3 12.3 0.6 18.4 0.7 5.4 0.1 6.8 3.8 8.1 7.8-5.1-5.3-5.1-5.3-10-0.1 0.9-2 1.9-3.9 3.3-7-4.9 0-9.3 0.1-13.7-0.1-2 0-4-0.8-6.1-1.3z"/>
					<path d="m563.4 665.5c-5.4-6-5.4-6-11-0.2 1-2.7 1.6-4.4 2.5-6.6h-11.8c14.6-3.1 16.7-2.4 20.3 6.8z"/>
					<path d="m845.7 655.8h-31.1 31.1c-0.1 0 0 0 0 0z"/>
					<path d="m617.3 655.8h-30.3 30.3z"/>
					<path d="m545.5 649.1l-3.3 2.7c1.2 0.7 2.5 1.4 3.4 1.9-1.6 0.3-3.7 0.7-6 1.2-0.3-2-0.6-3.8-0.9-6.2 2.3 0.1 4.6 0.3 6.8 0.4 0.1 0.1 0 0 0 0z"/>
					<path d="m898.1 651.4c0.7-0.2 1.4-0.7 2-0.6 1.3 0 2.5 0.3 3.4 0.4-0.5 1.8-0.9 3.4-1.4 5-2.7-0.5-5.3-1.1-9.4-1.9 2.7 0 4 0.3 5.1-0.1 0.4-0.1 0.2-1.9 0.2-2.9 0.2 0 0.1 0.1 0.1 0.1z"/>
					<path d="m874.5 599.4c-11.9-2.6-23.7-6-35.7-7.7-22.4-3.1-44.9-6.6-67.5-7.3-38.2-1.2-76.4-0.7-114.6-0.2-14.9 0.2-29.8 2.4-44.8 3.6 1.6-0.6 3.2-1.6 4.9-1.8 46.6-5.2 93.4-5.6 140.2-3.9 37.8 1.4 75.5 4.3 112.1 15 1.9 0.5 3.6 1.5 5.4 2.3z"/>
					<path d="m598.3 574.9c30.6-7 61.8-9.7 94.5-9.5-16.8 1.1-32.4 1.8-48 3.4-15.5 1.6-30.9 4.1-46.5 6.1z"/>
					<path d="m824.3 573.3c-29.9-2.9-59.4-5.7-82.3-7.9 23.2-0.3 52.7 2.3 82.3 7.9z"/>
					<path d="m596.9 589.4c-11.3 2.6-22.8 4.7-34 7.9-9.8 2.8-19.2 6.8-28.8 10.3 0.6-0.7 1.1-1.9 1.9-2.2 19.5-8.4 39.6-14.2 60.9-16z"/>
					<path d="m747.1 572.8h-67.9v-0.5h67.9v0.5z"/>
					<path d="m907.9 614.7c-2.6-1.2-5.1-2.4-7.7-3.6-8.7-4-17.3-7.9-26-11.9 12.4 2.8 23.5 8.2 33.7 15.5z"/>
					<path d="m589.7 599.6v13.1c0.1 6.4 0.3 12.9 0.1 19.3 0 1.3-1.7 2.5-2.5 3.8-0.8-1.3-2.4-2.5-2.4-3.8-0.3-8.6-0.3-17.3-0.2-25.9 0.1-3-0.4-7 5-6.5z"/>
					<path d="m596.1 634.9v-36.2c2-0.3 3.5-0.5 4.8-0.7 0.3 0.8 0.6 1.1 0.6 1.4 0 10.6-0.3 21.3 0.1 31.9 0.2 4.2-1.6 4.1-5.5 3.6z"/>
				</g>
				<g stroke="#FEC000" stroke-width=".5" stroke-miterlimit="10" fill="#fff">
					<path d="m617.3 655.8c1.1-0.2 2.1-0.6 3.2-0.6 26.1-0.1 52.3-0.2 78.4-0.3 1.2 0 2.5 0.2 3.7 0.3 0.2 0.8 0.5 1.3 0.5 1.8 1 14.7 1 14.7-13.6 14.8-39.9 0.3-79.7 0.7-119.6 1.1-2.2 0-4.3-0.2-6.7-0.3-0.3-2.1-0.5-3.8-0.6-5-1.6 1.6-3.3 3.4-5 5.1-1.4-1.8-2.9-3.7-4.5-5.7-1 1.7 1.3 7.2-4.5 6.3 1.2 0.2 2.4 0.4 4 0.6v6c-14.3-1-28.4-2.1-42.5-3.1-0.1-0.7-0.3-1.5-0.4-2.2 2-0.7 4.1-1.9 6.1-1.9 9.3-0.2 18.6-0.1 27.9-0.8h-19.7c-10.3-0.1-10.3-0.1-8.8-10.9 1.8-0.3 3.7-0.5 7-1-3.7-0.4-6.1-0.7-8.2-1 0.6-2.8 1.2-5.4 1.9-8.9 34.6-19.4 357.5-19.5 398.2 0.1-0.2 2.8-0.3 5.4-0.5 8.7-1.4 0.2-3.7 0.5-6 0.7 0 0.2-0.1 0.3-0.1 0.5 1.6 0.2 3.1 0.4 4.9 0.7 0.2 0.5 0.5 1.2 0.5 1.9 0.5 9 0.5 9.1-8.4 9.1-8.6 0-17.1 0-25.7 0.8 10.9 0 21.7-0.1 32.6 0.1 2.3 0 4.6 1.1 7 1.7l-0.3 2.4c-15 1.1-30 2.2-45.3 3.3v-13.1l-5.9 5.9c-1.5-1.8-3-3.6-4.4-5.3-0.1 0.9-0.4 2.6-0.8 5.2h-43.9l0.2 0.1c-7.8-0.3-15.7-0.8-23.5-0.8-21.2-0.2-42.4-0.2-63.7-0.2-1.8 0-3.6-0.2-6-0.3v-16.2h82.3v-1h-57.8c-6.2 0-12.4 0.2-18.6-0.1-3-0.2-6-1.4-9.7-2.3 0 4.4 0.2 8.4-0.1 12.3-0.3 3.6 0 7.7-5.8 7.6-7.2-0.1-8.3-0.7-8.6-7.1-0.2-4.2 0-8.3 0-12.7-13.6 4.4-27 1.7-40.3 2.2-13.5 0.5-27.1 0.1-40.6 0.3-2.7-0.1-5.5 0.8-8.3 1.2h-30.3 30.3zm228.3 0h-31.1 31.1c2 0.5 4 1.3 6.1 1.4 4.4 0.2 8.8 0.1 13.7 0.1-1.5 3.1-2.4 5-3.3 7 5-5.2 5-5.2 10 0.1-1.2-4-2.6-7.7-8.1-7.8-6.1-0.1-12.2-0.5-18.4-0.8zm-300.1-6.7c3.4-0.3 6.8-0.6 10.3-0.8 0.3 0.5 0.6 1.1 0.9 1.6-1.5 1.1-3.1 2.1-5.2 3.6 5.3-0.6 10-1.2 14.6-1.5 14.6-0.8 29.1-1.6 43.7-2.2 10.9-0.5 21.8-1 32.7-1.1 10.1 0 20.2 1 30.2 0.8 7.9-0.1 15.7-1.5 23.6-1.9 1.9-0.1 3.9 1.8 5.9 2 1.6 0.1 3.5-0.8 5.1-1.7 2.3-1.4 4.4-4.3 6.6-4.3s4.4 2.9 6.7 4.3c1.4 0.9 4.3 2.3 4.4 2.2 2.5-4.5 6.8-2 10.2-2.6 8.6-1.7 17 1.7 25.8 0.8 13.1-1.3 26.5 0.2 39.7 0.7 9.4 0.3 18.7 0.8 28.1 1.3 12.7 0.7 25.4 1.5 38.1 2.2 4.5 0.3 9.1 0.5 13.6 0.8l-0.2-0.1c2.9 0.5 5.7 1 8.6 1.6-0.6-2.2-0.9-3.2-1.3-4.8 3.9 0.5 7.3 0.9 10.6 1.3-0.1 1 0.2 2.8-0.2 3-1.1 0.4-2.5 0.1-5.1 0.1 4.1 0.8 6.6 1.3 9.4 1.9 0.4-1.6 0.9-3.3 1.4-5-0.9-0.1-2.2-0.4-3.4-0.4-0.7 0-1.4 0.4-2 0.6-1-0.5-1.9-1.4-2.9-1.5-21.8-2.2-43.5-5.3-65.3-6.3-37-1.7-74.1-2.2-111.2-3.2-0.7 0-1.5-0.3-2.2-0.5 0-0.3 0-0.6 0.1-0.8 1.3-0.3 2.5-0.5 5.3-1.1h-20.2v0.9h10.1c-1 1.1-2 1.4-2.9 1.5-10 0.2-20.1 0.1-30.1 0.6-40.5 1.9-81 3.8-121.4 5.9-4.4 0-8.2 1.3-12.1 2.1-2.2-0.1-4.4-0.2-6.8-0.4 0.3 2.4 0.6 4.2 0.9 6.2 2.3-0.5 4.5-0.9 6-1.2-0.9-0.5-2.2-1.2-3.4-1.9l3.3-2.7zm17.9 16.4c-3.6-9.2-5.7-9.8-20.4-6.8h11.8c-0.8 2.2-1.5 4-2.5 6.6 5.7-5.8 5.7-5.8 11.1 0.2z"/>
					<path d="m577.4 576c1.8-1.1 3.5-2.5 5.4-3.2 36.3-13.2 74.1-17.7 112.4-18.7 3.2-0.1 9.2 1.8 8.8-3.8-0.5-6.1 5.7-11.6 9.1-14.4v-58.5c0.5 0 1-0.1 1.5-0.1v40.8c0 4.2 0.2 8.4 0 12.6-0.1 1.9-0.2 3.7 0.4 5.1 0.4 1.1 10.2 6.2 10 14.8-0.1 2.8 3.8 3.4 5.3 3.5 32.3 0.5 64.2 3.9 95.4 12.4 7 1.9 13.9 4.3 20.4 7.7-6.4-1.9-12.7-3.9-19.1-5.6-35.4-9.3-71.5-12.5-108-12.3-2.8 0-5.3 0-3.6 4.1 4.6-2.9 9.1-4.3 13.8-0.4 0.6 0.5 2 0.2 3.1 0.1 0.3-0.1 0.5-1.2 0.8-1.3 1.6-0.3 3.6-1 4.8-0.3 5.8 3.3 12.1-1.6 17.9 1.2 1.1 0.5 2.6 0.4 3.9 0.4 0.7 0 1.4-0.5 2.1-0.4 5.9 0.9 11.8 2.1 17.8 2.9 1.6 0.2 3.5-0.9 5-0.6 4.8 0.9 9.5 2.2 14.2 3.2 3.2 0.7 6.3 1.5 9.5 2 6.2 1 12.5 1.2 18.5 2.9 11.1 3.1 22.2 6.6 33 10.9 12.3 4.9 24.4 10.3 36.1 16.4 6.9 3.7 12.9 9.2 19.2 13.9 3 2.2 2.8 4.8 0.5 7.9-1.3-0.5-2.7-1-4.2-1.5-1.2-1-2.3-2.1-3.5-3.1-10.2-7.3-21.3-12.8-33.7-15.5l0.3 0.1c-1.8-0.8-3.5-1.8-5.3-2.3-36.6-10.7-74.3-13.6-112.1-15-46.8-1.7-93.6-1.3-140.2 3.9-1.7 0.2-3.3 1.2-4.9 1.8-5 0.5-10.1 1-15.1 1.5-21.2 1.8-41.4 7.6-60.9 16-0.8 0.3-1.3 1.4-1.9 2.2-5.3 3-10.7 6.1-16 9.1-1.8 0.8-3.5 1.6-5.6 2.6-3.2-3-2.7-5.7 1-8.5 15.7-12 32.5-22.1 51.6-28.1 2.7-0.8 5-2.7 7.6-4.1 0.8 0.2 1.9 0.9 2.5 0.6 11.8-5 23.8-8.9 36.6-10.4 2.9-0.3 5.9-1 8.8-1.8 4.3-1.1 8.6-2.5 12.9-3.6 0.7-0.2 1.4 0.1 2.1 0.1 4.3-0.2 8.6-0.2 12.8-0.7 5.8-0.8 11.6-2 17.4-2.9 0.8-0.1 1.7 0.6 2.5 0.6 5.3-0.5 10.6-3.1 15.9 0.1 0 0 0.2-0.3 0.4-0.3 3.7-2.3 7.4-2.8 11.2-0.1 0.6 0.4 2.2 0.1 3-0.4 3.9-2.4 10.1-2.1 13.9 1.3 0.1-1.6 0.2-2.9 0.3-5-15.1 0.6-29.7 0.8-44.2 1.8-31.2 2.3-61.9 7.6-91.4 18.4zm20.9-1.1c15.5-2.1 31-4.6 46.6-6.2 15.5-1.6 31.2-2.2 48-3.4-32.7 0-63.9 2.6-94.6 9.6zm226-1.6c-29.7-5.6-59.1-8.2-82.3-7.9 23 2.2 52.5 5 82.3 7.9zm-77.2-0.5v-0.5h-67.9v0.5h67.9z"/>
					<path d="m643.4 593.4c2.1-0.9 4.2-2.5 6.3-2.6 9.9-0.3 19.7-0.2 29.6-0.3 2.2 0 4.3-0.4 6.5-0.7 1.2-0.2 2.5-0.8 3.7-0.8 10.8 0.2 21.6 0.5 32.5 0.6 3.8 0 7.6-0.9 11.4-0.7 10.4 0.5 20.7 1.5 31.1 2 8.4 0.4 16.8 0.4 25.2 0.7 2.7 0.1 5.3 0.9 7.9 1.4 0.7 0.1 1.4 0.6 2.1 0.7 6.7 0.4 13.5 0.5 20.2 1.3 6.5 0.7 13 2.1 18.6 3.1v27.5c-5.4 0.9-7.6-0.4-7.3-5.5 0.4-6 0-12.1 0.1-18.1 0.1-3.5-1.3-4.6-5.2-3.2v25.9c-2.9-0.3-5.1-0.5-7.8-0.8 0-8.3 0.1-16.1 0-23.9 0-3.7-0.2-3.7-5.2-3.2v27.1c-3.2-0.6-5.8-1.1-9.1-1.7 0-7.8-0.1-15.4 0-23.1 0.1-3.8-1.3-5-5.2-3.7v26.7c-4.1-0.3-7.8-0.6-11.8-0.9v-26.7c-3.8-1.5-5.7-1-5.6 3.4 0.2 7.3 0 14.6 0 22.3h-12v-27.3c-2-0.1-3.6-0.2-5.8-0.4v26.3c-1.1 0.4-1.6 0.7-2.1 0.7-12.1 0.1-12.1 0.1-12.1-11.9v-15.6c-2-0.1-3.5-0.2-5.3-0.3-0.2 1.2-0.5 2.1-0.5 2.9 0.1 6.4 0.1 12.8 0.3 19.1 0.1 3.1-0.6 4.9-4.3 4.6-3.6-0.3-7.2-0.1-11.8-0.1v-22.4c0-2.2 0.8-5.1-3.1-5.1-4 0-2.8 3.1-2.8 5.2-0.1 7.1 0 14.2 0 21.8h-15.6c0-7.2 0.1-14.4 0-21.7 0-2.4 0.8-6-3.4-5.1-1.2 0.3-2.6 3.3-2.7 5.1-0.3 7.1-0.1 14.2-0.1 21.8-4.6 0.3-8.5 0.6-12.4 0.9 0 0.3 0.1 0.7 0.1 1 2.3-0.3 4.6-0.6 7-0.8 3.6-0.4 5.5 0.9 5.2 4.9-0.2 2.3 0 4.7 0 7.3h5.8c0.2-3.8 0.4-7.6 0.6-11.7h15.5c0.2 4 0.3 7.6 0.5 11.6 1.8 0.1 3.3 0.2 5.5 0.4 0.2-4.1 0.4-7.8 0.7-12.2 5 0.3 9.7 0.5 14 0.7 3.4 3.6-2.6 11.5 6.4 12.5 0.3-4.4 0.6-8 0.9-12.4 4.7 0.4 9.1 0.7 13.8 1v11c2 0.1 3.6 0.3 5.6 0.4v-10.9h6.6c3.8 0.1 6.2 1.3 5.6 5.9-0.4 3.4 0.1 6.5 5.4 4.8v-9.7c4.2 0.4 7.9 0.7 11.8 1.1v9.5c1.7 0.2 3.2 0.3 5 0.5 0.3-3.3 0.6-6.1 0.9-9.1h7.3c4 2.4-2.8 10.3 6.2 10 0.2-2.8 0.4-5.4 0.5-8 7.3-1.2 7.3-1.2 7.6 5.4 0 1.4 0.5 2.8 0.7 4.2l0.1-0.1c-2.8 1.3-5.5 2.9-8.2-0.1-0.1-0.1-0.3-0.2-0.5-0.2h-21.9c-0.2 0-0.4 0.2-0.5 0.1l-26.1-2.1c-2.2-0.2-4.3-0.1-6.5-0.1-4.4-0.1-8.8-0.1-13.2-0.2-1.4 0-3-0.6-4.3-0.3-6.6 1.4-13 2.3-19.4-0.9-1.5-0.7-3.8 0.5-5.8 0.6-4.1 0.2-8.2 0.3-12.3 0.3-1.2 0-2.4-1-3.6-0.9-9.6 0.6-19.2 1.5-28.9 2-3.3 0.2-6.5-0.2-9.8-0.2-2.8 0-5.7 0-8.5 0.2-2.7 0.1-5.4 0.4-8.1 0.6-3.5 0.2-7 0.5-10.6 0.6-2.5 0.1-5.1 0-7.6-0.1-1.1 0-2.1-0.7-3.1-0.6-6.9 0.7-13.7 1.7-20.6 2.1-5.6 0.4-11.2 0.1-16.8 0.1-0.7 0-1.5-0.1-2.2 0-5.2 0.9-10.4 2.2-15.7 2.7-9.3 1-18.7 1.5-28 2.4-5.8 0.6-11.5 1.6-17.8 2.5v-6.7c0.2 0 0.3-0.1 0.5-0.1 0.2 1.8 0.5 3.6 0.8 5.8 6.5 0.3 2.4-5.6 5.3-8 0.4 2.4 0.7 4.4 1 6.7 6.6 0.4 2.1-5.9 5.8-8 0.3 2.3 0.5 4.2 0.8 6.8 7.1 0.9 1.9-6.8 6.3-8.5 0.4 2.5 0.8 4.8 1.3 7.3 7.6 1.5 0.7-8.7 7.1-8.3 0.2 2.3 0.4 4.5 0.7 7 3.7 1.5 4.3-0.4 4.3-3.5 0-2.3-0.8-5.6 3.9-4.5 0.2 2.3 0.4 4.6 0.5 6.9 4.1 1.6 4.5-0.9 4.5-3.7 0-3 0.3-5.7 4.7-4.6 0.1 2.3 0.3 4.6 0.5 8.9 2.1-1.8 4.3-2.8 4.3-3.9 0.3-10.7 0.2-21.3 0.2-32-0.7-0.3-1.3-0.5-2-0.8-0.8 1.4-2.3 2.7-2.4 4.1-0.3 6 0.1 12.1-0.2 18.1-0.1 1.5-1.7 3-2.6 4.4-0.8-1.5-2.3-3-2.3-4.6-0.3-6.2-0.2-12.4 0-18.6 0-1.3 1.1-3.4 2.1-3.6 4.2-1.1 8.6-1.8 13-2.5 6.4-1.1 12.8-2.2 19.2-3.2 3-0.5 5.9-1.2 5.7 3.7-0.3 7.8-0.1 15.7-0.1 23.9-1.8 0.4-3.5 0.7-6.7 1.4 3.1 0.3 4.7 0.4 6.5 0.6 0.2 3 0.3 5.9 0.5 9.1 2.9 1 4.7 0.7 4.9-3.1 0.3-7.9 0.4-7.9 8.9-6.9 0.2 3 0.4 6 0.6 9.2h5v-10.5h11.4v8.9c5 1.3 5 1.3 6-9.9 3.6-0.2 7.2-0.4 11.3-0.7 0.4 4.1 0.6 7.5 1 11.2h4.7c0.2-3.8 0.5-7.4 0.7-11.5h13.4c3.6 2.8-3.3 10.8 6.1 12v-40.8c-1.5-0.1-3.1-0.2-4.6-0.4-0.3 0.8-0.6 1.3-0.6 1.8-0.1 6.6-0.5 13.2-0.1 19.7 0.3 4.8-1.6 6.3-5.9 6.1-2.5-0.1-5.1 0-8.6 0 0-7.5-0.1-14.9 0.1-22.3 0-2.3 0.8-4.6-2.6-4.6-3.2 0-3.1 1.9-3 4.5 0.2 5.8-0.3 11.7 0 17.5 0.2 5-2.1 6.5-6.5 6.2-1.6-0.1-3.3-0.3-5.7-0.5v-22.3c-0.4-2.2 0.2-4.9-3.3-4.3zm-53.7 6.2c-5.4-0.5-5 3.4-5 6.5-0.1 8.6-0.1 17.3 0.2 25.9 0 1.3 1.6 2.5 2.4 3.8 0.9-1.2 2.5-2.5 2.5-3.8 0.2-6.4-0.1-12.8-0.1-19.3v-13.1zm6.4 35.3c3.9 0.5 5.6 0.6 5.5-3.6-0.4-10.6-0.1-21.3-0.1-31.9 0-0.3-0.3-0.6-0.6-1.4-1.3 0.2-2.8 0.4-4.8 0.7v36.2z"/>
					<path d="m817.9 672.7c7.5 0.3 14.9 0.8 22.4 0.9 7.1 0.2 14.2 0 21.5 0 0.4 2.1 0.7 3.9 1.1 5.7 0.3 0 0.7-0.1 1-0.1v-5.2h6.9c-0.4 2.1-0.6 3.8-1.1 6.4h-314.1c-0.4-2.5-0.7-4.2-1-6.4h6.6v4.6c0.3 0.1 0.6 0.1 1 0.2 0.4-1.5 0.7-3.1 1.3-5.3h39.3c71.1-0.2 142.2-0.4 213.2-0.6 0.7 0 1.5-0.1 2.2-0.1-0.2 0-0.3-0.1-0.3-0.1z"/>
					<path d="m596.9 589.4c5-0.5 10.1-1 15.1-1.5 14.9-1.3 29.8-3.4 44.8-3.6 38.2-0.5 76.4-1 114.6 0.2 22.5 0.7 45.1 4.2 67.5 7.3 12 1.7 23.8 5.1 35.7 7.7l-0.3-0.1c8.7 4 17.3 7.9 26 11.9 2.6 1.2 5.1 2.4 7.7 3.6 1.2 1 2.3 2.1 3.5 3.1 0.5 0.9 1 1.7 1.6 2.6-0.2 0.2-0.3 0.4-0.5 0.6-2.9-2-5.8-4.1-8.8-5.9-16.6-9.9-35-14.5-53.7-17.9-55.1-10.2-110.7-12.2-166.5-10.4-19.9 0.7-39.8 1.9-59.6 3.9-28.9 2.9-57.7 6.4-85 17.4-8 3.2-15.4 7.8-23.5 11.9 1.1-1.3 1.9-2.3 2.8-3.3 5.3-3 10.7-6.1 16-9.1 9.6-3.5 19-7.5 28.8-10.3 11-3.4 22.4-5.5 33.8-8.1z"/>
					<path d="m643.3 593.3c-0.8 1.6-2.2 3.1-2.2 4.7-0.2 7.3-0.1 14.6-0.1 22.5-3.9 0.5-7.5 0.9-11.6 1.4v-26.7c-1.7-0.1-3.2-0.2-5.2-0.4v27.1c-3 0.3-5.6 0.7-9.7 1.1v-29.2c2.6 0 6.5 0.1 10.5 0 1.6 0 3.5 0.1 4.8-0.6 4.6-2.5 9-1.9 13.5 0.1 0.1 0.1 0 0 0 0z"/>
					<path d="m826.7 636.1c6.1-0.3 3.8-5.4 4.9-8.7 4.4-1.4 7.1-1.1 6.4 4.7-0.2 1.3 1.8 2.9 2.8 4.3 0.5-0.3 1.1-0.6 1.6-0.9 0.2-2.3 0.4-4.6 0.6-7.2 3.6-0.8 5.6 0.5 5.6 4.3 0 3 0.6 5.1 4.6 3.8 0.2-2.3 0.5-4.6 0.7-6.9 0.4-0.3 0.9-0.5 1.3-0.8 1 1.6 2.1 3.1 3.1 4.7 0.9 1.5 1.7 3 2.5 4.5 0.8-1.7 1.7-3.3 2.4-5 0.2-0.5 0.2-1 1.7-2.5 0.8 1.5 1.7 2.9 2.4 4.4 0.8 1.5 1.5 3.1 2.3 4.7 0.6-0.2 1.2-0.4 1.8-0.7 0.3-2.1 0.6-4.1 0.9-6.2 0.4-0.2 0.8-0.5 1.2-0.7 1.4 2.9 2.7 5.8 4.1 8.7l1.8-0.6c0.3-2.2 0.7-4.4 1-6.6 0.5-0.1 0.9-0.2 1.4-0.2 0.4 1.3 0.6 2.6 1.1 3.8 0.6 1.4 1.4 2.8 2.1 4.2 0.8-1.5 1.6-2.9 2.3-4.5 0.3-0.6 0.3-1.4 0.5-2.2 4.2 0.9-1.3 8.7 5.8 7.5 0.3-2 0.5-4.1 0.8-6.1h0.9c0.2 1.3 0.2 2.6 0.7 3.8 0.5 1.3 1.3 2.5 2 3.7 0.7-1.2 1.6-2.3 2.1-3.6 0.3-0.7 0.2-1.7 1.1-2.6v7.2c-10.1-1.5-20.3-3.2-30.6-4.4-4.7-0.6-9.5 0-14.2-0.4-4.6-0.4-9.2-1.5-13.8-2.3-1.3-0.2-2.9-1.1-3.7-0.6-4.4 2.9-8.2-0.8-12.2-0.9 0.1 0.2 0 0.3 0 0.3z"/>
					<path d="m859.3 603.1c-0.3 3.9-0.8 7.8-0.9 11.6-0.2 3.3 0.2 6.6-0.2 9.9-0.2 1.4-1.9 2.7-2.9 4-0.6-0.3-1.2-0.6-1.7-0.8v-21.7c0-3 0-5.8-4.7-4.1v24.4c-2 0.1-3.7 0.3-6.1 0.4 0-9-0.1-17.6 0.1-26.1 0-0.8 1.6-2.3 2.2-2.2 4.1 0.7 8.2 1.8 12.3 2.9 0.6 0.2 1.2 1.1 1.9 1.7z"/>
					<path d="m559.2 605.5c1.7-1.1 3.3-2.3 5.5-3.7 0 8.4 0.1 15.8-0.1 23.1 0 1.5-1.5 3-2.3 4.4-0.6-0.3-1.2-0.5-1.8-0.8 0-6.2 0.1-12.3-0.1-18.5 0-1.5-0.8-3-1.2-4.5z"/>
					<path d="m859.3 603.1c8.1-1 8-1 8 6.8v19.1l-1.5 0.9c-0.9-1.3-2.5-2.5-2.5-3.8-0.3-6.2-0.2-12.4-0.1-18.6 0.1-2.9-0.7-4.6-3.9-4.4z"/>
					<path d="m875.8 607.5v22.8c-0.7 0.2-1.5 0.4-2.2 0.7-0.6-1.5-1.6-3-1.6-4.5-0.2-7.1-0.1-14.1-0.1-22.1 1.5 1.1 2.7 2.1 3.9 3.1z"/>
					<path d="m559.2 605.5c-1.1 1.2-3 2.4-3.1 3.7-0.3 5.6-0.1 11.3-0.2 17 0 1.4-0.9 2.8-1.3 4.2-0.7-0.1-1.4-0.2-2.2-0.3 0-7.7-0.2-15.4 0.3-23 0-0.7 4.2-1.1 6.5-1.6z"/>
					<path d="m875.8 607.5c7.1-0.6 7.1-0.6 7.1 6.5 0 4.7 0.1 9.5 0 14.2 0 1.3-0.4 2.6-0.6 3.8h-1.6c-0.2-1.6-0.6-3.1-0.6-4.7-0.1-5.3-0.2-10.5 0-15.8 0-3.2-1.4-4.3-4.3-4z"/>
					<path d="m547.2 607.3v23.9c-0.8 0-1.7-0.1-2.5-0.1 0-7.6-0.1-15.2 0.1-22.8 0.1-0.4 2.1-0.8 2.4-1z"/>
					<path d="m889.1 610.2v22.7h-1.1v-22.7h1.1z"/>
					<path d="m539.9 610.4v22h-1.2v-22c0.5-0.1 0.8 0 1.2 0z"/>
					<path d="m533.4 613.5v20h-1.1v-20c0.4 0.1 0.7 0 1.1 0z"/>
					<path d="m895.6 613.7v20.3h-1.1v-20.4c0.4-0.1 0.8 0 1.1 0.1z"/>
					<path d="m901.7 617.2v17.8h-0.9v-17.8h0.9z"/>
					<path d="m756.5 645.1c1.2-1 2.3-2.9 3.5-2.9 9.8-0.2 19.6-0.1 29.4-0.1 0.3 0.8 0.7 1.5 1 2.3-1.2 1.1-2.3 3-3.5 3-9.8 0.2-19.6 0.1-29.5 0.1-0.3-0.7-0.6-1.5-0.9-2.4z"/>
					<path d="m671.6 642.9c-2.1 1.8-3.3 3.7-4.5 3.7-9.6 0.2-19.3 0.1-30.3 0.1 1-1.4 2-3.6 2.9-3.7 10-0.2 20-0.1 31.9-0.1z"/>
					<path d="m675.7 644.8c1.3-0.9 2.5-2.6 3.8-2.6 9.1-0.2 18.2-0.1 27.2-0.1 0.2 0.5 0.4 0.9 0.6 1.4-1.9 1-3.9 2.8-5.8 2.9-8.2 0.3-16.3 0.1-24.5 0.1-0.5-0.6-0.9-1.1-1.3-1.7z"/>
					<path d="m750.3 642.2c1.2 3 0.8 4.5-2.8 4.4-6.9-0.2-13.9 0.1-20.8-0.3-2.1-0.1-4.1-1.8-6.2-2.7 0.2-0.5 0.4-0.9 0.5-1.4h29.3z"/>
					<path d="m605.4 646.9c1.2-0.9 2.2-2.6 3.5-2.7 7.4-0.6 14.8-0.9 22.3-1.3 0.4 0.5 0.7 1 1.1 1.6-1.1 1.1-2.1 3.1-3.3 3.2-7.4 0.6-14.8 0.9-22.3 1.2-0.4-0.7-0.8-1.3-1.3-2z"/>
					<path d="m795.8 642.9c7.6 0.4 15.1 0.7 22.7 1.3 1.1 0.1 1.9 2 2.9 3.1-0.4 0.5-0.7 0.9-1.1 1.4-7.6-0.3-15.2-0.6-22.7-1.2-1.1-0.1-2-2.1-2.9-3.2 0.4-0.4 0.8-0.9 1.1-1.4z"/>
					<path d="m847.2 649.4c-15.4 1.2-21.4-0.1-21.4-5.1 6.1 0.4 12.3 0.6 18.4 1.3 1 0.1 1.7 2.1 3 3.8z"/>
					<path d="m602 645.6c-0.9 1.1-1.8 3.2-2.8 3.3-5.9 0.7-11.9 0.9-17.9 1.3-0.4-0.5-0.7-1.1-1.1-1.6 1.1-1 2.1-2.9 3.3-3 5.8-0.7 11.6-0.9 17.4-1.2 0.4 0.4 0.7 0.8 1.1 1.2z"/>
					<path d="m866.9 652.5c-4.1-0.6-8.2-0.9-12.3-1.7-1.7-0.3-3.3-1.6-4.9-2.4 0.2-0.7 0.5-1.5 0.7-2.2 5.5 0.4 11 0.9 16.8 1.3-0.1 2-0.2 3.5-0.3 5z"/>
					<path d="m560.2 651.4c0.2-4.1 5.9-5.6 16.1-4.6 0.1 4.1 0.1 4.1-16.1 4.6z"/>
					<path d="m880.4 653.3c-2.3-0.4-4.7-0.6-6.9-1.3-1.3-0.4-2.2-1.7-3.3-2.6 0.3-0.5 0.6-0.9 1-1.4 3 0.3 6.1 0.3 9 0.9 1.6 0.3 3 1.7 4.5 2.6-1.5 0.5-3 1.1-4.5 1.6l0.2 0.2z"/>
				</g>
						<path d="m725.1 488.6c4.1 3.2 8.5 3.3 11.7 2.8-0.2 2.5 0 4.9 0.8 6.3 0 0-9.1-2.8-13.4-4.8-2.2-1-6.8-2-9.4-1.3v-5.7c3.7 0 7.8 0.8 10.3 2.7z" fill="#5FBE40"/>
						<path d="m737.4 486.4c-0.3 1.6-0.5 3.3-0.6 5.1-3.2 0.5-7.7 0.4-11.7-2.8-2.5-1.9-6.6-2.7-10.3-2.6v-4.9c3.8-0.2 7.9 0.6 10.3 2.5 4.3 3.3 9.1 3.3 12.3 2.7z" fill="#fff"/>
						<path d="m725.9 479.1c2.9 1.4 8.7 3.5 12.8 1.5 0 0-0.7 2.6-1.2 5.8-3.2 0.6-8 0.6-12.3-2.8-2.5-1.9-6.6-2.7-10.3-2.5v-3.7c-0.2 0.1 4.6-1.3 11 1.7z" fill="#EF873E"/>
							<circle cy="486.7" cx="725.7" r="1.7" fill="#fff"/>
							<path d="m725.7 488.4c-1 0-1.7-0.8-1.7-1.7s0.8-1.7 1.7-1.7c1 0 1.7 0.8 1.7 1.7s-0.8 1.7-1.7 1.7zm0-3.3c-0.9 0-1.7 0.7-1.7 1.7s0.7 1.7 1.7 1.7c0.9 0 1.7-0.7 1.7-1.7s-0.8-1.7-1.7-1.7z" fill="#2E3192"/>
							<path d="m725.7 486.7v-1.5 1.5z" fill="#2E3192"/>
							<path d="m725.7 486.7l-0.4-1.5 0.4 1.5z" fill="#2E3192"/>
							<path d="m725.7 486.7l-0.8-1.3 0.8 1.3z" fill="#2E3192"/>
							<polygon points="725.7 486.7 725.7 486.7 724.6 485.6 724.6 485.6 724.6 485.6 725.7 486.7" fill="#2E3192"/>
							<path d="m725.7 486.7l-1.3-0.8 1.3 0.8z" fill="#2E3192"/>
							<path d="m725.7 486.7l-1.5-0.4 1.5 0.4z" fill="#2E3192"/>
							<path d="m725.7 486.7h-1.5 1.5z" fill="#2E3192"/>
							<path d="m724.2 487.1l1.5-0.4-1.5 0.4z" fill="#2E3192"/>
							<path d="m724.4 487.5s-0.1 0 0 0c-0.1 0-0.1 0 0 0l1.3-0.8-1.3 0.8z" fill="#2E3192"/>
							<polygon points="724.6 487.8 724.6 487.8 724.6 487.8 725.7 486.7 725.7 486.7 725.7 486.7" fill="#2E3192"/>
							<path d="m724.9 488l0.7-1.3-0.7 1.3z" fill="#2E3192"/>
							<path d="m725.3 488.2l0.4-1.5-0.4 1.5z" fill="#2E3192"/>
							<path d="m725.7 488.2v-1.5 1.5z" fill="#2E3192"/>
							<path d="m726.1 488.2l-0.4-1.5 0.4 1.5z" fill="#2E3192"/>
							<path d="m726.4 488l-0.8-1.3 0.8 1.3z" fill="#2E3192"/>
							<polygon points="726.7 487.8 726.7 487.8 725.7 486.7 725.7 486.7 725.7 486.7 726.7 487.8" fill="#2E3192"/>
							<path d="m727 487.5l-1.3-0.8 1.3 0.8z" fill="#2E3192"/>
							<path d="m727.1 487.1l-1.5-0.4 1.5 0.4z" fill="#2E3192"/>
							<path d="m727.2 486.7h-1.5 1.5z" fill="#2E3192"/>
							<path d="m725.7 486.7l1.5-0.4-1.5 0.4z" fill="#2E3192"/>
							<path d="m725.7 486.7l1.3-0.8-1.3 0.8z" fill="#2E3192"/>
							<polygon points="725.7 486.7 725.7 486.7 725.7 486.7 726.7 485.6 726.7 485.6 726.7 485.6" fill="#2E3192"/>
							<path d="m725.7 486.7l0.7-1.3-0.7 1.3z" fill="#2E3192"/>
							<path d="m725.7 486.7l0.4-1.5-0.4 1.5z" fill="#2E3192"/>
		</g>
		<g clip-path="url(#SVGID_3_)">
			<rect height="36.9" width="1823.2" stroke="#231F20" stroke-miterlimit="10" y="678.7" x="-193.9" fill="#B3B3B3"/>
			<rect y="694.5" x="-163.3" height="5.3" width="66.6" fill="#fff"/>
			<rect y="694.5" x="-3.2" height="5.3" width="66.6" fill="#fff"/>
			<rect y="694.5" x="156.8" height="5.3" width="66.6" fill="#fff"/>
			<rect y="694.5" x="316.9" height="5.3" width="66.6" fill="#fff"/>
			<rect y="694.5" x="477" height="5.3" width="66.6" fill="#fff"/>
			<rect y="694.5" x="637.1" height="5.3" width="66.6" fill="#fff"/>
			<rect y="694.5" x="797.1" height="5.3" width="66.6" fill="#fff"/>
			<rect y="694.5" x="957.2" height="5.3" width="66.6" fill="#fff"/>
			<rect y="694.5" x="1117.3" height="5.3" width="66.6" fill="#fff"/>
			<rect y="694.5" x="1277.4" height="5.3" width="66.6" fill="#fff"/>
			<rect y="694.5" x="1437.4" height="5.3" width="66.6" fill="#fff"/>
			<rect y="694.5" x="1597.5" height="5.3" width="31" fill="#fff"/>
		</g>
		<g clip-path="url(#SVGID_3_)">
				<rect height="76" width="17.9" stroke="#58595B" stroke-miterlimit="10" y="602.3" x="229.4" stroke-width=".5" fill="#fff"/>
				<rect height="76" width="17.9" stroke="#58595B" stroke-miterlimit="10" y="602.3" x="367.2" stroke-width=".5" fill="#fff"/>
			<path stroke="#58595B" stroke-width=".5" stroke-miterlimit="10" d="m347 588.5v13.8h-5.7v-4.4h-5.9v-4.4h7.4v-7.8h-71v7.8h7.4v4.4h-5.9v4.4h-5.7v-13.8s-18.6 4.4-20.3 13.8v76h119.8v-76c-1.5-9.4-20.1-13.8-20.1-13.8zm-85.3 9.1h1.4v10.8h-1.4v-10.8zm-5.1 3.1h1.4v7.7h-1.4v-7.7zm-5.6 2h1.4v5.5h-1.4v-5.5zm12.6 31.2h-12.9v-22.9h12.9v22.9zm98.5-31.2h1.4v5.5h-1.4v-5.5zm-5.5-2h1.4v7.7h-1.4v-7.7zm-5.1-3.1h1.4v10.8h-1.4v-10.8zm12.3 36.3h-12.9v-22.9h12.9v22.9z" fill="#fff"/>
			<path d="m336.3 629.2v-2.2h-3.6v-2.3h-3.7v-1.1h-5.1c-10.5-6.3-12.2-6.1-16.6-6.1s-6.1-0.2-16.6 6.1h-5.1v1.1h-3.6v2.3h-3.6v2.3h-11.6v13.1h81.2v-13.1h-11.7z" fill="#58595B"/>
				<rect height="10" width="33.9" stroke="#58595B" stroke-miterlimit="10" y="581.4" x="290.4" stroke-width=".5" fill="#fff"/>
				<rect height="33.7" width="16.3" stroke="#58595B" stroke-miterlimit="10" y="644.6" x="290.7" stroke-width=".5" fill="#D1D3D4"/>
				<rect height="33.7" width="16.3" stroke="#58595B" stroke-miterlimit="10" y="644.6" x="308" stroke-width=".5" fill="#D1D3D4"/>
				<rect height="15" width="21.6" stroke="#58595B" stroke-miterlimit="10" y="654.4" x="326.3" stroke-width=".5" fill="#D1D3D4"/>
				<rect height="15" width="21.6" stroke="#58595B" stroke-miterlimit="10" y="654.4" x="266.8" stroke-width=".5" fill="#D1D3D4"/>
				<text font-size="9.8964" font-family="&apos;MyriadPro-Bold&apos;" transform="translate(270.61 639.32)" fill="#4CAF50">REVENUE OFFICE</text>
		</g>
		<g clip-path="url(#SVGID_3_)">
			<rect y="611.5" x="1015.5" height="49.3" width="73.9" fill="#58595B"/>
				<path stroke="#58595B" stroke-width=".5" stroke-miterlimit="10" d="m1072.6 615.9c3.6-1.1 4.2-0.7 4.3 2.7 0.4 12.6 0.7 25.1 1.2 37.7 0 1.1 0.6 3 1.1 3 2 0.3 4.2 0.1 6.3-0.3 0.4-0.1 0.6-1.5 0.7-2.3 0.4-12.7 0.8-25.5 1.2-38.2 0.1-3.4 0.5-3.7 4.1-2.8l-0.1-0.1c0.3 9.5 0.5 19 0.8 28.5 0.2 5.5 0.5 11 0.8 16.7h-80c0-3.9-0.1-7.7 0-11.6 0.3-10.4 0.6-20.9 1-31.3 0-0.9 0.6-2.2 1.2-2.4 1.6-0.5 2.7 0 2.7 2 0.3 12.1 0.7 24.3 1.1 36.4 0 0.8 0.1 1.5 0 2.3-0.2 2.5 0.9 3.5 3.7 3.4 4.6-0.1 4.7-0.1 4.8-4.5 0.3-12.5 0.7-24.9 1.1-37.4 0-1.4 0.3-2.3 2.1-2.4 2 0 1.9 1.2 2 2.4 0.4 12.3 0.7 24.6 1.1 36.9 0 0.9-0.2 2 0.2 2.8s1.4 1.4 2.2 2c0.1 0.1 0.4 0 0.5 0 5.3 0.2 5.4 0.2 5.5-4.8 0.4-12.1 0.7-24.3 1.1-36.4 0.1-3.1 0.7-3.5 4.1-2.5v-0.1c0.4 13.8 0.8 27.7 1.2 41.5 0 0.7 0.5 1.4 0.7 2 0.3 0 0.5-0.1 0.8-0.1v-13.5h5.4v13.4c0.3 0 0.6 0 0.9 0.1 0.2-0.9 0.5-1.8 0.5-2.7l1.2-38.7c0-1.3 0-2.4 1.9-2.5 2 0 2.1 1.1 2.1 2.5 0.3 12.3 0.7 24.6 1.1 36.9 0.2 4.9 0.2 4.9 5.5 4.8 0.2 0 0.4 0.1 0.5 0 0.8-0.6 2.1-1.3 2.1-2 0.6-13.6 1-27.6 1.3-41.4z" fill="#fff"/>
				<path stroke="#88D8FB" stroke-width=".5" stroke-miterlimit="10" d="m997.9 643.9c0.4 3.7 0.8 7.4 1 11.2 0.1 1.7 0.4 2.7 2.7 2.7 1.9 0 3.1-0.2 3.2-2.4 0.2-4 0.7-8 1.1-12l-0.1 0.1c0.8 0.1 1.6 0.2 2.8 0.3 0.3 3.6 0.5 7.2 0.9 10.9 0.1 1.1 0.8 2.1 1.3 3.1 0.2 0.4 0.5 0.9 0.4 1.4-0.5 2.8-1.1 16.3-1.7 19.2h-60.2v-20.5c3.1 0.3 3.3-1.4 3.4-3.5 0.2-3.7 0.5-7.3 0.8-11l-0.1 0.1c2.5-0.1 3.3 1.1 3.3 3.2 0 3 0.4 6 0.5 9 0.1 1.7 1.1 2.1 2.7 2.1 1.7 0 3-0.1 3.1-2 0.2-3.4 0.6-6.8 0.7-10.2 0.1-1.8 0.9-2.2 3-1.7 0.3 3.7 0.7 7.5 1 11.3 0.1 1.5 0.1 2.7 2.3 2.7 1.9-0.1 3.4-0.1 3.5-2.5 0.1-3.8 0.6-7.6 0.9-11.4 1-0.2 1.8-0.3 2.6-0.5 0.3 3.8 0.8 7.6 1 11.4 0.1 2 0.7 3.1 3.2 3 2.7 0 2.7-1.4 2.8-3.1 0.2-3.6 0.6-7.3 0.9-10.9 1.1-0.1 2-0.2 2.9-0.3l-0.1-0.1c0.3 4 0.6 8 0.9 12 0.1 1.9 1.1 2.4 3 2.4s2.9-0.5 3-2.5c0.1-3.9 0.4-7.8 0.7-11.7 0.8 0 1.7 0.1 2.6 0.2zm-1.1 0.8h-0.4v11.1h0.4v-11.1zm10.5 0h-0.3v11.6h0.3v-11.6zm-52.5 0.3c-0.1 0-0.2 0.1-0.3 0.1v10.8h0.3v-10.9zm10.5 0c-0.1 0-0.1 0-0.2 0.1v10.9h0.2v-11zm10.6-0.3h-0.3v11.6h0.3v-11.6zm10.5 0.3h-0.2v10.9h0.2v-10.9z" fill="#fff"/>
				<path stroke="#88D8FB" stroke-width=".5" stroke-miterlimit="10" d="m1107.3 643.4c0.9 0.1 1.8 0.2 3 0.4 0.3 3.8 0.6 7.6 0.8 11.4 0.1 1.6 0.4 2.6 2.5 2.6 1.9 0 3.4-0.1 3.5-2.5 0.2-4 0.6-8 1-11.9 0.8 0.1 1.6 0.3 2.7 0.5 0.3 3.7 0.7 7.5 0.9 11.3 0.1 2 1 2.6 3 2.6 2.1 0 2.6-0.8 2.8-2.6 0.3-4 0.9-7.9 1.3-11.9 0.7 0.1 1.4 0.3 2.6 0.5 0.3 3.7 0.6 7.5 0.8 11.3 0.1 2 0.8 2.7 3 2.6 2.3 0 2.8-0.9 2.9-2.8 0.2-3.7 0.5-7.3 0.9-11.1 1-0.2 1.9-0.3 2.7-0.5 0.3 4 0.8 8 1 12 0.1 2.1 1.2 2.5 3.2 2.5 2.1 0 2.7-0.9 2.7-2.6 0.1-3.8 0.3-7.6 0.5-11.4 1.1 0 2.3-0.1 3.4-0.1 0.2 4 0.3 8 0.8 12 0.1 1 1.5 1.9 2.4 2.8 0.3-0.1 0.5-0.3 0.8-0.4v21c-0.9 0.1-1.8 0.2-2.7 0.2h-55.5c-1.5 0-2.2-12-2.4-13.4-0.3-2-0.8-4-1.2-6-0.1-0.4-0.3-1-0.1-1.3 3.4-4.6 1.6-9.9 2.4-14.8 1-0.1 2-0.2 3.1-0.3 0.3 3.9 0.6 7.8 0.7 11.7 0.1 2 1.1 2.6 3.1 2.6s2.8-0.6 2.9-2.5c0-4 0.3-8 0.5-11.9z" fill="#fff"/>
				<path stroke="#88D8FB" stroke-width=".5" stroke-miterlimit="10" d="m1053.2 562.6c14.2 3.2 20.9 9.7 20.6 19.7h-41.9c-1-7.8 6.5-18.4 20-19.4 0.2-3.3 0.8-18.3 0.9-18.3s0.4 14.8 0.4 18z" fill="#fff"/>
				<path stroke="#58595B" stroke-width=".5" stroke-miterlimit="10" d="m1047.5 615.9c0.1-0.6 0.3-1.1 0.4-1.5-1.4 0.1-2.9 0.2-4.1 0.3-0.8 0.5-1.6 1.1-2.5 1.6-0.5-0.8-1-1.5-1.7-2.6h-2.9c-0.7 1-1.3 1.8-1.9 2.6-0.8-0.6-1.6-1.1-2.5-1.8h-3c-0.9 0.7-1.6 1.3-2.3 1.8-0.5-0.7-0.8-1.7-1.5-2.1-1-0.7-2.2-1.4-3.4-1.5-3.7-0.2-7.4-0.1-11.3-0.1v-3.3h83.9v3.4h-10.9c-2 0-3.8 0.2-4 2.6 0 0.4-1.1 1.1-1.3 1-0.8-0.4-1.4-1.1-2.2-1.8h-3.9v1.3l0.1-0.1c-2.4 1.1-3.4 0.4-3.2-2h-3.3c-1 1.1-1.6 1.9-2.2 2.6-0.7-0.5-1.3-1.1-2.2-1.7-1.1-0.1-2.7-0.2-3.9-0.3-0.5 0.7-0.9 1.3-1.4 2-0.8-0.8-1.6-1.5-2.6-2.6h-3.2c0 2.9-0.3 3.1-3 2.2z" fill="#fff"/>
				<path stroke="#88D8FB" stroke-width=".5" stroke-miterlimit="10" d="m1029.8 589v-5.3h45.9v5.3h-45.9z" fill="#fff"/>
				<path stroke="#58595B" stroke-width=".5" stroke-miterlimit="10" d="m1097 680.4h-88.7c-0.1-0.3-0.1-0.5-0.2-0.8 0.8-0.2 1.5-0.6 2.3-0.6h74.6 9.7c0.8 0 1.6 0.4 2.5 0.6 0 0.3-0.1 0.5-0.2 0.8z" fill="#fff"/>
				<path stroke="#58595B" stroke-width=".5" stroke-miterlimit="10" d="m1009.4 673.9c0.4-0.3 0.7-0.8 1.1-0.8 28.3 0 56.7 0.1 85 0.2 0.2 0 0.4 0.6 0.7 1.2h-86.5l-0.3-0.6z" fill="#fff"/>
				<path stroke="#58595B" stroke-width=".5" stroke-miterlimit="10" d="m1008.9 677.2c1.6-1.7 86.1-1.8 88 0h-88z" fill="#fff"/>
				<path stroke="#88D8FB" stroke-width=".5" stroke-miterlimit="10" d="m1055.4 590.3h25.8v9.1c-8.7-2.9-17.3-5.8-25.9-8.6 0.1-0.1 0.1-0.3 0.1-0.5z" fill="#fff"/>
				<path stroke="#58595B" stroke-width=".5" stroke-miterlimit="10" d="m1095.2 671.7h-85v-1.1h84.9c0.1 0.4 0.1 0.8 0.1 1.1z" fill="#fff"/>
				<path stroke="#88D8FB" stroke-width=".5" stroke-miterlimit="10" d="m1024.1 599.5v-9.1h26c0 0.1 0.1 0.2 0.1 0.3-8.6 3-17.2 5.9-26.1 8.8z" fill="#fff"/>
				<path stroke="#58595B" stroke-width=".5" stroke-miterlimit="10" d="m1011.4 664.9c27.6-0.2 55.2-0.1 82.8-0.1v1h-82.7c-0.1-0.3-0.1-0.6-0.1-0.9z" fill="#fff"/>
				<path stroke="#58595B" stroke-width=".5" stroke-miterlimit="10" d="m1094.8 668.7h-84c-0.1-0.2-0.1-0.4-0.2-0.7 0.8-0.2 1.6-0.5 2.4-0.5h43.7 35.7c0.9 0 1.7 0.3 2.6 0.4-0.1 0.3-0.2 0.6-0.2 0.8z" fill="#fff"/>
				<path stroke="#58595B" stroke-width=".5" stroke-miterlimit="10" d="m1093.6 663.4h-81.6c-0.1-0.2-0.1-0.5-0.2-0.7 0.9-0.1 1.8-0.4 2.7-0.4h70 7.2c0.7 0 1.3 0.3 2 0.5 0 0.2 0 0.4-0.1 0.6z" fill="#fff"/>
				<path stroke="#58595B" stroke-width=".5" stroke-miterlimit="10" d="m1021.3 625.8h4.3v10h-4.3v-10z" fill="#fff"/>
				<path stroke="#58595B" stroke-width=".5" stroke-miterlimit="10" d="m1084.3 625.9v9.9h-4.3v-9.9h4.3z" fill="#fff"/>
				<path stroke="#58595B" stroke-width=".5" stroke-miterlimit="10" d="m1035.9 625.9h4.3v9.9h-4.3v-9.9z" fill="#fff"/>
				<path stroke="#58595B" stroke-width=".5" stroke-miterlimit="10" d="m1035.9 655.3v-9.5h4.3v9.5h-4.3z" fill="#fff"/>
				<path stroke="#58595B" stroke-width=".5" stroke-miterlimit="10" d="m1025.6 655.3h-4.2v-9.6h4.2v9.6z" fill="#fff"/>
				<path stroke="#58595B" stroke-width=".5" stroke-miterlimit="10" d="m1084.2 655.3h-4.2v-9.5h4.2v9.5z" fill="#fff"/>
				<path stroke="#58595B" stroke-width=".5" stroke-miterlimit="10" d="m1091.5 615.8c-0.2-0.4-0.4-1.1-0.8-1.1-1.1-0.1-2.1-0.1-3.1-0.1-0.5 0.5-0.9 1.3-1.6 1.7-0.3 0.1-1.1-0.7-1.7-1.1 0.5-0.6 1-1.6 1.5-1.7 2-0.2 4-0.2 6.1-0.1 1 0.1 1.9 0.6 2.8 1.1 0.1 0.1-0.2 1.3-0.3 1.3-1 0.1-2 0-2.9 0-0.1-0.1 0 0 0 0z" fill="#fff"/>
				<path stroke="#58595B" stroke-width=".5" stroke-miterlimit="10" d="m1013.4 614.4c1.2-1.1 6.4-1.5 7.4-0.5 0.3 0.4 0.5 1.1 0.3 1.6-0.1 0.4-1 0.9-1.2 0.8-0.8-0.4-1.4-1-2.2-1.7-1.1 0-2.7-0.1-4.3-0.2z" fill="#fff"/>
				<path stroke="#58595B" stroke-width=".5" stroke-miterlimit="10" d="m1099.8 643.4c-1 0.1-2 0.2-3.1 0.3l-2.4-0.6c0.7-0.4 1.4-0.9 2.1-1 1.3-0.2 2.6-0.1 3.9 0 0.7 0 1.3 0.3 1.9 0.6 0.1 0.1-0.1 0.7-0.2 1.1-0.7-0.1-1.4-0.2-2.2-0.4z" fill="#fff"/>
				<path stroke="#58595B" stroke-width=".5" stroke-miterlimit="10" d="m997.9 643.9c-0.9-0.1-1.9-0.2-2.8-0.3-0.7 0.1-1.3 0.3-2 0.3-0.1 0-0.4-1-0.3-1.1 0.6-0.3 1.2-0.7 1.9-0.7 1.2-0.1 2.4-0.2 3.6 0 0.8 0.1 1.6 0.7 2.4 1-1 0.2-1.9 0.5-2.8 0.8z" fill="#fff"/>
				<path stroke="#58595B" stroke-width=".5" stroke-miterlimit="10" d="m1152.3 643.5c-1.1 0-2.3 0.1-3.4 0.1l-2.1-0.3c0.5-0.4 1-1.1 1.6-1.2 1.4-0.2 2.9-0.1 4.4 0 0.6 0 1.3 0.4 1.8 0.7 0.1 0.1-0.2 1.1-0.3 1.1-0.7-0.1-1.3-0.3-2-0.4z" fill="#fff"/>
				<path stroke="#58595B" stroke-width=".5" stroke-miterlimit="10" d="m1118.1 643.3c-0.8 0.2-1.6 0.3-2.4 0.4-0.1 0-0.4-0.8-0.3-0.8 0.8-0.3 1.5-0.8 2.3-0.9 1.5-0.1 2.9-0.1 4.4 0 0.5 0 1 0.6 1.3 1 0.1 0.1-0.4 0.9-0.7 0.9-0.4 0.1-0.9-0.3-1.4-0.4-1.2-0.2-2.3-0.4-3.5-0.6 0 0.1 0 0.2 0.1 0.2 0 0.2 0.1 0.2 0.2 0.2z" fill="#fff"/>
				<path stroke="#58595B" stroke-width=".5" stroke-miterlimit="10" d="m1141.6 643.3c-1 0-2.1-0.1-3.1 0-0.6 0.1-1.1 0.5-1.7 0.6-0.1 0-0.6-0.9-0.5-1 0.5-0.4 1.1-0.8 1.7-0.8 1.4-0.1 2.8-0.1 4.1 0 0.7 0.1 1.4 0.5 2 0.8 0 0-0.4 1-0.5 1-0.6-0.1-1.3-0.4-2-0.6-0.1 0 0 0 0 0z" fill="#fff"/>
				<path stroke="#58595B" stroke-width=".5" stroke-miterlimit="10" d="m1128.7 643.3c-0.6 0.3-1.1 0.6-1.7 0.8-0.3 0.1-1.1-0.3-1.1-0.5 0-0.4 0.3-1.2 0.5-1.2 2.2-0.1 4.4-0.2 6.6-0.1 0.3 0 0.7 0.6 0.7 0.9s-0.4 0.9-0.7 0.9c-0.4 0-0.9-0.4-1.4-0.5-1.1-0.2-2.3-0.4-3.5-0.6v0.2c0.3 0 0.5 0.1 0.6 0.1z" fill="#fff"/>
				<path stroke="#58595B" stroke-width=".5" stroke-miterlimit="10" d="m976.9 643.3l0.3-0.6c-1.1 0.1-2.2 0.2-3.2 0.4-0.6 0.1-1.1 0.6-1.6 0.9-0.2-0.4-0.4-0.8-0.6-1.3 0.6-0.2 1.2-0.6 1.9-0.7 1.2-0.1 2.4-0.1 3.6 0 0.9 0.1 1.7 0.4 2.5 0.7 0 0-0.3 1.1-0.3 1-0.9 0-1.8-0.2-2.6-0.4z" fill="#fff"/>
				<path stroke="#58595B" stroke-width=".5" stroke-miterlimit="10" d="m1005.9 643.3c-0.8 0.1-1.6 0.3-2.4 0.4-0.1 0-0.3-0.8-0.3-0.9 0.8-0.3 1.6-0.7 2.4-0.8 1.5-0.1 3-0.1 4.4 0 0.4 0 0.9 0.5 1.1 0.9 0.1 0.2-0.3 0.9-0.6 1-0.4 0.1-0.9-0.2-1.4-0.3-1.1-0.2-2.3-0.4-3.5-0.6v0.2c0.1 0.1 0.2 0.1 0.3 0.1-0.1 0.1 0 0 0 0z" fill="#fff"/>
				<path stroke="#58595B" stroke-width=".5" stroke-miterlimit="10" d="m965.3 642c1 0 2-0.1 3 0 0.4 0.1 0.8 0.6 1 1 0.1 0.2-0.2 0.8-0.5 0.8-0.5 0.1-1.2 0.1-1.5-0.2-1.4-1.5-2.7-1.7-4.2 0-0.2 0.3-1 0.2-1.4 0.1-0.2 0-0.6-0.6-0.5-0.8 0.2-0.4 0.6-1 1-1 1 0 2.1 0.1 3.1 0.1z" fill="#fff"/>
				<path stroke="#58595B" stroke-width=".5" stroke-miterlimit="10" d="m1107.4 643.3c-0.7 0.2-1.4 0.4-2.1 0.6-0.1-0.4-0.4-1.1-0.2-1.1 0.6-0.3 1.3-0.6 1.9-0.7 1.5-0.1 3-0.1 4.4 0 0.5 0 1 0.5 1.3 0.9 0.1 0.1-0.3 0.9-0.6 1-0.4 0.1-0.9-0.3-1.4-0.4-1.1-0.1-2.3-0.2-3.3-0.3-0.1 0.1 0 0 0 0z" fill="#fff"/>
				<path stroke="#58595B" stroke-width=".5" stroke-miterlimit="10" d="m987.7 643.4c-1.1 0-2.2 0-3.3 0.1-0.6 0-1.1 0.4-1.6 0.4-0.1 0-0.5-0.9-0.4-1 0.4-0.4 0.9-0.8 1.5-0.8 1.5-0.1 3-0.1 4.4 0 0.6 0.1 1.2 0.4 1.8 0.8 0.1 0.1-0.3 1-0.4 1-0.8-0.1-1.4-0.3-2-0.5-0.1 0 0 0 0 0z" fill="#fff"/>
				<path stroke="#58595B" stroke-width=".5" stroke-miterlimit="10" d="m953.4 643.3c-0.7 0.2-1.4 0.4-2.2 0.5 0 0-0.4-1-0.3-1.1 0.6-0.3 1.2-0.6 1.9-0.7 1.5-0.1 2.9-0.1 4.4 0 0.5 0 1.1 0.5 1.5 0.8 0.1 0.1-0.3 1-0.5 1-0.5-0.1-1-0.5-1.6-0.5-1 0-2.2 0.1-3.2 0-0.1 0.1 0 0 0 0z" fill="#fff"/>
				<path stroke="#58595B" stroke-width=".5" stroke-miterlimit="10" d="m1013.4 614.3c-0.2 0.7-0.4 1.3-0.6 2-0.6-0.2-1.5-0.3-1.8-0.7s0.1-1.2 0.3-1.8c0.7 0.2 1.4 0.4 2.1 0.5v0z" fill="#fff"/>
				<g stroke="#58595B" stroke-width=".5" stroke-miterlimit="10" fill="#58595B">
						<path d="m996.8 644.7v11.1h-0.4v-11.1h0.4z"/>
						<path d="m1007.3 644.7v11.6h-0.3v-11.6h0.3z"/>
						<path d="m954.8 645v10.9h-0.3v-10.8c0.1 0 0.2 0 0.3-0.1z"/>
						<path d="m965.3 645v11h-0.2v-10.9c0.1-0.1 0.2-0.1 0.2-0.1z"/>
						<path d="m975.9 644.7v11.6h-0.3v-11.6h0.3z"/>
						<path d="m986.4 645v10.9h-0.2v-10.9h0.2z"/>
						<path d="m1150.9 644.6h-0.3v11.6h0.3v-11.6z"/>
						<path d="m1098.6 644.8h-0.3v11.4h0.3v-11.4z"/>
						<path d="m1119.4 644.7h-0.3v11.6h0.3v-11.6z"/>
						<path d="m1129.7 656h0.2v-11.1h-0.2v11.1z"/>
						<path d="m1140.4 645h-0.2v11.1h0.2v-11.1z"/>
						<path d="m1150.9 644.6v11.6h-0.3v-11.6h0.3z"/>
						<path d="m1098.6 644.8v11.4h-0.3v-11.4h0.3z"/>
						<path d="m1119.4 644.7v11.6h-0.3v-11.6h0.3z"/>
						<path d="m1109 644.8v11.6h-0.3v-11.6h0.3z"/>
						<path d="m1129.7 656v-11.2h0.2v11.1c-0.1 0.1-0.2 0.1-0.2 0.1z"/>
						<path d="m1140.4 645v11.1h-0.2v-11.1h0.2z"/>
				</g>
				<path stroke="#58595B" stroke-width=".5" stroke-miterlimit="10" d="m1050.6 626c4.5-0.6 4.6-0.4 4.6 3.4v6.5h-4.6v-9.9z" fill="#fff"/>
				<path stroke="#58595B" stroke-width=".5" stroke-miterlimit="10" d="m1069.7 625v10.8h-4.5c0-3-0.2-6 0.2-8.9 0-0.7 2.4-1.1 4.3-1.9z" fill="#fff"/>
				<path stroke="#58595B" stroke-width=".5" stroke-miterlimit="10" d="m1069.6 655.4h-4.3v-9.6h4.3v9.6z" fill="#fff"/>
				<path stroke="#88D8FB" stroke-width=".5" stroke-miterlimit="10" d="m949.2 628.7v12.5h62.7v-12.5h-62.7zm10.2 10.4c-1.2 0-2.2-0.9-2.2-2.1 0-1.1 1-5.7 2.2-5.7s2.2 4.5 2.2 5.7-1 2.1-2.2 2.1zm10.6 0c-1.2 0-2.2-0.9-2.2-2.1 0-1.1 1-5.7 2.2-5.7s2.2 4.5 2.2 5.7c0 1.2-1 2.1-2.2 2.1zm10.6 0c-1.2 0-2.2-0.9-2.2-2.1 0-1.1 1-5.7 2.2-5.7s2.2 4.5 2.2 5.7-1 2.1-2.2 2.1zm10.6 0c-1.2 0-2.2-0.9-2.2-2.1 0-1.1 1-5.7 2.2-5.7s2.2 4.5 2.2 5.7-1 2.1-2.2 2.1zm10.6 0c-1.2 0-2.2-0.9-2.2-2.1 0-1.1 1-5.7 2.2-5.7s2.2 4.5 2.2 5.7-1 2.1-2.2 2.1z" fill="#fff"/>
				<path stroke="#88D8FB" stroke-width=".5" stroke-miterlimit="10" d="m1093.6 628.8v12.4h62.6v-12.4h-62.6zm10.5 10.3c-1.2 0-2.2-0.9-2.2-2.1 0-1.1 1-5.7 2.2-5.7s2.2 4.5 2.2 5.7-1 2.1-2.2 2.1zm10.6 0c-1.2 0-2.2-0.9-2.2-2.1 0-1.1 1-5.7 2.2-5.7s2.2 4.5 2.2 5.7-1 2.1-2.2 2.1zm10.6 0c-1.2 0-2.2-0.9-2.2-2.1 0-1.1 1-5.7 2.2-5.7s2.2 4.5 2.2 5.7c0 1.2-1 2.1-2.2 2.1zm10.6 0c-1.2 0-2.2-0.9-2.2-2.1 0-1.1 1-5.7 2.2-5.7s2.2 4.5 2.2 5.7-1 2.1-2.2 2.1zm10.2 0c-1.2 0-2.2-0.9-2.2-2.1 0-1.1 1-5.7 2.2-5.7s2.2 4.5 2.2 5.7c0.1 1.2-0.9 2.1-2.2 2.1z" fill="#fff"/>
				<g fill="#fff">
					<path d="m1060.2 599.8c-0.4 0-0.7 0-0.8 0.1v2h0.7c0.9 0 1.4-0.4 1.4-1 0-0.8-0.4-1.1-1.3-1.1z"/>
					<path d="m1044.7 599.8c-1.2 0-1.9 1.1-1.9 2.5s0.7 2.4 1.9 2.4 1.9-1.1 1.9-2.5c0-1.3-0.7-2.4-1.9-2.4z"/>
					<path d="m1098.4 606.8c-0.7-0.3-1.3-0.6-2-0.8-13.7-4.6-27.4-9.1-41-13.8-1.9-0.6-3.5-0.6-5.3 0-10.3 3.5-20.7 7-31.1 10.4-3.9 1.3-7.9 2.7-11.8 4.1v0.7c1.8 0.3 3.6 0.9 5.3 0.9 26.7 0.1 53.3 0.1 80 0 1.9 0 3.9-0.6 5.8-0.9 0.1-0.2 0.1-0.4 0.1-0.6zm-59.7-2.2c0.5 0 1.1-0.1 1.5-0.2l0.3 1.3c-0.3 0.2-1.1 0.3-2 0.3-2.7 0-4.1-1.6-4.1-3.6 0-2.5 1.9-3.9 4.3-3.9 0.9 0 1.6 0.2 1.9 0.3l-0.4 1.3c-0.4-0.1-0.9-0.3-1.5-0.3-1.4 0-2.5 0.8-2.5 2.4 0 1.5 0.9 2.4 2.5 2.4zm5.9 1.4c-2.3 0-3.7-1.6-3.7-3.7 0-2.2 1.5-3.8 3.8-3.8 2.4 0 3.7 1.7 3.7 3.7 0.1 2.3-1.5 3.8-3.8 3.8zm11.5-3.3c0 2.2-1.2 3.3-3.3 3.3-2 0-3.2-1-3.2-3.3v-4.1h1.8v4.2c0 1.3 0.5 1.9 1.4 1.9s1.5-0.6 1.5-1.9v-4.2h1.8v4.1zm5.7 3.2c-0.1-0.2-0.3-0.8-0.6-1.7-0.2-0.9-0.6-1.2-1.3-1.2h-0.5v2.9h-1.8v-7.2c0.6-0.1 1.4-0.2 2.4-0.2 1.2 0 2 0.2 2.6 0.6 0.5 0.3 0.7 0.9 0.7 1.5 0 0.9-0.7 1.6-1.4 1.8 0.6 0.2 0.9 0.7 1.1 1.4 0.2 0.8 0.5 1.8 0.6 2h-1.8zm8.3-5.9h-2.2v5.9h-1.8v-5.9h-2.1v-1.4h6.1v1.4z"/>
				</g>
		</g>
		<g clip-path="url(#SVGID_3_)">
			<g fill="#58595B">
				<path d="m1256.2 675.7h-25.5c-0.1-0.6-0.2-1-0.2-1.5 0-14.5-0.1-29 0-43.6 0-8.2 6.6-13.9 14.7-12.9 5.9 0.7 11 5.9 11 12 0.1 15.1 0 30.2 0 45.3 0.2 0.1 0.1 0.3 0 0.7z"/>
				<path d="m1170.4 659.4v-38.9c2.3 0 4.5-0.1 6.7 0.1 0.4 0 0.9 1.2 0.9 1.9 0.1 6.9 0 13.9 0 20.8v14.4c0 1.4-0.4 1.8-1.8 1.8-1.8-0.2-3.7-0.1-5.8-0.1z"/>
				<path d="m1204.8 659.3h-7.5c-0.1-0.6-0.1-1.2-0.1-1.8v-35c0-1.8 0.5-2.3 2.2-2.1 1.3 0.1 2.6 0.1 3.9 0 1.2-0.1 1.7 0.3 1.7 1.6v36.1c-0.1 0.4-0.1 0.7-0.2 1.2z"/>
				<path d="m1315.8 659.3h-7.5v-38.9c2.2 0 4.4-0.1 6.5 0.1 0.4 0 0.9 1.2 0.9 1.8 0.1 10.5 0 21 0 31.5 0.1 1.8 0.1 3.6 0.1 5.5z"/>
				<path d="m1288.8 659.3h-7.4v-38.7h7.4v38.7z"/>
				<path d="m1294.8 620.5h7.4v38.7h-7.4v-38.7z"/>
				<path d="m1191.3 659.2h-7.4v-38.7h7.4v38.7z"/>
				<path d="m1243.7 582c0.6 0.3 1.3 0.5 1.9 0.8 1.6 0.7 3.1 1.6 4.7 2.2 1.9 0.7 2.3 1.7 1.6 3.6-0.6 1.6-1.1 3.4-1.2 5.1-0.1 2.6-1.4 4.4-3.3 5.8-0.2 0.1-0.3 0.3-0.5 0.3-1.5 0.1-2.1 2.7-4 1.5-2.9-1.9-6.3-3.4-6.2-7.9 0-1.6-0.6-3.3-1.1-4.8-0.7-2-0.3-3.1 1.6-3.8 1.6-0.6 3.1-1.5 4.7-2.2 0.4-0.1 1.1-0.3 1.8-0.6z"/>
				<path d="m1204.9 616.5h-7.6v-26.4h6.6c0.4 0 1 0.7 1 1.1 0.1 8.4 0 16.7 0 25.3z"/>
				<path d="m1177.8 616.5h-7.4c-0.1-0.6-0.1-1.1-0.1-1.6v-22.9c0-1.6 0.5-2.1 2-2 1.4 0.1 2.9 0.1 4.3 0 1 0 1.5 0.3 1.5 1.4v24.3c-0.1 0.3-0.2 0.5-0.3 0.8z"/>
				<path d="m1288.6 616.5h-7.2v-26.4c2.2 0 4.4 0 6.5 0.1 0.3 0 1 0.7 1 1.1v24.9s-0.2 0.1-0.3 0.3z"/>
				<path d="m1302.3 590.1v26.4h-7.5c0-0.6-0.1-1.2-0.1-1.8v-22.5c0-1.7 0.5-2.3 2.2-2.2 1.7 0.2 3.4 0.1 5.4 0.1z"/>
				<path d="m1308.2 590.1c2.2 0 4.4-0.1 6.5 0 0.4 0 1 0.6 1 1 0.1 8.4 0 16.8 0 25.4h-7.6c0.1-8.7 0.1-17.4 0.1-26.4z"/>
				<path d="m1183.9 616.5v-26.2h7.4v26.2h-7.4z"/>
			</g>
			<g fill="#fff">
				<path d="m1221.3 578.4h43.7v-12.4h-43.7v12.4zm36.8-10.5h5.4v1.6h-3.4v1.8h3.2v1.6h-3.2v2.1h3.6v1.6h-5.6v-8.7zm-3.3-0.2c1 0 1.8 0.2 2.2 0.4l-0.4 1.6c-0.4-0.2-1-0.3-1.7-0.3-1.6 0-2.8 0.9-2.8 2.9 0 1.8 1 2.9 2.8 2.9 0.6 0 1.3-0.1 1.7-0.3l0.3 1.5c-0.4 0.2-1.2 0.4-2.3 0.4-3 0-4.6-1.9-4.6-4.4 0-3 2.1-4.7 4.8-4.7zm-8.1 0.2h2v8.8h-2v-8.8zm-6.7 0h2v7.1h3.5v1.7h-5.5v-8.8zm-5.5-0.2c2.7 0 4.2 2 4.2 4.4 0 2.9-1.7 4.6-4.3 4.6s-4.1-2-4.1-4.5 1.6-4.5 4.2-4.5zm-11.4 0.3c0.6-0.1 1.5-0.2 2.7-0.2s2.1 0.2 2.7 0.7c0.6 0.4 0.9 1.2 0.9 2 0 0.9-0.3 1.6-0.8 2.1-0.7 0.6-1.7 0.9-2.8 0.9h-0.7v3.1h-2v-8.6z"/>
				<path d="m1234.5 575.2c1.3 0 2.1-1.3 2.1-3 0-1.6-0.8-2.9-2.1-2.9s-2.1 1.3-2.1 3 0.8 2.9 2.1 2.9z"/>
				<path d="m1227.4 570.6c0-0.8-0.6-1.3-1.5-1.3-0.4 0-0.7 0-0.8 0.1v2.6c0.2 0 0.4 0.1 0.7 0.1 1-0.1 1.6-0.6 1.6-1.5z"/>
			</g>
			<path stroke="#FEC000" stroke-width=".5" stroke-miterlimit="10" d="m1270.1 670.6v-4c0.7 0 1.3-0.1 1.9-0.1h38.4 22.6c0.6 0 1.7-0.5 1.8-0.8 0.2-2 0.1-4.1 0.1-6.4h-8.6v-75.9h-2.5-51.4c-2.6 0-2.8-0.4-1.9-3.2h61.2v-4.6h-61.5v-3h9.9c-0.5-0.4-0.7-0.6-0.9-0.8-11.5-7.1-22.9-14.2-34.4-21.3-0.5-0.3-1.7-0.1-2.4 0.2-11.3 6.8-22.5 13.7-33.7 20.6-0.5 0.3-0.9 0.6-1.4 0.9 0 0.1 0 0.2 0.1 0.4h10.2v3.1h-61.5v4.5h61.4c0.4 3.1 0.4 3.1-2.2 3.1h-51.2c-0.8 0-1.6 0.1-2.7 0.1v75.9h-8.3v7.1h2.8 58.6c3.6 0 3.6 0 3.2 3.6 0 0.1-0.1 0.2-0.3 0.7h-71v8.3h195.1v-8.4h-71.4zm18.5-11.3h-7.4v-38.7h7.4v38.7zm13.5-0.1h-7.4v-38.7h7.4v38.7zm13.6-5.3v5.4h-7.5v-38.9c2.2 0 4.4-0.1 6.5 0.1 0.4 0 0.9 1.2 0.9 1.8 0.1 10.6 0.1 21.1 0.1 31.6zm-7.6-63.8h6.5c0.4 0 1 0.6 1 1 0.1 8.4 0 16.8 0 25.4h-7.6c0.1-8.7 0.1-17.4 0.1-26.4zm-11.4 0c1.7 0.1 3.5 0 5.4 0v26.4h-7.5c0-0.6-0.1-1.2-0.1-1.8v-22.5c-0.1-1.7 0.5-2.3 2.2-2.1zm-15.5 0c2.2 0 4.4 0 6.5 0.1 0.3 0 1 0.7 1 1.1v24.9c0 0.1-0.1 0.2-0.2 0.4h-7.2c-0.1-8.8-0.1-17.5-0.1-26.5zm-84 0h6.6c0.4 0 1 0.7 1 1.1 0.1 8.4 0 16.7 0 25.3h-7.6v-26.4zm-27.1 1.9c0-1.6 0.5-2.1 2-2 1.4 0.1 2.9 0.1 4.3 0 1 0 1.5 0.3 1.5 1.4v24.3c0 0.2-0.1 0.4-0.2 0.7h-7.4c-0.1-0.6-0.1-1.1-0.1-1.6-0.1-7.5 0-15.1-0.1-22.8zm6 67.4c-1.9-0.1-3.8 0-5.9 0v-38.9c2.3 0 4.5-0.1 6.7 0.1 0.4 0 0.9 1.2 0.9 1.9 0.1 6.9 0 13.9 0 20.8v14.4c0.1 1.3-0.3 1.8-1.7 1.7zm15-0.2h-7.4v-38.7h7.4v38.7zm0.1-42.7h-7.4v-26.2h7.4v26.2zm13.6 41.7c0 0.3-0.1 0.6-0.1 1.1h-7.5c-0.1-0.6-0.1-1.2-0.1-1.8v-35c0-1.8 0.5-2.3 2.2-2.1 1.3 0.1 2.6 0.1 3.9 0 1.2-0.1 1.7 0.3 1.7 1.6-0.1 12.1-0.1 24.1-0.1 36.2zm17.1-92.2h42.7v12.3h-42.7v-12.3zm29.8 22.6c-0.6 1.6-1.1 3.4-1.2 5.1-0.1 2.6-1.4 4.4-3.3 5.8-0.2 0.1-0.3 0.3-0.5 0.3-1.5 0.1-2.1 2.7-4 1.5-2.9-1.9-6.3-3.4-6.2-7.9 0-1.6-0.6-3.3-1.1-4.8-0.7-2-0.3-3.1 1.6-3.8 1.6-0.6 3.1-1.5 4.7-2.2 0.6-0.3 1.2-0.4 1.9-0.7 0.6 0.3 1.3 0.5 1.9 0.8 1.6 0.7 3.1 1.6 4.7 2.2 1.8 0.8 2.2 1.8 1.5 3.7zm4.5 86.3c0 0.2-0.1 0.4-0.2 0.7h-25.5c-0.1-0.6-0.2-1-0.2-1.5 0-14.5-0.1-29 0-43.6 0-8.2 6.6-13.9 14.7-12.9 5.9 0.7 11 5.9 11 12 0.3 15.1 0.2 30.2 0.2 45.3z" fill="#fff"/>
		</g>
			<polyline clip-path="url(#SVGID_3_)" points="632.9 344.9 632.9 368.9 625.9 377.8 570.5 377.8 551.4 396.9 309.8 396.9 276.1 428 133.3 428 116.5 446 116.5 530.5" stroke="#2E3192" stroke-linecap="round" stroke-miterlimit="10" stroke-width="2" fill="none"/>
		<g clip-path="url(#SVGID_3_)">
			<path stroke="#58595B" stroke-width=".5" stroke-miterlimit="10" d="m28 671.9c1.2 0.1 2.4 0.3 3.6 0.3h169.7c1.2 0 2.4-0.2 3.6-0.3v2.9c-1.8 0-3.6-0.1-5.4-0.1h-166.1c-1.8 0-3.6 0.1-5.4 0.1v-2.9z" fill="#fff"/>
			<path stroke="#58595B" stroke-width=".5" stroke-miterlimit="10" d="m204.9 675.5v2.9h-176.9v-2.9c23.8 0 47.5-0.1 71.3-0.1 35.2 0.1 70.4 0.1 105.6 0.1z" fill="#fff"/>
			<path stroke="#58595B" stroke-width=".5" stroke-miterlimit="10" d="m204.9 586.7c-1.3 0.1-2.6 0.3-3.9 0.3h-169c-1.3 0-2.6-0.2-3.9-0.3v-2.2c1.2 0.1 2.4 0.2 3.6 0.2h169.7c1.2 0 2.4-0.1 3.6-0.2-0.1 0.8-0.1 1.5-0.1 2.2z" fill="#fff"/>
			<path stroke="#58595B" stroke-width=".5" stroke-miterlimit="10" d="m199.9 582.6c-1.8-0.6-3.7-1-5.3-1.9-24.2-14.9-48.5-29.9-72.6-45-4-2.5-7.2-2.5-11.2 0-23.9 15-47.9 29.8-72 44.7-1.7 1.1-3.8 1.6-5.7 2.4-0.2-0.3-0.4-0.6-0.5-0.9 0.8-0.6 1.5-1.2 2.3-1.7 25.7-16 51.4-32 77-48.1 3-1.9 5.7-2.1 8.7-0.2 25.9 16.2 51.8 32.3 77.7 48.5 0.7 0.4 1.3 0.9 2 1.4-0.2 0.2-0.3 0.5-0.4 0.8z" fill="#fff"/>
			<path stroke="#58595B" stroke-width=".5" stroke-miterlimit="10" d="m32.6 670.7c-1-2.8 0.1-3.7 2.7-3.6 3.1 0.1 6.2 0 9.2 0 1.1-3.7 1.1-7.5 5.5-8.6v-57.6c-4.2-1.2-4.7-4.8-5.4-8.7h-12.1v-3.7h168v3.7h-12.2c-1 3.7-1 7.5-5.7 8.7v3.4 50.9c0 1.9-0.1 3.2 2.4 4.4 1.8 0.9 2.4 4.4 4 7.6 2.3 0 5.5 0.1 8.7 0 2.6-0.1 3.7 0.7 2.7 3.6-55.9-0.1-111.8-0.1-167.8-0.1zm64.3-3.7c0.9-3.6 0.9-7.4 5.4-8.4v-57.7c-4.4-1.1-4.6-4.9-5.3-8.5h-13.6c-0.9 3.6-0.9 7.6-5.6 8.4v55.8c0 0.7 0.1 1.9 0.4 2 4.4 1.1 4.1 5.1 5.3 8.4h13.4zm57.8-8.5v-57.7c-4.8-0.8-4.4-5.1-5.5-8.2h-13.5c-0.5 3.8-1 7.3-5.2 8.4v57.7c4.5 1.1 4.5 4.9 5.3 8.3h13.4c0.9-4.9 2.3-7.9 5.5-8.5zm-50.1-28.8v22c0 1.8-0.1 3.9 2.5 4s2.6-1.9 2.6-3.8c0-14.5 0.1-29-0.1-43.6 0-1.4-1.4-3.8-2.4-3.9-2.6-0.2-2.6 2.1-2.6 4.1v21.2zm9.3 0v22c0 1.8-0.1 3.9 2.4 4 2.6 0.1 2.6-2 2.6-3.8 0-14.5 0.1-29-0.1-43.5 0-1.4-1.4-3.8-2.4-3.9-2.4-0.3-2.5 1.9-2.5 3.8v21.4zm-38.1 0.3v-21.6c0-1.9 0.2-4.3-2.5-4.2-2.5 0.1-2.3 2.3-2.3 4.1v43.3c0 1.8-0.3 4 2.4 4 2.6 0 2.5-2 2.5-3.9-0.1-7.2-0.1-14.4-0.1-21.7zm47.4-0.1v21.6c0 1.8-0.2 3.9 2.4 4s2.5-2.1 2.6-3.9v-43.3c0-1.9 0.2-4.3-2.6-4.2-2.5 0.1-2.3 2.3-2.3 4.1-0.1 7.3-0.1 14.5-0.1 21.7zm47.9 0.1v-22c0-1.9 0-4.1-2.5-3.7-0.9 0.1-2.1 2.4-2.1 3.7-0.2 14.7-0.1 29.3-0.1 44 0 1.7-0.1 3.6 2.3 3.6s2.4-1.8 2.4-3.6v-22zm-114-0.1v-22c0-1.7 0.1-3.7-2.3-3.8-2.3-0.1-2.5 1.8-2.5 3.6v44.3c0 1.8 0.1 3.6 2.5 3.5 2.5-0.1 2.3-2 2.3-3.7v-21.9zm9.3 0.5v-22.7c0-1.8-0.2-3.8-2.5-3.4-0.9 0.1-2.2 2.1-2.2 3.3-0.1 14.9-0.1 29.8 0 44.7 0 1.1 1.3 3.1 2.2 3.2 2.3 0.4 2.4-1.6 2.4-3.4 0.1-7.3 0.1-14.5 0.1-21.7zm95.4-0.4v-22c0-1.8 0.1-4.1-2.5-3.8-0.9 0.1-2.2 2.4-2.2 3.7-0.2 14.7-0.1 29.3-0.1 44 0 1.8 0 3.6 2.4 3.7 2.5 0.1 2.4-1.8 2.4-3.6v-22zm18.6-0.3v-21.3c0-1.9 0.3-4.3-2.5-4.2-2.6 0.1-2.3 2.3-2.3 4.1v43.3c0 1.7-0.4 4 2.3 4 2.6 0 2.5-2.1 2.5-3.9v-22z" fill="#fff"/>
			<path stroke="#58595B" stroke-width=".5" stroke-miterlimit="10" d="m204.9 675.5c-35.2 0-70.4-0.1-105.5-0.1-23.8 0-47.5 0-71.3 0.1v-0.7c1.8 0 3.6-0.1 5.4-0.1h166.1c1.8 0 3.6 0.1 5.4 0.1-0.1 0.2-0.1 0.5-0.1 0.7z" fill="#fff"/>
			<g fill="#58595B">
				<path d="m104.6 629.7v-21.2c0-2-0.1-4.4 2.6-4.1 0.9 0.1 2.3 2.5 2.4 3.9 0.2 14.5 0.1 29 0.1 43.6 0 1.9 0 3.9-2.6 3.8s-2.5-2.1-2.5-4c-0.1-7.4 0-14.7 0-22z"/>
				<path d="m113.9 629.7v-21.6c0-1.9 0.2-4.1 2.5-3.8 1 0.1 2.4 2.5 2.4 3.9 0.2 14.5 0.1 29 0.1 43.5 0 1.9-0.1 3.9-2.6 3.8-2.6-0.1-2.4-2.1-2.4-4v-21.8z"/>
				<path d="m75.8 630v21.6c0 1.8 0.1 3.9-2.5 3.9-2.7 0-2.4-2.2-2.4-4v-43.3c0-1.8-0.2-4.1 2.3-4.1 2.8-0.1 2.5 2.3 2.5 4.2 0.1 7.3 0.1 14.5 0.1 21.7z"/>
				<path d="m123.2 629.9v-21.6c0-1.8-0.2-4 2.3-4.1 2.8-0.1 2.6 2.3 2.6 4.2v43.3c0 1.8 0.1 3.9-2.6 3.9-2.6-0.1-2.4-2.2-2.4-4 0.1-7.2 0.1-14.4 0.1-21.7z"/>
				<path d="m171.1 630v22c0 1.8 0 3.6-2.4 3.6s-2.3-1.9-2.3-3.6c0-14.7-0.1-29.3 0.1-44 0-1.3 1.2-3.5 2.1-3.7 2.5-0.4 2.5 1.8 2.5 3.7v22z"/>
				<path d="m57.1 629.9v22c0 1.7 0.2 3.6-2.3 3.7-2.4 0.1-2.5-1.7-2.5-3.5v-44.3c0-1.8 0.1-3.6 2.5-3.6 2.4 0.1 2.3 2 2.3 3.8v21.9z"/>
				<path d="m66.4 630.4v21.6c0 1.8-0.1 3.8-2.4 3.4-0.9-0.1-2.2-2.1-2.2-3.2-0.2-14.9-0.2-29.8 0-44.7 0-1.2 1.3-3.1 2.2-3.3 2.2-0.3 2.5 1.6 2.5 3.4-0.1 7.7-0.1 15.2-0.1 22.8z"/>
				<path d="m161.8 630v22c0 1.7 0.1 3.6-2.4 3.6-2.4-0.1-2.4-1.9-2.4-3.7 0-14.7-0.1-29.3 0.1-44 0-1.3 1.3-3.5 2.2-3.7 2.5-0.3 2.5 1.9 2.5 3.8v22z"/>
				<path d="m180.4 629.7v22c0 1.8 0.2 3.9-2.5 3.9s-2.3-2.3-2.3-4v-43.3c0-1.8-0.3-4.1 2.3-4.1 2.8-0.1 2.5 2.3 2.5 4.2v21.3z"/>
			</g>
			<path stroke="#58595B" stroke-width=".5" stroke-miterlimit="10" d="m32.1 672.2h168.1v-1.5h-168.1v1.5z" fill="#fff"/>
			<path stroke="#58595B" stroke-width=".5" stroke-miterlimit="10" d="m32 587v1.5h168.4v-1.5h-168.4z" fill="#fff"/>
			<g fill="#fff">
				<path d="m101.7 570.2h-0.7v2.6h0.8c0.9 0 1.8-0.4 1.8-1.3s-0.8-1.3-1.9-1.3z"/>
				<path d="m103.4 567.6c0-0.7-0.5-1.1-1.5-1.1-0.5 0-0.7 0-0.9 0.1v2.2h0.7c1.1-0.1 1.7-0.5 1.7-1.2z"/>
				<path d="m110.7 566.6c-0.2 0.6-0.3 1.3-0.5 1.8l-0.6 2h2.1l-0.6-2c-0.1-0.5-0.3-1.2-0.4-1.8z"/>
				<path d="m189.9 580c-23-14.2-46-28.4-68.8-42.8-3.3-2.1-5.9-2.1-9.2 0-18.1 11.4-36.3 22.6-54.5 33.8-5.7 3.5-11.3 7.1-17.7 11.1h153.4c-1.5-1-2.3-1.6-3.2-2.1zm-85-6.4c-0.7 0.5-1.8 0.8-3.6 0.8-1 0-1.8-0.1-2.3-0.1v-9.1c0.6-0.1 1.7-0.2 2.7-0.2 1.3 0 2.1 0.1 2.7 0.5 0.6 0.3 1.1 1 1.1 1.8s-0.5 1.6-1.5 2c1.1 0.3 1.8 1.1 1.8 2.3 0 0.9-0.4 1.5-0.9 2zm7.8 0.7l-0.7-2.4h-2.7l-0.7 2.4h-2.2l2.8-9.3h2.8l2.9 9.3h-2.2zm-3.3-21.6s-0.1-0.1-0.1-0.2v-1.7-0.1h1.2c0.8 0 1.7 0 2.5-0.2 0.7-0.2 1.4-0.4 2-0.9 0.6-0.6 1-1.3 1.2-2.1 0-0.1 0-0.2 0.1-0.3h-7.5v-0.1c0.4-0.6 0.7-1.3 1.1-1.9 0 0 0.1-0.1 0.2-0.1 1.9 0 3.8 0.1 5.7 0.1h0.1c-0.1-0.3-0.3-0.6-0.6-0.8-0.5-0.5-1.1-0.7-1.8-0.9-0.9-0.2-1.8-0.3-2.8-0.3h-2.2l0.1-0.1 1.2-1.8c0-0.1 0.1-0.1 0.2-0.1h12.4 0.1c0 0.1-0.1 0.1-0.1 0.1-0.4 0.6-0.7 1.2-1.1 1.8 0 0.1-0.1 0.1-0.2 0.1h-3.2-0.1c0.2 0.3 0.5 0.7 0.7 1s0.4 0.7 0.4 1.1h3.6c0 0.1-0.1 0.1-0.1 0.1-0.4 0.6-0.7 1.2-1.1 1.7-0.1 0.1-0.1 0.1-0.2 0.1h-2.2c-0.1 0-0.1 0-0.1 0.1 0 0.2-0.1 0.5-0.2 0.7-0.4 1.2-1.1 2.1-2.2 2.8s-2.2 1.1-3.4 1.3c-0.2 0-0.4 0.1-0.6 0.1l0.1 0.1c2.2 2.8 4.4 5.7 6.6 8.5 0.3 0.3 0.5 0.7 0.8 1h-3.3c-0.4-0.5-0.9-1.1-1.3-1.6-1.8-2.3-3.8-4.9-5.9-7.5zm14.5 21.6h-2.2l-2-3.6c-0.6-1-1.2-2.2-1.6-3.3 0.1 1.2 0.1 2.5 0.1 4v2.8h-1.9v-9.3h2.4l1.9 3.4c0.6 1 1.1 2.1 1.5 3.2-0.1-1.2-0.2-2.5-0.2-3.9v-2.7h1.9v9.4zm7 0l-2.3-4-0.8 1v3h-2.1v-9.3h2.1v4.1c0.2-0.4 0.4-0.7 0.6-1l2.1-3.1h2.6l-3.1 3.9 3.2 5.3h-2.3z"/>
			</g>
		</g>
			<circle r="5.3" clip-path="url(#SVGID_3_)" cy="458" stroke="#2E3192" cx="116.2" stroke-miterlimit="10" stroke-width="2" fill="#fff"/>
		<rect clip-path="url(#SVGID_3_)" height="669" width="1366" y="46" x="-28.4" fill="none"/>
		<g clip-path="url(#SVGID_3_)">
			<text font-size="20.699" font-family="&apos;MyriadPro-Regular&apos;" transform="translate(1088.7 543.35)" fill="#FFFFFF">GRC Services</text>
		</g>
		<g clip-path="url(#SVGID_3_)">
			<text font-size="20.699" font-family="&apos;MyriadPro-Regular&apos;" transform="translate(753.24 546.02)" fill="#FFFFFF">GST Services</text>
		</g>
		<g clip-path="url(#SVGID_3_)">
			<text font-size="20.699" font-family="&apos;MyriadPro-Regular&apos;" transform="translate(304.58 524.02)" fill="#FFFFFF">SAP Services</text>
		</g>
</svg>
