<?xml version="1.0" encoding="UTF-8" standalone="no"?>
<!-- Generator: Adobe Illustrator 18.0.0, SVG Export Plug-In . SVG Version: 6.00 Build 0)  -->
<!DOCTYPE svg  PUBLIC '-//W3C//DTD SVG 1.1//EN'  'http://www.w3.org/Graphics/SVG/1.1/DTD/svg11.dtd'>
<svg id="Layer_1" xmlns="http://www.w3.org/2000/svg" xml:space="preserve" viewBox="0 0 1366 715" version="1.1" y="0px" x="0px" xmlns:xlink="http://www.w3.org/1999/xlink" enable-background="new 0 0 1366 715">
	<linearGradient id="SVGID_1_" y2="710.99" gradientUnits="userSpaceOnUse" x2="683" y1="3.1744" x1="683">
		<stop stop-color="#FFB74D" offset="0"/>
		<stop stop-color="#FF9800" offset="1"/>
	</linearGradient>
	<rect width="1366" height="715" fill="url(#SVGID_1_)"/>
					<path d="m767.9 378.9c12.5 0 22.6-10.1 22.6-22.6s-10.1-22.6-22.6-22.6c-0.7 0-1.5 0-2.2 0.1 2.4-4.2 3.8-9 3.8-14.2 0-15.6-12.7-28.3-28.3-28.3-7.1 0-13.5 2.6-18.5 6.9-4.8-26.8-28.2-47.1-56.3-47.1-31.6 0-57.2 25.6-57.2 57.2 0 3.1 0.2 6 0.7 9-1.2-0.1-2.3-0.2-3.5-0.2-17 0-30.9 13.8-30.9 30.9 0 15.8 11.9 28.9 27.3 30.6l165.1 0.3z" fill="#fff"/>
	<g opacity=".02">
		<polygon points="401.5 195 683 32.5 964.5 195 964.5 520 683 682.5 401.5 520" fill="#2895F1"/>
			<defs>
				<polygon id="SVGID_2_" points="401.5 195 683 32.5 964.5 195 964.5 520 683 682.5 401.5 520"/>
			</defs>
			<clipPath id="SVGID_3_">
				<use overflow="visible" xlink:href="#SVGID_2_"/>
			</clipPath>
			<polyline fill="#9B9DA0" points="493.2 462.2 462.5 371.4 476.4 337.9 563.8 277 636.9 211.8 734.8 200.6 766 197.1 1019.4 341.5 1021.2 769.9" clip-path="url(#SVGID_3_)"/>
		<path d="m917.6 368.5c-0.1 0.3-0.1 0.6-0.2 1v1.2 1.8c0 1.7-0.2 3.3-0.4 5l-0.6 4.2c-0.5 3.2-1.1 6.4-1.9 9.6-4.4 17.5-12.5 33.1-24.2 46.8-10.1 11.8-22.1 21.2-35.7 28.6-9.9 5.3-20.3 9.1-31.2 11.6-3 0.7-6 1.3-9.1 1.8-2.2 0.4-4.5 0.6-6.7 0.9-1.4 0.2-2.7 0.2-4.1 0.3-1.9 0.2-3.8 0.2-5.7 0.3-1.5 0.1-3.1 0.2-4.6 0.3-0.4 0-0.7 0.1-1.1 0.1-2.7 0.1-5.5 0.2-8.2 0.3-7 0.3-14 0.3-21 0.2-3.3 0-6.6-0.1-9.9-0.2-1.8 0-3.6 0-5.4-0.1-2.6-0.1-5.2-0.1-7.7-0.2-0.5 0-1.1-0.1-1.7 0.1-0.3 0.3-0.6 0.7-0.9 1-12.9 13.4-25.9 26.8-38.8 40.3-3.2 3.3-6.3 6.5-9.5 9.8l-0.7 0.7c-0.3 0.3-0.4 0.3-0.8 0-0.2-0.1-0.3-0.2-0.5-0.4-11.1-8.2-22.1-16.4-33.1-24.6-0.2-0.2-0.5-0.4-0.7-0.5 0 0-0.1-0.3 0-0.4 0.2-0.2 0.3-0.4 0.5-0.6 3.5-3.8 7-7.6 10.4-11.5 11.7-12.8 23.4-25.7 35.1-38.5 4.7-5.2 9.4-10.4 14.2-15.5 0.4-0.4 0.7-0.8 1.1-1.2 0.5-0.1 1.1-0.1 1.6-0.1 3.2-0.1 6.3-0.1 9.5 0 2.3 0.1 4.7 0.1 7 0.2 2.9 0.1 5.7 0.2 8.6 0.3 0.7 0 1.4 0.1 2.1 0.1 3.4 0.1 6.7 0.3 10.1 0.4 1 0 1.9 0.1 2.9 0.1 4.1 0.1 8.2 0.3 12.4 0.2 2.8 0 5.6-0.1 8.4-0.2 2.3 0 4.6-0.2 6.9-0.3 2.3-0.2 4.6-0.4 6.8-0.6 2.7-0.3 5.5-0.7 8.2-1.1 0.8-0.1 1.6-0.3 2.5-0.4 0.3-0.1 0.7-0.1 0.9-0.3s0.5-0.2 0.7-0.2c1.2-0.2 2.5-0.4 3.7-0.6 2-0.3 3.9-0.9 5.8-1.4 2.5-0.7 5-1.5 7.5-2.3 3-1.1 6-2.4 8.8-3.9 9-4.6 16.8-10.7 23.4-18.3 6.9-8 12-17 15-27.2 1-3.3 1.7-6.7 2.2-10.1 0.7-4.6 0.9-9.2 0.6-13.8-0.5-9.5-2.9-18.6-7-27.2-4.3-9-10.3-16.7-17.7-23.3-9.4-8.4-20.3-14.1-32.4-17.4-3-0.8-6-1.4-9-1.9-1.7-0.3-3.4-0.5-5.1-0.6-1.2-0.1-2.3-0.2-3.5-0.2-0.4 0-0.6-0.2-0.7-0.5s-0.3-0.6-0.4-0.9c-10.4-25.3-30.5-46.3-56.2-57.7-6.6-2.9-13.4-5.2-20.5-6.7-2.5-0.5-5.1-1-7.6-1.4-1.8-0.3-3.6-0.5-5.3-0.6-1.7-0.2-3.4-0.2-5.1-0.4-0.8-0.1-1.6-0.1-2.4-0.1h-6.3c-2 0.1-4 0.2-6 0.4-1.1 0.1-2.2 0.2-3.4 0.3-1.4 0.2-2.7 0.3-4.1 0.6-2.7 0.4-5.4 1-8.1 1.6-11.2 2.7-21.6 7-31.4 13-14.2 8.8-25.8 20.3-34.8 34.4-2.4 3.7-4.3 7.7-6 11.8-2 4.9-3.6 9.9-5 14.9-1.2 4.3-2.2 8.6-3 12.9 0 0.2-0.1 0.3-0.1 0.5 0 0.1-0.2 0.3-0.4 0.3h-0.6c-1.6-0.2-3.1-0.4-4.7-0.6-0.9-0.1-1.8-0.2-2.7-0.3-1.4-0.1-2.7-0.2-4.1-0.3-2.2-0.2-4.3-0.2-6.5-0.3-1.9-0.1-3.8-0.1-5.7 0-1.1 0.1-2.3 0.1-3.4 0.2-1.4 0.1-2.7 0.2-4.1 0.4-1.4 0.1-2.7 0.3-4.1 0.6-5.5 0.9-10.9 2.6-15.9 5-7.3 3.6-14 8.1-19.9 13.7-5.8 5.5-10.6 11.9-14.1 19.1-2.5 5.1-4.3 10.5-5.3 16.1-0.8 4.3-1.1 8.6-0.9 13 0.4 10.4 3.4 20 8.7 28.9 1.3 2.3 2.9 4.4 4.6 6.4 4.6 5.8 10 10.7 16.1 14.9 6.9 4.9 14.3 8.6 22.3 11.4 1 0.3 1 0.3 2.1 0.3 7.3-0.1 14.5-0.1 21.8-0.2 7.4 0 14.8-0.1 22.3-0.1 3.8 0 7.6-0.1 11.4-0.1 4.3 0 8.5-0.1 12.8-0.1h1.1c0.3 0 0.5-0.1 0.7-0.3l0.8-0.8c10.9-11.9 21.8-23.8 32.7-35.7 3.7-4 7.3-8 11-12 0.3-0.3 0.5-0.6 0.8-0.8 0 0 0.1-0.2 0.2-0.3-0.2-0.4-0.6-0.7-0.9-1l-11.9-11.9-0.8-0.8c-0.1-0.1-0.1-0.2-0.1-0.2 0-0.1 0.1-0.2 0.2-0.2 0.4 0 0.7-0.1 1.1-0.1 2.2-0.1 4.3-0.2 6.5-0.3 2-0.1 4-0.3 6-0.4l6-0.3c2.2-0.1 4.4-0.3 6.6-0.4h0.5c2.2-0.1 4.3-0.2 6.5-0.3 2-0.1 4-0.3 6-0.4h0.5c2.2-0.1 4.3-0.2 6.5-0.3 2-0.1 4-0.3 6-0.4s3.9-0.2 5.9-0.3c0.9 0 1.7-0.1 2.6-0.2 0.4 0 0.6 0.1 0.6 0.5 0.1 0.4 0.1 0.7 0.1 1.1 0.1 1.7 0.3 3.3 0.4 5 0.1 1.1 0.2 2.2 0.3 3.2 0.1 1.4 0.2 2.7 0.3 4.1s0.3 2.7 0.4 4.1c0.1 1 0.2 2.1 0.3 3.1 0.1 1.4 0.2 2.7 0.3 4.1s0.3 2.8 0.4 4.2c0.1 1.1 0.2 2.2 0.3 3.4 0.1 1.4 0.2 2.7 0.3 4.1s0.2 2.7 0.4 4.1c0.1 1 0.2 2.1 0.3 3.1 0.1 1.4 0.2 2.7 0.3 4.1s0.3 2.8 0.4 4.2v1.2s-0.1 0.1-0.2 0.1c-0.3-0.2-0.6-0.3-0.9-0.5-2.5-1.7-5-3.4-7.4-5.1-2.4-1.6-4.8-3.3-7.2-4.9-0.2-0.2-0.5-0.3-0.7-0.5-0.3-0.2-0.5-0.2-0.8 0.1s-0.5 0.6-0.8 0.8c-3.1 3.5-6.2 7-9.3 10.4-11.1 12.5-22.3 25-33.5 37.3-3.7 4-7.4 8-11 11.9l-3.9 3.9c-0.5 0.5-0.9 1-1.5 1.3-0.6 0-1.2 0.1-1.7 0.1h-101.9-0.3c-0.8 0.1-1.6-0.1-2.3-0.3-4.9-1.4-9.7-3-14.4-4.9-9.1-3.7-17.7-8.3-25.8-13.9-7.5-5.3-14.3-11.3-20.4-18.2-9.7-11.2-16.7-23.8-20.9-38.1-1-3.4-1.8-6.9-2.4-10.5-0.5-2.8-0.9-5.5-1.1-8.3-0.2-1.7-0.2-3.3-0.3-5 0-0.6-0.1-1.2-0.1-1.7 0-0.3-0.2-0.5-0.4-0.6v-6c0.2-0.1 0.4-0.4 0.4-0.6 0-0.3 0.1-0.7 0.1-1 0.1-2.5 0.4-5 0.7-7.5 0.6-3.8 1.4-7.6 2.4-11.4 2.1-7.3 5-14.3 8.8-20.9 5-9 11.3-17.2 18.5-24.6 11.2-11.4 24.2-20.4 38.8-26.9 9.5-4.2 19.3-7.3 29.5-9 0.3-0.1 0.6-0.2 1-0.3 0.2-0.4 0.3-0.7 0.5-1 6.6-14.5 15.4-27.5 26.2-39.2 12-12.9 25.8-23.5 41.3-31.8 18.2-9.7 37.6-15.7 58.1-18.1 0.9-0.1 1.8-0.2 2.7-0.3 1.4-0.1 2.8-0.3 4.2-0.4 2-0.1 4.1-0.2 6.1-0.3 0.4 0 0.8 0 1.1-0.2h10.8c0.3 0.1 0.6 0.2 0.8 0.2 1.9 0.1 3.7 0.2 5.6 0.3l4.2 0.3c1.8 0.2 3.6 0.4 5.5 0.6 2.9 0.3 5.9 0.8 8.8 1.4 4.6 0.9 9.2 1.9 13.8 3.2 15.7 4.3 30.4 10.8 44.2 19.6 18.7 12 34.3 27.2 46.5 45.8 0.7 1 0.4 0.9 1.7 1.3 6.8 2 13.5 4.6 19.9 7.7 15.4 7.6 28.8 17.8 39.9 30.9 11.5 13.6 19.5 29 23.8 46.3 0.8 3.2 1.5 6.4 1.9 9.7l0.6 4.2c0.2 1.6 0.4 3.1 0.4 4.7v1.8c0 0.5 0 1 0.1 1.5 0 0.3 0.1 0.7 0.2 1-0.6 1.9-0.6 4.4-0.6 6.9z" fill="#fff"/>
	</g>
	<g stroke="#231F20" stroke-miterlimit="10">
		<path d="m298.6 459.1l-26.2 26.2c-0.6 0.6-1.6 0.6-2.2 0l-12.9-12.9c-0.6-0.6-0.6-1.6 0-2.2l26.2-26.2c0.6-0.6 1.6-0.6 2.2 0l12.9 12.9c0.7 0.6 0.7 1.6 0 2.2z" fill="#75D4CE"/>
		<path d="m305.7 454.1l-2.1 2.1c-1.3 1.3-3.4 1.3-4.8 0l-12.4-12.4c-1.3-1.3-1.3-3.4 0-4.8l2.1-2.1c1.3-1.3 3.4-1.3 4.8 0l12.4 12.4c1.3 1.4 1.3 3.5 0 4.8z" fill="#FFC900"/>
		<path d="m269.6 490l-2.1 2.1c-1.3 1.3-3.4 1.3-4.8 0l-12.4-12.4c-1.3-1.3-1.3-3.4 0-4.8l2.1-2.1c1.3-1.3 3.4-1.3 4.8 0l12.4 12.4c1.3 1.3 1.3 3.5 0 4.8z" fill="#FFC900"/>
		<polygon points="319.6 515.5 316.4 512.4 316.5 511 281.8 476.3 289.7 468.4 324.2 502.9 325.3 502.9 328.8 506.4" fill="#75D4CE"/>
	</g>
		<g id="XMLID_3_">
				<path d="m1138.2 532.8c0.2 2.6-0.1 5.2-0.7 7.6-1.3-1.8-3.4-2.8-5.7-2.7 0.3-1.4 0.4-3 0.3-4.5-0.5-9.1-7.5-16.1-15.6-15.7-1.6 0.1-3.1 0.5-4.5 1.1 1.1-1 1.7-2.4 1.6-3.9-0.1-1.9-1.3-3.5-3-4.2v-0.1c1.4 0.2 3 0.3 4.5 0.3 0.3 0 0.7-0.1 1-0.1h1.2c1.1-0.1 1.6-0.1 1.9 0.1 10 1.1 18.3 10.4 19 22.1z" fill="#75D4CE"/>
				<path d="m1131.8 537.7c2.3-0.1 4.4 0.9 5.7 2.7-2.2 9.4-9.6 16.5-18.6 17.1-10 0.6-18.8-6.9-21.4-17.4-2-1.6-4.7-2.9-6.5-3.7-1.1-0.5-1.8-1.5-1.9-2.6-0.6-5.8 0.5-11.1 3-15.4 0.9 0.1 1.8-0.5 2-1.4 0.2-0.5 0.1-1-0.1-1.4 2.2-2.6 5-4.6 8.3-5.8 1.2-0.4 2.5-0.5 3.7-0.2 1.1 0.3 2.7 0.6 4.5 0.8v0.1c1.7 0.7 2.9 2.3 3 4.2 0.1 1.5-0.5 2.9-1.6 3.9-5.7 2.5-9.6 9-9.1 16.3 0.5 9.1 7.5 16.1 15.6 15.7 6.7-0.4 12.1-5.9 13.4-12.9zm-33.6-11.8c0.9-0.1 1.6-1 1.6-2.1-0.1-1.1-0.9-1.9-1.8-1.9-0.9 0.1-1.6 1-1.6 2.1 0.1 1.1 0.9 1.9 1.8 1.9z" fill="#75D4CE"/>
				<path d="m1099.8 523.8c0.1 1.1-0.6 2-1.6 2.1-0.9 0-1.7-0.8-1.8-1.9s0.6-2 1.6-2.1c0.9 0 1.7 0.8 1.8 1.9z" fill="#FFC900"/>
				<path d="m1082.6 535.5c0.4 1.2 0.3 2.5 0 3.7-0.3 1.1-0.8 2.7-1.1 4.4h-0.1c-0.8 1.6-2.5 2.8-4.4 2.8-1.5 0-2.9-0.7-3.8-1.8-2.2-5.9-8.4-10.1-15.7-10.1-9.1 0-16.6 6.5-16.6 14.6 0 6.7 5.1 12.3 12.1 14.1 0 2.3-1.2 4.4-3 5.6-9.3-2.8-15.9-10.5-15.9-19.6 0-10 8-18.3 18.6-20.3 1.7-1.9 3.2-4.5 4.1-6.2 0.5-1 1.6-1.7 2.7-1.8 11.1-0.6 20.2 5.2 23.1 14.6zm-13.9-3.4c1.1 0 2-0.8 2-1.7s-0.9-1.7-2-1.7-2 0.8-2 1.7 0.9 1.7 2 1.7z" fill="#FFC900"/>
				<path d="m1081.3 543.6c-0.2 1.4-0.4 3-0.5 4.5v1 1.2c0.1 1.1 0 1.6-0.2 1.9-1.7 10-11.4 17.6-23.2 17.6-2.6 0-5.2-0.4-7.5-1.1 1.8-1.2 3-3.2 3-5.6 1.4 0.4 2.9 0.5 4.5 0.5 9.1 0 16.5-6.5 16.5-14.6 0-1.6-0.3-3.1-0.8-4.5 0.9 1.1 2.3 1.8 3.8 1.8 1.9 0.1 3.6-1 4.4-2.7z" fill="#FFC900"/>
				<path d="m1070.7 530.4c0 0.9-0.9 1.7-2 1.7s-2-0.8-2-1.7 0.9-1.7 2-1.7 2 0.8 2 1.7z" fill="#75D3CE"/>
			<g stroke="#414042" stroke-miterlimit="10" fill="none">
				<path d="m1073.2 544.6c0.5 1.4 0.8 2.9 0.8 4.5 0 8.1-7.4 14.6-16.5 14.6-1.6 0-3.1-0.2-4.5-0.5-7-1.7-12.1-7.4-12.1-14.1 0-8.1 7.4-14.6 16.6-14.6 7.3 0 13.5 4.2 15.7 10.1"/>
				<path d="m1081.4 543.6c0.3-1.8 0.8-3.3 1.1-4.4 0.4-1.2 0.4-2.5 0-3.7-2.9-9.4-12-15.2-23.2-14.6-1.2 0.1-2.2 0.7-2.7 1.8-0.9 1.7-2.4 4.4-4.1 6.2-10.6 2-18.6 10.3-18.6 20.3 0 9.1 6.7 16.9 15.9 19.6 2.4 0.7 4.9 1.1 7.5 1.1 11.8 0 21.5-7.7 23.2-17.6 0.2-0.2 0.3-0.8 0.2-1.9v-1.2-1c0.2-1.6 0.5-3.2 0.7-4.6z"/>
				<path d="m1052.9 563.2c0 2.3-1.2 4.4-3 5.6-0.1 0.1-0.2 0.1-0.3 0.2"/>
				<path d="m1081.3 543.6c-0.8 1.6-2.5 2.8-4.4 2.8-1.5 0-2.9-0.7-3.8-1.8"/>
				<path d="m1112 518.6c1.4-0.6 2.9-1 4.5-1.1 8.1-0.5 15 6.5 15.6 15.7 0.1 1.6 0 3.1-0.3 4.5-1.3 7-6.6 12.5-13.3 12.9-8.1 0.5-15-6.5-15.6-15.7-0.5-7.3 3.4-13.8 9.1-16.3z"/>
				<path d="m1110.6 510.4c-1.8-0.2-3.4-0.6-4.5-0.8-1.2-0.3-2.5-0.3-3.7 0.2-3.3 1.2-6.1 3.2-8.3 5.8-0.7 0.9-1.4 1.8-2 2.8-2.5 4.3-3.6 9.6-3 15.4 0.1 1.2 0.9 2.2 1.9 2.6 1.7 0.8 4.5 2.1 6.5 3.7 2.6 10.5 11.4 18 21.4 17.4 9.1-0.5 16.4-7.7 18.6-17.1 0.6-2.4 0.8-5 0.7-7.6-0.7-11.8-8.9-21-19-22.1-0.2-0.2-0.8-0.2-1.9-0.1h-1.2c-0.3 0-0.7 0-1 0.1-1.6 0-3.1-0.1-4.5-0.3z"/>
				<path d="m1131.8 537.7c2.3-0.1 4.4 0.9 5.7 2.7 0.1 0.1 0.1 0.2 0.2 0.2"/>
				<path d="m1110.6 510.5c1.7 0.7 2.9 2.3 3 4.2 0.1 1.5-0.5 2.9-1.6 3.9"/>
				<path d="m1074.3 515v0.4 5.8c0 1.1-0.9 2-2 2s-2-0.9-2-2v-5.8c0-0.6 0.3-1.1 0.7-1.5 0.3-0.3 0.8-0.5 1.3-0.5s1 0.2 1.4 0.6c0.3 0.2 0.5 0.6 0.6 1z"/>
				<path d="m1074.3 515c-0.5 0.5-1.3 0.6-2 0.4-0.7-0.3-1.1-0.8-1.2-1.5-0.1-0.3 0-0.7 0.1-1.1l1.6-4.2c0.4-1 1.5-1.5 2.5-1.1l0.6 0.3c0.4 0.4 0.7 0.9 0.7 1.5 0 0.2 0 0.5-0.1 0.7l-0.6 1.7-1 2.6c-0.2 0.2-0.3 0.5-0.6 0.7z"/>
				<path d="m1082.6 509.7c0.1 0.2 0.1 0.4 0.1 0.7-0.1 1.1-1.1 1.9-2.2 1.8h-0.2l-4.3-0.5h-0.2c-1-0.2-1.7-1.1-1.6-2.1 0.1-0.9 0.8-1.6 1.7-1.7h0.3 0.2l4.5 0.5c0.9-0.1 1.5 0.5 1.7 1.3z"/>
				<path d="m1088.5 513.1c0 0.1 0 0.3-0.1 0.4-0.3 1-1.4 1.6-2.4 1.3l-4.3-1.4c-0.7-0.2-1.1-0.8-1.3-1.4-0.1-0.3-0.1-0.7 0-1.1 0.3-0.8 1-1.4 1.9-1.4h0.4 0.2l4.3 1.4c0.9 0.5 1.4 1.3 1.3 2.2z"/>
				<path d="m1094.1 515.6c0.2 0.4 0.2 0.9 0.1 1.4-0.3 0.9-1.1 1.4-2 1.4-0.1 0-0.3 0-0.4-0.1l-4.3-1.4c-0.9-0.3-1.4-1.1-1.4-2 0-0.1 0-0.3 0.1-0.4 0.3-0.8 1-1.4 1.9-1.4 0.2 0 0.4 0 0.6 0.1l4.3 1.4c0.4 0.1 0.9 0.5 1.1 1z"/>
			</g>
		</g>
	<path d="m380.6 438.2c0.7-1.2 0.8-2.4 0.2-3.6-1-0.1-1.9-0.1-2.9-0.1-0.5 1.2-0.5 2.5 0.2 3.7 0.3 0.4 0.9 0.9 1.3 1 0.3-0.1 0.9-0.6 1.2-1z" fill="none"/>
	<path d="m269.6 438.3c0.6 1.1 1.7 1.1 2.4 0 0.8-1.3 0.8-2.7 0.3-3.9-1 0.1-1.9 0.1-2.9 0.1-0.8 1.3-0.5 2.6 0.2 3.8z" fill="none"/>
		<path d="m458.4 466.3c0 0.6-0.1 0.9-0.1 1.1v14.5c0 1.1 0.3 1.9 1.5 2s1.9-0.4 2.1-1.8c0.2-1.6 0.3-3.3 0.2-4.9-0.2-3.9-1.4-7.4-3.7-10.9z" fill="none"/>
		<path stroke="#231F20" stroke-miterlimit="10" d="m481 483.9h-5.5c-1.5 0-2-0.5-1.9-2 0.5-5.9-0.4-11.6-2.9-17-3.2-6.9-8.2-12.4-14-17.2-0.6-0.5-1.1-1.1-1.6-1.7-2.2-2.7-4.8-4.8-8.2-5.8-1.7-0.5-2.7 0.3-2.7 2.1 0 0.3 0 0.6 0.1 1 0.7 7.8 1.4 15.5 2.1 23.3 0.5 5.4 0.6 5.4-3.3 9.2-1.2 1.2-2.1 1.2-3.3 0-0.9-0.9-3.7-4.3-3.6-5.4 0.4-3.7 0.7-7.5 1-11.2 0.5-5.5 1-10.9 1.5-16.4 0.2-1.9-1.2-2.8-2.9-2.1-2.5 1.1-4.6 2.6-6.3 4.7-0.4 0.5-0.7 0.9-1.2 1.3-9.3 8.2-21.7 8.7-31.7 1.4-2.1-1.5-4.2-1.8-6.6-0.8-0.5 0.2-1.4 0.2-1.9-0.1-1.9-1.3-3.6-2.8-5.4-4.3-0.3-0.2-0.3-1-0.1-1.3 0.5-0.9 1.2-1.6 1.8-2.4 0.9-1.1 0.8-1.8-0.3-2.7-1.2-1-2.5-1.9-3.7-2.9-1.1-0.8-1.8-0.8-2.7 0.3-2.5 3.1-4.9 6.3-7.4 9.4-0.8 1-0.6 1.9 0.3 2.6 1.3 1 2.5 1.9 3.8 2.9 0.9 0.7 1.8 0.6 2.5-0.3 0.6-0.7 1.2-1.4 1.7-2.2 0.5-0.7 0.9-0.8 1.7-0.2 1.9 1.6 4 3.1 5.9 4.7 0.3 0.3 0.7 0.8 0.7 1.2 0 2.6 1.2 4.5 3.3 6 10.2 6.8 21.2 9 33 4.9 1.5-0.5 2.2-0.1 2.2 1.4v18.1c0 1.2-0.5 1.7-1.7 1.7h-37.2 95.8c-0.1-0.1-0.6-0.2-1.3-0.2zm-19.1-1.8c-0.1 1.4-0.8 1.9-2.1 1.8s-1.5-0.9-1.5-2v-14.5c0-0.3 0-0.5 0.1-1.1 2.3 3.5 3.5 7.1 3.7 10.9 0.2 1.6 0 3.2-0.2 4.9z" fill="#FFC900"/>
		<path stroke="#231F20" stroke-miterlimit="10" d="m482.6 484.3h-95.8c-1.2 0-1.7-0.6-1.7-1.8v-1.4c0-1.9-0.2-2.1-2.2-2.1-0.4 0-0.8 0-1.2-0.1-0.1-0.9-0.1-1.6-0.2-2.4h-15.7v2c-0.5 0-0.8 0.1-1.1 0.1-2.2 0.1-2.4 0.3-2.5 2.4v0.7c0 1.8-0.3 2.2-2.1 2.2h-9.6c-1.5 0-1.9 0.4-1.9 1.8v6.2c0 1.5 0.4 1.9 2 1.9h10.7c2.2 0 2.3 0.2 2.3 2.4v21c0 2.5 0.2 2.8 2.7 2.8h99.1c2.6 0 2.8-0.2 2.8-2.9v-21c0-2.1 0.4-2.5 2.5-2.5h10.6c1.5 0 2-0.4 2-2v-5.6c-0.1-0.9-0.3-1.4-0.7-1.7z" fill="#75D4CE"/>
		<path stroke="#231F20" stroke-miterlimit="10" d="m448.6 428.6c2.8-3.3 4-7.2 4-9.6 0-6.3-1.4-10.2-3.9-13.2-4.8-5.8-12.6-5.7-17.3 0.1-5.1 6.3-5 16.5 0.2 22.7 4.7 5.4 12.3 5.5 17 0z" fill="#FFC900"/>
		<g stroke="#231F20" stroke-miterlimit="10">
			<path d="m573.8 408.5l2.6 4.5s-4.4 2.3-8.1-5l-1.4-9.8 8.3-4-1 7.7-0.4 6.6z" fill="#fff"/>
			<path d="m577.2 394.2h-13.8s-2.7-0.1-2.7-2.8h17.7l-1.2 2.8z" fill="#fff"/>
			<path d="m594.9 400h-18.1v5.2l4.7 3.7s1.5 3.5-0.3 3.5-9.7-5.5-9.7-5.5l-0.8-8.9 7.7-6.6h37.2v14.7l-13.1 6.3h-20s1.8-4.5 5.3-4.8 6.1-3.1 6.1-3.1l1-4.5z" fill="#fff"/>
			<rect height="22.3" width="70.5" y="387.9" x="615.7" fill="#75D4CE"/>
		</g>
		<path d="m629.5 472c-0.1 0-0.3-0.1-0.4-0.1 0.1 0.1 0.3 0.1 0.4 0.1z" fill="none"/>
		<path d="m629.1 471.9c-0.1 0-0.1 0-0.2-0.1 0 0.1 0.1 0.1 0.2 0.1z"/>
		<path d="m650.4 536.5c-0.6-2.1-1.2-4.1-1.9-6.2-5.8-19-11.5-38-17.3-57-0.1-0.4-0.3-0.9-0.4-1.3h0.1c-0.3 0.1-0.9 0.1-1.5 0 0.1 0 0.1 0 0.2 0.1 0 0.1-0.1 0.3-0.1 0.4-2.7 9-5.3 18-8 27.1l-10.8 36.6c-0.1 0.4 0.9 0.1 0.9 0 6-20.3 12-40.6 17.9-60.9h0.1v60.1h0.9v-60.1h0.1c6.2 20.5 12.4 41 18.7 61.5 0 0 1 0.2 0.9 0 0.2-0.2 0.2-0.2 0.2-0.3z" fill="#231F20"/>
		<path d="m535.5 472c0.1 0 0.3-0.1 0.4-0.1-0.1 0.1-0.3 0.1-0.4 0.1z" fill="none"/>
		<path d="m535.9 471.9c0.1 0 0.1 0 0.2-0.1-0.1 0.1-0.1 0.1-0.2 0.1z"/>
		<path d="m514.6 536.5c0.6-2.1 1.2-4.1 1.9-6.2 5.8-19 11.5-38 17.3-57 0.1-0.4 0.3-0.9 0.4-1.3h-0.1c0.3 0.1 0.9 0.1 1.5 0-0.1 0-0.1 0-0.2 0.1 0 0.1 0.1 0.3 0.1 0.4 2.7 9 5.3 18 8 27.1l10.8 36.6c0.1 0.4-0.9 0.1-0.9 0-6-20.3-12-40.6-17.9-60.9h-0.1v60.1h-0.9v-60.1h-0.1c-6.2 20.5-12.4 41-18.7 61.5 0 0-1 0.2-0.9 0-0.2-0.2-0.2-0.2-0.2-0.3z" fill="#231F20"/>
		<path stroke="#231F20" stroke-miterlimit="10" d="m630.7 534.4c-0.3-0.1-0.6-0.1-0.9-0.1v0.1c-3.2 0-6.3 0.1-9.4 0.3-7.7 0.6-12.6 1.8-13.8 2.1 0.3 0.2 2.3 2.7 2.5 3 1.3 1.3 2.9 2.1 4.6 2.7 2.8 0.9 5.8 1.2 8.7 1.5 3.2 0.4 6.4 0.4 9.6 0.3 3.7-0.1 7.4-0.3 11.1-0.9 2.9-0.5 5.6-1.4 8-3.1 0.2-0.2 2.1-2.7 2.8-3.7-2.4-0.4-4.7-0.8-7-1.1-5.3-0.6-10.7-0.9-16.2-1.1z" fill="#75D4CE"/>
		<path stroke="#231F20" stroke-miterlimit="10" d="m534.2 534.4c0.3-0.1 0.6-0.1 0.9-0.1v0.1c3.2 0 6.3 0.1 9.4 0.3 7.7 0.6 12.6 1.8 13.8 2.1-0.3 0.2-2.3 2.7-2.5 3-1.3 1.3-2.9 2.1-4.6 2.7-2.8 0.9-5.8 1.2-8.7 1.5-3.2 0.4-6.4 0.4-9.6 0.3-3.7-0.1-7.4-0.3-11.1-0.9-2.9-0.5-5.6-1.4-8-3.1-0.2-0.2-2.1-2.7-2.8-3.7 2.4-0.4 4.7-0.8 7-1.1 5.4-0.6 10.8-0.9 16.2-1.1z" fill="#75D4CE"/>
		<path stroke="#231F20" stroke-miterlimit="10" d="m634.1 467.6c-0.3-2-2-3.5-4-3.4-2 0-3.7 1.5-3.9 3.6 0 0.3-0.1 0.4-0.4 0.5-0.9 0.2-1.8 0.3-2.6 0.5-2.3 0.5-4.5 0.6-6.8 0-1.8-0.5-3.6-1-5.3-1.7-2.6-0.9-5.2-2.1-7.9-3-3.3-1.1-6.7-1.4-10.1-0.8-2.8 0.5-5.3 1.6-7.8 2.9l-1.2 0.6v-0.3c0-1.1 0.4-2 1-2.8 0.6-0.9 1.3-1.8 1.9-2.7 0.8-1.2 1.5-2.6 1-4-1.8-5.2-9-5.3-11 0-0.5 1.4 0.2 2.8 1 4 0.6 0.9 1.3 1.8 1.9 2.7s1 1.8 1 2.8v0.3l-1.2-0.6c-2.5-1.3-5-2.4-7.8-2.9-3.4-0.6-6.8-0.3-10.1 0.8-2.7 0.9-5.3 2-7.9 3-1.7 0.6-3.5 1.2-5.3 1.7-2.2 0.6-4.5 0.5-6.8 0-0.9-0.2-1.7-0.3-2.6-0.5-0.3 0-0.3-0.2-0.4-0.5-0.2-2.1-1.9-3.5-3.9-3.6-2 0-3.7 1.5-4 3.4-0.3 2.1 1 3.9 3 4.4h0.2c0.3 0.1 0.9 0.1 1.5 0 0.1 0 0.3-0.1 0.4-0.1s0.1 0 0.2-0.1c0.7-0.3 1.3-0.7 1.8-1.2 1.4 0.5 2.8 1 4.1 1.3 3.4 0.9 6.8 0.8 10.2-0.2 2.7-0.8 5.4-1.7 8.1-2.4 2.4-0.7 4.9-1.2 7.5-1 2.1 0.1 4.2 0.6 6.1 1.6 0.8 0.4 1.5 1.2 2.2 1.8 0.6 0.6 1.2 1.1 1.8 1.7 0.1 0.1 0.2 0.3 0.2 0.5l4.2 3.5-2.2 2.2 2.3 17.7 2.3-17.7-2.2-2.2 4.2-3.5c0-0.2 0.1-0.3 0.2-0.5 0.6-0.6 1.2-1.2 1.8-1.7 0.7-0.6 1.4-1.4 2.2-1.8 1.9-1 4-1.5 6.1-1.6 2.6-0.1 5 0.3 7.5 1 2.7 0.8 5.4 1.6 8.1 2.4 3.4 1 6.8 1.1 10.2 0.2 1.4-0.4 2.7-0.9 4.1-1.3 0.5 0.6 1.1 1 1.8 1.2 0.1 0 0.1 0 0.2 0.1 0.1 0 0.3 0.1 0.4 0.1 0.6 0.1 1.1 0.1 1.5 0h0.2c2.1-0.6 3.3-2.4 3-4.4zm-51.6-6.4c-1.5 0-2.7-1.2-2.7-2.7s1.2-2.7 2.7-2.7 2.7 1.2 2.7 2.7-1.2 2.7-2.7 2.7z" fill="#75D4CE"/>
		<path stroke="#231F20" stroke-miterlimit="10" d="m582.7 448.6h-0.3c-1.2 0-2.1-0.9-2.1-2.1v-5.6c0-1.2 0.9-2.1 2.1-2.1h0.3c1.2 0 2.1 0.9 2.1 2.1v5.6c0 1.1-1 2.1-2.1 2.1z" fill="none"/>
		<path stroke="#231F20" stroke-miterlimit="10" d="m582.7 430.8h-0.3c-1.2 0-2.1-0.9-2.1-2.1v-5.6c0-1.2 0.9-2.1 2.1-2.1h0.3c1.2 0 2.1 0.9 2.1 2.1v5.6c0 1.2-1 2.1-2.1 2.1z" fill="none"/>
			<path d="m582.5 457.8c-0.5 0-1-0.9-1-1.9v-6.7c0-1.1 0.4-1.9 1-1.9s1 0.9 1 1.9v6.7c0 1-0.5 1.9-1 1.9zm0-9.9c-0.3 0-0.6 0.6-0.6 1.3v6.7c0 0.7 0.3 1.3 0.6 1.3s0.6-0.6 0.6-1.3v-6.7c0.1-0.7-0.2-1.3-0.6-1.3z" fill="#231F20"/>
			<path d="m582.5 440c-0.5 0-1-0.9-1-1.9v-6.7c0-1.1 0.4-1.9 1-1.9s1 0.9 1 1.9v6.7c0 1.1-0.5 1.9-1 1.9zm0-9.8c-0.3 0-0.6 0.6-0.6 1.3v6.7c0 0.7 0.3 1.3 0.6 1.3s0.6-0.6 0.6-1.3v-6.7c0.1-0.8-0.2-1.3-0.6-1.3z" fill="#231F20"/>
			<path d="m582.5 422c-0.5 0-1-0.9-1-1.9v-6.7c0-1.1 0.4-1.9 1-1.9s1 0.9 1 1.9v6.7c0 1-0.5 1.9-1 1.9zm0-9.9c-0.3 0-0.6 0.6-0.6 1.3v6.7c0 0.7 0.3 1.3 0.6 1.3s0.6-0.6 0.6-1.3v-6.7c0.1-0.7-0.2-1.3-0.6-1.3z" fill="#231F20"/>
		<g stroke="#231F20" stroke-miterlimit="10" fill="#FFC900">
			<path d="m720.8 535.4h7.3v-8.7h7.6v-8.7h126.5v8.6h7.6v8.8h7.4v8.9h-156.5c0.1-2.9 0.1-5.9 0.1-8.9z"/>
			<path d="m799.5 394.7c0.8 0.5 1.6 1 2.5 1.4 21.1 10 42.2 19.9 63.3 29.9 4.1 1.9 4.1 1.9 3.2 6.9h-139.1c-0.9-5-0.9-5 3.2-6.9 21.1-10 42.2-19.9 63.3-29.9 0.9-0.4 1.7-0.9 2.5-1.4h1.1z"/>
			<path d="m777.6 446.9h12.8c0.7 22.7 1.3 45.4 2 68.3h-16.4c0.4-22.6 1-45.3 1.6-68.3z"/>
			<path d="m822.1 515.3h-16.4c0.6-22.8 1.1-45.5 1.7-68.3h12.8c0.6 22.7 1.3 45.4 1.9 68.3z"/>
			<path d="m747.7 446.8c4.1 0 7.8-0.1 11.5 0.1 0.5 0 1.2 1.3 1.3 2 0.2 4.9 0.3 9.8 0.5 14.7 0.5 16.4 0.9 32.9 1.4 49.3v2.4h-16.3c0.5-22.7 1.1-45.4 1.6-68.5z"/>
			<path d="m742.7 444.2v-8.4h112.5v8.4h-112.5z"/>
			<path d="m852 515.3h-16.4c0.6-22.8 1.1-45.5 1.7-68.3h12.7c0.7 22.7 1.3 45.4 2 68.3z"/>
		</g>
			<path d="m788.9 409.6v0 11h3.8c-1.3-3.6-2.6-7.3-3.8-11z" fill="none"/>
			<path d="m809.4 409.7v11h3.8c-1.3-3.7-2.5-7.4-3.8-11z" fill="none"/>
			<path d="m792.6 420.7h-3.8 3.8z" fill="none"/>
			<path d="m805.4 420.7h3.8-3.8z" fill="none"/>
			<path d="m809.1 409.7c-1.2 3.7-2.5 7.4-3.7 11h3.8c-0.1-3.7-0.1-7.4-0.1-11z" fill="none"/>
			<path d="m809.4 420.7h3.8-3.8z" fill="none"/>
			<path d="m784.8 420.7h3.8v-11c-1.3 3.6-2.5 7.3-3.8 11z" fill="none"/>
			<path d="m813.2 420.7h-3.8-0.3-3.8-0.3v0.1c2.2 2.7 6.4 2.5 8.4 0v-0.1h-0.2z" fill="#58595B"/>
			<path d="m792.6 420.7h-3.8-4.3v0.1c2.1 2.6 6.3 2.6 8.4 0v-0.1h-0.3z" fill="#58595B"/>
			<path d="m809.1 409.7v11h0.3v-11c1.2 3.7 2.5 7.4 3.7 11h0.3c-1.3-3.9-2.7-7.9-4-11.8 0.3-0.2 0.4-0.4 0.4-0.7 0-0.2-0.1-0.5 0-0.7v-0.3c-0.1 0.1-0.1 0.1-0.1 0.2-0.1 0.2-0.3 0.3-0.4 0.2-0.2-0.1-0.1-0.3-0.1-0.4 0.1-0.2 0.2-0.5 0.3-0.7 0.2 0 0.4 0 0.6-0.1 1.4-0.2 2.4-1.7 2.1-3.1-0.3-1.5-2.1-2.3-3.3-1.5-1.1 0.7-1.3 2.1-0.4 2.9 0.7 0.6 1.8 0.5 2.2-0.2 0.3-0.5 0.1-1.1-0.3-1.3-0.2-0.1-0.4-0.1-0.5 0.1 0.5 0.2 0.7 0.6 0.3 1-0.2 0.3-0.6 0.3-0.9 0.2-0.6-0.3-0.7-1.2-0.1-1.7 0.4-0.4 0.9-0.4 1.4-0.1s0.8 0.9 0.8 1.4c-0.1 1.1-1.5 2-2.5 1.2-1.1-0.8-2.3-1.5-3.4-2.2-1.2-0.8-2.5-1.4-3.9-1.7-0.5-0.1-1.1-0.1-1.6-0.2 0.6-0.5 0.7-0.9 0.4-1.7-0.4-0.8-0.8-1.6-1.2-2.5-0.4 0.9-0.9 1.7-1.2 2.6-0.3 0.7-0.2 1.1 0.4 1.6-0.5 0.1-1.1 0.1-1.6 0.2-1.4 0.2-2.7 0.9-3.9 1.7s-2.4 1.5-3.6 2.3c-0.6 0.4-1.2 0.3-1.8-0.1-0.5-0.4-0.8-1.1-0.6-1.6 0.3-1 1.4-1.4 2.2-0.8 0.3 0.2 0.5 0.6 0.4 0.9-0.1 0.4-0.2 0.7-0.6 0.8s-0.8-0.1-0.9-0.4 0-0.6 0.5-0.7v-0.1c-0.1 0-0.2-0.1-0.3-0.1-0.3 0-0.6 0.2-0.7 0.5-0.3 0.8 0.5 1.7 1.4 1.5 1.1-0.2 1.7-1.2 1.4-2.3-0.4-1.3-2-1.8-3.2-1-1.6 1-1.4 3.4 0.3 4.3 0.4 0.2 0.9 0.3 1.3 0.3 0.1 0.3 0.2 0.6 0.3 0.8 0 0.1 0 0.3-0.1 0.3-0.1 0.1-0.2 0.1-0.3 0-0.1 0-0.2-0.2-0.2-0.3h-0.1c0 0.1 0.1 0.2 0.1 0.4 0 0.1 0.1 0.2 0 0.2-0.2 0.4-0.1 0.8 0.3 1-1.3 3.9-2.6 7.8-4 11.8h4.3v-11c1.2 3.7 2.5 7.4 3.7 11h0.3c-1.3-3.9-2.7-7.9-4-11.8 0.4-0.2 0.5-0.6 0.3-1 0-0.1-0.1-0.1-0.1-0.2 0.2-0.3 0-0.6-0.2-0.8-0.1-0.1-0.2-0.3-0.2-0.5 0.3-0.2 0.6-0.3 0.9-0.4 1.1-0.6 2.3-1.2 3.4-1.7 1.6-0.7 3.4-1.2 5.2-1.3v0.7c0 0.2 0.1 0.4 0.2 0.7-0.4 0.5-0.4 0.8 0.1 1.3-0.3 0.2-0.3 0.5-0.3 0.8v14.8c0 0.3 0.1 0.6 0.3 0.7-0.4 0.5-0.4 0.6-0.2 1.2l-1.3 1.3c-1.5 1.3-3.3 1.9-5.3 2.1-0.2 0-0.3 0.1-0.3 0.3v0.6h-2.1c-0.5 0-0.5 0.1-0.5 0.5v0.7h-1.4c-0.2 0-0.4 0.1-0.4 0.3v1.4h24.1c0-0.5 0-1-0.1-1.4 0-0.2-0.1-0.3-0.4-0.3h-1.4v-0.4c0-0.2 0-0.4-0.1-0.6 0-0.2-0.1-0.3-0.4-0.3h-2-0.2v-0.6c0-0.1-0.1-0.2-0.2-0.2-0.6-0.1-1.1-0.1-1.7-0.3-2-0.4-3.6-1.6-5-3.1 0.3-0.4 0.2-0.8-0.2-1.2 0.2-0.2 0.3-0.4 0.3-0.7v-14.8c0-0.3-0.1-0.6-0.3-0.8 0.5-0.5 0.5-0.9 0-1.4 0.4-0.4 0.2-0.9 0.3-1.3 0.3 0 0.7 0.1 1 0.1 1.8 0.3 3.5 0.8 5.1 1.6 1.2 0.6 2.3 1.2 3.5 1.8l-0.3 0.6c-0.1 0.2-0.2 0.4-0.1 0.7v0.2c-0.2 0.5-0.1 0.8 0.2 1.1-1.3 3.9-2.6 7.8-4 11.8h0.3c1.1-4 2.4-7.7 3.6-11.3zm-20.5 11h-3.8c1.2-3.7 2.5-7.4 3.7-11 0.1 3.6 0.1 7.3 0.1 11zm0.4-12.7c0.1 0.2 0.1 0.5 0 0.7s-0.3 0.2-0.4 0-0.2-0.5-0.1-0.7h0.5zm20 0.7c-0.1-0.2-0.1-0.5 0-0.7h0.6c0.1 0.2 0.1 0.5 0 0.7 0 0.1-0.2 0.2-0.2 0.2-0.2-0.1-0.3-0.2-0.4-0.2z" fill="#75D4CE"/>
	<g stroke-miterlimit="10" stroke="#414042" stroke-width="2" stroke-linecap="round" fill="none">
			<line y2="566.9" x1="846.7" x2="871.9" y1="566.9"/>
			<line y2="579.5" x1="859.3" x2="859.3" y1="554.3"/>
	</g>
	<g stroke-miterlimit="10" stroke="#414042" stroke-width="2" stroke-linecap="round" fill="none">
			<line y2="532.6" x1="248.4" x2="273.6" y1="532.6"/>
			<line y2="545.2" x1="261" x2="261" y1="520"/>
	</g>
	<g stroke-miterlimit="10" stroke="#414042" stroke-width="2" stroke-linecap="round" fill="none">
			<line y2="510.7" x1="584.2" x2="609.5" y1="510.7"/>
			<line y2="523.3" x1="596.9" x2="596.9" y1="498.1"/>
	</g>
	<g stroke-miterlimit="10" stroke="#414042" stroke-width="2" stroke-linecap="round" fill="none">
			<line y2="556.1" x1="346.3" x2="364.2" y1="538.3"/>
			<line y2="556.1" x1="364.2" x2="346.3" y1="538.3"/>
	</g>
	<g stroke-miterlimit="10" stroke="#414042" stroke-width="2" stroke-linecap="round" fill="none">
			<line y2="579.5" x1="995.2" x2="1020.4" y1="579.5"/>
			<line y2="592.1" x1="1007.8" x2="1007.8" y1="566.9"/>
	</g>
	<g stroke-miterlimit="10" stroke="#414042" stroke-width="2" stroke-linecap="round" fill="none">
			<line y2="532.2" x1="419.6" x2="445.1" y1="532.2"/>
			<line y2="532.2" x1="451.4" x2="461.5" y1="532.2"/>
	</g>
	<g stroke-miterlimit="10" stroke="#414042" stroke-width="2" stroke-linecap="round" fill="none">
			<line y2="543.7" x1="87.9" x2="108.7" y1="543.7"/>
			<line y2="543.7" x1="113.8" x2="122" y1="543.7"/>
	</g>
		<circle r="9.4" stroke-linecap="round" cy="561.5" stroke="#414042" cx="663.3" stroke-miterlimit="10" stroke-width="2" fill="none"/>
		<circle r="6.6" stroke-linecap="round" cy="476.9" stroke="#414042" cx="691.4" stroke-miterlimit="10" stroke-width="2" fill="none"/>
		<circle r="9.4" stroke-linecap="round" cy="439.4" stroke="#414042" cx="511.7" stroke-miterlimit="10" stroke-width="2" fill="none"/>
		<circle r="6.9" stroke-linecap="round" cy="424.3" stroke="#414042" cx="246.8" stroke-miterlimit="10" stroke-width="2" fill="none"/>
	<g stroke-miterlimit="10" stroke="#2E3192" stroke-width="2" stroke-linecap="round" fill="none">
		<polyline points="472.6 382 463.3 372.7 438.5 372.7"/>
			<circle r="3.9" cy="372.6" cx="434.6"/>
	</g>
	<g stroke-miterlimit="10" stroke="#2E3192" stroke-width="2" stroke-linecap="round" fill="none">
		<polyline points="332.1 400.7 322.8 410 297.9 410"/>
			<circle r="3.9" cy="410.1" cx="294"/>
	</g>
	<g stroke-miterlimit="10" stroke="#2E3192" stroke-width="2" stroke-linecap="round" fill="none">
		<polyline points="856 386 865.4 395.3 890.2 395.3"/>
			<circle r="3.9" cy="395.4" cx="894.1"/>
	</g>
	<g stroke-miterlimit="10" stroke="#2E3192" stroke-width="2" stroke-linecap="round" fill="none">
		<polyline points="1028.9 381.9 1038.2 372.5 1063.1 372.5"/>
			<circle r="3.9" cy="372.4" cx="1067"/>
	</g>
	<g stroke-miterlimit="10" stroke="#2E3192" stroke-width="2" stroke-linecap="round" fill="none">
		<polyline points="168.8 486.6 159.5 495.9 159.5 520.7"/>
			<circle r="3.9" cy="524.6" cx="159.4"/>
	</g>
	<g stroke-miterlimit="10" stroke="#2E3192" stroke-width="2" stroke-linecap="round" fill="none">
		<polyline points="709.4 403.8 700.1 413.1 700.1 438"/>
			<circle r="3.9" cy="441.9" cx="700"/>
	</g>
	<g stroke-miterlimit="10" stroke="#2E3192" stroke-width="2" stroke-linecap="round" fill="none">
		<polyline points="1162.2 542.8 1152.9 552.1 1152.9 576.9"/>
			<circle r="3.9" cy="580.8" cx="1152.8"/>
	</g>
	<g stroke-miterlimit="10" stroke="#2E3192" stroke-width="2" stroke-linecap="round" fill="none">
		<polyline points="197.4 448.8 206.7 458.1 206.7 483"/>
			<circle r="3.9" cy="486.9" cx="206.8"/>
	</g>
	<g stroke-miterlimit="10" stroke="#2E3192" stroke-width="2" stroke-linecap="round" fill="none">
		<polyline points="710.3 453.1 719.6 462.5 719.6 487.3"/>
			<circle r="3.9" cy="491.2" cx="719.7"/>
	</g>
	<g stroke-miterlimit="10" stroke="#2E3192" stroke-width="2" stroke-linecap="round" fill="none">
		<polyline points="1162.4 419 1171.7 428.4 1171.7 453.2"/>
			<circle r="3.9" cy="457.1" cx="1171.8"/>
	</g>
	<g stroke-miterlimit="10" stroke="#2E3192" stroke-width="2" stroke-linecap="round" fill="none">
		<path d="m647.9 338.4l8.5 8.5c0.5 0.5 0.8 1.2 0.8 2v23.7"/>
		<path d="m657.9 372.6c-2.6-0.4-4.9 1.8-4.5 4.5 0.3 1.6 1.6 3 3.2 3.2 2.6 0.4 4.9-1.8 4.5-4.5-0.2-1.6-1.5-3-3.2-3.2z"/>
	</g>
	<g stroke-miterlimit="10" stroke="#2E3192" stroke-width="2" stroke-linecap="round" fill="none">
		<path d="m708.8 338.7l6.5 6.5c0.6 0.6 1 1.5 1 2.4v18.6"/>
		<path d="m717 366.3c-2.2-0.4-4.1 1.5-3.7 3.7 0.2 1.2 1.2 2.2 2.5 2.5 2.2 0.4 4.1-1.5 3.7-3.7-0.2-1.3-1.2-2.3-2.5-2.5z"/>
	</g>
	<path d="m648.2 338.4v27.7c0 0.9-0.5 1.8-1.2 2.3l-3.8 2.6h-130l-11.3 11.3h-86.5l-18.4 18.4h-178l-21.6 21.6v44.8l-28.1 13v79.1" stroke="#2E3192" stroke-linecap="round" stroke-miterlimit="10" stroke-width="2" fill="none"/>
	<path d="m653.6 338.9c0.7 3.9-2.6 7.2-6.5 6.5-2.2-0.4-3.9-2.2-4.3-4.3-0.7-3.9 2.6-7.2 6.5-6.5 2.1 0.4 3.9 2.2 4.3 4.3z" fill="#2E3192"/>
	<path d="m681.7 338.9c0.7 3.9-2.6 7.2-6.5 6.5-2.2-0.4-3.9-2.2-4.3-4.3-0.7-3.9 2.6-7.2 6.5-6.5 2.1 0.4 3.9 2.2 4.3 4.3z" fill="#2E3192"/>
	<path d="m713.8 338.9c0.7 3.9-2.6 7.2-6.5 6.5-2.2-0.4-3.9-2.2-4.3-4.3-0.7-3.9 2.6-7.2 6.5-6.5 2.2 0.4 3.9 2.2 4.3 4.3z" fill="#2E3192"/>
	<polyline fill="none" stroke="#2E3192" stroke-linecap="round" stroke-miterlimit="10" stroke-width="2" points="676.3 338.4 676.3 376.7 683 383.4 703 383.4 709.7 390 709.7 520.7 702.6 538.4 702.6 566.9"/>
	<circle r="4.5" cy="510.1" stroke="#2E3192" cx="709.8" stroke-miterlimit="10" stroke-width="2" fill="#fff"/>
	<circle r="4.5" cy="401.5" stroke="#2E3192" cx="381.9" stroke-miterlimit="10" stroke-width="2" fill="#fff"/>
		<g stroke="#231F20" stroke-miterlimit="10" fill="#FFC900">
			<path d="m305.4 632.5l10.6-10.7-10.2-9.6-7.6 7.5c0-0.1 0.4 10.6 7.2 12.8z"/>
			<polygon points="305 621.6 316 621.6 316 570.7 272.6 570.7 272.6 632.5 305 632.5"/>
			<line y2="581.8" x2="308.3" y1="581.8" x1="279.8"/>
			<line y2="586.3" x2="308.3" y1="586.3" x1="279.8"/>
			<line y2="590.8" x2="308.3" y1="590.8" x1="279.8"/>
			<line y2="595.3" x2="308.3" y1="595.3" x1="279.8"/>
			<line y2="599.8" x2="308.3" y1="599.8" x1="279.8"/>
			<line y2="604.3" x2="308.3" y1="604.3" x1="279.8"/>
			<line y2="608.8" x2="308.3" y1="608.8" x1="279.8"/>
			<line y2="613.3" x2="308.3" y1="613.3" x1="279.8"/>
			<line y2="617.7" x2="308.3" y1="617.7" x1="279.8"/>
		</g>
		<g stroke="#231F20" stroke-miterlimit="10" fill="#fff">
				<circle cx="268.2" cy="637.9" r="25.9"/>
				<rect height="6.9" width="40.8" y="634.5" x="201.5"/>
				<path d="m214.3 644.4h-44.7c-0.7 0-1.3-0.6-1.3-1.3v-10.3c0-0.7 0.6-1.3 1.3-1.3h44.7v12.9z"/>
			<path d="m289.3 639.5c0 10.6-8.6 19.3-19.3 19.3"/>
		</g>
		<g stroke="#231F20" stroke-miterlimit="10">
			<g fill="#fff">
				<path d="m353.2 702.7v-23c0-5-4.6-9.1-10.3-9.1h-28.3c-5.7 0-10.3 4.1-10.3 9.1v23h48.9z"/>
				<path d="m324.5 654.2s-5.1 4.2-8.6 5.5c0.4 7.7 5.9 13.9 12.8 13.9 7.1 0 12.8-6.6 12.8-14.7v-0.8c-6.3 0.2-17.5 0.1-17-3.9z"/>
				<path d="m341.5 658.1c-0.4-7.7-5.9-13.9-12.8-13.9-7.1 0-12.8 6.6-12.8 14.7v0.8c3.5-1.3 8.6-5.5 8.6-5.5-0.5 4 10.7 4.1 17 3.9z"/>
			</g>
			<g fill="#fff">
				<path d="m423.9 702.7v-23c0-5-4.6-9.1-10.3-9.1h-28.3c-5.7 0-10.3 4.1-10.3 9.1v23h48.9z"/>
				<path d="m395.2 654.2s-5.1 4.2-8.6 5.5c0.4 7.7 5.9 13.9 12.8 13.9 7.1 0 12.8-6.6 12.8-14.7v-0.8c-6.3 0.2-17.5 0.1-17-3.9z"/>
				<path d="m412.2 658.1c-0.4-7.7-5.9-13.9-12.8-13.9-7.1 0-12.8 6.6-12.8 14.7v0.8c3.5-1.3 8.6-5.5 8.6-5.5-0.5 4 10.7 4.1 17 3.9z"/>
			</g>
			<g fill="#75D4CE">
				<path d="m397.2 702.7v-11.7c0-7.7-6.2-13.9-13.9-13.9h-38.4c-7.7 0-13.9 6.2-13.9 13.9v11.7h66.2z"/>
				<path d="m358.4 652.2s-6.9 6.4-11.6 8.4c0.5 11.8 8.1 21.2 17.3 21.2 9.6 0 17.4-10 17.4-22.4v-1.3c-8.7 0.3-23.8 0.1-23.1-5.9z"/>
				<path d="m381.4 658.1c-0.5-11.8-8.1-21.2-17.3-21.2-9.6 0-17.4 10-17.4 22.4v1.3c4.7-2.1 11.6-8.4 11.6-8.4-0.6 6 14.5 6.2 23.1 5.9z"/>
			</g>
		</g>
		<g stroke="#231F20" stroke-miterlimit="10">
			<rect height="52.8" width="26.5" y="523.8" x="472.6" fill="#fff"/>
			<path d="m477.5 576.7l-8.5 18.3s13.8 11 16.9 24.8c0 0 8.8-18.1 16.1-23.9l-7.4-19.2h-17.1z" fill="#FFC900"/>
		</g>
			<g id="XMLID_1_">
					<path d="m1155.4 590.7c4.4 5.2-9.4 17.5-9.4 17.5l0.2-4.4s-4.4-7.5-19.7-7.1h-1.3c-2.4-3.6 0.8-6.5 0.8-6.5l-3.6-2.1c-2.9 2.6-5.7 0-5.7 0s-2.1 3.2-5.5 1.4l-2.9 2.9s3.6 2 2.4 5.9c-11.7 2.3-22.7 6.9-23.2 14.3v2.1h-1.4s-14.5-3.8-9.3-13.8c9.3-17.8 56.7-36.2 78.6-10.2z" fill="#75D4CE"/>
					<path d="m1149.1 617.4c29.7 14.6-39.2 9-55 7 24.2-8.9 54.3-7.3 54.3-7.3l0.7 0.2v0.1z" fill="#fff"/>
					<path d="m1148.8 611.9c1.5 1.7 0.6 4.7 0.4 5.4l-0.7-0.2s-30.1-1.6-54.3 7.3c-0.9-0.1-1.7-0.2-2.2-0.3-9.5-1.6-4.4-4.4-4.4-4.4 26.1-10.8 58.4-8.9 58.4-8.9 1.3 0 2.2 0.5 2.8 1.1z" fill="#FFC900"/>
					<path d="m1119 606.6c0-0.7 3.8-2.3 3.8-2.3 5.2-1.9 2.6-7.2 2.6-7.2-0.1-0.1-0.2-0.2-0.2-0.3h1.3c15.2-0.3 19.7 7.1 19.7 7.1l-0.2 4.4-0.1 2.6s-32.4-1.9-58.4 8.9v-7c0.5-7.5 11.5-12.1 23.2-14.3 0 0.2-0.1 0.4-0.2 0.6 0 0-1.3 5.9 4.3 6.4-0.1-0.2 4.1 0.4 4.2 1.1z" fill="#75D4CE"/>
					<path d="m1122.4 588.1l3.6 2.1s-3.1 3-0.8 6.5c-4.5 0.2-9.6 0.7-14.6 1.6 1.2-3.9-2.4-5.9-2.4-5.9l2.9-2.9c3.4 1.8 5.5-1.4 5.5-1.4s2.9 2.5 5.8 0z" fill="#FFC900"/>
					<path d="m1125.4 597s2.7 5.4-2.6 7.2c0 0-3.8 1.6-3.8 2.3-0.2-0.7-4.3-1.3-4.3-1.3-5.5-0.5-4.3-6.4-4.3-6.4 0.1-0.2 0.2-0.4 0.2-0.6 4.9-1 10-1.5 14.6-1.6 0.1 0.2 0.1 0.3 0.2 0.4z" fill="#FFC900"/>
				<g stroke="#414042" stroke-miterlimit="10" fill="none">
					<path stroke-linecap="round" d="m1110.6 598.3c-11.7 2.3-22.7 6.9-23.2 14.3v7s-5.1 2.9 4.4 4.4c0.5 0.1 1.3 0.2 2.2 0.3 15.8 2 84.6 7.6 55-7v-0.1c0.2-0.7 1.2-3.7-0.4-5.4-0.6-0.6-1.5-1.1-2.9-1.2l0.1-2.6 0.2-4.4s-4.4-7.5-19.7-7.1h-1.3"/>
					<path stroke-linecap="round" d="m1086.1 614.7s-14.5-3.8-9.3-13.8c9.3-17.8 56.7-36.2 78.6-10.2 4.4 5.2-9.4 17.5-9.4 17.5"/>
					<path stroke-linecap="round" d="m1145.9 610.8s-32.4-1.9-58.4 8.9"/>
					<path stroke-linecap="round" d="m1149 611.9h-0.2c-3-0.2-33.5-1.3-58.2 8.9"/>
					<path stroke-linecap="round" d="m1148.4 617.1s-30.1-1.6-54.3 7.3h-0.1"/>
					<path stroke-width=".5" d="m1119 606.6c0-0.7 3.8-2.3 3.8-2.3 5.2-1.9 2.6-7.2 2.6-7.2-0.1-0.1-0.2-0.2-0.2-0.3-2.4-3.6 0.8-6.5 0.8-6.5l-3.6-2.1c-2.9 2.6-5.7 0-5.7 0s-2.1 3.2-5.5 1.4l-2.9 2.9s3.6 2 2.4 5.9c0 0.2-0.1 0.4-0.2 0.6 0 0-1.3 5.9 4.3 6.4-0.1-0.1 4.1 0.5 4.2 1.2"/>
				</g>
			</g>
			<path d="m1188.4 630.6c-0.1 2.4-0.3 4.9-0.4 7.4h-1.9c-0.9-4 0-6.7 2.3-7.4z" fill="#fff"/>
				<path d="m1201.3 664h-25.3c-0.7 0-1.5 0-2.2-0.2-2.1-0.4-3-2-2.2-4 1.7-4.1 3.2-8.2 5.2-12.2 1.4-2.9 3.9-4.7 7.3-4.7h35.9c3.6 0 5.9 2 7.3 5.1 1.6 3.7 3 7.5 4.4 11.3 0.8 2.2-0.4 4.2-2.8 4.4-2.3 0.2-4.6 0.1-6.9 0.1-7 0.2-13.8 0.2-20.7 0.2z" fill="#fff"/>
				<path d="m1251.6 664h-7.6c-3.8 0-6.6-1.6-8-5.3-1.5-3.7-3-7.4-4.5-11.1-1-2.4 0.3-4.5 2.9-4.5 5.5-0.1 10.9-0.2 16.4 0 2.4 0.1 4.6 1.5 5.8 3.6 2.4 4.4 4.6 9 6.7 13.5 0.9 2-0.6 3.7-3.1 3.8h-8.6z" fill="#fff"/>
					<path d="m1240 715c-8.5 0-15.1-6.6-15.1-15.1s6.6-15.1 15.1-15.1c8.2 0 15 6.8 15.1 15 0.1 8.3-6.8 15.2-15.1 15.2zm7.5-15.1c0-4.2-3.3-7.5-7.4-7.6-4.3 0-7.6 3.3-7.6 7.5 0 4.1 3.3 7.5 7.5 7.6 4 0.2 7.5-3.2 7.5-7.5z" fill="#58595B"/>
					<path d="m1247.5 699.9c0 4.2-3.4 7.6-7.6 7.6-4.2-0.1-7.5-3.4-7.5-7.6s3.4-7.6 7.6-7.5c4.2 0 7.5 3.3 7.5 7.5zm-7.5 5.3c2.8 0 5.2-2.4 5.3-5.1 0.1-2.8-2.4-5.3-5.2-5.4-2.9 0-5.3 2.3-5.3 5.3-0.1 2.9 2.1 5.2 5.2 5.2z" fill="#fff"/>
					<path d="m1240 705.2c-3 0-5.3-2.2-5.2-5.3 0-2.9 2.4-5.3 5.3-5.3 2.8 0 5.3 2.6 5.2 5.4s-2.6 5.2-5.3 5.2z" fill="#58595B"/>
					<path d="m1147.3 715c-8.5 0-15.1-6.6-15.1-15.1s6.6-15.1 15.1-15.1c8.2 0 15 6.8 15.1 15 0 8.3-6.8 15.2-15.1 15.2zm7.4-15.1c0-4.2-3.3-7.5-7.4-7.6-4.3 0-7.6 3.3-7.6 7.5 0 4.1 3.3 7.5 7.5 7.6 4.1 0.2 7.5-3.2 7.5-7.5z" fill="#58595B"/>
					<path d="m1154.7 699.9c0 4.2-3.4 7.6-7.6 7.6-4.2-0.1-7.5-3.4-7.5-7.6s3.4-7.6 7.6-7.5c4.2 0 7.5 3.3 7.5 7.5zm-7.5 5.3c2.8 0 5.2-2.4 5.3-5.1 0.1-2.8-2.4-5.3-5.2-5.4-2.9 0-5.3 2.3-5.3 5.3 0 2.9 2.2 5.2 5.2 5.2z" fill="#fff"/>
					<path d="m1147.2 705.2c-3 0-5.3-2.2-5.2-5.3 0-2.9 2.4-5.3 5.3-5.3 2.8 0 5.3 2.6 5.2 5.4 0 2.8-2.5 5.2-5.3 5.2z" fill="#58595B"/>
				<path d="m1278.1 676.9c-1-0.1-2-0.1-3-0.2-0.2-1.5-0.1-3-0.6-4.3-1.3-3.1-2.8-6-4.3-9-3.8-7.9-7.5-15.7-11.3-23.5-0.3-0.6-1-1.3-1.6-1.4-3.4-0.2-6.9-0.2-10.3-0.2h-51.2c-0.6 0-1.2-0.1-2-0.1v-4.9c0-3-1.6-4.4-4.7-4.4s-4.7 1.4-4.7 4.4v4.9c-0.8 0-1.4 0.1-2 0.1h-11.2c-0.6 0-1.3 0-1.6 0.3-1.4 1.2-2.7 2.5-4 3.8l-15.2 22.8c-4.1 0.4-8.3 0.8-12.4 1.3-4.3 0.5-8.6 0.9-12.7 2-4.8 1.2-9.1 3.8-11.5 8.4-4.1 7.9-3.7 16-0.9 24.2 0.2 0.6 1.5 1.2 2.3 1.2 2.9 0.1 5.7 0 8.6 0h5.4c-0.2-12.3 8.5-18.8 16.6-19.6 4.3-0.4 8.4 0.6 11.9 3.2 5.6 4 8.2 9.5 7.9 16.3h56.7c0.1-12.5 8.8-18.9 16.9-19.5 4.3-0.3 8.3 0.6 11.7 3.1 5.6 4 8.2 9.5 7.8 16.8 3.3-0.8 6.4-1.2 9.3-2.2 1.4-0.5 3-1.7 3.7-3.1 2-3.6 4.2-7.3 3.4-11.8l3-0.3v-8.3zm-89.7-46.3c-0.1 2.4-0.3 4.9-0.4 7.4h-1.9c-0.9-4 0-6.7 2.3-7.4zm-36.8 34.5l15.4-22.2h6.7c-0.2 0.5-0.2 0.8-0.3 1-3.2 6.5-6.5 12.9-9.8 19.3-0.2 0.4-0.8 0.8-1.3 0.8-3.5 0.4-7.1 0.7-10.7 1.1zm77.1-1.2c-2.3 0.2-4.6 0.1-6.9 0.1h-20.5-25.3c-0.7 0-1.5 0-2.2-0.2-2.1-0.4-3-2-2.2-4 1.7-4.1 3.2-8.2 5.2-12.2 1.4-2.9 3.9-4.7 7.3-4.7h35.9c3.6 0 5.9 2 7.3 5.1 1.6 3.7 3 7.5 4.4 11.3 0.7 2.4-0.5 4.4-3 4.6zm31.5 0.1c-2.9 0.1-5.7 0-8.6 0h-7.6c-3.8 0-6.6-1.6-8-5.3-1.5-3.7-3-7.4-4.5-11.1-1-2.4 0.3-4.5 2.9-4.5 5.5-0.1 10.9-0.2 16.4 0 2.4 0.1 4.6 1.5 5.8 3.6 2.4 4.4 4.6 9 6.7 13.5 0.9 1.9-0.6 3.7-3.1 3.8z" fill="#75D4CE"/>
				<path d="m1168.1 695.9h52.4c1.3-5.4 4.9-9.9 9.7-12.4v-14.5h-72.2v14.3c5 2.5 8.7 7.1 10.1 12.6z" fill="#fff"/>
				<text font-size="17.25" font-family="&apos;MyriadPro-Regular&apos;" transform="translate(1168.2 687.27)">POLICE</text>
		<g stroke="#231F20" stroke-miterlimit="10">
			<g fill="#75D4CE">
				<path d="m609.4 637.4v-11.2c0-7.4-6-13.4-13.4-13.4h-37c-7.4 0-13.4 6-13.4 13.4v11.2h63.8z"/>
				<path d="m572 588.7s-6.6 6.1-11.2 8.1c0.5 11.4 7.8 20.4 16.7 20.4 9.2 0 16.7-9.7 16.7-21.6v-1.2c-8.3 0.3-22.8 0.1-22.2-5.7z"/>
				<path d="m594.2 594.4c-0.5-11.4-7.8-20.4-16.7-20.4-9.2 0-16.7 9.7-16.7 21.6v1.2c4.6-2 11.2-8.1 11.2-8.1-0.6 5.8 13.9 6 22.2 5.7z"/>
			</g>
			<g fill="#FFC900">
				<rect height="17.7" width="107" y="636.1" x="524"/>
				<circle cx="531.9" cy="630.9" r="7.9"/>
				<circle cx="623.1" cy="630.9" r="7.9"/>
				<rect height="50.4" width="6.7" y="653.9" x="524"/>
				<rect height="50.4" width="6.7" y="653.9" x="574.2"/>
				<rect height="50.4" width="6.7" y="653.9" x="624.3"/>
				<rect height="50.4" width="6.7" y="653.9" x="597.7"/>
				<rect height="50.4" width="6.7" y="653.9" x="548.4"/>
			</g>
		</g>
		<g stroke="#231F20" stroke-miterlimit="10" fill="#75D4CE">
			<path d="m1060.7 697.5v-12.6c0-8.3-6.7-15.1-15.1-15.1h-41.6c-8.3 0-15.1 6.7-15.1 15.1v12.6h71.8z"/>
			<path d="m1018.6 642.6s-7.4 6.9-12.6 9.1c0.6 12.8 8.7 23 18.8 23 10.4 0 18.8-10.9 18.8-24.3 0-0.5 0-0.9-0.1-1.4-9.2 0.4-25.6 0.2-24.9-6.4z"/>
			<path d="m1043.6 649c-0.5-12.8-8.7-23-18.8-23-10.4 0-18.8 10.9-18.8 24.3 0 0.5 0 0.9 0.1 1.4 5.1-2.2 12.6-9.1 12.6-9.1-0.8 6.6 15.6 6.8 24.9 6.4z"/>
		</g>
		<g stroke="#231F20" stroke-miterlimit="10">
			<path d="m931.2 536.6h-7.3c-2.2 0-4-1.8-4-4v-1.1c0-2.2 1.8-4 4-4h7.3c2.2 0 4 1.8 4 4v1.1c0 2.2-1.8 4-4 4z" fill="#FFC900"/>
			<rect height="101.3" width="75.6" y="539.5" x="889.8" fill="#75D4CE"/>
			<rect height="14.8" width="24.9" y="532.1" x="915.1" fill="#FFC900"/>
			<line y2="556" x2="959.1" y1="556" x1="896" fill="#FFC900"/>
			<line y2="564.1" x2="959.1" y1="564.1" x1="896" fill="#FFC900"/>
			<line y2="572.2" x2="959.1" y1="572.2" x1="896" fill="#FFC900"/>
			<line y2="580.3" x2="959.1" y1="580.3" x1="896" fill="#FFC900"/>
			<line y2="588.4" x2="959.1" y1="588.4" x1="896" fill="#FFC900"/>
			<line y2="596.5" x2="959.1" y1="596.5" x1="896" fill="#FFC900"/>
			<line y2="604.7" x2="959.1" y1="604.7" x1="896" fill="#FFC900"/>
			<line y2="612.8" x2="959.1" y1="612.8" x1="896" fill="#FFC900"/>
			<line y2="620.9" x2="959.1" y1="620.9" x1="896" fill="#FFC900"/>
			<line y2="629" x2="959.1" y1="629" x1="896" fill="#FFC900"/>
		</g>
			<path d="m397.2 603.6h-3.4c-0.6 8.5-7.6 14.5-15.2 14.7-4.2 0.1-7.9-1.3-11-4.1s-4.8-6.4-5.1-10.7h-4.8c-1.7 0-2.4-0.9-2-2.5 2.3-9.7 4.6-19.4 6.8-29.1 0.9-3.7 3-6.1 6.7-7 1-0.2 2.1-0.2 3.1-0.1s1.6 0.9 1.5 1.9c-0.1 0.9-0.8 1.5-1.8 1.5-0.8 0-1.7 0-2.5 0.2-1.9 0.5-3.1 1.8-3.5 3.7-2.2 9.1-4.3 18.3-6.4 27.4 0 0.2-0.1 0.4-0.1 0.6h3.2c0.8-4.2 2.9-7.6 6.4-10.1 2.8-2 5.9-2.9 9.4-2.9 6.8 0.1 13.7 5 15.2 13h3.8c0.9-4.5 3.2-8 7.1-10.5 3-1.9 6.2-2.7 9.7-2.4 6.6 0.6 12.6 5.3 14.1 13h1.6 1.6c-0.5-2-0.9-4-1.4-6-1.7-7.3-3.4-14.5-5.1-21.8-0.6-2.7-2.9-4.4-5.7-4.2h-0.9c-0.8-0.2-1.3-0.9-1.3-1.7 0-0.9 0.6-1.5 1.5-1.7 4.3-0.8 8.7 2.2 9.7 6.6 2.3 9.9 4.6 19.7 6.9 29.6 0.4 1.7-0.3 2.6-2.1 2.6h-4.7c-0.5 5.4-3 9.7-7.7 12.5-3.1 1.9-6.5 2.6-10.2 2.1-6.7-0.9-12.8-6.4-13.4-14.6zm-19.2 11.3c6.6 0.1 12.2-5.3 12.2-11.9 0.1-6.7-5.3-12.3-12-12.4-6.8-0.1-12.3 5.3-12.3 12.1-0.1 6.6 5.4 12.1 12.1 12.2zm34.8 0c6.6 0.1 12.1-5.3 12.2-11.9 0.1-6.8-5.3-12.3-12-12.4s-12.3 5.4-12.3 12c-0.1 6.8 5.3 12.2 12.1 12.3z" fill="#58595B"/>
			<path d="m378 614.9c-6.7-0.1-12.1-5.5-12.1-12.2 0.1-6.9 5.5-12.2 12.3-12.1 6.6 0.1 12 5.6 12 12.4-0.1 6.6-5.6 11.9-12.2 11.9z" fill="#fff"/>
			<path d="m412.8 614.9c-6.8-0.1-12.2-5.5-12.1-12.3 0-6.7 5.6-12.1 12.3-12s12.1 5.6 12 12.4c-0.1 6.5-5.6 11.9-12.2 11.9z" fill="#fff"/>
		<g stroke="#231F20" stroke-miterlimit="10">
			<path d="m706.9 664.4c2.4-7.5 4.7-14.9 7.1-22.4 0.4-1.2 0.8-2.5 1.3-3.9 2.9 1 5.7 1.9 8.5 2.8-2.1 8.7-4.1 17.3-6.2 26.1-3.4-0.5-7-1.1-10.7-1.6v-1z" fill="#FFC900"/>
			<path d="m741.5 680.1c0.3-4.9-0.7-5.8-6.3-5.5-2-4.2-4.9-4.9-7.6-1.6-2.4-1.8-4.9-3.5-7.2-5.4-0.4-0.4-0.9-1.2-0.7-1.7 1.7-7.6 3.4-15.1 5.1-22.7 0.1-0.3 0.3-0.5 0.5-0.9 2.3 0.4 4.5 0.8 7.1 1.3-1.3 1.3-2.6 2.6-3.9 3.8-0.9 0.9-2.1 1.8-1.1 3.1 0.8 0.9 2.3 2.1 3.3 1.9 2.3-0.4 4.4-1.5 6.6-2.2 1.2-0.8 4.1-2.2 4.3-2.4 5.1-3.1 9.4-1.6 13.8 1.7 5.8 4.4 12.2 8.1 18.2 12.3 1.9 1.4 3.6 3.2 5.1 5.1 0.8 1 1.4 2.5 1.2 3.6-0.3 1.6-1.2 3.4-2.5 4.4-0.8 0.6-2.9 0.2-4.1-0.5-2.2-1.2-4.3-2.8-6.6-4 1 1.3 2.1 2.5 2.9 3.9 1.7 3 0.3 7-2.7 7.5-1.2 0.2-2.8-0.2-3.8-0.8-1.7-1.1-3.1-2.6-5-3.6 1 1.1 2.1 2.2 3.1 3.4s3 2.2 1.5 4.3c-1.1 1.4-4.2 1.5-6 0.2-1.7-1.3-3.3-2.6-5-3.8-0.6-0.4-1.3-0.7-2.1-0.7 2.1 1.7 4.1 3.4 6.2 5-1.3 2.3-3.9 3-6 1.6-1.7-1-6.9-5.6-8.3-7.3z" fill="#FFC900"/>
			<path d="m740.7 647.8c-1.2 0.8-2.4 1.5-3.6 2.3-1.3 0.4-2.5 0.8-3.8 1-1.1 0.2-2.3 0.3-3.4 0.1-2.2-0.4-2.6-2-1-3.5 2.8-2.7 5.7-5.3 8.6-7.8 0.5-0.4 1.2-0.8 1.8-1 12.1-4.6 12.1-4.6 24.8-2.2 2.8 0.5 5.6 1.2 8.5 1.5 1.4 0.2 3 0.2 4.3-0.3 1.5-0.5 2.4-0.1 3.3 0.8 0.5 0.6 1.1 1.1 1.5 1.7 4.2 5.9 6.7 12.5 9.1 18.8-3.6 2.9-7 5.6-10.4 8.3-2.3-3.7-5.6-6.4-9.3-8.8-6.5-4.2-13-8.6-19.4-13-1.5-1.1-3-1.6-4.8-0.8-1.9 1-4 2-6.2 2.9z" fill="#75D4CE"/>
			<path d="m800.6 658.5c-3 0.9-5.4 1.6-7.8 2.4-3.6-8.5-5.4-18-13.4-24.3 2.4-1.1 4.6-2.2 6.9-3.1 0.5-0.2 1.5 0.3 1.9 0.8 1.3 1.6 2.7 3.3 3.6 5.1 3 6.2 5.8 12.5 8.8 19.1z" fill="#75D4CE"/>
			<path d="m734.5 677c0.8-1.9 2.3-1.9 3.9-1.2 1.7 0.7 2.4 2.1 2 4-0.2 0.8-0.7 1.6-1 2.4-0.7 1.9-1.9 3-3.9 2.4-1.8-0.5-2.7-1.9-2.5-3.9 0.1-0.8 1.2-3.1 1.5-3.7z" fill="#75D4CE"/>
			<path d="m733.2 678.7c-0.2 0.2-0.4 0.3-0.5 0.5-1.3 2.2-2.8 2.9-4.4 2-1.8-1-2.6-3.3-1.4-5.2 0.9-1.5 1.1-4 3.9-3.5 2.5 0.5 3.6 2.4 2.7 4.8-0.2 0.4-0.2 0.9-0.3 1.4-0.1 0 0 0 0 0z" fill="#75D4CE"/>
			<path d="m748 687.3c-3 2-5.3 1.8-7.9-0.6-1.1-1-1.5-2-0.5-3.2s2.3-1.6 3.7-0.8c0.6 0.3 3.6 3.4 4.7 4.6z" fill="#75D4CE"/>
			<path d="m727 673.9c-1.3 2.4-2.7 3-4.7 2.2-2.2-0.9-2.6-2.6-1.4-6.7 2.1 1.6 4.1 3 6.1 4.5z" fill="#75D4CE"/>
		</g>
		<g stroke-miterlimit="10" stroke="#414042" stroke-width="2" stroke-linecap="round" fill="none">
				<line y2="618.8" x1="108.5" x2="133.7" y1="618.8"/>
				<line y2="631.4" x1="121.1" x2="121.1" y1="606.2"/>
		</g>
		<g stroke-miterlimit="10" stroke="#414042" stroke-width="2" stroke-linecap="round" fill="none">
				<line y2="656.5" x1="659.9" x2="677.7" y1="638.7"/>
				<line y2="656.5" x1="677.7" x2="659.9" y1="638.7"/>
		</g>
		<g stroke-miterlimit="10" stroke="#414042" stroke-width="2" stroke-linecap="round" fill="none">
				<line y2="661.4" x1="440.5" x2="466" y1="661.4"/>
				<line y2="661.4" x1="472.4" x2="482.5" y1="661.4"/>
		</g>
		<g stroke-miterlimit="10" stroke="#414042" stroke-width="2" stroke-linecap="round" fill="none">
				<line y2="690.7" x1="781.9" x2="807.5" y1="690.7"/>
				<line y2="690.7" x1="813.8" x2="823.9" y1="690.7"/>
		</g>
		<g stroke-miterlimit="10" stroke="#414042" stroke-width="2" stroke-linecap="round" fill="none">
				<line y2="681.8" x1="132.7" x2="158.2" y1="681.8"/>
				<line y2="681.8" x1="164.6" x2="174.7" y1="681.8"/>
		</g>
			<circle r="9.4" stroke-linecap="round" cy="671.9" stroke="#414042" cx="871.9" stroke-miterlimit="10" stroke-width="2" fill="none"/>
			<path d="m177.2 545.6c2.2 3.9 5.3 7 8.3 10.5 0.4-1.8 0.9-3.3 1.2-4.9 0.1-0.2-0.2-0.6-0.3-0.8-0.3-0.8-0.6-1.7-1-2.6h5.7c-0.4 1-0.7 1.8-1 2.7-0.1 0.3-0.3 0.7-0.3 1.1 0.3 1.5 0.7 2.9 1.2 4.7 3-3.5 6.1-6.6 8.4-10.6 2.7 0.3 5.5 0.5 8.3 1.1 3.6 0.7 5.9 3.1 7.6 6.2 0.9 1.6 1.5 3.4 2.2 5.1 0.2 0.6 0.5 0.9 1.2 0.9 1.9 0 3.7 0.1 5.6 0 2.3-0.1 4.5 2 3.9 4.9-2.6 11.5-5 23.1-7.4 34.7 0 0.2-0.1 0.4-0.1 0.5-0.3 2.4-1.7 3.6-4.1 3.6h-25-30.3-1.7c-1.8-0.1-3.1-1.4-3.5-3.1-1.8-8.8-3.7-17.5-5.5-26.3-0.7-3.3-1.4-6.5-2.1-9.8-0.5-2.5 1.1-4.5 3.7-4.6 1.8 0 3.6-0.1 5.5 0 0.9 0 1.3-0.3 1.6-1.2 0.6-1.8 1.4-3.5 2.3-5.2 2.1-3.8 5.3-5.9 9.6-6.3 1.9-0.3 3.9-0.4 6-0.6zm11 13.7h-34.8c-0.6 0-1.3 0-1.9 0.1-2 0.4-3.2 2.3-2.7 4.3 1 4.7 2.1 9.4 3.1 14.1 1.5 6.7 3 13.5 4.4 20.2 0.6 2.8 1.7 3.8 4.6 3.8h54.7c3 0 4.2-0.9 4.7-3.9 0.1-0.3 0.1-0.7 0.2-1 2.4-11.1 4.9-22.2 7.3-33.3 0.1-0.5 0.1-1 0-1.4-0.4-1.9-1.9-3-4.2-3-11.8 0.1-23.6 0.1-35.4 0.1z"/>
			<path d="m202.9 522.2c0.3 0.8 0.5 1.7 0.9 2.5 1 2.1 0 6.7-1.7 8.2-0.3 0.3-0.6 0.7-0.7 1.1-1.4 3.3-3.2 6.3-5.9 8.7-4.9 4.4-10.4 4.3-15.2-0.3-2.5-2.3-4.2-5.2-5.5-8.2-0.2-0.5-0.6-0.9-1-1.3-1.4-1.3-1.8-3.1-1.9-4.8-0.1-1.5-0.3-3.1 1.1-4.2 0.2-0.2 0.1-0.6 0.2-1 0.3-1.7 0.4-3.5 0.8-5.2 1.2-5.4 5.6-9.1 11.4-9.9 2.7-0.3 5.3-0.3 7.9 0.4 5.5 1.5 9 5.4 9.7 11 0.1 1 0.2 1.9 0.3 2.9-0.2 0-0.3 0-0.4 0.1zm-5.4-0.4c-0.8-0.4-1.4-0.8-2.1-1-1.3-0.6-2.7-0.8-4.1-0.4-2.6 0.7-5.2 0.7-7.8-0.1-3.6-1.1-6.2 0.9-7.2 3.9-0.2 0.7-0.1 1.7-1.3 1.8-0.1 0-0.3 0.4-0.4 0.6-0.2 1.5-0.3 3 0.5 4.3 0.2 0.4 0.5 0.9 0.8 1 0.8 0.1 0.9 0.6 1.2 1.2 1.2 3 2.8 5.6 5.3 7.7 3.6 3 7.6 3 11.1 0 2.3-1.9 3.8-4.3 5-7 0.4-0.8 0.4-1.9 1.6-2.1 0.2 0 0.4-0.4 0.5-0.6 0.8-1.3 1-2.7 0.8-4.2-0.1-0.4-0.4-1.1-0.7-1.2-0.8 0-0.8-0.6-1.1-1.2-0.5-1.2-1-2.3-1.6-3.4-0.2-0.4-0.6-0.7-1-1.1-0.1 0-0.1 0.1-0.2 0.1 0.4 0.7 0.5 1.1 0.7 1.7z"/>
			<path d="m188.2 603.5h31.1 0.8c1.1 0 1.8 0.6 1.8 1.6s-0.7 1.7-1.8 1.7h-14.9-47.9-0.9c-1.1-0.1-1.7-0.7-1.7-1.7 0-0.9 0.7-1.6 1.8-1.6h12.5c6.3-0.1 12.8-0.1 19.2 0v0z"/>
			<path stroke="#231F20" stroke-miterlimit="10" d="m188.2 559.3h35.3c2.3 0 3.8 1 4.2 3 0.1 0.4 0.1 1 0 1.4-2.4 11.1-4.9 22.2-7.3 33.3-0.1 0.3-0.1 0.7-0.2 1-0.5 2.9-1.7 3.9-4.7 3.9h-54.7c-2.9 0-4-1-4.6-3.8-1.4-6.7-2.9-13.5-4.4-20.2-1-4.7-2.1-9.4-3.1-14.1-0.4-1.9 0.8-3.9 2.7-4.3 0.6-0.1 1.3-0.1 1.9-0.1 11.7-0.1 23.3-0.1 34.9-0.1zm2.1 21.6c0-1.1-0.9-2.1-2-2.1s-2 0.9-2 2.1c0 1.1 0.9 2 2 2 1 0.1 2-0.8 2-2z" fill="#75D4CE"/>
			<path stroke="#231F20" stroke-miterlimit="10" d="m197.5 521.8c-0.2-0.6-0.3-1-0.4-1.4 0.1 0 0.1-0.1 0.2-0.1 0.3 0.4 0.8 0.7 1 1.1 0.6 1.1 1.1 2.3 1.6 3.4 0.2 0.5 0.2 1.1 1.1 1.2 0.2 0 0.6 0.7 0.7 1.2 0.2 1.5 0 2.9-0.8 4.2-0.1 0.2-0.3 0.5-0.5 0.6-1.2 0.2-1.3 1.2-1.6 2.1-1.2 2.7-2.7 5.1-5 7-3.6 3-7.6 2.9-11.1 0-2.5-2.1-4.1-4.7-5.3-7.7-0.2-0.6-0.3-1.2-1.2-1.2-0.3 0-0.6-0.6-0.8-1-0.8-1.4-0.7-2.8-0.5-4.3 0-0.2 0.2-0.6 0.4-0.6 1.1-0.1 1-1.1 1.3-1.8 1-3 3.6-5 7.2-3.9 2.6 0.8 5.2 0.8 7.8 0.1 1.4-0.4 2.8-0.2 4.1 0.4 0.3 0 0.9 0.3 1.8 0.7z" fill="#75D4CE"/>
			<path d="m190.3 580.9c0 1.1-1 2-2.1 2s-2-0.9-2-2c0-1.2 0.9-2.1 2-2.1 1.2 0.1 2.1 1 2.1 2.1z"/>
		<g stroke="#231F20" stroke-miterlimit="10">
			<path d="m775.8 574v18.7s-25.7-0.5-34.8 16.3c0 0-16.1-19.4-31.6-15.3v-19.9l66.4 0.2z" fill="#fff"/>
			<polygon points="692.4 569.4 742.7 554.6 794.4 569.4 743.4 581.9" fill="#75D4CE"/>
			<path d="m798.9 606.3l-2.8-6.3c0.8-0.4 1.4-1.3 1.4-2.3 0-1.3-1-2.4-2.3-2.6v-25.6h-0.8v25.6c-1.3 0.2-2.2 1.3-2.2 2.6 0 1.1 0.6 2 1.5 2.4l-2.2 6.3h7.4z" fill="#75D4CE"/>
		</g>
		<polyline fill="none" stroke="#2E3192" stroke-linecap="round" stroke-miterlimit="10" stroke-width="2" points="708.4 338.4 708.4 379.4 713.2 386.7 935.2 386.7 944.1 382 1152.5 382 1162.4 394.2 1162.4 564.7 1201.5 588.1 1201.5 637.4"/>
	<text font-size="18.406" font-family="&apos;MyriadPro-Regular&apos;" transform="translate(131.26 437.83)" fill="#FFFFFF"><tspan y="0" x="0">ERP</tspan><tspan y="22.1" x="-13.5">System</tspan></text>
	<text font-size="18.406" font-family="&apos;MyriadPro-Regular&apos;" transform="translate(542.04 565.08)" fill="#FFFFFF">DR Service</text>
	<text font-size="18.406" font-family="&apos;MyriadPro-Regular&apos;" transform="translate(906.15 499.62)" fill="#FFFFFF">Archive System</text>
	<circle r="4.5" cy="382.2" stroke="#2E3192" cx="964" stroke-miterlimit="10" stroke-width="2" fill="#fff"/>
</svg>
