<?xml version="1.0" encoding="UTF-8" standalone="no"?>
<!-- Generator: Adobe Illustrator 18.0.0, SVG Export Plug-In . SVG Version: 6.00 Build 0)  -->
<!DOCTYPE svg  PUBLIC '-//W3C//DTD SVG 1.1//EN'  'http://www.w3.org/Graphics/SVG/1.1/DTD/svg11.dtd'>
<svg id="Layer_1" xmlns="http://www.w3.org/2000/svg" xml:space="preserve" viewBox="0 0 1366 715" version="1.1" y="0px" x="0px" xmlns:xlink="http://www.w3.org/1999/xlink" enable-background="new 0 0 1366 715">
	<linearGradient id="SVGID_1_" y2="12.384" gradientUnits="userSpaceOnUse" x2="683" y1="719.9" x1="683">
		<stop stop-color="#CDDC39" offset="0"/>
		<stop stop-color="#DCE775" offset="1"/>
	</linearGradient>
	<rect width="1366" height="715" fill="url(#SVGID_1_)"/>
						<path d="m767.9 378.9c12.5 0 22.6-10.1 22.6-22.6s-10.1-22.6-22.6-22.6c-0.7 0-1.5 0-2.2 0.1 2.4-4.2 3.8-9 3.8-14.2 0-15.6-12.7-28.3-28.3-28.3-7.1 0-13.5 2.6-18.5 6.9-4.8-26.8-28.2-47.1-56.3-47.1-31.6 0-57.2 25.6-57.2 57.2 0 3.1 0.2 6 0.7 9-1.2-0.1-2.3-0.2-3.5-0.2-17 0-30.9 13.8-30.9 30.9 0 15.8 11.9 28.9 27.3 30.6l165.1 0.3z" fill="#fff"/>
		<defs>
			<rect id="SVGID_2_" y="46" x="-.7" height="669" width="1366"/>
		</defs>
		<clipPath id="SVGID_3_">
			<use overflow="visible" xlink:href="#SVGID_2_"/>
		</clipPath>
		<g clip-path="url(#SVGID_3_)">
			<rect y="631.6" x="1006.4" height="47.1" width="591.3" fill="#69D2E7"/>
		</g>
		<g clip-path="url(#SVGID_3_)">
			<rect height="36.9" width="1823.2" stroke="#231F20" stroke-miterlimit="10" y="678.7" x="-225.6" fill="#B3B3B3"/>
			<rect y="694.5" x="-195" height="5.3" width="66.6" fill="#fff"/>
			<rect y="694.5" x="-34.9" height="5.3" width="66.6" fill="#fff"/>
			<rect y="694.5" x="125.2" height="5.3" width="66.6" fill="#fff"/>
			<rect y="694.5" x="285.2" height="5.3" width="66.6" fill="#fff"/>
			<rect y="694.5" x="445.3" height="5.3" width="66.6" fill="#fff"/>
			<rect y="694.5" x="605.4" height="5.3" width="66.6" fill="#fff"/>
			<rect y="694.5" x="765.5" height="5.3" width="66.6" fill="#fff"/>
			<rect y="694.5" x="925.5" height="5.3" width="66.6" fill="#fff"/>
			<rect y="694.5" x="1085.6" height="5.3" width="66.6" fill="#fff"/>
			<rect y="694.5" x="1245.7" height="5.3" width="66.6" fill="#fff"/>
			<rect y="694.5" x="1405.8" height="5.3" width="66.6" fill="#fff"/>
			<rect y="694.5" x="1565.9" height="5.3" width="31" fill="#fff"/>
		</g>
		<circle cx="629.6" cy="340" fill="#2E3192" r="5.5" clip-path="url(#SVGID_3_)"/>
		<g clip-path="url(#SVGID_3_)">
			<g stroke="#27AAE1" stroke-linecap="round" stroke-miterlimit="10" fill="none">
				<path d="m1217.7 636.6s5.8-2 9.3 0 11.7 2.8 14 0"/>
				<path d="m1018.4 661.1s5.8-2 9.3 0 11.7 2.8 14 0"/>
				<path d="m1020.8 648.3s5.8-2 9.3 0 11.7 2.8 14 0"/>
				<path d="m1019 638.5s5.8-2 9.3 0 11.7 2.8 14 0"/>
				<path d="m1059.8 664.7s5.8-2 9.3 0 11.7 2.8 14 0"/>
				<path d="m1067.7 652.6s5.8-2 9.3 0 11.7 2.8 14 0"/>
				<path d="m1056.1 641.9s5.8-2 9.3 0 11.7 2.8 14 0"/>
				<path d="m1091.4 672.5s5.8-2 9.3 0 11.7 2.8 14 0"/>
				<path d="m1101.6 666.1s5.8-2 9.3 0 11.7 2.8 14 0"/>
				<path d="m1089.9 655.5s5.8-2 9.3 0 11.7 2.8 14 0"/>
				<path d="m1019 673.2s5.8-2 9.3 0 11.7 2.8 14 0"/>
				<path d="m1048.1 671.1s5.8-2 9.3 0 11.7 2.8 14 0"/>
				<path d="m1036.5 656.2s5.8-2 9.3 0 11.7 2.8 14 0"/>
				<path d="m1206 668.8s5.8-2 9.3 0 11.7 2.8 14 0"/>
				<path d="m1216.2 662.4s5.8-2 9.3 0 11.7 2.8 14 0"/>
				<path d="m1214.7 653.2s5.8-2 9.3 0 11.7 2.8 14 0"/>
				<path d="m1240.5 673.2s5.8-2 9.3 0 11.7 2.8 14 0"/>
				<path d="m1257.3 669s5.8-2 9.3 0 11.7 2.8 14 0"/>
				<path d="m1247.1 662.4s5.8-2 9.3 0 11.7 2.8 14 0"/>
				<path d="m1253.6 654.1s5.8-2 9.3 0 11.7 2.8 14 0"/>
				<path d="m1258.8 647.7s5.8-2 9.3 0 11.7 2.8 14 0"/>
				<path d="m1226.3 645.6s5.8-2 9.3 0 11.7 2.8 14 0"/>
				<path d="m1174.7 665.5s5.8-2 9.3 0 11.7 2.8 14 0"/>
				<path d="m1139.4 668.2s5.8-2 9.3 0 11.7 2.8 14 0"/>
				<path d="m1085.5 640.6s5.8-2 9.3 0 11.7 2.8 14 0"/>
				<path d="m1252.2 637.1s5.8-2 9.3 0 11.7 2.8 14 0"/>
			</g>
			<path stroke="#27AAE1" stroke-linecap="round" stroke-miterlimit="10" d="m1482.9 636.6s5.8-2 9.3 0 11.7 2.8 14 0" fill="none"/>
			<path stroke="#27AAE1" stroke-linecap="round" stroke-miterlimit="10" d="m1283.6 661.1s5.8-2 9.3 0 11.7 2.8 14 0" fill="none"/>
			<path stroke="#27AAE1" stroke-linecap="round" stroke-miterlimit="10" d="m1285.9 648.3s5.8-2 9.3 0 11.7 2.8 14 0" fill="none"/>
			<path stroke="#27AAE1" stroke-linecap="round" stroke-miterlimit="10" d="m1284.2 638.5s5.8-2 9.3 0 11.7 2.8 14 0" fill="none"/>
			<path stroke="#27AAE1" stroke-linecap="round" stroke-miterlimit="10" d="m1324.9 664.7s5.8-2 9.3 0 11.7 2.8 14 0" fill="none"/>
			<path stroke="#27AAE1" stroke-linecap="round" stroke-miterlimit="10" d="m1332.9 652.6s5.8-2 9.3 0 11.7 2.8 14 0" fill="none"/>
			<path stroke="#27AAE1" stroke-linecap="round" stroke-miterlimit="10" d="m1321.3 641.9s5.8-2 9.3 0 11.7 2.8 14 0" fill="none"/>
			<path stroke="#27AAE1" stroke-linecap="round" stroke-miterlimit="10" d="m1356.5 672.5s5.8-2 9.3 0 11.7 2.8 14 0" fill="none"/>
			<path stroke="#27AAE1" stroke-linecap="round" stroke-miterlimit="10" d="m1366.7 666.1s5.8-2 9.3 0 11.7 2.8 14 0" fill="none"/>
			<path stroke="#27AAE1" stroke-linecap="round" stroke-miterlimit="10" d="m1362.4 655.8s5.8-2 9.3 0 11.7 2.8 14 0" fill="none"/>
			<path stroke="#27AAE1" stroke-linecap="round" stroke-miterlimit="10" d="m1284.2 673.2s5.8-2 9.3 0 11.7 2.8 14 0" fill="none"/>
			<path stroke="#27AAE1" stroke-linecap="round" stroke-miterlimit="10" d="m1313.3 671.1s5.8-2 9.3 0 11.7 2.8 14 0" fill="none"/>
			<path stroke="#27AAE1" stroke-linecap="round" stroke-miterlimit="10" d="m1301.7 656.2s5.8-2 9.3 0 11.7 2.8 14 0" fill="none"/>
			<path stroke="#27AAE1" stroke-linecap="round" stroke-miterlimit="10" d="m1471.2 668.8s5.8-2 9.3 0 11.7 2.8 14 0" fill="none"/>
			<path stroke="#27AAE1" stroke-linecap="round" stroke-miterlimit="10" d="m1481.4 662.4s5.8-2 9.3 0 11.7 2.8 14 0" fill="none"/>
			<path stroke="#27AAE1" stroke-linecap="round" stroke-miterlimit="10" d="m1479.8 653.2s5.8-2 9.3 0 11.7 2.8 14 0" fill="none"/>
			<path stroke="#27AAE1" stroke-linecap="round" stroke-miterlimit="10" d="m1505.7 673.2s5.8-2 9.3 0 11.7 2.8 14 0" fill="none"/>
			<path stroke="#27AAE1" stroke-linecap="round" stroke-miterlimit="10" d="m1522.5 669s5.8-2 9.3 0 11.7 2.8 14 0" fill="none"/>
			<path stroke="#27AAE1" stroke-linecap="round" stroke-miterlimit="10" d="m1512.3 662.4s5.8-2 9.3 0 11.7 2.8 14 0" fill="none"/>
			<path stroke="#27AAE1" stroke-linecap="round" stroke-miterlimit="10" d="m1518.8 654.1s5.8-2 9.3 0 11.7 2.8 14 0" fill="none"/>
			<path stroke="#27AAE1" stroke-linecap="round" stroke-miterlimit="10" d="m1523.9 647.7s5.8-2 9.3 0 11.7 2.8 14 0" fill="none"/>
			<path stroke="#27AAE1" stroke-linecap="round" stroke-miterlimit="10" d="m1491.5 645.6s5.8-2 9.3 0 11.7 2.8 14 0" fill="none"/>
			<path stroke="#27AAE1" stroke-linecap="round" stroke-miterlimit="10" d="m1439.9 665.5s5.8-2 9.3 0 11.7 2.8 14 0" fill="none"/>
			<path stroke="#27AAE1" stroke-linecap="round" stroke-miterlimit="10" d="m1404.6 668.2s5.8-2 9.3 0 11.7 2.8 14 0" fill="none"/>
			<path stroke="#27AAE1" stroke-linecap="round" stroke-miterlimit="10" d="m1356.5 640.6s5.8-2 9.3 0 11.7 2.8 14 0" fill="none"/>
			<path stroke="#27AAE1" stroke-linecap="round" stroke-miterlimit="10" d="m1517.4 637.1s5.8-2 9.3 0 11.7 2.8 14 0" fill="none"/>
			<path stroke="#27AAE1" stroke-linecap="round" stroke-miterlimit="10" d="m1557.2 636.6s5.8-2 9.3 0 11.7 2.8 14 0" fill="none"/>
			<path stroke="#27AAE1" stroke-linecap="round" stroke-miterlimit="10" d="m1555.7 662.4s5.8-2 9.3 0 11.7 2.8 14 0" fill="none"/>
			<path stroke="#27AAE1" stroke-linecap="round" stroke-miterlimit="10" d="m1569.7 671.9s5.8-2 9.3 0 11.7 2.8 14 0" fill="none"/>
			<path stroke="#27AAE1" stroke-linecap="round" stroke-miterlimit="10" d="m1554.1 653.2s5.8-2 9.3 0 11.7 2.8 14 0" fill="none"/>
			<path stroke="#27AAE1" stroke-linecap="round" stroke-miterlimit="10" d="m1565.8 645.6s5.8-2 9.3 0 11.7 2.8 14 0" fill="none"/>
			<path stroke="#27AAE1" stroke-linecap="round" stroke-miterlimit="10" d="m1397.2 636.9s5.8-2 9.3 0 11.7 2.8 14 0" fill="none"/>
			<path stroke="#27AAE1" stroke-linecap="round" stroke-miterlimit="10" d="m1394.2 653.4s5.8-2 9.3 0 11.7 2.8 14 0" fill="none"/>
			<path stroke="#27AAE1" stroke-linecap="round" stroke-miterlimit="10" d="m1433.2 654.4s5.8-2 9.3 0 11.7 2.8 14 0" fill="none"/>
			<path stroke="#27AAE1" stroke-linecap="round" stroke-miterlimit="10" d="m1451.5 648.3s5.8-2 9.3 0 11.7 2.8 14 0" fill="none"/>
			<path stroke="#27AAE1" stroke-linecap="round" stroke-miterlimit="10" d="m1405.8 645.9s5.8-2 9.3 0 11.7 2.8 14 0" fill="none"/>
			<path stroke="#27AAE1" stroke-linecap="round" stroke-miterlimit="10" d="m1444.8 638s5.8-2 9.3 0 11.7 2.8 14 0" fill="none"/>
				<g id="XMLID_2_">
						<path d="m1205.7 605.9s-5.9 10-10.5 17.7c-6.4 0.4-14.8 1.7-23.4 5.2-9 3.6-22.6 8.5-33.8 12.5h-18.4l-2.4-11s2.6-0.9 6.7-2.3c11.2-3.8 33.8-11.7 46.9-17 5.9-2.4 11.6-3.7 16.7-4.5 10.5-1.6 18.2-0.6 18.2-0.6zm-16.4 12.3c0-2.4-2-4.4-4.4-4.4s-4.4 2-4.4 4.4c0 2.5 2 4.4 4.4 4.4s4.4-2 4.4-4.4z" fill="#33C7C9"/>
						<path d="m1196 641.3h-58c11.2-3.9 24.7-8.8 33.8-12.5 8.6-3.5 17-4.8 23.4-5.2-2.1 3.5-3.9 6.5-4.8 8-3 4.8 5.6 9.7 5.6 9.7z" fill="#B5B5B5"/>
						<polygon points="1190.6 599 1187.5 600.4 1180.9 603.3 1165.4 604.2 1162.5 600.4 1157.2 602.7 1155.5 600.4 1155.4 600 1155.9 599.7 1153.7 596 1171.6 596 1176 599.3 1184 599.3" fill="#fff"/>
						<path d="m1187.5 600.4v6.1c-5.1 0.8-10.8 2.1-16.7 4.5-13.1 5.3-35.7 13.2-46.9 17l3.8-6.3 39.3-15.4-1.6-2.1 15.5-0.9 6.6-2.9z" fill="#fff"/>
						<polygon points="1165.4 604.2 1167.1 606.3 1127.7 621.6 1125.3 622.6 1126.2 616.7 1136.8 612 1157.2 602.7 1162.5 600.4" fill="#fff"/>
						<polygon points="1155.5 600.4 1157.2 602.7 1136.8 612 1136.6 611.5 1134.9 609.1 1134.8 609.1 1155.4 600" fill="#fff"/>
						<polygon points="1153.7 596 1155.9 599.7 1155.4 600 1134.8 609.1 1132.8 610 1131.7 606.8 1153.1 595" fill="#fff"/>
					<g stroke-miterlimit="10" fill="none">
						<path stroke="#27AAE1" stroke-linecap="round" d="m1117.2 644.7s7.2-2.5 11.5 0 14.5 3.5 17.4 0"/>
						<path stroke="#27AAE1" stroke-linecap="round" d="m1152.6 648.1s7.2-2.5 11.5 0 14.5 3.5 17.4 0"/>
						<path stroke="#27AAE1" stroke-linecap="round" d="m1180.4 654s7.2-2.5 11.5 0 14.5 3.5 17.4 0"/>
						<path stroke="#27AAE1" stroke-linecap="round" d="m1185.8 644.7s7.2-2.5 11.5 0 14.5 3.5 17.4 0"/>
						<path stroke="#27AAE1" stroke-linecap="round" d="m1136.6 654s7.2-2.5 11.5 0 14.5 3.5 17.4 0"/>
						<path stroke="#27AAE1" stroke-linecap="round" d="m1096.3 648.1s7.2-2.5 11.5 0 14.5 3.5 17.4 0"/>
						<path stroke="#27AAE1" stroke-linecap="round" d="m1194.9 636.2s7.2-2.5 11.5 0 14.5 3.5 17.4 0"/>
						<path stroke="#231F20" stroke-linecap="round" d="m1195.2 623.6c4.6-7.8 10.5-17.7 10.5-17.7s-7.7-1-18.1 0.6c-5.1 0.8-10.8 2.1-16.7 4.5-13.1 5.3-35.7 13.2-46.9 17-4.1 1.4-6.7 2.3-6.7 2.3l2.4 11h18.4"/>
						<path stroke="#231F20" d="m1138 641.3h58s-8.6-4.8-5.6-9.6c0.9-1.5 2.7-4.5 4.8-8-6.4 0.4-14.8 1.7-23.4 5.2-9 3.5-22.6 8.4-33.8 12.4z"/>
						<polygon stroke="#231F20" stroke-linecap="round" points="1157.2 602.7 1162.5 600.4 1165.4 604.2 1167.1 606.3 1127.7 621.6 1125.3 622.6 1126.2 616.7 1136.8 612"/>
						<polygon stroke="#231F20" stroke-linecap="round" points="1134.8 609.1 1132.8 610 1131.7 606.8 1153.1 595 1153.7 596 1155.9 599.7 1155.4 600"/>
							<line y2="602.7" x2="1157.2" stroke="#231F20" stroke-linecap="round" y1="600.4" x1="1155.5"/>
							<line y2="611.5" x2="1136.6" stroke="#231F20" stroke-linecap="round" y1="609.1" x1="1134.9"/>
						<polyline stroke="#231F20" stroke-linecap="round" points="1153.7 596 1171.6 596 1176 599.3 1184 599.3 1190.6 599 1187.5 600.4 1180.9 603.3 1165.4 604.2"/>
						<path stroke="#231F20" stroke-linecap="round" d="m1189.3 618.2c0 2.5-2 4.4-4.4 4.4s-4.4-2-4.4-4.4 2-4.4 4.4-4.4c2.4-0.1 4.4 1.9 4.4 4.4z"/>
							<line y2="628" x2="1123.9" stroke="#231F20" stroke-linecap="round" y1="621.6" x1="1127.7"/>
							<line y2="606.5" x2="1187.5" stroke="#231F20" stroke-linecap="round" y1="600.4" x1="1187.5"/>
					</g>
				</g>
					<line y2="603.4" x2="1117.6" stroke="#231F20" stroke-linecap="round" stroke-miterlimit="10" y1="630.1" x1="1117.6" fill="none"/>
				<polygon points="1117.2 607.3 1109.9 611.1 1117.2 603.4" fill="#FC495F"/>
		</g>
		<circle cx="685.4" cy="340" fill="#2E3192" r="5.5" clip-path="url(#SVGID_3_)"/>
		<circle cx="713.7" cy="340" fill="#2E3192" r="5.5" clip-path="url(#SVGID_3_)"/>
		<circle cx="741.9" cy="340" fill="#2E3192" r="5.5" clip-path="url(#SVGID_3_)"/>
		<circle cx="655.6" cy="340" fill="#2E3192" r="5.5" clip-path="url(#SVGID_3_)"/>
		<g clip-path="url(#SVGID_3_)">
					<path d="m133.2 684.1c-5.2 0-9.4 4.2-9.4 9.4s4.2 9.4 9.4 9.4 9.4-4.2 9.4-9.4-4.2-9.4-9.4-9.4zm0 14.6c-2.9 0-5.2-2.3-5.2-5.2s2.3-5.2 5.2-5.2c2.9 0 5.2 2.3 5.2 5.2s-2.3 5.2-5.2 5.2z" fill="#58595B"/>
					<circle cy="693.5" cx="133.2" r="3.6" fill="#6D6E71"/>
					<path d="m250.9 684.1c-5.2 0-9.4 4.2-9.4 9.4s4.2 9.4 9.4 9.4 9.4-4.2 9.4-9.4c0-5.2-4.2-9.4-9.4-9.4zm0 14.6c-2.9 0-5.2-2.3-5.2-5.2s2.3-5.2 5.2-5.2c2.9 0 5.2 2.3 5.2 5.2s-2.3 5.2-5.2 5.2z" fill="#58595B"/>
					<circle cy="693.5" cx="250.9" r="3.6" fill="#6D6E71"/>
				<rect height="50" width="123.3" stroke="#231F20" stroke-miterlimit="10" y="627.8" x="152.1" fill="#fff"/>
				<path d="m131 648.4l-16.4 19.3v26.1h8.9v-0.3c0-5.2 4.2-9.4 9.4-9.4s9.4 4.2 9.4 9.4v0.3h9.7v-45.4h-21z" fill="#FC495F"/>
				<rect y="680.6" x="152.1" height="2.3" width="123.3" fill="#8E8A8A"/>
				<path stroke="#231F20" stroke-miterlimit="10" d="m152.1 678.1v15.7h89.4v-0.3c0-5.2 4.2-9.4 9.4-9.4s9.4 4.2 9.4 9.4v0.3h15.2v-15.7h-123.4z" fill="#FFC900"/>
				<line y2="637.2" x2="256.5" stroke="#231F20" stroke-miterlimit="10" y1="637.2" x1="211.9" fill="#B5B5B5"/>
				<line y2="637.2" x2="265.6" stroke="#231F20" stroke-miterlimit="10" y1="637.2" x1="258.5" fill="#B5B5B5"/>
				<polygon stroke="#58595B" stroke-width=".25" stroke-miterlimit="10" points="121.1 678.1 136 678.1 136 669.7 148.5 659.9 148.5 652.9 133.2 652.9 121.2 664.9" fill="#33C7C9"/>
					<rect height="1.1" width="8" stroke="#58595B" stroke-miterlimit="10" y="673.8" x="140.5" stroke-width=".25" fill="#33C7C9"/>
					<rect height="2.4" width="6.1" stroke="#58595B" stroke-miterlimit="10" y="689.4" x="115.8" stroke-width=".25" fill="#33C7C9"/>
			<path d="m215.3 670.4h-0.3c-1.2-1.9-2.4-3.8-3.5-5.7-1.7-2.8-3.4-5.5-4.3-8.7-0.4-1.5-0.6-3-0.2-4.4 0.8-2.9 2.7-4.8 5.5-5.7 0.6-0.2 7.3-1.7 10 3.9 1.2 2.5 1.3 4.9 0.3 7.2-1.1 2.5-2.4 4.9-3.8 7.3-1.2 2.1-2.5 4-3.7 6.1zm-3.3-16.7c-0.1 1.5 1.4 3.1 3 3.1 1.7 0 2.9-1 3.2-3 0.2-1.2-1.3-2.9-2.6-3-2.2-0.2-3.3 1.3-3.6 2.9z" fill="#FC495F"/>
		</g>
			<line y2="678.3" clip-path="url(#SVGID_3_)" x2="1011.9" stroke="#231F20" stroke-linecap="round" stroke-miterlimit="10" y1="678.3" x1="393.2" fill="#fff"/>
		<g stroke-miterlimit="10" clip-path="url(#SVGID_3_)">
			<g stroke="#231F20" fill="#fff">
				<polygon points="503.5 521.8 517.8 521.8 517.8 461.4 529.8 461.4 529.8 440.2 533.5 436.5 533.5 430 542.3 430 542.3 436.9 547.4 436.9 547.4 463.2 561.7 463.2 561.7 519.1 576.4 519.1 576.4 678.3 503.5 678.3 503.5 538.4 516.4 538.4 516.4 525.1 503.5 525.1"/>
				<line y2="402.5" x2="537.2" y1="430" x1="537.2"/>
			</g>
				<line y2="659.8" x2="568.4" stroke="#414042" stroke-linecap="round" y1="659.8" x1="511.1" fill="none"/>
				<line y2="644.3" x2="568.4" stroke="#414042" stroke-linecap="round" y1="644.3" x1="511.1" fill="none"/>
				<line y2="628.9" x2="568.4" stroke="#414042" stroke-linecap="round" y1="628.9" x1="511.1" fill="none"/>
				<line y2="613.4" x2="568.4" stroke="#414042" stroke-linecap="round" y1="613.4" x1="511.1" fill="none"/>
			<line y2="598" x2="568.4" stroke="#414042" stroke-linecap="round" y1="598" x1="511.1" fill="none"/>
				<line y2="582.5" x2="568.4" stroke="#414042" stroke-linecap="round" y1="582.5" x1="511.1" fill="none"/>
				<line y2="567.1" x2="568.4" stroke="#414042" stroke-linecap="round" y1="567.1" x1="511.1" fill="none"/>
				<line y2="551.6" x2="568.4" stroke="#414042" stroke-linecap="round" y1="551.6" x1="511.1" fill="none"/>
				<line y2="536.1" x2="568.4" stroke="#414042" stroke-linecap="round" y1="536.1" x1="522.4" fill="none"/>
				<line y2="505.2" x2="557.1" stroke="#414042" stroke-linecap="round" y1="505.2" x1="522.4" fill="none"/>
				<line y2="489.8" x2="557.1" stroke="#414042" stroke-linecap="round" y1="489.8" x1="522.4" fill="none"/>
				<line y2="474.3" x2="557.1" stroke="#414042" stroke-linecap="round" y1="474.3" x1="522.4" fill="none"/>
		</g>
		<g stroke-miterlimit="10" clip-path="url(#SVGID_3_)">
			<g stroke="#231F20" fill="#fff">
				<polygon points="299.4 521.8 313.7 521.8 313.7 461.4 325.7 461.4 325.7 440.2 329.4 436.5 329.4 430 338.2 430 338.2 436.9 343.3 436.9 343.3 463.2 357.6 463.2 357.6 519.1 372.3 519.1 372.3 678.3 299.4 678.3 299.4 538.4 312.3 538.4 312.3 525.1 299.4 525.1"/>
				<line y2="402.5" x2="333.1" y1="430" x1="333.1"/>
			</g>
			<line y2="659.8" x2="364.3" stroke="#414042" stroke-linecap="round" y1="659.8" x1="307" fill="none"/>
			<line y2="644.3" x2="364.3" stroke="#414042" stroke-linecap="round" y1="644.3" x1="307" fill="none"/>
			<line y2="628.9" x2="364.3" stroke="#414042" stroke-linecap="round" y1="628.9" x1="307" fill="none"/>
			<line y2="613.4" x2="364.3" stroke="#414042" stroke-linecap="round" y1="613.4" x1="307" fill="none"/>
			<line y2="598" x2="364.3" stroke="#414042" stroke-linecap="round" y1="598" x1="307" fill="none"/>
			<line y2="582.5" x2="364.3" stroke="#414042" stroke-linecap="round" y1="582.5" x1="307" fill="none"/>
			<line y2="567.1" x2="364.3" stroke="#414042" stroke-linecap="round" y1="567.1" x1="307" fill="none"/>
			<line y2="551.6" x2="364.3" stroke="#414042" stroke-linecap="round" y1="551.6" x1="307" fill="none"/>
				<line y2="536.1" x2="364.3" stroke="#414042" stroke-linecap="round" y1="536.1" x1="318.3" fill="none"/>
			<line y2="505.2" x2="353" stroke="#414042" stroke-linecap="round" y1="505.2" x1="318.3" fill="none"/>
			<line y2="489.8" x2="353" stroke="#414042" stroke-linecap="round" y1="489.8" x1="318.3" fill="none"/>
			<line y2="474.3" x2="353" stroke="#414042" stroke-linecap="round" y1="474.3" x1="318.3" fill="none"/>
		</g>
		<g clip-path="url(#SVGID_3_)">
			<g stroke="#231F20" stroke-miterlimit="10" fill="#fff">
				<polygon points="704.2 678.3 704.2 516.3 710.7 516.3 710.7 507.5 720.3 507.5 720.3 496.5 725.9 496.5 725.9 507.5 734.7 507.5 734.7 516.3 776.2 516.3 776.2 678.3"/>
				<line y2="469" x2="722.9" y1="496.5" x1="722.9"/>
			</g>
				<g fill="#414042">
					<path d="m717.3 531.3s0.8 0 1.9-0.1c1.1 0 2.6-0.1 4.1-0.2 3-0.1 6-0.2 6-0.2 0.2 0 0.4 0.2 0.4 0.4s-0.2 0.4-0.4 0.4c0 0-3-0.1-6-0.2-1.5-0.1-3-0.1-4.1-0.2-1.1 0.1-1.9 0.1-1.9 0.1z"/>
					<circle cy="531.3" cx="729.3" r=".4"/>
					<circle cy="531.3" cx="729.3" r=".4"/>
					<path d="m729.3 530.9s3 0 6-0.1h6c0.3 0 0.5 0.2 0.5 0.5s-0.2 0.5-0.5 0.5h-6c-3 0-6-0.1-6-0.1-0.2 0-0.4-0.2-0.4-0.4s0.2-0.4 0.4-0.4z"/>
					<circle cy="531.3" cx="741.3"/>
					<circle cy="531.3" cx="741.3"/>
					<path d="m741.3 530.8s3 0 6 0.1c3 0 6 0.1 6 0.1 0.2 0 0.3 0.1 0.3 0.3s-0.1 0.3-0.3 0.3c0 0-3 0.1-6 0.1s-6 0.1-6 0.1c-0.3 0-0.5-0.2-0.5-0.5 0.1-0.3 0.3-0.5 0.5-0.5z"/>
					<circle cy="531.3" cx="753.3" r=".3"/>
					<circle cy="531.3" cx="753.3" r=".3"/>
					<path d="m753.3 531s2 0 3.9 0.1c2 0.1 3.9 0.2 3.9 0.2s-2 0.1-3.9 0.2c-2 0.1-3.9 0.1-3.9 0.1-0.2 0-0.3-0.1-0.3-0.3s0.2-0.3 0.3-0.3z"/>
				</g>
				<g fill="#414042">
					<path d="m717.3 545.8s0.8 0 1.9-0.1c1.1 0 2.6-0.1 4.1-0.2 3-0.1 6-0.2 6-0.2 0.2 0 0.4 0.2 0.4 0.4s-0.2 0.4-0.4 0.4c0 0-3-0.1-6-0.2-1.5-0.1-3-0.1-4.1-0.2-1.1 0.2-1.9 0.1-1.9 0.1z"/>
					<circle cy="545.8" cx="729.3" r=".4"/>
					<circle cy="545.8" cx="729.3" r=".4"/>
					<path d="m729.3 545.4s3 0 6-0.1h6c0.3 0 0.5 0.2 0.5 0.5s-0.2 0.5-0.5 0.5h-6c-3 0-6-0.1-6-0.1-0.2 0-0.4-0.2-0.4-0.4s0.2-0.4 0.4-0.4z"/>
					<circle cy="545.8" cx="741.3"/>
					<circle cy="545.8" cx="741.3"/>
					<path d="m741.3 545.3s3 0 6 0.1c3 0 6 0.1 6 0.1 0.2 0 0.3 0.1 0.3 0.3s-0.1 0.3-0.3 0.3c0 0-3 0.1-6 0.1s-6 0.1-6 0.1c-0.3 0-0.5-0.2-0.5-0.5 0.1-0.2 0.3-0.5 0.5-0.5z"/>
					<circle cy="545.8" cx="753.3" r=".3"/>
					<circle cy="545.8" cx="753.3" r=".3"/>
					<path d="m753.3 545.5s2 0 3.9 0.1c2 0.1 3.9 0.2 3.9 0.2s-2 0.1-3.9 0.2c-2 0.1-3.9 0.1-3.9 0.1-0.2 0-0.3-0.1-0.3-0.3 0-0.1 0.2-0.3 0.3-0.3z"/>
				</g>
				<g fill="#414042">
					<path d="m717.3 560.4s0.8 0 1.9-0.1c1.1 0 2.6-0.1 4.1-0.2 3-0.1 6-0.2 6-0.2 0.2 0 0.4 0.2 0.4 0.4s-0.2 0.4-0.4 0.4c0 0-3-0.1-6-0.2-1.5-0.1-3-0.1-4.1-0.2-1.1 0.1-1.9 0.1-1.9 0.1z"/>
					<circle cy="560.4" cx="729.3" r=".4"/>
					<circle cy="560.4" cx="729.3" r=".4"/>
					<path d="m729.3 559.9s3 0 6-0.1h6c0.3 0 0.5 0.2 0.5 0.5s-0.2 0.5-0.5 0.5h-6c-3 0-6-0.1-6-0.1-0.2 0-0.4-0.2-0.4-0.4s0.2-0.3 0.4-0.4z"/>
					<circle cy="560.4" cx="741.3"/>
					<circle cy="560.4" cx="741.3"/>
					<path d="m741.3 559.9s3 0 6 0.1c3 0 6 0.1 6 0.1 0.2 0 0.3 0.1 0.3 0.3s-0.1 0.3-0.3 0.3c0 0-3 0.1-6 0.1s-6 0.1-6 0.1c-0.3 0-0.5-0.2-0.5-0.5 0.1-0.3 0.3-0.5 0.5-0.5z"/>
					<circle cy="560.4" cx="753.3" r=".3"/>
					<circle cy="560.4" cx="753.3" r=".3"/>
					<path d="m753.3 560.1s2 0 3.9 0.1c2 0.1 3.9 0.2 3.9 0.2s-2 0.1-3.9 0.2c-2 0.1-3.9 0.1-3.9 0.1-0.2 0-0.3-0.1-0.3-0.3s0.2-0.3 0.3-0.3z"/>
				</g>
				<g fill="#414042">
					<path d="m717.3 574.9s0.8 0 1.9-0.1c1.1 0 2.6-0.1 4.1-0.2 3-0.1 6-0.2 6-0.2 0.2 0 0.4 0.2 0.4 0.4s-0.2 0.4-0.4 0.4c0 0-3-0.1-6-0.2-1.5-0.1-3-0.1-4.1-0.2-1.1 0.1-1.9 0.1-1.9 0.1z"/>
					<circle cy="574.9" cx="729.3" r=".4"/>
					<circle cy="574.9" cx="729.3" r=".4"/>
					<path d="m729.3 574.5s3 0 6-0.1h6c0.3 0 0.5 0.2 0.5 0.5s-0.2 0.5-0.5 0.5h-6c-3 0-6-0.1-6-0.1-0.2 0-0.4-0.2-0.4-0.4s0.2-0.4 0.4-0.4z"/>
					<circle cy="574.9" cx="741.3"/>
					<circle cy="574.9" cx="741.3"/>
					<path d="m741.3 574.4s3 0 6 0.1c3 0 6 0.1 6 0.1 0.2 0 0.3 0.1 0.3 0.3s-0.1 0.3-0.3 0.3c0 0-3 0.1-6 0.1s-6 0.1-6 0.1c-0.3 0-0.5-0.2-0.5-0.5 0.1-0.3 0.3-0.5 0.5-0.5z"/>
					<circle cy="574.9" cx="753.3" r=".3"/>
					<circle cy="574.9" cx="753.3" r=".3"/>
					<path d="m753.3 574.6s2 0 3.9 0.1c2 0.1 3.9 0.2 3.9 0.2s-2 0.1-3.9 0.2c-2 0.1-3.9 0.1-3.9 0.1-0.2 0-0.3-0.1-0.3-0.3s0.2-0.3 0.3-0.3z"/>
				</g>
				<g fill="#414042">
					<path d="m717.3 589.4s0.8 0 1.9-0.1c1.1 0 2.6-0.1 4.1-0.2 3-0.1 6-0.2 6-0.2 0.2 0 0.4 0.2 0.4 0.4s-0.2 0.4-0.4 0.4c0 0-3-0.1-6-0.2-1.5-0.1-3-0.1-4.1-0.2-1.1 0.2-1.9 0.1-1.9 0.1z"/>
					<circle cy="589.4" cx="729.3" r=".4"/>
					<circle cy="589.4" cx="729.3" r=".4"/>
					<path d="m729.3 589s3 0 6-0.1h6c0.3 0 0.5 0.2 0.5 0.5s-0.2 0.5-0.5 0.5h-6c-3 0-6-0.1-6-0.1-0.2 0-0.4-0.2-0.4-0.4s0.2-0.4 0.4-0.4z"/>
					<circle cy="589.4" cx="741.3"/>
					<circle cy="589.4" cx="741.3"/>
					<path d="m741.3 588.9s3 0 6 0.1c3 0 6 0.1 6 0.1 0.2 0 0.3 0.1 0.3 0.3s-0.1 0.3-0.3 0.3c0 0-3 0.1-6 0.1s-6 0.1-6 0.1c-0.3 0-0.5-0.2-0.5-0.5s0.3-0.5 0.5-0.5z"/>
					<circle cy="589.4" cx="753.3" r=".3"/>
					<circle cy="589.4" cx="753.3" r=".3"/>
					<path d="m753.3 589.1s2 0 3.9 0.1c2 0.1 3.9 0.2 3.9 0.2s-2 0.1-3.9 0.2c-2 0.1-3.9 0.1-3.9 0.1-0.2 0-0.3-0.1-0.3-0.3 0-0.1 0.2-0.3 0.3-0.3z"/>
				</g>
				<g fill="#414042">
					<path d="m717.3 604s0.8 0 1.9-0.1c1.1 0 2.6-0.1 4.1-0.2 3-0.1 6-0.2 6-0.2 0.2 0 0.4 0.2 0.4 0.4s-0.2 0.4-0.4 0.4c0 0-3-0.1-6-0.2-1.5-0.1-3-0.1-4.1-0.2-1.1 0.1-1.9 0.1-1.9 0.1z"/>
					<circle cy="604" cx="729.3" r=".4"/>
					<circle cy="604" cx="729.3" r=".4"/>
					<path d="m729.3 603.6s3 0 6-0.1h6c0.3 0 0.5 0.2 0.5 0.5s-0.2 0.5-0.5 0.5h-6c-3 0-6-0.1-6-0.1-0.2 0-0.4-0.2-0.4-0.4 0-0.3 0.2-0.4 0.4-0.4z"/>
					<circle cy="604" cx="741.3"/>
					<circle cy="604" cx="741.3"/>
					<path d="m741.3 603.5s3 0 6 0.1c3 0 6 0.1 6 0.1 0.2 0 0.3 0.1 0.3 0.3s-0.1 0.3-0.3 0.3c0 0-3 0.1-6 0.1s-6 0.1-6 0.1c-0.3 0-0.5-0.2-0.5-0.5 0.1-0.3 0.3-0.5 0.5-0.5z"/>
					<circle cy="604" cx="753.3" r=".3"/>
					<circle cy="604" cx="753.3" r=".3"/>
					<path d="m753.3 603.7s2 0 3.9 0.1c2 0.1 3.9 0.2 3.9 0.2s-2 0.1-3.9 0.2c-2 0.1-3.9 0.1-3.9 0.1-0.2 0-0.3-0.1-0.3-0.3s0.2-0.3 0.3-0.3z"/>
				</g>
				<g fill="#414042">
					<path d="m717.3 618.5s0.8 0 1.9-0.1c1.1 0 2.6-0.1 4.1-0.2 3-0.1 6-0.2 6-0.2 0.2 0 0.4 0.2 0.4 0.4s-0.2 0.4-0.4 0.4c0 0-3-0.1-6-0.2-1.5-0.1-3-0.1-4.1-0.2-1.1 0.1-1.9 0.1-1.9 0.1z"/>
					<circle cy="618.5" cx="729.3" r=".4"/>
					<circle cy="618.5" cx="729.3" r=".4"/>
					<path d="m729.3 618.1s3 0 6-0.1h6c0.3 0 0.5 0.2 0.5 0.5s-0.2 0.5-0.5 0.5h-6c-3 0-6-0.1-6-0.1-0.2 0-0.4-0.2-0.4-0.4s0.2-0.4 0.4-0.4z"/>
					<circle cy="618.5" cx="741.3"/>
					<circle cy="618.5" cx="741.3"/>
					<path d="m741.3 618s3 0 6 0.1c3 0 6 0.1 6 0.1 0.2 0 0.3 0.1 0.3 0.3s-0.1 0.3-0.3 0.3c0 0-3 0.1-6 0.1s-6 0.1-6 0.1c-0.3 0-0.5-0.2-0.5-0.5 0.1-0.3 0.3-0.5 0.5-0.5z"/>
					<circle cy="618.5" cx="753.3" r=".3"/>
					<circle cy="618.5" cx="753.3" r=".3"/>
					<path d="m753.3 618.2s2 0 3.9 0.1c2 0.1 3.9 0.2 3.9 0.2s-2 0.1-3.9 0.2c-2 0.1-3.9 0.1-3.9 0.1-0.2 0-0.3-0.1-0.3-0.3s0.2-0.3 0.3-0.3z"/>
				</g>
				<g fill="#414042">
					<path d="m717.3 633s0.8 0 1.9-0.1c1.1 0 2.6-0.1 4.1-0.2 3-0.1 6-0.2 6-0.2 0.2 0 0.4 0.2 0.4 0.4s-0.2 0.4-0.4 0.4c0 0-3-0.1-6-0.2-1.5-0.1-3-0.1-4.1-0.2-1.1 0.2-1.9 0.1-1.9 0.1z"/>
					<circle cy="633" cx="729.3" r=".4"/>
					<circle cy="633" cx="729.3" r=".4"/>
					<path d="m729.3 632.6s3 0 6-0.1h6c0.3 0 0.5 0.2 0.5 0.5s-0.2 0.5-0.5 0.5h-6c-3 0-6-0.1-6-0.1-0.2 0-0.4-0.2-0.4-0.4s0.2-0.4 0.4-0.4z"/>
					<circle cy="633" cx="741.3"/>
					<circle cy="633" cx="741.3"/>
					<path d="m741.3 632.5s3 0 6 0.1c3 0 6 0.1 6 0.1 0.2 0 0.3 0.1 0.3 0.3s-0.1 0.3-0.3 0.3c0 0-3 0.1-6 0.1s-6 0.1-6 0.1c-0.3 0-0.5-0.2-0.5-0.5 0.1-0.2 0.3-0.5 0.5-0.5z"/>
					<circle cy="633" cx="753.3" r=".3"/>
					<circle cy="633" cx="753.3" r=".3"/>
					<path d="m753.3 632.7s2 0 3.9 0.1c2 0.1 3.9 0.2 3.9 0.2s-2 0.1-3.9 0.2c-2 0.1-3.9 0.1-3.9 0.1-0.2 0-0.3-0.1-0.3-0.3 0-0.1 0.2-0.3 0.3-0.3z"/>
				</g>
				<g fill="#414042">
					<path d="m717.3 647.6s0.8 0 1.9-0.1c1.1 0 2.6-0.1 4.1-0.2 3-0.1 6-0.2 6-0.2 0.2 0 0.4 0.2 0.4 0.4s-0.2 0.4-0.4 0.4c0 0-3-0.1-6-0.2-1.5-0.1-3-0.1-4.1-0.2-1.1 0.1-1.9 0.1-1.9 0.1z"/>
					<circle cy="647.6" cx="729.3" r=".4"/>
					<circle cy="647.6" cx="729.3" r=".4"/>
					<path d="m729.3 647.2s3 0 6-0.1h6c0.3 0 0.5 0.2 0.5 0.5s-0.2 0.5-0.5 0.5h-6c-3 0-6-0.1-6-0.1-0.2 0-0.4-0.2-0.4-0.4 0-0.3 0.2-0.4 0.4-0.4z"/>
					<circle cy="647.6" cx="741.3"/>
					<circle cy="647.6" cx="741.3"/>
					<path d="m741.3 647.1s3 0 6 0.1c3 0 6 0.1 6 0.1 0.2 0 0.3 0.1 0.3 0.3s-0.1 0.3-0.3 0.3c0 0-3 0.1-6 0.1s-6 0.1-6 0.1c-0.3 0-0.5-0.2-0.5-0.5 0.1-0.3 0.3-0.5 0.5-0.5z"/>
					<circle cy="647.6" cx="753.3" r=".3"/>
					<circle cy="647.6" cx="753.3" r=".3"/>
					<path d="m753.3 647.3s2 0 3.9 0.1c2 0.1 3.9 0.2 3.9 0.2s-2 0.1-3.9 0.2c-2 0.1-3.9 0.1-3.9 0.1-0.2 0-0.3-0.1-0.3-0.3s0.2-0.3 0.3-0.3z"/>
				</g>
				<g fill="#414042">
					<path d="m717.3 662.1s0.8 0 1.9-0.1c1.1 0 2.6-0.1 4.1-0.2 3-0.1 6-0.2 6-0.2 0.2 0 0.4 0.2 0.4 0.4s-0.2 0.4-0.4 0.4c0 0-3-0.1-6-0.2-1.5-0.1-3-0.1-4.1-0.2-1.1 0.1-1.9 0.1-1.9 0.1z"/>
					<circle cy="662.1" cx="729.3" r=".4"/>
					<circle cy="662.1" cx="729.3" r=".4"/>
					<path d="m729.3 661.7s3 0 6-0.1h6c0.3 0 0.5 0.2 0.5 0.5s-0.2 0.5-0.5 0.5h-6c-3 0-6-0.1-6-0.1-0.2 0-0.4-0.2-0.4-0.4s0.2-0.4 0.4-0.4z"/>
					<circle cy="662.1" cx="741.3"/>
					<circle cy="662.1" cx="741.3"/>
					<path d="m741.3 661.6s3 0 6 0.1c3 0 6 0.1 6 0.1 0.2 0 0.3 0.1 0.3 0.3s-0.1 0.3-0.3 0.3c0 0-3 0.1-6 0.1s-6 0.1-6 0.1c-0.3 0-0.5-0.2-0.5-0.5 0.1-0.3 0.3-0.5 0.5-0.5z"/>
					<circle cy="662.1" cx="753.3" r=".3"/>
					<circle cy="662.1" cx="753.3" r=".3"/>
					<path d="m753.3 661.8s2 0 3.9 0.1c2 0.1 3.9 0.2 3.9 0.2s-2 0.1-3.9 0.2c-2 0.1-3.9 0.1-3.9 0.1-0.2 0-0.3-0.1-0.3-0.3s0.2-0.3 0.3-0.3z"/>
				</g>
		</g>
		<g clip-path="url(#SVGID_3_)">
			<polygon stroke="#231F20" points="1007.7 678.3 1007.7 499.2 1001.2 499.2 1001.2 490.5 991.5 490.5 991.5 479.4 986 479.4 986 490.5 977.2 490.5 977.2 499.2 935.7 499.2 935.7 678.3" stroke-miterlimit="10" fill="#fff"/>
				<g fill="#414042">
					<path d="m941.4 666.3s0.8-0.1 1.9-0.1c1.1-0.1 2.6-0.2 4.1-0.2 3-0.1 6-0.1 6-0.1 0.3 0 0.5 0.2 0.5 0.5s-0.2 0.5-0.5 0.5c0 0-3 0-6-0.1-1.5-0.1-3-0.1-4.1-0.2-1.1-0.3-1.9-0.3-1.9-0.3z"/>
					<circle cy="666.3" cx="953.4"/>
					<circle cy="666.3" cx="953.4"/>
					<path d="m953.4 665.8h6c1.5 0 3 0.1 4.1 0.1s1.9 0.1 1.9 0.1c0.2 0 0.3 0.1 0.3 0.3 0 0.1-0.1 0.3-0.3 0.3 0 0-0.8 0-1.9 0.1s-2.6 0.1-4.1 0.1c-3 0.1-6 0-6 0-0.3 0-0.5-0.2-0.5-0.5 0.1-0.3 0.3-0.5 0.5-0.5z"/>
					<circle cy="666.3" cx="965.4" r=".3"/>
					<circle cy="666.3" cx="965.4" r=".3"/>
					<path d="m965.4 666s1.1 0 2.1 0.1c1.1 0.1 2.1 0.2 2.1 0.2s-1.1 0.1-2.1 0.2c-1.1 0.1-2.1 0.1-2.1 0.1-0.2 0-0.3-0.1-0.3-0.3s0.2-0.3 0.3-0.3z"/>
				</g>
				<g fill="#414042">
					<path d="m941.4 654.4s0.8-0.1 1.9-0.1c1.1-0.1 2.6-0.2 4.1-0.2 3-0.1 6-0.1 6-0.1 0.3 0 0.5 0.2 0.5 0.5s-0.2 0.5-0.5 0.5c0 0-3 0-6-0.1-1.5-0.1-3-0.1-4.1-0.2-1.1-0.2-1.9-0.3-1.9-0.3z"/>
					<circle cy="654.4" cx="953.4"/>
					<circle cy="654.4" cx="953.4"/>
					<path d="m953.4 653.9h6c1.5 0 3 0.1 4.1 0.1s1.9 0.1 1.9 0.1c0.2 0 0.3 0.1 0.3 0.3 0 0.1-0.1 0.3-0.3 0.3 0 0-0.8 0-1.9 0.1s-2.6 0.1-4.1 0.1c-3 0.1-6 0-6 0-0.3 0-0.5-0.2-0.5-0.5 0.1-0.3 0.3-0.5 0.5-0.5z"/>
					<circle cy="654.4" cx="965.4" r=".3"/>
					<circle cy="654.4" cx="965.4" r=".3"/>
					<path d="m965.4 654.1s1.1 0 2.1 0.1c1.1 0.1 2.1 0.2 2.1 0.2s-1.1 0.1-2.1 0.2c-1.1 0.1-2.1 0.1-2.1 0.1-0.2 0-0.3-0.1-0.3-0.3s0.2-0.3 0.3-0.3z"/>
				</g>
				<g fill="#414042">
					<path d="m941.4 642.5s0.8-0.1 1.9-0.1c1.1-0.1 2.6-0.2 4.1-0.2 3-0.1 6-0.1 6-0.1 0.3 0 0.5 0.2 0.5 0.5s-0.2 0.5-0.5 0.5c0 0-3 0-6-0.1-1.5-0.1-3-0.1-4.1-0.2-1.1-0.2-1.9-0.3-1.9-0.3z"/>
					<circle cy="642.5" cx="953.4"/>
					<circle cy="642.5" cx="953.4"/>
					<path d="m953.4 642h6c1.5 0 3 0.1 4.1 0.1s1.9 0.1 1.9 0.1c0.2 0 0.3 0.1 0.3 0.3 0 0.1-0.1 0.3-0.3 0.3 0 0-0.8 0-1.9 0.1s-2.6 0.1-4.1 0.1c-3 0.1-6 0-6 0-0.3 0-0.5-0.2-0.5-0.5 0.1-0.3 0.3-0.5 0.5-0.5z"/>
					<circle cy="642.5" cx="965.4" r=".3"/>
					<circle cy="642.5" cx="965.4" r=".3"/>
					<path d="m965.4 642.2s1.1 0 2.1 0.1c1.1 0.1 2.1 0.2 2.1 0.2s-1.1 0.1-2.1 0.2c-1.1 0.1-2.1 0.1-2.1 0.1-0.2 0-0.3-0.1-0.3-0.3 0-0.1 0.2-0.3 0.3-0.3z"/>
				</g>
				<g fill="#414042">
					<path d="m941.4 630.6s0.8-0.1 1.9-0.1c1.1-0.1 2.6-0.2 4.1-0.2 3-0.1 6-0.1 6-0.1 0.3 0 0.5 0.2 0.5 0.5s-0.2 0.5-0.5 0.5c0 0-3 0-6-0.1-1.5-0.1-3-0.1-4.1-0.2-1.1-0.2-1.9-0.3-1.9-0.3z"/>
					<circle cy="630.6" cx="953.4"/>
					<circle cy="630.6" cx="953.4"/>
					<path d="m953.4 630.1h6c1.5 0 3 0.1 4.1 0.1s1.9 0.1 1.9 0.1c0.2 0 0.3 0.1 0.3 0.3 0 0.1-0.1 0.3-0.3 0.3 0 0-0.8 0-1.9 0.1s-2.6 0.1-4.1 0.1c-3 0.1-6 0-6 0-0.3 0-0.5-0.2-0.5-0.5 0.1-0.3 0.3-0.5 0.5-0.5z"/>
					<circle cy="630.6" cx="965.4" r=".3"/>
					<circle cy="630.6" cx="965.4" r=".3"/>
					<path d="m965.4 630.3s1.1 0 2.1 0.1c1.1 0.1 2.1 0.2 2.1 0.2s-1.1 0.1-2.1 0.2c-1.1 0.1-2.1 0.1-2.1 0.1-0.2 0-0.3-0.1-0.3-0.3 0-0.1 0.2-0.3 0.3-0.3z"/>
				</g>
				<g fill="#414042">
					<path d="m941.4 618.7s0.8-0.1 1.9-0.1c1.1-0.1 2.6-0.2 4.1-0.2 3-0.1 6-0.1 6-0.1 0.3 0 0.5 0.2 0.5 0.5s-0.2 0.5-0.5 0.5c0 0-3 0-6-0.1-1.5-0.1-3-0.1-4.1-0.2-1.1-0.2-1.9-0.3-1.9-0.3z"/>
					<circle cy="618.7" cx="953.4"/>
					<circle cy="618.7" cx="953.4"/>
					<path d="m953.4 618.2h6c1.5 0 3 0.1 4.1 0.1s1.9 0.1 1.9 0.1c0.2 0 0.3 0.1 0.3 0.3 0 0.1-0.1 0.3-0.3 0.3 0 0-0.8 0-1.9 0.1s-2.6 0.1-4.1 0.1c-3 0.1-6 0-6 0-0.3 0-0.5-0.2-0.5-0.5 0.1-0.2 0.3-0.5 0.5-0.5z"/>
					<circle cy="618.7" cx="965.4" r=".3"/>
					<circle cy="618.7" cx="965.4" r=".3"/>
					<path d="m965.4 618.5s1.1 0 2.1 0.1c1.1 0.1 2.1 0.2 2.1 0.2s-1.1 0.1-2.1 0.2c-1.1 0.1-2.1 0.1-2.1 0.1-0.2 0-0.3-0.1-0.3-0.3s0.2-0.3 0.3-0.3z"/>
				</g>
				<g fill="#414042">
					<path d="m941.4 606.8s0.8-0.1 1.9-0.1c1.1-0.1 2.6-0.2 4.1-0.2 3-0.1 6-0.1 6-0.1 0.3 0 0.5 0.2 0.5 0.5s-0.2 0.5-0.5 0.5c0 0-3 0-6-0.1-1.5-0.1-3-0.1-4.1-0.2-1.1-0.2-1.9-0.3-1.9-0.3z"/>
					<circle cy="606.8" cx="953.4"/>
					<circle cy="606.8" cx="953.4"/>
					<path d="m953.4 606.4h6c1.5 0 3 0.1 4.1 0.1s1.9 0.1 1.9 0.1c0.2 0 0.3 0.1 0.3 0.3 0 0.1-0.1 0.3-0.3 0.3 0 0-0.8 0-1.9 0.1s-2.6 0.1-4.1 0.1c-3 0.1-6 0-6 0-0.3 0-0.5-0.2-0.5-0.5 0.1-0.3 0.3-0.5 0.5-0.5z"/>
					<circle cy="606.8" cx="965.4" r=".3"/>
					<circle cy="606.8" cx="965.4" r=".3"/>
					<path d="m965.4 606.6s1.1 0 2.1 0.1c1.1 0.1 2.1 0.2 2.1 0.2s-1.1 0.1-2.1 0.2c-1.1 0.1-2.1 0.1-2.1 0.1-0.2 0-0.3-0.1-0.3-0.3s0.2-0.3 0.3-0.3z"/>
				</g>
				<g fill="#414042">
					<path d="m941.4 595s0.8-0.1 1.9-0.1c1.1-0.1 2.6-0.2 4.1-0.2 3-0.1 6-0.1 6-0.1 0.3 0 0.5 0.2 0.5 0.5s-0.2 0.5-0.5 0.5c0 0-3 0-6-0.1-1.5-0.1-3-0.1-4.1-0.2-1.1-0.3-1.9-0.3-1.9-0.3z"/>
					<circle cy="595" cx="953.4"/>
					<circle cy="595" cx="953.4"/>
					<path d="m953.4 594.5h6c1.5 0 3 0.1 4.1 0.1s1.9 0.1 1.9 0.1c0.2 0 0.3 0.1 0.3 0.3 0 0.1-0.1 0.3-0.3 0.3 0 0-0.8 0-1.9 0.1s-2.6 0.1-4.1 0.1c-3 0.1-6 0-6 0-0.3 0-0.5-0.2-0.5-0.5 0.1-0.3 0.3-0.5 0.5-0.5z"/>
					<circle cy="595" cx="965.4" r=".3"/>
					<circle cy="595" cx="965.4" r=".3"/>
					<path d="m965.4 594.7s1.1 0 2.1 0.1c1.1 0.1 2.1 0.2 2.1 0.2s-1.1 0.1-2.1 0.2c-1.1 0.1-2.1 0.1-2.1 0.1-0.2 0-0.3-0.1-0.3-0.3s0.2-0.3 0.3-0.3z"/>
				</g>
				<g fill="#414042">
					<path d="m941.4 583.1s0.8-0.1 1.9-0.1c1.1-0.1 2.6-0.2 4.1-0.2 3-0.1 6-0.1 6-0.1 0.3 0 0.5 0.2 0.5 0.5s-0.2 0.5-0.5 0.5c0 0-3 0-6-0.1-1.5-0.1-3-0.1-4.1-0.2-1.1-0.2-1.9-0.3-1.9-0.3z"/>
					<circle cy="583.1" cx="953.4"/>
					<circle cy="583.1" cx="953.4"/>
					<path d="m953.4 582.6h6c1.5 0 3 0.1 4.1 0.1s1.9 0.1 1.9 0.1c0.2 0 0.3 0.1 0.3 0.3 0 0.1-0.1 0.3-0.3 0.3 0 0-0.8 0-1.9 0.1s-2.6 0.1-4.1 0.1c-3 0.1-6 0-6 0-0.3 0-0.5-0.2-0.5-0.5 0.1-0.3 0.3-0.5 0.5-0.5z"/>
					<circle cy="583.1" cx="965.4" r=".3"/>
					<circle cy="583.1" cx="965.4" r=".3"/>
					<path d="m965.4 582.8s1.1 0 2.1 0.1c1.1 0.1 2.1 0.2 2.1 0.2s-1.1 0.1-2.1 0.2c-1.1 0.1-2.1 0.1-2.1 0.1-0.2 0-0.3-0.1-0.3-0.3s0.2-0.3 0.3-0.3z"/>
				</g>
				<g fill="#414042">
					<path d="m941.4 571.2s0.8-0.1 1.9-0.1c1.1-0.1 2.6-0.2 4.1-0.2 3-0.1 6-0.1 6-0.1 0.3 0 0.5 0.2 0.5 0.5s-0.2 0.5-0.5 0.5c0 0-3 0-6-0.1-1.5-0.1-3-0.1-4.1-0.2-1.1-0.2-1.9-0.3-1.9-0.3z"/>
					<circle cy="571.2" cx="953.4"/>
					<circle cy="571.2" cx="953.4"/>
					<path d="m953.4 570.7h6c1.5 0 3 0.1 4.1 0.1s1.9 0.1 1.9 0.1c0.2 0 0.3 0.1 0.3 0.3 0 0.1-0.1 0.3-0.3 0.3 0 0-0.8 0-1.9 0.1s-2.6 0.1-4.1 0.1c-3 0.1-6 0-6 0-0.3 0-0.5-0.2-0.5-0.5 0.1-0.3 0.3-0.5 0.5-0.5z"/>
					<circle cy="571.2" cx="965.4" r=".3"/>
					<circle cy="571.2" cx="965.4" r=".3"/>
					<path d="m965.4 570.9s1.1 0 2.1 0.1c1.1 0.1 2.1 0.2 2.1 0.2s-1.1 0.1-2.1 0.2c-1.1 0.1-2.1 0.1-2.1 0.1-0.2 0-0.3-0.1-0.3-0.3 0-0.1 0.2-0.3 0.3-0.3z"/>
				</g>
				<g fill="#414042">
					<path d="m941.4 559.3s0.8-0.1 1.9-0.1c1.1-0.1 2.6-0.2 4.1-0.2 3-0.1 6-0.1 6-0.1 0.3 0 0.5 0.2 0.5 0.5s-0.2 0.5-0.5 0.5c0 0-3 0-6-0.1-1.5-0.1-3-0.1-4.1-0.2-1.1-0.2-1.9-0.3-1.9-0.3z"/>
					<circle cy="559.3" cx="953.4"/>
					<circle cy="559.3" cx="953.4"/>
					<path d="m953.4 558.8h6c1.5 0 3 0.1 4.1 0.1s1.9 0.1 1.9 0.1c0.2 0 0.3 0.1 0.3 0.3 0 0.1-0.1 0.3-0.3 0.3 0 0-0.8 0-1.9 0.1s-2.6 0.1-4.1 0.1c-3 0.1-6 0-6 0-0.3 0-0.5-0.2-0.5-0.5 0.1-0.2 0.3-0.5 0.5-0.5z"/>
					<circle cy="559.3" cx="965.4" r=".3"/>
					<circle cy="559.3" cx="965.4" r=".3"/>
					<path d="m965.4 559s1.1 0 2.1 0.1c1.1 0.1 2.1 0.2 2.1 0.2s-1.1 0.1-2.1 0.2c-1.1 0.1-2.1 0.1-2.1 0.1-0.2 0-0.3-0.1-0.3-0.3 0-0.1 0.2-0.2 0.3-0.3z"/>
				</g>
				<g fill="#414042">
					<path d="m941.4 547.4s0.8-0.1 1.9-0.1c1.1-0.1 2.6-0.2 4.1-0.2 3-0.1 6-0.1 6-0.1 0.3 0 0.5 0.2 0.5 0.5s-0.2 0.5-0.5 0.5c0 0-3 0-6-0.1-1.5-0.1-3-0.1-4.1-0.2-1.1-0.2-1.9-0.3-1.9-0.3z"/>
					<circle cy="547.4" cx="953.4"/>
					<circle cy="547.4" cx="953.4"/>
					<path d="m953.4 547h6c1.5 0 3 0.1 4.1 0.1s1.9 0.1 1.9 0.1c0.2 0 0.3 0.1 0.3 0.3 0 0.1-0.1 0.3-0.3 0.3 0 0-0.8 0-1.9 0.1s-2.6 0.1-4.1 0.1c-3 0.1-6 0-6 0-0.3 0-0.5-0.2-0.5-0.5 0.1-0.3 0.3-0.5 0.5-0.5z"/>
					<circle cy="547.4" cx="965.4" r=".3"/>
					<circle cy="547.4" cx="965.4" r=".3"/>
					<path d="m965.4 547.2s1.1 0 2.1 0.1c1.1 0.1 2.1 0.2 2.1 0.2s-1.1 0.1-2.1 0.2c-1.1 0.1-2.1 0.1-2.1 0.1-0.2 0-0.3-0.1-0.3-0.3s0.2-0.3 0.3-0.3z"/>
				</g>
				<g fill="#414042">
					<path d="m941.4 535.6s0.8-0.1 1.9-0.1c1.1-0.1 2.6-0.2 4.1-0.2 3-0.1 6-0.1 6-0.1 0.3 0 0.5 0.2 0.5 0.5s-0.2 0.5-0.5 0.5c0 0-3 0-6-0.1-1.5-0.1-3-0.1-4.1-0.2-1.1-0.3-1.9-0.3-1.9-0.3z"/>
					<circle cy="535.6" cx="953.4"/>
					<circle cy="535.6" cx="953.4"/>
					<path d="m953.4 535.1h6c1.5 0 3 0.1 4.1 0.1s1.9 0.1 1.9 0.1c0.2 0 0.3 0.1 0.3 0.3 0 0.1-0.1 0.3-0.3 0.3 0 0-0.8 0-1.9 0.1s-2.6 0.1-4.1 0.1c-3 0.1-6 0-6 0-0.3 0-0.5-0.2-0.5-0.5 0.1-0.3 0.3-0.5 0.5-0.5z"/>
					<circle cy="535.6" cx="965.4" r=".3"/>
					<circle cy="535.6" cx="965.4" r=".3"/>
					<path d="m965.4 535.3s1.1 0 2.1 0.1c1.1 0.1 2.1 0.2 2.1 0.2s-1.1 0.1-2.1 0.2c-1.1 0.1-2.1 0.1-2.1 0.1-0.2 0-0.3-0.1-0.3-0.3s0.2-0.3 0.3-0.3z"/>
				</g>
				<g fill="#414042">
					<path d="m941.4 523.7s0.8-0.1 1.9-0.1c1.1-0.1 2.6-0.2 4.1-0.2 3-0.1 6-0.1 6-0.1 0.3 0 0.5 0.2 0.5 0.5s-0.2 0.5-0.5 0.5c0 0-3 0-6-0.1-1.5-0.1-3-0.1-4.1-0.2-1.1-0.2-1.9-0.3-1.9-0.3z"/>
					<circle cy="523.7" cx="953.4"/>
					<circle cy="523.7" cx="953.4"/>
					<path d="m953.4 523.2h6c1.5 0 3 0.1 4.1 0.1s1.9 0.1 1.9 0.1c0.2 0 0.3 0.1 0.3 0.3 0 0.1-0.1 0.3-0.3 0.3 0 0-0.8 0-1.9 0.1s-2.6 0.1-4.1 0.1c-3 0.1-6 0-6 0-0.3 0-0.5-0.2-0.5-0.5 0.1-0.3 0.3-0.5 0.5-0.5z"/>
					<circle cy="523.7" cx="965.4" r=".3"/>
					<circle cy="523.7" cx="965.4" r=".3"/>
					<path d="m965.4 523.4s1.1 0 2.1 0.1c1.1 0.1 2.1 0.2 2.1 0.2s-1.1 0.1-2.1 0.2c-1.1 0.1-2.1 0.1-2.1 0.1-0.2 0-0.3-0.1-0.3-0.3s0.2-0.3 0.3-0.3z"/>
				</g>
				<g fill="#414042">
					<path d="m941.4 511.8s0.8-0.1 1.9-0.1c1.1-0.1 2.6-0.2 4.1-0.2 3-0.1 6-0.1 6-0.1 0.3 0 0.5 0.2 0.5 0.5s-0.2 0.5-0.5 0.5c0 0-3 0-6-0.1-1.5-0.1-3-0.1-4.1-0.2-1.1-0.2-1.9-0.3-1.9-0.3z"/>
					<circle cy="511.8" cx="953.4"/>
					<circle cy="511.8" cx="953.4"/>
					<path d="m953.4 511.3h6c1.5 0 3 0.1 4.1 0.1s1.9 0.1 1.9 0.1c0.2 0 0.3 0.1 0.3 0.3 0 0.1-0.1 0.3-0.3 0.3 0 0-0.8 0-1.9 0.1s-2.6 0.1-4.1 0.1c-3 0.1-6 0-6 0-0.3 0-0.5-0.2-0.5-0.5 0.1-0.3 0.3-0.5 0.5-0.5z"/>
					<circle cy="511.8" cx="965.4" r=".3"/>
					<circle cy="511.8" cx="965.4" r=".3"/>
					<path d="m965.4 511.5s1.1 0 2.1 0.1c1.1 0.1 2.1 0.2 2.1 0.2s-1.1 0.1-2.1 0.2c-1.1 0.1-2.1 0.1-2.1 0.1-0.2 0-0.3-0.1-0.3-0.3 0-0.1 0.2-0.3 0.3-0.3z"/>
				</g>
				<g fill="#414042">
					<path d="m974.7 666.3s0.8-0.1 1.9-0.1c1.1-0.1 2.6-0.2 4.1-0.2 3-0.1 6-0.1 6-0.1 0.3 0 0.5 0.2 0.5 0.5s-0.2 0.5-0.5 0.5-3 0-6-0.1c-1.5-0.1-3-0.1-4.1-0.2-1.2-0.3-1.9-0.3-1.9-0.3z"/>
					<circle cy="666.3" cx="986.7"/>
					<circle cy="666.3" cx="986.7"/>
					<path d="m986.7 665.8h6c1.5 0 3 0.1 4.1 0.1s1.9 0.1 1.9 0.1c0.2 0 0.3 0.1 0.3 0.3 0 0.1-0.1 0.3-0.3 0.3 0 0-0.8 0-1.9 0.1s-2.6 0.1-4.1 0.1c-3 0.1-6 0-6 0-0.3 0-0.5-0.2-0.5-0.5s0.2-0.5 0.5-0.5z"/>
					<circle cy="666.3" cx="998.7" r=".3"/>
					<circle cy="666.3" cx="998.7" r=".3"/>
					<path d="m998.7 666s1.1 0 2.1 0.1c1.1 0.1 2.1 0.2 2.1 0.2s-1.1 0.1-2.1 0.2c-1.1 0.1-2.1 0.1-2.1 0.1-0.2 0-0.3-0.1-0.3-0.3s0.1-0.3 0.3-0.3c-0.1 0 0 0 0 0z"/>
				</g>
				<g fill="#414042">
					<path d="m974.7 654.4s0.8-0.1 1.9-0.1c1.1-0.1 2.6-0.2 4.1-0.2 3-0.1 6-0.1 6-0.1 0.3 0 0.5 0.2 0.5 0.5s-0.2 0.5-0.5 0.5-3 0-6-0.1c-1.5-0.1-3-0.1-4.1-0.2-1.2-0.2-1.9-0.3-1.9-0.3z"/>
					<circle cy="654.4" cx="986.7"/>
					<circle cy="654.4" cx="986.7"/>
					<path d="m986.7 653.9h6c1.5 0 3 0.1 4.1 0.1s1.9 0.1 1.9 0.1c0.2 0 0.3 0.1 0.3 0.3 0 0.1-0.1 0.3-0.3 0.3 0 0-0.8 0-1.9 0.1s-2.6 0.1-4.1 0.1c-3 0.1-6 0-6 0-0.3 0-0.5-0.2-0.5-0.5s0.2-0.5 0.5-0.5z"/>
					<circle cy="654.4" cx="998.7" r=".3"/>
					<circle cy="654.4" cx="998.7" r=".3"/>
					<path d="m998.7 654.1s1.1 0 2.1 0.1c1.1 0.1 2.1 0.2 2.1 0.2s-1.1 0.1-2.1 0.2c-1.1 0.1-2.1 0.1-2.1 0.1-0.2 0-0.3-0.1-0.3-0.3s0.1-0.3 0.3-0.3c-0.1 0 0 0 0 0z"/>
				</g>
				<g fill="#414042">
					<path d="m974.7 642.5s0.8-0.1 1.9-0.1c1.1-0.1 2.6-0.2 4.1-0.2 3-0.1 6-0.1 6-0.1 0.3 0 0.5 0.2 0.5 0.5s-0.2 0.5-0.5 0.5-3 0-6-0.1c-1.5-0.1-3-0.1-4.1-0.2-1.2-0.2-1.9-0.3-1.9-0.3z"/>
					<circle cy="642.5" cx="986.7"/>
					<circle cy="642.5" cx="986.7"/>
					<path d="m986.7 642h6c1.5 0 3 0.1 4.1 0.1s1.9 0.1 1.9 0.1c0.2 0 0.3 0.1 0.3 0.3 0 0.1-0.1 0.3-0.3 0.3 0 0-0.8 0-1.9 0.1s-2.6 0.1-4.1 0.1c-3 0.1-6 0-6 0-0.3 0-0.5-0.2-0.5-0.5s0.2-0.5 0.5-0.5z"/>
					<circle cy="642.5" cx="998.7" r=".3"/>
					<circle cy="642.5" cx="998.7" r=".3"/>
					<path d="m998.7 642.2s1.1 0 2.1 0.1c1.1 0.1 2.1 0.2 2.1 0.2s-1.1 0.1-2.1 0.2c-1.1 0.1-2.1 0.1-2.1 0.1-0.2 0-0.3-0.1-0.3-0.3s0.1-0.3 0.3-0.3c-0.1 0 0 0 0 0z"/>
				</g>
				<g fill="#414042">
					<path d="m974.7 630.6s0.8-0.1 1.9-0.1c1.1-0.1 2.6-0.2 4.1-0.2 3-0.1 6-0.1 6-0.1 0.3 0 0.5 0.2 0.5 0.5s-0.2 0.5-0.5 0.5-3 0-6-0.1c-1.5-0.1-3-0.1-4.1-0.2-1.2-0.2-1.9-0.3-1.9-0.3z"/>
					<circle cy="630.6" cx="986.7"/>
					<circle cy="630.6" cx="986.7"/>
					<path d="m986.7 630.1h6c1.5 0 3 0.1 4.1 0.1s1.9 0.1 1.9 0.1c0.2 0 0.3 0.1 0.3 0.3 0 0.1-0.1 0.3-0.3 0.3 0 0-0.8 0-1.9 0.1s-2.6 0.1-4.1 0.1c-3 0.1-6 0-6 0-0.3 0-0.5-0.2-0.5-0.5s0.2-0.5 0.5-0.5z"/>
					<circle cy="630.6" cx="998.7" r=".3"/>
					<circle cy="630.6" cx="998.7" r=".3"/>
					<path d="m998.7 630.3s1.1 0 2.1 0.1c1.1 0.1 2.1 0.2 2.1 0.2s-1.1 0.1-2.1 0.2c-1.1 0.1-2.1 0.1-2.1 0.1-0.2 0-0.3-0.1-0.3-0.3s0.1-0.3 0.3-0.3c-0.1 0 0 0 0 0z"/>
				</g>
				<g fill="#414042">
					<path d="m974.7 618.7s0.8-0.1 1.9-0.1c1.1-0.1 2.6-0.2 4.1-0.2 3-0.1 6-0.1 6-0.1 0.3 0 0.5 0.2 0.5 0.5s-0.2 0.5-0.5 0.5-3 0-6-0.1c-1.5-0.1-3-0.1-4.1-0.2-1.2-0.2-1.9-0.3-1.9-0.3z"/>
					<circle cy="618.7" cx="986.7"/>
					<circle cy="618.7" cx="986.7"/>
					<path d="m986.7 618.2h6c1.5 0 3 0.1 4.1 0.1s1.9 0.1 1.9 0.1c0.2 0 0.3 0.1 0.3 0.3 0 0.1-0.1 0.3-0.3 0.3 0 0-0.8 0-1.9 0.1s-2.6 0.1-4.1 0.1c-3 0.1-6 0-6 0-0.3 0-0.5-0.2-0.5-0.5 0-0.2 0.2-0.5 0.5-0.5z"/>
					<circle cy="618.7" cx="998.7" r=".3"/>
					<circle cy="618.7" cx="998.7" r=".3"/>
					<path d="m998.7 618.5s1.1 0 2.1 0.1c1.1 0.1 2.1 0.2 2.1 0.2s-1.1 0.1-2.1 0.2c-1.1 0.1-2.1 0.1-2.1 0.1-0.2 0-0.3-0.1-0.3-0.3s0.1-0.3 0.3-0.3c-0.1 0 0 0 0 0z"/>
				</g>
				<g fill="#414042">
					<path d="m974.7 606.8s0.8-0.1 1.9-0.1c1.1-0.1 2.6-0.2 4.1-0.2 3-0.1 6-0.1 6-0.1 0.3 0 0.5 0.2 0.5 0.5s-0.2 0.5-0.5 0.5-3 0-6-0.1c-1.5-0.1-3-0.1-4.1-0.2-1.2-0.2-1.9-0.3-1.9-0.3z"/>
					<circle cy="606.8" cx="986.7"/>
					<circle cy="606.8" cx="986.7"/>
					<path d="m986.7 606.4h6c1.5 0 3 0.1 4.1 0.1s1.9 0.1 1.9 0.1c0.2 0 0.3 0.1 0.3 0.3 0 0.1-0.1 0.3-0.3 0.3 0 0-0.8 0-1.9 0.1s-2.6 0.1-4.1 0.1c-3 0.1-6 0-6 0-0.3 0-0.5-0.2-0.5-0.5s0.2-0.5 0.5-0.5z"/>
					<circle cy="606.8" cx="998.7" r=".3"/>
					<circle cy="606.8" cx="998.7" r=".3"/>
					<path d="m998.7 606.6s1.1 0 2.1 0.1c1.1 0.1 2.1 0.2 2.1 0.2s-1.1 0.1-2.1 0.2c-1.1 0.1-2.1 0.1-2.1 0.1-0.2 0-0.3-0.1-0.3-0.3s0.1-0.3 0.3-0.3c-0.1 0 0 0 0 0z"/>
				</g>
				<g fill="#414042">
					<path d="m974.7 595s0.8-0.1 1.9-0.1c1.1-0.1 2.6-0.2 4.1-0.2 3-0.1 6-0.1 6-0.1 0.3 0 0.5 0.2 0.5 0.5s-0.2 0.5-0.5 0.5c0 0-3 0-6-0.1-1.5-0.1-3-0.1-4.1-0.2-1.2-0.3-1.9-0.3-1.9-0.3z"/>
					<circle cy="595" cx="986.7"/>
					<circle cy="595" cx="986.7"/>
					<path d="m986.7 594.5h6c1.5 0 3 0.1 4.1 0.1s1.9 0.1 1.9 0.1c0.2 0 0.3 0.1 0.3 0.3 0 0.1-0.1 0.3-0.3 0.3 0 0-0.8 0-1.9 0.1s-2.6 0.1-4.1 0.1c-3 0.1-6 0-6 0-0.3 0-0.5-0.2-0.5-0.5s0.2-0.5 0.5-0.5z"/>
					<circle cy="595" cx="998.7" r=".3"/>
					<circle cy="595" cx="998.7" r=".3"/>
					<path d="m998.7 594.7s1.1 0 2.1 0.1c1.1 0.1 2.1 0.2 2.1 0.2s-1.1 0.1-2.1 0.2c-1.1 0.1-2.1 0.1-2.1 0.1-0.2 0-0.3-0.1-0.3-0.3s0.1-0.3 0.3-0.3c-0.1 0 0 0 0 0z"/>
				</g>
				<g fill="#414042">
					<path d="m974.7 583.1s0.8-0.1 1.9-0.1c1.1-0.1 2.6-0.2 4.1-0.2 3-0.1 6-0.1 6-0.1 0.3 0 0.5 0.2 0.5 0.5s-0.2 0.5-0.5 0.5-3 0-6-0.1c-1.5-0.1-3-0.1-4.1-0.2-1.2-0.2-1.9-0.3-1.9-0.3z"/>
					<circle cy="583.1" cx="986.7"/>
					<circle cy="583.1" cx="986.7"/>
					<path d="m986.7 582.6h6c1.5 0 3 0.1 4.1 0.1s1.9 0.1 1.9 0.1c0.2 0 0.3 0.1 0.3 0.3 0 0.1-0.1 0.3-0.3 0.3 0 0-0.8 0-1.9 0.1s-2.6 0.1-4.1 0.1c-3 0.1-6 0-6 0-0.3 0-0.5-0.2-0.5-0.5s0.2-0.5 0.5-0.5z"/>
					<circle cy="583.1" cx="998.7" r=".3"/>
					<circle cy="583.1" cx="998.7" r=".3"/>
					<path d="m998.7 582.8s1.1 0 2.1 0.1c1.1 0.1 2.1 0.2 2.1 0.2s-1.1 0.1-2.1 0.2c-1.1 0.1-2.1 0.1-2.1 0.1-0.2 0-0.3-0.1-0.3-0.3s0.1-0.3 0.3-0.3c-0.1 0 0 0 0 0z"/>
				</g>
				<g fill="#414042">
					<path d="m974.7 571.2s0.8-0.1 1.9-0.1c1.1-0.1 2.6-0.2 4.1-0.2 3-0.1 6-0.1 6-0.1 0.3 0 0.5 0.2 0.5 0.5s-0.2 0.5-0.5 0.5-3 0-6-0.1c-1.5-0.1-3-0.1-4.1-0.2-1.2-0.2-1.9-0.3-1.9-0.3z"/>
					<circle cy="571.2" cx="986.7"/>
					<circle cy="571.2" cx="986.7"/>
					<path d="m986.7 570.7h6c1.5 0 3 0.1 4.1 0.1s1.9 0.1 1.9 0.1c0.2 0 0.3 0.1 0.3 0.3 0 0.1-0.1 0.3-0.3 0.3 0 0-0.8 0-1.9 0.1s-2.6 0.1-4.1 0.1c-3 0.1-6 0-6 0-0.3 0-0.5-0.2-0.5-0.5s0.2-0.5 0.5-0.5z"/>
					<circle cy="571.2" cx="998.7" r=".3"/>
					<circle cy="571.2" cx="998.7" r=".3"/>
					<path d="m998.7 570.9s1.1 0 2.1 0.1c1.1 0.1 2.1 0.2 2.1 0.2s-1.1 0.1-2.1 0.2c-1.1 0.1-2.1 0.1-2.1 0.1-0.2 0-0.3-0.1-0.3-0.3 0-0.1 0.1-0.3 0.3-0.3-0.1 0 0 0 0 0z"/>
				</g>
				<g fill="#414042">
					<path d="m974.7 559.3s0.8-0.1 1.9-0.1c1.1-0.1 2.6-0.2 4.1-0.2 3-0.1 6-0.1 6-0.1 0.3 0 0.5 0.2 0.5 0.5s-0.2 0.5-0.5 0.5-3 0-6-0.1c-1.5-0.1-3-0.1-4.1-0.2-1.2-0.2-1.9-0.3-1.9-0.3z"/>
					<circle cy="559.3" cx="986.7"/>
					<circle cy="559.3" cx="986.7"/>
					<path d="m986.7 558.8h6c1.5 0 3 0.1 4.1 0.1s1.9 0.1 1.9 0.1c0.2 0 0.3 0.1 0.3 0.3 0 0.1-0.1 0.3-0.3 0.3 0 0-0.8 0-1.9 0.1s-2.6 0.1-4.1 0.1c-3 0.1-6 0-6 0-0.3 0-0.5-0.2-0.5-0.5 0-0.2 0.2-0.5 0.5-0.5z"/>
					<circle cy="559.3" cx="998.7" r=".3"/>
					<circle cy="559.3" cx="998.7" r=".3"/>
					<path d="m998.7 559s1.1 0 2.1 0.1c1.1 0.1 2.1 0.2 2.1 0.2s-1.1 0.1-2.1 0.2c-1.1 0.1-2.1 0.1-2.1 0.1-0.2 0-0.3-0.1-0.3-0.3s0.1-0.2 0.3-0.3c-0.1 0 0 0 0 0z"/>
				</g>
				<g fill="#414042">
					<path d="m974.7 547.4s0.8-0.1 1.9-0.1c1.1-0.1 2.6-0.2 4.1-0.2 3-0.1 6-0.1 6-0.1 0.3 0 0.5 0.2 0.5 0.5s-0.2 0.5-0.5 0.5-3 0-6-0.1c-1.5-0.1-3-0.1-4.1-0.2-1.2-0.2-1.9-0.3-1.9-0.3z"/>
					<circle cy="547.4" cx="986.7"/>
					<circle cy="547.4" cx="986.7"/>
					<path d="m986.7 547h6c1.5 0 3 0.1 4.1 0.1s1.9 0.1 1.9 0.1c0.2 0 0.3 0.1 0.3 0.3 0 0.1-0.1 0.3-0.3 0.3 0 0-0.8 0-1.9 0.1s-2.6 0.1-4.1 0.1c-3 0.1-6 0-6 0-0.3 0-0.5-0.2-0.5-0.5s0.2-0.5 0.5-0.5z"/>
					<circle cy="547.4" cx="998.7" r=".3"/>
					<circle cy="547.4" cx="998.7" r=".3"/>
					<path d="m998.7 547.2s1.1 0 2.1 0.1c1.1 0.1 2.1 0.2 2.1 0.2s-1.1 0.1-2.1 0.2c-1.1 0.1-2.1 0.1-2.1 0.1-0.2 0-0.3-0.1-0.3-0.3s0.1-0.3 0.3-0.3c-0.1 0 0 0 0 0z"/>
				</g>
				<g fill="#414042">
					<path d="m974.7 535.6s0.8-0.1 1.9-0.1c1.1-0.1 2.6-0.2 4.1-0.2 3-0.1 6-0.1 6-0.1 0.3 0 0.5 0.2 0.5 0.5s-0.2 0.5-0.5 0.5-3 0-6-0.1c-1.5-0.1-3-0.1-4.1-0.2-1.2-0.3-1.9-0.3-1.9-0.3z"/>
					<circle cy="535.6" cx="986.7"/>
					<circle cy="535.6" cx="986.7"/>
					<path d="m986.7 535.1h6c1.5 0 3 0.1 4.1 0.1s1.9 0.1 1.9 0.1c0.2 0 0.3 0.1 0.3 0.3 0 0.1-0.1 0.3-0.3 0.3 0 0-0.8 0-1.9 0.1s-2.6 0.1-4.1 0.1c-3 0.1-6 0-6 0-0.3 0-0.5-0.2-0.5-0.5s0.2-0.5 0.5-0.5z"/>
					<circle cy="535.6" cx="998.7" r=".3"/>
					<circle cy="535.6" cx="998.7" r=".3"/>
					<path d="m998.7 535.3s1.1 0 2.1 0.1c1.1 0.1 2.1 0.2 2.1 0.2s-1.1 0.1-2.1 0.2c-1.1 0.1-2.1 0.1-2.1 0.1-0.2 0-0.3-0.1-0.3-0.3s0.1-0.3 0.3-0.3c-0.1 0 0 0 0 0z"/>
				</g>
				<g fill="#414042">
					<path d="m974.7 523.7s0.8-0.1 1.9-0.1c1.1-0.1 2.6-0.2 4.1-0.2 3-0.1 6-0.1 6-0.1 0.3 0 0.5 0.2 0.5 0.5s-0.2 0.5-0.5 0.5c0 0-3 0-6-0.1-1.5-0.1-3-0.1-4.1-0.2-1.2-0.2-1.9-0.3-1.9-0.3z"/>
					<circle cy="523.7" cx="986.7"/>
					<circle cy="523.7" cx="986.7"/>
					<path d="m986.7 523.2h6c1.5 0 3 0.1 4.1 0.1s1.9 0.1 1.9 0.1c0.2 0 0.3 0.1 0.3 0.3 0 0.1-0.1 0.3-0.3 0.3 0 0-0.8 0-1.9 0.1s-2.6 0.1-4.1 0.1c-3 0.1-6 0-6 0-0.3 0-0.5-0.2-0.5-0.5s0.2-0.5 0.5-0.5z"/>
					<circle cy="523.7" cx="998.7" r=".3"/>
					<circle cy="523.7" cx="998.7" r=".3"/>
					<path d="m998.7 523.4s1.1 0 2.1 0.1c1.1 0.1 2.1 0.2 2.1 0.2s-1.1 0.1-2.1 0.2c-1.1 0.1-2.1 0.1-2.1 0.1-0.2 0-0.3-0.1-0.3-0.3s0.1-0.3 0.3-0.3c-0.1 0 0 0 0 0z"/>
				</g>
				<g fill="#414042">
					<path d="m974.7 511.8s0.8-0.1 1.9-0.1c1.1-0.1 2.6-0.2 4.1-0.2 3-0.1 6-0.1 6-0.1 0.3 0 0.5 0.2 0.5 0.5s-0.2 0.5-0.5 0.5c0 0-3 0-6-0.1-1.5-0.1-3-0.1-4.1-0.2-1.2-0.2-1.9-0.3-1.9-0.3z"/>
					<circle cy="511.8" cx="986.7"/>
					<circle cy="511.8" cx="986.7"/>
					<path d="m986.7 511.3h6c1.5 0 3 0.1 4.1 0.1s1.9 0.1 1.9 0.1c0.2 0 0.3 0.1 0.3 0.3 0 0.1-0.1 0.3-0.3 0.3 0 0-0.8 0-1.9 0.1s-2.6 0.1-4.1 0.1c-3 0.1-6 0-6 0-0.3 0-0.5-0.2-0.5-0.5s0.2-0.5 0.5-0.5z"/>
					<circle cy="511.8" cx="998.7" r=".3"/>
					<circle cy="511.8" cx="998.7" r=".3"/>
					<path d="m998.7 511.5s1.1 0 2.1 0.1c1.1 0.1 2.1 0.2 2.1 0.2s-1.1 0.1-2.1 0.2c-1.1 0.1-2.1 0.1-2.1 0.1-0.2 0-0.3-0.1-0.3-0.3 0-0.1 0.1-0.3 0.3-0.3-0.1 0 0 0 0 0z"/>
				</g>
		</g>
		<g clip-path="url(#SVGID_3_)">
			<polygon stroke="#231F20" points="655.9 678.3 655.9 559 649.4 559 649.4 553.2 639.8 553.2 639.8 545.8 634.2 545.8 634.2 553.2 625.4 553.2 625.4 559 610.2 559 610.2 678.3" stroke-miterlimit="10" fill="#fff"/>
			<polygon stroke="#231F20" points="679 678.3 679 584 676.3 584 676.3 579.3 672.3 579.3 672.3 573.5 670 573.5 670 579.3 666.4 579.3 666.4 584 660.1 584 660.1 678.3" stroke-miterlimit="10" fill="#fff"/>
				<g fill="#414042">
					<path d="m617.5 673.4s3-0.2 6-0.3 6-0.2 6-0.2c0.3 0 0.5 0.2 0.5 0.5s-0.2 0.5-0.5 0.5c0 0-3 0-6-0.2-3 0-6-0.3-6-0.3z"/>
					<circle cy="673.4" cx="629.5"/>
					<circle cy="673.4" cx="629.5"/>
					<path d="m629.5 672.9h6c1.5 0 3 0 4.1 0.1 1.1 0 1.9 0.1 1.9 0.1 0.2 0 0.4 0.2 0.3 0.4 0 0.2-0.2 0.3-0.3 0.3 0 0-0.8 0-1.9 0.1-1.1 0-2.6 0.1-4.1 0.1h-6c-0.3 0-0.5-0.2-0.5-0.5 0.1-0.4 0.3-0.6 0.5-0.6z"/>
					<circle cy="673.4" cx="641.5" r=".4"/>
					<circle cy="673.4" cx="641.5" r=".4"/>
					<path d="m641.5 673.1h1.1c0.7 0 1.5 0 2.4 0.1s1.8 0.1 2.4 0.1c0.7 0 1.1 0.1 1.1 0.1s-0.4 0-1.1 0.1c-0.7 0-1.5 0.1-2.4 0.1-0.9 0.1-1.8 0.1-2.4 0.1h-1.1c-0.2 0-0.4-0.1-0.4-0.3 0.1-0.2 0.2-0.3 0.4-0.3z"/>
				</g>
				<g fill="#414042">
					<path d="m617.5 665s3-0.2 6-0.3 6-0.2 6-0.2c0.3 0 0.5 0.2 0.5 0.5s-0.2 0.5-0.5 0.5c0 0-3 0-6-0.2-3-0.1-6-0.3-6-0.3z"/>
					<circle cy="665" cx="629.5"/>
					<circle cy="665" cx="629.5"/>
					<path d="m629.5 664.5h6c1.5 0 3 0 4.1 0.1 1.1 0 1.9 0.1 1.9 0.1 0.2 0 0.4 0.2 0.3 0.4 0 0.2-0.2 0.3-0.3 0.3 0 0-0.8 0-1.9 0.1-1.1 0-2.6 0.1-4.1 0.1h-6c-0.3 0-0.5-0.2-0.5-0.5 0.1-0.4 0.3-0.6 0.5-0.6z"/>
					<circle cy="665" cx="641.5" r=".4"/>
					<circle cy="665" cx="641.5" r=".4"/>
					<path d="m641.5 664.6h1.1c0.7 0 1.5 0 2.4 0.1s1.8 0.1 2.4 0.1c0.7 0 1.1 0.1 1.1 0.1s-0.4 0-1.1 0.1c-0.7 0-1.5 0.1-2.4 0.1-0.9 0.1-1.8 0.1-2.4 0.1h-1.1c-0.2 0-0.4-0.1-0.4-0.3 0.1-0.1 0.2-0.3 0.4-0.3z"/>
				</g>
				<g fill="#414042">
					<path d="m617.5 656.5s3-0.2 6-0.3 6-0.2 6-0.2c0.3 0 0.5 0.2 0.5 0.5s-0.2 0.5-0.5 0.5c0 0-3 0-6-0.2-3 0-6-0.3-6-0.3z"/>
					<circle cy="656.5" cx="629.5"/>
					<circle cy="656.5" cx="629.5"/>
					<path d="m629.5 656.1h6c1.5 0 3 0 4.1 0.1 1.1 0 1.9 0.1 1.9 0.1 0.2 0 0.4 0.2 0.3 0.4 0 0.2-0.2 0.3-0.3 0.3 0 0-0.8 0-1.9 0.1-1.1 0-2.6 0.1-4.1 0.1h-6c-0.3 0-0.5-0.2-0.5-0.5 0.1-0.4 0.3-0.6 0.5-0.6z"/>
					<circle cy="656.5" cx="641.5" r=".4"/>
					<circle cy="656.5" cx="641.5" r=".4"/>
					<path d="m641.5 656.2h1.1c0.7 0 1.5 0 2.4 0.1s1.8 0.1 2.4 0.1c0.7 0 1.1 0.1 1.1 0.1s-0.4 0-1.1 0.1c-0.7 0-1.5 0.1-2.4 0.1-0.9 0.1-1.8 0.1-2.4 0.1h-1.1c-0.2 0-0.4-0.1-0.4-0.3 0.1-0.2 0.2-0.3 0.4-0.3z"/>
				</g>
				<g fill="#414042">
					<path d="m617.5 648.1s3-0.2 6-0.3 6-0.2 6-0.2c0.3 0 0.5 0.2 0.5 0.5s-0.2 0.5-0.5 0.5c0 0-3 0-6-0.2-3-0.1-6-0.3-6-0.3z"/>
					<circle cy="648.1" cx="629.5"/>
					<circle cy="648.1" cx="629.5"/>
					<path d="m629.5 647.6h6c1.5 0 3 0 4.1 0.1 1.1 0 1.9 0.1 1.9 0.1 0.2 0 0.4 0.2 0.3 0.4 0 0.2-0.2 0.3-0.3 0.3 0 0-0.8 0-1.9 0.1-1.1 0-2.6 0.1-4.1 0.1h-6c-0.3 0-0.5-0.2-0.5-0.5 0.1-0.4 0.3-0.6 0.5-0.6z"/>
					<circle cy="648.1" cx="641.5" r=".4"/>
					<circle cy="648.1" cx="641.5" r=".4"/>
					<path d="m641.5 647.7h1.1c0.7 0 1.5 0 2.4 0.1s1.8 0.1 2.4 0.1c0.7 0 1.1 0.1 1.1 0.1s-0.4 0-1.1 0.1c-0.7 0-1.5 0.1-2.4 0.1-0.9 0.1-1.8 0.1-2.4 0.1h-1.1c-0.2 0-0.4-0.1-0.4-0.3 0.1-0.1 0.2-0.3 0.4-0.3z"/>
				</g>
				<g fill="#414042">
					<path d="m617.5 639.7s3-0.2 6-0.3 6-0.2 6-0.2c0.3 0 0.5 0.2 0.5 0.5s-0.2 0.5-0.5 0.5c0 0-3 0-6-0.2-3-0.1-6-0.3-6-0.3z"/>
					<circle cy="639.7" cx="629.5"/>
					<circle cy="639.7" cx="629.5"/>
					<path d="m629.5 639.2h6c1.5 0 3 0 4.1 0.1 1.1 0 1.9 0.1 1.9 0.1 0.2 0 0.4 0.2 0.3 0.4 0 0.2-0.2 0.3-0.3 0.3 0 0-0.8 0-1.9 0.1-1.1 0-2.6 0.1-4.1 0.1h-6c-0.3 0-0.5-0.2-0.5-0.5 0.1-0.4 0.3-0.6 0.5-0.6z"/>
					<circle cy="639.7" cx="641.5" r=".4"/>
					<circle cy="639.7" cx="641.5" r=".4"/>
					<path d="m641.5 639.3h1.1c0.7 0 1.5 0 2.4 0.1s1.8 0.1 2.4 0.1c0.7 0 1.1 0.1 1.1 0.1s-0.4 0-1.1 0.1c-0.7 0-1.5 0.1-2.4 0.1-0.9 0.1-1.8 0.1-2.4 0.1h-1.1c-0.2 0-0.4-0.1-0.4-0.3s0.2-0.3 0.4-0.3z"/>
				</g>
				<g fill="#414042">
					<path d="m617.5 631.2s3-0.2 6-0.3 6-0.2 6-0.2c0.3 0 0.5 0.2 0.5 0.5s-0.2 0.5-0.5 0.5c0 0-3 0-6-0.2-3 0-6-0.3-6-0.3z"/>
					<circle cy="631.2" cx="629.5"/>
					<circle cy="631.2" cx="629.5"/>
					<path d="m629.5 630.7h6c1.5 0 3 0 4.1 0.1 1.1 0 1.9 0.1 1.9 0.1 0.2 0 0.4 0.2 0.3 0.4 0 0.2-0.2 0.3-0.3 0.3 0 0-0.8 0-1.9 0.1-1.1 0-2.6 0.1-4.1 0.1h-6c-0.3 0-0.5-0.2-0.5-0.5 0.1-0.3 0.3-0.6 0.5-0.6z"/>
					<circle cy="631.2" cx="641.5" r=".4"/>
					<circle cy="631.2" cx="641.5" r=".4"/>
					<path d="m641.5 630.9h1.1c0.7 0 1.5 0 2.4 0.1s1.8 0.1 2.4 0.1c0.7 0 1.1 0.1 1.1 0.1s-0.4 0-1.1 0.1c-0.7 0-1.5 0.1-2.4 0.1-0.9 0.1-1.8 0.1-2.4 0.1h-1.1c-0.2 0-0.4-0.1-0.4-0.3 0.1-0.2 0.2-0.3 0.4-0.3z"/>
				</g>
				<g fill="#414042">
					<path d="m617.5 622.8s3-0.2 6-0.3 6-0.2 6-0.2c0.3 0 0.5 0.2 0.5 0.5s-0.2 0.5-0.5 0.5c0 0-3 0-6-0.2-3-0.1-6-0.3-6-0.3z"/>
					<circle cy="622.8" cx="629.5"/>
					<circle cy="622.8" cx="629.5"/>
					<path d="m629.5 622.3h6c1.5 0 3 0 4.1 0.1 1.1 0 1.9 0.1 1.9 0.1 0.2 0 0.4 0.2 0.3 0.4 0 0.2-0.2 0.3-0.3 0.3 0 0-0.8 0-1.9 0.1-1.1 0-2.6 0.1-4.1 0.1h-6c-0.3 0-0.5-0.2-0.5-0.5 0.1-0.4 0.3-0.6 0.5-0.6z"/>
					<circle cy="622.8" cx="641.5" r=".4"/>
					<circle cy="622.8" cx="641.5" r=".4"/>
					<path d="m641.5 622.4h1.1c0.7 0 1.5 0 2.4 0.1s1.8 0.1 2.4 0.1c0.7 0 1.1 0.1 1.1 0.1s-0.4 0-1.1 0.1c-0.7 0-1.5 0.1-2.4 0.1-0.9 0.1-1.8 0.1-2.4 0.1h-1.1c-0.2 0-0.4-0.1-0.4-0.3 0.1-0.1 0.2-0.3 0.4-0.3z"/>
				</g>
				<g fill="#414042">
					<path d="m617.5 614.3s3-0.2 6-0.3 6-0.2 6-0.2c0.3 0 0.5 0.2 0.5 0.5s-0.2 0.5-0.5 0.5c0 0-3 0-6-0.2-3 0-6-0.3-6-0.3z"/>
					<circle cy="614.3" cx="629.5"/>
					<circle cy="614.3" cx="629.5"/>
					<path d="m629.5 613.9h6c1.5 0 3 0 4.1 0.1 1.1 0 1.9 0.1 1.9 0.1 0.2 0 0.4 0.2 0.3 0.4 0 0.2-0.2 0.3-0.3 0.3 0 0-0.8 0-1.9 0.1-1.1 0-2.6 0.1-4.1 0.1h-6c-0.3 0-0.5-0.2-0.5-0.5 0.1-0.4 0.3-0.6 0.5-0.6z"/>
					<circle cy="614.3" cx="641.5" r=".4"/>
					<circle cy="614.3" cx="641.5" r=".4"/>
					<path d="m641.5 614h1.1c0.7 0 1.5 0 2.4 0.1s1.8 0.1 2.4 0.1c0.7 0 1.1 0.1 1.1 0.1s-0.4 0-1.1 0.1c-0.7 0-1.5 0.1-2.4 0.1-0.9 0.1-1.8 0.1-2.4 0.1h-1.1c-0.2 0-0.4-0.1-0.4-0.3 0.1-0.1 0.2-0.3 0.4-0.3z"/>
				</g>
				<g fill="#414042">
					<path d="m617.5 605.9s3-0.2 6-0.3 6-0.2 6-0.2c0.3 0 0.5 0.2 0.5 0.5s-0.2 0.5-0.5 0.5c0 0-3 0-6-0.2-3-0.1-6-0.3-6-0.3z"/>
					<circle cy="605.9" cx="629.5"/>
					<circle cy="605.9" cx="629.5"/>
					<path d="m629.5 605.4h6c1.5 0 3 0 4.1 0.1 1.1 0 1.9 0.1 1.9 0.1 0.2 0 0.4 0.2 0.3 0.4 0 0.2-0.2 0.3-0.3 0.3 0 0-0.8 0-1.9 0.1-1.1 0-2.6 0.1-4.1 0.1h-6c-0.3 0-0.5-0.2-0.5-0.5 0.1-0.4 0.3-0.6 0.5-0.6z"/>
					<circle cy="605.9" cx="641.5" r=".4"/>
					<circle cy="605.9" cx="641.5" r=".4"/>
					<path d="m641.5 605.5h1.1c0.7 0 1.5 0 2.4 0.1s1.8 0.1 2.4 0.1c0.7 0 1.1 0.1 1.1 0.1s-0.4 0-1.1 0.1c-0.7 0-1.5 0.1-2.4 0.1-0.9 0.1-1.8 0.1-2.4 0.1h-1.1c-0.2 0-0.4-0.1-0.4-0.3 0.1-0.1 0.2-0.2 0.4-0.3z"/>
				</g>
				<g fill="#414042">
					<path d="m617.5 597.5s3-0.2 6-0.3 6-0.2 6-0.2c0.3 0 0.5 0.2 0.5 0.5s-0.2 0.5-0.5 0.5c0 0-3 0-6-0.2-3-0.1-6-0.3-6-0.3z"/>
					<circle cy="597.5" cx="629.5"/>
					<circle cy="597.5" cx="629.5"/>
					<path d="m629.5 597h6c1.5 0 3 0 4.1 0.1 1.1 0 1.9 0.1 1.9 0.1 0.2 0 0.4 0.2 0.3 0.4 0 0.2-0.2 0.3-0.3 0.3 0 0-0.8 0-1.9 0.1-1.1 0-2.6 0.1-4.1 0.1h-6c-0.3 0-0.5-0.2-0.5-0.5 0.1-0.4 0.3-0.6 0.5-0.6z"/>
					<circle cy="597.5" cx="641.5" r=".4"/>
					<circle cy="597.5" cx="641.5" r=".4"/>
					<path d="m641.5 597.1h1.1c0.7 0 1.5 0 2.4 0.1s1.8 0.1 2.4 0.1c0.7 0 1.1 0.1 1.1 0.1s-0.4 0-1.1 0.1c-0.7 0-1.5 0.1-2.4 0.1-0.9 0.1-1.8 0.1-2.4 0.1h-1.1c-0.2 0-0.4-0.1-0.4-0.3s0.2-0.3 0.4-0.3z"/>
				</g>
				<g fill="#414042">
					<path d="m617.5 589s3-0.2 6-0.3 6-0.2 6-0.2c0.3 0 0.5 0.2 0.5 0.5s-0.2 0.5-0.5 0.5c0 0-3 0-6-0.2-3 0-6-0.3-6-0.3z"/>
					<circle cy="589" cx="629.5"/>
					<circle cy="589" cx="629.5"/>
					<path d="m629.5 588.5h6c1.5 0 3 0 4.1 0.1 1.1 0 1.9 0.1 1.9 0.1 0.2 0 0.4 0.2 0.3 0.4 0 0.2-0.2 0.3-0.3 0.3 0 0-0.8 0-1.9 0.1-1.1 0-2.6 0.1-4.1 0.1h-6c-0.3 0-0.5-0.2-0.5-0.5 0.1-0.3 0.3-0.6 0.5-0.6z"/>
					<circle cy="589" cx="641.5" r=".4"/>
					<circle cy="589" cx="641.5" r=".4"/>
					<path d="m641.5 588.7h1.1c0.7 0 1.5 0 2.4 0.1s1.8 0.1 2.4 0.1c0.7 0 1.1 0.1 1.1 0.1s-0.4 0-1.1 0.1c-0.7 0-1.5 0.1-2.4 0.1-0.9 0.1-1.8 0.1-2.4 0.1h-1.1c-0.2 0-0.4-0.1-0.4-0.3 0.1-0.2 0.2-0.3 0.4-0.3z"/>
				</g>
				<g fill="#414042">
					<path d="m617.5 580.6s3-0.2 6-0.3 6-0.2 6-0.2c0.3 0 0.5 0.2 0.5 0.5s-0.2 0.5-0.5 0.5c0 0-3 0-6-0.2-3-0.1-6-0.3-6-0.3z"/>
					<circle cy="580.6" cx="629.5"/>
					<circle cy="580.6" cx="629.5"/>
					<path d="m629.5 580.1h6c1.5 0 3 0 4.1 0.1 1.1 0 1.9 0.1 1.9 0.1 0.2 0 0.4 0.2 0.3 0.4 0 0.2-0.2 0.3-0.3 0.3 0 0-0.8 0-1.9 0.1-1.1 0-2.6 0.1-4.1 0.1h-6c-0.3 0-0.5-0.2-0.5-0.5 0.1-0.4 0.3-0.6 0.5-0.6z"/>
					<circle cy="580.6" cx="641.5" r=".4"/>
					<circle cy="580.6" cx="641.5" r=".4"/>
					<path d="m641.5 580.2h1.1c0.7 0 1.5 0 2.4 0.1s1.8 0.1 2.4 0.1c0.7 0 1.1 0.1 1.1 0.1s-0.4 0-1.1 0.1c-0.7 0-1.5 0.1-2.4 0.1-0.9 0.1-1.8 0.1-2.4 0.1h-1.1c-0.2 0-0.4-0.1-0.4-0.3 0.1-0.1 0.2-0.3 0.4-0.3z"/>
				</g>
				<g fill="#414042">
					<path d="m617.5 572.1s3-0.2 6-0.3 6-0.2 6-0.2c0.3 0 0.5 0.2 0.5 0.5s-0.2 0.5-0.5 0.5c0 0-3 0-6-0.2-3 0-6-0.3-6-0.3z"/>
					<circle cy="572.1" cx="629.5"/>
					<circle cy="572.1" cx="629.5"/>
					<path d="m629.5 571.7h6c1.5 0 3 0 4.1 0.1 1.1 0 1.9 0.1 1.9 0.1 0.2 0 0.4 0.2 0.3 0.4 0 0.2-0.2 0.3-0.3 0.3 0 0-0.8 0-1.9 0.1-1.1 0-2.6 0.1-4.1 0.1h-6c-0.3 0-0.5-0.2-0.5-0.5 0.1-0.4 0.3-0.6 0.5-0.6z"/>
					<circle cy="572.1" cx="641.5" r=".4"/>
					<circle cy="572.1" cx="641.5" r=".4"/>
					<path d="m641.5 571.8h1.1c0.7 0 1.5 0 2.4 0.1s1.8 0.1 2.4 0.1c0.7 0 1.1 0.1 1.1 0.1s-0.4 0-1.1 0.1c-0.7 0-1.5 0.1-2.4 0.1-0.9 0.1-1.8 0.1-2.4 0.1h-1.1c-0.2 0-0.4-0.1-0.4-0.3 0.1-0.1 0.2-0.3 0.4-0.3z"/>
				</g>
				<g fill="#414042">
					<path d="m617.5 563.7s3-0.2 6-0.3 6-0.2 6-0.2c0.3 0 0.5 0.2 0.5 0.5s-0.2 0.5-0.5 0.5c0 0-3 0-6-0.2-3-0.1-6-0.3-6-0.3z"/>
					<circle cy="563.7" cx="629.5"/>
					<circle cy="563.7" cx="629.5"/>
					<path d="m629.5 563.2h6c1.5 0 3 0 4.1 0.1 1.1 0 1.9 0.1 1.9 0.1 0.2 0 0.4 0.2 0.3 0.4 0 0.2-0.2 0.3-0.3 0.3 0 0-0.8 0-1.9 0.1-1.1 0-2.6 0.1-4.1 0.1h-6c-0.3 0-0.5-0.2-0.5-0.5 0.1-0.4 0.3-0.6 0.5-0.6z"/>
					<circle cy="563.7" cx="641.5" r=".4"/>
					<circle cy="563.7" cx="641.5" r=".4"/>
					<path d="m641.5 563.3h1.1c0.7 0 1.5 0 2.4 0.1s1.8 0.1 2.4 0.1c0.7 0 1.1 0.1 1.1 0.1s-0.4 0-1.1 0.1c-0.7 0-1.5 0.1-2.4 0.1-0.9 0.1-1.8 0.1-2.4 0.1h-1.1c-0.2 0-0.4-0.1-0.4-0.3 0.1-0.1 0.2-0.2 0.4-0.3z"/>
				</g>
				<line y2="675.3" x2="665.4" stroke="#414042" stroke-linecap="round" stroke-dasharray="12,0,0,0,0,0" y1="587.4" stroke-miterlimit="20" x1="665.4" fill="none"/>
				<line y2="675.3" x2="669.5" stroke="#414042" stroke-linecap="round" stroke-dasharray="12,0,0,0,0,0" y1="587.4" stroke-miterlimit="20" x1="669.5" fill="none"/>
				<line y2="675.3" x2="673.7" stroke="#414042" stroke-linecap="round" stroke-dasharray="12,0,0,0,0,0" y1="587.4" stroke-miterlimit="20" x1="673.7" fill="none"/>
		</g>
		<g clip-path="url(#SVGID_3_)">
			<polygon stroke="#231F20" points="404.2 539.8 442.6 539.8 442.6 528.8 452 528.8 452 514.9 463.1 514.9 463.1 502.8 475.5 502.8 475.5 678.3 404.2 678.3" stroke-miterlimit="10" fill="#fff"/>
				<line y2="678.3" x2="463.1" stroke="#414042" stroke-linecap="round" stroke-dasharray="12,0,0,0,0,0" y1="514.9" stroke-miterlimit="20" x1="463.1" fill="none"/>
				<line y2="678.3" x2="452" stroke="#414042" stroke-linecap="round" stroke-dasharray="12,0,0,0,0,0" y1="528.8" stroke-miterlimit="20" x1="452" fill="none"/>
				<line y2="678.3" x2="441.8" stroke="#414042" stroke-linecap="round" stroke-dasharray="12,0,0,0,0,0" y1="539.8" stroke-miterlimit="20" x1="441.8" fill="none"/>
				<line y2="678.3" x2="433.2" stroke="#414042" stroke-linecap="round" stroke-dasharray="12,0,0,0,0,0" y1="540.3" stroke-miterlimit="20" x1="433.2" fill="none"/>
				<line y2="678.3" x2="424.4" stroke="#414042" stroke-linecap="round" stroke-dasharray="12,0,0,0,0,0" y1="540.3" stroke-miterlimit="20" x1="424.4" fill="none"/>
				<line y2="678.3" x2="415.6" stroke="#414042" stroke-linecap="round" stroke-dasharray="12,0,0,0,0,0" y1="540.3" stroke-miterlimit="20" x1="415.6" fill="none"/>
		</g>
		<g clip-path="url(#SVGID_3_)">
			<g stroke="#231F20" stroke-miterlimit="10" fill="#fff">
				<rect height="109.6" width="126.9" y="568.7" x="793.7"/>
				<rect height="14.8" width="95.5" y="553.9" x="809.4"/>
				<rect height="11.1" width="63.2" y="542.8" x="825.5"/>
			</g>
				<line y2="678.3" x2="809.4" stroke="#414042" stroke-linecap="round" stroke-dasharray="12,0,0,0,0,0" y1="568.7" stroke-miterlimit="20" x1="809.4" fill="none"/>
				<line y2="678.3" x2="825.5" stroke="#414042" stroke-linecap="round" stroke-dasharray="12,0,0,0,0,0" y1="568.7" stroke-miterlimit="20" x1="825.5" fill="none"/>
				<line y2="678.3" x2="841.7" stroke="#414042" stroke-linecap="round" stroke-dasharray="12,0,0,0,0,0" y1="568.7" stroke-miterlimit="20" x1="841.7" fill="none"/>
				<line y2="678.3" x2="857.8" stroke="#414042" stroke-linecap="round" stroke-dasharray="12,0,0,0,0,0" y1="568.7" stroke-miterlimit="20" x1="857.8" fill="none"/>
				<line y2="678.3" x2="874" stroke="#414042" stroke-linecap="round" stroke-dasharray="12,0,0,0,0,0" y1="568.7" stroke-miterlimit="20" x1="874" fill="none"/>
				<line y2="678.3" x2="890.1" stroke="#414042" stroke-linecap="round" stroke-dasharray="12,0,0,0,0,0" y1="568.7" stroke-miterlimit="20" x1="890.1" fill="none"/>
				<line y2="678.3" x2="906.3" stroke="#414042" stroke-linecap="round" stroke-dasharray="12,0,0,0,0,0" y1="568.7" stroke-miterlimit="20" x1="906.3" fill="none"/>
		</g>
		<g stroke="#2E3192" stroke-width="2" stroke-miterlimit="10" clip-path="url(#SVGID_3_)">
			<polyline fill="none" stroke-linecap="round" points="251 627.8 251 581.1 261.5 572.1 261.5 519.6 251 505.1 251 423.1 273.2 398.1 341.5 398.1 352 384.6 523 384.6 536 367.6 629.6 367.6 629.6 344.9"/>
			<circle r="5.3" cy="384.6" cx="407" fill="#fff"/>
			<circle r="5.3" cy="551" cx="261.5" fill="#fff"/>
		</g>
			<polyline clip-path="url(#SVGID_3_)" points="685.4 344.9 685.4 415.1 703.2 432.9 1014.5 432.9 1039.1 457.5 1039.1 561.6 1058 580.5 1058 645" stroke="#2E3192" stroke-linecap="round" stroke-miterlimit="10" stroke-width="2" fill="none"/>
			<polyline clip-path="url(#SVGID_3_)" points="655.6 344.9 655.6 426.3 646.5 435.4 646.5 478.6 636 487.6 636 528.9 642.3 538.6 642.3 549.5 639.8 549.5" stroke="#2E3192" stroke-linecap="round" stroke-miterlimit="10" stroke-width="2" fill="none"/>
		<g opacity=".02" clip-path="url(#SVGID_3_)">
			<polygon points="401.5 195 683 32.5 964.5 195 964.5 520 683 682.5 401.5 520" fill="#2895F1"/>
				<defs>
					<polygon id="SVGID_4_" points="401.5 195 683 32.5 964.5 195 964.5 520 683 682.5 401.5 520"/>
				</defs>
				<clipPath id="SVGID_5_">
					<use overflow="visible" xlink:href="#SVGID_4_"/>
				</clipPath>
				<polyline fill="#9B9DA0" points="493.2 462.2 462.5 371.4 476.4 337.9 563.8 277 636.9 211.8 734.8 200.6 766 197.1 1019.4 341.5 1021.2 769.9" clip-path="url(#SVGID_5_)"/>
			<path d="m917.6 368.5c-0.1 0.3-0.1 0.6-0.2 1v1.2 1.8c0 1.7-0.2 3.3-0.4 5l-0.6 4.2c-0.5 3.2-1.1 6.4-1.9 9.6-4.4 17.5-12.5 33.1-24.2 46.8-10.1 11.8-22.1 21.2-35.7 28.6-9.9 5.3-20.3 9.1-31.2 11.6-3 0.7-6 1.3-9.1 1.8-2.2 0.4-4.5 0.6-6.7 0.9-1.4 0.2-2.7 0.2-4.1 0.3-1.9 0.2-3.8 0.2-5.7 0.3-1.5 0.1-3.1 0.2-4.6 0.3-0.4 0-0.7 0.1-1.1 0.1-2.7 0.1-5.5 0.2-8.2 0.3-7 0.3-14 0.3-21 0.2-3.3 0-6.6-0.1-9.9-0.2-1.8 0-3.6 0-5.4-0.1-2.6-0.1-5.2-0.1-7.7-0.2-0.5 0-1.1-0.1-1.7 0.1-0.3 0.3-0.6 0.7-0.9 1-12.9 13.4-25.9 26.8-38.8 40.3-3.2 3.3-6.3 6.5-9.5 9.8l-0.7 0.7c-0.3 0.3-0.4 0.3-0.8 0-0.2-0.1-0.3-0.2-0.5-0.4-11.1-8.2-22.1-16.4-33.1-24.6-0.2-0.2-0.5-0.4-0.7-0.5 0 0-0.1-0.3 0-0.4 0.2-0.2 0.3-0.4 0.5-0.6 3.5-3.8 7-7.6 10.4-11.5 11.7-12.8 23.4-25.7 35.1-38.5 4.7-5.2 9.4-10.4 14.2-15.5 0.4-0.4 0.7-0.8 1.1-1.2 0.5-0.1 1.1-0.1 1.6-0.1 3.2-0.1 6.3-0.1 9.5 0 2.3 0.1 4.7 0.1 7 0.2 2.9 0.1 5.7 0.2 8.6 0.3 0.7 0 1.4 0.1 2.1 0.1 3.4 0.1 6.7 0.3 10.1 0.4 1 0 1.9 0.1 2.9 0.1 4.1 0.1 8.2 0.3 12.4 0.2 2.8 0 5.6-0.1 8.4-0.2 2.3 0 4.6-0.2 6.9-0.3 2.3-0.2 4.6-0.4 6.8-0.6 2.7-0.3 5.5-0.7 8.2-1.1 0.8-0.1 1.6-0.3 2.5-0.4 0.3-0.1 0.7-0.1 0.9-0.3s0.5-0.2 0.7-0.2c1.2-0.2 2.5-0.4 3.7-0.6 2-0.3 3.9-0.9 5.8-1.4 2.5-0.7 5-1.5 7.5-2.3 3-1.1 6-2.4 8.8-3.9 9-4.6 16.8-10.7 23.4-18.3 6.9-8 12-17 15-27.2 1-3.3 1.7-6.7 2.2-10.1 0.7-4.6 0.9-9.2 0.6-13.8-0.5-9.5-2.9-18.6-7-27.2-4.3-9-10.3-16.7-17.7-23.3-9.4-8.4-20.3-14.1-32.4-17.4-3-0.8-6-1.4-9-1.9-1.7-0.3-3.4-0.5-5.1-0.6-1.2-0.1-2.3-0.2-3.5-0.2-0.4 0-0.6-0.2-0.7-0.5s-0.3-0.6-0.4-0.9c-10.4-25.3-30.5-46.3-56.2-57.7-6.6-2.9-13.4-5.2-20.5-6.7-2.5-0.5-5.1-1-7.6-1.4-1.8-0.3-3.6-0.5-5.3-0.6-1.7-0.2-3.4-0.2-5.1-0.4-0.8-0.1-1.6-0.1-2.4-0.1h-6.3c-2 0.1-4 0.2-6 0.4-1.1 0.1-2.2 0.2-3.4 0.3-1.4 0.2-2.7 0.3-4.1 0.6-2.7 0.4-5.4 1-8.1 1.6-11.2 2.7-21.6 7-31.4 13-14.2 8.8-25.8 20.3-34.8 34.4-2.4 3.7-4.3 7.7-6 11.8-2 4.9-3.6 9.9-5 14.9-1.2 4.3-2.2 8.6-3 12.9 0 0.2-0.1 0.3-0.1 0.5 0 0.1-0.2 0.3-0.4 0.3h-0.6c-1.6-0.2-3.1-0.4-4.7-0.6-0.9-0.1-1.8-0.2-2.7-0.3-1.4-0.1-2.7-0.2-4.1-0.3-2.2-0.2-4.3-0.2-6.5-0.3-1.9-0.1-3.8-0.1-5.7 0-1.1 0.1-2.3 0.1-3.4 0.2-1.4 0.1-2.7 0.2-4.1 0.4-1.4 0.1-2.7 0.3-4.1 0.6-5.5 0.9-10.9 2.6-15.9 5-7.3 3.6-14 8.1-19.9 13.7-5.8 5.5-10.6 11.9-14.1 19.1-2.5 5.1-4.3 10.5-5.3 16.1-0.8 4.3-1.1 8.6-0.9 13 0.4 10.4 3.4 20 8.7 28.9 1.3 2.3 2.9 4.4 4.6 6.4 4.6 5.8 10 10.7 16.1 14.9 6.9 4.9 14.3 8.6 22.3 11.4 1 0.3 1 0.3 2.1 0.3 7.3-0.1 14.5-0.1 21.8-0.2 7.4 0 14.8-0.1 22.3-0.1 3.8 0 7.6-0.1 11.4-0.1 4.3 0 8.5-0.1 12.8-0.1h1.1c0.3 0 0.5-0.1 0.7-0.3l0.8-0.8c10.9-11.9 21.8-23.8 32.7-35.7 3.7-4 7.3-8 11-12 0.3-0.3 0.5-0.6 0.8-0.8 0 0 0.1-0.2 0.2-0.3-0.2-0.4-0.6-0.7-0.9-1l-11.9-11.9-0.8-0.8c-0.1-0.1-0.1-0.2-0.1-0.2 0-0.1 0.1-0.2 0.2-0.2 0.4 0 0.7-0.1 1.1-0.1 2.2-0.1 4.3-0.2 6.5-0.3 2-0.1 4-0.3 6-0.4l6-0.3c2.2-0.1 4.4-0.3 6.6-0.4h0.5c2.2-0.1 4.3-0.2 6.5-0.3 2-0.1 4-0.3 6-0.4h0.5c2.2-0.1 4.3-0.2 6.5-0.3 2-0.1 4-0.3 6-0.4s3.9-0.2 5.9-0.3c0.9 0 1.7-0.1 2.6-0.2 0.4 0 0.6 0.1 0.6 0.5 0.1 0.4 0.1 0.7 0.1 1.1 0.1 1.7 0.3 3.3 0.4 5 0.1 1.1 0.2 2.2 0.3 3.2 0.1 1.4 0.2 2.7 0.3 4.1s0.3 2.7 0.4 4.1c0.1 1 0.2 2.1 0.3 3.1 0.1 1.4 0.2 2.7 0.3 4.1s0.3 2.8 0.4 4.2c0.1 1.1 0.2 2.2 0.3 3.4 0.1 1.4 0.2 2.7 0.3 4.1s0.2 2.7 0.4 4.1c0.1 1 0.2 2.1 0.3 3.1 0.1 1.4 0.2 2.7 0.3 4.1s0.3 2.8 0.4 4.2v1.2s-0.1 0.1-0.2 0.1c-0.3-0.2-0.6-0.3-0.9-0.5-2.5-1.7-5-3.4-7.4-5.1-2.4-1.6-4.8-3.3-7.2-4.9-0.2-0.2-0.5-0.3-0.7-0.5-0.3-0.2-0.5-0.2-0.8 0.1s-0.5 0.6-0.8 0.8c-3.1 3.5-6.2 7-9.3 10.4-11.1 12.5-22.3 25-33.5 37.3-3.7 4-7.4 8-11 11.9l-3.9 3.9c-0.5 0.5-0.9 1-1.5 1.3-0.6 0-1.2 0.1-1.7 0.1h-101.9-0.3c-0.8 0.1-1.6-0.1-2.3-0.3-4.9-1.4-9.7-3-14.4-4.9-9.1-3.7-17.7-8.3-25.8-13.9-7.5-5.3-14.3-11.3-20.4-18.2-9.7-11.2-16.7-23.8-20.9-38.1-1-3.4-1.8-6.9-2.4-10.5-0.5-2.8-0.9-5.5-1.1-8.3-0.2-1.7-0.2-3.3-0.3-5 0-0.6-0.1-1.2-0.1-1.7 0-0.3-0.2-0.5-0.4-0.6v-6c0.2-0.1 0.4-0.4 0.4-0.6 0-0.3 0.1-0.7 0.1-1 0.1-2.5 0.4-5 0.7-7.5 0.6-3.8 1.4-7.6 2.4-11.4 2.1-7.3 5-14.3 8.8-20.9 5-9 11.3-17.2 18.5-24.6 11.2-11.4 24.2-20.4 38.8-26.9 9.5-4.2 19.3-7.3 29.5-9 0.3-0.1 0.6-0.2 1-0.3 0.2-0.4 0.3-0.7 0.5-1 6.6-14.5 15.4-27.5 26.2-39.2 12-12.9 25.8-23.5 41.3-31.8 18.2-9.7 37.6-15.7 58.1-18.1 0.9-0.1 1.8-0.2 2.7-0.3 1.4-0.1 2.8-0.3 4.2-0.4 2-0.1 4.1-0.2 6.1-0.3 0.4 0 0.8 0 1.1-0.2h10.8c0.3 0.1 0.6 0.2 0.8 0.2 1.9 0.1 3.7 0.2 5.6 0.3l4.2 0.3c1.8 0.2 3.6 0.4 5.5 0.6 2.9 0.3 5.9 0.8 8.8 1.4 4.6 0.9 9.2 1.9 13.8 3.2 15.7 4.3 30.4 10.8 44.2 19.6 18.7 12 34.3 27.2 46.5 45.8 0.7 1 0.4 0.9 1.7 1.3 6.8 2 13.5 4.6 19.9 7.7 15.4 7.6 28.8 17.8 39.9 30.9 11.5 13.6 19.5 29 23.8 46.3 0.8 3.2 1.5 6.4 1.9 9.7l0.6 4.2c0.2 1.6 0.4 3.1 0.4 4.7v1.8c0 0.5 0 1 0.1 1.5 0 0.3 0.1 0.7 0.2 1-0.6 1.9-0.6 4.4-0.6 6.9z" fill="#fff"/>
		</g>
		<g clip-path="url(#SVGID_3_)" stroke="#2E3192" stroke-linecap="round" stroke-miterlimit="10" stroke-width="2" fill="none">
			<polyline points="302.8 397.9 291.8 386.9 262.5 386.9"/>
				<circle r="4.6" cy="386.8" cx="257.9"/>
		</g>
		<g clip-path="url(#SVGID_3_)" stroke="#2E3192" stroke-linecap="round" stroke-miterlimit="10" stroke-width="2" fill="none">
			<polyline points="496 384.6 485 395.6 455.7 395.6"/>
				<circle r="4.6" cy="395.7" cx="451.2"/>
		</g>
		<g clip-path="url(#SVGID_3_)" stroke="#2E3192" stroke-linecap="round" stroke-miterlimit="10" stroke-width="2" fill="none">
			<polyline points="858 405 868.9 394.1 898.2 394.1"/>
				<circle r="4.6" cy="393.9" cx="902.8"/>
		</g>
		<g clip-path="url(#SVGID_3_)" stroke="#2E3192" stroke-linecap="round" stroke-miterlimit="10" stroke-width="2" fill="none">
			<polyline points="1090 571.6 1100.9 560.6 1130.2 560.6"/>
				<circle r="4.6" cy="560.4" cx="1134.8"/>
		</g>
		<g clip-path="url(#SVGID_3_)" stroke="#2E3192" stroke-linecap="round" stroke-miterlimit="10" stroke-width="2" fill="none">
			<polyline points="1162.6 405.5 1173.6 416.5 1202.9 416.5"/>
				<circle r="4.6" cy="416.6" cx="1207.4"/>
		</g>
		<g clip-path="url(#SVGID_3_)" stroke="#2E3192" stroke-linecap="round" stroke-miterlimit="10" stroke-width="2" fill="none">
			<polyline points="741.9 433.3 752.9 444.3 782.2 444.3"/>
				<circle r="4.6" cy="444.5" cx="786.8"/>
		</g>
		<g clip-path="url(#SVGID_3_)" stroke="#2E3192" stroke-linecap="round" stroke-miterlimit="10" stroke-width="2" fill="none">
			<polyline points="655.6 377.8 644.7 388.8 644.7 418.1"/>
				<circle r="4.6" cy="422.7" cx="644.5"/>
		</g>
		<g clip-path="url(#SVGID_3_)" stroke="#2E3192" stroke-linecap="round" stroke-miterlimit="10" stroke-width="2" fill="none">
			<polyline points="713 359.8 702.1 370.8 702.1 400.1"/>
				<circle r="4.6" cy="404.7" cx="701.9"/>
		</g>
		<g clip-path="url(#SVGID_3_)" stroke="#2E3192" stroke-linecap="round" stroke-miterlimit="10" stroke-width="2" fill="none">
			<polyline points="1038.7 504 1027.8 515 1027.8 544.3"/>
				<circle r="4.6" cy="548.9" cx="1027.6"/>
		</g>
		<g clip-path="url(#SVGID_3_)" stroke="#2E3192" stroke-linecap="round" stroke-miterlimit="10" stroke-width="2" fill="none">
			<polyline points="741.9 348.5 751.3 357.9 751.3 383"/>
				<circle r="3.9" cy="387" cx="751.4"/>
		</g>
		<g clip-path="url(#SVGID_3_)" stroke="#2E3192" stroke-linecap="round" stroke-miterlimit="10" stroke-width="2" fill="none">
			<polyline points="250.9 493 239.9 504 239.9 533.3"/>
				<circle r="4.6" cy="537.9" cx="239.8"/>
		</g>
		<g clip-path="url(#SVGID_3_)" stroke="#2E3192" stroke-linecap="round" stroke-miterlimit="10" stroke-width="2" fill="none">
			<polyline points="646.9 468.3 657.9 479.3 657.9 508.6"/>
				<circle r="4.6" cy="513.2" cx="658"/>
		</g>
			<polyline clip-path="url(#SVGID_3_)" points="741.9 344.9 741.9 390 761.2 405.1 1256.7 405.1 1269 412.9 1269 424.2" stroke="#2E3192" stroke-linecap="round" stroke-miterlimit="10" stroke-width="2" fill="none"/>
		<g clip-path="url(#SVGID_3_)">
			<polyline stroke="#231F20" stroke-width=".5" stroke-miterlimit="10" points="1370.1 426.9 1368 425.8 1381.3 408.7" fill="none"/>
			<circle cy="414.2" cx="1374.3" r="1.8" fill="#FC495F"/>
			<g stroke-width=".5" stroke-miterlimit="10">
				<path stroke="#231F20" d="m1389.7 409.3l-10.4-0.8-24 15.1-5.7-0.2v1.3s-13.9-2.4-19.7-0.4h-79.6s-5.9 0.1-15.7 7.3l-6.9 4.5s-0.4 0.5-0.4 1.2h126.4l9.6-1.9 7.8-1.9 3.2-4.4c0.3-0.4 0.2-1.1-0.2-1.4l-0.5-0.4 9.9-16.2 6.2-1.8z" fill="#fff"/>
					<line y2="420.2" x1="1361.7" x2="1378" stroke="#ED1C24" stroke-linecap="round" y1="419.6" fill="none"/>
					<line y2="421.1" x1="1360.2" x2="1377.4" stroke="#ED1C24" stroke-linecap="round" y1="420.5" fill="none"/>
					<line y2="422.1" x1="1358.7" x2="1376.8" stroke="#ED1C24" stroke-linecap="round" y1="421.4" fill="none"/>
				<path stroke="#231F20" d="m1342.6 426.2v3.1c0 0.7-0.5 1.4-1.2 1.5-1.5 0.3-4 0.8-5.1 0.8s-3.6-0.6-5.1-0.9c-0.7-0.2-1.2-0.7-1.2-1.4l-0.1-2.9c0-0.8 0.5-1.5 1.3-1.6 1.6-0.3 4.3-0.7 5.4-0.7 1 0 3.3 0.4 4.8 0.7 0.7 0 1.2 0.7 1.2 1.4z" fill="none"/>
				<path stroke="#231F20" d="m1343 424.7v5.7l7.4-0.9c0.7-0.1 1.2-0.7 1.2-1.4v-0.8c0-0.7-0.5-1.3-1.2-1.4l-7.4-1.2z" fill="none"/>
				<path stroke="#231F20" d="m1330.9 430.6v3.6c0 0.8 0.6 1.4 1.4 1.4h5c0.8 0 1.4-0.6 1.4-1.4v-2.8" fill="none"/>
				<polyline stroke="#231F20" points="1360.7 435.5 1367.1 426.9 1373.6 427.4" fill="none"/>
				<line y2="424.7" x1="1367.1" x2="1349.5" stroke="#231F20" y1="426.9" fill="none"/>
				<path stroke="#231F20" d="m1267.5 432.5h-0.8c-0.3 0-0.5-0.2-0.5-0.5v-2c0-0.3 0.2-0.5 0.5-0.5h0.8c0.3 0 0.5 0.2 0.5 0.5v2c0 0.2-0.2 0.5-0.5 0.5z" fill="#fff"/>
				<path stroke="#231F20" d="m1257.7 435.9h-3.2c-0.9 0-1.6-0.7-1.6-1.6v-7.2c0-0.9 0.7-1.6 1.6-1.6h3.2c0.9 0 1.6 0.7 1.6 1.6v7.2c0 0.9-0.7 1.6-1.6 1.6z" fill="none"/>
				<path stroke="#231F20" d="m1272.2 432.5h-0.8c-0.3 0-0.5-0.2-0.5-0.5v-2c0-0.3 0.2-0.5 0.5-0.5h0.8c0.3 0 0.5 0.2 0.5 0.5v2c0 0.2-0.2 0.5-0.5 0.5z" fill="#fff"/>
				<path stroke="#231F20" d="m1276.9 432.5h-0.8c-0.3 0-0.5-0.2-0.5-0.5v-2c0-0.3 0.2-0.5 0.5-0.5h0.8c0.3 0 0.5 0.2 0.5 0.5v2c0 0.2-0.2 0.5-0.5 0.5z" fill="#fff"/>
				<path stroke="#231F20" d="m1281.5 432.5h-0.8c-0.3 0-0.5-0.2-0.5-0.5v-2c0-0.3 0.2-0.5 0.5-0.5h0.8c0.3 0 0.5 0.2 0.5 0.5v2c0.1 0.2-0.2 0.5-0.5 0.5z" fill="#fff"/>
				<path stroke="#231F20" d="m1286.2 432.5h-0.8c-0.3 0-0.5-0.2-0.5-0.5v-2c0-0.3 0.2-0.5 0.5-0.5h0.8c0.3 0 0.5 0.2 0.5 0.5v2c0.1 0.2-0.2 0.5-0.5 0.5z" fill="#fff"/>
				<path stroke="#231F20" d="m1290.9 432.5h-0.8c-0.3 0-0.5-0.2-0.5-0.5v-2c0-0.3 0.2-0.5 0.5-0.5h0.8c0.3 0 0.5 0.2 0.5 0.5v2c0.1 0.2-0.2 0.5-0.5 0.5z" fill="#fff"/>
				<path stroke="#231F20" d="m1295.6 432.5h-0.8c-0.3 0-0.5-0.2-0.5-0.5v-2c0-0.3 0.2-0.5 0.5-0.5h0.8c0.3 0 0.5 0.2 0.5 0.5v2c0.1 0.2-0.2 0.5-0.5 0.5z" fill="#fff"/>
				<path stroke="#231F20" d="m1300.3 432.5h-0.8c-0.3 0-0.5-0.2-0.5-0.5v-2c0-0.3 0.2-0.5 0.5-0.5h0.8c0.3 0 0.5 0.2 0.5 0.5v2c0.1 0.2-0.2 0.5-0.5 0.5z" fill="#fff"/>
				<path stroke="#231F20" d="m1305 432.5h-0.8c-0.3 0-0.5-0.2-0.5-0.5v-2c0-0.3 0.2-0.5 0.5-0.5h0.8c0.3 0 0.5 0.2 0.5 0.5v2c0.1 0.2-0.2 0.5-0.5 0.5z" fill="#fff"/>
				<path stroke="#231F20" d="m1309.7 432.5h-0.8c-0.3 0-0.5-0.2-0.5-0.5v-2c0-0.3 0.2-0.5 0.5-0.5h0.8c0.3 0 0.5 0.2 0.5 0.5v2c0.1 0.2-0.2 0.5-0.5 0.5z" fill="#fff"/>
				<path stroke="#231F20" d="m1314.4 432.5h-0.8c-0.3 0-0.5-0.2-0.5-0.5v-2c0-0.3 0.2-0.5 0.5-0.5h0.8c0.3 0 0.5 0.2 0.5 0.5v2c0.1 0.2-0.2 0.5-0.5 0.5z" fill="#fff"/>
				<path stroke="#231F20" d="m1319.1 432.5h-0.8c-0.3 0-0.5-0.2-0.5-0.5v-2c0-0.3 0.2-0.5 0.5-0.5h0.8c0.3 0 0.5 0.2 0.5 0.5v2c0.1 0.2-0.2 0.5-0.5 0.5z" fill="#fff"/>
				<g stroke="#231F20">
					<circle r="1.9" cy="444.2" cx="1239.8" fill="#6D6E71"/>
					<circle r="1.5" cy="444.2" cx="1239.8" fill="#58595B"/>
				</g>
				<path stroke="#231F20" d="m1239.3 441l2.2 1.7c0.2 0.1 0.2 0.4 0 0.6l-1.7 0.9 2.7-0.7c0.2 0 0.3-0.3 0.2-0.4l-1-2.4c-0.1-0.1-0.2-0.2-0.3-0.2h-1.9c-0.4-0.1-0.5 0.4-0.2 0.5z" fill="none"/>
				<polygon stroke="#231F20" points="1242 428.8 1247.9 428.8 1247.9 432.1 1239.6 432.1" fill="#fff"/>
				<path stroke="#231F20" d="m1241.5 428.8s-1.5-0.1-1.7-0.7l-5.8 3.8 4.7 0.1 2.8-3.2z" fill="#fff"/>
				<path stroke="#231F20" d="m1290.5 424.3l11-5.9c0.6-0.3 0.4-1.4-0.3-1.4h-0.6-0.1l-24.2 7.2h14.2z" fill="#fff"/>
				<path stroke="#231F20" d="m1227.2 437.3c-0.1 0.8 0.2 1.9 2.1 2.4 3.4 0.9 23.6 0.9 23.6 0.9h31.9s49 0.9 55.6-0.6l13.3-2.6h-126.5z" fill="#32C8CE"/>
				<g stroke="#231F20">
					<path d="m1308.8 437.3h-8.9c-0.4 0-0.7 0.3-0.7 0.7s0.3 0.7 0.7 0.7h8.3l15-1.4h-14.4z" fill="none"/>
					<path d="m1301.1 437.3h-5.7c-0.8 0-1.4 0.6-1.4 1.4s0.6 1.4 1.4 1.4h19.5v-2" fill="none"/>
					<path d="m1295.2 437.3h-5.7c-0.8 0-3 0.6-3 1.4s2.2 1.4 3 1.4h19.5v-2" fill="none"/>
					<path d="m1297.1 437.3h-5.7c-0.8 0-3 0.6-3 1.4s2.2 1.4 3 1.4h19.5v-2" fill="none"/>
					<path d="m1322.6 435.5l-35.5 0.4c-0.2 0-0.4 0-0.7 0.1l-6.5 1.8c-0.8 0.3-0.8 1.4 0 1.7l6.3 2c0.3 0.1 0.6 0.2 1 0.2h39.7c0.5 0 1-0.2 1.3-0.6 1-1.1 0.6-2.9-0.7-3.6l-2.1-1 4-6.7h-1.7l-5.1 5.7z" fill="none"/>
					<path d="m1305.2 441.8v3.4s1.5-3.9 4.1-2.7v-0.7" fill="none"/>
					<circle r="1.9" cy="444.5" cx="1307.9" fill="#6D6E71"/>
					<circle r="1.5" cy="444.5" cx="1307.9" fill="#58595B"/>
					<path d="m1287.1 435.4l24.2 11.1c0.7 0.3 0.5 1.5-0.3 1.4h-0.7-0.2l-42.9-11.7 19.9-0.8z" fill="#fff"/>
				</g>
			</g>
		</g>
			<polyline clip-path="url(#SVGID_3_)" points="713.7 344.9 713.7 410.9 722.9 423 1019 423 1053.8 456.9 1053.8 551.6 1072.4 572.1 1143.8 572.1 1152.8 581.1 1152.8 595" stroke="#2E3192" stroke-linecap="round" stroke-miterlimit="10" stroke-width="2" fill="none"/>
		<g clip-path="url(#SVGID_3_)">
				<path stroke="#231F20" stroke-miterlimit="10" d="m998 702.3c0.9-10.1 5.5-14 7.5-15.2 0.5-0.3 1.1-0.5 1.6-0.6l25.3-5.3 15.8-13h39.1l17.9 16 13.7 1.3c1.8 0.2 3.2 1.7 3.2 3.5v9c-0.4 6.9-8.4 8.9-8.4 8.9h-6.7c0.4-1.1 0.6-2.2 0.6-3.4 0-5.6-4.5-10.1-10.1-10.1s-10.1 4.5-10.1 10.1c0 1.2 0.2 2.4 0.6 3.4h-47.3c0.4-1.1 0.6-2.2 0.6-3.4 0-5.6-4.5-10.1-10.1-10.1s-10.1 4.5-10.1 10.1c0 1.2 0.2 2.4 0.6 3.4h-19.2c-2.7 0-4.7-2.2-4.5-4.6z" fill="#FC495F"/>
				<g stroke="#231F20" stroke-miterlimit="10">
					<path d="m1022.1 703.3c0 4.8 3.9 8.7 8.7 8.7s8.7-3.9 8.7-8.7-3.9-8.7-8.7-8.7c-4.7 0-8.7 3.9-8.7 8.7zm3.4 0c0-3 2.4-5.4 5.4-5.4s5.4 2.4 5.4 5.4-2.4 5.4-5.4 5.4-5.4-2.4-5.4-5.4z" fill="#58595B"/>
					<circle cx="1030.9" cy="703.3" r="4.5" fill="#6D6E71"/>
				</g>
				<g stroke="#231F20" stroke-miterlimit="10">
					<path d="m1088.8 703.3c0 4.8 3.9 8.7 8.7 8.7s8.7-3.9 8.7-8.7c0-4.8-3.9-8.7-8.7-8.7s-8.7 3.9-8.7 8.7zm3.4 0c0-3 2.4-5.4 5.4-5.4s5.4 2.4 5.4 5.4-2.4 5.4-5.4 5.4c-3 0-5.4-2.4-5.4-5.4z" fill="#58595B"/>
					<circle cx="1097.5" cy="703.3" r="4.5" fill="#6D6E71"/>
				</g>
				<path stroke="#231F20" stroke-linecap="round" stroke-miterlimit="10" d="m999.3 696.9h9.2c2 0 3.6-1.6 3.6-3.6v0c0-2-1.6-3.6-3.6-3.6h-5.3" fill="none"/>
				<line y2="684.2" x2="1105.2" stroke="#231F20" stroke-miterlimit="10" y1="684.3" x1="1101.9" fill="none"/>
				<g fill="#231F20">
					<polygon points="1048.3 668.7 1052.6 670.3 1036.8 684.2 1032.4 681.2"/>
					<polygon points="1053.7 670.4 1069.4 670.4 1069.4 684.2 1038.2 684.3"/>
					<polygon points="1071.2 670.4 1071.2 684.2 1100.6 684.2 1084.9 670.5"/>
					<polygon points="1085.8 670.5 1087.3 668.5 1104.7 683.8 1101.9 684.3"/>
				</g>
			<path stroke="#231F20" stroke-miterlimit="10" d="m1059.3 669.5h-0.3c-1.2-1.9-2.4-3.8-3.5-5.7-1.7-2.8-3.4-5.5-4.3-8.7-0.4-1.5-0.6-3-0.2-4.4 0.8-2.9 2.7-4.8 5.5-5.7 0.6-0.2 7.3-1.7 10 3.9 1.2 2.5 1.3 4.9 0.3 7.2-1.1 2.5-2.4 4.9-3.8 7.3-1.1 2.1-2.5 4.1-3.7 6.1zm-3.2-16.7c-0.1 1.5 1.4 3.1 3 3.1 1.7 0 2.9-1 3.2-3 0.2-1.2-1.3-2.9-2.6-3-2.3-0.1-3.4 1.4-3.6 2.9z" fill="#fff"/>
		</g>
			<circle r="5.3" clip-path="url(#SVGID_3_)" cy="505.2" stroke="#2E3192" cx="636" stroke-miterlimit="10" stroke-width="2" fill="#fff"/>
			<circle r="5.3" clip-path="url(#SVGID_3_)" cy="433.3" stroke="#2E3192" cx="825.5" stroke-miterlimit="10" stroke-width="2" fill="#fff"/>
			<circle r="5.3" clip-path="url(#SVGID_3_)" cy="405.5" stroke="#2E3192" cx="1130.2" stroke-miterlimit="10" stroke-width="2" fill="#fff"/>
			<circle r="5.3" clip-path="url(#SVGID_3_)" cy="514.9" stroke="#2E3192" cx="1053.8" stroke-miterlimit="10" stroke-width="2" fill="#fff"/>
	<text font-size="23.69" font-family="&apos;MyriadPro-Regular&apos;" transform="translate(1097.3 492.72)" fill="#FFFFFF">Logistic Portal</text>
	<text font-size="23.69" font-family="&apos;MyriadPro-Regular&apos;" transform="translate(377.27 462.22)" fill="#FFFFFF">BCP service</text>
	<text font-size="23.69" font-family="&apos;MyriadPro-Regular&apos;" transform="translate(54.27 583.72)" fill="#FFFFFF">GPS Tracking</text>
</svg>
