<?xml version="1.0" encoding="UTF-8" standalone="no"?>
<!-- Generator: Adobe Illustrator 18.0.0, SVG Export Plug-In . SVG Version: 6.00 Build 0)  -->
<!DOCTYPE svg  PUBLIC '-//W3C//DTD SVG 1.1//EN'  'http://www.w3.org/Graphics/SVG/1.1/DTD/svg11.dtd'>
<svg id="Layer_1" xmlns="http://www.w3.org/2000/svg" xml:space="preserve" viewBox="0 0 1366 715" version="1.1" y="0px" x="0px" xmlns:xlink="http://www.w3.org/1999/xlink" enable-background="new 0 0 1366 715">
	<linearGradient id="SVGID_1_" y2="718.85" gradientUnits="userSpaceOnUse" x2="683" y1="4.7064" x1="683">
		<stop stop-color="#4DD0E1" offset="0"/>
		<stop stop-color="#00BCD4" offset="1"/>
	</linearGradient>
	<rect width="1366" height="715" fill="url(#SVGID_1_)"/>
						<path d="m767.9 378.9c12.5 0 22.6-10.1 22.6-22.6s-10.1-22.6-22.6-22.6c-0.7 0-1.5 0-2.2 0.1 2.4-4.2 3.8-9 3.8-14.2 0-15.6-12.7-28.3-28.3-28.3-7.1 0-13.5 2.6-18.5 6.9-4.8-26.8-28.2-47.1-56.3-47.1-31.6 0-57.2 25.6-57.2 57.2 0 3.1 0.2 6 0.7 9-1.2-0.1-2.3-0.2-3.5-0.2-17 0-30.9 13.8-30.9 30.9 0 15.8 11.9 28.9 27.3 30.6l165.1 0.3z" fill="#fff"/>
			<path stroke="#fff" stroke-miterlimit="10" d="m831.6 705.3h-51c-5.6 0-10.1-4.5-10.1-10.1v-38.9c0-5.6 4.5-10.1 10.1-10.1h51c5.6 0 10.1 4.5 10.1 10.1v38.9c0.1 5.6-4.5 10.1-10.1 10.1z" fill="#FFC300"/>
			<path stroke="#fff" stroke-miterlimit="10" d="m797 645.5l-0.1-5.4c0-1.7 1.3-3.1 3-3.1l12.8-0.2c1.7 0 3.1 1.3 3.1 3l0.1 5.7h1.4v-7.8c0-1.7-1.4-3-3-3h-15.6c-1.7 0-3 1.4-3 3v7.8h1.3z" fill="#414042"/>
				<circle cx="807" cy="678.9" stroke="#939598" r="16.3" stroke-miterlimit="10" fill="#E6E7E8"/>
				<polygon points="817.3 677 808.8 677 808.8 668.6 805.1 668.6 805.1 677 796.6 677 796.6 680.7 805.1 680.7 805.1 689.2 808.8 689.2 808.8 680.7 817.3 680.7" fill="#ED1C24"/>
			<rect y="453" x="674.8" height="4.6" width="23.7" fill="#D1D3D4"/>
			<rect y="457.6" x="679.1" height="32.7" width="15.1" fill="#F1F2F2"/>
			<path d="m679.1 490.3v9.2c0 4.2 3.4 7.6 7.6 7.6s7.6-3.4 7.6-7.6v-9.2h-15.2z" fill="#FFC300"/>
			<rect y="413.6" x="410.3" height="4.6" width="23.7" fill="#D1D3D4"/>
			<rect y="418.2" x="414.5" height="32.7" width="15.1" fill="#F1F2F2"/>
			<path d="m414.5 450.9v9.2c0 4.2 3.4 7.6 7.6 7.6s7.6-3.4 7.6-7.6v-9.2h-15.2z" fill="#FFC300"/>
				<path d="m759.5 535.9v15.4c0 4.2 3.4 7.6 7.6 7.6s7.6-3.4 7.6-7.6v-15.4h-15.2z" fill="#FFC300"/>
				<path d="m774.6 535.9v-15.4c0-4.2-3.4-7.6-7.6-7.6s-7.6 3.4-7.6 7.6v15.4h15.2z" fill="#F1F2F2"/>
				<path d="m789.8 542.5l9-12.5c2.4-3.4 1.7-8.1-1.7-10.5s-8.1-1.7-10.5 1.7l-9 12.5 12.2 8.8z" fill="#FFC300"/>
				<path d="m777.5 533.6l-9 12.5c-2.4 3.4-1.7 8.1 1.7 10.5s8.1 1.7 10.6-1.7l9-12.5-12.3-8.8z" fill="#F1F2F2"/>
		<g stroke="#fff" stroke-miterlimit="10">
			<path d="m1043.4 601.9c3.4 10.3 13 17.7 24.4 17.7 11.1 0 20.6-7 24.2-16.9-7.1 3.4-15.1 5.3-23.5 5.3-9 0-17.5-2.2-25.1-6.1z" fill="#FFC300"/>
			<path d="m1072.9 568.7v-38.7h-10.2v38.7c-11.8 2.4-20.7 12.8-20.7 25.2 0 2.8 0.5 5.5 1.3 8.1 7.5 3.9 16 6.1 25.1 6.1 8.4 0 16.4-1.9 23.5-5.3 1-2.8 1.6-5.7 1.6-8.9 0.1-12.4-8.8-22.8-20.6-25.2z" fill="none"/>
		</g>
				<path stroke="#fff" stroke-width="2" stroke-miterlimit="10" d="m298.9 444.8l7.2 3.2c2.6 1.2 4.6 3.3 5.6 5.9l7.8 20.6c1 2.6 1.3 5.3 1 8.1-0.7 5.8-3.6 15.1-14.4 20.3-11.5 3.3-19.8-1.8-24.2-5.7-2.1-1.8-3.6-4.1-4.6-6.7l-7.8-20.6c-1-2.6-0.9-5.6 0.2-8.1l3.2-7.2" fill="none"/>
			<path stroke="#fff" stroke-width="2" stroke-miterlimit="10" d="m306.5 502.8l8.6 22.7c2.8 7.3 11 11 18.3 8.2s11-11 8.2-18.3l-6.6-17.3c-2.8-7.3 0.9-15.5 8.2-18.3s15.5 0.9 18.3 8.2l14.3 37.8c2.8 7.3 11 11 18.3 8.2l8.2-3.1" fill="none"/>
			<circle cy="528.5" cx="408.3" r="7" fill="#C6C6C6"/>
			<circle cy="528.5" cx="408.3" r="5.4" fill="#535353"/>
				<path d="m273.3 454.6c0.2 0.6 0.1 1.3-0.3 1.9 0.4 0.1 0.9 0.1 1.3-0.1 1.1-0.4 1.8-1.6 1.4-2.7-0.4-1-1.6-1.5-2.8-1.1-0.4 0.2-0.8 0.5-1.1 0.8 0.7 0.1 1.3 0.5 1.5 1.2z" fill="#939598"/>
				<path d="m274.3 454.2c-0.3-0.8-0.2-1.7 0.2-2.3-0.5-0.1-0.9-0.1-1.4 0-1.2 0.4-1.7 1.9-1.2 3.2s1.9 2 3 1.6c0.5-0.2 0.8-0.5 1.1-0.9-0.7-0.2-1.4-0.8-1.7-1.6z" fill="#414042"/>
				<path d="m298.2 445.1c0.2 0.6 0.8 1.1 1.5 1.2-0.3 0.3-0.6 0.6-1.1 0.8-1.1 0.4-2.4 0-2.8-1.1-0.4-1 0.2-2.2 1.4-2.7 0.4-0.2 0.9-0.2 1.3-0.1-0.4 0.6-0.5 1.3-0.3 1.9z" fill="#939598"/>
				<path d="m297.2 445.5c-0.3-0.8-0.9-1.4-1.7-1.6 0.2-0.4 0.6-0.7 1.1-0.9 1.2-0.4 2.5 0.3 3 1.6s0 2.8-1.2 3.2c-0.5 0.2-0.9 0.2-1.4 0 0.5-0.6 0.5-1.5 0.2-2.3z" fill="#414042"/>
		<g stroke-miterlimit="10">
				<rect transform="matrix(-.5609 .8279 -.8279 -.5609 2038.9 25.805)" height="20.2" width="71.7" stroke="#fff" y="543.5" x="976.7" fill="#D1D3D4"/>
				<rect transform="matrix(.5609 -.8279 .8279 .5609 21.886 1085.3)" height="12.4" width="4.6" stroke="#fff" y="515.8" x="1031.7" fill="none"/>
				<rect transform="matrix(-.5609 .8279 -.8279 -.5609 2047 -49.216)" height="7.3" width="4.4" stroke="#fff" y="514.6" x="1034.3" fill="none"/>
				<rect transform="matrix(-.5609 .8279 -.8279 -.5609 2029.8 109.42)" height="12.7" width="9.1" stroke="#6D6E71" y="586.7" x="981.3" fill="none"/>
				<rect transform="matrix(.5609 -.8279 .8279 .5609 -64.541 1075.9)" height="20.3" width="4.9" stroke="#939598" y="588.6" x="979.5" fill="none"/>
			<line y2="486.3" x2="1058.2" stroke="#fff" y1="520.1" x1="1035.3" fill="none"/>
			<line y2="531.1" x2="1031.4" stroke="#fff" y1="523.8" x1="1020.6" fill="none"/>
			<line y2="542.8" x2="1023.4" stroke="#fff" y1="535.5" x1="1012.7" fill="none"/>
			<line y2="530.3" x2="1025.3" stroke="#fff" y1="526.1" x1="1019" fill="none"/>
			<line y2="532.7" x2="1023.7" stroke="#fff" y1="528.5" x1="1017.4" fill="none"/>
			<line y2="535" x2="1022.1" stroke="#fff" y1="530.8" x1="1015.9" fill="none"/>
			<line y2="537.4" x2="1020.5" stroke="#fff" y1="533.2" x1="1014.3" fill="none"/>
			<line y2="553.8" x2="1015.9" stroke="#fff" y1="546.6" x1="1005.2" fill="none"/>
			<line y2="541.4" x2="1017.8" stroke="#fff" y1="537.2" x1="1011.6" fill="none"/>
			<line y2="543.7" x2="1016.2" stroke="#fff" y1="539.5" x1="1010" fill="none"/>
			<line y2="546.1" x2="1014.6" stroke="#fff" y1="541.9" x1="1008.4" fill="none"/>
			<line y2="548.4" x2="1013" stroke="#fff" y1="544.2" x1="1006.8" fill="none"/>
			<line y2="564.9" x2="1008.5" stroke="#fff" y1="557.6" x1="997.7" fill="none"/>
			<line y2="552.4" x2="1010.3" stroke="#fff" y1="548.2" x1="1004.1" fill="none"/>
			<line y2="554.8" x2="1008.7" stroke="#fff" y1="550.5" x1="1002.5" fill="none"/>
			<line y2="557.1" x2="1007.1" stroke="#fff" y1="552.9" x1="1000.9" fill="none"/>
			<line y2="559.5" x2="1005.5" stroke="#fff" y1="555.2" x1="999.3" fill="none"/>
			<line y2="575.9" x2="1001" stroke="#fff" y1="568.6" x1="990.2" fill="none"/>
			<line y2="563.4" x2="1002.8" stroke="#fff" y1="559.2" x1="996.6" fill="none"/>
			<line y2="565.8" x2="1001.2" stroke="#fff" y1="561.6" x1="995" fill="none"/>
			<line y2="568.1" x2="999.7" stroke="#fff" y1="563.9" x1="993.4" fill="none"/>
			<line y2="570.5" x2="998.1" stroke="#fff" y1="566.3" x1="991.8" fill="none"/>
				<rect transform="matrix(.5609 -.8279 .8279 .5609 -50.455 1077.4)" height="29.4" width="7.2" stroke="#fff" y="571.6" x="986.9" fill="none"/>
		</g>
		<g stroke-miterlimit="10">
			<rect height="20.2" width="71.7" stroke="#fff" y="589.2" x="145.3" fill="#D1D3D4"/>
			<rect height="12.4" width="4.6" stroke="#fff" y="593" x="217" fill="none"/>
			<rect height="7.3" width="4.4" stroke="#fff" y="595.6" x="221.6" fill="none"/>
			<rect height="12.7" width="9.1" stroke="#6D6E71" y="592.9" x="129" fill="none"/>
			<rect height="20.3" width="4.9" stroke="#939598" y="589.1" x="124.1" fill="none"/>
			<line y2="599.2" x2="262.4" stroke="#fff" y1="599.2" x1="221.6" fill="none"/>
			<line y2="596.3" x2="210.3" stroke="#fff" y1="609.3" x1="210.3" fill="none"/>
			<line y2="596.3" x2="196.2" stroke="#fff" y1="609.3" x1="196.2" fill="none"/>
			<line y2="601.8" x2="207.5" stroke="#fff" y1="609.3" x1="207.5" fill="none"/>
			<line y2="601.8" x2="204.7" stroke="#fff" y1="609.3" x1="204.7" fill="none"/>
			<line y2="601.8" x2="201.8" stroke="#fff" y1="609.3" x1="201.8" fill="none"/>
			<line y2="601.8" x2="199" stroke="#fff" y1="609.3" x1="199" fill="none"/>
			<line y2="596.3" x2="182.8" stroke="#fff" y1="609.3" x1="182.8" fill="none"/>
			<line y2="601.8" x2="194.2" stroke="#fff" y1="609.3" x1="194.2" fill="none"/>
			<line y2="601.8" x2="191.3" stroke="#fff" y1="609.3" x1="191.3" fill="none"/>
			<line y2="601.8" x2="188.5" stroke="#fff" y1="609.3" x1="188.5" fill="none"/>
			<line y2="601.8" x2="185.7" stroke="#fff" y1="609.3" x1="185.7" fill="none"/>
			<line y2="596.3" x2="169.5" stroke="#fff" y1="609.3" x1="169.5" fill="none"/>
			<line y2="601.8" x2="180.8" stroke="#fff" y1="609.3" x1="180.8" fill="none"/>
			<line y2="601.8" x2="178" stroke="#fff" y1="609.3" x1="178" fill="none"/>
			<line y2="601.8" x2="175.2" stroke="#fff" y1="609.3" x1="175.2" fill="none"/>
			<line y2="601.8" x2="172.3" stroke="#fff" y1="609.3" x1="172.3" fill="none"/>
			<line y2="596.3" x2="156.2" stroke="#fff" y1="609.3" x1="156.2" fill="none"/>
			<line y2="601.8" x2="167.5" stroke="#fff" y1="609.3" x1="167.5" fill="none"/>
			<line y2="601.8" x2="164.7" stroke="#fff" y1="609.3" x1="164.7" fill="none"/>
			<line y2="601.8" x2="161.9" stroke="#fff" y1="609.3" x1="161.9" fill="none"/>
			<line y2="601.8" x2="159" stroke="#fff" y1="609.3" x1="159" fill="none"/>
			<rect height="29.4" width="7.2" stroke="#fff" y="584.5" x="138.1" fill="none"/>
		</g>
			<polygon stroke="#fff" points="869.9 566.1 885.8 566.1 885.8 496.9 822.1 496.9 822.1 580.7 869.9 580.7" stroke-miterlimit="10" fill="none"/>
			<line y2="580.7" x2="869.9" stroke="#fff" stroke-miterlimit="10" y1="566.1" x1="885.8" fill="none"/>
			<line y2="515.5" x2="871.2" stroke="#fff" stroke-miterlimit="10" y1="515.5" x1="825.6" fill="none"/>
			<line y2="522.9" x2="871.2" stroke="#fff" stroke-miterlimit="10" y1="522.9" x1="825.6" fill="none"/>
			<line y2="530.2" x2="871.2" stroke="#fff" stroke-miterlimit="10" y1="530.2" x1="825.6" fill="none"/>
			<line y2="537.6" x2="871.2" stroke="#fff" stroke-miterlimit="10" y1="537.6" x1="825.6" fill="none"/>
			<line y2="544.9" x2="871.2" stroke="#fff" stroke-miterlimit="10" y1="544.9" x1="825.6" fill="none"/>
			<line y2="552.3" x2="871.2" stroke="#fff" stroke-miterlimit="10" y1="552.3" x1="825.6" fill="none"/>
			<line y2="559.7" x2="871.2" stroke="#fff" stroke-miterlimit="10" y1="559.7" x1="825.6" fill="none"/>
			<polyline stroke="#FFC300" points="874.3 514.5 876.9 517.1 881.7 512.2" stroke-miterlimit="10" fill="none"/>
			<polyline stroke="#FFC300" points="874.3 521.6 876.9 524.2 881.7 519.4" stroke-miterlimit="10" fill="none"/>
			<g stroke="#ED1C24" stroke-miterlimit="10" fill="none">
				<line y2="527.4" x2="880.8" y1="532.2" x1="876"/>
				<line y2="527.4" x2="876" y1="532.2" x1="880.8"/>
			</g>
			<g stroke="#ED1C24" stroke-miterlimit="10" fill="none">
				<line y2="542" x2="880.8" y1="546.8" x1="876"/>
				<line y2="542" x2="876" y1="546.8" x1="880.8"/>
			</g>
			<polyline stroke="#FFC300" points="874.3 535.9 876.9 538.5 881.7 533.7" stroke-miterlimit="10" fill="none"/>
			<polyline stroke="#FFC300" points="874.3 550.2 876.9 552.8 881.7 548" stroke-miterlimit="10" fill="none"/>
			<polyline stroke="#FFC300" points="874.3 557.4 876.9 559.9 881.7 555.1" stroke-miterlimit="10" fill="none"/>
			<text font-size="8.8311" font-family="&apos;TimesNewRomanPSMT&apos;" transform="translate(840.89 507.35)" fill="#FFFFFF">Report</text>
			<rect height="70.8" width="4.2" stroke="#fff" stroke-miterlimit="10" y="641.7" x="1083.2" fill="none"/>
				<rect y="674" x="1087.3" height="27.9" width="154.5" fill="#F1F2F2"/>
				<rect height="49.9" width="4.2" stroke="#fff" stroke-miterlimit="10" y="662.6" x="1241.9" fill="none"/>
				<path stroke="#fff" stroke-miterlimit="10" d="m1116.6 671.9c0 2.6-6.4 2.1-14.2 2.1s-14.2-2.1-14.2-4.8c0-2.6 6.4-4.8 14.2-4.8s14.2 4.8 14.2 7.5z" fill="none"/>
				<rect y="491.5" x="1255.8" height="223.5" width="5.8" fill="#808285"/>
				<path d="m1218.6 520.2v12.1c0 3.7 2.7 6.7 6.2 7.2v0.8c0 0.8 0.6 1.4 1.4 1.4h1.1c0.8 0 1.4-0.6 1.4-1.4v-0.8c3.5-0.5 6.2-3.6 6.2-7.2v-12.3c-1.2 1-4.4 1.8-8.3 1.8-3.6 0-6.6-0.7-8-1.6z" fill="#FFC300"/>
				<path d="m1231.6 507h-9.1c-4.1 0-3.8 3.3-3.8 7.3v5.2c1.4 0.9 4.4 1.6 8 1.6 3.8 0 7.1-0.7 8.3-1.8v-5c-0.1-4 0.6-7.3-3.4-7.3z" fill="#FFC300"/>
				<rect y="517.5" x="1235" height="5.2" width="26.1" fill="#808285"/>
				<path stroke="#fff" stroke-miterlimit="10" d="m1226.6 541.5v69.8s-1 10.1-13.1 12.4c0 0-13.7-0.4-14-12.4v-24.1s1.8-14.5-12.3-14.5c0 0-12.5-0.2-12.9 21.3 0 0-2.3 37.8-6.5 47.7-3.4 7.9-23.7 23.7-23.7 23.7" fill="none"/>
				<g fill="#fff">
					<rect y="667.4" x="1191.4" height="4.2" width="36.1"/>
					<path d="m1129.8 664.8v8.8h70.8v-8.8h-70.8zm45.7 7.5h-37.6v-5.7h37.6v5.7z"/>
					<rect y="667.4" x="1138.6" height="4.2" width="36.1"/>
					<rect y="663.8" x="1224.2" height="7.8" width="3.4"/>
					<circle cy="666.6" cx="1122.6" r="6.9"/>
				</g>
				<ellipse ry="7.6" rx="11.1" stroke="#fff" transform="matrix(.7682 -.6402 .6402 .7682 -268.1 405.5)" cy="573" cx="426" stroke-miterlimit="10" fill="none"/>
				<ellipse ry="6.9" rx="9.6" stroke="#fff" transform="matrix(.7682 -.6402 .6402 .7682 -267.67 405.65)" cy="572.5" cx="426.4" stroke-miterlimit="10" fill="none"/>
			<path d="m430.8 578.8l59.6-44.2-54.7 34.8c0.1 0.1-0.1 6.7-4.9 9.4z" fill="#D1D3D4"/>
				<ellipse ry="7.6" rx="11.1" stroke="#fff" transform="matrix(.7017 -.7125 .7125 .7017 -290.07 487.33)" cy="590" cx="436.9" stroke-miterlimit="10" fill="none"/>
				<ellipse ry="6.9" rx="9.6" stroke="#fff" transform="matrix(.7017 -.7125 .7125 .7017 -288.81 487.25)" cy="588.5" cx="437.4" stroke-miterlimit="10" fill="none"/>
			<path d="m431.5 584.7l49-55.8-39.2 51.6c0 0.1-6.7-0.3-9.8 4.2z" fill="#D1D3D4"/>
			<circle cy="558" cx="456.7" r=".9" fill="#414042"/>
			<g fill="#fff">
				<path d="m381.3 633.2c-2.6-6.5 3.4-13.3 10.6-12.4 7.6 1 11.4 7.3 8.8 14.5-0.5 1.5-1.2 2.9-2 4.2-2.1 3.5-3.1 7.1-2.4 11.2 0.1 0.3 0 0.6 0.1 0.9 0.1 4.9-2.3 8-6.2 7.9s-6.3-3.6-5.8-7.8c0.6 1.2 1.1 3.2 2.4 4.5 1.1 1.1 3.2 2 4.6 1.6 1.3-0.4 2.6-2.2 3.3-3.6 0.6-1.2 0.5-2.9 0.3-4.3-0.5-3.5 0.2-6.7 2-9.8 1.2-2.1 2.1-4.4 2.7-6.7 1.3-5.1-1.6-9.4-6.7-10.3-5.7-1-9.6 1.9-10.3 7.5-0.1 0.8-0.2 1.5-0.3 2.3-0.2-0.1-0.6 0-1.1 0.3z"/>
				<path d="m389.3 643c-0.5-1.6-1-3.3-1.5-4.9-0.5-1.7-1.2-3.3-1.4-5-0.4-3.4 1.2-5.6 4.1-6 2.4-0.3 5.9 1.3 5.5 5.7-0.6-0.8-1-1.2-1.2-1.7-0.7-2.4-2.5-3.3-4.7-2.7-2.4 0.6-3.1 2.6-2.8 4.8 0.2 1.7 1.1 3.3 1.5 5s0.6 3.4 0.9 5c-0.1-0.1-0.2-0.1-0.4-0.2z"/>
				<path d="m386.6 651c1.4 0.5 3.2 1.7 4 1.2 1.1-0.7 1.8-2.5 2.2-4 0.4-1.3 0.1-2.7 0.6-4.1 0 2 0.4 4-0.1 5.8-0.4 1.3-1.7 2.9-3 3.3-1.9 0.8-3.1-0.8-3.7-2.2z"/>
			</g>
				<path d="m388.4 691.9c-0.6-3.1-1.2-6.2-2-9.3-0.6-2.4-1.4-4.8-2.1-7.3-0.3-1.1-0.7-2.2-0.8-3.4-0.1-3.3 2.4-5.4 5.7-4.6 2.6 0.7 5 0.7 7.7 0 3.9-1 6.9 2.2 5.4 6.4-1.9 5-2.6 10.2-3.7 15.3-0.2 0.9-0.7 1.8-1.4 2.6-0.2-1.4-0.3-2.8-0.5-4.3-0.4-2.8-1.7-4.7-3.4-4.8-1.8-0.1-3.2 1.6-3.7 4.7-0.1 0.7-0.2 1.5-0.3 2.2s-0.1 1.5-0.1 2.2c-0.3 0.3-0.6 0.3-0.8 0.3zm11.1-20.7c-1.4 1.6-2.6 8.5-1.7 12.1 0.6-4.2 1.1-8.2 1.7-12.1zm-8.8-1.4c-0.2-0.3-0.4-0.5-0.6-0.8-1 0.5-2.2 0.8-2.8 1.6-0.7 0.9-0.8 2.2-1.1 3.4 0.3 0.1 0.6 0.3 0.9 0.4-0.2-2.7 0.6-4.4 3.6-4.6z" fill="#fff"/>
				<path d="m399.5 671.2c-0.5 3.8-1.1 7.8-1.7 12.1-0.9-3.5 0.3-10.5 1.7-12.1z" fill="#939598"/>
				<path d="m390.7 669.8c-2.9 0.2-3.8 2-3.6 4.6-0.3-0.1-0.6-0.3-0.9-0.4 0.3-1.1 0.4-2.5 1.1-3.4 0.6-0.8 1.8-1.1 2.8-1.6 0.2 0.2 0.4 0.5 0.6 0.8z" fill="#939598"/>
			<g fill="#fff">
				<path d="m351.9 690.1c-7.1-0.2-12.6-3.2-16.9-8.7-1-1.2-1.1-2.2-0.1-3.6 8.1-11.7 26.3-11.7 34.3 0 0.9 1.4 0.9 2.3-0.1 3.6-4.4 5.7-10.1 8.7-17.2 8.7zm15.6-10.6c-6.8-10.4-22.2-11.2-29.9-1.7-0.9 1.1-1.2 1.9-0.2 3.3 7.6 9.7 23.7 8.9 30.1-1.6z"/>
				<path d="m352.2 672.6c-3.8-0.1-7.1 3.2-7 7.1 0 3.8 3.1 6.9 6.9 6.9 4 0 7-3 7-7-0.1-3.8-3.2-7-6.9-7zm-2 4.1s-0.1 0-0.1-0.1c-0.2 0.4-0.5 0.6-0.9 0.6-0.6 0-1-0.5-1-1 0-0.6 0.5-1.1 1.1-1.1 0.3 0 0.5 0.1 0.7 0.3 0.1-0.1 0.2-0.2 0.4-0.1 0.4 0 0.7 0.3 0.7 0.7-0.2 0.4-0.5 0.7-0.9 0.7z"/>
			</g>
				<path d="m393.9 615.2c-0.8-0.1-2-0.1-2.2-0.5-0.7-1.7-1.3-3.6-1.6-5.4-0.2-1 0.2-2.1 0.3-3.2-8.2 1.7-12.7-2.5-10.9-10.9-3.3 0.4-6.7 1.3-9.1-1.8-0.2-0.3 0.3-1.2 0.5-2 4.1 2.9 8 2.7 10.8-0.3 2.7-2.9 2.8-6.6 0.1-10 0.8-1.8 2.2-1.6 2.7-0.1 0.9 2.5 1.2 5.3 1.9 8.2 2.4-0.4 5.7-1 8.3 1.7 2.5 2.6 2.4 5.8 1.3 9.3 3.6-0.6 7.1-1.4 9.6 1.9 0.2 0.3-0.4 1.2-0.7 1.9-3.8-3-7.6-2.8-10.5 0.1s-3 6.7-0.3 10c-0.1 0.4-0.1 0.7-0.2 1.1zm-7-10.9c4.4 0 7.7-3.3 7.7-7.8 0-3.4-2.1-5.4-5.5-5.4-4.4 0-7.7 3.3-7.6 7.8-0.1 3.4 2 5.4 5.4 5.4z" fill="#fff"/>
				<path d="m382 583.1c-0.7 2.3-7.1 8.4-8.5 8.4 2.7-2.6 5.7-5.6 8.5-8.4z" fill="#fff"/>
				<path d="m403.8 604.6c-3 2.9-6.1 5.8-9.1 8.8-0.5-2.5 5.5-8.8 8.1-9.8l1 1z" fill="#fff"/>
				<path d="m376.2 592.4c2.2-2.1 4.3-4 6.2-5.7 0.1 1.8-3.2 5.3-6.2 5.7z" fill="#fff"/>
				<path d="m399.8 603.1c-2.3 2.1-4.5 4-6.3 5.6-0.1-1.7 3.2-5.2 6.3-5.6z" fill="#fff"/>
				<path stroke="#fff" stroke-miterlimit="10" d="m386.9 604.3c-3.4 0-5.5-2-5.5-5.3 0-4.4 3.2-7.7 7.6-7.8 3.4 0 5.5 2 5.5 5.4 0.1 4.3-3.2 7.7-7.6 7.7zm2.6-12.1c-2.3 0-6.9 4.5-7 7 2.4-2.3 4.8-4.7 7-7zm-3.2 11.2c3.1-0.7 7.3-5.2 7.1-7.1l-7.1 7.1zm-2.3-0.7l-0.9-0.9c3-3 6.1-5.9 9.1-8.9l0.4 0.4c-2.9 3.2-5.7 6.3-8.6 9.4z" fill="#FFC300"/>
				<path d="m389.5 592.2c-2.3 2.3-4.6 4.7-7 7 0.1-2.5 4.7-7 7-7z" fill="#fff"/>
				<path d="m386.3 603.4l7.1-7.1c0.2 1.9-4 6.4-7.1 7.1z" fill="#fff"/>
				<path d="m384 602.7c2.9-3.1 5.7-6.3 8.6-9.4l-0.4-0.4c-3 3-6.1 5.9-9.1 8.9 0.3 0.4 0.6 0.7 0.9 0.9z" fill="#fff"/>
			<g fill="#fff">
				<path d="m352.9 648.3c0.8-0.3 1.5-0.7 2.7-1.2 0.7 3.3-0.4 5.8-1.8 8.3-1.2 2.2-4.5 2.2-5.7-0.1-1.1-2-2.2-4-3.2-5.9-0.2-0.5 0.7-1.6 1.2-2.5 2.4 1.2 4.2 4.6 6.9 1.2 0 0.1-0.1 0.2-0.1 0.2z"/>
					<path d="m353 647.5c-0.1 0-0.1 0.1-0.1 0.1l0.1-0.1z"/>
					<path d="m352.6 641.9l-0.6-0.9c0.9-0.3 1.8-0.6 2.6-1-0.2-0.2-0.3-0.4-0.5-0.6-0.5 0-1.1 0.1-2.1 0.2 1-1 1.5-1.6 2.4-2.5h-2.2c0.8-0.9 1.4-1.5 2.2-2.4h-2.3c0.9-0.8 1.5-1.3 2.4-2.2h-2.4c0.9-0.8 1.4-1.2 2-1.8-0.7-0.3-1.2-0.5-1.9-0.7 0.7-0.6 1.2-1 1.9-1.5-0.7-0.3-1.1-0.4-2.5-1 1.2-0.4 1.9-0.6 2.6-0.9-0.2-0.2-0.4-0.4-0.5-0.6-0.4 0-0.8-0.1-1.1-0.1 0.3-1.3 1.1-2.6 0.8-3.6-0.4-1.8-0.5-3.4-0.2-5.2 0.3-1.5 0.8-3.8 0-4.5-2.1-2-0.9-4.4-1.5-6.5-0.2-0.7-0.9-1.2-1.5-1.8-0.6 0.6-1.3 1.1-1.5 1.8-0.5 2.1 0.7 4.5-1.5 6.5-0.8 0.7-0.3 3 0 4.5 0.3 1.8 0.2 3.4-0.2 5.2-0.2 1.1 0.5 2.4 0.8 3.6-0.3 0-0.7 0.1-1.1 0.1-0.2 0.2-0.4 0.4-0.5 0.6 0.7 0.2 1.4 0.5 2.6 0.9-1.3 0.5-1.8 0.7-2.5 1 0.6 0.5 1.1 0.9 1.9 1.5-0.7 0.3-1.2 0.5-1.9 0.7 0.6 0.6 1.2 1 2 1.8h-2.4c0.9 0.8 1.5 1.3 2.4 2.2h-2.3c0.8 0.9 1.4 1.5 2.2 2.4h-2.2c0.8 0.9 1.4 1.5 2.4 2.5-1-0.1-1.5-0.1-2.1-0.2-0.2 0.2-0.3 0.4-0.5 0.6 0.9 0.3 1.8 0.7 2.6 1l-0.6 0.9h-2c0.9 1.1 1.6 1.9 2.8 3.3-1.4-0.3-2-0.4-2.7-0.6 0.6 1.1 1.1 2 1.6 2.9 0.9 0.1 1.8 0.2 2.6 0.1 0.8 0.1 1.7 0 2.6-0.1 0.5-0.9 1-1.8 1.6-2.9-0.8 0.2-1.4 0.3-2.7 0.6 1.2-1.4 1.9-2.2 2.8-3.3h-1.8z"/>
					<path d="m347.8 647.6s0-0.1-0.1-0.1h-0.1l0.2 0.1z"/>
			</g>
			<path stroke="#fff" stroke-width="2" stroke-miterlimit="10" d="m405.8 696.5h-75.6c-3.1 0-5.5-2.5-5.5-5.5v-110.5c0-3.1 2.5-5.5 5.5-5.5h75.6c3.1 0 5.5 2.5 5.5 5.5v110.5c0.1 3-2.4 5.5-5.5 5.5z" fill="none"/>
			<circle cx="331.3" cy="581.7" stroke="#fff" r="2.8" stroke-miterlimit="10" fill="none"/>
			<circle cx="405.6" cy="581.7" stroke="#fff" r="2.8" stroke-miterlimit="10" fill="none"/>
			<circle cx="331.3" cy="691.9" stroke="#fff" r="2.8" stroke-miterlimit="10" fill="none"/>
			<circle cx="405.6" cy="691.9" stroke="#fff" r="2.8" stroke-miterlimit="10" fill="none"/>
			<path d="m210.5 460.7l-7.4 7.1c13.8 3.2 23.2 14.7 23.2 29.5 0 17.3-14 31.3-31.3 31.3-14.1 0-26-9.3-29.9-22.1h-9.3c4.1 17.8 20.1 31.1 39.2 31.1 22.2 0 40.2-18 40.2-40.2 0.1-17.2-9.7-30.8-24.7-36.7z" fill="#fff"/>
			<polygon points="208.4 456.3 200.4 447.1 209.2 438.6 207.1 436.6 174.3 468.6 186.1 482.2 220.9 449.9 218.2 447.3" fill="#fff"/>
			<polygon points="208.5 455.1 228.9 436.2 220.8 428.4 201.6 447.2" fill="#FFC300"/>
			<rect y="497.7" x="138.6" height="7.6" width="45.1" fill="#fff"/>
			<path d="m197.6 538.6c25.5 0 33.6 8.4 36.1 12.8h1.1s-2.8-15.4-37.2-15.4c-35.6 0-37.2 15.4-37.2 15.4h0.9c2.2-4.4 9.9-12.8 36.3-12.8z" fill="#FFC300"/>
				<rect transform="matrix(.7071 -.7071 .7071 .7071 -435.37 314.33)" height="77.4" width="4.6" y="644" x="159.5" fill="#FFC300"/>
				<rect transform="matrix(.7071 .7071 -.7071 .7071 530.12 85.588)" height="77.4" width="4.6" y="644" x="159.5" fill="#FFC300"/>
			<rect y="628.1" x="130.1" height="9.6" width="63.3" fill="#FFC300"/>
			<path d="m226.7 656.8h-129.9c-4.3 0-7.8-3.5-7.8-7.8v-5.8c0-4.3 3.5-7.8 7.8-7.8h129.9c4.3 0 7.8 3.5 7.8 7.8v5.8c0 4.3-3.5 7.8-7.8 7.8z" fill="#fff"/>
		<g stroke="#fff" stroke-miterlimit="10">
			<path d="m1144.8 540.5c0.5-0.7 0.9-1.4 1.4-2 2-2.7 4.6-4.9 7.7-6.4 1.8-0.8 3.6-1.4 5.5-1.6 3.1-0.3 6.1 0 9 1.2 5.2 2.2 8.5 6 10.1 11.3 0.5 1.7 0.7 3.5 0.7 5.3 0 1.4-0.1 2.8-0.2 4.2-0.4 4-1.5 7.8-3.6 11.3-1.2 2-2.7 3.9-4.4 5.6-1.9 2-3.9 3.9-6 5.8-3.3 2.9-6.6 5.7-9.9 8.6-3.4 3-6.8 6.1-10.1 9.2-0.1 0-0.1 0.1-0.2 0.2l-0.1-0.1c-4.5-4.2-9.1-8.3-13.7-12.4-3.1-2.7-6.3-5.4-9.3-8.3-1.9-1.8-3.7-3.6-5.3-5.6-2.4-3-4.1-6.2-5-9.9-0.4-1.6-0.7-3.3-0.8-5-0.1-1.4-0.2-2.9-0.1-4.3 0.1-6.3 3.4-12.1 9.1-15.2 2-1.1 4-1.7 6.2-2 1.6-0.2 3.1-0.2 4.7 0 2.7 0.3 5.3 1.3 7.6 2.8 2.7 1.8 4.9 4.1 6.6 6.8-0.1 0.3 0 0.4 0.1 0.5z" fill="#ED1C24"/>
			<polyline points="1100.7 560.9 1114.8 560.9 1115.8 551.5 1119.5 565.7 1121.6 558.6 1126.2 558.6 1128.8 564.4 1133 564.4 1137 548.7 1142.5 563 1145 559.2 1152.4 559.2 1153.3 568 1158.4 546.4 1160.3 558.6 1166.3 558.6 1169.2 566.6 1173.3 551.5 1175.4 559.7 1185.8 559.7" fill="none"/>
		</g>
			<path d="m866.4 715c0-0.4-0.1-0.8-0.1-1.2v-47c0-7.2 2.5-13.6 6.7-19.3 5.8-7.9 13.4-13.7 22-18.1 8.7-4.4 17.8-7.4 27.7-7.7 14.8-0.4 27 5.1 36.5 16.4 5.5 6.6 8.6 14.2 9.8 22.7 0.1 0.6 0.1 1.1 0.1 1.7h-5.7c-1.7-13.2-8.2-23.4-19.8-30.1-7.9-4.6-16.5-6-25.5-4.5-18.1 3-31.6 18.1-32.7 36.3s10.9 35 28.4 39.9c17.6 4.9 34.1-3.2 41.8-14.2-1.6-0.2-2.7 0-4 1.3-10.3 10.8-22.8 14.7-37.2 10.6s-23.3-14-26.1-28.8c-3.6-18.9 8.3-37.4 26.7-42.1 0.2 0 0.3-0.1 0.6-0.1 0.5 1.8 1 3.7 1.6 5.6h7.6 6c0.6 0 0.9-0.2 1.1-0.8 0.4-1.6 0.9-3.1 1.3-4.7 13.6 2.7 26.4 15.7 27.7 31.7-0.4 0-0.7 0.1-1.1 0.1h-14.4c-1.8 0-3.6 0.2-5.3 0.3-0.9-1.9-1.7-4-3-5.8-4-5.8-11.7-8-18.2-5.5-6.6 2.5-10.9 9.2-10.3 15.9 0.7 7.5 5.9 13.2 13 14.4 0.9 0.2 1.9 0.2 2.8 0.2h56.3c2.3 0 3.1 0.8 3.1 3.1v2c-0.1 1.7-0.9 2.5-2.6 2.5h-10.8-1.1v25.1c-34.3 0.1-68.6 0.1-102.9 0.1zm75.5-70.4c-1.3 0-2.4 1.1-2.4 2.4s1.1 2.4 2.4 2.4 2.5-1.1 2.5-2.5c-0.1-1.3-1.2-2.3-2.5-2.3zm-32.5 2.4c0-1.4-1.1-2.4-2.4-2.4s-2.4 1.1-2.4 2.4 1.1 2.4 2.4 2.4c1.4 0 2.4-1.1 2.4-2.4zm-7.4 3.1c-1.3 0-2.4 1.2-2.4 2.5s1.2 2.4 2.5 2.3c1.3 0 2.4-1.1 2.3-2.5 0.1-1.3-1.1-2.4-2.4-2.3zm44.8 4.8c1.4 0 2.4-1 2.5-2.3 0-1.3-1-2.4-2.3-2.5-1.3 0-2.4 1-2.5 2.4-0.1 1.2 1 2.3 2.3 2.4z" fill="#D1D3D4"/>
			<path d="m976.3 679.5h-2.3c0.2-1.3 0.7-2.7 0.5-4-0.2-2.3-2.1-4-4.4-4-7.5-0.1-15 0-22.6 0 0 0.5-0.1 1-0.1 1.6h20.2v6.4c-0.2 0-0.4 0.1-0.6 0.1-7.9 0-15.8 0.1-23.7 0-5.2-0.1-8.5-5.8-6.1-10.4 1.2-2.4 3.2-3.9 5.9-4 11.1-0.1 22.2 0 33.3 0-0.1 4.7-0.1 9.5-0.1 14.3z" fill="#F1F2F2"/>
			<path d="m917.4 670.8c0-4.9 3.8-8.6 8.7-8.6 4.7 0 8.5 3.9 8.5 8.6 0 4.9-3.8 8.6-8.7 8.6-4.7 0-8.5-3.9-8.5-8.6z" fill="#F1F2F2"/>
			<path d="m978 665.2h5.5v14.3h-5.5v-14.3z" fill="#F1F2F2"/>
			<path d="m968.5 673.7c1.6-0.1 3.2-0.4 4.2 1.2 0.6 1 0.6 2-0.1 3-1 1.5-2.6 1.3-4.2 1.2 0.1-1.8 0.1-3.5 0.1-5.4z" fill="#F1F2F2"/>
			<path d="m935.5 677.9c0.6 0.6 1.1 1.2 1.7 1.9h-4c0.8-0.7 1.5-1.3 2.3-1.9z" fill="#F1F2F2"/>
			<path d="m941.9 644.6c1.3 0 2.4 1.1 2.4 2.4s-1.1 2.5-2.5 2.5c-1.3 0-2.4-1.2-2.4-2.4 0.1-1.4 1.2-2.5 2.5-2.5z" fill="#fff"/>
			<path d="m909.4 647c0 1.3-1.1 2.4-2.4 2.4s-2.4-1.1-2.4-2.4 1.1-2.4 2.4-2.4c1.4 0 2.4 1 2.4 2.4z" fill="#fff"/>
			<path d="m902 650.1c1.3 0 2.4 1 2.5 2.4 0 1.3-1 2.4-2.3 2.5-1.3 0-2.4-1-2.5-2.3-0.1-1.5 1-2.6 2.3-2.6z" fill="#fff"/>
			<path d="m946.8 654.9c-1.3 0-2.4-1.2-2.4-2.5s1.2-2.4 2.5-2.4 2.4 1.2 2.3 2.5c0 1.4-1 2.4-2.4 2.4z" fill="#fff"/>
			<path d="m743.8 525.7v-0.3-29.8c0-1.1-0.9-2.1-2.1-2.1-1.1 0-2.1 0.9-2.1 2.1v29.8 0.3c-3.2 0.9-5.5 3.8-5.5 7.2 0 4.2 3.4 7.5 7.5 7.5 4.2 0 7.5-3.4 7.5-7.5 0.2-3.4-2.2-6.3-5.3-7.2z" fill="#F1F2F2"/>
			<rect y="498.9" x="739.7" height=".3" width="2.4" fill="#414042"/>
			<rect y="499.7" x="739.7" height=".3" width="2.4" fill="#414042"/>
			<rect y="500.5" x="739.7" height=".3" width="2.4" fill="#414042"/>
			<rect y="501.2" x="739.7" height=".3" width="2.4" fill="#414042"/>
			<rect y="502" x="739.7" height=".3" width="2.4" fill="#414042"/>
			<rect y="502.8" x="739.7" height=".3" width="2.4" fill="#414042"/>
			<rect y="503.5" x="739.7" height=".3" width="2.4" fill="#414042"/>
		<path d="m590.8 435.2c-1.8-2-3.2-3.4-4.4-5-1-1.4-1.6-3-2.4-4.5 1.4 1 3 1.9 4.2 3.2 2.1 2.1 4 4.5 6.2 6.9 3.5-3.1 6.6-5.9 10.1-8.9-1.4-1.6-2.8-3-4-4.6-0.7-0.9-1-2.2-1.4-3.3 1 0.5 2.3 0.8 3.1 1.6 5.3 5.8 10.5 11.7 15.6 17.6 0.7 0.9 1 2.1 1.4 3.2-1.1-0.6-2.4-1-3.3-1.8-1.4-1.2-2.5-2.8-3.9-4.3-3.4 3-6.4 5.7-10.1 8.9 2.7 3 5.4 5.9 7.9 9 0.5 0.6 0.6 1.7 0.9 2.5-0.9-0.4-2-0.5-2.6-1.1-2-2.1-3.9-4.3-6-6.7-14.9 13.2-29.6 26.2-44.4 39.4-1.4-1.3-2.6-2.5-4.1-3.9-2.6 2.3-5.1 4.7-7.8 6.8-0.9 0.7-2.3 0.7-3.3 1.1-0.9 0.4-1.8 0.8-2.5 1.5-5.1 4.4-10.1 8.9-15.1 13.4-0.9 0.8-2.1 1.4-3.2 2.1-0.2-0.2-0.4-0.4-0.6-0.7 0.5-0.6 0.9-1.2 1.5-1.7 5.4-4.8 10.8-9.5 16.1-14.4 0.8-0.7 1-2.2 1.6-3.2 0.5-0.8 1-1.7 1.7-2.3 2.5-2.3 5-4.5 7.7-6.8-1.1-1.5-2.1-2.9-3.3-4.5 14.7-13.2 29.5-26.2 44.4-39.5zm-14.2 32c-2.9-3.2-5.7-6.4-8.5-9.6-6.6 5.8-12.9 11.5-19.3 17.1 2.8 3.2 5.5 6.2 8.2 9.2 1.5-1.4 2.9-2.6 4.4-3.9-1.4-1.9-2.6-3.6-3.9-5.3 0.3-0.2 0.5-0.4 0.8-0.6 1.5 1.5 3.1 3 4.7 4.6 0.9-0.8 1.6-1.4 2.4-2.1-1.4-1.9-2.7-3.6-4-5.4 0.3-0.2 0.6-0.5 0.8-0.7 1.6 1.5 3.2 3 5 4.7 3.9-3.8-3.1-4.7-1.4-8.1 1.7 1.7 3.3 3.2 5 4.9 0.8-0.9 1.5-1.6 2.1-2.2-1.4-1.9-2.7-3.6-3.9-5.2 0.2-0.2 0.5-0.4 0.7-0.6 1.5 1.5 3 3 4.6 4.5 0.9-0.5 1.6-1 2.4-1.4 0.9-0.2 1.9-0.3 2.5-0.8 5.6-4.9 11.2-9.8 16.6-14.7-2-2.2-3.6-4-5.2-5.9-0.2 0.1-0.4 0.3-0.5 0.4 1.3 1.7 2.6 3.3 4 5-1.2 1.1-2.3 2-3.4 3l-4.6-4.6-0.6 0.6c1.3 1.7 2.7 3.4 4 5.1-1.2 1.1-2.2 1.9-3.2 2.9-1.7-1.6-3.2-3.1-4.7-4.6l-0.7 0.7c1.4 1.6 2.9 3.2 4.3 4.9-1.2 1-2.1 1.8-3.1 2.7l-4.6-4.6c-0.2 0.2-0.5 0.4-0.7 0.6 1.3 1.7 2.6 3.3 4 5.1-1 0.9-1.8 1.6-2.6 2.3-1.7-1.6-3.2-3.1-4.8-4.6-0.1 0.1-0.2 0.3-0.3 0.4 1.2 2.1 2.3 4.1 3.5 6.2z" fill="#fff"/>
		<path d="m1035.2 628.7c3.1 2.1 4.5 5.9 3.4 9.6-0.4 1.4-0.4 2.6-0.2 4 0.4 2.4 0.3 4.9 0.5 7.3 0 0.6 0.1 1.3 0.1 2.1 6.6-3.2 12.5-7.3 18.8-10.6 0.1 0.2 0.3 0.4 0.4 0.6-0.4 0.4-0.7 0.8-1.1 1.2-5.7 5.4-11.4 10.7-17.1 16.2-0.5 0.5-0.8 1.4-0.8 2.1 0 7.8 0.1 15.6 0.2 23.4 0 3.2-1.4 5.1-3.8 5-2.5-0.1-4-2-3.9-5.2 0.2-5.3 0.6-10.7 0.9-16 0-0.6 0.1-1.3 0.1-2.3-2 1.9-3.7 3.6-5.6 5.4 0.3 0.4 0.5 0.9 0.8 1.1 2.5 1.8 2.2 5 0.8 7.1-1.7 2.7-4.3 4.1-7.5 4-4-0.2-6-4.3-3.9-7.6 1.3-2 3.1-3.4 5.5-4.1 2.9-0.8 3.1-1.3 1.5-3.9-0.1-0.1-0.2-0.3-0.3-0.6l1.3-1.3c0.7 0.8 1.3 1.4 2 2.2 1.8-1.7 3.6-3.2 5.2-5 0.5-0.6 0.4-1.7 0.5-2.6 0.1-1.1 0.1-2.2 0.2-3.6-3.5 2-6.7 3.8-10.1 5.7 0.6 0.9 1 1.6 1.5 2.5-0.5 0.3-0.9 0.7-1.3 0.9-0.2-0.1-0.4-0.1-0.4-0.1-2.5-2.8-2.4-2.7-4.8 0.3-1.2 1.5-3 2.7-4.8 3.6-1.7 0.9-3.5 0.7-5-0.7s-2-3.2-1.5-5.2c0.8-3.5 5-6.4 8.4-6 1.8 0.2 3.2 1 3.9 2.8 0.5 1.3 1.1 1.3 2.2 0.7 3.6-2.1 7.3-4 10.8-6.1 0.6-0.3 1.1-1.2 1.2-1.8 0.3-3.4 0.5-6.7 0.7-10.1 0.3-4.6 0.6-9.1 0.8-13.7 0.3-0.6 0.3-0.9 0.4-1.3zm-17.1 36.3c0.6-1.7 0.8-3.2-0.3-4.5s-2.5-1.6-4.1-1.2c-2.6 0.6-4.5 2.2-5.3 4.7-1 2.9 0.9 5.4 4 5.1 2.7-0.3 4.5-1.9 5.7-4.1zm0.1 11.8c-1.2 3 0.5 5.6 3.8 5.4 2.9-0.1 4.9-1.6 6.1-4.2 1.3-2.8-0.4-5.3-3.5-5.5-2.7 0-5.4 1.8-6.4 4.3zm28.8-27.1c-0.1-0.1-0.2-0.3-0.2-0.4-1.9 1.1-3.8 2.2-5.7 3.2-2.4 1.4-2.5 1.6-1.8 4.4 2.6-2.3 5.2-4.8 7.7-7.2z" fill="#fff"/>
		<g fill="#fff">
			<path d="m802 491.9v7c0 5.3-0.2 5.7-3.3 5.6-3 0-3.2-0.3-3.2-5.8v-6.8h-9.3c-0.1 1.8-0.2 3.5-0.4 5.5h-6.3c-0.1-1.8-0.2-3.5-0.2-5.2-0.2 0.1-0.3 0.3-0.5 0.4-2.4-2.2-4.9-4.3-7.3-6.6-0.5-0.5-0.6-1.6-0.6-2.4 0-23.8 0-47.6-0.1-71.4 0-1.8 0.6-2.5 2.3-3 8-2.2 15.9-4.6 23.9-6.8 1.1-0.3 2.5-0.3 3.6 0 7.9 2.2 15.7 4.6 23.6 6.7 1.7 0.5 2.2 1.3 2.2 3v71.7c0 2.6-4.4 7-8.2 8.1-0.1 1.6-0.2 3.3-0.3 5.3h-6.2c-0.1-1.8-0.2-3.5-0.3-5.5-3 0.2-6 0.2-9.4 0.2zm15.2-7c0.3 0 0.7-0.1 1.2-0.1 5.2-0.2 5.8-0.7 5.8-5.9v-61.8c0-4.1-0.9-5-4.9-5h-40.4c-4.5 0-5.3 0.8-5.3 5.5v58.9c0 7.5 0 7.5 7.5 8.5 0 1.1-0.2 2.3 0.1 3.3 0.2 0.8 1.1 1.4 1.7 2.1 0.6-0.7 1.4-1.4 1.6-2.2 0.3-1 0.1-2.2 0.1-3.3h12.8c0 1.3-0.2 2.4 0.1 3.4 0.2 0.8 1.1 1.4 1.6 2.2 0.6-0.7 1.4-1.4 1.6-2.2 0.3-1 0.1-2.2 0.1-3.2h12.1c1.7 1.8-0.9 5.2 2.2 5.3 3.2-0.1 0.7-3.6 2.1-5.5zm-18.4-81.6c-0.9 1.6-1.8 2.5-1.7 3.1 0.2 0.7 1.3 1.5 2.1 1.7 0.4 0.1 1.5-1.2 1.5-1.9s-0.9-1.4-1.9-2.9z"/>
			<path d="m779.9 435.9h28.6v0.5h-28.6v-0.5z"/>
			<path d="m805.1 441.9h-25v-0.5h25v0.5z"/>
			<path d="m800.7 447.2h-20.8v-0.5h20.8c-0.1 0.2 0 0.3 0 0.5z"/>
			<path d="m803.9 431.1h-24v-0.5h23.9c0 0.2 0 0.3 0.1 0.5z"/>
		</g>
		<g stroke-miterlimit="10" stroke="#fff" stroke-width="2" stroke-linecap="round" fill="none">
				<line y2="609.6" x1="954.6" x2="972" y1="609.6"/>
				<line y2="618.3" x1="963.3" x2="963.3" y1="600.9"/>
		</g>
		<g stroke-miterlimit="10" stroke="#fff" stroke-width="2" stroke-linecap="round" fill="none">
				<line y2="565.3" x1="912.6" x2="930" y1="565.3"/>
				<line y2="574" x1="921.3" x2="921.3" y1="556.6"/>
		</g>
		<g stroke-miterlimit="10" stroke="#fff" stroke-width="2" stroke-linecap="round" fill="none">
				<line y2="463.9" x1="439.2" x2="456.6" y1="463.9"/>
				<line y2="472.5" x1="447.9" x2="447.9" y1="455.2"/>
		</g>
		<g stroke-miterlimit="10" stroke="#fff" stroke-width="2" stroke-linecap="round" fill="none">
				<line y2="516.2" x1="255.1" x2="272.4" y1="516.2"/>
				<line y2="524.9" x1="263.7" x2="263.7" y1="507.5"/>
		</g>
		<g stroke-miterlimit="10" stroke="#fff" stroke-width="2" stroke-linecap="round" fill="none">
				<line y2="556.3" x1="116.7" x2="134.1" y1="556.3"/>
				<line y2="565" x1="125.4" x2="125.4" y1="547.6"/>
		</g>
		<g stroke-miterlimit="10" stroke="#fff" stroke-width="2" stroke-linecap="round" fill="none">
				<line y2="633.2" x1="437" x2="454.4" y1="633.2"/>
				<line y2="641.8" x1="445.7" x2="445.7" y1="624.5"/>
		</g>
		<g stroke-miterlimit="10" stroke="#fff" stroke-width="2" stroke-linecap="round" fill="none">
				<line y2="436.5" x1="865.5" x2="882.8" y1="436.5"/>
				<line y2="445.2" x1="874.2" x2="874.2" y1="427.8"/>
		</g>
		<g stroke-miterlimit="10" stroke="#fff" stroke-width="2" stroke-linecap="round" fill="none">
				<line y2="615.5" x1="742.5" x2="759.9" y1="615.5"/>
				<line y2="624.2" x1="751.2" x2="751.2" y1="606.8"/>
		</g>
		<g stroke-miterlimit="10" stroke="#fff" stroke-width="2" stroke-linecap="round" fill="none">
				<line y2="509.9" x1="416.8" x2="447.7" y1="509.9"/>
				<line y2="509.9" x1="455.4" x2="467.5" y1="509.9"/>
		</g>
		<g stroke-miterlimit="10" stroke="#fff" stroke-width="2" stroke-linecap="round" fill="none">
				<line y2="551.7" x1="281.5" x2="312.3" y1="551.7"/>
				<line y2="551.7" x1="320" x2="332.2" y1="551.7"/>
		</g>
		<g stroke-miterlimit="10" stroke="#fff" stroke-width="2" stroke-linecap="round" fill="none">
				<line y2="598.7" x1="877.9" x2="908.7" y1="598.7"/>
				<line y2="598.7" x1="916.4" x2="928.6" y1="598.7"/>
		</g>
		<g stroke-miterlimit="10" stroke="#fff" stroke-width="2" stroke-linecap="round" fill="none">
				<line y2="698.8" x1="1021" x2="1051.9" y1="698.8"/>
				<line y2="698.8" x1="1059.6" x2="1071.7" y1="698.8"/>
		</g>
		<g stroke-miterlimit="10" stroke="#fff" stroke-width="2" stroke-linecap="round" fill="none">
				<line y2="608.5" x1="1111.7" x2="1142.6" y1="608.5"/>
				<line y2="608.5" x1="1150.3" x2="1162.4" y1="608.5"/>
		</g>
		<g stroke-miterlimit="10" stroke="#fff" stroke-width="2" stroke-linecap="round" fill="none">
				<line y2="705.5" x1="215.5" x2="246.3" y1="705.5"/>
				<line y2="705.5" x1="254" x2="266.2" y1="705.5"/>
		</g>
			<circle r="5.4" stroke-linecap="round" cy="516.6" stroke="#fff" cx="534.5" stroke-miterlimit="10" stroke-width="2" fill="none"/>
			<circle r="5.6" stroke-linecap="round" cy="408.6" stroke="#fff" cx="511.9" stroke-miterlimit="10" stroke-width="2" fill="none"/>
			<circle r="6.2" stroke-linecap="round" cy="493.4" stroke="#fff" cx="374.3" stroke-miterlimit="10" stroke-width="2" fill="none"/>
			<circle r="6.9" stroke-linecap="round" cy="641.9" stroke="#fff" cx="284.2" stroke-miterlimit="10" stroke-width="2" fill="none"/>
			<circle r="7.1" stroke-linecap="round" cy="439.5" stroke="#fff" cx="349" stroke-miterlimit="10" stroke-width="2" fill="none"/>
			<circle r="5.1" stroke-linecap="round" cy="471" stroke="#fff" cx="153.5" stroke-miterlimit="10" stroke-width="2" fill="none"/>
		<g opacity=".02">
			<polygon points="401.5 195 683 32.5 964.5 195 964.5 520 683 682.5 401.5 520" fill="#2895F1"/>
				<defs>
					<polygon id="SVGID_2_" points="401.5 195 683 32.5 964.5 195 964.5 520 683 682.5 401.5 520"/>
				</defs>
				<clipPath id="SVGID_3_">
					<use overflow="visible" xlink:href="#SVGID_2_"/>
				</clipPath>
				<polyline fill="#9B9DA0" points="493.2 462.2 462.5 371.4 476.4 337.9 563.8 277 636.9 211.8 734.8 200.6 766 197.1 1019.4 341.5 1021.2 769.9" clip-path="url(#SVGID_3_)"/>
			<path d="m917.6 368.5c-0.1 0.3-0.1 0.6-0.2 1v1.2 1.8c0 1.7-0.2 3.3-0.4 5l-0.6 4.2c-0.5 3.2-1.1 6.4-1.9 9.6-4.4 17.5-12.5 33.1-24.2 46.8-10.1 11.8-22.1 21.2-35.7 28.6-9.9 5.3-20.3 9.1-31.2 11.6-3 0.7-6 1.3-9.1 1.8-2.2 0.4-4.5 0.6-6.7 0.9-1.4 0.2-2.7 0.2-4.1 0.3-1.9 0.2-3.8 0.2-5.7 0.3-1.5 0.1-3.1 0.2-4.6 0.3-0.4 0-0.7 0.1-1.1 0.1-2.7 0.1-5.5 0.2-8.2 0.3-7 0.3-14 0.3-21 0.2-3.3 0-6.6-0.1-9.9-0.2-1.8 0-3.6 0-5.4-0.1-2.6-0.1-5.2-0.1-7.7-0.2-0.5 0-1.1-0.1-1.7 0.1-0.3 0.3-0.6 0.7-0.9 1-12.9 13.4-25.9 26.8-38.8 40.3-3.2 3.3-6.3 6.5-9.5 9.8l-0.7 0.7c-0.3 0.3-0.4 0.3-0.8 0-0.2-0.1-0.3-0.2-0.5-0.4-11.1-8.2-22.1-16.4-33.1-24.6-0.2-0.2-0.5-0.4-0.7-0.5 0 0-0.1-0.3 0-0.4 0.2-0.2 0.3-0.4 0.5-0.6 3.5-3.8 7-7.6 10.4-11.5 11.7-12.8 23.4-25.7 35.1-38.5 4.7-5.2 9.4-10.4 14.2-15.5 0.4-0.4 0.7-0.8 1.1-1.2 0.5-0.1 1.1-0.1 1.6-0.1 3.2-0.1 6.3-0.1 9.5 0 2.3 0.1 4.7 0.1 7 0.2 2.9 0.1 5.7 0.2 8.6 0.3 0.7 0 1.4 0.1 2.1 0.1 3.4 0.1 6.7 0.3 10.1 0.4 1 0 1.9 0.1 2.9 0.1 4.1 0.1 8.2 0.3 12.4 0.2 2.8 0 5.6-0.1 8.4-0.2 2.3 0 4.6-0.2 6.9-0.3 2.3-0.2 4.6-0.4 6.8-0.6 2.7-0.3 5.5-0.7 8.2-1.1 0.8-0.1 1.6-0.3 2.5-0.4 0.3-0.1 0.7-0.1 0.9-0.3s0.5-0.2 0.7-0.2c1.2-0.2 2.5-0.4 3.7-0.6 2-0.3 3.9-0.9 5.8-1.4 2.5-0.7 5-1.5 7.5-2.3 3-1.1 6-2.4 8.8-3.9 9-4.6 16.8-10.7 23.4-18.3 6.9-8 12-17 15-27.2 1-3.3 1.7-6.7 2.2-10.1 0.7-4.6 0.9-9.2 0.6-13.8-0.5-9.5-2.9-18.6-7-27.2-4.3-9-10.3-16.7-17.7-23.3-9.4-8.4-20.3-14.1-32.4-17.4-3-0.8-6-1.4-9-1.9-1.7-0.3-3.4-0.5-5.1-0.6-1.2-0.1-2.3-0.2-3.5-0.2-0.4 0-0.6-0.2-0.7-0.5s-0.3-0.6-0.4-0.9c-10.4-25.3-30.5-46.3-56.2-57.7-6.6-2.9-13.4-5.2-20.5-6.7-2.5-0.5-5.1-1-7.6-1.4-1.8-0.3-3.6-0.5-5.3-0.6-1.7-0.2-3.4-0.2-5.1-0.4-0.8-0.1-1.6-0.1-2.4-0.1h-6.3c-2 0.1-4 0.2-6 0.4-1.1 0.1-2.2 0.2-3.4 0.3-1.4 0.2-2.7 0.3-4.1 0.6-2.7 0.4-5.4 1-8.1 1.6-11.2 2.7-21.6 7-31.4 13-14.2 8.8-25.8 20.3-34.8 34.4-2.4 3.7-4.3 7.7-6 11.8-2 4.9-3.6 9.9-5 14.9-1.2 4.3-2.2 8.6-3 12.9 0 0.2-0.1 0.3-0.1 0.5 0 0.1-0.2 0.3-0.4 0.3h-0.6c-1.6-0.2-3.1-0.4-4.7-0.6-0.9-0.1-1.8-0.2-2.7-0.3-1.4-0.1-2.7-0.2-4.1-0.3-2.2-0.2-4.3-0.2-6.5-0.3-1.9-0.1-3.8-0.1-5.7 0-1.1 0.1-2.3 0.1-3.4 0.2-1.4 0.1-2.7 0.2-4.1 0.4-1.4 0.1-2.7 0.3-4.1 0.6-5.5 0.9-10.9 2.6-15.9 5-7.3 3.6-14 8.1-19.9 13.7-5.8 5.5-10.6 11.9-14.1 19.1-2.5 5.1-4.3 10.5-5.3 16.1-0.8 4.3-1.1 8.6-0.9 13 0.4 10.4 3.4 20 8.7 28.9 1.3 2.3 2.9 4.4 4.6 6.4 4.6 5.8 10 10.7 16.1 14.9 6.9 4.9 14.3 8.6 22.3 11.4 1 0.3 1 0.3 2.1 0.3 7.3-0.1 14.5-0.1 21.8-0.2 7.4 0 14.8-0.1 22.3-0.1 3.8 0 7.6-0.1 11.4-0.1 4.3 0 8.5-0.1 12.8-0.1h1.1c0.3 0 0.5-0.1 0.7-0.3l0.8-0.8c10.9-11.9 21.8-23.8 32.7-35.7 3.7-4 7.3-8 11-12 0.3-0.3 0.5-0.6 0.8-0.8 0 0 0.1-0.2 0.2-0.3-0.2-0.4-0.6-0.7-0.9-1l-11.9-11.9-0.8-0.8c-0.1-0.1-0.1-0.2-0.1-0.2 0-0.1 0.1-0.2 0.2-0.2 0.4 0 0.7-0.1 1.1-0.1 2.2-0.1 4.3-0.2 6.5-0.3 2-0.1 4-0.3 6-0.4l6-0.3c2.2-0.1 4.4-0.3 6.6-0.4h0.5c2.2-0.1 4.3-0.2 6.5-0.3 2-0.1 4-0.3 6-0.4h0.5c2.2-0.1 4.3-0.2 6.5-0.3 2-0.1 4-0.3 6-0.4s3.9-0.2 5.9-0.3c0.9 0 1.7-0.1 2.6-0.2 0.4 0 0.6 0.1 0.6 0.5 0.1 0.4 0.1 0.7 0.1 1.1 0.1 1.7 0.3 3.3 0.4 5 0.1 1.1 0.2 2.2 0.3 3.2 0.1 1.4 0.2 2.7 0.3 4.1s0.3 2.7 0.4 4.1c0.1 1 0.2 2.1 0.3 3.1 0.1 1.4 0.2 2.7 0.3 4.1s0.3 2.8 0.4 4.2c0.1 1.1 0.2 2.2 0.3 3.4 0.1 1.4 0.2 2.7 0.3 4.1s0.2 2.7 0.4 4.1c0.1 1 0.2 2.1 0.3 3.1 0.1 1.4 0.2 2.7 0.3 4.1s0.3 2.8 0.4 4.2v1.2s-0.1 0.1-0.2 0.1c-0.3-0.2-0.6-0.3-0.9-0.5-2.5-1.7-5-3.4-7.4-5.1-2.4-1.6-4.8-3.3-7.2-4.9-0.2-0.2-0.5-0.3-0.7-0.5-0.3-0.2-0.5-0.2-0.8 0.1s-0.5 0.6-0.8 0.8c-3.1 3.5-6.2 7-9.3 10.4-11.1 12.5-22.3 25-33.5 37.3-3.7 4-7.4 8-11 11.9l-3.9 3.9c-0.5 0.5-0.9 1-1.5 1.3-0.6 0-1.2 0.1-1.7 0.1h-101.9-0.3c-0.8 0.1-1.6-0.1-2.3-0.3-4.9-1.4-9.7-3-14.4-4.9-9.1-3.7-17.7-8.3-25.8-13.9-7.5-5.3-14.3-11.3-20.4-18.2-9.7-11.2-16.7-23.8-20.9-38.1-1-3.4-1.8-6.9-2.4-10.5-0.5-2.8-0.9-5.5-1.1-8.3-0.2-1.7-0.2-3.3-0.3-5 0-0.6-0.1-1.2-0.1-1.7 0-0.3-0.2-0.5-0.4-0.6v-6c0.2-0.1 0.4-0.4 0.4-0.6 0-0.3 0.1-0.7 0.1-1 0.1-2.5 0.4-5 0.7-7.5 0.6-3.8 1.4-7.6 2.4-11.4 2.1-7.3 5-14.3 8.8-20.9 5-9 11.3-17.2 18.5-24.6 11.2-11.4 24.2-20.4 38.8-26.9 9.5-4.2 19.3-7.3 29.5-9 0.3-0.1 0.6-0.2 1-0.3 0.2-0.4 0.3-0.7 0.5-1 6.6-14.5 15.4-27.5 26.2-39.2 12-12.9 25.8-23.5 41.3-31.8 18.2-9.7 37.6-15.7 58.1-18.1 0.9-0.1 1.8-0.2 2.7-0.3 1.4-0.1 2.8-0.3 4.2-0.4 2-0.1 4.1-0.2 6.1-0.3 0.4 0 0.8 0 1.1-0.2h10.8c0.3 0.1 0.6 0.2 0.8 0.2 1.9 0.1 3.7 0.2 5.6 0.3l4.2 0.3c1.8 0.2 3.6 0.4 5.5 0.6 2.9 0.3 5.9 0.8 8.8 1.4 4.6 0.9 9.2 1.9 13.8 3.2 15.7 4.3 30.4 10.8 44.2 19.6 18.7 12 34.3 27.2 46.5 45.8 0.7 1 0.4 0.9 1.7 1.3 6.8 2 13.5 4.6 19.9 7.7 15.4 7.6 28.8 17.8 39.9 30.9 11.5 13.6 19.5 29 23.8 46.3 0.8 3.2 1.5 6.4 1.9 9.7l0.6 4.2c0.2 1.6 0.4 3.1 0.4 4.7v1.8c0 0.5 0 1 0.1 1.5 0 0.3 0.1 0.7 0.2 1-0.6 1.9-0.6 4.4-0.6 6.9z" fill="#fff"/>
		</g>
		<g stroke-miterlimit="10" stroke="#2E3192" stroke-width="2" stroke-linecap="round" fill="none">
			<polyline points="567.3 386.6 557.8 377 532.2 377"/>
				<circle r="4" cy="376.9" cx="528.3"/>
		</g>
		<g stroke-miterlimit="10" stroke="#2E3192" stroke-width="2" stroke-linecap="round" fill="none">
			<polyline points="797.7 383.7 807.3 374.1 832.8 374.1"/>
				<circle r="4" cy="374" cx="836.8"/>
		</g>
		<g stroke-miterlimit="10" stroke="#2E3192" stroke-width="2" stroke-linecap="round" fill="none">
			<polyline points="754.5 385.1 764 394.7 785.5 394.7"/>
				<circle r="4" cy="394.8" cx="789.5"/>
		</g>
		<g stroke-miterlimit="10" stroke="#2E3192" stroke-width="2" stroke-linecap="round" fill="none">
			<polyline points="494.5 547.1 502 554.7 502 574.9"/>
				<circle r="3.2" cy="578" cx="502.1"/>
		</g>
		<g stroke-miterlimit="10" stroke="#2E3192" stroke-width="2" stroke-linecap="round" fill="none">
			<polyline points="493.3 476.3 483.7 485.9 483.7 511.4"/>
				<circle r="4" cy="515.4" cx="483.6"/>
		</g>
		<g stroke-miterlimit="10" stroke="#2E3192" stroke-width="2" stroke-linecap="round" fill="none">
			<polyline points="745.9 400.1 736.4 409.7 736.4 435.2"/>
				<circle r="4" cy="439.2" cx="736.2"/>
		</g>
		<g stroke-miterlimit="10" stroke="#2E3192" stroke-width="2" stroke-linecap="round" fill="none">
			<polyline points="897.3 409.8 887.7 419.4 887.7 444.9"/>
				<circle r="4" cy="448.9" cx="887.6"/>
		</g>
		<polyline fill="none" stroke="#2E3192" stroke-linecap="round" stroke-miterlimit="10" stroke-width="2" points="653.2 342 653.2 376.7 643.8 385.9 494.3 385.9 477.8 403.6 477.8 452.7 493.4 465.1 494.3 569.5 482.3 587.9 482.3 662.5"/>
		<g stroke-miterlimit="10" stroke="#2E3192" stroke-width="2" stroke-linecap="round" fill="none">
			<polyline points="478.2 403.9 487.8 413.5 487.8 439"/>
				<circle r="4" cy="443" cx="487.9"/>
		</g>
		<g stroke-miterlimit="10" stroke="#2E3192" stroke-width="2" stroke-linecap="round" fill="none">
			<polyline points="746.9 444.5 756.8 454.1 756.8 479.8"/>
				<ellipse rx="4.1" cy="483.9" ry="4" cx="756.9"/>
		</g>
		<g stroke-miterlimit="10" stroke="#2E3192" stroke-width="2" stroke-linecap="round" fill="none">
			<polyline points="898.5 431.8 908.1 441.4 908.1 466.9"/>
				<circle r="4" cy="470.9" cx="908.2"/>
		</g>
		<polyline fill="none" stroke="#2E3192" stroke-linecap="round" stroke-miterlimit="10" stroke-width="2" points="680.7 335.4 680.7 385.5 689.3 390.6 741.7 390.6 746.4 393.7 746.4 459 725.8 468.7 725.8 548.3 717.8 554.1 699.6 554.1"/>
		<polyline fill="none" stroke="#2E3192" stroke-linecap="round" stroke-miterlimit="10" stroke-width="2" points="714.3 341 714.3 377.7 721.7 384.2 885.5 384.2 898.3 393.4 898.3 497.4 908.2 504.6 918.4 504.6"/>
		<circle cy="340" cx="653.2" r="5.5" fill="#2E3192"/>
		<circle cy="340" cx="681" r="5.5" fill="#2E3192"/>
		<circle cy="340" cx="714.3" r="5.5" fill="#2E3192"/>
		<circle r="4.6" cy="372.5" stroke="#2E3192" cx="857.9" stroke-miterlimit="10" stroke-width="2" fill="#fff"/>
		<circle r="4.6" cy="390.8" stroke="#2E3192" cx="710.3" stroke-miterlimit="10" stroke-width="2" fill="#fff"/>
		<circle r="4.6" cy="427.2" stroke="#2E3192" cx="477.3" stroke-miterlimit="10" stroke-width="2" fill="#fff"/>
				<path d="m947.2 489.7c0.4-0.5 1-1 1.1-1.6 0.5-6.8-4-13.7-10.3-15.8-0.7-8.7 4-17.7 11.9-22.3-6.1-8.2-8.6-17.6-8.3-27.6 0.3-11.4 8-20.3 19.1-23 0.3-0.1 0.7-0.3 1-0.5h6.7c2.4 0.9 5 1.5 7.2 2.7 9.7 5 14.3 15.5 12.6 27.7-1 7.6-3.3 14.6-8.2 20.9 6 4.4 10 10.1 11.7 17.4-2.7 1.3-4.8 3-5.1 6.1-0.3 3.6 1.9 6.8 5.2 7.5 3.6 0.8 7.2-1.2 8.2-4.5 1.1-3.4-0.5-7.3-3.8-8.5-1.7-0.6-2.2-1.7-2.9-3.2-1.6-3.9-3.7-7.6-5.5-11.3 5.9 3.2 11 7.7 15.1 13.4 4.7 6.4 7.6 13.6 8.6 21.5 0.1 1-0.4 2.4-1 3.2-6.2 8.5-14.7 13.5-24.7 15.9-17 4.1-33.9 3.9-50.2-3.1-6.6-2.8-12.1-7.2-16.3-13.1-0.5-0.8-1-1.9-0.9-2.7 2.1-14.8 8.9-26.6 21.8-34.5 0.4-0.3 0.9-0.5 1.5-0.6-4 5.2-5.9 11.1-6.3 17.5 0 0.6-0.8 1.5-1.4 1.7-5.4 2.2-8.4 10-8.1 15.4 0.1 1.6 1 3.1 1.8 4.6 0.2 0.4 1.3 0.8 1.9 0.6 0.5-0.2 1.2-1 1.2-1.5 0-0.6-0.7-1.6-1.1-1.6-3.7-0.2-3.4-2.6-2.6-4.9 0.9-2.9 1.8-5.9 3.6-8.3 3.5-4.8 9.2-4.7 13 0 2.8 3.7 3.9 7.9 3.5 12.5-0.9 0.2-2 0.2-2.8 0.7-0.7 0.4-1.3 1.2-1.4 1.9-0.1 0.3 0.9 1.4 1.3 1.3 0.7-0.1 1.6-0.7 2-1.3 0.5-0.7 0.6-1.7 0.9-2.6zm-2.3-61.3c0.2 8.6 4.5 17.7 10.4 22.4 6.1 4.8 13.4 4.8 19.5 0 4.4-3.5 7.2-8 8.7-13.3 1.1-3.9 1.7-7.9 2.6-11.9-0.3-0.1-0.5-0.1-0.8-0.2-0.7 0.7-1.4 1.3-1.8 1.7-1.7-4.3-3.5-8.6-5.3-13.1-8.5 5.1-16.6 4.1-24.7 1.3-3.9-1.3-5.1-0.8-5.7 3.5-0.3 2.4-0.3 4.8-0.3 7.2 0 1.1 0.2 2.3 0.3 3.6-1.2-0.5-1.9-0.8-2.9-1.2zm19.7 41.6c4-5.4 7.8-10.3 11.6-15.3-8 5-15.5 4.5-23-0.5 3.7 5.1 7.4 10.2 11.4 15.8zm19.3 17.4c-1.6-0.2-3-0.3-4.3-0.4-0.1-1.7-0.2-2.9-0.2-4.3h-3.7c-0.1 1.5-0.2 2.9-0.3 4.3-1.6 0.1-3 0.3-4.4 0.4v3.6c1.5 0.1 2.9 0.2 4.4 0.3 0.1 1.5 0.3 2.9 0.4 4.3h3.6c0.1-1.5 0.1-2.8 0.2-4.3 1.5-0.1 2.8-0.2 4.3-0.3v-3.6z" fill="#F1F2F2"/>
				<path d="m993.7 470.1c2.6 0.1 4.4 2.2 4.3 4.8-0.1 2.4-2.1 4.3-4.6 4.3s-4.5-2.1-4.4-4.7c0-2.6 2.1-4.5 4.7-4.4z" fill="#FFC300"/>
				<path d="m964.6 470c-4-5.5-7.7-10.7-11.4-15.9 7.5 5 15 5.6 23 0.5-3.8 5-7.6 10-11.6 15.4z" fill="#FFC300"/>
				<path d="m983.9 487.4v3.6c-1.5 0.1-2.8 0.2-4.3 0.3-0.1 1.5-0.1 2.8-0.2 4.3h-3.6c-0.1-1.3-0.3-2.8-0.4-4.3-1.5-0.1-2.8-0.2-4.4-0.3v-3.6c1.4-0.1 2.8-0.3 4.4-0.4 0.1-1.5 0.2-2.8 0.3-4.3h3.7c0.1 1.4 0.1 2.6 0.2 4.3 1.3 0.1 2.7 0.3 4.3 0.4z" fill="#FFC300"/>
				<path d="m965 527.3h40.5 1c1.4 0 2.3 0.5 2.3 1.2s-0.9 1.3-2.4 1.3h-19.5-62.5-1.2c-1.4 0-2.3-0.6-2.3-1.3s0.9-1.2 2.3-1.2h16.3 25.5z" fill="#FFC300"/>
				<path stroke="#fff" stroke-miterlimit="10" d="m965 493.5h46.1c3 0 5 0.8 5.5 2.3 0.1 0.3 0.1 0.7-0.1 1.1-3.2 8.5-6.3 17-9.5 25.5-0.1 0.2-0.2 0.5-0.3 0.8-0.7 2.2-2.2 3-6.1 3h-71.3c-3.8 0-5.2-0.8-6-2.9-1.9-5.2-3.8-10.3-5.7-15.5-1.3-3.6-2.7-7.2-4-10.8-0.6-1.5 1-3 3.6-3.3 0.8-0.1 1.6-0.1 2.5-0.1 15-0.1 30.1-0.1 45.3-0.1zm2.6 16.6c0-0.9-1.2-1.6-2.6-1.6-1.5 0-2.7 0.7-2.6 1.6 0 0.8 1.1 1.5 2.6 1.5 1.4 0 2.6-0.7 2.6-1.5z" fill="#D1D3D4"/>
				<path d="m967.6 510.1c0 0.9-1.2 1.6-2.7 1.5-1.4 0-2.6-0.7-2.6-1.5 0-0.9 1.2-1.6 2.6-1.6 1.5 0 2.7 0.7 2.7 1.6z" fill="#FFC300"/>
				<ellipse rx="9.7" cy="493.6" ry="10.2" stroke="#fff" cx="621" stroke-miterlimit="10" fill="none"/>
				<polygon points="627.2 491.5 623 491.5 623 487 618.6 487 618.6 491.5 614.4 491.5 614.4 496.1 618.6 496.1 618.6 500.6 623 500.6 623 496.1 627.2 496.1" fill="#ED1C24"/>
				<g stroke="#fff" stroke-miterlimit="10" fill="#E6E7E8">
					<rect height="157.5" width="107.5" y="529.3" x="564.4"/>
					<polygon points="671.9 686.9 727.9 686.9 727.9 578 671.9 529.3"/>
					<polygon points="564.4 686.9 508.4 686.9 508.4 578 564.4 529.3"/>
					<rect height="157.5" width="107.5" y="529.3" x="564.4"/>
				</g>
				<g fill="#D1D3D4">
					<path d="m645 511.1c-0.2 0.8-0.4 1.8-0.6 2.6l-0.8 2.9h2.8l-0.8-2.9c-0.2-0.8-0.4-1.8-0.6-2.6z"/>
					<path d="m596.4 511.1c-2 0-3.1 2-3.1 4.6s1.2 4.5 3.1 4.5c2 0 3.1-2 3.1-4.6 0-2.5-1.1-4.5-3.1-4.5z"/>
					<path d="m618.7 511.1c-0.6 0-1 0.1-1.2 0.1v4c0.2 0.1 0.6 0.1 1 0.1 1.5 0 2.5-0.8 2.5-2.2 0-1.3-0.8-2-2.3-2z"/>
					<path d="m570.2 504.1v24.7h97.2v-24.7h-97.2zm18.1 18.2h-2.9v-5.6h-4.8v5.6h-2.9v-13.5h2.9v5.2h4.8v-5.2h2.9v13.5zm7.9 0.3c-3.8 0-6-3-6-6.9 0-4 2.5-7.1 6.2-7.1 3.9 0 6.1 3.1 6.1 6.8 0 4.5-2.5 7.2-6.3 7.2zm11.4-0.1c-1.5 0-2.9-0.4-3.6-0.8l0.6-2.5c0.8 0.4 2 0.8 3.2 0.8 1.3 0 2-0.6 2-1.5 0-0.8-0.6-1.3-2.1-1.9-2.1-0.8-3.5-2-3.5-4 0-2.3 1.8-4.1 4.8-4.1 1.4 0 2.5 0.3 3.3 0.7l-0.6 2.5c-0.5-0.3-1.4-0.6-2.7-0.6s-1.9 0.6-1.9 1.3c0 0.9 0.7 1.2 2.4 1.9 2.3 0.9 3.3 2.1 3.3 4-0.1 2.3-1.7 4.2-5.2 4.2zm15.1-6.3c-1 1-2.5 1.4-4.2 1.4-0.4 0-0.7 0-1-0.1v4.8h-2.9v-13.3c0.9-0.2 2.1-0.3 3.9-0.3s3.1 0.4 3.9 1.1 1.4 1.8 1.4 3.1c0.1 1.4-0.3 2.5-1.1 3.3zm5.9 6.1h-2.9v-13.5h2.9v13.5zm7.9 0h-2.9v-10.9h-3.4v-2.6h9.8v2.6h-3.5v10.9zm11.3 0l-1-3.5h-3.7l-0.9 3.5h-3l3.9-13.5h3.8l4 13.5h-3.1zm12.9 0h-8v-13.5h2.9v10.9h5.1v2.6z"/>
				</g>
				<rect y="591.6" x="514" height="19" width="19.5" fill="#939598"/>
				<rect y="591.6" x="539.8" height="19" width="19.5" fill="#939598"/>
				<rect y="620.3" x="514" height="19" width="19.5" fill="#939598"/>
				<rect y="620.3" x="539.8" height="19" width="19.5" fill="#939598"/>
				<rect y="592" x="681.7" height="19" width="19.5" fill="#939598"/>
				<rect y="591.6" x="703.1" height="19" width="19.5" fill="#939598"/>
				<rect y="620.3" x="677.3" height="19" width="19.5" fill="#939598"/>
				<rect y="620.3" x="703.1" height="19" width="19.5" fill="#939598"/>
				<rect y="650.1" x="677.3" height="19" width="19.5" fill="#939598"/>
				<rect y="650.1" x="703.1" height="19" width="19.5" fill="#939598"/>
				<rect y="543.9" x="607.8" height="19" width="19.5" fill="#939598"/>
				<rect y="543.9" x="636.5" height="19" width="19.5" fill="#939598"/>
				<rect y="572.6" x="579.2" height="19" width="19.5" fill="#939598"/>
				<rect y="572.6" x="607.8" height="19" width="19.5" fill="#939598"/>
				<rect y="572.6" x="636.5" height="19" width="19.5" fill="#939598"/>
				<rect y="601.3" x="579.2" height="19" width="19.5" fill="#939598"/>
				<rect y="601.3" x="607.8" height="19" width="19.5" fill="#939598"/>
				<rect y="601.3" x="636.5" height="19" width="19.5" fill="#939598"/>
				<g fill="#58595B">
					<rect y="627.4" x="579.2" height="59.5" width="38"/>
					<rect y="627.4" x="619.5" height="59.5" width="35.7"/>
				</g>
					<path d="m565.1 677.4l-10.3-19.4h-74.5c-7.6-1.8-10.9 8.3-10.9 8.3v40.8h12.9c-0.1-0.5-0.1-1-0.1-1.5 0-6.1 4.7-11 10.4-11 5.8 0 10.4 4.9 10.4 11 0 0.5 0 1-0.1 1.5h34.2c-0.1-0.5-0.1-1-0.1-1.5 0-6.1 4.7-11 10.4-11 5.8 0 10.4 4.9 10.4 11 0 0.5 0 1-0.1 1.5h20.3v-22.9l-12.9-6.8z" fill="#fff"/>
						<path d="m492.4 696.2c-4.9 0-8.9 4.2-8.9 9.4s4 9.4 8.9 9.4 8.9-4.2 8.9-9.4-4-9.4-8.9-9.4zm0 14.9c-2.9 0-5.3-2.5-5.3-5.6s2.4-5.6 5.3-5.6 5.3 2.5 5.3 5.6c-0.1 3.1-2.4 5.6-5.3 5.6z" fill="#58595B"/>
						<ellipse cy="705.6" cx="492.4" rx="4.6" ry="4.8" fill="#939598"/>
						<path d="m547.6 696.2c-4.9 0-8.9 4.2-8.9 9.4s4 9.4 8.9 9.4 8.9-4.2 8.9-9.4-4-9.4-8.9-9.4zm0 14.9c-2.9 0-5.3-2.5-5.3-5.6s2.4-5.6 5.3-5.6 5.3 2.5 5.3 5.6-2.4 5.6-5.3 5.6z" fill="#58595B"/>
						<ellipse cy="705.6" cx="547.6" rx="4.6" ry="4.8" fill="#939598"/>
						<path d="m536.5 655.5h-6.9v-5.5c0-1.9 1.5-3.4 3.4-3.4s3.4 1.5 3.4 3.4v5.5z" fill="#ED1C24"/>
						<rect y="654.2" x="524.3" height="4" width="17.6" fill="#808285"/>
						<rect y="663.4" x="476.5" height="14.3" width="11.1" fill="#58595B"/>
						<rect y="663.4" x="496.9" height="14.3" width="11.1" fill="#58595B"/>
						<rect y="663.4" x="519.4" height="14.3" width="11.1" fill="#58595B"/>
						<polygon points="559.9 677.7 540.9 677.7 540.9 663.4 552 663.4" fill="#58595B"/>
					<path d="m631.3 661.8c-0.8 0.2-1.6 0.4-2.3 0.7-1.4 0.6-1.9 1.4-1.8 3 0.2 2 0.5 4.1 0.7 6.1 1.5 0 1.5 1.1 1.7 2.2 0.2 1.6 0.4 3.3 0.6 4.9 0.2 0 0.5 0.1 0.7 0.1h14.8c0.3 0 0.6 0.1 0.8-0.4 0.1-0.2 1.1-0.2 1.2 0 0.3 0.6 0.7 0.4 1.1 0.4 1 0 1.4 0.5 1.4 1.5 0 1.1-0.4 1.5-1.5 1.5h-5.2-12.1-0.8c0.2 1.2 0.3 2.4 0.5 3.5 0 0.1 0.4 0.3 0.6 0.3h8.2 1.4c0.6 0 1.3 0 1.4 0.7 0.2 0.7 0 1.4 0 2.2 0 0.3-0.3 0.7-0.3 1v7.2h8.8v1.4c-0.3 0-0.5 0.1-0.9 0.1 0.1 0.9 0.2 1.8 0.4 2.7 0.2 1-0.2 2.1-1.1 2.4s-1.9-0.2-2.2-1.1c-0.3-1 0.2-2.1 1.2-2.4 0.2-0.1 0.4-0.1 0.6-0.1v-0.7-0.8h-8.1c0.2-2.9-0.7-5.3-2.8-7.1-1.4-1.2-3.1-1.7-4.9-1.6-3.3 0.2-7 3.2-6.7 8.6h-1.6c0.1 1 0.1 1.9 0.3 2.7 0.3 1.1-0.1 2.1-1 2.4-1 0.4-2-0.2-2.3-1.2s0.3-2 1.3-2.3c0.2 0 0.3-0.1 0.5-0.1v-1c0-0.1 0-0.3-0.1-0.4-0.9-0.2-0.4-1-0.5-1.6h2.5v-9h2.1v-1.4c-0.3-2.5-0.6-5.1-1-7.6 0-0.3-0.3-0.6-0.6-0.8-1.9-1.1-3.2-2.7-3.5-5-0.4-2.6 1-4.9 3.4-5.8 0-1.6-0.5-3.3 0.7-4.6 1.1-1.3 2.7-1.6 4.2-1.8 0.1-1.3 0.5-2.6 1.3-3.6 0.2-0.3 0.7-0.4 1-0.4s0.6 0.4 0.7 0.7 0 0.7-0.2 1c-1.1 1.7-1 3.4 0 5.1 0.1 0.2 0.2 0.3 0.3 0.5 0.3 0.6 0.2 1.1-0.3 1.4-0.5 0.4-1.1 0.3-1.4-0.3-0.5-0.8-0.8-1.7-1.2-2.5 0.2 0 0.1-0.3 0-0.7zm-4.5 15c-0.1-1.2-0.3-2.3-0.4-3.4-0.1-0.6 0-1.1 0.5-1.5 0.1-0.1 0.2-0.3 0.2-0.5-0.2-1-0.4-2-0.6-3.1-1.3 0.2-2.3 1.5-2.5 3.1-0.3 2.3 0.8 4.4 2.8 5.4zm22.3 25.7c0.6 0 0.9-0.3 0.9-0.9 0-0.5-0.3-0.9-0.8-1s-0.9 0.4-0.9 0.9c0 0.6 0.3 0.9 0.8 1zm-24.4-1c-0.1-0.5-0.3-0.9-0.9-0.9-0.5 0-0.8 0.3-0.9 0.9 0 0.5 0.4 1 0.9 0.9 0.6 0 0.9-0.3 0.9-0.9z" fill="#F1F2F2"/>
					<path d="m648.8 682.4v2.1c-0.1 2.8-0.2 5.6-0.3 8.5 0 0.6-0.2 1.3-0.5 1.8-0.5 0.9-1.7 1.3-2.7 1-1.1-0.3-1.8-1.3-1.8-2.5 0.1-2.8 0.2-5.5 0.2-8.3v-0.8c-0.6 0-1.1 0.1-1.7 0.1-2.3 0.1-4.6 0.2-6.9 0.2-1.3 0-2.2-0.8-2.9-2.1h16.6z" fill="#F1F2F2"/>
					<path d="m639.5 665.4c-2.5 0-4.5-2.1-4.5-4.7s2-4.7 4.4-4.7c2.5 0 4.6 2.2 4.5 4.8 0.2 2.5-1.9 4.6-4.4 4.6z" fill="#F1F2F2"/>
					<path d="m643.5 677.8h-3.9c-0.9 0-1.4-0.3-1.7-1.2-0.8-2.1-1.5-4.2-2.2-6.3-0.3-1 0.1-1.9 1-2.2s1.7 0.1 2 1.1c0.6 1.6 1.1 3.1 1.6 4.7 0.2 0.5 0.4 0.6 0.9 0.6h6c1.1 0 1.9 0.6 1.9 1.7 0 1-0.7 1.7-1.9 1.7-1.2-0.1-2.4-0.1-3.7-0.1z" fill="#F1F2F2"/>
					<path d="m631.6 678.1c-0.2-2.5 0.2-4.9 0.8-7.2 0.2-0.9 0.5-1.7 0.9-2.5 0.7-1.6 1.9-2.6 3.6-2.8 1.6-0.1 2.7 0.6 3 2.3 0.2 1 0.1 2.1 0.2 3.1-0.1 0-0.2 0-0.3 0.1-0.3-0.7-0.5-1.5-0.8-2.2-0.3-0.8-0.9-1.3-1.8-1.3-0.8 0-1.5 0.4-1.8 1.2-0.2 0.5-0.2 1.1-0.1 1.6 0.7 2.2 1.5 4.3 2.2 6.5 0.2 0.5 0.6 0.8 0.9 1.3h-3.4c-1-0.1-2.2-0.1-3.4-0.1z" fill="#F1F2F2"/>
					<path d="m633.2 691h1.5c0.3 1 0.9 1.1 1.6 0.4 0.4 0.3 0.8 0.5 1.3 0.8-0.1 0.2-0.1 0.5-0.2 0.7 0.4 0.3 0.6 1 1.3 0.4 0.3 0.5 0.5 1 0.8 1.4h-0.2c-0.1 0.3-0.2 0.7-0.1 1s0.4 0.5 0.6 0.7c0.1 0 0.1-0.1 0.2-0.1v1.6c-0.9 0.4-1.1 1-0.4 1.7-0.2 0.4-0.5 0.9-0.7 1.3 0-0.1-0.1-0.1-0.1-0.2-0.3 0.2-0.7 0.2-1 0.5-0.2 0.2-0.1 0.5-0.2 1-0.2 0.1-0.7 0.4-1.2 0.7-0.3-0.8-0.8-0.4-1.3-0.3 0 0.2-0.1 0.4-0.1 0.7h-1.5l0.1-0.1c-0.2-0.2-0.5-0.5-0.7-0.6-0.3-0.1-0.6 0.1-0.9 0.2v0.2c-0.4-0.3-0.8-0.5-1.3-0.8 0.4-0.7 0-1-0.5-1.4-0.2 0.1-0.4 0.1-0.6 0.2-0.3-0.5-0.5-0.9-0.8-1.4h0.2c0-0.4 0.2-0.8 0.1-1.2 0-0.2-0.4-0.3-0.7-0.6v-1.4c0.1 0 0.1 0.1 0.2 0.1 0.2-0.3 0.5-0.6 0.6-1 0.1-0.2-0.2-0.5-0.4-0.8 0.2-0.3 0.4-0.8 0.7-1.3 0.2 0.1 0.4 0.2 0.7 0.2 0.2-0.2 0.4-0.5 0.7-0.8 0-0.1-0.1-0.3-0.2-0.6 0.4-0.3 0.9-0.5 1.3-0.8 0.4 0.7 1 0.6 1.2-0.4zm0.7 10.2c2.1 0 3.9-1.9 3.9-4.1s-1.8-4-3.9-4c-2 0-3.8 1.9-3.8 4 0 2.2 1.7 4.1 3.8 4.1z" fill="#F1F2F2"/>
					<path d="m646.5 674c0.1-0.2 0.1-0.6 0.2-0.6 0.4-0.1 0.8-0.1 1.1 0 0.1 0 0.1 0.4 0.2 0.6h-1.5z" fill="#F1F2F2"/>
					<path d="m649.1 702.5c-0.5-0.1-0.8-0.4-0.8-0.9s0.4-1 0.9-0.9 0.8 0.4 0.8 1c0 0.4-0.3 0.7-0.9 0.8z" fill="#FFC300"/>
					<path d="m624.7 701.5c-0.1 0.6-0.3 0.9-0.8 0.9s-0.9-0.4-0.9-0.9c0-0.6 0.4-0.9 0.9-0.9s0.7 0.4 0.8 0.9z" fill="#FFC300"/>
					<path d="m633.9 701.2c-2.1 0-3.9-1.9-3.8-4.1 0-2.2 1.8-4 3.8-4 2.1 0 3.9 1.8 3.9 4s-1.7 4.1-3.9 4.1zm0.1-6.6c-1.3 0-2.4 1.1-2.4 2.5s1 2.6 2.4 2.6c1.3 0 2.4-1.1 2.4-2.5s-1.1-2.6-2.4-2.6z" fill="#FFC300"/>
					<path d="m634 694.6c1.3 0 2.4 1.2 2.4 2.6s-1.1 2.5-2.4 2.5-2.4-1.2-2.4-2.6 1-2.5 2.4-2.5z" fill="#F1F2F2"/>
		<rect y="46" width="1366" height="669" fill="none"/>
		<text font-size="14.545" font-family="&apos;MyriadPro-Regular&apos;" transform="translate(635.65 434.75)" fill="#FFFFFF">HRMS System</text>
		<text font-size="14.545" font-family="&apos;MyriadPro-Regular&apos;" transform="translate(213.43 575.6)" fill="#FFFFFF">HIS System</text>
		<text font-size="14.545" font-family="&apos;MyriadPro-Regular&apos;" transform="translate(783.4 605.07)" fill="#FFFFFF">EMR System</text>
		<text font-size="14.545" font-family="&apos;MyriadPro-Regular&apos;" transform="translate(1099.4 504.61)" fill="#FFFFFF">APP Portals</text>
		<text font-size="14.545" font-family="&apos;MyriadPro-Regular&apos;" transform="translate(210.37 688.82)" fill="#FFFFFF">Salesforce</text>
</svg>
