<?xml version="1.0" encoding="UTF-8" standalone="no"?>
<!-- Generator: Adobe Illustrator 18.0.0, SVG Export Plug-In . SVG Version: 6.00 Build 0)  -->
<!DOCTYPE svg  PUBLIC '-//W3C//DTD SVG 1.1//EN'  'http://www.w3.org/Graphics/SVG/1.1/DTD/svg11.dtd'>
<svg id="Layer_1" xmlns="http://www.w3.org/2000/svg" xml:space="preserve" viewBox="0 0 1366 715" version="1.1" y="0px" x="0px" xmlns:xlink="http://www.w3.org/1999/xlink" enable-background="new 0 0 1366 715">
	<text font-size="16.706" font-family="&apos;MyriadPro-Regular&apos;" transform="translate(1216.2 630.34)" fill="#FFFFFF"><tspan y="0" x="0">Marketing</tspan><tspan y="20" x="30.5">&amp;</tspan><tspan y="40.1" x="-53.5">Recommendation Service</tspan></text>
	<linearGradient id="SVGID_1_" y2="708.13" gradientUnits="userSpaceOnUse" x2="683" y1="9.1985" x1="683">
		<stop stop-color="#64B5F6" offset="0"/>
		<stop stop-color="#2196F3" offset="1"/>
	</linearGradient>
	<rect width="1366" height="715" fill="url(#SVGID_1_)"/>
					<path d="m767.9 378.9c12.5 0 22.6-10.1 22.6-22.6s-10.1-22.6-22.6-22.6c-0.7 0-1.5 0-2.2 0.1 2.4-4.2 3.8-9 3.8-14.2 0-15.6-12.7-28.3-28.3-28.3-7.1 0-13.5 2.6-18.5 6.9-4.8-26.8-28.2-47.1-56.3-47.1-31.6 0-57.2 25.6-57.2 57.2 0 3.1 0.2 6 0.7 9-1.2-0.1-2.3-0.2-3.5-0.2-17 0-30.9 13.8-30.9 30.9 0 15.8 11.9 28.9 27.3 30.6l165.1 0.3z" fill="#fff"/>
	<ellipse rx="67.4" cy="693.5" ry="10.3" stroke="#414042" cx="788.3" stroke-miterlimit="10" fill="#BCBEC0"/>
	<g opacity=".02">
		<polygon points="401.5 195 683 32.5 964.5 195 964.5 520 683 682.5 401.5 520" fill="#2895F1"/>
			<defs>
				<polygon id="SVGID_2_" points="401.5 195 683 32.5 964.5 195 964.5 520 683 682.5 401.5 520"/>
			</defs>
			<clipPath id="SVGID_3_">
				<use overflow="visible" xlink:href="#SVGID_2_"/>
			</clipPath>
			<polyline fill="#9B9DA0" points="493.2 462.2 462.5 371.4 476.4 337.9 563.8 277 636.9 211.8 734.8 200.6 766 197.1 1019.4 341.5 1021.2 769.9" clip-path="url(#SVGID_3_)"/>
		<path d="m917.6 368.5c-0.1 0.3-0.1 0.6-0.2 1v1.2 1.8c0 1.7-0.2 3.3-0.4 5l-0.6 4.2c-0.5 3.2-1.1 6.4-1.9 9.6-4.4 17.5-12.5 33.1-24.2 46.8-10.1 11.8-22.1 21.2-35.7 28.6-9.9 5.3-20.3 9.1-31.2 11.6-3 0.7-6 1.3-9.1 1.8-2.2 0.4-4.5 0.6-6.7 0.9-1.4 0.2-2.7 0.2-4.1 0.3-1.9 0.2-3.8 0.2-5.7 0.3-1.5 0.1-3.1 0.2-4.6 0.3-0.4 0-0.7 0.1-1.1 0.1-2.7 0.1-5.5 0.2-8.2 0.3-7 0.3-14 0.3-21 0.2-3.3 0-6.6-0.1-9.9-0.2-1.8 0-3.6 0-5.4-0.1-2.6-0.1-5.2-0.1-7.7-0.2-0.5 0-1.1-0.1-1.7 0.1-0.3 0.3-0.6 0.7-0.9 1-12.9 13.4-25.9 26.8-38.8 40.3-3.2 3.3-6.3 6.5-9.5 9.8l-0.7 0.7c-0.3 0.3-0.4 0.3-0.8 0-0.2-0.1-0.3-0.2-0.5-0.4-11.1-8.2-22.1-16.4-33.1-24.6-0.2-0.2-0.5-0.4-0.7-0.5 0 0-0.1-0.3 0-0.4 0.2-0.2 0.3-0.4 0.5-0.6 3.5-3.8 7-7.6 10.4-11.5 11.7-12.8 23.4-25.7 35.1-38.5 4.7-5.2 9.4-10.4 14.2-15.5 0.4-0.4 0.7-0.8 1.1-1.2 0.5-0.1 1.1-0.1 1.6-0.1 3.2-0.1 6.3-0.1 9.5 0 2.3 0.1 4.7 0.1 7 0.2 2.9 0.1 5.7 0.2 8.6 0.3 0.7 0 1.4 0.1 2.1 0.1 3.4 0.1 6.7 0.3 10.1 0.4 1 0 1.9 0.1 2.9 0.1 4.1 0.1 8.2 0.3 12.4 0.2 2.8 0 5.6-0.1 8.4-0.2 2.3 0 4.6-0.2 6.9-0.3 2.3-0.2 4.6-0.4 6.8-0.6 2.7-0.3 5.5-0.7 8.2-1.1 0.8-0.1 1.6-0.3 2.5-0.4 0.3-0.1 0.7-0.1 0.9-0.3s0.5-0.2 0.7-0.2c1.2-0.2 2.5-0.4 3.7-0.6 2-0.3 3.9-0.9 5.8-1.4 2.5-0.7 5-1.5 7.5-2.3 3-1.1 6-2.4 8.8-3.9 9-4.6 16.8-10.7 23.4-18.3 6.9-8 12-17 15-27.2 1-3.3 1.7-6.7 2.2-10.1 0.7-4.6 0.9-9.2 0.6-13.8-0.5-9.5-2.9-18.6-7-27.2-4.3-9-10.3-16.7-17.7-23.3-9.4-8.4-20.3-14.1-32.4-17.4-3-0.8-6-1.4-9-1.9-1.7-0.3-3.4-0.5-5.1-0.6-1.2-0.1-2.3-0.2-3.5-0.2-0.4 0-0.6-0.2-0.7-0.5s-0.3-0.6-0.4-0.9c-10.4-25.3-30.5-46.3-56.2-57.7-6.6-2.9-13.4-5.2-20.5-6.7-2.5-0.5-5.1-1-7.6-1.4-1.8-0.3-3.6-0.5-5.3-0.6-1.7-0.2-3.4-0.2-5.1-0.4-0.8-0.1-1.6-0.1-2.4-0.1h-6.3c-2 0.1-4 0.2-6 0.4-1.1 0.1-2.2 0.2-3.4 0.3-1.4 0.2-2.7 0.3-4.1 0.6-2.7 0.4-5.4 1-8.1 1.6-11.2 2.7-21.6 7-31.4 13-14.2 8.8-25.8 20.3-34.8 34.4-2.4 3.7-4.3 7.7-6 11.8-2 4.9-3.6 9.9-5 14.9-1.2 4.3-2.2 8.6-3 12.9 0 0.2-0.1 0.3-0.1 0.5 0 0.1-0.2 0.3-0.4 0.3h-0.6c-1.6-0.2-3.1-0.4-4.7-0.6-0.9-0.1-1.8-0.2-2.7-0.3-1.4-0.1-2.7-0.2-4.1-0.3-2.2-0.2-4.3-0.2-6.5-0.3-1.9-0.1-3.8-0.1-5.7 0-1.1 0.1-2.3 0.1-3.4 0.2-1.4 0.1-2.7 0.2-4.1 0.4-1.4 0.1-2.7 0.3-4.1 0.6-5.5 0.9-10.9 2.6-15.9 5-7.3 3.6-14 8.1-19.9 13.7-5.8 5.5-10.6 11.9-14.1 19.1-2.5 5.1-4.3 10.5-5.3 16.1-0.8 4.3-1.1 8.6-0.9 13 0.4 10.4 3.4 20 8.7 28.9 1.3 2.3 2.9 4.4 4.6 6.4 4.6 5.8 10 10.7 16.1 14.9 6.9 4.9 14.3 8.6 22.3 11.4 1 0.3 1 0.3 2.1 0.3 7.3-0.1 14.5-0.1 21.8-0.2 7.4 0 14.8-0.1 22.3-0.1 3.8 0 7.6-0.1 11.4-0.1 4.3 0 8.5-0.1 12.8-0.1h1.1c0.3 0 0.5-0.1 0.7-0.3l0.8-0.8c10.9-11.9 21.8-23.8 32.7-35.7 3.7-4 7.3-8 11-12 0.3-0.3 0.5-0.6 0.8-0.8 0 0 0.1-0.2 0.2-0.3-0.2-0.4-0.6-0.7-0.9-1l-11.9-11.9-0.8-0.8c-0.1-0.1-0.1-0.2-0.1-0.2 0-0.1 0.1-0.2 0.2-0.2 0.4 0 0.7-0.1 1.1-0.1 2.2-0.1 4.3-0.2 6.5-0.3 2-0.1 4-0.3 6-0.4l6-0.3c2.2-0.1 4.4-0.3 6.6-0.4h0.5c2.2-0.1 4.3-0.2 6.5-0.3 2-0.1 4-0.3 6-0.4h0.5c2.2-0.1 4.3-0.2 6.5-0.3 2-0.1 4-0.3 6-0.4s3.9-0.2 5.9-0.3c0.9 0 1.7-0.1 2.6-0.2 0.4 0 0.6 0.1 0.6 0.5 0.1 0.4 0.1 0.7 0.1 1.1 0.1 1.7 0.3 3.3 0.4 5 0.1 1.1 0.2 2.2 0.3 3.2 0.1 1.4 0.2 2.7 0.3 4.1s0.3 2.7 0.4 4.1c0.1 1 0.2 2.1 0.3 3.1 0.1 1.4 0.2 2.7 0.3 4.1s0.3 2.8 0.4 4.2c0.1 1.1 0.2 2.2 0.3 3.4 0.1 1.4 0.2 2.7 0.3 4.1s0.2 2.7 0.4 4.1c0.1 1 0.2 2.1 0.3 3.1 0.1 1.4 0.2 2.7 0.3 4.1s0.3 2.8 0.4 4.2v1.2s-0.1 0.1-0.2 0.1c-0.3-0.2-0.6-0.3-0.9-0.5-2.5-1.7-5-3.4-7.4-5.1-2.4-1.6-4.8-3.3-7.2-4.9-0.2-0.2-0.5-0.3-0.7-0.5-0.3-0.2-0.5-0.2-0.8 0.1s-0.5 0.6-0.8 0.8c-3.1 3.5-6.2 7-9.3 10.4-11.1 12.5-22.3 25-33.5 37.3-3.7 4-7.4 8-11 11.9l-3.9 3.9c-0.5 0.5-0.9 1-1.5 1.3-0.6 0-1.2 0.1-1.7 0.1h-101.9-0.3c-0.8 0.1-1.6-0.1-2.3-0.3-4.9-1.4-9.7-3-14.4-4.9-9.1-3.7-17.7-8.3-25.8-13.9-7.5-5.3-14.3-11.3-20.4-18.2-9.7-11.2-16.7-23.8-20.9-38.1-1-3.4-1.8-6.9-2.4-10.5-0.5-2.8-0.9-5.5-1.1-8.3-0.2-1.7-0.2-3.3-0.3-5 0-0.6-0.1-1.2-0.1-1.7 0-0.3-0.2-0.5-0.4-0.6v-6c0.2-0.1 0.4-0.4 0.4-0.6 0-0.3 0.1-0.7 0.1-1 0.1-2.5 0.4-5 0.7-7.5 0.6-3.8 1.4-7.6 2.4-11.4 2.1-7.3 5-14.3 8.8-20.9 5-9 11.3-17.2 18.5-24.6 11.2-11.4 24.2-20.4 38.8-26.9 9.5-4.2 19.3-7.3 29.5-9 0.3-0.1 0.6-0.2 1-0.3 0.2-0.4 0.3-0.7 0.5-1 6.6-14.5 15.4-27.5 26.2-39.2 12-12.9 25.8-23.5 41.3-31.8 18.2-9.7 37.6-15.7 58.1-18.1 0.9-0.1 1.8-0.2 2.7-0.3 1.4-0.1 2.8-0.3 4.2-0.4 2-0.1 4.1-0.2 6.1-0.3 0.4 0 0.8 0 1.1-0.2h10.8c0.3 0.1 0.6 0.2 0.8 0.2 1.9 0.1 3.7 0.2 5.6 0.3l4.2 0.3c1.8 0.2 3.6 0.4 5.5 0.6 2.9 0.3 5.9 0.8 8.8 1.4 4.6 0.9 9.2 1.9 13.8 3.2 15.7 4.3 30.4 10.8 44.2 19.6 18.7 12 34.3 27.2 46.5 45.8 0.7 1 0.4 0.9 1.7 1.3 6.8 2 13.5 4.6 19.9 7.7 15.4 7.6 28.8 17.8 39.9 30.9 11.5 13.6 19.5 29 23.8 46.3 0.8 3.2 1.5 6.4 1.9 9.7l0.6 4.2c0.2 1.6 0.4 3.1 0.4 4.7v1.8c0 0.5 0 1 0.1 1.5 0 0.3 0.1 0.7 0.2 1-0.6 1.9-0.6 4.4-0.6 6.9z" fill="#fff"/>
	</g>
	<circle cy="340" cx="630.1" r="5.5" fill="#2E3192"/>
	<circle cy="340" cx="686.3" r="5.5" fill="#2E3192"/>
	<circle cy="340" cx="714.3" r="5.5" fill="#2E3192"/>
	<circle cy="340" cx="742.4" r="5.5" fill="#2E3192"/>
	<circle cy="340" cx="658.2" r="5.5" fill="#2E3192"/>
	<g stroke-miterlimit="10" stroke="#2E3192" stroke-width="2" stroke-linecap="round" fill="none">
		<polyline points="406.6 408.8 395.7 397.8 366.4 397.8"/>
			<circle r="4.6" cy="397.7" cx="361.8"/>
	</g>
	<g stroke-miterlimit="10" stroke="#2E3192" stroke-width="2" stroke-linecap="round" fill="none">
		<polyline points="584.4 410.1 573.5 421.1 544.2 421.1"/>
			<circle r="4.6" cy="421.2" cx="539.6"/>
	</g>
	<g stroke-miterlimit="10" stroke="#2E3192" stroke-width="2" stroke-linecap="round" fill="none">
		<polyline points="775 393 786 404 815.3 404"/>
			<circle r="4.6" cy="404.1" cx="819.9"/>
	</g>
	<g stroke-miterlimit="10" stroke="#2E3192" stroke-width="2" stroke-linecap="round" fill="none">
		<polyline points="990.6 382.9 1001.6 371.9 1030.9 371.9"/>
			<circle r="4.6" cy="371.8" cx="1035.4"/>
	</g>
	<g stroke-miterlimit="10" stroke="#2E3192" stroke-width="2" stroke-linecap="round" fill="none">
		<polyline points="285.1 424.7 274.2 435.7 274.2 465"/>
			<circle r="4.6" cy="469.6" cx="274"/>
	</g>
	<g stroke-miterlimit="10" stroke="#2E3192" stroke-width="2" stroke-linecap="round" fill="none">
		<polyline points="510.7 512.2 499.7 523.2 499.7 552.5"/>
			<circle r="4.6" cy="557.1" cx="499.6"/>
	</g>
	<g stroke-miterlimit="10" stroke="#2E3192" stroke-width="2" stroke-linecap="round" fill="none">
		<polyline points="511.2 463 520.6 472.4 520.6 497.5"/>
			<circle r="3.9" cy="501.4" cx="520.7"/>
	</g>
	<g stroke-miterlimit="10" stroke="#2E3192" stroke-width="2" stroke-linecap="round" fill="none">
		<polyline points="1004.6 446.5 1014 455.9 1014 481"/>
			<circle r="3.9" cy="484.9" cx="1014.1"/>
	</g>
	<g stroke-miterlimit="10" stroke="#2E3192" stroke-width="2" stroke-linecap="round" fill="none">
		<polyline points="1122 456.3 1131.4 465.7 1131.4 490.8"/>
			<circle r="3.9" cy="494.7" cx="1131.5"/>
	</g>
				<path d="m927.1 435.4c0.4-4.3 1.3-8.4 2.3-12.6 0.7-2.8 5.8-16.1 11.4-8.8 4.9 6.4 5.7 17.9 2 24.9-0.4 0.7 0.7 1.3 1.1 0.6 4-7.7 3.6-24-4.8-29-3.3-2-7.5 4-8.7 6.1-3.1 5.3-3.9 12.7-4.4 18.7-0.2 0.9 1 0.9 1.1 0.1z" fill="#414042"/>
		<polygon points="920.8 423.4 969.6 436.6 967.9 519.3 912.5 520.5" fill="#fff"/>
		<polygon points="894.7 515.6 912.5 520.5 906.7 510.4" fill="#fff"/>
		<polygon points="916.3 428.1 911.9 424.2 894.7 515.6 906.7 510.4 912.5 520.5 920.8 423.4" fill="#D1D3D4"/>
			<ellipse cy="434.8" rx="1.6" transform="matrix(.9963 .085439 -.085439 .9963 40.587 -78.763)" ry="2.4" stroke="#414042" cx="940.5" stroke-miterlimit="10" stroke-width="2" fill="none"/>
			<ellipse cy="438.8" rx="1.6" transform="matrix(.9963 .085439 -.085439 .9963 40.991 -80.164)" ry="2.4" stroke="#414042" cx="957" stroke-miterlimit="10" stroke-width="2" fill="none"/>
				<path d="m941.1 434.8c0.4-4.3 1.3-8.4 2.3-12.6 0.7-2.8 5.8-16.1 11.4-8.8 4.9 6.4 5.7 17.9 2 24.9-0.4 0.7 0.7 1.3 1.1 0.6 4-7.7 3.6-24-4.8-29-3.3-2-7.5 4-8.7 6.1-3.1 5.3-3.9 12.7-4.4 18.7-0.2 0.9 1 0.9 1.1 0.1z" fill="#414042"/>
				<path d="m394.3 494c-3.1-4.6 2.5-10.3 6.4-6.2 2.3 2.4 7 10.2 8.5 13.8v-41.1h-40.2v42.6h39.1c-3.4-1.2-11.9-6.2-13.8-9.1z" fill="#FFC900"/>
				<path d="m409.2 501.6v1.5h-1c0.7 0.3 1.2 0.4 1.4 0.2 0.1-0.1-0.1-0.8-0.4-1.7z" fill="#FFC900"/>
				<path d="m408.4 501.1c-1.2-2.9-5.2-9.4-7-11.4-3.2-3.4-7.8 1.3-5.3 5.1 1.6 2.4 8.6 6.5 11.5 7.6h0.8v-1.3z" fill="#fff"/>
				<path d="m425.2 513.5c3.1 4.6-2.5 10.3-6.4 6.2-2.3-2.4-7-10.2-8.5-13.8v41.1h40.1v-42.6h-39.1c3.5 1.2 12 6.2 13.9 9.1z" fill="#FFC900"/>
				<path d="m410.3 505.9v-1.5h1c-0.7-0.3-1.2-0.4-1.4-0.2-0.1 0.1 0 0.7 0.4 1.7z" fill="#FFC900"/>
				<path d="m411.1 506.4c1.2 2.9 5.2 9.4 7 11.4 3.2 3.4 7.8-1.3 5.3-5.1-1.6-2.4-8.6-6.5-11.5-7.6h-0.8v1.3z" fill="#fff"/>
		<path d="m402.7 523.3l-1.8 1.6s-4.6-13.2 8.3-20.9h-40.2v43h40.1v-42.9c0.1 0-11.1 11.6-6.4 19.2z" fill="#FFC900"/>
		<path d="m416.6 484l1.8-1.6s4.6 13.2-8.3 20.9h40.1v-42.9h-40.1v42.9s11.2-11.7 6.5-19.3z" fill="#FFC900"/>
			<path d="m851.6 607.3h23.1c1.6 0 2.2 0.6 2.3 2.2v8.7c0 1.4-0.5 1.9-1.9 1.9h-37c-0.6 0-1 0.1-1.4 0.6-0.7 0.8-1.8 0.8-2.6 0-0.9-0.8-2.1-0.9-3-0.2-0.5 0.4-1.2 0.3-1.7 0-0.3-0.2-0.7-0.4-1-0.4-0.9-0.1-1.6-0.8-1.6-1.7v-9.7c0-0.8 0.5-1.3 1.3-1.4h1.7c7.1 0.1 14.5 0.1 21.8 0v0zm-19 10.9h3.1c0.5 0 0.7-0.2 0.6-0.6v-1.3c0.3-1.6 0.7-3.2 1-4.9 0.2-0.9 0.4-1.6 1.5-1.6 0.1 0 0.3-0.2 0.4-0.4-0.2-0.1-0.4-0.3-0.5-0.2-0.7 0.3-1.3 0-2 0.3-0.9 0.4-1.9 0.4-2.9 0.5-1.9 0.3-3.9 0.6-5.8 1-0.1 0-0.4 0.3-0.3 0.4l0.9 5.1c0.1 0.4 0.3 0.6 0.8 0.6h5.5 0.5c0.1 0 0.1 0.1 0.2 0.2-0.1 0.1-0.1 0.2-0.2 0.2h-0.5-5.3c-0.2 0-0.4 0.2-0.5 0.3 0.2 0.1 0.4 0.3 0.6 0.3 0.8 0.2 1.8 0.1 2.9 0.1zm35.1-6.9v0.3c0.3 1.5 0.7 3 1 4.4 0.1 0.4 0.3 0.5 0.7 0.6 0.5 0 0.7-0.2 0.9-0.7 0.2-1 0.5-2 0.8-2.9 0.4 1.1 0.7 2.1 0.9 3.1 0.1 0.5 0.5 0.4 0.8 0.5 0.4 0 0.6 0 0.7-0.5 0.1-0.6 0.3-1.2 0.4-1.7 0.2-1 0.5-2 0.7-3-1-0.3-1.1-0.2-1.3 0.7-0.2 0.8-0.4 1.7-0.5 2.5-0.3-0.9-0.6-1.8-0.8-2.7-0.1-0.6-0.5-0.6-0.9-0.6-0.5 0-0.7 0.1-0.8 0.6-0.2 0.9-0.5 1.8-0.7 2.7-0.3-0.8-0.5-1.6-0.6-2.5-0.2-1-0.2-1-1.3-0.8zm-24.3 2.4c0.9-1.4 0.5-2.4-1.2-2.5-0.7-0.1-1.4 0-2 0-0.4 0-0.6 0.1-0.6 0.6v4.3c0 0.4 0.1 0.6 0.5 0.6h2.3c0.4 0 0.8-0.2 1.1-0.4 1-0.8 0.8-1.8-0.1-2.6zm14.8-0.3c0.2 0.2 0.2 0.3 0.3 0.4 0.5 0.8 1 1.7 1.5 2.5 0.3 0.4 0.7 0.3 1 0.3 0.1 0 0.3-0.2 0.3-0.4v-4.9c-1-0.3-1.1-0.2-1.1 0.7v1 1.3l-0.2-0.1-1.5-2.4c-0.4-0.7-0.6-0.7-1.5-0.5v4.7c0 0.4 0.1 0.6 0.5 0.6s0.6-0.1 0.6-0.6c0.1-0.8 0.1-1.6 0.1-2.6zm6.6-2.3c-1.6 0-2.6 1.1-2.6 2.8s1.1 2.8 2.6 2.8c1.6 0 2.6-1.1 2.6-2.8 0-1.8-0.9-2.8-2.6-2.8zm-15.6 2.3s0.1 0 0 0v-1.6c0-0.4-0.1-0.7-0.6-0.7s-0.6 0.2-0.6 0.7v2.9c0 0.7-0.4 1-1 0.9-0.6 0-0.9-0.4-0.9-1.2v-2.8c0-0.4-0.2-0.5-0.5-0.5s-0.7 0-0.7 0.5v3.2c0 0.8 0.3 1.5 1.2 1.7 0.7 0.1 1.4 0.1 2.1 0s1-0.7 1.1-1.4c0-0.6-0.1-1.2-0.1-1.7zm5.5-2.1c-1.1-0.3-1.2-0.2-1.7 0.7-0.2 0.4-0.5 0.8-0.7 1.2-0.3-0.5-0.6-1-0.8-1.4-0.4-0.7-0.8-0.8-1.6-0.4 0.2 0.4 0.4 0.8 0.7 1.1 0.8 1.1 1.4 2.2 1.2 3.6-0.1 0.4 0.1 0.6 0.6 0.6s0.7-0.1 0.7-0.6c-0.2-1.1 0.2-2.1 0.9-3.1 0.1-0.6 0.4-1.1 0.7-1.7zm-18.7 7.9c0-0.5-0.5-0.9-1-0.9s-1 0.4-1 0.9 0.5 1 1 1c0.6 0 1-0.5 1-1zm-5.4-0.1c-0.2-0.2-0.5-0.5-0.7-0.5-0.4-0.1-0.7 0.2-0.7 0.7 0 0.4 0.3 0.6 0.7 0.6s0.6-0.2 0.7-0.8z"/>
			<path d="m832.6 618.2h-3.1c-0.2 0-0.4-0.2-0.6-0.3 0.2-0.1 0.4-0.3 0.5-0.3h5.3 0.5c0.1 0 0.2-0.1 0.2-0.2-0.1-0.1-0.1-0.2-0.2-0.2h-0.5-5.5c-0.5 0-0.7-0.2-0.8-0.6l-0.9-5.1c0-0.1 0.2-0.4 0.3-0.4 1.9-0.3 3.9-0.7 5.8-1 1-0.2 2-0.1 2.9-0.5 0.7-0.3 1.4 0 2-0.3 0.1 0 0.3 0.1 0.5 0.2-0.1 0.1-0.3 0.4-0.4 0.4-1.1-0.1-1.4 0.7-1.5 1.6-0.3 1.6-0.7 3.2-1 4.9-0.1 0.4-0.1 0.8 0 1.3 0 0.5-0.2 0.6-0.6 0.6-0.9-0.1-1.9-0.1-2.9-0.1zm2.2-5.9c0.5 0 1-0.1 1.4-0.1 0.1 0 0.3-0.2 0.3-0.3 0.1-0.5 0.2-1 0.3-1.6-0.7 0.1-1.2 0.2-1.8 0.3-0.1 0-0.3 0.3-0.3 0.4 0.1 0.3 0.1 0.8 0.1 1.3zm-0.6-1.6c-0.6 0.1-1.1 0.1-1.6 0.3-0.2 0.1-0.2 0.6-0.2 0.9 0 0.1 0.1 0.4 0.3 0.4 1.1 0.3 1.6-0.1 1.5-1.2v-0.4zm2.1 2.2h-1.2c-0.1 0-0.3 0.2-0.3 0.3-0.1 0.4-0.1 0.8-0.1 1.2 1.3 0.2 1.6-0.1 1.6-1.5zm-2.3 0.8c0-0.3 0.2-0.8-0.4-0.7-0.4 0.1-1.1-0.3-1 0.5 0 0.4-0.2 0.9 0.5 1 0.9 0 0.9 0 0.9-0.8zm1.9 1.4c-1.1-0.3-1.3-0.2-1.4 0.9v0.2c0.1 0.1 0.3 0.4 0.4 0.4 0.3 0 0.7-0.1 0.7-0.3 0.2-0.3 0.2-0.8 0.3-1.2zm-2 0h-0.4c-0.9 0.1-1.1 0.3-0.9 1.2 0 0.1 0.2 0.3 0.3 0.3 0.6 0.2 0.9 0 0.9-0.6 0.1-0.3 0.1-0.6 0.1-0.9zm-2.6-2c-0.8 0-0.8 0-0.8 0.5 0 0.8 0.2 0.9 0.8 0.9 0.5 0 0.7-0.2 0.6-0.7 0-0.4 0-0.9-0.6-0.7zm-0.2-0.7c0.6 0.1 0.8-0.2 0.7-0.7 0-0.4-0.1-0.6-0.5-0.5s-0.9-0.1-0.9 0.6c0 0.5 0.2 0.7 0.7 0.6zm-1.2 1.5c0-0.8 0-0.9-0.5-0.8-0.3 0-0.7-0.1-0.7 0.4 0 0.9 0.1 1.1 0.7 1.1s0.6-0.3 0.5-0.7zm0.8 2c-0.1 0.6 0.2 0.7 0.7 0.7 0.3 0 0.6 0 0.6-0.5 0-0.8-0.1-0.9-0.8-0.9-0.4 0-0.6 0.2-0.5 0.7zm-1-4.4c-0.5 0.1-0.9 0.2-1.3 0.3 0.1 0.9 0.4 1 1.4 0.7-0.1-0.4-0.1-0.7-0.1-1zm0.2 5.1c0.1-0.1 0.3-0.3 0.3-0.4-0.1-0.3 0.1-1-0.6-0.9-0.2 0-0.5 0.2-0.5 0.3-0.1 0.5 0.2 0.9 0.8 1z" fill="#fff"/>
			<path d="m867.7 611.3c1.1-0.2 1.1-0.2 1.3 0.7 0.2 0.8 0.4 1.6 0.6 2.5 0.2-0.9 0.5-1.8 0.7-2.7 0.1-0.5 0.3-0.6 0.8-0.6s0.8 0 0.9 0.6c0.2 0.9 0.4 1.8 0.8 2.7 0.2-0.8 0.4-1.7 0.5-2.5 0.2-0.9 0.3-0.9 1.3-0.7-0.2 1-0.5 2-0.7 3-0.1 0.6-0.3 1.2-0.4 1.7-0.1 0.4-0.3 0.5-0.7 0.5s-0.7 0.1-0.8-0.5c-0.2-1-0.5-2.1-0.9-3.1-0.3 1-0.6 2-0.8 2.9-0.1 0.5-0.3 0.7-0.9 0.7-0.4 0-0.6-0.2-0.7-0.6-0.3-1.5-0.7-3-1-4.4v-0.2z" fill="#fff"/>
			<path d="m843.4 613.7c0.9 0.8 1 1.8 0.2 2.4-0.3 0.2-0.7 0.4-1.1 0.4-0.8 0.1-1.6 0-2.3 0-0.4 0-0.5-0.2-0.5-0.6v-4.3c0-0.4 0.2-0.6 0.6-0.6h2c1.6 0.3 2.1 1.3 1.1 2.7zm-1.8 1.8c0.3 0 0.5 0.1 0.7 0s0.6-0.3 0.6-0.5-0.2-0.5-0.5-0.6-0.6 0-0.9-0.1c-0.6-0.1-0.7 0.2-0.7 0.7 0 0.8 0.6 0.4 0.8 0.5zm0-2.1s0-0.1 0.1-0.1 0.3 0.1 0.4 0c0.2-0.1 0.5-0.3 0.6-0.5 0.1-0.4-0.2-0.5-0.6-0.5h-0.7c-0.6 0-0.8 0.2-0.6 0.7 0.1 0.2 0.6 0.2 0.8 0.4z" fill="#fff"/>
			<path d="m858.2 613.4v2.6c0 0.4-0.2 0.6-0.6 0.6s-0.5-0.2-0.5-0.6v-4.7c0.9-0.3 1.1-0.2 1.5 0.5l1.5 2.4s0.1 0 0.2 0.1v-1.3-1c0-0.9 0.1-1 1.1-0.7v4.9c0 0.1-0.2 0.3-0.3 0.4-0.4 0-0.8 0.2-1-0.3-0.5-0.8-1-1.7-1.5-2.5l-0.4-0.4z" fill="#fff"/>
			<path d="m864.8 611.1c1.6 0 2.6 1 2.6 2.8 0 1.7-1 2.8-2.6 2.8s-2.6-1.1-2.6-2.8 1-2.8 2.6-2.8zm1.5 2.7c0-0.2 0-0.4-0.1-0.7-0.2-0.8-0.7-1.1-1.5-1-0.7 0.1-1.2 0.6-1.2 1.3v0.7c0 0.8 0.6 1.5 1.3 1.5 0.7 0.1 1.3-0.4 1.5-1.3v-0.5z" fill="#fff"/>
			<path d="m849.2 613.4v1.7c0 0.7-0.4 1.3-1.1 1.4s-1.4 0.2-2.1 0c-0.8-0.2-1.1-0.9-1.2-1.7v-3.2c0-0.5 0.3-0.5 0.7-0.5s0.5 0.1 0.5 0.5v2.8c0 0.8 0.3 1.1 0.9 1.2 0.6 0 1-0.3 1-0.9v-2.9c0-0.5 0.1-0.7 0.6-0.7s0.6 0.2 0.6 0.7c0.1 0.5 0.2 1.1 0.1 1.6 0.1 0 0 0 0 0z" fill="#fff"/>
			<path d="m854.7 611.3c-0.4 0.6-0.6 1.1-1 1.6-0.7 0.9-1 1.9-0.9 3.1 0.1 0.5-0.2 0.7-0.7 0.6-0.4 0-0.6-0.2-0.6-0.6 0.2-1.4-0.4-2.5-1.2-3.6-0.3-0.4-0.5-0.7-0.7-1.1 0.8-0.4 1.2-0.2 1.6 0.4 0.3 0.4 0.5 0.9 0.8 1.4 0.3-0.5 0.5-0.8 0.7-1.2 0.8-0.8 1-0.9 2-0.6z" fill="#fff"/>
			<path d="m836 619.2c0 0.5-0.4 1-0.9 1s-1-0.5-1-1 0.4-0.9 1-0.9c0.4 0 0.9 0.4 0.9 0.9z" fill="#fff"/>
			<path d="m830.6 619.1c-0.1 0.6-0.3 0.8-0.7 0.8s-0.7-0.2-0.7-0.6 0.3-0.7 0.7-0.7c0.2 0 0.5 0.3 0.7 0.5z" fill="#fff"/>
			<path d="m834.8 612.3v-1.3c0-0.1 0.1-0.4 0.3-0.4 0.6-0.1 1.1-0.2 1.8-0.3-0.1 0.6-0.2 1.1-0.3 1.6 0 0.1-0.2 0.3-0.3 0.3-0.5 0-0.9 0-1.5 0.1z"/>
			<path d="m834.2 610.7v0.4c0 1.2-0.4 1.5-1.5 1.2-0.1 0-0.3-0.3-0.3-0.4 0-0.3 0-0.8 0.2-0.9 0.5-0.2 1-0.2 1.6-0.3z"/>
			<path d="m836.3 612.9c0 1.4-0.3 1.7-1.7 1.5 0-0.4 0-0.8 0.1-1.2 0-0.1 0.2-0.3 0.3-0.3 0.5-0.1 0.9 0 1.3 0z"/>
			<path d="m834 613.7c0 0.8 0 0.8-0.9 0.8-0.7 0-0.5-0.6-0.5-1 0-0.8 0.7-0.5 1-0.5 0.6-0.1 0.4 0.4 0.4 0.7z"/>
			<path d="m835.9 615.1c-0.1 0.4-0.1 0.8-0.3 1.2-0.1 0.2-0.5 0.2-0.7 0.3-0.1 0-0.3-0.2-0.4-0.4v-0.2c0.1-1.1 0.3-1.2 1.4-0.9z"/>
			<path d="m833.9 615.1c0 0.3 0 0.6-0.1 0.9 0 0.6-0.3 0.8-0.9 0.6-0.1 0-0.2-0.2-0.3-0.3-0.2-0.9-0.1-1.1 0.9-1.2h0.4z"/>
			<path d="m831.3 613.1c0.6-0.2 0.6 0.3 0.6 0.8s-0.1 0.7-0.6 0.7c-0.6 0-0.7-0.2-0.8-0.9 0-0.6 0-0.6 0.8-0.6z"/>
			<path d="m831.1 612.4c-0.5 0.1-0.7-0.1-0.7-0.6 0-0.7 0.5-0.6 0.9-0.6 0.4-0.1 0.5 0.1 0.5 0.5 0.1 0.5-0.1 0.8-0.7 0.7z"/>
			<path d="m829.9 613.9c0 0.3 0 0.7-0.5 0.7s-0.7-0.2-0.7-1.1c0-0.5 0.4-0.4 0.7-0.4 0.5 0 0.5 0 0.5 0.8z"/>
			<path d="m830.7 615.9c-0.1-0.5 0.1-0.7 0.6-0.7 0.6 0 0.7 0.1 0.8 0.9 0 0.5-0.3 0.4-0.6 0.5-0.5 0-0.9-0.1-0.8-0.7z"/>
			<path d="m829.7 611.5c0 0.3 0.1 0.6 0.1 0.9-1 0.3-1.3 0.2-1.4-0.7 0.4-0.1 0.8-0.1 1.3-0.2z"/>
			<path d="m829.9 616.6c-0.5 0-0.9-0.5-0.8-1 0-0.1 0.3-0.3 0.5-0.3 0.7-0.1 0.5 0.5 0.6 0.9 0 0.1-0.3 0.3-0.3 0.4z"/>
			<path d="m841.6 615.5c-0.3-0.1-0.8 0.3-0.8-0.5 0-0.6 0.1-0.8 0.7-0.7 0.3 0 0.6 0 0.9 0.1 0.2 0.1 0.5 0.4 0.5 0.6s-0.3 0.4-0.6 0.5c-0.2 0.1-0.4 0-0.7 0z"/>
			<path d="m841.6 613.4c-0.3-0.1-0.7-0.2-0.8-0.4-0.2-0.5 0-0.7 0.6-0.7h0.7c0.3 0 0.7 0.1 0.6 0.5-0.1 0.2-0.4 0.4-0.6 0.5-0.1 0.1-0.3 0-0.4 0l-0.1 0.1z"/>
			<path d="m866.3 613.8c0 0.2 0 0.4-0.1 0.6-0.2 0.8-0.8 1.3-1.5 1.3-0.7-0.1-1.3-0.7-1.3-1.5v-0.7c0.1-0.7 0.6-1.3 1.2-1.3 0.8-0.1 1.3 0.3 1.5 1 0.1 0.2 0.2 0.4 0.2 0.6z"/>
			<rect height="115.7" width="200.9" stroke="#414042" stroke-miterlimit="10" y="520.5" x="689" fill="none"/>
			<rect y="636.2" x="689" height="20" width="200.9" fill="#58595B"/>
			<polygon stroke="#414042" points="824 692.6 755 692.6 768.2 656.1 810.8 656.1" stroke-miterlimit="10" fill="#BCBEC0"/>
			<circle cy="647.4" cx="791.4" r="5.3" fill="#fff"/>
			<path stroke="#414042" stroke-miterlimit="10" d="m952.3 674.2c0-10.2-5.6-18.5-12.9-18.5v16c0-0.1 9-4.1 12.9 2.5z" fill="#fff"/>
			<path stroke="#414042" stroke-miterlimit="10" d="m939 671.6v-16c-7.2 0-12.9 8.3-12.9 18.5 3.9-6.5 12.9-2.5 12.9-2.5z" fill="#fff"/>
			<rect height="115.7" width="200.9" stroke="#414042" stroke-miterlimit="10" y="520.5" x="689" fill="#BCBEC0"/>
			<path stroke="#414042" stroke-miterlimit="10" d="m939.2 671.8s-9.2-4-13.1 2.5c0 10.2 5.9 18.5 13.1 18.5s13.1-8.3 13.1-18.5c-3.9-6.5-13.1-2.5-13.1-2.5z" fill="#fff"/>
			<path stroke="#58595B" stroke-miterlimit="10" d="m939.7 655.7c0-6.9-5.6-12.5-12.5-12.5h-9.8c-6.9 0-12.5 5.6-12.5 12.5v42.9c0 6.9-5.6 12.5-12.5 12.5h-38.1c-6.9 0-12.5-5.6-12.5-12.5v-42.4" fill="none"/>
			<rect height="93" width="181.4" stroke="#414042" stroke-miterlimit="10" y="532.3" x="700.4" fill="#fff"/>
				<text font-size="29.899" font-family="&apos;MyriadPro-Bold&apos;" transform="translate(708.94 590.81)" fill="#2196F3">e-commerce</text>
		<g fill="#fff">
			<path d="m558.1 511.6v-58l0.3-0.9c1.1-3.2 3.3-5.1 6.7-5.3 2.6-0.1 5.2-0.1 7.7-0.1h87.1c1.5 0 3.1 0.3 4.4 0.9 2.9 1.5 4 4.1 4 7.3v32.4 21.9c0 2.6-0.8 4.7-2.9 6.4-1.6 1.3-3.5 1.6-5.6 1.6h-71.3-22.4c-2.4 0-4.7-0.6-6.2-2.5-0.6-1.1-1.1-2.4-1.8-3.7zm77.7-34.4c1.3 0 3.1-0.6 4.7-1.7 0.6-0.4 1.1-0.4 1.8-0.1 3.5 1.9 7.1 1.9 10.4-0.3 3.2-2 4.8-5.1 4.6-8.9-0.2-3.9-2.2-6.9-5.7-8.6-3.4-1.7-6.8-1.3-10 0.7-0.4 0.3-0.7 0.5-1.2 0.1-5.9-3.8-13.2-0.3-15.1 5.6-1.9 6.5 3.1 13.3 10.5 13.2zm-50.9-7.7c-0.2-1.4-1-2.2-1.9-2.9-2.2-1.7-4.7-0.9-7.1-1.1v10h3.3v-6h5.7zm-11.1 6v-3.5c0-0.2-0.3-0.5-0.5-0.5h-2.9c-0.2 0-0.5 0.3-0.5 0.4v3.5c1.3 0.1 2.5 0.1 3.9 0.1zm7.5 0.1h3.3c0.5 0 0.7-0.2 0.7-0.7v-2.6c0-0.3-0.4-0.7-0.6-0.7-0.9-0.1-1.9-0.1-2.8 0-0.2 0-0.5 0.3-0.5 0.5-0.1 1.1-0.1 2.2-0.1 3.5zm-2 5.3v-2.8c0-0.2-0.3-0.5-0.5-0.5-0.9-0.1-1.8 0-2.8 0v3.3h3.3zm-9.1-11.4h3.5v-3.6c-1.8 0.6-2.9 1.7-3.5 3.6zm3.6 11.2v-2.6c0-0.2-0.3-0.5-0.5-0.5h-2.9c0.7 1.6 1.8 2.5 3.4 3.1zm10.9-3h-3.4v3c1.6-0.6 2.7-1.5 3.4-3z"/>
			<path d="m684.3 517.3c-0.4 1-0.8 2-1.4 2.9-0.8 1.4-2.2 2.2-3.7 2.9-10.8 4.4-21.6 8.8-32.4 13.2-9.5 3.9-19 7.7-28.5 11.6-7.6 3.1-15.2 6.3-22.8 9.3-1.9 0.7-3.8 1.5-5.7 1.8-3.1 0.4-6.1-1.5-7.3-4.5-4.4-10.7-8.8-21.4-13.1-32.1-0.1-0.2-0.1-0.4-0.2-0.7h4.1c0.2 0 0.5 0.4 0.6 0.7 1.2 2.9 2.4 5.9 3.6 8.8 0.2 0.4 0.4 0.8 0.6 1.3 1.7-0.7 3.4-1.3 5-2 6.8-2.8 13.6-5.6 20.4-8.3 0.7-0.3 1.6-0.5 2.3-0.5h44.1 1.1c0 0.1 0 0.1 0.1 0.2-0.8 0.4-1.6 0.7-2.5 1.1-9.1 3.7-18.2 7.4-27.4 11.2-10.8 4.4-21.5 8.8-32.3 13.2-1.1 0.5-2.3 1-3.5 1.4-0.6 0.2-0.7 0.5-0.4 1l1.2 3c0.9 2 2.7 2.8 4.7 2 8.4-3.4 16.8-6.9 25.1-10.3l17.7-7.2c7.7-3.1 15.3-6.3 23-9.4 6.8-2.8 13.5-5.5 20.3-8.3 0.5-0.2 0.9-0.4 1.4-0.6 1.4-0.7 2.1-2.2 1.6-3.7s-1.1-2.9-1.7-4.4c-2.4 1-4.8 1.9-7.3 2.9v-1.2c0-5.5 0-26.8 0.2-29.8 0.6 1.5 1.3 3 1.9 4.6 2.2 5.3 4.3 10.6 6.5 15.8 1.6 3.8 3.1 7.7 4.6 11.6 0.1 0.7 0.1 1.6 0.1 2.5z"/>
			<path d="m644.9 462.2c-1.9 0-3.8 0.1-5.7 0-1 0-1.3 0.4-1.4 1.3h7c1.2 0 1.3 0.1 1.4 1.5h-2-5.8c-1 0-1.3 0.4-1.1 1.4h9.3c-0.1 0.6-0.1 1-0.2 1.5h-8.2c-0.3 0-0.7 0.1-0.8 0.3-0.1 0.3 0 0.7 0.2 0.9 0.1 0.2 0.5 0.2 0.8 0.2h6.4 1c-0.2 1.5-0.2 1.5-1.6 1.5h-5c-0.3 0-0.6 0-1 0.1 0.1 0.9 0.6 1.2 1.5 1.2 1.5-0.1 3.1 0 4.9 0-0.7 0.8-1.1 1.6-2.2 1.5-1.4-0.1-2.8 0.1-4.2 0.7-3.7 1.6-7.5 0.4-9.8-2.8-2.1-3-1.9-7 0.6-10 2.1-2.5 6.1-3.6 8.9-2 1.7 1 3.3 1 5.1 1 1.2 0.2 1.5 0.4 1.9 1.7z"/>
		</g>
			<text font-size="8.8519" font-family="&apos;MyriadPro-Regular&apos;" transform="translate(566.06 513.04)" fill="#2196F3">Hyderabad</text>
			<text font-size="8.8519" font-family="&apos;MyriadPro-Regular&apos;" transform="translate(566.06 497.21)" fill="#2196F3">8801</text>
			<text font-size="8.8519" font-family="&apos;MyriadPro-Regular&apos;" transform="translate(591.06 497.21)" fill="#2196F3">5057</text>
			<text font-size="8.8519" font-family="&apos;MyriadPro-Regular&apos;" transform="translate(616.06 497.21)" fill="#2196F3">6588</text>
			<text font-size="8.8519" font-family="&apos;MyriadPro-Regular&apos;" transform="translate(641.06 497.21)" fill="#2196F3">0150</text>
		<g fill="#fff">
			<path d="m769.4 450.2h91.4c0 0.8 0.1 1.5 0.1 2.1v42.9c0 1.8-0.4 2.5-2.4 2.5-29-0.1-58 0-87 0-1.4 0-2.3 0-2.3-1.9 0.1-14.7 0-29.4 0-44.1 0-0.5 0.1-0.9 0.2-1.5zm45.5 4.4h-30.2c-1.6 0-2.3 0.4-2.6 2.1-0.5 3.4-2.1 5-5.5 5.5-1.8 0.2-2.3 1-2.3 2.7 0.1 5.9 0.1 11.7 0 17.6 0 1.7 0.6 2.5 2.3 2.7 3.1 0.4 5 2.1 5.3 5.1 0.2 2.3 1.4 2.7 3.4 2.7 9.8-0.1 19.6 0 29.4 0h30.2c1.5 0 2.6-0.2 2.8-2.2 0.3-3.5 2.1-5.3 5.7-5.7 1.7-0.2 2.2-0.9 2.2-2.5-0.1-5.8-0.1-11.6 0-17.4 0-1.9-0.4-2.9-2.6-3.1-3-0.3-5-2.2-5.3-5.2-0.2-2.1-1.2-2.4-3-2.4-9.8 0.2-19.8 0.1-29.8 0.1z"/>
			<path d="m855.1 500.8c-0.8 2.8-1.5 5.5-2.3 8.3-9.7-2.7-19.1-5.3-28.5-7.9 0-0.1 0-0.2 0.1-0.3 10-0.1 20.2-0.1 30.7-0.1z"/>
			<path d="m805.3 446.9h-30.3c0.7-2.5 1.3-4.9 2-7.2 0.1-0.3 0.9-0.7 1.2-0.7 9.1 2.5 18.1 5 27.2 7.5 0 0.1-0.1 0.2-0.1 0.4z"/>
			<path d="m863.9 467.7v-4.7c1.8 0.4 1.8 0.5 0 4.7z"/>
			<path d="m766 479.7v5c-1.6-0.5-1.6-0.8 0-5z"/>
			<path d="m844.7 457.6c1.2 3.8 3.4 6.4 7.2 7.6 0.3 0.1 0.7 0.8 0.7 1.3v14.7c0 0.4-0.4 1.1-0.8 1.2-3.8 1.2-6 3.8-7.1 7.6h-2.5-54.9c-1.5 0-2.3-0.3-2.9-1.9-0.9-2.7-2.9-4.5-5.6-5.5-1.1-0.4-1.5-0.9-1.5-2.1 0.1-4.6 0-9.3 0.1-13.9 0-0.6 0.7-1.5 1.2-1.7 2.9-1.2 4.9-3.2 6.1-6.1 0.2-0.6 1.1-1.2 1.7-1.2h58.3zm-29.6 1.9c-7.8 0-14.4 6.6-14.4 14.4 0 7.6 6.7 14.3 14.3 14.3 7.7 0 14.5-6.7 14.4-14.4 0-7.7-6.7-14.3-14.3-14.3z"/>
			<path d="m826.2 474c-0.1 6.5-4.9 11.2-11.4 11.1s-11.1-4.9-11.1-11.4c0.1-6.4 5-11.2 11.4-11.1 6.5 0 11.2 4.9 11.1 11.4z"/>
		</g>
		<g fill="#FFC900">
			<path d="m863.9 459.5c0.7 0.2 1.4 0.4 2 0.7 1.7 0.7 2.8 2.7 2.3 4.6-0.3 1.1-0.6 2.3-1 3.4-3.1 8.5-3.9 17.3-3.5 26.2 0.2 5.2-0.5 5.8-5.6 6.5-0.7 2.4-1.4 4.8-2.1 7.3-0.9 3.3-2.6 4.3-5.8 3.4-12.2-3.4-24.4-6.8-36.7-10.1-1.6-0.4-3.2-0.7-4.9-0.7-12.6-0.1-25.1 0-37.7 0-3.6 0-5-1.4-5-5v-4.1c0.1-1.9 0.3-3.6-2.4-4.3-1.8-0.5-2.4-2.5-1.8-4.5 1.1-3.9 2.3-7.8 3.2-11.8 0.6-2.4 0.9-4.9 1-7.3 0.2-4 0-8 0-12 0-2.9 1.3-4.4 4.2-4.5 1.3-0.1 1.6-0.6 1.9-1.7 0.5-1.9 1.1-3.9 1.6-5.8 0.9-3.3 2.7-4.3 6-3.4 12 3.3 23.9 6.7 35.9 10 1.9 0.5 3.9 0.8 5.9 0.8 12.4 0.1 24.7 0 37.1 0 3.9 0 5.2 1.3 5.2 5.2 0.2 2.2 0.2 4.6 0.2 7.1zm-94.5-9.3c-0.1 0.6-0.1 1-0.1 1.4v44.1c0 1.9 0.9 1.9 2.3 1.9h87c2 0 2.4-0.7 2.4-2.5-0.1-14.3 0-28.6 0-42.9 0-0.7-0.1-1.3-0.1-2.1-30.7 0.1-61 0.1-91.5 0.1zm85.7 50.6h-30.8c0 0.1 0 0.2-0.1 0.3 9.4 2.6 18.9 5.3 28.5 7.9 0.8-2.8 1.6-5.4 2.4-8.2zm-49.8-53.9c0-0.1 0-0.2 0.1-0.4-9-2.5-18.1-5-27.2-7.5-0.3-0.1-1.1 0.3-1.2 0.7-0.7 2.3-1.3 4.7-2 7.2h30.3zm58.6 20.8c1.7-4.3 1.7-4.4 0-4.7v4.7zm-97.9 12c-1.6 4.2-1.6 4.5 0 5v-5z"/>
			<path d="m814.9 454.6h30c1.8 0 2.8 0.3 3 2.4 0.3 3 2.2 4.9 5.3 5.2 2.1 0.2 2.6 1.1 2.6 3.1-0.1 5.8-0.1 11.6 0 17.4 0 1.6-0.5 2.4-2.2 2.5-3.5 0.4-5.4 2.2-5.7 5.7-0.2 2-1.3 2.2-2.8 2.2h-30.2-29.4c-2 0-3.2-0.4-3.4-2.7-0.3-3.1-2.2-4.8-5.3-5.1-1.7-0.2-2.3-0.9-2.3-2.7 0.1-5.9 0.1-11.7 0-17.6 0-1.7 0.5-2.5 2.3-2.7 3.4-0.5 5-2.1 5.5-5.5 0.2-1.7 1-2.2 2.6-2.1 9.8 0 19.9-0.1 30-0.1zm29.8 3c-19.5 0-38.9 0-58.2 0.1-0.6 0-1.5 0.6-1.7 1.2-1.2 2.9-3.2 4.9-6.1 6.1-0.6 0.2-1.2 1.1-1.2 1.7-0.1 4.6 0 9.3-0.1 13.9 0 1.2 0.4 1.7 1.5 2.1 2.7 1 4.7 2.8 5.6 5.5 0.5 1.6 1.4 1.9 2.9 1.9h54.9 2.5c1.1-3.8 3.3-6.4 7.1-7.6 0.4-0.1 0.8-0.8 0.8-1.2 0.1-4.9 0.1-9.8 0-14.7 0-0.4-0.4-1.1-0.7-1.3-3.9-1.3-6.1-3.9-7.3-7.7z"/>
			<path d="m815.1 459.5c7.7 0 14.3 6.6 14.3 14.3s-6.7 14.4-14.4 14.4c-7.6 0-14.3-6.7-14.3-14.3-0.1-7.8 6.6-14.4 14.4-14.4zm11.1 14.5c0.1-6.5-4.6-11.4-11-11.5-6.5-0.1-11.4 4.7-11.4 11.1-0.1 6.5 4.6 11.3 11.1 11.4 6.4 0.2 11.3-4.5 11.3-11z"/>
			<path d="m816 484.2l-3.6-4.5c-1-1.2-1.9-2.5-2.9-3.7l-0.1-0.1v-1.5-0.1h0.5c0.8 0 1.6 0 2.4-0.1 0.7-0.1 1.3-0.3 1.9-0.7 0.7-0.5 1.1-1.2 1.3-2 0-0.1 0-0.2 0.1-0.3h-6.6s0-0.1 0.1-0.1c0.3-0.5 0.6-1.1 1-1.6 0-0.1 0.1-0.1 0.2-0.1 1.7 0 3.4 0.1 5.1 0.1h0.1c0-0.1-0.1-0.1-0.1-0.2-0.3-0.6-0.8-0.9-1.4-1.2-0.6-0.2-1.2-0.3-1.8-0.4-1-0.1-2-0.1-3 0h-0.1v-0.1c0.4-0.5 0.7-1.1 1.1-1.6 0-0.1 0.1-0.1 0.2-0.1h6 4.9 0.1s0 0.1-0.1 0.1c-0.3 0.5-0.7 1-1 1.6 0 0.1-0.1 0.1-0.2 0.1h-2.8-0.2c0.5 0.6 0.9 1.1 1 1.9h3.2s0 0.1-0.1 0.1c-0.3 0.5-0.7 1-1 1.5 0 0.1-0.1 0.1-0.2 0.1h-1.9c-0.1 0-0.1 0-0.1 0.1-0.2 1.1-0.7 2-1.5 2.7s-1.8 1.2-2.9 1.4c-0.4 0.1-0.8 0.1-1.1 0.2h-0.1l0.2 0.2c2.1 2.7 4.3 5.5 6.4 8.2 0 0 0 0.1 0.1 0.1h-3.1z"/>
		</g>
	<g stroke="#231F20" stroke-miterlimit="10">
			<circle cx="956.1" cy="599.5" r="30.5" fill="#fff"/>
				<rect transform="matrix(-.8898 -.4564 .4564 -.8898 1613.5 1638.5)" height="8.2" width="48.1" y="620.3" x="980.6" fill="#33C7C9"/>
			<path d="m1016.1 621.7l47 24.1c0.6 0.3 0.9 1.1 0.6 1.7l-5.8 11.3c-0.3 0.6-1.1 0.9-1.7 0.6l-47-24.1 6.9-13.6z" fill="#FFC900"/>
		<path d="m934.8 586.4c5.7-11.2 19.4-15.6 30.6-9.8" fill="#fff"/>
	</g>
		<path d="m190.2 617.2c1.5-4.3 3.4-8.9 9-8.9 5.5 0 7.6 4.4 9.3 8.7 2.2-0.5 4.4-1.2 6.6-1.3 7.1-0.4 10.9 5.2 8 11.7-0.8 1.9-2 3.6-3.1 5.4 8.8-0.7 17 0.3 21.7 9.5-1.1 0.5-2.1 1-3.1 1.5-3.9-7.3-10.5-8.4-17.6-7.4-4.8 0.6-9.5 2.1-14.1 3.5-5.1 1.5-10.1 1.2-15.1-0.5-5.8-1.9-11.7-3.7-18-3.3-5.5 0.3-10.3 2.2-12.9 7.7-1-0.5-2-0.9-3.1-1.5 4.4-8.9 12.2-10.1 21-9.7-0.7-1-1.4-1.8-2-2.6-4.3-6-1.5-12.6 5.8-13.3 2.5-0.2 5 0.3 7.6 0.5zm14.5 17.4c0.3 0.2 0.5 0.3 0.6 0.4 6.1 1.4 14.8-5 15.3-11.3 0.2-2.3-1-3.9-3.2-4.4-2.8-0.7-5.3 0.3-7.7 1.6-0.3 0.2-0.5 0.9-0.5 1.4 0.1 4.6-1 8.8-4.5 12.3zm-9.8 0.6c-0.2-0.6-0.2-0.9-0.3-1-3.3-3.4-4.8-7.4-4.8-12.1 0-0.4-0.5-1.1-0.8-1.1-2.1-0.4-4.2-0.9-6.3-0.7-4.1 0.4-5.4 3.5-3.3 7.1 2.2 3.6 5.4 5.8 9.3 7 1.9 0.6 4 0.6 6.2 0.8zm5.4-10.4c1.4-1.5 3-3.1 4.4-4.8 0.4-0.5 0.7-1.4 0.5-1.8-1-1.9-2-3.8-3.3-5.4-1.4-1.6-4-1.6-5.2 0.1-1.2 1.5-2 3.4-2.8 5.3-0.2 0.3 0.1 1.1 0.5 1.4 1.9 1.8 3.9 3.5 5.9 5.2zm-6.8-1.6c-0.3 4.1 2.2 8.7 4.9 9.2 0.7-4.2-2-6.6-4.9-9.2zm8.9 8.4c2.2-1.9 3-4.4 3.1-7.2-2.1 1.9-3.4 4.2-3.1 7.2z" fill="#FF7FDC"/>
		<path d="m207.4 694.7v-32.3h22.6v32.3h-22.6z" fill="#fff"/>
		<path d="m172.8 662.4h21.8v32.3h-21.8v-32.3z" fill="#fff"/>
		<path d="m233.2 641.8v16.2h-25.7v-16.2h25.7z" fill="#fff"/>
		<path d="m194.8 641.9v1.6 14.4h-25.5v-16.1c8.4 0.1 16.8 0.1 25.5 0.1z" fill="#fff"/>
	<g stroke-miterlimit="10" stroke="#fff" stroke-width="2" stroke-linecap="round" fill="none">
			<line y2="605.3" x1="650.6" x2="663.3" y1="605.3"/>
			<line y2="611.7" x1="657" x2="657" y1="599"/>
	</g>
	<g stroke-miterlimit="10" stroke="#fff" stroke-width="2" stroke-linecap="round" fill="none">
			<line y2="573.7" x1="903.1" x2="915.8" y1="573.7"/>
			<line y2="580" x1="909.5" x2="909.5" y1="567.3"/>
	</g>
	<g stroke-miterlimit="10" stroke="#fff" stroke-width="2" stroke-linecap="round" fill="none">
			<line y2="699.9" x1="1028.6" x2="1041.3" y1="699.9"/>
			<line y2="706.2" x1="1034.9" x2="1034.9" y1="693.5"/>
	</g>
	<g stroke-miterlimit="10" stroke="#fff" stroke-width="2" stroke-linecap="round" fill="none">
			<line y2="485.6" x1="698.7" x2="711.4" y1="485.6"/>
			<line y2="492" x1="705" x2="705" y1="479.3"/>
	</g>
	<g stroke-miterlimit="10" stroke="#fff" stroke-width="2" stroke-linecap="round" fill="none">
			<line y2="450.4" x1="538.4" x2="551.1" y1="450.4"/>
			<line y2="456.7" x1="544.7" x2="544.7" y1="444"/>
	</g>
	<g stroke-miterlimit="10" stroke="#fff" stroke-width="2" stroke-linecap="round" fill="none">
			<line y2="482.4" x1="339.6" x2="352.3" y1="482.4"/>
			<line y2="488.7" x1="345.9" x2="345.9" y1="476"/>
	</g>
	<g stroke-miterlimit="10" stroke="#fff" stroke-width="2" stroke-linecap="round" fill="none">
			<line y2="647.4" x1="260.1" x2="272.8" y1="647.4"/>
			<line y2="653.7" x1="266.4" x2="266.4" y1="641"/>
	</g>
	<g stroke-miterlimit="10" stroke="#fff" stroke-width="2" stroke-linecap="round" fill="none">
			<line y2="448.7" x1="982.5" x2="995.2" y1="448.7"/>
			<line y2="455.1" x1="988.8" x2="988.8" y1="442.4"/>
	</g>
	<g stroke-miterlimit="10" stroke="#fff" stroke-width="2" stroke-linecap="round" fill="none">
			<line y2="467.2" x1="1174.1" x2="1186.8" y1="467.2"/>
			<line y2="473.5" x1="1180.4" x2="1180.4" y1="460.8"/>
	</g>
	<g stroke-miterlimit="10" stroke="#fff" stroke-width="2" stroke-linecap="round" fill="none">
			<line y2="581.1" x1="1193.4" x2="1206.1" y1="581.1"/>
			<line y2="587.5" x1="1199.8" x2="1199.8" y1="574.8"/>
	</g>
	<g stroke-miterlimit="10" stroke="#fff" stroke-width="2" stroke-linecap="round" fill="none">
			<line y2="705.8" x1="1203.4" x2="1216.1" y1="705.8"/>
			<line y2="712.2" x1="1209.8" x2="1209.8" y1="699.5"/>
	</g>
	<g stroke-miterlimit="10" stroke="#fff" stroke-width="2" stroke-linecap="round" fill="none">
			<line y2="684.8" x1="412.6" x2="425.4" y1="684.8"/>
			<line y2="691.1" x1="419" x2="419" y1="678.4"/>
	</g>
	<g stroke-miterlimit="10" stroke="#fff" stroke-width="2" stroke-linecap="round" fill="none">
			<line y2="576.8" x1="542.6" x2="555.3" y1="576.8"/>
			<line y2="583.2" x1="548.9" x2="548.9" y1="570.5"/>
	</g>
	<g fill="#fff">
		<path d="m1102.1 423.4c-0.3 4.8-0.2 9.6-1 14.3-2.4 13.5-8.6 25.2-17.7 35.4-4.6 5.1-10.7 7.6-17.6 7.3-0.8 1.5 0 2.9 0.5 4.3 0.6 1.6 1.3 3.2 1.5 4.9 0.3 2.4-1.4 4.6-3.8 5.7-0.7 0.3-1.4 0.9-1.6 1.6-1.3 4.2-4.3 6.5-8.4 7.5-0.7 0.2-1.5 0.5-1.9 1-4.1 5.8-10.9 6.5-16.1 1.6-0.1-0.1-0.3-0.2-0.5-0.3-0.1-0.4-0.2-0.8-0.2-1.2 1-0.9 1.6-0.5 2.5 0.3 4 3.8 9.8 3 12.4-1.5-0.9-1-2-1.9-2.7-3-0.3-0.5-0.3-1.4-0.1-2.1 0.5-1.6 1.8-2.1 3.3-2 1.9 0.2 2.7 1.5 3 4.8 3.3-0.3 6-2.8 6.8-6.4-0.9-0.3-1.8-0.5-2.7-0.8-1.7-0.6-3-1.6-2.7-3.6 0.2-1.8 1.5-2.8 3.2-3s2.9 0.8 3.5 2.8l0.6 2.4c2.8-0.9 4-2.7 3.3-5.3-0.4-1.3-1.2-2.5-1.6-3.8-0.4-1.4-0.6-2.9-1-4.8-0.3-0.2-1.2-0.5-2-1-2.4-1.4-3.4-3.3-2.8-5.7 1.3-5.1 4.1-9.5 7.9-13.1 1.1-1 3.1-1.3 4.7-1.5 1.7-0.1 3.5 0.3 5.3 0.5 2.1 0.2 3.9-0.6 5-2.3 4.4-6.6 7.7-13.7 8-21.9 0.1-3.3-1.2-5.8-3.8-7.7-1.4-1-2.8-1.9-4.2-2.9-2.4-1.7-3.7-4.1-3.1-7 0.7-3.6 1.6-7.2 2.8-10.7 0.5-1.5 1.9-2.6 2.9-3.9 0.7-0.1 1.3-0.3 2-0.4 6.4 1.5 10.6 5.6 13.4 11.3 0.7 1.4 1.2 2.9 1.8 4.4 0.4 2.2 0.8 4 1.1 5.8zm-42.5 70.5c0.3-0.3 0.6-0.5 0.9-0.8-0.7-0.9-1.3-1.8-2-2.7-0.5 0.5-1 0.9-1.5 1.4 0.9 0.6 1.8 1.3 2.6 2.1zm-8.8 8.5c0.4-0.2 0.7-0.5 1.1-0.7-0.5-0.8-0.9-1.5-1.4-2.2 0 0-0.7 0.4-1.1 0.7 0.4 0.7 0.9 1.5 1.4 2.2z"/>
		<path d="m1067.9 430c-6.7 1.2-9.5 8.9-5.3 14.4 0.4 0.5 0.3 1.4 0.5 2.2-0.8-0.3-1.8-0.3-2.2-0.9-2.7-3.4-3.1-7.2-1.6-11.2 1.4-3.8 4.5-5.8 8.3-6.7 0.4-0.1 0.9-0.2 1.2-0.1 0.6 0.3 1.1 0.7 1.6 1.1-0.5 0.4-0.9 0.8-1.4 1.1-0.4 0.1-0.7 0-1.1 0.1z"/>
		<path d="m1058.3 427.6c-5.6 0.8-8.1 6.5-5.4 10.6 0.2 0.3 0.5 0.5 0.6 0.8 0.1 0.6 0.1 1.2 0.1 1.9-0.6-0.2-1.5-0.2-1.8-0.6-2.2-2.6-2.7-5.5-1.6-8.7 1.1-3.3 3.5-5.4 7-5.9 0.7-0.1 1.5 0.6 2.2 0.9-0.5 0.5-1 1-1.1 1z"/>
		<path d="m1047.9 426c-4 0.5-5.6 4.5-3.5 7.8 0.4 0.6 0.3 1.5 0.4 2.2-0.7-0.3-1.6-0.5-2-1-3.2-4.1-0.7-10.4 4.4-11.3 0.7-0.1 1.5 0.5 2.3 0.8-0.5 0.5-1 1-1.6 1.5z"/>
	</g>
		<circle r="6.4" stroke-linecap="round" cy="670" stroke="#fff" cx="998.7" stroke-miterlimit="10" stroke-width="2" fill="none"/>
		<circle r="6.4" stroke-linecap="round" cy="585.2" stroke="#fff" cx="607.3" stroke-miterlimit="10" stroke-width="2" fill="none"/>
		<circle r="6.4" stroke-linecap="round" cy="438.2" stroke="#fff" cx="717.8" stroke-miterlimit="10" stroke-width="2" fill="none"/>
		<circle r="6.4" stroke-linecap="round" cy="525.9" stroke="#fff" cx="536.2" stroke-miterlimit="10" stroke-width="2" fill="none"/>
		<circle r="6.4" stroke-linecap="round" cy="589.5" stroke="#fff" cx="386.9" stroke-miterlimit="10" stroke-width="2" fill="none"/>
		<circle r="6.4" stroke-linecap="round" cy="550.4" stroke="#fff" cx="946.7" stroke-miterlimit="10" stroke-width="2" fill="none"/>
		<circle r="6.4" stroke-linecap="round" cy="632.4" stroke="#fff" cx="1193.4" stroke-miterlimit="10" stroke-width="2" fill="none"/>
		<circle r="6.4" stroke-linecap="round" cy="488.2" stroke="#fff" cx="1108.6" stroke-miterlimit="10" stroke-width="2" fill="none"/>
						<path d="m327.6 612.5l-15.8-2.2-8.9 9.6 3.3 15.6 64.6 60.1 21.4-23-64.6-60.1zm-17.6 8.8c-1.1-1-1.2-2.7-0.1-3.8 1-1.1 2.7-1.2 3.8-0.1 1.1 1 1.2 2.7 0.1 3.8-1 1-2.7 1.1-3.8 0.1z" fill="#FFC900"/>
						<path stroke="#fff" stroke-miterlimit="10" d="m327.6 612.5l-15.8-2.2-8.9 9.6 3.3 15.6 64.6 60.1 21.4-23-64.6-60.1zm-17.6 8.8c-1.1-1-1.2-2.7-0.1-3.8 1-1.1 2.7-1.2 3.8-0.1 1.1 1 1.2 2.7 0.1 3.8-1 1-2.7 1.1-3.8 0.1z" fill="none"/>
				<path stroke="#fff" stroke-miterlimit="10" d="m313.7 617.2c-1.1-1-2.9-1-3.9 0.1s-1 2.9 0.1 3.9 2.9 1 3.9-0.1 1-2.8-0.1-3.9zm-3.7 4c-1.1-1-1.1-2.6-0.1-3.7s2.6-1.1 3.7-0.1 1.1 2.6 0.1 3.7c-1 1-2.6 1.1-3.7 0.1z" fill="#FFC900"/>
			<text font-size="15.774" font-family="&apos;MyriadPro-Regular&apos;" transform="matrix(.7604 .6494 -.6494 .7604 325.52 639.46)" fill="#FFFFFF">10-35%!!!</text>
						<path d="m324.5 605.9l-14.8 6-2.9 12.7 10.6 11.9 86 19.8 7-30.6-85.9-19.8zm-10.8 16.5c-1.5-0.3-2.4-1.8-2-3.2 0.3-1.5 1.8-2.4 3.2-2 1.5 0.3 2.4 1.8 2 3.2-0.3 1.4-1.8 2.3-3.2 2z" fill="#EC4F3E"/>
						<path stroke="#fff" stroke-miterlimit="10" d="m324.5 605.9l-14.8 6-2.9 12.7 10.6 11.9 86 19.8 7-30.6-85.9-19.8zm-10.8 16.5c-1.5-0.3-2.4-1.8-2-3.2 0.3-1.5 1.8-2.4 3.2-2 1.5 0.3 2.4 1.8 2 3.2-0.3 1.4-1.8 2.3-3.2 2z" fill="none"/>
				<path stroke="#fff" stroke-miterlimit="10" d="m314.9 617c-1.5-0.3-3 0.6-3.3 2.1s0.6 3 2.1 3.3 3-0.6 3.3-2.1-0.6-3-2.1-3.3zm-1.2 5.3c-1.4-0.3-2.3-1.7-2-3.1s1.7-2.3 3.1-2 2.3 1.7 2 3.1-1.7 2.3-3.1 2z" fill="#EC4F3E"/>
			<text font-size="14.275" font-family="&apos;MyriadPro-Regular&apos;" transform="matrix(.9724 .2334 -.2334 .9724 337.72 630.02)" fill="#FFFFFF">Offers!!!</text>
				<path d="m312.9 619.5c-1.1-6.9-5.7-11.6-12.3-13.6-5.6-1.7-13-0.8-16.5 4.5-3.4 5.2-2.7 11.1 1.9 15.4 4.5 4.2 12.6 1.5 17.8 0.3 0.8-0.2 0.5-1.4-0.3-1.2-3.7 0.9-7.5 1.7-11.4 1.8-7.6 0.1-10.6-8.6-7.6-14.5 2.9-6 10.1-6.4 15.8-5.1 6.3 1.5 10.4 6.6 11.4 12.8 0.1 0.7 1.3 0.4 1.2-0.4z" fill="#fff"/>
	<polyline fill="none" stroke="#2E3192" stroke-linecap="round" stroke-miterlimit="10" stroke-width="2" points="630.1 341.9 630.1 383 615.7 397.4 484.7 397.4 467.3 409.3 295 409.3 285.3 422.7 285.3 491.9"/>
		<path d="m262.6 466.4l60 60c3.8 3.8 3.8 10.1 0 13.9l-38.3 38.3c-3.8 3.8-10.1 3.8-13.9 0l-60-60c-3.8-3.8-3.8-10.1 0-13.9l38.3-38.3c3.8-3.8 10-3.8 13.9 0z" fill="#5D5D5D"/>
			<rect transform="matrix(-.7071 -.7071 .7071 -.7071 84.374 1078.2)" height="57.2" width="87.7" y="493" x="221.6" fill="#fff"/>
		<circle cy="555.9" cx="299.7" r="3.4" fill="#fff"/>
			<rect transform="matrix(-.7071 -.7071 .7071 -.7071 51.334 998.39)" height="19.2" width=".9" y="478.9" x="232" fill="#fff"/>
	<polyline fill="none" stroke="#2E3192" stroke-linecap="round" stroke-miterlimit="10" stroke-width="2" points="658.2 341.9 658.2 384.6 639.1 409.3 526.7 409.3 510.7 425.3 510.7 578.3"/>
		<path stroke="#58595B" stroke-width=".25" stroke-miterlimit="10" d="m619 692.1h-24.6c-0.3 2.6-0.2 5.1-0.8 7.4-1.3 5.1-6 8.5-11 8.8-5.6 0.3-10.4-2.8-12.4-7.8-2-4.9-0.8-10.7 3.4-14 2-1.5 2.2-2.7 1.4-5-7-18.1-14-36.3-20.8-54.5-0.9-2.3-2-3.1-4.4-2.9-2.3 0.2-4.7 0.1-7.1 0-3.1-0.1-5-1.8-4.9-4.3s1.8-4.1 4.7-4.1c4.3-0.1 8.6 0 12.8 0 2.5 0 4 1.1 4.8 3.4 1.1 3 2.4 5.9 3.3 9 0.7 2.4 2 3 4.4 2.9 26-0.1 52-0.1 78-0.1 1.1 0 2.1-0.1 3.2 0 3.1 0.3 4.8 2.6 3.9 5.6-3.8 12.5-7.7 24.9-11.6 37.3-0.9 2.9-3.3 3.3-5.9 3.3h-49.1-3.5c0.8 5.7 1.1 6 6.4 6 13.8 0 27.6-0.1 41.4 0 8.3 0.1 14.3 7.2 12.7 14.9-1.4 6.6-7.3 10.8-14 10-6.4-0.8-11.2-6.6-10.8-13.4 0.2-0.5 0.4-1.3 0.5-2.5zm-51-52.4c1.5 4.1 2.9 8 4.5 11.8 0.2 0.5 1.1 1.1 1.7 1.1 6.1 0.1 12.3 0.1 18.7 0.1-0.4-4.6-0.7-8.8-1.1-13h-23.8zm52 13h17.5c0.7 0 1.8-0.6 2-1.1 1.3-3.9 2.5-7.8 3.8-11.8h-22.2c-0.4 4.2-0.8 8.3-1.1 12.9zm-3.3-13h-20.4c0.3 3.8 0.4 7.4 0.9 10.9 0.1 0.7 1.4 1.9 2.1 1.9 4.8 0.2 9.6 0.2 14.4 0 0.8 0 2-1.2 2.1-1.9 0.4-3.5 0.6-7.1 0.9-10.9zm-1.4 17.5h-17.8c0.3 3.9 0.6 7.6 0.9 11.3h15.9c0.4-3.8 0.7-7.5 1-11.3zm-40.6-0.2c1.4 3.7 2.6 7 3.9 10.2 0.2 0.6 1 1.3 1.5 1.3 4.7 0.1 9.3 0.1 14.1 0.1-0.4-4.2-0.7-7.8-1-11.6h-18.5zm63 0.1h-18.1c-0.3 3.8-0.6 7.5-0.9 11.5 4.9 0 9.4 0.1 14-0.1 0.6 0 1.6-0.7 1.8-1.3 1.2-3.2 2.2-6.6 3.2-10.1zm-6.4 34.9c-2.2 0-4.2 1.8-4 4 0.2 2.3 1.5 3.7 3.9 3.9 2.1 0.2 4.2-1.9 4-4-0.3-2.4-1.6-3.7-3.9-3.9zm-45.5 3.8c0-2.2-2-4-4.2-3.8-2.4 0.2-3.7 1.7-3.7 4s1.5 3.7 3.8 3.9c2.1 0.1 4.1-2 4.1-4.1z" fill="#33C7C9"/>
		<path d="m568 639.7h23.8c0.3 4.2 0.7 8.4 1.1 13-6.4 0-12.6 0-18.7-0.1-0.6 0-1.4-0.6-1.7-1.1-1.5-3.9-2.9-7.7-4.5-11.8z" fill="#fff"/>
		<path d="m620 652.7c0.4-4.6 0.7-8.7 1-12.9h22.2c-1.3 4-2.4 7.9-3.8 11.8-0.2 0.5-1.3 1.1-2 1.1h-17.4z" fill="#fff"/>
		<path d="m616.7 639.7c-0.3 3.8-0.4 7.4-0.9 10.9-0.1 0.7-1.4 1.9-2.1 1.9-4.8 0.2-9.6 0.2-14.4 0-0.8 0-2-1.2-2.1-1.9-0.5-3.6-0.6-7.2-0.9-10.9h20.4z" fill="#fff"/>
		<path d="m615.3 657.2c-0.3 3.9-0.6 7.5-0.9 11.3h-15.9c-0.3-3.8-0.6-7.4-0.9-11.3h17.7z" fill="#fff"/>
		<path d="m574.7 657h18.5c0.3 3.7 0.6 7.4 1 11.6-4.8 0-9.4 0-14.1-0.1-0.5 0-1.3-0.7-1.5-1.3-1.3-3.2-2.5-6.5-3.9-10.2z" fill="#fff"/>
		<path d="m637.7 657.1c-1.1 3.5-2 6.8-3.1 10.1-0.2 0.6-1.2 1.3-1.8 1.3-4.6 0.1-9.1 0.1-14 0.1 0.3-4 0.6-7.7 0.9-11.5h18z" fill="#fff"/>
		<path d="m631.3 692c2.4 0.2 3.7 1.6 3.9 3.9 0.2 2.1-1.9 4.2-4 4-2.3-0.2-3.7-1.6-3.9-3.9-0.3-2.2 1.7-4.1 4-4z" fill="#fff"/>
		<path d="m585.8 695.8c0 2.1-2 4.2-4.1 4-2.3-0.2-3.8-1.6-3.8-3.9s1.3-3.8 3.7-4c2.1-0.1 4.1 1.7 4.2 3.9z" fill="#fff"/>
	<g fill="#fff">
		<path d="m541.5 617.7l-22.1-1-19.7-19.9c-1.2-1.5-3-2.5-5.1-2.5s-3.9 1-5.1 2.5l-0.3 0.4s0 0.1-0.1 0.1l-24.1 33c-3.6 5-5.6 11-5.6 17.1v16.5l-13.1 37.1c0 0.1-0.1 0.2-0.1 0.3l-0.2 0.6c-0.3 1.4-0.3 3 1.6 4.9 0.9 0.9 2.1 1.6 3.4 1.7 2.8 0.1 5.2-2 5.5-4.7l4.4-9.4 9.4-25.1 0.8-25.4 16.2 25.4-0.6 34.2h0.1c0.4 2.7 2.7 4.8 5.5 4.8 3.1 0 5.6-2.5 5.6-5.6l1.2-33.7c0.1-2.1-0.4-4.1-1.4-5.9l-14.7-25.9 16.9-23.8 15 14.6 26 0.9v-0.1c0.2 0 0.4 0.1 0.6 0.1 3.1 0 5.6-2.5 5.6-5.6s-2.5-5.6-5.6-5.6z"/>
		<circle cy="585.2" cx="507.1" r="11.6"/>
	</g>
	<polyline fill="none" stroke="#2E3192" stroke-linecap="round" stroke-miterlimit="10" stroke-width="2" points="686.3 341.9 686.3 390.1 705.3 400.1 705.3 461.6 730.6 481.3 730.6 519.4"/>
	<polyline fill="none" stroke="#2E3192" stroke-linecap="round" stroke-miterlimit="10" stroke-width="2" points="714.3 341.9 714.3 384.6 724.3 392.4 840.8 392.4 859.3 400.1 992.2 400.1 1004.6 418.3 1004.6 497.7"/>
	<polyline fill="none" stroke="#2E3192" stroke-linecap="round" stroke-miterlimit="10" stroke-width="2" points="742.4 341.9 742.4 377.8 750.9 383 1004.6 383 1097.2 383 1121.8 406.3 1121.8 514.7"/>
	<path id="globe-5" d="m1010.4 516.9c-0.1-0.2 0.8-0.2 1-0.2s-0.5 1-1 0.2zm-5-7.2c-0.1 0.1 0.2-0.1 0.3-0.1 0.2 0.1-0.2 0.2-0.1 0.3 0.2 0.4 0.1 0.6 0 0.8 0 0.2-0.2 0.1-0.4 0.2-0.1 0.2 0.6 0.2 0.6 0.2 0 0.1-0.9 0.2-0.7 0.4 0.2 0.3 1.9-0.5 1.7-0.4 0.5-0.3 0.1-0.3-0.2-0.4-0.1-0.5-0.2-1.3-0.5-1.6-0.1-0.1 0.3-0.2 0.2-0.2-0.6-0.8-0.9 0.8-0.9 0.8zm30.5 16.2c0 15.6-12.6 28.2-28.2 28.2s-28.2-12.6-28.2-28.2 12.6-28.2 28.2-28.2c15.6 0 28.2 12.6 28.2 28.2zm-19.5-12.6c0-0.3-0.4-0.7-0.9-0.1-0.3 0.4-0.3 1-0.4 1.3-0.2 0.4 1.3 0.8 1.3 0.4 0.1-0.7 1.7-0.1 2-0.1 0.6 0.2 1.5-0.5 0.5-0.9-0.8-0.3-1.3-0.6-1.4-1.2 0 0 0.4-0.4 0.3-0.4-0.5 0.1-1.4 1.9-1.4 1zm14.8 12.6c0-2.4-0.4-4.9-0.8-6.2-0.1-0.4-0.4-0.7-0.8-0.9-0.6-0.2-3.1 1.4-3.5 0.6-0.3-0.5-0.8 0.3-1.3 0-0.3-0.2-1.1-1.2-1.4-1.1-0.7 0.3 1.1 2.3 1.6 2.5 0.5-0.4 2-1.1 2.3-0.1 0.6 1.9-1.7 4-2.9 5.1-1.8 1.6-1.5-1.1-2.7-2-0.6-0.5-0.6-1.6-1.3-1.9-0.3-0.2-1.6-1.7-1.6-1.9v0.4c-0.2 0.2-0.7-0.6-0.7-0.8 0 0.7 1.1 1.8 1.5 2.4 0.6 1 1 2.3 1.8 3.1 0.4 0.4 2 2.1 2.4 2.1 0.5 0 1.9-1.1 2.1-1 1.5 0.4-3.6 7.5-4 8.4-0.4 0.7 0.3 2.6 0.3 3.5-0.1 1-0.9 1.3-1.6 1.9-0.8 0.6-0.6 1.8-1.3 2.2-1.2 0.7-2.1 3.2-3.8 3.2-0.5 0-2.7 0.8-3 0-0.2-0.6-0.5-1.1-0.8-1.7s0-1.2-0.4-1.7c-0.3-0.4-1.1-1.2-1.2-1.6 0-0.4 0.3-1.5 0.7-1.7 0.5-0.3 0.1-1.1 0-1.5-0.1-0.8-0.6-1.5-1.2-2-0.9-0.7-0.4-1.3-0.2-2.3 0-0.5-0.3-1.1-0.9-0.9-1.3 0.4-0.9-1-1.9-1-0.7 0.1-1.3 0.5-1.9 0.7-0.8 0.2-1.6-0.2-2.5-0.3-3.3-0.4-4.4-4.2-3.5-6.9 0.1-0.4-0.3-1.3-0.1-1.6 0.4-0.8 1.1-1.8 1.8-2.4 0.4-0.4 0.8-0.3 1.3-0.5 0.7-0.4 0.7-1.3 1.3-1.8 0.9-0.8 2.2-0.7 3.5-0.9 0.7-0.1 3.1-0.6 3.5-0.1 0 0.1 0.5 1.4 0 1.3 1 0.1 2.5 1.8 3.4 1.4 0.5-0.2 0.3-1.7 1.3-1 0.6 0.4 3.4 0.6 3.9 0.2 0.4-0.3 0.6-2.2 0.1-2.4 0.3 0.3-1.4 0.3-1.6 0.2-0.3-0.1-0.5 0.3-1 0.1 0.3 0.1-1.5-0.8-0.5-1.6-0.4 0.3-0.8-0.1-1.3 0.3-0.3 0.3 0.1 0.4-0.3 0.6-0.7 0.4-1.2-1.2-1.5-1.4s-2.4-1.7-1.8-0.7c0.4 0.7 2.1 1.7 1.9 1.8-0.1 0.1-0.5-0.7-0.5-0.1 0.1-0.3 0 1.4-0.2 0.8-0.1-0.2 0.2-0.3 0-0.6 0-0.2-0.5-0.4-0.6-0.5-0.3-0.4-1.1-1.2-1.5-1.4-0.1-0.1-1.8 0.2-1.9 0.3-0.2 0.2-0.3 0.5-0.4 0.7-0.3 0.1-0.7 0.3-1 0.5-0.2 0.2-0.2 0.7-0.4 0.8s-1.8 0.7-1.8 0.7c0.1-0.2-1.1-0.4-1.1-0.8 0.1-0.4 0.5-1.6 0.4-2-0.1-0.5 2.5 0.7 2.7-0.6 0.1-0.5 0.1-1.1-0.7-1.2 0.2 0 1.6-0.6 1.9-0.8 0.3-0.4 1.1-1 1.7-1 0.7 0 0.5-1 0.8-1.4 0.3 0.1-0.2 0.9 0.2 1.2 0-0.2 1 0.1 1.2 0.1 0.2-0.1 1.6-0.1 1.4-0.7-0.2-0.7 0.1-0.5 0.4-0.6-0.1 0 0.8-1.5 0.9-1-0.1-0.5-1 0.2-1.3 0.1-0.7-0.1-0.4-1.2-0.1-1.6 0.2-0.3-0.6-0.6-0.6-0.1 0 0.8-0.7 1.5-0.6 2.5 0.3 1.6-1.7-0.4-1.9-0.3-0.7 0.4-1.2-0.5-0.9-1 0.3-0.6 1.2-0.5 1.5-1.1 0.2-0.4 0.5-0.9 0.9-1.2 1.3-1.1 1.6-0.2 2.9-0.1 1.2 0.1 0.4 0.3 0.2 0.8-0.2 0.4 0.7 0.6 1 0.2 0.2-0.2 0.5-0.8 0.7-1.2 0.2-0.5 2.1-0.5 0.8-1.3-0.9-0.5-4.7-1.6-7.3-1.6-0.6 0-0.9 0.6-1.4 1-0.8 0.7-3 2.1-4.2 1.6-1.2-0.4-3.8 1.6-4.3 1.6-0.2 0 0-1.5 0.8-1.6-0.4 0.1 2.9-1.7 2.8-2-0.1-0.4-6.6 1.9-6.3 2.4 0.1 0.2 0.7 0.2 0 0.7-0.4 0.3-0.9 1.9-1.3 1.9-1.2 0.5-1.3-1-2.6 1-0.3 0.4-1.7 0.4-2.1 0.8-3.1 3.3-5.3 7.5-6.1 12.2 0 0.2 0.8 0.5 0.9 0.7 0.3 0.3 0.3 1.7 0.4 2.1 0.3 1.1 1.1 1.7 1.7 2.8 0.4 0.6 1 2.1 0.8 2.8 0.3-0.4 2.5 1.9 2.9 2.4 1 1.1 1.7 2.5 0.1 3.7-0.5 0.4 0.8 2.7 0.1 3.2-0.1 0.1-0.6 0.1-0.8 0.2-0.8 0.5-0.5 1.8 0.1 2.3 4.3 4.5 10.3 7.3 17 7.3 12.8-0.2 23.3-10.7 23.3-23.7zm-27-15c0.3-0.1 0.7-0.1 0.7-0.5 0-0.3 0.1-0.1 0.2-0.2s-0.2-0.3-0.3-0.3c-0.2 0-0.3 0.2-0.4 0.2h-0.2c-0.1 0-0.1 0.1-0.2 0.2v0.1c0 0.1-0.2 0.2-0.2 0.3-0.1 0.2 0.2 0.3 0.4 0.2 0 0-0.1 0.1 0 0z" fill="#fff"/>
			<path stroke="#231F20" stroke-miterlimit="10" d="m1143.7 683.3h-61.5c-4 0-7.3-3.2-7.3-7.3v-130.5c0-4 3.2-7.3 7.3-7.3h61.5c4 0 7.3 3.2 7.3 7.3v130.5c0 4-3.3 7.3-7.3 7.3z" fill="#FFC900"/>
			<rect height="13.6" width="17.7" stroke="#D1D3D4" stroke-miterlimit="10" y="612.8" x="1086.1" fill="#fff"/>
			<rect height="53.5" width="53.9" stroke="#D1D3D4" stroke-miterlimit="10" y="552.5" x="1086.1" fill="#fff"/>
			<rect height="13.6" width="17.7" stroke="#D1D3D4" stroke-miterlimit="10" y="626.4" x="1086.1" fill="#fff"/>
			<rect height="13.6" width="17.7" stroke="#D1D3D4" stroke-miterlimit="10" y="639.9" x="1086.1" fill="#fff"/>
			<rect y="653.5" x="1086.1" height="13.6" width="17.7" fill="#FC495F"/>
			<rect height="13.6" width="17.7" stroke="#D1D3D4" stroke-miterlimit="10" y="612.8" x="1104.1" fill="#fff"/>
			<rect height="13.6" width="17.7" stroke="#D1D3D4" stroke-miterlimit="10" y="626.4" x="1104.1" fill="#fff"/>
			<rect height="13.6" width="17.7" stroke="#D1D3D4" stroke-miterlimit="10" y="639.9" x="1104.1" fill="#fff"/>
			<rect height="13.6" width="17.7" stroke="#D1D3D4" stroke-miterlimit="10" y="653.5" x="1104.1" fill="#fff"/>
			<rect height="13.6" width="17.7" stroke="#D1D3D4" stroke-miterlimit="10" y="612.8" x="1122.1" fill="#fff"/>
			<rect height="13.6" width="17.7" stroke="#D1D3D4" stroke-miterlimit="10" y="626.4" x="1122.1" fill="#fff"/>
			<rect height="13.6" width="17.7" stroke="#D1D3D4" stroke-miterlimit="10" y="639.9" x="1122.1" fill="#fff"/>
			<rect y="653.5" x="1122.1" height="13.6" width="17.7" fill="#309172"/>
			<line y2="544.1" x2="1142.7" stroke="#414042" stroke-miterlimit="10" y1="544.1" x1="1084.7" fill="none"/>
			<line y2="645.5" x2="1146.5" stroke="#414042" stroke-miterlimit="10" y1="560.8" x1="1146.5" fill="none"/>
			<path d="m1136.6 515.3c-0.6 0-1.1-0.2-1.5-0.6-0.4 0.4-0.9 0.6-1.5 0.6s-1.1-0.2-1.5-0.6c-0.4 0.4-0.9 0.6-1.5 0.6s-1.1-0.2-1.5-0.6c-0.4 0.4-0.9 0.6-1.5 0.6s-1.1-0.2-1.5-0.6c-0.4 0.4-0.9 0.6-1.5 0.6s-1.1-0.2-1.5-0.6c-0.4 0.4-0.9 0.6-1.5 0.6s-1.1-0.2-1.5-0.6c-0.4 0.4-0.9 0.6-1.5 0.6s-1.1-0.2-1.5-0.6c-0.4 0.4-0.9 0.6-1.5 0.6s-1.1-0.2-1.5-0.6c-0.4 0.4-0.9 0.6-1.5 0.6s-1.1-0.2-1.5-0.6c-0.4 0.4-0.9 0.6-1.5 0.6s-1.1-0.2-1.5-0.6c-0.4 0.4-0.9 0.6-1.5 0.6s-1.1-0.2-1.5-0.6c-0.4 0.4-0.9 0.6-1.5 0.6s-1.1-0.2-1.5-0.6c-0.4 0.4-0.9 0.6-1.5 0.6s-1.1-0.2-1.5-0.6c-0.4 0.4-0.9 0.6-1.5 0.6s-1.1-0.2-1.5-0.6c-0.4 0.4-0.9 0.6-1.5 0.6s-1.1-0.2-1.5-0.6c-0.4 0.4-0.9 0.6-1.5 0.6s-1.1-0.2-1.5-0.6c-0.4 0.4-0.9 0.6-1.5 0.6h-0.5v28.8h47.5v-28.8h1z" fill="#fff"/>
		<text font-size="12" font-family="&apos;MyriadPro-Regular&apos;" transform="translate(1097.2 583.18)">TOTAL</text>
	<circle r="5.3" cy="382.9" stroke="#2E3192" cx="902.4" stroke-miterlimit="10" stroke-width="2" fill="#fff"/>
	<circle r="5.3" cy="410.4" stroke="#2E3192" cx="706.1" stroke-miterlimit="10" stroke-width="2" fill="#fff"/>
	<circle r="5.3" cy="408.8" stroke="#2E3192" cx="607.3" stroke-miterlimit="10" stroke-width="2" fill="#fff"/>
	<circle r="5.3" cy="408.7" stroke="#2E3192" cx="433" stroke-miterlimit="10" stroke-width="2" fill="#fff"/>
	<circle r="5.3" cy="433.3" stroke="#2E3192" cx="1004.6" stroke-miterlimit="10" stroke-width="2" fill="#fff"/>
	<g stroke="#fff" stroke-width=".5" stroke-miterlimit="10">
		<path d="m231 610.5c0.4 0.1 0.8 0.1 1.1 0.2 0-0.2 0-0.4-0.1-0.6-0.3-1.5-0.3-1.5 1.2-1.7 2.9-0.4 5.7-0.8 8.3-2.2 3.8-2.1 6.5-5.3 8.9-8.8 1.5-2.1 2.9-4.2 2.8-7-0.1-1.5-0.2-3.1-0.5-4.6-1.4-7.9-7.2-11.1-13.9-9.7-5 1-8.7 4.1-10.4 9-0.8 2.1-1.3 4.3-1.8 6.5-1.1 5.5-0.2 10.6 3.2 15.2 0.7 0.9 0.8 1.7-0.1 2.5-0.1 0.1-0.1 0.2-0.1 0.3 0.3 0.3 0.5 0.6 0.9 0.9-4.1 7.4-8.1 14.7-12.1 21.8 0.1 0.1 0.2 0.2 0.3 0.2 4.1-7.3 8.2-14.7 12.3-22zm10.6-32.1c-5 2.4-9 6-11.4 11.3 0.2-5.8 5.3-10.8 11.4-11.3z" fill="#33C7C9"/>
		<path d="m219.2 633.1c6.4-6.4 12.5-12.6 18.7-18.8 0.4 0.3 0.7 0.5 0.9 0.8 0.1-0.2 0.2-0.3 0.3-0.4 0.7-1.3 0.7-1.3 2.1-0.9 1.9 0.6 3.8 1.1 5.7 1.6 0.4-0.9 0.7-1.6 1.1-2.3 2.1-3.8 5.3-6.5 8.7-9 2.5-1.8 5.1-3 8.2-3 1.1 0 2.2 0.1 3.3 0.2 1.3-4 0.6-8.1-1.9-10.7-3.3-3.5-7.3-5.1-12.2-4 0.1 0.6 0.2 1.2 0.3 1.7 1.4-0.2 2.7-0.4 4-0.6-1 0.6-2 1-3 1.4-0.6 0.2-0.8 0.6-0.8 1.2-0.1 1.4-0.2 3-0.8 4.3-1.8 3.5-4.1 6.7-7.1 9.3-2.3 2-4.9 3.6-8 4.2 0.2 1.6 0.5 3.1 0.7 4.6-0.6 0.2-1.2 0.4-1.7 0.5 0.1 0.1 0.2 0.1 0.3 0.2-0.2 0.5-0.4 1-0.7 1.4-4.8 4.9-9.6 9.8-14.5 14.7-1.1 1.1-2.3 2.1-3.5 3.3-0.4 0.1-0.2 0.2-0.1 0.3z" fill="#FFC900"/>
		<path d="m277.9 618.6c1.9-4.2 1.8-8.2-1.3-11.9-4-4.8-11.4-6.4-16.9-3.3-2.1 1.2-4.1 2.6-6 4.1-4.2 3.4-6.9 7.6-7.4 13.1-0.1 0.8-0.2 1.6-0.3 2.5h-1.8c0.1 0.1 0.1 0.2 0.2 0.2-0.3 0.3-0.6 0.7-1 0.9-7.8 3.1-15.7 6.1-23.6 9.2-0.1 0-0.2 0.1-0.3 0.1 0.1 0.1 0.1 0.2 0.2 0.3 7.7-3 15.3-6 23-9 1.4-0.6 1.4-0.5 2.4 0.4 0.1-0.1 0.3-0.2 0.4-0.3 0.6-0.8 1.1-0.9 2.1-0.2 1.5 1.1 3.1 2.1 4.8 2.8 5 2 10 1.5 15 0.1 4.8-1.5 8.4-4.4 10.5-9zm-21.2-8c3.7-4.9 9.9-6.4 16-3.4-5.7-0.7-10.9 0.1-16 3.4z" fill="#FF7FDC"/>
	</g>
	<path d="m468.5 580.3c0 12.5-10.2 22.6-22.7 22.6-12.5-0.1-22.5-10.2-22.5-22.6 0-12.5 10.2-22.6 22.7-22.6s22.5 10.1 22.5 22.6zm-21.8-2.1c0 0.3 0 0.5-0.1 0.7-0.6 3.2-1.1 6.3-1.7 9.5-0.4 2.4-1.1 2.9-3.5 3.1h-1-5.5c-0.9 0-1.5 0.4-1.6 1.3-0.2 0.8-0.3 1.6-0.6 2.4-0.2 0.8 0.1 1.1 0.9 1 3.5 0 7 0 10.5-0.2 2.6-0.1 4.7-1.5 5.6-4.1 0.7-2 1-4.1 1.4-6.2 0.5-2.5 0.9-5 1.3-7.6h1.5c1.6 0 2.1-0.4 2.4-2 0.1-0.3 0.1-0.5 0.1-0.8 0.1-1-0.2-1.4-1.2-1.4h-2.1c0.2-0.9 0.3-1.7 0.5-2.4 0.5-2.3 1.4-3 3.7-3.2 2-0.1 2.2-0.4 1.8-2.3 0-0.1-0.1-0.2-0.1-0.4-0.3-1.1-0.7-1.5-1.8-1.6-3-0.1-5.6 0.8-7.5 3.3-1.3 1.7-1.7 3.7-2 5.7-0.1 0.6-0.3 0.7-0.9 0.7h-3.8c-0.7 0-1 0.3-0.8 1s0.4 1.5 0.5 2.2c0.1 0.8 0.6 1 1.3 1 0.8 0.3 1.7 0.3 2.7 0.3z" fill="#fff"/>
	<path d="m956.2 613.4h-0.3c-1.2-1.9-2.4-3.8-3.5-5.7-1.7-2.8-3.4-5.5-4.3-8.7-0.4-1.5-0.6-3-0.2-4.4 0.8-2.9 2.7-4.8 5.5-5.7 0.6-0.2 7.3-1.7 10 3.9 1.2 2.5 1.3 4.9 0.3 7.2-1.1 2.5-2.4 4.9-3.8 7.3-1.1 2.1-2.4 4.1-3.7 6.1zm-3.2-16.7c-0.1 1.5 1.4 3.1 3 3.1 1.7 0 2.9-1 3.2-3 0.2-1.2-1.3-2.9-2.6-3-2.2-0.2-3.3 1.4-3.6 2.9z" fill="#2196F3"/>
	<text font-size="16.706" font-family="&apos;MyriadPro-Regular&apos;" transform="translate(342.99 436.6)" fill="#FFFFFF">Web Front-End Service</text>
	<text font-size="16.706" font-family="&apos;MyriadPro-Regular&apos;" transform="translate(753.29 427.78)" fill="#FFFFFF">Check Out Service</text>
</svg>
